<svg width="269" height="232" viewBox="0 0 269 232" fill="none" xmlns="http://www.w3.org/2000/svg">
<circle cx="28.5" cy="85.5" r="28.5" fill="#FFDD47"/>
<circle cx="251.5" cy="188.5" r="17.5" fill="#FFDD47"/>
<path d="M41.4 11.34V13.77C41.4 16.47 41.4 19.845 40.545 24.39H46.17V26.73H10.71V24.39H37.71C38.655 19.755 38.655 16.38 38.7 13.77V13.68H15.3V11.34H41.4ZM15.03 33.3V30.96H41.58V40.41H17.82V45.63H42.57V47.88H15.12V38.16H38.88V33.3H15.03ZM86.0616 41.04V43.47H50.6016V41.04H66.8916V33.3H55.1916V21.69H78.7716V15.03H55.0116V12.6H81.4716V23.94H57.8916V30.96H82.3716V33.3H69.5916V41.04H86.0616ZM122.443 9.63V29.97H119.653V20.88H109.843V28.26H92.5632V11.52H95.2632V17.46H107.143V11.52H109.843V18.54H119.653V9.63H122.443ZM95.2632 25.92H107.143V19.71H95.2632V25.92ZM97.5132 34.29V32.04H122.443V40.77H100.303V45.54H123.973V47.88H97.6032V38.61H119.653V34.29H97.5132ZM42.66 67.63V106.51H39.96V84.64H29.97V96.43H12.33V70.69H15.12V81.04H27.27V70.69H29.97V82.3H39.96V67.63H42.66ZM15.12 94.09H27.27V83.29H15.12V94.09ZM82.3716 67.63V106.51H79.6716V67.63H82.3716ZM53.2116 96.7V71.41H71.4816V73.84H56.0016V94.27H56.2716C63.8316 94.315 68.9166 94.045 74.9916 92.92L75.3516 95.35C69.0966 96.43 63.9216 96.7 56.2716 96.7H53.2116ZM102.193 70.24C108.178 70.285 112.408 73.885 112.453 79.24C112.408 84.1 108.853 87.565 103.633 88.06V95.125C107.413 94.945 111.238 94.675 114.793 94.18L114.973 96.34C106.738 97.69 97.4232 97.825 90.4932 97.78L90.0432 95.35C93.2382 95.35 96.9732 95.35 100.843 95.215V88.105C95.5332 87.61 91.9782 84.145 92.0232 79.24C91.9782 73.885 96.1632 70.285 102.193 70.24ZM94.7232 79.24C94.6332 83.065 97.8282 85.81 102.193 85.81C106.558 85.81 109.708 83.065 109.753 79.24C109.708 75.415 106.558 72.67 102.193 72.67C97.8282 72.67 94.6332 75.415 94.7232 79.24ZM117.403 106.42V67.63H120.193V83.92H126.853V86.35H120.193V106.42H117.403ZM172.433 67.63V78.16H178.463V80.59H172.433V91.03H169.733V67.63H172.433ZM142.373 74.29V71.95H152.633V67.27H155.333V71.95H165.503V74.29H142.373ZM144.713 83.38C144.668 79.195 148.358 76.495 153.983 76.45C159.518 76.495 163.208 79.195 163.253 83.38C163.208 87.61 159.518 90.265 153.983 90.31C148.358 90.265 144.668 87.61 144.713 83.38ZM147.323 83.38C147.323 86.215 149.978 88.06 153.983 88.06C157.898 88.06 160.553 86.215 160.553 83.38C160.553 80.635 157.898 78.7 153.983 78.7C149.978 78.7 147.323 80.635 147.323 83.38ZM148.223 105.88V93.37H172.433V105.88H148.223ZM150.923 103.54H169.733V95.62H150.923V103.54ZM191.805 72.4C191.805 80.05 190.59 89.41 184.695 96.88L182.445 95.53C187.62 89.365 189.15 81.715 189.42 74.74H183.075V72.4H191.805ZM191.175 98.23C196.845 91.3 197.835 81.715 197.97 74.74H193.065V72.4H200.355C200.355 75.46 200.265 79.195 199.725 83.11H205.575V68.71H208.185V104.35H205.575V85.45H199.365C198.465 90.31 196.71 95.35 193.425 99.58L191.175 98.23ZM212.685 106.42V67.63H215.295V106.42H212.685ZM46.08 142.46V144.8H10.71V142.46H46.08ZM12.78 137.96C19.26 137.375 26.82 134.18 26.82 129.5H13.95V127.25H42.84V129.5H29.88C29.88 134.18 37.485 137.375 44.1 137.96L43.11 140.21C37.08 139.535 30.645 137.015 28.395 132.83C26.1 137.015 19.71 139.535 13.68 140.21L12.78 137.96ZM15.03 151.01V148.76H41.4V157.22H17.91V161.72H42.66V163.97H15.21V155.06H38.7V151.01H15.03ZM48.8916 164.15H93.8916V119.15H48.8916V164.15ZM128.552 125.63V164.42H125.762V143.81H116.042V141.47H125.762V125.63H128.552ZM96.7816 154.61C107.537 149.39 112.667 141.425 113.297 132.2H98.4016V129.95H116.042C116.042 140.66 111.137 150.515 98.3116 156.77L96.7816 154.61ZM171.953 145.61V147.95H155.843V156.32H153.053V147.95H136.403V145.61H171.953ZM140.543 134.45C140.543 129.68 145.898 126.755 154.133 126.71C162.368 126.755 167.678 129.68 167.723 134.45C167.678 139.175 162.368 142.1 154.133 142.1C145.898 142.1 140.543 139.175 140.543 134.45ZM141.173 163.52V152.27H143.873V161.09H167.993V163.52H141.173ZM143.513 134.45C143.468 137.69 147.788 139.805 154.133 139.76C160.523 139.805 164.798 137.69 164.753 134.45C164.798 131.165 160.523 129.05 154.133 129.05C147.788 129.05 143.468 131.165 143.513 134.45ZM28.08 186.33C28.08 195.465 23.445 202.845 12.69 207.21L11.34 205.05C17.325 202.755 21.24 199.47 23.355 195.465L11.61 196.68L11.07 194.34L24.3 193.395C24.84 191.91 25.2 190.335 25.335 188.67H12.96V186.33H28.08ZM18.18 221.88V208.47H43.47V221.88H18.18ZM20.88 219.54H40.77V210.81H20.88V219.54ZM32.31 206.31V184.44H35.01V193.8H40.86V183.72H43.47V206.58H40.86V196.14H35.01V206.31H32.31ZM73.1016 187.95V190.29H68.4216V209.64C70.4466 209.505 72.4716 209.325 74.3616 209.1L74.5416 211.17C66.6216 212.385 57.3966 212.565 50.6016 212.61L50.2416 210.18L55.7316 210.09V190.29H51.5016V187.95H73.1016ZM58.4316 210.045C60.8166 210 63.2916 209.91 65.7216 209.775V190.29H58.4316V210.045ZM71.6616 200.82V198.48H79.8516V183.63H82.5516V222.42H79.8516V200.82H71.6616ZM109.483 189.57C109.483 196.5 117.898 202.35 123.973 203.52L122.623 205.86C117.178 204.51 110.518 200.28 108.088 194.34C105.658 200.28 98.9532 204.51 93.4632 205.86L92.2032 203.52C98.2782 202.35 106.603 196.545 106.603 189.57V186.51H109.483V189.57ZM90.4932 217.02V214.68H125.953V217.02H90.4932ZM128.675 222.15H173.675V177.15H128.675V222.15ZM199.623 191.64C199.578 195.96 202.863 200.37 207.813 202.17L206.283 204.33C202.458 202.845 199.623 199.92 198.273 196.41C196.878 200.235 193.953 203.7 190.083 205.41L188.463 203.25C193.503 201.045 196.923 195.915 196.923 191.64V186.06H199.623V191.64ZM195.483 215.49C195.483 211.17 200.388 208.65 208.443 208.65C216.363 208.65 221.313 211.17 221.313 215.49C221.313 219.81 216.363 222.285 208.443 222.33C200.388 222.285 195.483 219.81 195.483 215.49ZM198.273 215.49C198.228 218.325 202.188 220.125 208.443 220.08C214.563 220.125 218.523 218.325 218.523 215.49C218.523 212.61 214.563 210.855 208.443 210.9C202.188 210.855 198.228 212.61 198.273 215.49ZM209.973 206.49V184.44H212.673V194.43H218.433V183.72H221.043V207.66H218.433V196.77H212.673V206.49H209.973ZM258.235 183.63V193.8H264.265V196.23H258.235V206.58H255.445V183.63H258.235ZM228.085 203.25C231.28 203.25 235.06 203.25 238.975 203.16V200.505C234.25 200.235 231.325 198.39 231.325 195.42C231.325 192.18 234.835 190.335 240.325 190.29C245.725 190.335 249.235 192.18 249.235 195.42C249.235 198.39 246.31 200.235 241.675 200.505V203.07C245.455 202.89 249.28 202.575 252.835 202.08L253.105 203.97C244.645 205.41 235.285 205.5 228.445 205.5L228.085 203.25ZM229.075 188.85V186.78H238.975V183.27H241.675V186.78H251.575V188.85H229.075ZM233.215 210.45V208.47H258.235V215.94H236.095V219.81H259.765V221.97H233.395V213.96H255.445V210.45H233.215ZM234.025 195.42C233.98 197.31 236.455 198.615 240.325 198.57C244.15 198.615 246.625 197.31 246.625 195.42C246.625 193.485 244.15 192.315 240.325 192.27C236.455 192.315 233.98 193.485 234.025 195.42Z" fill="#282828"/>
<circle cx="159.5" cy="27.5" r="19.5" fill="url(#paint0_linear_3817_43247)"/>
<mask id="path-5-outside-1_3817_43247" maskUnits="userSpaceOnUse" x="134" y="11" width="51" height="33" fill="black">
<rect fill="white" x="134" y="11" width="51" height="33"/>
<path fill-rule="evenodd" clip-rule="evenodd" d="M183.192 13.4552C185.265 17.045 176.223 26.1454 162.997 33.7816C149.77 41.4177 137.368 44.6979 135.296 41.1081C134.644 39.9791 135.091 38.3051 136.423 36.3029C136.187 36.923 136.171 37.4406 136.397 37.8331C137.839 40.3299 148.583 36.8252 160.396 30.0052C172.209 23.1852 180.616 15.6324 179.175 13.1357C178.73 12.365 177.398 12.1661 175.423 12.46C179.442 11.6328 182.292 11.8959 183.192 13.4552Z"/>
</mask>
<path fill-rule="evenodd" clip-rule="evenodd" d="M183.192 13.4552C185.265 17.045 176.223 26.1454 162.997 33.7816C149.77 41.4177 137.368 44.6979 135.296 41.1081C134.644 39.9791 135.091 38.3051 136.423 36.3029C136.187 36.923 136.171 37.4406 136.397 37.8331C137.839 40.3299 148.583 36.8252 160.396 30.0052C172.209 23.1852 180.616 15.6324 179.175 13.1357C178.73 12.365 177.398 12.1661 175.423 12.46C179.442 11.6328 182.292 11.8959 183.192 13.4552Z" fill="#57FFE9"/>
<path d="M162.997 33.7816L162.497 32.9155L162.997 33.7816ZM183.192 13.4552L184.058 12.9552V12.9552L183.192 13.4552ZM135.296 41.1081L134.43 41.6081H134.43L135.296 41.1081ZM136.423 36.3029L137.358 36.6577L135.59 35.7492L136.423 36.3029ZM136.397 37.8331L137.263 37.3331H137.263L136.397 37.8331ZM160.396 30.0052L159.896 29.1391L160.396 30.0052ZM179.175 13.1357L178.309 13.6357V13.6357L179.175 13.1357ZM175.423 12.46L175.222 11.4805L175.57 13.4491L175.423 12.46ZM163.497 34.6476C170.164 30.7984 175.808 26.5631 179.541 22.8058C181.402 20.9325 182.83 19.1365 183.659 17.5307C184.464 15.9733 184.842 14.3133 184.058 12.9552L182.326 13.9552C182.578 14.392 182.604 15.2158 181.882 16.613C181.186 17.9618 179.915 19.5912 178.122 21.3962C174.546 24.9956 169.056 29.1286 162.497 32.9155L163.497 34.6476ZM134.43 41.6081C135.214 42.9662 136.841 43.4683 138.592 43.5505C140.397 43.6353 142.666 43.2966 145.219 42.6213C150.34 41.267 156.83 38.4968 163.497 34.6476L162.497 32.9155C155.937 36.7025 149.613 39.3904 144.708 40.6878C142.248 41.3384 140.202 41.6239 138.685 41.5527C137.115 41.479 136.414 41.045 136.162 40.6081L134.43 41.6081ZM135.59 35.7492C134.889 36.8039 134.378 37.8323 134.144 38.7968C133.908 39.7674 133.936 40.7525 134.43 41.6081L136.162 40.6081C136.004 40.3348 135.93 39.9183 136.087 39.2691C136.247 38.6138 136.625 37.8041 137.255 36.8566L135.59 35.7492ZM137.263 37.3331C137.253 37.3159 137.17 37.1511 137.358 36.6577L135.488 35.9482C135.204 36.6949 135.088 37.5652 135.531 38.3331L137.263 37.3331ZM159.896 29.1391C154.031 32.5252 148.456 35.073 144.197 36.4622C142.06 37.1595 140.305 37.5476 139.034 37.6242C138.396 37.6626 137.937 37.6187 137.632 37.5317C137.333 37.4463 137.272 37.3478 137.263 37.3331L135.531 38.3331C135.883 38.9427 136.473 39.2808 137.083 39.455C137.688 39.6276 138.397 39.6662 139.154 39.6206C140.672 39.5291 142.612 39.083 144.818 38.3636C149.244 36.9197 154.948 34.3052 160.896 30.8712L159.896 29.1391ZM178.309 13.6357C178.317 13.6503 178.372 13.7523 178.296 14.0545C178.219 14.3618 178.027 14.7816 177.675 15.3146C176.973 16.3773 175.76 17.7027 174.087 19.2053C170.755 22.1992 165.761 25.7531 159.896 29.1391L160.896 30.8712C166.844 27.4372 171.96 23.8048 175.424 20.6931C177.149 19.1429 178.506 17.6857 179.344 16.4169C179.762 15.7842 180.083 15.151 180.236 14.5408C180.39 13.9253 180.392 13.2452 180.041 12.6357L178.309 13.6357ZM175.57 13.4491C176.509 13.3095 177.216 13.3004 177.703 13.3842C178.202 13.47 178.299 13.6189 178.309 13.6357L180.041 12.6357C179.605 11.8818 178.814 11.546 178.042 11.4131C177.258 11.2782 176.313 11.3166 175.276 11.4709L175.57 13.4491ZM184.058 12.9552C183.375 11.7721 182.048 11.2418 180.595 11.0696C179.117 10.8945 177.282 11.0565 175.222 11.4805L175.625 13.4394C177.584 13.0363 179.183 12.9162 180.36 13.0557C181.561 13.1982 182.109 13.5791 182.326 13.9552L184.058 12.9552Z" fill="white" mask="url(#path-5-outside-1_3817_43247)"/>
<path d="M211.5 5L214.109 24.8908L234 27.5L214.109 30.1092L211.5 50L208.891 30.1092L189 27.5L208.891 24.8908L211.5 5Z" fill="#E8F8F4"/>
<defs>
<linearGradient id="paint0_linear_3817_43247" x1="179" y1="8" x2="140" y2="47" gradientUnits="userSpaceOnUse">
<stop stop-color="#52F32E"/>
<stop offset="1" stop-color="#07C9FF"/>
</linearGradient>
</defs>
</svg>
