<svg width="269" height="232" viewBox="0 0 269 232" fill="none" xmlns="http://www.w3.org/2000/svg">
<circle cx="28.5" cy="85.5" r="28.5" fill="#FFDD47"/>
<circle cx="251.5" cy="188.5" r="17.5" fill="#FFDD47"/>
<circle cx="159.5" cy="27.5" r="19.5" fill="url(#paint0_linear_3817_46338)"/>
<mask id="path-4-outside-1_3817_46338" maskUnits="userSpaceOnUse" x="134" y="11" width="51" height="33" fill="black">
<rect fill="white" x="134" y="11" width="51" height="33"/>
<path fill-rule="evenodd" clip-rule="evenodd" d="M183.192 13.4552C185.265 17.045 176.223 26.1454 162.997 33.7816C149.77 41.4177 137.368 44.6979 135.296 41.1081C134.644 39.9791 135.091 38.3051 136.423 36.3029C136.187 36.923 136.171 37.4406 136.397 37.8331C137.839 40.3299 148.583 36.8252 160.396 30.0052C172.209 23.1852 180.616 15.6324 179.175 13.1357C178.73 12.365 177.398 12.1661 175.423 12.46C179.442 11.6328 182.292 11.8959 183.192 13.4552Z"/>
</mask>
<path fill-rule="evenodd" clip-rule="evenodd" d="M183.192 13.4552C185.265 17.045 176.223 26.1454 162.997 33.7816C149.77 41.4177 137.368 44.6979 135.296 41.1081C134.644 39.9791 135.091 38.3051 136.423 36.3029C136.187 36.923 136.171 37.4406 136.397 37.8331C137.839 40.3299 148.583 36.8252 160.396 30.0052C172.209 23.1852 180.616 15.6324 179.175 13.1357C178.73 12.365 177.398 12.1661 175.423 12.46C179.442 11.6328 182.292 11.8959 183.192 13.4552Z" fill="#57FFE9"/>
<path d="M162.997 33.7816L162.497 32.9155L162.497 32.9155L162.997 33.7816ZM183.192 13.4552L184.058 12.9552L184.058 12.9552L183.192 13.4552ZM135.296 41.1081L134.43 41.6081L134.43 41.6081L135.296 41.1081ZM136.423 36.3029L137.358 36.6577L135.59 35.7492L136.423 36.3029ZM136.397 37.8331L137.263 37.3331L137.263 37.3331L136.397 37.8331ZM160.396 30.0052L159.896 29.1391L159.896 29.1391L160.396 30.0052ZM179.175 13.1357L178.309 13.6357L178.309 13.6357L179.175 13.1357ZM175.423 12.46L175.222 11.4805L175.57 13.4491L175.423 12.46ZM163.497 34.6476C170.164 30.7984 175.808 26.5631 179.541 22.8058C181.402 20.9325 182.83 19.1365 183.659 17.5307C184.464 15.9733 184.842 14.3133 184.058 12.9552L182.326 13.9552C182.578 14.392 182.604 15.2158 181.882 16.613C181.186 17.9617 179.915 19.5912 178.122 21.3962C174.546 24.9956 169.056 29.1286 162.497 32.9155L163.497 34.6476ZM134.43 41.6081C135.214 42.9662 136.841 43.4683 138.592 43.5505C140.397 43.6353 142.666 43.2966 145.219 42.6213C150.34 41.267 156.83 38.4968 163.497 34.6476L162.497 32.9155C155.937 36.7025 149.613 39.3904 144.708 40.6878C142.248 41.3384 140.202 41.6239 138.685 41.5527C137.115 41.479 136.414 41.045 136.162 40.6081L134.43 41.6081ZM135.59 35.7492C134.889 36.8039 134.378 37.8323 134.144 38.7968C133.908 39.7674 133.936 40.7525 134.43 41.6081L136.162 40.6081C136.004 40.3348 135.93 39.9183 136.087 39.2691C136.247 38.6138 136.625 37.8041 137.255 36.8566L135.59 35.7492ZM137.263 37.3331C137.253 37.3159 137.17 37.1511 137.358 36.6577L135.488 35.9482C135.204 36.6949 135.088 37.5652 135.531 38.3331L137.263 37.3331ZM159.896 29.1391C154.031 32.5252 148.456 35.073 144.197 36.4622C142.06 37.1595 140.305 37.5476 139.034 37.6242C138.396 37.6626 137.937 37.6187 137.632 37.5317C137.333 37.4463 137.272 37.3478 137.263 37.3331L135.531 38.3331C135.883 38.9427 136.473 39.2808 137.083 39.455C137.688 39.6276 138.397 39.6662 139.154 39.6206C140.672 39.5291 142.612 39.083 144.818 38.3636C149.244 36.9197 154.948 34.3052 160.896 30.8712L159.896 29.1391ZM178.309 13.6357C178.317 13.6503 178.372 13.7523 178.296 14.0545C178.219 14.3618 178.027 14.7816 177.675 15.3146C176.973 16.3773 175.76 17.7027 174.087 19.2053C170.755 22.1992 165.761 25.7531 159.896 29.1391L160.896 30.8712C166.844 27.4372 171.96 23.8048 175.424 20.6931C177.149 19.1429 178.506 17.6857 179.344 16.4169C179.762 15.7842 180.083 15.151 180.236 14.5408C180.39 13.9253 180.392 13.2452 180.041 12.6357L178.309 13.6357ZM175.57 13.4491C176.509 13.3095 177.216 13.3004 177.703 13.3842C178.202 13.47 178.299 13.6189 178.309 13.6357L180.041 12.6357C179.605 11.8818 178.814 11.546 178.042 11.4131C177.258 11.2782 176.313 11.3166 175.276 11.4709L175.57 13.4491ZM184.058 12.9552C183.375 11.7721 182.048 11.2418 180.595 11.0696C179.117 10.8945 177.282 11.0565 175.222 11.4805L175.625 13.4394C177.584 13.0363 179.183 12.9162 180.36 13.0557C181.561 13.1982 182.109 13.5791 182.326 13.9552L184.058 12.9552Z" fill="white" mask="url(#path-4-outside-1_3817_46338)"/>
<path d="M211.5 5L214.109 24.8908L234 27.5L214.109 30.1092L211.5 50L208.891 30.1092L189 27.5L208.891 24.8908L211.5 5Z" fill="#E8F8F4"/>
<defs>
<linearGradient id="paint0_linear_3817_46338" x1="179" y1="8" x2="140" y2="47" gradientUnits="userSpaceOnUse">
<stop stop-color="#52F32E"/>
<stop offset="1" stop-color="#07C9FF"/>
</linearGradient>
</defs>
</svg>
