<svg width="50" height="50" viewBox="0 0 50 50" fill="none" xmlns="http://www.w3.org/2000/svg">
<circle cx="25" cy="25" r="24.65" fill="#25DBFF" stroke="#282828" stroke-width="0.7"/>
<mask id="mask0_4221_62859" style="mask-type:alpha" maskUnits="userSpaceOnUse" x="0" y="0" width="50" height="50">
<circle cx="25" cy="25" r="24.65" fill="#7BEBFF" stroke="#282828" stroke-width="0.7"/>
</mask>
<g mask="url(#mask0_4221_62859)">
<path d="M17.4999 11.5C13.0999 9.5 16.6666 0.666667 18.9999 -3.5L43.5 -1.5C46.3333 1.5 51.7 8.3 50.5 11.5C49 15.5 44.5 17.5 41 14C37.5 10.5 29 20.5 28 14C27 7.5 22.9999 14 17.4999 11.5Z" fill="#BDFF8B"/>
<path d="M9.5 20C7.9 16.8 2.5 17 0 17.5L-4.5 32L9.5 49C12.1666 51 17.7999 54.1 18.9999 50.5C20.4999 46 16 44 17.4999 40C18.9999 36 25.5 35 21.5 30C17.5 25 10.5 33.5 7.5 30C4.5 26.5 11.5 24 9.5 20Z" fill="#BDFF8B"/>
<path d="M26.5 22C27.3 19.6 30.1667 21.6667 31.5 23C33 24.2462 35.5 22.5 36 24C36.5 25.5 35.5 26.5 34 27.5C32.5 28.5 36 33 33 34C30 35 30 30 30 28C30 26 25.5 25 26.5 22Z" fill="#BDFF8B"/>
<path d="M44 32C45.6 29.6 49 30 50.5 30.5L44 44C42 45.6667 37.5 48.8 35.5 48C33 47 32 43 34 41C36 39 40.5 40 42 37.5C43.5 35 42 35 44 32Z" fill="#BDFF8B"/>
<path d="M17.4999 11.5C13.0999 9.5 16.6666 0.666667 18.9999 -3.5L43.5 -1.5C46.3333 1.5 51.7 8.3 50.5 11.5C49 15.5 44.5 17.5 41 14C37.5 10.5 29 20.5 28 14C27 7.5 22.9999 14 17.4999 11.5Z" stroke="#282828" stroke-width="0.7"/>
<path d="M9.5 20C7.9 16.8 2.5 17 0 17.5L-4.5 32L9.5 49C12.1666 51 17.7999 54.1 18.9999 50.5C20.4999 46 16 44 17.4999 40C18.9999 36 25.5 35 21.5 30C17.5 25 10.5 33.5 7.5 30C4.5 26.5 11.5 24 9.5 20Z" stroke="#282828" stroke-width="0.7"/>
<path d="M26.5 22C27.3 19.6 30.1667 21.6667 31.5 23C33 24.2462 35.5 22.5 36 24C36.5 25.5 35.5 26.5 34 27.5C32.5 28.5 36 33 33 34C30 35 30 30 30 28C30 26 25.5 25 26.5 22Z" stroke="#282828" stroke-width="0.7"/>
<path d="M44 32C45.6 29.6 49 30 50.5 30.5L44 44C42 45.6667 37.5 48.8 35.5 48C33 47 32 43 34 41C36 39 40.5 40 42 37.5C43.5 35 42 35 44 32Z" stroke="#282828" stroke-width="0.7"/>
</g>
<circle cx="25" cy="25" r="24.65" stroke="#282828" stroke-width="0.7"/>
</svg>
