<svg width="50" height="50" viewBox="0 0 50 50" fill="none" xmlns="http://www.w3.org/2000/svg">
<circle cx="25" cy="25" r="24.65" fill="white" stroke="#282828" stroke-width="0.7"/>
<path fill-rule="evenodd" clip-rule="evenodd" d="M13.9143 20.5197L13.9141 20.5202C11.4405 26.6426 14.3985 33.611 20.5208 36.0846C26.6374 38.5558 33.5983 35.606 36.0782 29.4955C36.0806 29.4895 36.0831 29.4834 36.0855 29.4774C37.3223 26.4162 35.8434 22.932 32.7822 21.6952C29.721 20.4584 26.2367 21.9373 24.9999 24.9985C24.997 25.0057 24.9941 25.0129 24.9913 25.0201C23.7468 28.0667 20.2718 29.5358 17.2178 28.3019C14.1566 27.0651 12.6776 23.5809 13.9144 20.5197L13.9143 20.5197Z" fill="#1A81FF"/>
<path d="M13.9143 20.5197L14.0454 20.1952L13.7209 20.064L13.5898 20.3886L13.9143 20.5197ZM36.0782 29.4955L35.7541 29.3633L35.7539 29.3639L36.0782 29.4955ZM24.9913 25.0201L25.3153 25.1525L25.3163 25.15L24.9913 25.0201ZM13.9144 20.5197L14.2389 20.6508L14.3701 20.3263L14.0455 20.1952L13.9144 20.5197ZM14.2386 20.6513L14.2388 20.6508L13.5898 20.3886L13.5896 20.389L14.2386 20.6513ZM20.652 35.7601C14.7088 33.3589 11.8375 26.5944 14.2386 20.6513L13.5896 20.389C11.0436 26.6907 14.0881 33.8631 20.3897 36.4091L20.652 35.7601ZM35.7539 29.3639C33.3466 35.2955 26.5894 38.159 20.652 35.7601L20.3897 36.4091C26.6853 38.9527 33.85 35.9165 36.4025 29.6271L35.7539 29.3639ZM35.761 29.3463C35.7587 29.352 35.7564 29.3577 35.7541 29.3633L36.4023 29.6276C36.4049 29.6213 36.4074 29.6149 36.41 29.6085L35.761 29.3463ZM32.651 22.0197C35.533 23.1841 36.9254 26.4643 35.761 29.3463L36.41 29.6085C37.7192 26.3681 36.1537 22.6799 32.9133 21.3706L32.651 22.0197ZM25.3245 25.1296C26.4888 22.2477 29.7691 20.8553 32.651 22.0197L32.9133 21.3706C29.6729 20.0614 25.9846 21.627 24.6754 24.8674L25.3245 25.1296ZM25.3163 25.15C25.319 25.1432 25.3217 25.1364 25.3245 25.1296L24.6754 24.8674C24.6723 24.8751 24.6693 24.8827 24.6662 24.8902L25.3163 25.15ZM17.0867 28.6264C20.3195 29.9326 23.998 28.3774 25.3153 25.1525L24.6672 24.8878C23.4957 27.7559 20.2241 29.139 17.3489 27.9774L17.0867 28.6264ZM13.5899 20.3886C12.2807 23.629 13.8463 27.3172 17.0867 28.6264L17.3489 27.9774C14.4669 26.813 13.0746 23.5328 14.2389 20.6508L13.5899 20.3886ZM13.7832 20.8442L13.7833 20.8442L14.0455 20.1952L14.0454 20.1952L13.7832 20.8442Z" fill="#282828"/>
<path fill-rule="evenodd" clip-rule="evenodd" d="M13.9264 20.4905C13.9224 20.5003 13.9184 20.5101 13.9144 20.52C12.6776 23.5812 14.1566 27.0654 17.2178 28.3022C20.2789 29.539 23.7631 28.0601 24.9999 24.999L25 24.999C26.2369 21.9381 29.721 20.4593 32.782 21.6961C35.8431 22.9328 37.3221 26.4168 36.0855 29.4779C38.5589 23.3556 35.601 16.3874 29.4787 13.9138C23.3663 11.4443 16.4107 14.3885 13.9264 20.4905Z" fill="#FF4747"/>
<path d="M13.9264 20.4905L14.2503 20.6233L14.2506 20.6224L13.9264 20.4905ZM24.9999 24.999L25.131 24.6745L24.8065 24.5434L24.6754 24.8679L24.9999 24.999ZM25 24.999L24.8689 25.3236L25.1934 25.4547L25.3245 25.1302L25 24.999ZM36.0855 29.4779L35.761 29.3468L36.4101 29.609L36.0855 29.4779ZM14.2389 20.6511C14.2427 20.6418 14.2465 20.6325 14.2503 20.6233L13.6026 20.3577C13.5984 20.368 13.5941 20.3784 13.5899 20.3889L14.2389 20.6511ZM17.3489 27.9777C14.4669 26.8133 13.0745 23.5331 14.2389 20.6511L13.5899 20.3889C12.2807 23.6293 13.8463 27.3175 17.0867 28.6267L17.3489 27.9777ZM24.6754 24.8679C23.511 27.7498 20.2308 29.1421 17.3489 27.9777L17.0867 28.6267C20.327 29.9359 24.0152 28.3704 25.3244 25.1301L24.6754 24.8679ZM24.8688 25.3235L24.8689 25.3236L25.1311 24.6745L25.131 24.6745L24.8688 25.3235ZM25.3245 25.1302C26.489 22.2484 29.7691 20.8562 32.6509 22.0206L32.9132 21.3715C29.6729 20.0624 25.9848 21.6278 24.6755 24.8679L25.3245 25.1302ZM32.6509 22.0206C35.5328 23.1849 36.9252 26.4649 35.761 29.3468L36.4101 29.609C37.719 26.3687 36.1534 22.6807 32.9132 21.3715L32.6509 22.0206ZM36.4101 29.609C38.9558 23.3075 35.9113 16.1353 29.6098 13.5893L29.3476 14.2383C35.2906 16.6395 38.162 23.4037 35.761 29.3468L36.4101 29.609ZM29.6098 13.5893C23.3185 11.0474 16.1593 14.0778 13.6023 20.3585L14.2506 20.6224C16.6621 14.6991 23.4142 11.8411 29.3476 14.2383L29.6098 13.5893Z" fill="#282828"/>
<rect x="7" y="13.6772" width="10.0728" height="1.43897" transform="rotate(-45 7 13.6772)" fill="#282828"/>
<rect x="8.52637" y="15.2036" width="10.0728" height="1.43897" transform="rotate(-45 8.52637 15.2036)" fill="#282828"/>
<rect x="10.0527" y="16.73" width="10.0728" height="1.43897" transform="rotate(-45 10.0527 16.73)" fill="#282828"/>
<rect x="36.3794" y="6.55322" width="4.31692" height="1.43897" transform="rotate(45 36.3794 6.55322)" fill="#282828"/>
<rect x="40.4497" y="10.623" width="4.31692" height="1.43897" transform="rotate(45 40.4497 10.623)" fill="#282828"/>
<rect x="34.8535" y="8.0791" width="10.0728" height="1.43897" transform="rotate(45 34.8535 8.0791)" fill="#282828"/>
<rect x="33.3267" y="9.60547" width="4.31692" height="1.43897" transform="rotate(45 33.3267 9.60547)" fill="#282828"/>
<rect x="37.397" y="13.6753" width="4.31692" height="1.43897" transform="rotate(45 37.397 13.6753)" fill="#282828"/>
<rect width="4.31692" height="1.43897" transform="matrix(-0.707107 0.707107 0.707107 0.707107 39.4316 32.8374)" fill="#282828"/>
<rect width="4.31692" height="1.43897" transform="matrix(-0.707107 0.707107 0.707107 0.707107 35.3618 36.9077)" fill="#282828"/>
<rect width="4.31692" height="1.43897" transform="matrix(-0.707107 0.707107 0.707107 0.707107 40.958 34.3638)" fill="#282828"/>
<rect width="4.31692" height="1.43897" transform="matrix(-0.707107 0.707107 0.707107 0.707107 36.8877 38.4336)" fill="#282828"/>
<rect width="4.31692" height="1.43897" transform="matrix(-0.707107 0.707107 0.707107 0.707107 42.4844 35.8896)" fill="#282828"/>
<rect width="4.31692" height="1.43897" transform="matrix(-0.707107 0.707107 0.707107 0.707107 38.4141 39.96)" fill="#282828"/>
<rect width="10.0728" height="1.43897" transform="matrix(-0.707107 -0.707107 -0.707107 0.707107 18.1924 39.9595)" fill="#282828"/>
<rect width="4.31692" height="1.43897" transform="matrix(-0.707107 -0.707107 -0.707107 0.707107 16.666 41.4858)" fill="#282828"/>
<rect width="4.31692" height="1.43897" transform="matrix(-0.707107 -0.707107 -0.707107 0.707107 12.5962 37.4155)" fill="#282828"/>
<rect width="10.0728" height="1.43897" transform="matrix(-0.707107 -0.707107 -0.707107 0.707107 15.1396 43.0117)" fill="#282828"/>
</svg>
