<svg width="70" height="70" viewBox="0 0 70 70" fill="none" xmlns="http://www.w3.org/2000/svg">
<rect x="0.690552" y="0.460938" width="68.9045" height="68.9045" rx="17.2261" fill="#FFF757"/>
<g clip-path="url(#clip0_4210_14910)">
<path d="M17.9957 42.9266C25.4195 42.9266 31.4377 36.9084 31.4377 29.4846C31.4377 22.0607 25.4195 16.0425 17.9957 16.0425C10.5718 16.0425 4.55359 22.0607 4.55359 29.4846C4.55359 36.9084 10.5718 42.9266 17.9957 42.9266Z" fill="white" stroke="#282828" stroke-width="0.464588" stroke-linecap="round" stroke-linejoin="round"/>
<path d="M19.3146 38.7145C23.9161 38.7145 27.6462 34.9843 27.6462 30.3829C27.6462 25.7815 23.9161 22.0513 19.3146 22.0513C14.7132 22.0513 10.983 25.7815 10.983 30.3829C10.983 34.9843 14.7132 38.7145 19.3146 38.7145Z" fill="#282828"/>
<path d="M20.1101 29.7175C21.3689 27.8554 21.0614 25.4481 19.4232 24.3406C17.785 23.2332 15.4365 23.8449 14.1776 25.707C12.9188 27.5691 13.2263 29.9764 14.8645 31.0839C16.5027 32.1913 18.8512 31.5796 20.1101 29.7175Z" fill="white"/>
<path d="M20.4534 35.5489C19.9516 36.7259 18.5888 37.2896 17.4057 36.8188C16.2225 36.348 15.665 35.0038 16.1668 33.833C16.6685 32.6623 18.0313 32.0924 19.2145 32.5632C20.3976 33.034 20.9551 34.3782 20.4534 35.5489Z" fill="white"/>
<path d="M15.1944 33.5305C15.6214 33.3374 15.8133 32.8396 15.6229 32.4188C15.4326 31.998 14.9321 31.8135 14.505 32.0067C14.078 32.1998 13.8861 32.6976 14.0765 33.1184C14.2668 33.5392 14.7673 33.7237 15.1944 33.5305Z" fill="white"/>
<path d="M25.4011 30.9925C25.7092 29.0184 24.9533 27.2612 23.7128 27.0676C22.4722 26.874 21.2168 28.3174 20.9088 30.2914C20.6007 32.2654 21.3566 34.0227 22.5971 34.2163C23.8377 34.4099 25.0931 32.9665 25.4011 30.9925Z" fill="white"/>
<path d="M42.1416 47.3994C50.366 47.3994 57.0332 40.7322 57.0332 32.5078C57.0332 24.2834 50.366 17.6162 42.1416 17.6162C33.9172 17.6162 27.25 24.2834 27.25 32.5078C27.25 40.7322 33.9172 47.3994 42.1416 47.3994Z" fill="white" stroke="#282828" stroke-width="0.464588" stroke-linecap="round" stroke-linejoin="round"/>
<path d="M40.2768 41.6201C45.3709 41.6201 49.5005 37.4905 49.5005 32.3965C49.5005 27.3024 45.3709 23.1729 40.2768 23.1729C35.1828 23.1729 31.0532 27.3024 31.0532 32.3965C31.0532 37.4905 35.1828 41.6201 40.2768 41.6201Z" fill="#282828"/>
<path d="M41.1598 31.6534C42.5547 29.5901 42.215 26.9234 40.4011 25.6971C38.5872 24.4708 35.986 25.1494 34.5911 27.2127C33.1962 29.2761 33.5359 31.9428 35.3498 33.1691C37.1637 34.3953 39.765 33.7168 41.1598 31.6534Z" fill="white"/>
<path d="M41.5409 38.12C40.9896 39.4209 39.4782 40.0527 38.1649 39.5262C36.8517 38.9997 36.2384 37.5192 36.7959 36.2183C37.3534 34.9175 38.8587 34.2856 40.1719 34.8122C41.4852 35.3387 42.0984 36.8192 41.5409 38.12Z" fill="white"/>
<path d="M36.1948 35.3813C35.9904 35.8582 35.4391 36.0874 34.9621 35.8954C34.4851 35.7034 34.2621 35.1645 34.4604 34.6875C34.6586 34.2105 35.2161 33.9813 35.6931 34.1733C36.1701 34.3654 36.3931 34.9043 36.1948 35.3813Z" fill="white"/>
<path d="M47.0184 33.073C47.3597 30.886 46.5239 28.9395 45.1515 28.7253C43.7792 28.5111 42.3899 30.1104 42.0486 32.2974C41.7073 34.4844 42.5432 36.4309 43.9156 36.6451C45.2879 36.8593 46.6771 35.26 47.0184 33.073Z" fill="white"/>
<path d="M10.989 42.1062C11.0881 45.5566 14.9411 50.444 23.8736 50.1839C32.806 49.9237 39.5209 46.3309 40.289 41.7284C41.0571 37.1259 38.4802 35.5339 33.8901 35.664C29.3061 35.8002 27.4602 37.5781 24.8523 37.6524C22.2444 37.7267 20.2312 36.302 16.9853 36.3949C13.7394 36.4878 10.9023 39.0152 10.989 42.1062Z" fill="#FFAD94" stroke="#282828" stroke-width="0.404191" stroke-linecap="round" stroke-linejoin="round"/>
<path d="M24.7786 48.307C29.9944 48.1521 34.0642 44.5841 34.0022 42.2611C33.9403 39.9382 33.2032 38.6559 30.2793 38.7364C27.3555 38.817 27.052 39.3063 24.5247 39.3807C21.9973 39.455 21.7433 38.9842 18.9806 39.0648C16.2178 39.1453 15.7346 41.5983 15.7718 43.0292C15.809 44.4602 16.9612 48.53 24.7848 48.3008L24.7786 48.307Z" fill="#282828" stroke="#282828" stroke-width="0.404191" stroke-linecap="round" stroke-linejoin="round"/>
</g>
<defs>
<clipPath id="clip0_4210_14910">
<rect width="53.0993" height="34.7326" fill="white" transform="translate(4.24316 15.7324)"/>
</clipPath>
</defs>
</svg>
