<svg width="70" height="70" viewBox="0 0 70 70" fill="none" xmlns="http://www.w3.org/2000/svg">
<rect width="70" height="70" rx="17.5" fill="#FFDE3B"/>
<g clip-path="url(#clip0_4221_58357)">
<path d="M13.5893 53.1676C19.0425 52.1874 22.7784 47.5829 21.9336 42.8832C21.0888 38.1836 15.9833 35.1683 10.5301 36.1485C5.07694 37.1287 1.34106 41.7332 2.18582 46.4329C3.03058 51.1326 8.13609 54.1478 13.5893 53.1676Z" fill="#FF4F18" stroke="#282828" stroke-width="0.607464" stroke-linecap="round" stroke-linejoin="round"/>
<path d="M67.9591 41.7727C68.3802 37.0163 64.2476 32.7643 58.7286 32.2756C53.2096 31.7869 48.3942 35.2466 47.973 40.003C47.5519 44.7594 51.6845 49.0114 57.2035 49.5001C62.7225 49.9887 67.5379 46.5291 67.9591 41.7727Z" fill="#FF4F18" stroke="#282828" stroke-width="0.607464" stroke-linecap="round" stroke-linejoin="round"/>
<path d="M10.1516 19.7454C9.30911 22.0577 8.8789 24.6748 8.98048 27.4353C9.32703 36.4039 15.1826 43.4544 22.0659 43.1915C28.9491 42.9286 34.249 35.4419 33.9025 26.4793C33.8905 26.0969 33.8606 25.7205 33.8248 25.344C33.783 24.8839 33.7292 24.4298 33.6575 23.9877C33.2512 21.3945 32.3729 19.0284 31.1539 17.0327" fill="white"/>
<path d="M10.1516 19.7454C9.30911 22.0577 8.8789 24.6748 8.98048 27.4353C9.32703 36.4039 15.1826 43.4544 22.0659 43.1915C28.9491 42.9286 34.249 35.4419 33.9025 26.4793C33.8905 26.0969 33.8606 25.7205 33.8248 25.344C33.783 24.8839 33.7292 24.4298 33.6575 23.9877C33.2512 21.3945 32.3728 19.0284 31.1539 17.0327" stroke="#282828" stroke-width="0.607464" stroke-linecap="round" stroke-linejoin="round"/>
<path d="M19.2098 21.4308C17.8834 21.4845 16.5868 21.4069 15.326 21.2216C14.6867 22.9305 14.3521 25.0039 14.4358 27.2266C14.6568 32.9268 17.5488 37.4439 20.8948 37.3185C24.2408 37.193 26.7743 32.4607 26.5592 26.7605C26.5592 26.7366 26.5592 26.7127 26.5592 26.6888C24.0138 26.5753 22.1316 25.9599 22.1018 25.1532C22.0719 24.3466 23.733 23.6595 26.0752 23.3249C25.8063 22.2494 25.4418 21.2575 24.9937 20.3911C23.1832 20.9886 21.2414 21.3531 19.2098 21.4308Z" fill="#282828"/>
<path d="M22.0957 25.1532C22.1256 25.9658 24.0078 26.5753 26.5531 26.6888C26.5053 25.4997 26.3321 24.3705 26.0691 23.3188C23.7269 23.6535 22.0659 24.3764 22.0957 25.1472V25.1532Z" fill="white"/>
<path d="M10.1522 19.7455C12.0523 14.5472 16.0556 10.9024 20.8177 10.7232C24.9644 10.5619 28.7347 13.0594 31.1546 17.0329" stroke="#282828" stroke-width="0.607464" stroke-linecap="round" stroke-linejoin="round"/>
<path d="M15.3266 21.2213C16.5814 21.4066 17.884 21.4783 19.2104 21.4305C21.2419 21.3528 23.1838 20.9883 24.9943 20.3908C27.3066 19.626 29.3919 18.4728 31.1605 17.0328C28.7406 13.0654 24.9644 10.5678 20.8237 10.7232C16.0616 10.9084 12.0583 14.5472 10.1582 19.7455C11.7655 20.4506 13.5042 20.9525 15.3386 21.2213H15.3266Z" fill="#BEFF74" stroke="#282828" stroke-width="0.497922" stroke-linecap="round" stroke-linejoin="round"/>
<path d="M14.4717 16.8652C14.4717 16.8652 14.5972 19.3389 16.3897 21.233L14.4717 16.8652Z" fill="#BEFF74"/>
<path d="M14.4717 16.8652C14.4717 16.8652 14.5972 19.3389 16.3897 21.233" stroke="#282828" stroke-width="0.497922" stroke-linecap="round" stroke-linejoin="round"/>
<path d="M17.931 17.2236C17.931 17.2236 18.0565 19.6973 19.849 21.5914L17.931 17.2236Z" fill="#BEFF74"/>
<path d="M17.931 17.2236C17.931 17.2236 18.0565 19.6973 19.849 21.5914" stroke="#282828" stroke-width="0.497922" stroke-linecap="round" stroke-linejoin="round"/>
<path d="M33.5017 17.3605C32.5696 19.637 32.0378 22.2362 32.0378 25.0026C32.0378 33.9772 37.6185 41.2488 44.5078 41.2488C51.397 41.2488 56.9778 33.9772 56.9778 25.0026C56.9778 24.6202 56.9658 24.2438 56.9419 23.8674C56.918 23.4073 56.8822 22.9532 56.8284 22.505C56.5177 19.8999 55.7349 17.4979 54.5937 15.4604" fill="white"/>
<path d="M33.5017 17.3605C32.5696 19.637 32.0378 22.2362 32.0378 25.0026C32.0378 33.9772 37.6186 41.2488 44.5078 41.2488C51.397 41.2488 56.9778 33.9772 56.9778 25.0026C56.9778 24.6202 56.9658 24.2438 56.9419 23.8674C56.918 23.4073 56.8822 22.9532 56.8284 22.505C56.5177 19.8999 55.7349 17.4979 54.5937 15.4604" stroke="#282828" stroke-width="0.607464" stroke-linecap="round" stroke-linejoin="round"/>
<path d="M42.4883 19.3983C41.1619 19.3983 39.8653 19.2728 38.6165 19.0398C37.9174 20.7248 37.4991 22.7802 37.4991 25.0029C37.4991 30.7091 40.2118 35.3338 43.5638 35.3338C46.9158 35.3338 49.6285 30.7091 49.6285 25.0029C49.6285 24.979 49.6285 24.9551 49.6285 24.9312C47.0891 24.7161 45.2309 24.0349 45.2309 23.2223C45.2309 22.4097 46.9218 21.7943 49.276 21.5493C49.0489 20.4618 48.7203 19.458 48.308 18.5737C46.4797 19.0995 44.5258 19.3923 42.4883 19.3923V19.3983Z" fill="#282828"/>
<path d="M45.2308 23.2228C45.2308 24.0354 47.0891 24.7166 49.6285 24.9317C49.6285 23.7427 49.497 22.6074 49.276 21.5498C46.9218 21.7948 45.2308 22.452 45.2308 23.2228Z" fill="white"/>
<path d="M33.5016 17.3614C35.5988 12.2408 39.7396 8.75732 44.5077 8.75732C48.6543 8.75732 52.329 11.3983 54.5936 15.4554" stroke="#282828" stroke-width="0.607464" stroke-linecap="round" stroke-linejoin="round"/>
<path d="M38.6165 19.0403C39.8653 19.2733 41.1619 19.3988 42.4883 19.3988C44.5199 19.3988 46.4737 19.106 48.308 18.5802C50.6443 17.905 52.7774 16.8355 54.5998 15.4612C52.3352 11.4042 48.6606 8.76318 44.5139 8.76318C39.7458 8.76318 35.6051 12.2466 33.5078 17.3732C35.0852 18.1381 36.806 18.7117 38.6225 19.0463L38.6165 19.0403Z" fill="#BEFF74" stroke="#282828" stroke-width="0.497922" stroke-linecap="round" stroke-linejoin="round"/>
<path d="M37.9296 14.6489C37.9296 14.6489 37.9594 17.1226 39.6803 19.0884L37.9296 14.6489Z" fill="#BEFF74"/>
<path d="M37.9296 14.6489C37.9296 14.6489 37.9594 17.1226 39.6803 19.0884" stroke="#282828" stroke-width="0.497922" stroke-linecap="round" stroke-linejoin="round"/>
<path d="M41.377 15.144C41.377 15.144 41.4068 17.6177 43.1276 19.5835L41.377 15.144Z" fill="#BEFF74"/>
<path d="M41.377 15.144C41.377 15.144 41.4068 17.6177 43.1276 19.5835" stroke="#282828" stroke-width="0.497922" stroke-linecap="round" stroke-linejoin="round"/>
<path d="M26.0278 45.3241C26.0278 45.3241 32.457 52.3268 38.8025 41.6494" stroke="#282828" stroke-width="0.995844" stroke-linecap="round" stroke-linejoin="round"/>
</g>
<defs>
<clipPath id="clip0_4221_58357">
<rect width="66.6518" height="45.3149" fill="white" transform="translate(1.70288 8.39258)"/>
</clipPath>
</defs>
</svg>
