<svg width="70" height="70" viewBox="0 0 70 70" fill="none" xmlns="http://www.w3.org/2000/svg">
<rect width="70" height="70" rx="17.5" fill="#FFDE3B"/>
<g clip-path="url(#clip0_4210_14949)">
<path d="M13.5893 53.1671C19.0425 52.1869 22.7784 47.5824 21.9336 42.8828C21.0888 38.1831 15.9833 35.1678 10.5301 36.148C5.07694 37.1282 1.34106 41.7327 2.18582 46.4324C3.03058 51.1321 8.13609 54.1473 13.5893 53.1671Z" fill="#FF4F18" stroke="#282828" stroke-width="0.607464" stroke-linecap="round" stroke-linejoin="round"/>
<path d="M67.9593 41.7722C68.3805 37.0158 64.2478 32.7638 58.7288 32.2751C53.2098 31.7864 48.3944 35.2461 47.9733 40.0025C47.5521 44.7589 51.6847 49.0109 57.2037 49.4996C62.7227 49.9882 67.5382 46.5286 67.9593 41.7722Z" fill="#FF4F18" stroke="#282828" stroke-width="0.607464" stroke-linecap="round" stroke-linejoin="round"/>
<path d="M10.1512 19.7454C9.30874 22.0577 8.87854 24.6748 8.98011 27.4353C9.32667 36.4039 15.1822 43.4544 22.0655 43.1915C28.9488 42.9286 34.2487 35.4419 33.9021 26.4793C33.8901 26.0969 33.8603 25.7205 33.8244 25.344C33.7826 24.8839 33.7288 24.4298 33.6571 23.9877C33.2508 21.3945 32.3725 19.0284 31.1536 17.0327" fill="white"/>
<path d="M10.1512 19.7454C9.30874 22.0577 8.87854 24.6748 8.98011 27.4353C9.32667 36.4039 15.1822 43.4544 22.0655 43.1915C28.9488 42.9286 34.2487 35.4419 33.9021 26.4793C33.8901 26.0969 33.8603 25.7205 33.8244 25.344C33.7826 24.8839 33.7288 24.4298 33.6571 23.9877C33.2508 21.3945 32.3725 19.0284 31.1536 17.0327" stroke="#282828" stroke-width="0.607464" stroke-linecap="round" stroke-linejoin="round"/>
<path d="M19.2093 21.4303C17.8829 21.4841 16.5863 21.4064 15.3256 21.2212C14.6862 22.93 14.3516 25.0034 14.4353 27.2261C14.6563 32.9263 17.5483 37.4435 20.8943 37.318C24.2403 37.1925 26.7738 32.4602 26.5587 26.76C26.5587 26.7361 26.5587 26.7122 26.5587 26.6883C24.0133 26.5748 22.1312 25.9594 22.1013 25.1527C22.0714 24.3461 23.7325 23.659 26.0747 23.3244C25.8058 22.2489 25.4413 21.257 24.9932 20.3906C23.1828 20.9881 21.2409 21.3526 19.2093 21.4303Z" fill="#282828"/>
<path d="M22.0954 25.1527C22.1252 25.9653 24.0074 26.5748 26.5528 26.6883C26.505 25.4993 26.3317 24.37 26.0688 23.3184C23.7266 23.653 22.0655 24.3759 22.0954 25.1467V25.1527Z" fill="white"/>
<path d="M10.1521 19.745C12.0522 14.5467 16.0555 10.902 20.8176 10.7227C24.9643 10.5614 28.7345 13.059 31.1544 17.0324" stroke="#282828" stroke-width="0.607464" stroke-linecap="round" stroke-linejoin="round"/>
<path d="M15.3261 21.2209C16.5809 21.4061 17.8835 21.4778 19.2099 21.43C21.2415 21.3523 23.1834 20.9878 24.9938 20.3903C27.3061 19.6255 29.3914 18.4723 31.1601 17.0323C28.7402 13.0649 24.9639 10.5673 20.8232 10.7227C16.0611 10.9079 12.0578 14.5467 10.1577 19.745C11.765 20.4501 13.5037 20.952 15.3381 21.2209H15.3261Z" fill="#BEFF74" stroke="#282828" stroke-width="0.497922" stroke-linecap="round" stroke-linejoin="round"/>
<path d="M14.4714 16.8652C14.4714 16.8652 14.5969 19.3389 16.3894 21.233L14.4714 16.8652Z" fill="#BEFF74"/>
<path d="M14.4714 16.8652C14.4714 16.8652 14.5969 19.3389 16.3894 21.233" stroke="#282828" stroke-width="0.497922" stroke-linecap="round" stroke-linejoin="round"/>
<path d="M17.9308 17.2236C17.9308 17.2236 18.0563 19.6973 19.8488 21.5914L17.9308 17.2236Z" fill="#BEFF74"/>
<path d="M17.9308 17.2236C17.9308 17.2236 18.0563 19.6973 19.8488 21.5914" stroke="#282828" stroke-width="0.497922" stroke-linecap="round" stroke-linejoin="round"/>
<path d="M33.5022 17.361C32.5701 19.6375 32.0383 22.2367 32.0383 25.0031C32.0383 33.9777 37.619 41.2493 44.5083 41.2493C51.3975 41.2493 56.9782 33.9777 56.9782 25.0031C56.9782 24.6207 56.9663 24.2443 56.9424 23.8679C56.9185 23.4078 56.8826 22.9537 56.8289 22.5055C56.5182 19.9004 55.7354 17.4984 54.5942 15.4609" fill="white"/>
<path d="M33.5022 17.361C32.5701 19.6375 32.0383 22.2367 32.0383 25.0031C32.0383 33.9777 37.619 41.2493 44.5083 41.2493C51.3975 41.2493 56.9782 33.9777 56.9782 25.0031C56.9782 24.6207 56.9663 24.2443 56.9424 23.8678C56.9185 23.4078 56.8826 22.9537 56.8289 22.5055C56.5182 19.9004 55.7354 17.4984 54.5942 15.4609" stroke="#282828" stroke-width="0.607464" stroke-linecap="round" stroke-linejoin="round"/>
<path d="M42.4884 19.3983C41.162 19.3983 39.8654 19.2728 38.6166 19.0398C37.9175 20.7248 37.4993 22.7802 37.4993 25.0029C37.4993 30.7091 40.2119 35.3338 43.564 35.3338C46.916 35.3338 49.6286 30.7091 49.6286 25.0029C49.6286 24.979 49.6286 24.9551 49.6286 24.9312C47.0892 24.7161 45.231 24.0349 45.231 23.2223C45.231 22.4097 46.9219 21.7943 49.2761 21.5493C49.0491 20.4618 48.7204 19.458 48.3082 18.5737C46.4798 19.0995 44.5259 19.3923 42.4884 19.3923V19.3983Z" fill="#282828"/>
<path d="M45.2308 23.2228C45.2308 24.0354 47.0891 24.7166 49.6285 24.9317C49.6285 23.7427 49.497 22.6074 49.276 21.5498C46.9218 21.7948 45.2308 22.452 45.2308 23.2228Z" fill="white"/>
<path d="M33.5018 17.3609C35.5991 12.2403 39.7398 8.75684 44.5079 8.75684C48.6546 8.75684 52.3293 11.3978 54.5938 15.4549" stroke="#282828" stroke-width="0.607464" stroke-linecap="round" stroke-linejoin="round"/>
<path d="M38.6167 19.0403C39.8655 19.2733 41.1621 19.3988 42.4886 19.3988C44.5201 19.3988 46.4739 19.106 48.3083 18.5802C50.6445 17.905 52.7776 16.8355 54.6 15.4612C52.3355 11.4042 48.6608 8.76318 44.5141 8.76318C39.746 8.76318 35.6053 12.2466 33.5081 17.3732C35.0855 18.1381 36.8063 18.7117 38.6227 19.0463L38.6167 19.0403Z" fill="#BEFF74" stroke="#282828" stroke-width="0.497922" stroke-linecap="round" stroke-linejoin="round"/>
<path d="M37.9298 14.6489C37.9298 14.6489 37.9597 17.1226 39.6805 19.0884L37.9298 14.6489Z" fill="#BEFF74"/>
<path d="M37.9298 14.6489C37.9298 14.6489 37.9597 17.1226 39.6805 19.0884" stroke="#282828" stroke-width="0.497922" stroke-linecap="round" stroke-linejoin="round"/>
<path d="M41.3774 15.144C41.3774 15.144 41.4073 17.6177 43.1281 19.5835L41.3774 15.144Z" fill="#BEFF74"/>
<path d="M41.3774 15.144C41.3774 15.144 41.4073 17.6177 43.1281 19.5835" stroke="#282828" stroke-width="0.497922" stroke-linecap="round" stroke-linejoin="round"/>
<path d="M26.0276 45.3236C26.0276 45.3236 32.4568 52.3264 38.8023 41.6489" stroke="#282828" stroke-width="0.995844" stroke-linecap="round" stroke-linejoin="round"/>
</g>
<rect opacity="0.6" width="70" height="70" rx="17.5" fill="#DFDFDF"/>
<defs>
<clipPath id="clip0_4210_14949">
<rect width="66.6518" height="45.3149" fill="white" transform="translate(1.70288 8.39258)"/>
</clipPath>
</defs>
</svg>
