<svg width="70" height="70" viewBox="0 0 70 70" fill="none" xmlns="http://www.w3.org/2000/svg">
<rect width="70" height="70" rx="17.5" fill="#00A176"/>
<g clip-path="url(#clip0_4210_14934)">
<path d="M20.3538 52.1498C13.3625 52.1498 7.67786 45.994 7.67786 38.4186C7.67786 38.2553 7.68414 38.0982 7.6967 37.9349L20.0899 37.4575C20.4794 40.7301 23.105 43.249 26.1955 43.249C28.7457 43.249 30.9568 41.5467 31.8864 39.1409C32.0184 40.1146 32.2445 41.0756 32.5648 42.0241C31.0636 47.9852 26.0573 52.1435 20.3475 52.1435L20.3538 52.1498Z" fill="white"/>
<path d="M19.8195 37.7843C20.3408 41.0695 23.0418 43.5632 26.1951 43.5632C28.5381 43.5632 30.6047 42.2064 31.7416 40.1838C31.8672 40.8057 32.0305 41.4275 32.2378 42.0431C30.7491 47.8157 25.881 51.8358 20.3534 51.8358C13.538 51.8358 7.99155 45.8182 7.99155 38.4187C7.99155 38.3559 7.99155 38.2994 7.99155 38.2429L19.8132 37.7906M32.0808 36.6851H32.0368C31.9991 40.1461 29.3986 42.9414 26.1951 42.9414C22.9916 42.9414 20.6172 40.3848 20.3722 37.1373L7.40109 37.6336C7.38853 37.8974 7.3634 38.1549 7.3634 38.4187C7.3634 46.1763 13.18 52.464 20.3534 52.464C26.371 52.464 31.4212 48.0293 32.8974 42.018C32.3697 40.4916 32.0682 38.8459 32.0682 37.1185C32.0682 36.974 32.0871 36.8295 32.0871 36.6851H32.0808Z" fill="#282828"/>
<path d="M45.0528 50.8509C39.8015 50.8509 35.0339 47.2642 33.1935 41.9188C32.6533 40.3547 32.3832 38.7404 32.3832 37.1198C32.3832 37.0758 32.3832 37.0318 32.3832 36.9941L44.3179 36.5356C44.3179 36.5356 44.3179 36.5921 44.3179 36.6235C44.3179 40.2856 47.0817 43.2567 50.48 43.2567C53.8782 43.2567 56.642 40.2793 56.642 36.6235C56.642 36.4476 56.6357 36.2655 56.6169 36.0645L57.691 36.0205C57.7162 36.3848 57.7287 36.7554 57.7287 37.1198C57.7287 44.6889 52.044 50.8509 45.0528 50.8509Z" fill="white"/>
<path d="M57.3886 36.3461C57.4011 36.6037 57.4074 36.8612 57.4074 37.1188C57.4074 44.5183 51.8609 50.5359 45.0456 50.5359C39.9262 50.5359 35.278 47.0308 33.4815 41.8173C32.9727 40.3474 32.7089 38.8273 32.69 37.2946L33.2428 37.2758L43.9966 36.8612C44.1159 40.5861 46.974 43.5698 50.4665 43.5698C53.9589 43.5698 56.9426 40.4542 56.9426 36.6162C56.9426 36.5346 56.9426 36.4466 56.9426 36.3587L57.3886 36.3399M57.9728 35.6929L56.2579 35.7557C56.2956 36.0383 56.3207 36.321 56.3207 36.6162C56.3207 40.1087 53.7014 42.9416 50.4727 42.9416C47.2441 42.9416 44.6247 40.1087 44.6247 36.6162C44.6247 36.478 44.6373 36.3399 44.6436 36.2017L33.224 36.6414L32.0807 36.6853C32.0807 36.8298 32.0619 36.968 32.0619 37.1188C32.0619 38.8461 32.3634 40.4919 32.891 42.0183C34.7315 47.3575 39.474 51.164 45.0519 51.164C52.2253 51.164 58.0418 44.8763 58.0418 37.1188C58.0418 36.6351 58.0167 36.164 57.9728 35.6929Z" fill="#282828"/>
<path d="M44.6248 36.6164C44.6248 40.1089 47.2441 42.9418 50.4728 42.9418C53.7014 42.9418 56.3208 40.1089 56.3208 36.6164C56.3208 36.3212 56.2956 36.0385 56.2579 35.7559L44.6436 36.2018C44.6373 36.34 44.6248 36.4782 44.6248 36.6164Z" fill="#282828"/>
<path d="M26.1948 42.9424C29.4046 42.9424 32.0051 40.1472 32.0365 36.6924L20.3719 37.1384C20.6169 40.3859 23.1295 42.9424 26.1948 42.9424Z" fill="#282828"/>
<path d="M32.4508 55.2031H37.5011" stroke="#282828" stroke-width="1.0469" stroke-linecap="round" stroke-linejoin="round"/>
</g>
<defs>
<clipPath id="clip0_4210_14934">
<rect width="50.6785" height="20.1382" fill="white" transform="translate(7.36316 35.6929)"/>
</clipPath>
</defs>
</svg>
