<svg width="241" height="176" viewBox="0 0 241 176" fill="none" xmlns="http://www.w3.org/2000/svg">
<rect width="241" height="176" fill="white"/>
<circle cx="113.796" cy="89.7109" r="59.0094" fill="#00A176" stroke="#282828" stroke-width="0.595362"/>
<path d="M129.659 25.0624C124.888 27.5658 116.737 29.2347 113.258 29.7562L78.9636 50.0962C83.4367 51.1392 95.9615 52.2864 110.275 48.5314C128.168 43.8376 135.623 21.9332 129.659 25.0624Z" fill="#003F31" stroke="#282828" stroke-width="0.595362" stroke-linecap="round"/>
<path d="M115.48 28.2826C116.367 30.7309 116.22 32.6373 115.344 34.2079C114.46 35.7946 112.806 37.086 110.581 38.2377C108.359 39.3878 105.604 40.3803 102.561 41.3896C101.657 41.6891 100.729 41.9901 99.7816 42.297C97.5455 43.0216 95.2083 43.779 92.8687 44.6266C90.4621 45.4985 88.2115 46.4084 86.1252 47.2518C85.3239 47.5758 84.5468 47.8899 83.7944 48.1884C81.075 49.2671 78.6821 50.1389 76.5981 50.5501C74.5146 50.9613 72.7809 50.9034 71.3557 50.1684C69.9348 49.4357 68.7638 48.0002 67.8693 45.5313C66.0892 40.6178 67.1078 35.1932 70.2359 30.3833C73.364 25.5733 78.5935 21.3954 85.1893 19.0058C91.7852 16.6162 98.4772 16.4751 103.96 18.1654C109.443 19.8556 113.7 23.3691 115.48 28.2826Z" fill="#00CBCE" stroke="#282828" stroke-width="0.595362"/>
<path d="M84.9608 19.34C85.0983 19.6756 85.0166 20.1168 84.6715 20.5849C84.3301 21.0479 83.758 21.4927 83.03 21.7911C82.3019 22.0895 81.5822 22.1741 81.0141 22.0838C80.4397 21.9925 80.0719 21.7356 79.9344 21.4C79.7968 21.0644 79.8786 20.6233 80.2237 20.1552C80.5651 19.6921 81.1371 19.2473 81.8652 18.949C82.5932 18.6506 83.3129 18.566 83.8811 18.6563C84.4554 18.7475 84.8233 19.0044 84.9608 19.34Z" fill="#003F31" stroke="#282828" stroke-width="0.595362"/>
<path d="M97.2799 115.772C87.5244 115.772 79.592 107.182 79.592 96.6116C79.592 96.3837 79.6008 96.1645 79.6183 95.9367L96.9118 95.2705C97.4552 99.8371 101.119 103.352 105.431 103.352C108.99 103.352 112.075 100.977 113.373 97.6195C113.557 98.9781 113.872 100.319 114.319 101.643C112.224 109.961 105.239 115.763 97.2712 115.763L97.2799 115.772Z" fill="white"/>
<path d="M96.5359 95.7263C97.2634 100.31 101.032 103.79 105.432 103.79C108.702 103.79 111.586 101.897 113.172 99.0745C113.347 99.9423 113.575 100.81 113.864 101.669C111.787 109.724 104.994 115.334 97.2809 115.334C87.7708 115.334 80.0313 106.937 80.0313 96.6115C80.0313 96.5239 80.0313 96.445 80.0313 96.3661L96.5271 95.735M113.645 94.1924H113.584C113.531 99.0219 109.903 102.922 105.432 102.922C100.962 102.922 97.6491 99.355 97.3072 94.8235L79.2074 95.5159C79.1898 95.884 79.1548 96.2434 79.1548 96.6115C79.1548 107.436 87.2712 116.21 97.2809 116.21C105.678 116.21 112.725 110.022 114.785 101.634C114.049 99.504 113.628 97.2076 113.628 94.7972C113.628 94.5956 113.654 94.394 113.654 94.1924H113.645Z" fill="#282828"/>
<path d="M131.748 113.957C124.421 113.957 117.768 108.952 115.2 101.493C114.446 99.3106 114.069 97.058 114.069 94.7966C114.069 94.7352 114.069 94.6739 114.069 94.6213L130.723 93.9814C130.723 93.9814 130.723 94.0603 130.723 94.1041C130.723 99.2142 134.579 103.36 139.321 103.36C144.063 103.36 147.92 99.2054 147.92 94.1041C147.92 93.8587 147.911 93.6045 147.885 93.3241L149.384 93.2627C149.419 93.7711 149.436 94.2882 149.436 94.7966C149.436 105.358 141.504 113.957 131.748 113.957Z" fill="white"/>
<path d="M148.958 93.7187C148.976 94.0781 148.984 94.4374 148.984 94.7968C148.984 105.122 141.245 113.519 131.735 113.519C124.591 113.519 118.105 108.628 115.598 101.353C114.888 99.302 114.52 97.1809 114.494 95.0422L115.265 95.0159L130.271 94.4374C130.438 99.6351 134.426 103.799 139.299 103.799C144.172 103.799 148.336 99.451 148.336 94.0956C148.336 93.9816 148.336 93.8589 148.336 93.7362L148.958 93.7099M149.773 92.8071L147.38 92.8948C147.433 93.2892 147.468 93.6836 147.468 94.0956C147.468 98.969 143.813 102.922 139.308 102.922C134.803 102.922 131.148 98.969 131.148 94.0956C131.148 93.9028 131.165 93.7099 131.174 93.5171L115.239 94.1307L113.644 94.192C113.644 94.3936 113.617 94.5864 113.617 94.7968C113.617 97.2072 114.038 99.5036 114.774 101.634C117.343 109.084 123.96 114.395 131.744 114.395C141.753 114.395 149.87 105.622 149.87 94.7968C149.87 94.1219 149.835 93.4645 149.773 92.8071Z" fill="#282828"/>
<path d="M131.152 94.0963C131.152 98.9697 134.807 102.923 139.312 102.923C143.817 102.923 147.472 98.9697 147.472 94.0963C147.472 93.6844 147.437 93.2899 147.385 92.8955L131.178 93.5178C131.169 93.7107 131.152 93.9035 131.152 94.0963Z" fill="#282828"/>
<path d="M105.435 102.924C109.913 102.924 113.542 99.0239 113.586 94.2031L97.3093 94.8254C97.6512 99.357 101.157 102.924 105.435 102.924Z" fill="#282828"/>
<path d="M104.701 123.639C111.748 120.115 129.367 117.472 132.01 121.877" stroke="#282828" stroke-width="0.595362" stroke-linecap="round" stroke-linejoin="round"/>
<rect x="167.189" y="127.262" width="6.45203" height="41.3599" rx="0.893043" transform="rotate(-45 167.189 127.262)" fill="#383838" stroke="#282828" stroke-width="0.595362"/>
<path d="M167.18 118.425C172.829 119.75 181.185 119.117 184.657 118.635C183.017 122.04 178.828 128.936 175.189 129.279C170.639 129.707 163.455 131.313 159.75 126.554C156.044 121.796 160.119 116.768 167.18 118.425Z" fill="white" stroke="#282828" stroke-width="0.595362" stroke-linecap="round"/>
<rect x="148.672" y="65.041" width="10.5711" height="59.9028" transform="rotate(24.2184 148.672 65.041)" fill="url(#paint0_linear_4216_57984)"/>
<rect x="161.527" y="70.8223" width="5.28554" height="59.9028" transform="rotate(24.2184 161.527 70.8223)" fill="url(#paint1_linear_4216_57984)"/>
<path d="M144.343 131.865C162.022 131.865 176.353 117.533 176.353 99.8538C176.353 82.1746 162.022 67.8428 144.343 67.8428C126.663 67.8428 112.332 82.1746 112.332 99.8538C112.332 117.533 126.663 131.865 144.343 131.865ZM181.044 99.8538C181.044 120.123 164.612 136.555 144.343 136.555C124.073 136.555 107.641 120.123 107.641 99.8538C107.641 79.5843 124.073 63.1527 144.343 63.1527C164.612 63.1527 181.044 79.5843 181.044 99.8538Z" fill="#383838" stroke="#282828" stroke-width="0.595362"/>
<path d="M177.584 117.861C173.694 119.104 170.211 121.641 168.897 122.656C164.64 125.946 160.292 130.822 160.776 135.133C161.164 138.582 164.82 141.238 167.459 139.933C167.255 141.437 168.159 143.062 169.798 144.824C171.437 146.586 175.162 146.614 176.267 145.83C176.441 147.142 177.06 148.376 177.819 149.338C179.472 151.435 182.065 152.116 183.667 151.123C183.761 152.328 184.399 153.569 185.822 154.82C189.548 158.096 194.444 153.852 199.341 149.608C204.237 145.364 207.581 136.257 199.093 126.464C190.606 116.671 182.447 116.308 177.584 117.861Z" fill="white"/>
<path d="M191.371 141.436C190.647 141.965 188.654 143.555 186.475 145.68C184.791 147.322 183.516 149.174 183.667 151.123M183.667 151.123C183.761 152.328 184.399 153.569 185.822 154.82C189.548 158.096 194.444 153.852 199.341 149.608C204.237 145.364 207.581 136.257 199.093 126.464C190.606 116.671 182.447 116.308 177.584 117.861C173.694 119.104 170.211 121.641 168.897 122.656C164.64 125.946 160.292 130.822 160.776 135.133C161.164 138.582 164.82 141.238 167.459 139.933M183.667 151.123C182.065 152.116 179.472 151.435 177.819 149.338C177.06 148.376 176.441 147.142 176.267 145.83M184.989 135.437C183.54 136.495 180.099 139.142 177.92 141.267C176.459 142.692 176.065 144.313 176.267 145.83M176.267 145.83C175.162 146.614 171.437 146.586 169.798 144.824C168.159 143.062 167.255 141.437 167.459 139.933M178.088 127.816C176.334 128.884 170.539 133.711 169.286 135.44C168.034 137.169 167.583 139.014 167.459 139.933" stroke="#282828" stroke-width="0.595362" stroke-linecap="round" stroke-linejoin="round"/>
<defs>
<linearGradient id="paint0_linear_4216_57984" x1="153.958" y1="65.041" x2="153.958" y2="124.944" gradientUnits="userSpaceOnUse">
<stop offset="0.27" stop-color="#F3F3F3" stop-opacity="0.7"/>
<stop offset="1" stop-color="white" stop-opacity="0"/>
</linearGradient>
<linearGradient id="paint1_linear_4216_57984" x1="164.17" y1="70.8223" x2="164.17" y2="130.725" gradientUnits="userSpaceOnUse">
<stop offset="0.27" stop-color="#F3F3F3" stop-opacity="0.7"/>
<stop offset="1" stop-color="white" stop-opacity="0"/>
</linearGradient>
</defs>
</svg>
