<svg width="14" height="26" viewBox="0 0 14 26" fill="none" xmlns="http://www.w3.org/2000/svg">
<path d="M4.58296 17.6256C4.64574 13.4359 5.74439 12.1623 7.65919 10.8551C8.97758 9.98369 9.98206 8.87763 9.98206 7.2353C9.98206 5.42538 8.63229 4.25229 6.96861 4.21877C5.43049 4.25229 3.98655 5.29131 3.89238 7.4364H0C0.125561 3.07919 3.20179 0.833552 6.96861 0.867069C11.1435 0.833552 13.9686 3.31381 14 7.16826C13.9686 9.84962 12.7444 11.5925 10.7354 12.8662C8.97758 14.0057 8.22421 15.1453 8.22421 17.6256V17.8937H4.58296V17.6256ZM4.08072 22.5861C4.08072 21.2119 5.17937 20.0723 6.46637 20.0388C7.75336 20.0723 8.85202 21.2119 8.85202 22.5861C8.85202 23.9938 7.75336 25.1334 6.46637 25.1334C5.17937 25.1334 4.08072 23.9938 4.08072 22.5861Z" fill="#474747"/>
</svg>
