<svg width="65" height="65" viewBox="0 0 65 65" fill="none" xmlns="http://www.w3.org/2000/svg">
<rect x="0.420983" width="4.27398" height="28.3933" rx="0.893043" transform="matrix(0.707105 -0.707109 0.707105 0.707109 41.1821 44.7996)" fill="#383838" stroke="#282828" stroke-width="0.595362"/>
<rect width="8.02194" height="45.4579" transform="matrix(0.911988 0.410218 -0.410214 0.911989 28.7898 1.51025)" fill="url(#paint0_linear_4179_55281)"/>
<rect width="4.01097" height="45.4579" transform="matrix(0.911988 0.410218 -0.410214 0.911989 38.5447 5.89746)" fill="url(#paint1_linear_4179_55281)"/>
<path d="M25.564 47.7739C37.83 47.7739 47.7736 37.8302 47.7736 25.5641C47.7736 13.298 37.83 3.35434 25.564 3.35434C13.2979 3.35434 3.35431 13.298 3.35431 25.5641C3.35431 37.8302 13.2979 47.7739 25.564 47.7739ZM50.8302 25.5641C50.8302 39.5184 39.5181 50.8306 25.564 50.8306C11.6098 50.8306 0.297681 39.5184 0.297681 25.5641C0.297681 11.6099 11.6098 0.297681 25.564 0.297681C39.5181 0.297681 50.8302 11.6099 50.8302 25.5641Z" fill="#383838" stroke="#282828" stroke-width="0.595362"/>
<defs>
<linearGradient id="paint0_linear_4179_55281" x1="4.01097" y1="0" x2="4.01097" y2="45.4579" gradientUnits="userSpaceOnUse">
<stop offset="0.27" stop-color="white"/>
<stop offset="0.62" stop-color="white"/>
</linearGradient>
<linearGradient id="paint1_linear_4179_55281" x1="2.00549" y1="0" x2="2.00549" y2="45.4579" gradientUnits="userSpaceOnUse">
<stop offset="0.27" stop-color="white"/>
<stop offset="0.62" stop-color="white"/>
</linearGradient>
</defs>
</svg>
