<svg width="342" height="230" viewBox="0 0 342 230" fill="none" xmlns="http://www.w3.org/2000/svg">
<mask id="mask0_3749_47080" style="mask-type:alpha" maskUnits="userSpaceOnUse" x="17" y="0" width="308" height="230">
<rect x="17.6118" width="306.51" height="229.882" fill="#D9D9D9"/>
</mask>
<g mask="url(#mask0_3749_47080)">
<circle cx="177.157" cy="152.684" r="128.666" fill="#D9FFF6"/>
</g>
<path d="M239.484 178.046L239.476 178.031L239.466 178.017L235.99 173.151C235.273 167.873 233.134 165.318 230.47 164.491C227.826 163.67 224.765 164.587 222.283 166.005C220.185 167.204 219.604 169.855 219.716 172.431C219.826 174.982 220.619 177.584 221.453 178.936C221.454 181.737 221.459 185.623 222.161 189.237C222.867 192.873 224.291 196.3 227.195 198.043C230.086 199.777 233.855 199.766 237.15 198.626C240.443 197.487 243.326 195.198 244.413 192.297C245.442 189.552 244.767 187.074 243.566 184.751C242.967 183.591 242.232 182.461 241.507 181.351L241.454 181.27C240.745 180.184 240.048 179.119 239.484 178.046Z" fill="#FFDE3B" stroke="#282828" stroke-width="0.5" stroke-linecap="round"/>
<path d="M318.651 156.771L318.79 156.979C318.787 156.981 318.767 156.993 318.728 157.015C318.694 157.034 318.65 157.057 318.594 157.085C318.571 156.973 318.598 156.869 318.618 156.817C318.626 156.797 318.632 156.785 318.634 156.783L318.644 156.776C318.646 156.774 318.649 156.772 318.651 156.771ZM318.983 156.859C318.978 156.839 318.972 156.819 318.963 156.799C318.835 156.733 318.682 156.754 318.672 156.758L318.663 156.764L318.658 156.766L318.657 156.767L318.655 156.768L318.655 156.768L318.655 156.769L318.655 156.769L318.983 156.859ZM289.521 144.576C288.427 142.81 286.109 142.264 284.342 143.358C282.576 144.451 282.03 146.77 283.124 148.536C284.799 151.243 287.823 155.246 291.6 158.694C295.285 162.056 300.235 165.395 305.738 165.761C310.255 166.063 313.918 165.755 316.718 165.208C319.42 164.681 321.542 163.886 322.824 163.031C324.553 161.879 325.02 159.543 323.868 157.814C322.716 156.087 320.382 155.619 318.654 156.769L318.648 156.773C318.645 156.775 318.64 156.777 318.635 156.781C318.627 156.785 318.618 156.79 318.607 156.796C318.567 156.818 318.509 156.849 318.429 156.887C318.268 156.964 318.043 157.06 317.748 157.166C317.158 157.379 316.336 157.617 315.276 157.824C313.159 158.238 310.15 158.515 306.239 158.255C303.313 158.06 299.953 156.131 296.672 153.136C293.484 150.227 290.889 146.786 289.521 144.576Z" fill="#FFDE3B" stroke="black" stroke-width="0.5" stroke-linecap="round"/>
<path d="M254.716 150.771C253.545 163.413 249.659 188.417 243.478 187.293C237.297 186.169 232.943 179.333 231.538 176.055" stroke="black" stroke-width="5" stroke-linecap="round"/>
<path d="M265.59 229.278C265.627 229.376 265.72 229.44 265.825 229.44L302.314 229.441C302.42 229.441 302.514 229.374 302.55 229.275C303.391 226.92 303.558 224.92 303.249 223.224C302.94 221.526 302.157 220.148 301.127 219.034C299.073 216.814 296.032 215.638 293.755 215.017C287.472 213.303 282.301 215.796 279.562 217.117C279.096 217.341 278.701 217.532 278.382 217.662H273.786C270.388 217.662 267.82 219.195 266.362 221.424C264.907 223.649 264.568 226.552 265.59 229.278Z" fill="#FFDE3B" stroke="#282828" stroke-width="0.5" stroke-linejoin="round"/>
<path d="M272.616 154.282C274.268 167.579 277.408 192.402 277.893 218.899" stroke="black" stroke-width="5" stroke-linecap="round"/>
<path d="M275.278 68.3531C268.062 61.5751 256.82 61.5751 249.604 68.3531L238.899 78.4085C237.286 79.9241 235.423 81.15 233.393 82.0324L222.23 86.8836C211.863 91.3892 207.81 103.975 213.6 113.684L218.485 121.875C219.761 124.015 220.61 126.383 220.984 128.847L222.654 139.851C224.218 150.164 233.899 157.217 244.196 155.546L259.357 153.085C261.4 152.753 263.483 152.753 265.526 153.085L280.687 155.546C290.983 157.217 300.664 150.164 302.229 139.851L303.898 128.847C304.272 126.383 305.121 124.015 306.398 121.875L311.283 113.684C317.072 103.975 313.019 91.3892 302.652 86.8836L291.49 82.0324C289.46 81.15 287.597 79.9241 285.983 78.4085L275.278 68.3531Z" fill="#FFDE3B" stroke="#282828" stroke-width="0.5"/>
<path d="M283.859 140.526C279.267 139.701 276.121 135.823 276.832 131.865C277.544 127.908 281.843 125.368 286.435 126.194C291.028 127.019 294.174 130.897 293.462 134.855C292.751 138.812 288.452 141.351 283.859 140.526Z" fill="#FF4F18" stroke="#282828" stroke-width="0.5" stroke-linecap="round" stroke-linejoin="round"/>
<path d="M238.074 130.929C237.719 126.924 241.199 123.343 245.847 122.931C250.494 122.52 254.55 125.433 254.904 129.439C255.259 133.444 251.779 137.025 247.131 137.437C242.483 137.848 238.428 134.935 238.074 130.929Z" fill="#FF4F18" stroke="#282828" stroke-width="0.5" stroke-linecap="round" stroke-linejoin="round"/>
<path d="M286.755 112.378C287.465 114.325 287.827 116.529 287.742 118.854C287.45 126.407 282.519 132.344 276.722 132.123C270.926 131.901 266.462 125.596 266.754 118.049C266.764 117.727 266.789 117.41 266.82 117.093C266.855 116.705 266.9 116.323 266.961 115.951C267.303 113.767 268.042 111.774 269.069 110.094" fill="white"/>
<path d="M286.755 112.378C287.465 114.325 287.827 116.529 287.742 118.854C287.45 126.407 282.519 132.344 276.722 132.123C270.926 131.901 266.462 125.596 266.754 118.049C266.764 117.727 266.789 117.41 266.82 117.093C266.855 116.705 266.9 116.323 266.961 115.951C267.303 113.767 268.042 111.774 269.069 110.094" stroke="#282828" stroke-width="0.5" stroke-linecap="round" stroke-linejoin="round"/>
<path d="M279.128 113.798C280.245 113.844 281.337 113.778 282.398 113.622C282.937 115.061 283.218 116.807 283.148 118.679C282.962 123.479 280.527 127.283 277.709 127.178C274.891 127.072 272.758 123.087 272.939 118.287C272.939 118.267 272.939 118.246 272.939 118.226C275.082 118.131 276.667 117.612 276.692 116.933C276.717 116.254 275.319 115.675 273.346 115.393C273.573 114.488 273.88 113.652 274.257 112.923C275.782 113.426 277.417 113.733 279.128 113.798Z" fill="#282828"/>
<path d="M276.697 116.931C276.672 117.616 275.087 118.129 272.943 118.225C272.984 117.223 273.129 116.272 273.351 115.387C275.323 115.668 276.722 116.277 276.697 116.926V116.931Z" fill="white"/>
<path d="M286.755 112.379C285.155 108.001 281.784 104.932 277.774 104.781C274.282 104.645 271.107 106.748 269.069 110.094" stroke="#282828" stroke-width="0.5" stroke-linecap="round" stroke-linejoin="round"/>
<path d="M282.397 113.622C281.34 113.778 280.243 113.838 279.126 113.798C277.416 113.733 275.78 113.426 274.256 112.922C272.308 112.278 270.552 111.307 269.063 110.095C271.101 106.754 274.281 104.65 277.768 104.781C281.778 104.937 285.149 108.001 286.75 112.379C285.396 112.973 283.932 113.395 282.387 113.622H282.397Z" fill="#BEFF74" stroke="#282828" stroke-width="0.5" stroke-linecap="round" stroke-linejoin="round"/>
<path d="M283.116 109.953C283.116 109.953 283.011 112.036 281.501 113.631L283.116 109.953Z" fill="#BEFF74"/>
<path d="M283.116 109.953C283.116 109.953 283.011 112.036 281.501 113.631" stroke="#282828" stroke-width="0.5" stroke-linecap="round" stroke-linejoin="round"/>
<path d="M280.204 110.255C280.204 110.255 280.098 112.338 278.588 113.933L280.204 110.255Z" fill="#BEFF74"/>
<path d="M280.204 110.255C280.204 110.255 280.098 112.338 278.588 113.933" stroke="#282828" stroke-width="0.5" stroke-linecap="round" stroke-linejoin="round"/>
<path d="M267.09 110.372C267.875 112.289 268.323 114.477 268.323 116.807C268.323 124.365 263.624 130.488 257.822 130.488C252.02 130.488 247.321 124.365 247.321 116.807C247.321 116.485 247.331 116.168 247.351 115.851C247.371 115.464 247.401 115.081 247.447 114.704C247.708 112.51 248.367 110.487 249.329 108.771" fill="white"/>
<path d="M267.09 110.372C267.875 112.289 268.323 114.477 268.323 116.807C268.323 124.365 263.624 130.488 257.822 130.488C252.02 130.488 247.321 124.365 247.321 116.807C247.321 116.485 247.331 116.168 247.351 115.851C247.371 115.464 247.401 115.081 247.447 114.704C247.708 112.51 248.367 110.487 249.329 108.771" stroke="#282828" stroke-width="0.5" stroke-linecap="round" stroke-linejoin="round"/>
<path d="M259.524 112.089C260.641 112.089 261.733 111.983 262.784 111.787C263.373 113.206 263.725 114.937 263.725 116.809C263.725 121.614 261.441 125.509 258.618 125.509C255.795 125.509 253.511 121.614 253.511 116.809C253.511 116.789 253.511 116.768 253.511 116.748C255.649 116.567 257.214 115.994 257.214 115.309C257.214 114.625 255.79 114.107 253.808 113.9C253.999 112.985 254.276 112.139 254.623 111.395C256.162 111.837 257.808 112.084 259.524 112.084V112.089Z" fill="#282828"/>
<path d="M257.212 115.308C257.212 115.993 255.648 116.566 253.509 116.747C253.509 115.746 253.62 114.79 253.806 113.899C255.788 114.106 257.212 114.659 257.212 115.308Z" fill="white"/>
<path d="M267.091 110.372C265.325 106.059 261.838 103.126 257.823 103.126C254.331 103.126 251.236 105.35 249.329 108.767" stroke="#282828" stroke-width="0.5" stroke-linecap="round" stroke-linejoin="round"/>
<path d="M262.784 111.785C261.732 111.982 260.64 112.087 259.523 112.087C257.812 112.087 256.167 111.841 254.622 111.398C252.655 110.829 250.859 109.929 249.324 108.771C251.231 105.355 254.325 103.131 257.818 103.131C261.833 103.131 265.32 106.064 267.086 110.382C265.758 111.026 264.308 111.509 262.779 111.79L262.784 111.785Z" fill="#BEFF74" stroke="#282828" stroke-width="0.5" stroke-linecap="round" stroke-linejoin="round"/>
<path d="M263.363 108.088C263.363 108.088 263.338 110.171 261.888 111.826L263.363 108.088Z" fill="#BEFF74"/>
<path d="M263.363 108.088C263.363 108.088 263.338 110.171 261.888 111.826" stroke="#282828" stroke-width="0.5" stroke-linecap="round" stroke-linejoin="round"/>
<path d="M260.458 108.505C260.458 108.505 260.433 110.588 258.984 112.243L260.458 108.505Z" fill="#BEFF74"/>
<path d="M260.458 108.505C260.458 108.505 260.433 110.588 258.984 112.243" stroke="#282828" stroke-width="0.5" stroke-linecap="round" stroke-linejoin="round"/>
<path d="M273.385 133.919C273.385 133.919 267.971 139.816 262.627 130.824" stroke="#282828" stroke-width="0.5" stroke-linecap="round" stroke-linejoin="round"/>
<path d="M305.988 138.58C305.917 138.58 305.85 138.61 305.802 138.662C305.755 138.715 305.732 138.785 305.739 138.855L309.251 173.973C309.264 174.101 309.371 174.198 309.5 174.198H330.57C330.699 174.198 330.806 174.101 330.819 173.973L334.331 138.855C334.338 138.785 334.315 138.715 334.267 138.662C334.22 138.61 334.153 138.58 334.082 138.58H305.988Z" fill="#EFEFEF" stroke="#282828" stroke-width="0.5" stroke-linejoin="round"/>
<rect x="305.738" y="138.58" width="28.5942" height="3.30942" fill="#EFEFEF" stroke="#282828" stroke-width="0.5" stroke-linejoin="round"/>
<rect x="311.282" y="151.132" width="7.52356" height="7.52356" transform="rotate(-21.7981 311.282 151.132)" fill="#D2FCFF" stroke="#282828" stroke-width="0.5" stroke-linejoin="round"/>
<path d="M327.059 154.984L328.464 126.188L320.738 121.974" stroke="#282828" stroke-width="2" stroke-linecap="round"/>
<path d="M307.485 153.349C307.404 153.316 307.312 153.329 307.242 153.382C307.172 153.434 307.135 153.52 307.144 153.607L309.251 173.975C309.264 174.103 309.372 174.199 309.5 174.199H330.57C330.698 174.199 330.806 174.103 330.819 173.975L332.926 153.607C332.933 153.536 332.91 153.464 332.861 153.412C330.881 151.26 329.193 150.519 327.526 150.591C325.971 150.658 324.476 151.435 322.856 152.278C322.771 152.323 322.686 152.367 322.6 152.411C320.863 153.313 318.933 154.276 316.516 154.653C314.103 155.029 311.186 154.822 307.485 153.349Z" fill="url(#paint0_linear_3749_47080)" stroke="#282828" stroke-width="0.5" stroke-linejoin="round"/>
<rect x="315.479" y="167.604" width="4.8497" height="4.8497" transform="rotate(-30 315.479 167.604)" fill="#CEBD9D" stroke="#282828" stroke-width="0.5" stroke-linejoin="round"/>
<rect x="311.125" y="156.795" width="5.93939" height="5.93939" transform="rotate(11.8529 311.125 156.795)" fill="#CEBD9D" stroke="#282828" stroke-width="0.5" stroke-linejoin="round"/>
<rect x="323" y="160.971" width="7.52356" height="7.52356" transform="rotate(26.0094 323 160.971)" fill="#CEBD9D" stroke="#282828" stroke-width="0.5" stroke-linejoin="round"/>
<rect x="326.394" y="147.342" width="13.1424" height="6.92624" rx="3.25" transform="rotate(-6.07323 326.394 147.342)" fill="white" stroke="#282828" stroke-width="0.5"/>
<rect x="324.491" y="154.103" width="13.1424" height="6.92624" rx="3.25" transform="rotate(-6.07323 324.491 154.103)" fill="white" stroke="#282828" stroke-width="0.5"/>
<rect x="323.801" y="160.733" width="11.9203" height="6.30506" rx="3.15253" transform="rotate(-6.07323 323.801 160.733)" fill="white" stroke="#282828" stroke-width="0.5"/>
<rect x="323.711" y="167.301" width="10.0943" height="5.37686" rx="2.68843" transform="rotate(-6.07323 323.711 167.301)" fill="white" stroke="#282828" stroke-width="0.5"/>
<path d="M229.466 128.117C221.18 126.46 200.731 123.379 185.596 124.544C183.525 124.703 181.975 126.511 182.134 128.583C182.294 130.654 184.102 132.204 186.174 132.045C200.257 130.962 219.889 133.875 227.991 135.495C230.028 135.902 232.01 134.581 232.417 132.544C232.825 130.507 231.504 128.525 229.466 128.117Z" fill="#FFDE3B" stroke="#282828" stroke-width="0.5" stroke-linecap="round"/>
<path d="M203.683 119.108C201.712 118.451 199.581 119.516 198.924 121.487C198.267 123.458 199.333 125.589 201.304 126.246C204.679 127.371 209.722 129.359 213.851 131.628C215.931 132.77 217.611 133.893 218.72 134.908C219.3 135.439 219.579 135.806 219.709 136.009C219.692 136.038 219.673 136.07 219.652 136.104C219.4 136.508 218.949 137.067 218.236 137.767C216.814 139.168 214.729 140.769 212.25 142.432C207.317 145.741 201.335 148.957 197.338 150.899C195.469 151.807 194.69 154.058 195.598 155.926C196.505 157.795 198.756 158.574 200.625 157.667C204.821 155.628 211.131 152.243 216.441 148.68C219.083 146.908 221.607 145.006 223.514 143.13C224.466 142.192 225.359 141.17 226.035 140.086C226.689 139.038 227.326 137.637 227.326 136.022C227.326 133.083 225.384 130.807 223.798 129.357C222.054 127.761 219.783 126.303 217.473 125.034C212.824 122.479 207.331 120.324 203.683 119.108Z" fill="#00A176" stroke="#282828" stroke-width="0.5" stroke-linecap="round"/>
<path d="M172.632 229.279C172.669 229.377 172.762 229.441 172.866 229.441L209.356 229.442C209.462 229.442 209.556 229.375 209.591 229.276C210.432 226.921 210.599 224.921 210.29 223.225C209.981 221.527 209.199 220.149 208.168 219.035C206.115 216.815 203.073 215.639 200.797 215.018C194.513 213.304 189.342 215.797 186.603 217.117C186.137 217.342 185.742 217.533 185.423 217.663H180.828C177.43 217.663 174.861 219.195 173.403 221.425C171.948 223.65 171.61 226.553 172.632 229.279Z" fill="#00A176" stroke="#282828" stroke-width="0.5" stroke-linejoin="round"/>
<path d="M139.415 226.496H139.611L139.658 226.306C140.989 220.981 140.845 217.079 139.212 214.502C137.586 211.935 134.54 210.761 130.262 210.737C130.138 210.545 130.002 210.324 129.854 210.083C129.243 209.086 128.42 207.744 127.274 206.651C125.778 205.222 123.708 204.187 120.79 204.77C119.09 205.11 117.216 205.961 115.764 207.497C114.308 209.039 113.291 211.258 113.291 214.304V214.357L113.313 214.405L118.62 226.347L118.686 226.496H118.849L139.415 226.496Z" fill="#00A176" stroke="#282828" stroke-width="0.5" stroke-linecap="round"/>
<path d="M158.178 164.097C153.321 192.882 145.139 204.689 124.708 210.93" stroke="black" stroke-width="5" stroke-linecap="round"/>
<path d="M181.062 167.506C184.814 178.423 189.163 197.504 184.152 218.74" stroke="black" stroke-width="5" stroke-linecap="round"/>
<path d="M130.79 210.324C139.415 210.324 142.069 215.632 139.415 226.247H118.848L120.838 216.958C122.829 212.978 125.483 210.324 130.79 210.324Z" fill="#00A176"/>
<path d="M120.752 216.959C122.718 212.978 125.34 210.324 130.584 210.324C139.106 210.324 142.733 216.295 139.415 226.247L118.785 226.247L113.541 214.305" stroke="#282828" stroke-width="0.5" stroke-linecap="round"/>
<circle cx="167.376" cy="130.877" r="43.9984" fill="#00A176" stroke="#282828" stroke-width="0.5"/>
<path d="M179.211 82.6433C175.651 84.511 169.57 85.7562 166.974 86.1453L141.388 101.321C144.725 102.099 154.07 102.955 164.749 100.153C178.099 96.6512 183.661 80.3086 179.211 82.6433Z" fill="#003F31" stroke="#282828" stroke-width="0.5" stroke-linecap="round"/>
<path d="M168.606 85.0552C169.266 86.8761 169.155 88.2897 168.507 89.453C167.851 90.6297 166.622 91.59 164.964 92.4484C163.308 93.3053 161.255 94.0452 158.984 94.7983C158.311 95.0216 157.618 95.2461 156.912 95.475C155.243 96.0157 153.499 96.5811 151.753 97.2136C149.957 97.8643 148.277 98.5435 146.72 99.1728C146.122 99.4145 145.543 99.6488 144.982 99.8713C142.953 100.676 141.17 101.326 139.617 101.632C138.066 101.938 136.78 101.894 135.724 101.35C134.673 100.807 133.803 99.7434 133.137 97.9053C131.812 94.2494 132.569 90.2113 134.899 86.6283C137.23 83.0451 141.126 79.9316 146.042 78.1506C150.958 76.3696 155.945 76.2649 160.029 77.5241C164.114 78.7832 167.282 81.3993 168.606 85.0552Z" fill="#00CBCE" stroke="#282828" stroke-width="0.5"/>
<path d="M145.836 78.3847C145.934 78.6226 145.878 78.9413 145.624 79.2863C145.373 79.627 144.95 79.956 144.411 80.177C143.872 80.398 143.34 80.4601 142.922 80.3936C142.499 80.3264 142.235 80.1384 142.138 79.9004C142.04 79.6625 142.096 79.3438 142.35 78.9988C142.601 78.6581 143.024 78.3291 143.563 78.1081C144.102 77.8871 144.634 77.825 145.052 77.8915C145.475 77.9587 145.739 78.1467 145.836 78.3847Z" fill="#003F31" stroke="#282828" stroke-width="0.5"/>
<path d="M163.997 149.249C156.718 149.249 150.8 142.84 150.8 134.954C150.8 134.784 150.806 134.62 150.819 134.45L163.722 133.953C164.127 137.36 166.861 139.983 170.078 139.983C172.733 139.983 175.035 138.21 176.003 135.706C176.14 136.719 176.376 137.72 176.709 138.707C175.146 144.913 169.934 149.243 163.99 149.243L163.997 149.249Z" fill="white"/>
<path d="M163.442 134.294C163.984 137.714 166.796 140.31 170.079 140.31C172.518 140.31 174.67 138.898 175.854 136.792C175.984 137.439 176.154 138.087 176.37 138.728C174.82 144.737 169.752 148.923 163.997 148.923C156.902 148.923 151.128 142.658 151.128 134.954C151.128 134.889 151.128 134.83 151.128 134.771L163.435 134.3M176.207 133.149H176.161C176.122 136.753 173.414 139.663 170.079 139.663C166.744 139.663 164.272 137.001 164.017 133.62L150.513 134.137C150.5 134.412 150.474 134.68 150.474 134.954C150.474 143.031 156.529 149.577 163.997 149.577C170.262 149.577 175.52 144.96 177.057 138.701C176.507 137.112 176.194 135.399 176.194 133.601C176.194 133.45 176.213 133.3 176.213 133.149H176.207Z" fill="#282828"/>
<path d="M189.713 147.895C184.246 147.895 179.282 144.161 177.366 138.596C176.804 136.967 176.522 135.287 176.522 133.599C176.522 133.554 176.522 133.508 176.522 133.469L188.948 132.991C188.948 132.991 188.948 133.05 188.948 133.083C188.948 136.895 191.825 139.989 195.363 139.989C198.901 139.989 201.778 136.889 201.778 133.083C201.778 132.9 201.772 132.71 201.752 132.501L202.87 132.455C202.896 132.834 202.909 133.22 202.909 133.599C202.909 141.48 196.991 147.895 189.713 147.895Z" fill="white"/>
<path d="M202.553 132.795C202.566 133.063 202.573 133.332 202.573 133.6C202.573 141.303 196.799 147.568 189.703 147.568C184.374 147.568 179.534 143.919 177.664 138.491C177.134 136.961 176.86 135.378 176.84 133.783L177.415 133.763L188.611 133.332C188.735 137.21 191.711 140.316 195.347 140.316C198.983 140.316 202.089 137.072 202.089 133.077C202.089 132.992 202.089 132.9 202.089 132.808L202.553 132.789M203.162 132.115L201.376 132.181C201.416 132.475 201.442 132.769 201.442 133.077C201.442 136.713 198.715 139.662 195.353 139.662C191.992 139.662 189.265 136.713 189.265 133.077C189.265 132.933 189.278 132.789 189.285 132.645L177.396 133.103L176.206 133.148C176.206 133.299 176.186 133.443 176.186 133.6C176.186 135.398 176.5 137.111 177.049 138.701C178.965 144.259 183.903 148.222 189.71 148.222C197.178 148.222 203.234 141.676 203.234 133.6C203.234 133.096 203.207 132.606 203.162 132.115Z" fill="#282828"/>
<path d="M189.268 133.078C189.268 136.714 191.995 139.663 195.356 139.663C198.717 139.663 201.444 136.714 201.444 133.078C201.444 132.77 201.418 132.476 201.379 132.182L189.287 132.646C189.281 132.79 189.268 132.934 189.268 133.078Z" fill="#282828"/>
<path d="M170.08 139.664C173.422 139.664 176.129 136.754 176.162 133.157L164.018 133.622C164.273 137.002 166.889 139.664 170.08 139.664Z" fill="#282828"/>
<path d="M172.988 151.166C175.049 153.805 179.049 153.764 181.85 152.427" stroke="#282828" stroke-width="0.5" stroke-linecap="round" stroke-linejoin="round"/>
<mask id="path-63-outside-1_3749_47080" maskUnits="userSpaceOnUse" x="112.991" y="150.188" width="56.9685" height="69.1902" fill="black">
<rect fill="white" x="112.991" y="150.188" width="56.9685" height="69.1902"/>
<path fill-rule="evenodd" clip-rule="evenodd" d="M147.662 155.939C144.794 155.313 141.817 156.362 139.975 158.648L123.567 179.002C122.812 179.939 122.232 181.004 121.855 182.146L116.674 197.854C114.816 203.488 118.243 209.492 124.039 210.756L146.028 215.554C151.985 216.853 157.708 212.565 158.135 206.483L159.296 189.916C159.363 188.966 159.294 188.013 159.091 187.083L153.584 161.859C152.937 158.898 150.624 156.585 147.662 155.939ZM146.907 159.522C144.817 159.066 142.649 159.843 141.325 161.524L128.363 177.966C126.505 181.099 128.007 185.148 131.458 186.312L133.72 187.075C138.204 188.589 142.841 189.6 147.548 190.092L149.595 190.306C153.213 190.685 156.136 187.402 155.342 183.852L151.19 163.849C150.741 161.688 149.064 159.993 146.907 159.522Z"/>
</mask>
<path fill-rule="evenodd" clip-rule="evenodd" d="M147.662 155.939C144.794 155.313 141.817 156.362 139.975 158.648L123.567 179.002C122.812 179.939 122.232 181.004 121.855 182.146L116.674 197.854C114.816 203.488 118.243 209.492 124.039 210.756L146.028 215.554C151.985 216.853 157.708 212.565 158.135 206.483L159.296 189.916C159.363 188.966 159.294 188.013 159.091 187.083L153.584 161.859C152.937 158.898 150.624 156.585 147.662 155.939ZM146.907 159.522C144.817 159.066 142.649 159.843 141.325 161.524L128.363 177.966C126.505 181.099 128.007 185.148 131.458 186.312L133.72 187.075C138.204 188.589 142.841 189.6 147.548 190.092L149.595 190.306C153.213 190.685 156.136 187.402 155.342 183.852L151.19 163.849C150.741 161.688 149.064 159.993 146.907 159.522Z" fill="#FFFAF1"/>
<path d="M139.975 158.648L139.585 158.334L139.975 158.648ZM123.567 179.002L123.956 179.316L123.567 179.002ZM121.855 182.146L121.38 181.989L121.855 182.146ZM116.674 197.854L116.199 197.697L116.199 197.697L116.674 197.854ZM124.039 210.756L124.146 210.268L124.039 210.756ZM146.028 215.554L145.921 216.042L146.028 215.554ZM158.135 206.483L158.634 206.518L158.135 206.483ZM159.296 189.916L158.798 189.881L159.296 189.916ZM159.091 187.083L158.602 187.19L158.602 187.19L159.091 187.083ZM153.584 161.859L153.095 161.966L153.584 161.859ZM141.325 161.524L141.717 161.833L141.717 161.833L141.325 161.524ZM128.363 177.966L127.97 177.656L127.949 177.682L127.933 177.711L128.363 177.966ZM131.458 186.312L131.298 186.786L131.298 186.786L131.458 186.312ZM133.72 187.075L133.88 186.602L133.72 187.075ZM147.548 190.092L147.6 189.595L147.548 190.092ZM149.595 190.306L149.543 190.804L149.595 190.306ZM155.342 183.852L154.852 183.954L154.854 183.961L155.342 183.852ZM151.19 163.849L151.679 163.747L151.19 163.849ZM140.364 158.961C142.088 156.823 144.872 155.842 147.556 156.427L147.769 155.45C144.715 154.784 141.547 155.9 139.585 158.334L140.364 158.961ZM123.956 179.316L140.364 158.961L139.585 158.334L123.177 178.688L123.956 179.316ZM122.33 182.302C122.688 181.217 123.239 180.206 123.956 179.316L123.177 178.688C122.385 179.672 121.776 180.79 121.38 181.989L122.33 182.302ZM117.149 198.01L122.33 182.302L121.38 181.989L116.199 197.697L117.149 198.01ZM124.146 210.268C118.639 209.066 115.384 203.363 117.149 198.01L116.199 197.697C114.248 203.613 117.847 209.917 123.933 211.245L124.146 210.268ZM146.134 215.065L124.146 210.268L123.933 211.245L145.921 216.042L146.134 215.065ZM157.636 206.448C157.231 212.226 151.794 216.3 146.134 215.065L145.921 216.042C152.176 217.407 158.186 212.904 158.634 206.518L157.636 206.448ZM158.798 189.881L157.636 206.448L158.634 206.518L159.795 189.951L158.798 189.881ZM158.602 187.19C158.795 188.073 158.861 188.979 158.798 189.881L159.795 189.951C159.865 188.954 159.792 187.953 159.579 186.977L158.602 187.19ZM153.095 161.966L158.602 187.19L159.579 186.977L154.072 161.752L153.095 161.966ZM147.556 156.427C150.326 157.032 152.49 159.195 153.095 161.966L154.072 161.752C153.384 158.6 150.921 156.138 147.769 155.45L147.556 156.427ZM141.717 161.833C142.923 160.303 144.897 159.596 146.801 160.011L147.014 159.034C144.736 158.537 142.375 159.383 140.932 161.214L141.717 161.833ZM128.755 178.275L141.717 161.833L140.932 161.214L127.97 177.656L128.755 178.275ZM131.618 185.838C128.468 184.775 127.098 181.081 128.793 178.221L127.933 177.711C125.913 181.118 127.545 185.52 131.298 186.786L131.618 185.838ZM133.88 186.602L131.618 185.838L131.298 186.786L133.56 187.549L133.88 186.602ZM147.6 189.595C142.93 189.107 138.328 188.103 133.88 186.602L133.56 187.549C138.079 189.074 142.752 190.094 147.496 190.59L147.6 189.595ZM149.647 189.809L147.6 189.595L147.496 190.59L149.543 190.804L149.647 189.809ZM154.854 183.961C155.573 187.178 152.925 190.152 149.647 189.809L149.543 190.804C153.501 191.217 156.698 187.627 155.83 183.743L154.854 183.961ZM150.7 163.95L154.852 183.954L155.832 183.75L151.679 163.747L150.7 163.95ZM146.801 160.011C148.764 160.439 150.292 161.983 150.7 163.95L151.679 163.747C151.191 161.393 149.363 159.546 147.014 159.034L146.801 160.011Z" fill="#282828" mask="url(#path-63-outside-1_3749_47080)"/>
<path fill-rule="evenodd" clip-rule="evenodd" d="M149.321 157.887C150.822 159.115 151.044 161.327 149.816 162.828C146.719 166.613 142.344 172.465 139.255 177.715C137.694 180.367 136.577 182.675 136.06 184.393C135.954 184.745 135.884 185.037 135.84 185.273C135.849 185.271 135.857 185.269 135.866 185.267C136.601 185.103 137.653 184.615 138.955 183.727C141.525 181.972 144.169 179.283 145.805 177.32C147.046 175.83 149.261 175.629 150.751 176.87C152.241 178.112 152.442 180.327 151.2 181.817C149.324 184.068 146.208 187.279 142.914 189.527C141.283 190.641 139.377 191.68 137.394 192.122C135.332 192.582 132.843 192.444 130.765 190.663C129.329 189.432 128.841 187.775 128.76 186.371C128.681 185.012 128.956 183.625 129.334 182.369C130.095 179.842 131.55 176.961 133.202 174.153C136.539 168.481 141.155 162.322 144.38 158.381C145.608 156.88 147.82 156.659 149.321 157.887Z" fill="#00A176" stroke="#282828" stroke-width="0.5" stroke-linecap="round" stroke-linejoin="round"/>
<path d="M141.923 168.519C143.347 166.607 145.407 165.165 146.217 164.632C148.84 162.906 152.357 161.43 154.645 162.514C156.476 163.382 157.249 165.904 156.028 167.114C156.897 167.286 157.622 168.094 158.284 169.332C158.946 170.571 158.256 172.633 157.614 173.094C158.305 173.439 158.869 174.015 159.256 174.616C160.1 175.927 159.985 177.487 159.133 178.184C159.78 178.464 160.344 179.051 160.765 180.074C161.867 182.752 158.596 184.651 155.325 186.549C152.053 188.448 146.392 188.567 142.594 182.025C138.797 175.482 140.143 170.909 141.923 168.519Z" fill="white"/>
<path d="M152.324 180.6C152.753 180.301 154.009 179.502 155.595 178.702C156.821 178.083 158.085 177.731 159.133 178.184M159.133 178.184C159.78 178.464 160.344 179.051 160.765 180.074C161.867 182.752 158.596 184.651 155.325 186.549C152.053 188.448 146.392 188.567 142.594 182.025C138.797 175.482 140.143 170.909 141.923 168.519C143.347 166.607 145.407 165.165 146.217 164.632C148.84 162.906 152.357 161.43 154.645 162.514C156.476 163.382 157.249 165.904 156.028 167.114M159.133 178.184C159.985 177.487 160.1 175.927 159.256 174.616C158.869 174.015 158.305 173.439 157.614 173.094M150.222 175.939C151.081 175.34 153.195 173.942 154.781 173.142C155.845 172.606 156.814 172.695 157.614 173.094M157.614 173.094C158.256 172.633 158.946 170.571 158.284 169.332C157.622 168.094 156.897 167.286 156.028 167.114M147.323 170.685C148.245 169.919 152.009 167.634 153.201 167.271C154.393 166.907 155.497 167.008 156.028 167.114" stroke="#282828" stroke-width="0.5" stroke-linecap="round" stroke-linejoin="round"/>
<path d="M71.773 228.725C71.8096 228.822 71.9029 228.887 72.0071 228.887L110.637 228.887C110.743 228.887 110.837 228.821 110.872 228.721C111.762 226.23 111.938 224.116 111.612 222.323C111.285 220.529 110.458 219.073 109.369 217.895C107.198 215.548 103.981 214.303 101.572 213.646C94.9262 211.834 89.4574 214.47 86.5572 215.868C86.0623 216.106 85.6422 216.309 85.3038 216.447H80.436C76.843 216.447 74.1289 218.067 72.5883 220.423C71.0506 222.774 70.6926 225.843 71.773 228.725Z" fill="#FFF757" stroke="#282828" stroke-width="0.5" stroke-linejoin="round"/>
<path d="M28.556 224.768H28.7511L28.7985 224.578C30.2075 218.942 30.0531 214.816 28.3282 212.093C26.6099 209.38 23.3884 208.138 18.858 208.114C18.7246 207.909 18.5795 207.672 18.4211 207.414C17.7739 206.359 16.9039 204.94 15.6927 203.784C14.1109 202.274 11.9242 201.181 8.84095 201.797C7.04406 202.157 5.06271 203.056 3.52835 204.68C1.98974 206.309 0.914062 208.654 0.914062 211.875V211.928L0.93561 211.977L6.55446 224.619L6.62044 224.768H6.78291L28.556 224.768Z" fill="#FFF757" stroke="#282828" stroke-width="0.5" stroke-linecap="round"/>
<path d="M48.4181 158.723C43.2764 189.196 34.6143 201.695 12.9857 208.302M72.6579 162.813C78.1784 173.716 85.5108 193.093 83.34 216.09" stroke="black" stroke-width="5" stroke-linecap="round"/>
<path d="M119.16 100.201C110.767 80.9402 95.722 77.4252 79.828 81.9398C68.4775 69.5247 47.5941 67.6273 32.0674 74.2145C8.89008 84.0473 1.86652 109.332 8.89008 128.295C15.9136 147.259 36.1022 164.115 67.8856 164.115C111.313 164.115 129.094 122.997 119.16 100.201Z" fill="#FFF757" stroke="#282828" stroke-width="0.5" stroke-linecap="round" stroke-linejoin="round"/>
<path d="M87.5908 141.458C79.6387 141.458 73.1922 135.012 73.1922 127.06C73.1922 119.108 79.6387 112.661 87.5908 112.661C95.5428 112.661 101.989 119.108 101.989 127.06C101.989 135.012 95.5428 141.458 87.5908 141.458Z" fill="white" stroke="#282828" stroke-width="0.5" stroke-linecap="round" stroke-linejoin="round"/>
<path d="M83.7172 136.741C78.7884 136.741 74.7928 132.746 74.7928 127.817C74.7928 122.888 78.7884 118.893 83.7172 118.893C88.646 118.893 92.6416 122.888 92.6416 127.817C92.6416 132.746 88.646 136.741 83.7172 136.741Z" fill="#282828"/>
<path d="M82.8651 127.104C81.5167 125.11 81.8461 122.531 83.6009 121.345C85.3556 120.159 87.8712 120.814 89.2196 122.808C90.568 124.803 90.2386 127.382 88.4839 128.568C86.7291 129.754 84.2135 129.099 82.8651 127.104Z" fill="white"/>
<path d="M82.4964 133.352C83.0339 134.612 84.4937 135.216 85.761 134.712C87.0283 134.208 87.6255 132.768 87.088 131.514C86.5506 130.26 85.0908 129.649 83.8235 130.154C82.5562 130.658 81.959 132.098 82.4964 133.352Z" fill="white"/>
<path d="M88.1311 131.187C87.6737 130.98 87.4682 130.447 87.6721 129.997C87.876 129.546 88.4121 129.348 88.8695 129.555C89.3269 129.762 89.5325 130.295 89.3286 130.746C89.1247 131.197 88.5886 131.394 88.1311 131.187Z" fill="white"/>
<path d="M77.1974 128.47C76.8674 126.356 77.6771 124.473 79.0059 124.266C80.3347 124.059 81.6794 125.605 82.0094 127.719C82.3394 129.834 81.5297 131.716 80.2009 131.923C78.8721 132.131 77.5274 130.585 77.1974 128.47Z" fill="white"/>
<path d="M61.7256 146.249C52.916 146.249 45.7744 139.107 45.7744 130.298C45.7744 121.488 52.916 114.347 61.7256 114.347C70.5352 114.347 77.6768 121.488 77.6768 130.298C77.6768 139.107 70.5352 146.249 61.7256 146.249Z" fill="white" stroke="#282828" stroke-width="0.5" stroke-linecap="round" stroke-linejoin="round"/>
<path d="M60.9482 140.213C55.4917 140.213 51.0683 135.79 51.0683 130.333C51.0683 124.877 55.4917 120.453 60.9482 120.453C66.4047 120.453 70.8281 124.877 70.8281 130.333C70.8281 135.79 66.4047 140.213 60.9482 140.213Z" fill="#282828"/>
<path d="M60.0041 129.538C58.51 127.328 58.8738 124.471 60.8168 123.158C62.7598 121.844 65.5461 122.571 67.0402 124.781C68.5344 126.992 68.1705 129.848 66.2275 131.162C64.2846 132.475 61.4982 131.748 60.0041 129.538Z" fill="white"/>
<path d="M59.5933 136.464C60.1838 137.857 61.8028 138.534 63.2095 137.97C64.6161 137.406 65.273 135.82 64.6759 134.427C64.0787 133.033 62.4663 132.357 61.0596 132.921C59.653 133.485 58.9961 135.07 59.5933 136.464Z" fill="white"/>
<path d="M65.32 133.531C65.539 134.042 66.1295 134.287 66.6405 134.081C67.1514 133.876 67.3902 133.298 67.1779 132.787C66.9656 132.277 66.3684 132.031 65.8575 132.237C65.3466 132.442 65.1077 133.02 65.32 133.531Z" fill="white"/>
<path d="M53.7256 131.058C53.36 128.715 54.2553 126.63 55.7253 126.401C57.1953 126.171 58.6834 127.884 59.049 130.227C59.4146 132.57 58.5193 134.655 57.0492 134.884C55.5792 135.114 54.0912 133.4 53.7256 131.058Z" fill="white"/>
<path d="M94.8906 139.736C95.2126 143.419 91.7186 149.097 82.1825 149.926C72.6464 150.756 65.057 147.765 63.6696 142.964C62.2823 138.162 64.8268 136.149 69.7267 135.719C74.6207 135.296 76.8049 136.959 79.5889 136.715C82.3728 136.471 84.3383 134.705 87.8033 134.402C91.2684 134.099 94.6 136.437 94.8906 139.736Z" fill="#FFAD94" stroke="#282828" stroke-width="0.5" stroke-linecap="round" stroke-linejoin="round"/>
<path d="M80.9864 148.041C75.4178 148.523 70.6457 145.231 70.4239 142.751C70.2021 140.272 70.8275 138.817 73.9483 138.54C77.0691 138.264 77.4527 138.747 80.1509 138.513C82.8491 138.279 83.061 137.746 86.0105 137.49C88.9599 137.233 89.7779 139.783 89.9156 141.31C90.0533 142.837 89.3316 147.31 80.9791 148.036L80.9864 148.041Z" fill="#282828" stroke="#282828" stroke-width="0.5" stroke-linecap="round" stroke-linejoin="round"/>
<path d="M39.2292 150.278C39.7331 148.263 38.5077 146.221 36.4922 145.717C34.4766 145.213 32.4342 146.438 31.9303 148.454C30.6889 153.419 29.6665 161.084 30.8563 167.857C31.4545 171.262 32.6627 174.737 34.9668 177.505C37.3596 180.38 40.7415 182.251 45.1004 182.614C59.2838 183.796 69.9796 180.196 73.9685 177.917C75.7723 176.886 76.399 174.588 75.3682 172.785C74.3374 170.981 72.0395 170.354 70.2356 171.385C67.6693 172.851 58.5122 176.182 45.7252 175.116C43.3415 174.918 41.8302 173.991 40.7493 172.692C39.5796 171.287 38.7335 169.214 38.2664 166.555C37.3258 161.201 38.1295 154.678 39.2292 150.278Z" fill="#FFF757" stroke="#282828" stroke-width="0.5" stroke-linecap="round"/>
<rect x="-0.25" y="0.25" width="26.1895" height="40.2367" rx="0.75" transform="matrix(-1 0 0 1 111.636 141.64)" fill="#CBCBCB" stroke="#282828" stroke-width="0.5"/>
<rect x="-0.25" y="0.25" width="26.1895" height="40.2367" rx="0.75" transform="matrix(-1 0 0 1 114.446 141.64)" fill="url(#paint1_linear_3749_47080)" stroke="#282828" stroke-width="0.5"/>
<path d="M66.6676 178.319C68.1597 181.212 70.3941 183.387 72.8111 184.558C75.2281 185.729 77.8435 185.902 80.0665 184.755C82.2895 183.609 83.6652 181.378 84.1126 178.73C84.5601 176.081 84.0841 173 82.5921 170.107C81.1 167.214 78.8656 165.039 76.4486 163.868C74.0316 162.697 71.4162 162.524 69.1932 163.671C66.9703 164.817 65.5945 167.048 65.1471 169.696C64.6997 172.345 65.1756 175.426 66.6676 178.319Z" fill="white" stroke="#282828" stroke-width="0.5"/>
<path d="M79.3541 155.221C84.7084 151.511 89.8737 149.356 94.6546 150.283C99.8454 151.29 101.348 153.065 101.411 155.22C101.483 157.668 98.6577 157.758 97.2223 157.484C99.9325 158.336 102.304 159.954 102.304 162.339C102.304 164.629 100.335 165.036 99.1291 164.896C100.466 165.917 101.202 167.256 100.391 168.829C99.8565 169.865 97.9072 170.179 96.9083 169.9C98.974 171.036 99.3604 172.685 98.4793 174.394C97.5232 176.249 94.6546 173.467 91.7861 174.394C89.4912 175.136 85.7303 178.413 85.0928 179.031C81.7599 182.263 76.4856 180.885 74.5734 179.031C72.1348 176.666 70.7489 172.539 71.7053 166.975C72.4915 162.401 75.9418 157.585 79.3541 155.221Z" fill="white"/>
<path d="M96.567 157.295C97.4268 157.701 101.497 158.153 101.411 155.22C101.348 153.065 99.8454 151.29 94.6546 150.283C89.8737 149.356 84.7084 151.511 79.3541 155.221C75.9418 157.585 72.4915 162.401 71.7053 166.975C70.7489 172.539 72.1348 176.666 74.5734 179.031C76.4856 180.885 81.7599 182.263 85.0928 179.031C85.7303 178.413 89.4912 175.136 91.7861 174.394C94.6546 173.467 97.5232 176.249 98.4793 174.394C99.7042 172.018 98.4793 169.758 93.6984 168.83C89.8328 168.08 87.7435 170.212 86.1499 171.139M84.1357 159.557C85.7294 158.629 88.9175 156.775 92.7423 156.775C96.567 156.775 102.304 158.629 102.304 162.339C102.304 165.014 99.619 165.12 98.5996 164.786M86.1499 164.818C87.7435 163.891 89.8737 162.711 92.7423 162.711C95.6108 162.711 102.304 165.121 100.391 168.829C99.7858 170.002 97.3662 170.25 96.567 169.757" stroke="black" stroke-width="0.5" stroke-linecap="round"/>
<rect x="106.194" y="151.818" width="13.1424" height="6.92624" rx="3.25" transform="rotate(-21.8098 106.194 151.818)" fill="white" stroke="#282828" stroke-width="0.5"/>
<rect x="106.194" y="158.84" width="13.1424" height="6.92624" rx="3.25" transform="rotate(-21.8098 106.194 158.84)" fill="white" stroke="#282828" stroke-width="0.5"/>
<rect x="107.329" y="165.411" width="11.9203" height="6.30506" rx="3.15253" transform="rotate(-21.8098 107.329 165.411)" fill="white" stroke="#282828" stroke-width="0.5"/>
<rect x="109.023" y="171.755" width="10.0943" height="5.37686" rx="2.68843" transform="rotate(-21.8098 109.023 171.755)" fill="white" stroke="#282828" stroke-width="0.5"/>
<path d="M19.4256 207.661C28.5562 207.661 31.3657 213.28 28.5562 224.517H6.7832L8.89027 214.684C10.9973 210.47 13.8068 207.661 19.4256 207.661Z" fill="#FFF757"/>
<path d="M8.79748 214.685C10.8793 210.47 13.6551 207.661 19.2067 207.661C28.228 207.661 32.0677 213.982 28.556 224.518L6.71564 224.518L1.16406 211.875" stroke="#282828" stroke-width="0.5" stroke-linecap="round"/>
<defs>
<linearGradient id="paint0_linear_3749_47080" x1="320.035" y1="150.836" x2="320.035" y2="173.949" gradientUnits="userSpaceOnUse">
<stop stop-color="#653A12"/>
<stop offset="0.67" stop-color="#56310D"/>
<stop offset="1" stop-color="#4B290A"/>
</linearGradient>
<linearGradient id="paint1_linear_3749_47080" x1="13.3448" y1="0" x2="13.3448" y2="40.7367" gradientUnits="userSpaceOnUse">
<stop stop-color="#282828"/>
<stop offset="1" stop-color="#555555"/>
</linearGradient>
</defs>
</svg>
