<svg width="24" height="24" viewBox="0 0 24 24" fill="none" xmlns="http://www.w3.org/2000/svg">
<g id="home">
<path id="Exclude" fill-rule="evenodd" clip-rule="evenodd" d="M3.18579 9.15817C3.06333 9.42208 2.99993 9.70952 3 10.0005V19.0005C3 19.5309 3.21071 20.0396 3.58579 20.4147C3.96086 20.7897 4.46957 21.0005 5 21.0005H19C19.5304 21.0005 20.0391 20.7897 20.4142 20.4147C20.7893 20.0396 21 19.5309 21 19.0005V10.0005C21.0001 9.70952 20.9367 9.42208 20.8142 9.15817C20.6918 8.89427 20.5132 8.66025 20.291 8.47246L13.291 2.47346C12.93 2.16836 12.4726 2.00098 12 2.00098C11.5274 2.00098 11.07 2.16836 10.709 2.47346L3.709 8.47246C3.4868 8.66025 3.30824 8.89427 3.18579 9.15817ZM14.3369 14.7682V21H9.66309V14.7682C9.66309 14.5616 9.74516 14.3635 9.89124 14.2174C10.0373 14.0713 10.2355 13.9893 10.4421 13.9893H13.5579C13.7645 13.9893 13.9627 14.0713 14.1088 14.2174C14.2548 14.3635 14.3369 14.5616 14.3369 14.7682Z" fill="#282828"/>
</g>
</svg>
