<svg xmlns="http://www.w3.org/2000/svg" width="20" height="20" viewBox="0 0 20 20" fill="none">
  <path d="M12.1445 5.35344L11.368 8.55241H15.8947C16.1358 8.55241 16.3736 8.60854 16.5892 8.71636C16.8049 8.82417 16.9924 8.98071 17.1371 9.17357C17.2817 9.36644 17.3795 9.59033 17.4226 9.82752C17.4657 10.0647 17.453 10.3087 17.3855 10.5401L15.5764 16.7517C15.4823 17.0743 15.2862 17.3576 15.0174 17.5592C14.7486 17.7608 14.4216 17.8698 14.0856 17.8698H3.60356C3.1917 17.8698 2.79672 17.7062 2.50549 17.415C2.21427 17.1237 2.05066 16.7288 2.05066 16.3169V10.1053C2.05066 9.69346 2.21427 9.29847 2.50549 9.00725C2.79672 8.71602 3.1917 8.55241 3.60356 8.55241H5.74656C6.03546 8.55226 6.31859 8.47152 6.56412 8.31926C6.80965 8.16701 7.00784 7.94928 7.1364 7.69056L9.81515 2.34082C10.1813 2.34535 10.5417 2.43257 10.8694 2.59596C11.1971 2.75934 11.4837 2.99467 11.7077 3.28436C11.9317 3.57405 12.0873 3.91061 12.1629 4.2689C12.2386 4.62719 12.2323 4.99793 12.1445 5.35344Z" fill="#00A176" stroke="#00A176" stroke-width="1.00938" stroke-linecap="round" stroke-linejoin="round"/>
  <path d="M11.368 8.55241L12.1445 5.35344C12.2323 4.99793 12.2386 4.62719 12.1629 4.2689C12.0873 3.91061 11.9316 3.57405 11.7077 3.28436C11.4837 2.99467 11.1971 2.75934 10.8694 2.59596C10.5417 2.43257 10.1813 2.34535 9.81514 2.34082L7.13639 7.69056C7.00783 7.94928 6.80964 8.16701 6.56411 8.31926C6.31859 8.47152 6.2264 8.55226 5.9375 8.55241L5.93768 17.8698H14.0856C14.4216 17.8698 14.7485 17.7608 15.0173 17.5592C15.2861 17.3576 15.4823 17.0743 15.5764 16.7517L17.3855 10.5401C17.453 10.3087 17.4657 10.0647 17.4226 9.82752C17.3795 9.59033 17.2817 9.36644 17.1371 9.17357C16.9924 8.98071 16.8048 8.82417 16.5892 8.71636C16.3736 8.60854 16.1358 8.55241 15.8947 8.55241H11.368Z" fill="white" stroke="#00A176" stroke-width="1.00938" stroke-linecap="round" stroke-linejoin="round"/>
  <path d="M5.93286 8.55273V17.8701" stroke="#00A176" stroke-width="1.00938" stroke-linecap="round" stroke-linejoin="round"/>
</svg>