<svg width="24" height="24" viewBox="0 0 24 24" fill="none" xmlns="http://www.w3.org/2000/svg">
<path d="M9.55786 9.23492C9.7011 8.12468 9.91953 7.02179 10.2257 5.93541C10.5641 4.83434 10.9437 3.74429 11.6992 2.83959C12.1271 2.35329 12.7556 1.88166 13.4557 2.02664C14.6821 2.41017 14.3419 4.61597 14.2667 5.60509C14.2005 6.17397 14.1199 6.73735 14.0214 7.29522C13.8657 8.26048 13.5488 9.20739 13.4378 10.169C13.4378 10.18 13.4413 10.1965 13.4324 10.1415C13.4288 10.1213 13.4234 10.1029 13.4145 10.0846C13.282 9.71021 12.8236 9.66433 12.6195 9.84968C13.1728 9.14133 13.8549 7.91548 14.3437 7.1374C15.2568 5.70051 16.0769 4.15352 17.2908 2.92217C18.0374 2.17528 19.0383 2.47073 18.9452 3.66905C18.8145 5.00134 18.3472 6.21067 17.964 7.45854C17.5701 8.74678 17.0222 10.0717 16.8181 11.3269C16.7859 11.1031 16.5084 10.9159 16.2917 10.9746C16.2667 10.9838 16.2684 10.9801 16.2595 10.9856C16.5137 10.8131 16.7483 10.547 16.9846 10.2974C17.3642 9.89372 18.2415 8.86423 18.6229 8.43665C19.2298 7.79069 19.8046 7.04931 20.621 6.61806C21.3354 6.26939 21.9674 6.80157 21.8922 7.57048C21.8296 8.25865 21.6165 8.75596 21.3963 9.35604C20.784 10.9306 19.9997 12.4041 19.3713 13.9383C19.3176 14.0741 19.2764 14.1915 19.2531 14.2998C19.2603 14.1989 19.2155 14.0227 19.0759 13.9089C18.9577 13.8062 18.7769 13.7621 18.6515 13.8098C18.6873 13.7933 18.8001 13.7162 18.8932 13.6447C19.9031 12.8611 20.7643 11.8756 21.9513 11.3104C22.6048 10.9948 23.4123 11.2315 23.4965 12.0885C23.577 13.9199 22.2611 16.2101 21.2101 17.6195C19.2961 20.1886 16.2899 22.0164 13.0797 21.9999C9.24453 21.987 5.95011 19.2124 4.17041 15.8927C3.34323 14.3622 2.77386 12.6666 2.60019 10.9177C2.52499 10.224 2.51425 9.30098 3.17313 8.82019C3.86425 8.34122 4.71471 8.73027 5.31451 9.1083C7.25535 10.4369 9.49519 13.2061 9.41821 15.711C9.37344 16.8359 8.63399 17.5388 7.62597 17.8397C6.01278 18.438 4.14176 18.2581 2.65749 17.4305C1.72108 16.8818 0.734548 16.0945 0.5 14.9623C0.824071 16.0321 1.85 16.7001 2.79535 17.1369C4.25635 17.781 5.92147 17.7938 7.35919 17.135C8.37617 16.746 8.6895 16.0817 8.37975 14.9806C8.24905 14.5053 8.02524 14.0337 7.76563 13.5841C7.00469 12.2427 5.99667 10.9306 4.72187 10.0827C4.44435 9.91391 4.17399 9.76159 3.88931 9.74691C3.83381 9.75058 3.81769 9.75976 3.81232 9.76526C3.80695 9.77077 3.78547 9.78912 3.7604 9.84601C3.73533 9.90473 3.71564 9.99465 3.70311 10.0937C3.72817 13.9199 6.19182 18.0196 9.4379 19.8528C14.4565 22.6679 19.8977 19.1206 21.9101 14.1622C22.159 13.5309 22.4186 12.8097 22.381 12.1986C22.4097 12.2647 22.4956 12.3216 22.544 12.3216C22.304 12.3583 22.0283 12.562 21.7776 12.7308C21.1206 13.2042 20.544 13.7474 19.9066 14.287C19.5772 14.5384 19.3319 14.8246 18.8735 14.9311C18.6891 14.9549 18.5155 14.9219 18.3579 14.7898C18.272 14.72 18.2003 14.5953 18.1878 14.5512C18.0499 14.1695 18.22 13.8355 18.3328 13.5125C18.9702 11.9527 19.758 10.4699 20.3578 8.92846C20.5297 8.46418 20.766 7.89346 20.775 7.43101C20.7911 7.5503 20.9773 7.67508 21.0919 7.65673C21.1259 7.65306 21.1062 7.65123 21.0794 7.66591C20.4545 8.0421 19.9729 8.65503 19.4554 9.20739C18.6945 10.0332 17.8494 11.1636 16.9828 11.872C16.4976 12.2794 15.7904 12.1692 15.7098 11.4481C15.6848 11.0296 15.7958 10.6865 15.8853 10.3121C16.1932 9.19638 16.5639 8.15037 16.9058 7.09152C17.2586 5.90788 17.7581 4.69304 17.8315 3.47086C17.8297 3.43967 17.8208 3.41765 17.8315 3.44884C17.8351 3.46169 17.8422 3.4727 17.8512 3.48554C17.8798 3.53876 17.9318 3.57913 17.9837 3.61033C18.0123 3.63052 18.0589 3.63969 18.0768 3.64703C18.186 3.66905 18.2218 3.64153 18.2165 3.64703C17.7724 3.95166 17.4054 4.51687 17.0706 4.97014C16.4511 5.8565 15.8746 6.79974 15.2998 7.74482C14.8737 8.44399 14.1969 9.58726 13.7403 10.2497C13.6007 10.4369 13.4216 10.7287 13.1746 10.8388C13.1638 10.8516 12.983 10.9067 12.8827 10.8902C12.7771 10.892 12.5801 10.8021 12.4942 10.6975C12.3223 10.5158 12.3026 10.2075 12.3313 9.99282C12.3832 9.53588 12.4834 9.12298 12.5694 8.68989C12.7753 7.59801 13.0653 6.53181 13.2766 5.45094C13.4109 4.68387 13.5649 3.88376 13.4449 3.13504C13.4073 2.97906 13.3751 2.83408 13.2551 2.77352C13.1781 2.72948 12.9221 2.77903 12.7269 2.86711C11.0081 3.77916 10.0198 7.37963 9.56323 9.24042L9.55786 9.23492Z" fill="#CBCBCB"/>
</svg>
