<svg width="25" height="25" viewBox="0 0 25 25" fill="none" xmlns="http://www.w3.org/2000/svg">
<path d="M20.0566 13.0991C20.0566 18.0991 16.5566 20.5991 12.3966 22.0491C12.1788 22.1229 11.9422 22.1194 11.7266 22.0391C7.55664 20.5991 4.05664 18.0991 4.05664 13.0991V6.09908C4.05664 5.83387 4.162 5.57951 4.34953 5.39198C4.53707 5.20444 4.79142 5.09908 5.05664 5.09908C7.05664 5.09908 9.55664 3.89908 11.2966 2.37908C11.5085 2.19808 11.778 2.09863 12.0566 2.09863C12.3353 2.09863 12.6048 2.19808 12.8166 2.37908C14.5666 3.90908 17.0566 5.09908 19.0566 5.09908C19.3219 5.09908 19.5762 5.20444 19.7637 5.39198C19.9513 5.57951 20.0566 5.83387 20.0566 6.09908V13.0991Z" fill="#00A176" stroke="#00A176" stroke-linecap="round" stroke-linejoin="round"/>
<path d="M9.05664 12.0986L11.0566 14.0986L15.0566 10.0986" stroke="white" stroke-width="1.5" stroke-linecap="round" stroke-linejoin="round"/>
</svg>
