<svg width="24" height="20" viewBox="0 0 24 20" fill="none" xmlns="http://www.w3.org/2000/svg">
<path id="Vector" d="M9.55786 7.23492C9.7011 6.12468 9.91953 5.02179 10.2257 3.93541C10.5641 2.83434 10.9437 1.74429 11.6992 0.839588C12.1271 0.353286 12.7556 -0.118335 13.4557 0.0266377C14.6821 0.410174 14.3419 2.61597 14.2667 3.60509C14.2005 4.17397 14.1199 4.73735 14.0214 5.29522C13.8657 6.26048 13.5488 7.20739 13.4378 8.16899C13.4378 8.18 13.4413 8.19651 13.4324 8.14146C13.4288 8.12127 13.4234 8.10292 13.4145 8.08457C13.282 7.71021 12.8236 7.66433 12.6195 7.84968C13.1728 7.14133 13.8549 5.91548 14.3437 5.1374C15.2568 3.70051 16.0769 2.15352 17.2908 0.922168C18.0374 0.175281 19.0383 0.470732 18.9452 1.66905C18.8145 3.00134 18.3472 4.21067 17.964 5.45854C17.5701 6.74678 17.0222 8.07173 16.8181 9.32694C16.7859 9.10305 16.5084 8.91587 16.2917 8.9746C16.2667 8.98377 16.2684 8.9801 16.2595 8.98561C16.5137 8.81311 16.7483 8.54702 16.9846 8.29744C17.3642 7.89372 18.2415 6.86423 18.6229 6.43665C19.2298 5.79069 19.8046 5.04931 20.621 4.61806C21.3354 4.26939 21.9674 4.80157 21.8922 5.57048C21.8296 6.25865 21.6165 6.75596 21.3963 7.35604C20.784 8.93055 19.9997 10.4041 19.3713 11.9383C19.3176 12.0741 19.2764 12.1915 19.2531 12.2998C19.2603 12.1989 19.2155 12.0227 19.0759 11.9089C18.9577 11.8062 18.7769 11.7621 18.6515 11.8098C18.6873 11.7933 18.8001 11.7162 18.8932 11.6447C19.9031 10.8611 20.7643 9.87563 21.9513 9.31042C22.6048 8.99478 23.4123 9.23151 23.4965 10.0885C23.577 11.9199 22.2611 14.2101 21.2101 15.6195C19.2961 18.1886 16.2899 20.0164 13.0797 19.9999C9.24453 19.987 5.95011 17.2124 4.17041 13.8927C3.34323 12.3622 2.77386 10.6666 2.60019 8.91771C2.52499 8.22404 2.51425 7.30098 3.17313 6.82019C3.86425 6.34122 4.71471 6.73027 5.31451 7.1083C7.25535 8.43691 9.49519 11.2061 9.41821 13.711C9.37344 14.8359 8.63399 15.5388 7.62597 15.8397C6.01278 16.438 4.14176 16.2581 2.65749 15.4305C1.72108 14.8818 0.734548 14.0945 0.5 12.9623C0.824071 14.0321 1.85 14.7001 2.79535 15.1369C4.25635 15.781 5.92147 15.7938 7.35919 15.135C8.37617 14.746 8.6895 14.0817 8.37975 12.9806C8.24905 12.5053 8.02524 12.0337 7.76563 11.5841C7.00469 10.2427 5.99667 8.93055 4.72187 8.08274C4.44435 7.91391 4.17399 7.76159 3.88931 7.74691C3.83381 7.75058 3.81769 7.75976 3.81232 7.76526C3.80695 7.77077 3.78547 7.78912 3.7604 7.84601C3.73533 7.90473 3.71564 7.99465 3.70311 8.09375C3.72817 11.9199 6.19182 16.0196 9.4379 17.8528C14.4565 20.6679 19.8977 17.1206 21.9101 12.1622C22.159 11.5309 22.4186 10.8097 22.381 10.1986C22.4097 10.2647 22.4956 10.3216 22.544 10.3216C22.304 10.3583 22.0283 10.562 21.7776 10.7308C21.1206 11.2042 20.544 11.7474 19.9066 12.287C19.5772 12.5384 19.3319 12.8246 18.8735 12.9311C18.6891 12.9549 18.5155 12.9219 18.3579 12.7898C18.272 12.72 18.2003 12.5953 18.1878 12.5512C18.0499 12.1695 18.22 11.8355 18.3328 11.5125C18.9702 9.95271 19.758 8.46994 20.3578 6.92846C20.5297 6.46418 20.766 5.89346 20.775 5.43101C20.7911 5.5503 20.9773 5.67508 21.0919 5.65673C21.1259 5.65306 21.1062 5.65123 21.0794 5.66591C20.4545 6.0421 19.9729 6.65503 19.4554 7.20739C18.6945 8.03319 17.8494 9.16361 16.9828 9.87196C16.4976 10.2794 15.7904 10.1692 15.7098 9.44805C15.6848 9.02965 15.7958 8.68648 15.8853 8.31212C16.1932 7.19638 16.5639 6.15037 16.9058 5.09152C17.2586 3.90788 17.7581 2.69304 17.8315 1.47086C17.8297 1.43967 17.8208 1.41765 17.8315 1.44884C17.8351 1.46169 17.8422 1.4727 17.8512 1.48554C17.8798 1.53876 17.9318 1.57913 17.9837 1.61033C18.0123 1.63052 18.0589 1.63969 18.0768 1.64703C18.186 1.66905 18.2218 1.64153 18.2165 1.64703C17.7724 1.95166 17.4054 2.51687 17.0706 2.97014C16.4511 3.8565 15.8746 4.79974 15.2998 5.74482C14.8737 6.44399 14.1969 7.58726 13.7403 8.24973C13.6007 8.43691 13.4216 8.72869 13.1746 8.8388C13.1638 8.85164 12.983 8.9067 12.8827 8.89018C12.7771 8.89202 12.5801 8.8021 12.4942 8.6975C12.3223 8.51582 12.3026 8.20752 12.3313 7.99282C12.3832 7.53588 12.4834 7.12298 12.5694 6.68989C12.7753 5.59801 13.0653 4.53181 13.2766 3.45094C13.4109 2.68387 13.5649 1.88376 13.4449 1.13504C13.4073 0.979056 13.3751 0.834083 13.2551 0.773524C13.1781 0.729482 12.9221 0.77903 12.7269 0.867115C11.0081 1.77916 10.0198 5.37963 9.56323 7.24042L9.55786 7.23492Z" fill="#CBCBCB"/>
</svg>
