<svg width="23" height="23" viewBox="0 0 23 23" fill="none" xmlns="http://www.w3.org/2000/svg">
<g clip-path="url(#clip0_4393_55361)">
<path d="M22.0226 5.68493C18.8244 4.34247 14.989 3.66163 11.4993 3.66163C8.00962 3.66163 4.1725 4.34247 0.976071 5.68493C0.768329 5.78793 0.667076 5.88046 0.667076 6.11613V16.9449C0.667076 17.1823 0.768329 17.2731 0.976071 17.3761C4.1725 18.7186 8.00962 19.3994 11.4993 19.3994C14.989 19.3994 18.8262 18.7186 22.0226 17.3761C22.2303 17.2731 22.3316 17.1806 22.3316 16.9449V6.11613C22.3316 5.88046 22.2303 5.78793 22.0226 5.68493ZM18.8663 5.85776C18.9728 5.47195 19.2975 5.27294 19.6554 5.37245C19.7531 5.40038 19.8335 5.44053 19.898 5.49814L19.9033 5.50163L19.8352 5.69192L19.8247 5.68144C19.7671 5.61685 19.6973 5.57146 19.6152 5.54877C19.5018 5.51734 19.39 5.52956 19.294 5.58368C19.1805 5.64827 19.0968 5.76524 19.0549 5.91362C19.013 6.06201 19.0269 6.20691 19.0915 6.32038C19.1456 6.41639 19.2329 6.48448 19.3394 6.51416C19.4127 6.5351 19.5297 6.54383 19.5978 6.52114L19.6117 6.5159L19.5681 6.71317H19.5629C19.4878 6.72713 19.3988 6.71841 19.2888 6.68698C18.9204 6.58573 18.7546 6.25753 18.8681 5.85427L18.8663 5.85776ZM17.3353 4.84524V4.83651L17.5186 4.87317L17.2568 6.17199L17.0752 6.13533L17.3353 4.84524ZM15.1846 4.50133V4.4926L15.3696 4.51704C15.3696 4.51704 15.223 5.63256 15.2195 5.65002C15.2352 5.65176 15.7065 5.71461 15.7065 5.71461L15.6821 5.89442L15.01 5.80539L15.1828 4.50133H15.1846ZM12.449 4.93951C12.4595 4.71954 12.538 4.53275 12.6672 4.41753C12.772 4.32326 12.9064 4.27787 13.0583 4.2866C13.4022 4.30406 13.6187 4.59036 13.5977 4.99886C13.5872 5.22231 13.5104 5.40736 13.383 5.52258C13.28 5.61685 13.1421 5.66224 12.9884 5.65351C12.8348 5.64478 12.7021 5.58717 12.6096 5.48243C12.4944 5.35499 12.4385 5.16296 12.4508 4.93951H12.449ZM10.1673 4.29359C10.1673 4.29359 10.1848 4.82254 10.1848 4.84C10.2005 4.84 10.7138 4.82254 10.7295 4.8208C10.7295 4.80509 10.712 4.27438 10.712 4.27438L10.8901 4.26915H10.8988L10.9424 5.59241L10.7574 5.59939C10.7574 5.59939 10.7382 5.02156 10.7382 5.0041C10.7225 5.0041 10.2092 5.02156 10.1935 5.02156C10.1935 5.03727 10.2127 5.61685 10.2127 5.61685L10.0277 5.62383L9.98404 4.30057L10.1691 4.29533L10.1673 4.29359ZM9.8147 6.12311C10.4083 6.0882 10.9791 6.07074 11.5028 6.07074C14.0114 6.07074 17.578 6.474 19.7793 7.2526H9.81296V6.12311H9.8147ZM9.8147 7.85662H20.2961C20.2961 7.88106 20.2978 7.9055 20.2996 7.9282V8.22672H10.9616V10.7807H15.2596V11.1508H9.8147V7.85662ZM11.5639 10.1767V9.8066H20.2978V10.1767H11.5639ZM20.2996 10.7807V11.1508H15.8637V10.7807H20.2996ZM11.5639 9.20258V8.83249H20.2978V9.20258H11.5639ZM15.2579 11.7548V14.0749H7.81759V13.7048H13.9678V12.1267H7.81759V7.24911H3.24028C4.82715 6.69047 7.11755 6.32562 9.21068 6.16501V11.7566H15.2596L15.2579 11.7548ZM8.47748 4.4088H8.4862L8.50715 4.58861C8.50715 4.58861 8.15975 4.62877 8.14404 4.63051C8.14404 4.64622 8.27148 5.76524 8.27148 5.76524L8.08643 5.78619C8.08643 5.78619 7.96074 4.66717 7.95899 4.65146C7.94328 4.65146 7.59588 4.69336 7.59588 4.69336L7.57493 4.5118L8.47748 4.41055V4.4088ZM5.67732 4.8208L5.85713 4.78588H5.86237L6.60605 5.99044L6.40704 6.02884C6.40704 6.02884 6.23421 5.73731 6.22723 5.72683C6.21501 5.72858 5.68431 5.83157 5.67209 5.83332C5.67209 5.84554 5.61622 6.17898 5.61622 6.17898L5.42419 6.21564L5.67383 4.81905L5.67732 4.8208ZM3.1722 5.58194C3.25076 5.44053 3.38169 5.34277 3.54753 5.29389C3.64529 5.26596 3.73432 5.26072 3.82161 5.27643H3.82685L3.867 5.47545L3.85303 5.47021C3.77099 5.44402 3.68719 5.44228 3.60514 5.46497C3.49167 5.49639 3.40264 5.56448 3.34852 5.66224C3.28567 5.77571 3.27345 5.92061 3.31535 6.06899C3.39391 6.35006 3.62784 6.50368 3.87049 6.4356C3.94381 6.41465 4.04856 6.36228 4.09569 6.30816L4.10617 6.29594L4.1725 6.48797L4.16727 6.49146C4.10966 6.54034 4.02586 6.58049 3.91937 6.61017C3.75004 6.65731 3.58768 6.64334 3.45152 6.56653C3.29789 6.48099 3.18617 6.32562 3.12856 6.11787C3.07444 5.92235 3.09015 5.73207 3.17569 5.58019L3.1722 5.58194ZM2.70784 7.9282C2.70784 7.9055 2.70784 7.87932 2.71133 7.85139H7.21182V12.1249H2.70784V7.9282ZM2.70784 12.729H13.362V13.0991H7.21182V14.6772H15.8619V11.7531H20.2978V14.8413C20.2961 14.9652 20.2804 15.1555 20.1948 15.2672C20.1232 15.3598 20.0255 15.4191 19.9609 15.4488C18.8628 15.8608 17.3859 16.1733 15.8619 16.3828V15.0455H2.72704C2.71307 14.9722 2.70958 14.8989 2.70784 14.8395V12.7255V12.729ZM15.2579 15.6531V16.4631C13.9399 16.6202 12.6183 16.7005 11.5028 16.7005C9.14434 16.7005 5.85713 16.3426 3.63831 15.6531H15.2596H15.2579ZM2.63102 17.3691C2.50533 17.3255 2.41804 17.2539 2.36916 17.1544C2.30806 17.0304 2.31155 16.8698 2.37615 16.6778L2.62579 15.9533L2.62928 15.9446L2.80385 16.0057L2.56119 16.7145C2.50708 16.8733 2.50009 16.992 2.54025 17.0758C2.56818 17.1334 2.61706 17.1718 2.69038 17.198C2.76195 17.2225 2.82829 17.2225 2.88415 17.1945C2.96795 17.1544 3.03429 17.0566 3.09015 16.896L3.33281 16.1872L3.50738 16.2466L3.25599 16.9798C3.13554 17.329 2.91383 17.4669 2.62928 17.3691H2.63102ZM4.10267 17.8055C4.10267 17.8055 3.90541 16.7005 3.89493 16.6481C3.87922 16.7005 3.60165 17.6606 3.60165 17.6606L3.42358 17.6083L3.79019 16.3444V16.3356L4.02586 16.4037C4.02586 16.4037 4.21615 17.4808 4.22662 17.535C4.24233 17.4808 4.51467 16.5451 4.51467 16.5451L4.69273 16.5975L4.32438 17.8684L4.10442 17.8038L4.10267 17.8055ZM4.8708 18.008L4.69099 17.9627L5.01395 16.6883V16.6795L5.1955 16.7249L4.8708 18.008ZM5.53068 18.1652L5.37531 16.7878V16.7756L5.57607 16.8192C5.57607 16.8192 5.68081 17.9574 5.68431 17.9976C5.70526 17.9627 6.28484 16.9746 6.28484 16.9746L6.47512 17.0165L5.74715 18.2123L5.52894 18.1652H5.53068ZM7.29038 17.3412C7.29038 17.3412 6.82427 17.2591 6.80681 17.2556C6.80332 17.2713 6.74571 17.5995 6.74396 17.6153C6.75968 17.6187 7.18389 17.6921 7.18389 17.6921L7.15247 17.8719C7.15247 17.8719 6.72825 17.7968 6.71254 17.7951C6.70905 17.8108 6.64446 18.1861 6.64097 18.2018C6.65668 18.2053 7.12453 18.2874 7.12453 18.2874L7.09311 18.4672L6.42799 18.3502L6.65668 17.0549V17.0461L7.32355 17.1631L7.29212 17.3412H7.29038ZM8.28544 17.6659C8.2645 17.8143 8.15626 17.9173 8.01136 17.9312C8.05326 17.9609 8.07596 17.9941 8.09865 18.0726L8.25228 18.6313L8.04279 18.6033L7.92408 18.125C7.89091 17.9976 7.84203 17.9906 7.753 17.9784C7.753 17.9784 7.67444 17.9679 7.66047 17.9661C7.65873 17.9819 7.58192 18.5405 7.58192 18.5405L7.39861 18.5161L7.57668 17.212V17.2033L7.87171 17.2434C8.00613 17.2609 8.15277 17.294 8.23133 17.3988C8.26973 17.4494 8.28894 17.5123 8.28894 17.5908C8.28894 17.6153 8.28719 17.6397 8.2837 17.6676L8.28544 17.6659ZM8.89645 17.9033C9.03262 17.9941 9.18624 18.0988 9.1618 18.3467C9.13562 18.5981 8.96279 18.7273 8.68522 18.6994C8.59968 18.6906 8.52112 18.6557 8.4478 18.6208L8.44256 18.6173L8.48097 18.427L8.49144 18.434C8.52286 18.4515 8.62935 18.5108 8.72537 18.5195C8.77425 18.5248 8.84582 18.5143 8.89994 18.4707C8.94009 18.4375 8.96279 18.3939 8.96803 18.338C8.98025 18.2088 8.88598 18.1477 8.776 18.0744C8.64856 17.9906 8.50366 17.8963 8.52636 17.6711C8.5473 17.4512 8.71315 17.3237 8.94708 17.3464C9.03087 17.3551 9.12165 17.3813 9.19497 17.4197L9.20021 17.4232L9.15482 17.61L9.14434 17.6048C9.06229 17.5594 9.01865 17.5384 8.93311 17.5297C8.8947 17.5262 8.82313 17.5262 8.77425 17.5664C8.74457 17.5908 8.72537 17.6275 8.72188 17.6746C8.7114 17.7776 8.79869 17.8352 8.8982 17.9033H8.89645ZM9.59125 18.7552L9.4062 18.7413L9.50222 17.4285V17.4197L9.68727 17.4337L9.58951 18.7535L9.59125 18.7552ZM10.8028 17.6746C10.8028 17.6746 10.4536 17.6589 10.4379 17.6589C10.4379 17.6764 10.3873 18.8006 10.3873 18.8006L10.2023 18.7919C10.2023 18.7919 10.2529 17.6676 10.2529 17.6502C10.2372 17.6502 9.88803 17.6345 9.88803 17.6345L9.89675 17.4616V17.4529L10.8133 17.4931L10.8045 17.6746H10.8028ZM12.051 17.5123C12.051 17.5123 11.5936 18.2682 11.5919 18.2682V18.8233H11.4068C11.4068 18.8233 11.4068 18.2751 11.4068 18.2699C11.4051 18.2664 10.9494 17.5105 10.9494 17.5105L10.9424 17.4965H11.1589C11.1589 17.4965 11.4889 18.0517 11.5028 18.0761C11.5168 18.0534 11.8415 17.4983 11.8415 17.4983H12.058L12.051 17.5123ZM13.596 18.6208C13.5034 18.7255 13.3725 18.7849 13.2189 18.7954C12.8697 18.8163 12.6288 18.5614 12.6044 18.146C12.5799 17.7375 12.7947 17.4494 13.1368 17.4285C13.4807 17.4075 13.7269 17.6694 13.7513 18.0779C13.7653 18.3013 13.7094 18.4934 13.596 18.6208ZM14.2576 18.6924L14.0725 18.7116L13.9399 17.3935L14.5701 17.329H14.5788L14.5963 17.5088C14.5963 17.5088 14.1581 17.5524 14.1424 17.5542C14.1424 17.5699 14.1773 17.9016 14.179 17.9173C14.1947 17.9173 14.6137 17.8736 14.6137 17.8736L14.6329 18.0552C14.6329 18.0552 14.2157 18.0971 14.1982 18.0988C14.1982 18.1163 14.2576 18.6906 14.2576 18.6906V18.6924ZM16.3542 18.4113C16.3542 18.4113 16.1116 18.4497 16.1046 18.448C16.1046 18.448 15.539 17.9417 15.5058 17.912C15.5128 17.9557 15.6018 18.53 15.6018 18.53L15.4185 18.558L15.2142 17.2487L15.3975 17.2207C15.3975 17.2207 15.4779 17.734 15.4831 17.7741C15.5424 17.6816 15.8794 17.1474 15.8846 17.1439L16.1063 17.109L16.1255 17.1055C16.1255 17.1055 15.6751 17.7986 15.6681 17.8108C15.6786 17.8195 16.3717 18.4078 16.3717 18.4078L16.3525 18.4113H16.3542ZM16.9914 18.3083C16.6492 18.3764 16.3752 18.1582 16.2931 17.7497C16.2128 17.3482 16.3856 17.0322 16.7226 16.9658C17.0595 16.8978 17.3405 17.123 17.4209 17.5245C17.5029 17.9312 17.3336 18.2402 16.9914 18.3083ZM18.4613 17.9504L18.1733 17.5489C18.0947 17.4424 18.0476 17.4546 17.9603 17.4756C17.9603 17.4756 17.8835 17.4948 17.8713 17.4983C17.8747 17.514 18.0109 18.0622 18.0109 18.0622L17.8311 18.1076L17.5116 16.8227L17.7997 16.7511C17.9306 16.7179 18.079 16.6953 18.1907 16.7616C18.2623 16.8052 18.3112 16.8803 18.3391 16.9903C18.3461 17.0182 18.3496 17.0444 18.3496 17.0706C18.3496 17.1841 18.2885 17.2836 18.1837 17.3377C18.2326 17.3482 18.2658 17.3726 18.3182 17.4372L18.6673 17.8998L18.4631 17.9504H18.4613ZM18.9222 17.8265L18.5521 16.5556L19.1928 16.3688H19.2015L19.2521 16.5416C19.2521 16.5416 18.7965 16.6743 18.7808 16.6778C18.786 16.6935 18.8785 17.013 18.882 17.0287C18.8977 17.0235 19.3115 16.9047 19.3115 16.9047L19.3621 17.0793C19.3621 17.0793 18.9484 17.1998 18.9327 17.2033C18.9379 17.219 19.0444 17.5856 19.0479 17.6013C19.0636 17.5961 19.5192 17.4651 19.5192 17.4651L19.5698 17.6397L18.9204 17.8282L18.9222 17.8265ZM20.6854 17.2731C20.6854 17.2731 20.4741 17.0077 20.4672 16.999C20.4567 17.0025 19.9434 17.1753 19.9312 17.1788C19.9312 17.191 19.9225 17.5297 19.9225 17.5297L19.7374 17.5926L19.7968 16.175L19.9696 16.1157H19.9749L20.8757 17.2085L20.6836 17.2731H20.6854ZM12.9972 5.47195C13.0932 5.47719 13.177 5.44926 13.2433 5.38816C13.3358 5.30436 13.3935 5.15947 13.4022 4.98839C13.4109 4.81905 13.3673 4.66717 13.2817 4.5729C13.2206 4.50657 13.1438 4.46991 13.0495 4.46641C12.957 4.46118 12.875 4.48911 12.8086 4.54846C12.7144 4.634 12.655 4.7789 12.6463 4.94824C12.6341 5.18042 12.7196 5.45624 12.9989 5.47021L12.9972 5.47195ZM19.9347 16.9973C19.9557 16.9903 20.3345 16.8628 20.3554 16.8559C20.3415 16.8384 19.9749 16.3775 19.9487 16.3444C19.9487 16.388 19.9347 16.9746 19.9347 16.9973ZM22.864 5.46323C22.761 5.30611 22.6144 5.21533 22.5306 5.17343C19.2888 3.77685 15.2561 3 11.5011 3C7.74601 3 3.71163 3.77685 0.469809 5.17343C0.38776 5.21533 0.241118 5.30611 0.13812 5.46323C0.0246476 5.63256 0.00544459 5.9241 0.00195312 6.11264V16.9484C0.00544459 17.1369 0.0263934 17.4267 0.13812 17.5978C0.23239 17.7409 0.361574 17.8282 0.447114 17.8754C3.69592 19.2789 7.73728 20.0593 11.5028 20.0593C15.2684 20.0593 19.308 19.2789 22.5568 17.8754C22.6423 17.8282 22.7715 17.7409 22.8658 17.5978C22.9775 17.4267 22.9985 17.1369 23.002 16.9484V6.11089C22.9985 5.9241 22.9775 5.63256 22.8658 5.46148L22.864 5.46323ZM22.5603 16.9519C22.5603 17.1806 22.5341 17.2417 22.4992 17.322C22.4486 17.4389 22.3106 17.5123 22.3106 17.5123C19.102 18.9263 15.0955 19.6298 11.5011 19.6298C7.90662 19.6298 3.89842 18.9263 0.689771 17.5123C0.689771 17.5123 0.550112 17.4389 0.501232 17.322C0.466317 17.2417 0.440131 17.1806 0.440131 16.9519V6.11787C0.440131 5.88918 0.466317 5.82808 0.501232 5.74778C0.551858 5.63082 0.689771 5.5575 0.689771 5.5575C3.89842 4.14345 7.90487 3.43818 11.5011 3.43818C15.0973 3.43818 19.102 4.14345 22.3106 5.5575C22.3106 5.5575 22.4486 5.63082 22.4992 5.74778C22.5341 5.82808 22.5603 5.88918 22.5603 6.11787V16.9519ZM13.39 17.6903C13.3219 17.631 13.2416 17.603 13.1473 17.61C13.0548 17.6153 12.9762 17.6519 12.9169 17.7183C12.8313 17.8125 12.7894 17.9644 12.7999 18.1337C12.8104 18.3048 12.8697 18.4497 12.9623 18.5318C13.0286 18.5911 13.1124 18.6191 13.2084 18.6121C13.3044 18.6068 13.383 18.5702 13.4423 18.5021C13.5244 18.4096 13.5663 18.2577 13.5558 18.0883C13.5453 17.919 13.486 17.7741 13.39 17.6886V17.6903ZM7.89091 17.4302C7.89091 17.4302 7.75474 17.411 7.73903 17.4093C7.73729 17.425 7.69015 17.7706 7.68841 17.7863C7.70412 17.7881 7.82283 17.8055 7.82283 17.8055C7.90662 17.8178 7.97645 17.8055 8.02533 17.7671C8.06199 17.7392 8.08469 17.6973 8.09341 17.6449C8.09341 17.6345 8.09516 17.624 8.09516 17.6153C8.09516 17.5157 8.02359 17.4494 7.89265 17.432L7.89091 17.4302ZM17.0106 17.191C16.9355 17.1404 16.8517 17.1265 16.7592 17.1457C16.6667 17.1631 16.5951 17.2102 16.5462 17.2836C16.4747 17.3901 16.4537 17.5454 16.4869 17.713C16.5323 17.94 16.6824 18.1861 16.9582 18.132C17.0525 18.1128 17.1258 18.0657 17.1747 17.9906C17.2445 17.8876 17.2637 17.7322 17.2306 17.5646C17.1974 17.3988 17.1171 17.2626 17.0124 17.1928L17.0106 17.191ZM17.8835 16.917C17.8835 16.917 17.749 16.9501 17.7351 16.9536C17.7386 16.9693 17.8224 17.3063 17.8259 17.322C17.8468 17.3167 17.9568 17.2888 17.9568 17.2888C18.0842 17.2574 18.1541 17.1841 18.1541 17.0898C18.1541 17.0741 18.1523 17.0566 18.1471 17.0392C18.1191 16.9257 18.0214 16.8803 17.8817 16.9152L17.8835 16.917ZM5.80302 5.01108C5.79603 5.05472 5.70351 5.63431 5.70002 5.657C5.72271 5.65351 6.11376 5.5767 6.13645 5.57321C6.12423 5.554 5.82397 5.04949 5.80302 5.01108Z" fill="#0C2E86"/>
</g>
<defs>
<clipPath id="clip0_4393_55361">
<rect width="23" height="17.0575" fill="white" transform="translate(0 3)"/>
</clipPath>
</defs>
</svg>
