<svg width="23" height="23" viewBox="0 0 23 23" fill="none" xmlns="http://www.w3.org/2000/svg">
<g clip-path="url(#clip0_4393_55487)">
<path d="M4.26559 17.6729L3.12159 18.903C3.05009 18.9805 3.0416 19.0072 3.08038 19.0424C3.12159 19.0799 3.14461 19.0726 3.21975 18.9939L4.36375 17.7626L4.59764 17.9808L3.50211 19.1587L3.44152 19.2241C3.40759 19.2605 3.37123 19.2908 3.33366 19.315C3.19915 19.4108 3.03797 19.3877 2.8877 19.2484C2.78953 19.1575 2.73985 19.052 2.74227 18.9527C2.7447 18.9042 2.76166 18.8545 2.78832 18.8085C2.81135 18.7697 2.83801 18.7309 2.87194 18.6958L2.93375 18.6291L4.02927 17.4512L4.26559 17.6717V17.6729Z" fill="#888E91"/>
<path d="M5.3994 18.7344L5.68661 18.9149L5.27458 19.9014L5.83689 19.0107L6.08411 19.167L4.97767 20.9194L4.6941 20.74L5.10371 19.7572L4.54261 20.6443L4.29297 20.4867L5.3994 18.7344Z" fill="#888E91"/>
<path d="M7.06937 19.7441L7.34931 19.892L6.38588 21.7268L6.10352 21.5777L7.06937 19.7441Z" fill="#888E91"/>
<path d="M8.22175 20.2676L8.52593 20.3463L8.31021 21.6552L8.74648 20.4045L9.05066 20.4845L8.30173 22.4308L7.92969 22.3326L8.22175 20.2676Z" fill="#888E91"/>
<path d="M10.1276 20.5127L10.7275 20.5151L10.7263 20.7975L10.4439 20.7963L10.4403 21.3937L10.7239 21.3949L10.7214 21.6737L10.4391 21.6724L10.4366 22.3038H10.719V22.5874L10.1191 22.585L10.1276 20.5127Z" fill="#888E91"/>
<path d="M12.3999 20.6626C12.5041 20.6432 12.5296 20.6602 12.549 20.7535L12.6265 21.1376C12.6447 21.2322 12.6278 21.2576 12.5248 21.2782L12.4011 20.6626H12.3999ZM12.4411 22.4804L12.7526 22.4186L12.5781 21.5509C12.6823 21.5303 12.7065 21.5436 12.7259 21.6381L12.8386 22.2017C12.858 22.2986 12.8762 22.3398 12.9101 22.3871L13.2155 22.3265C13.1779 22.2671 13.1683 22.2344 13.1489 22.1362L13.0471 21.6284C13.0216 21.5012 12.9816 21.4297 12.9113 21.3982C12.8835 21.3849 12.8701 21.3812 12.8217 21.3727C12.9065 21.3073 12.9331 21.2649 12.9368 21.1849C12.9368 21.1279 12.9295 21.0346 12.915 20.9668L12.8677 20.7292C12.8277 20.5341 12.7853 20.4469 12.7126 20.3984C12.6326 20.3511 12.5611 20.3427 12.4036 20.3742L12.0352 20.4481L12.4423 22.4804H12.4411Z" fill="#888E91"/>
<path d="M14.8063 20.4709L15.0208 20.5364C15.1989 20.5885 15.2595 20.6454 15.3419 20.8236L15.4425 21.0429L15.4813 21.1253C15.5019 21.1702 15.5164 21.215 15.5261 21.2586C15.5637 21.415 15.4789 21.5592 15.2995 21.6428C15.1868 21.6949 15.0656 21.7022 14.9784 21.661C14.9335 21.644 14.8923 21.6089 14.8596 21.5652C14.833 21.5301 14.8111 21.4889 14.7869 21.4453L14.7493 21.3641L14.6245 21.0926L14.9129 20.9605L15.0681 21.2962C15.0826 21.3265 15.0911 21.3471 15.1008 21.3592C15.119 21.3919 15.148 21.4028 15.182 21.3871C15.2329 21.3641 15.2329 21.3362 15.1892 21.2404L15.085 21.0138C15.0329 20.9011 15.0099 20.8781 14.896 20.8478L14.6803 20.7799C14.4936 20.7254 14.433 20.6757 14.3579 20.5109L14.2707 20.3219L14.2331 20.2407C14.2149 20.1946 14.1992 20.1498 14.1895 20.1074C14.1543 19.9486 14.2391 19.8068 14.4149 19.7268C14.5276 19.6747 14.6463 19.6674 14.7336 19.7062C14.7772 19.7268 14.8184 19.7583 14.8499 19.8032C14.8936 19.8589 14.8984 19.8698 14.9602 20.0056L15.0656 20.2346L14.7857 20.3631L14.6512 20.0698C14.6075 19.974 14.5857 19.9571 14.5348 19.9801C14.4864 20.0019 14.4864 20.0298 14.53 20.1255L14.6185 20.3182C14.6657 20.42 14.6863 20.4346 14.8087 20.4721" fill="#888E91"/>
<path d="M15.8926 18.952L16.1507 18.7666L17.3589 20.4499L17.102 20.6353L15.8926 18.952Z" fill="#888E91"/>
<path d="M17.4332 18.2179L17.2866 18.3779L17.0781 18.1864L17.5883 17.6338L17.7968 17.8253L17.6441 17.9889L18.9602 19.2019L18.7493 19.431L17.4332 18.2179Z" fill="#888E91"/>
<path d="M18.3007 16.4822L18.9139 16.727L18.4304 16.2786L18.6013 16.0107L19.5538 16.939L20.2034 17.3523L20.0301 17.6249L19.3732 17.2056L18.125 16.7573L18.3007 16.4822Z" fill="#888E91"/>
<path d="M10.8585 1.73463V1.40863C10.8585 1.3747 10.8585 1.35652 10.8561 1.33713C10.8536 1.29957 10.8282 1.27775 10.793 1.27775C10.7373 1.27775 10.7252 1.30199 10.7252 1.40742V2.69685C10.724 2.80228 10.7361 2.82773 10.7918 2.82773C10.8451 2.82773 10.8573 2.80592 10.8573 2.69685V2.29087H10.7967V2.00851H11.176V3.08949H11.0039L10.9821 3.0083C10.9385 3.08101 10.873 3.11131 10.77 3.11131C10.6585 3.11131 10.5434 3.06525 10.484 2.99375C10.4501 2.95982 10.4283 2.90892 10.4161 2.85681C10.4064 2.81319 10.4028 2.76714 10.4004 2.71745V2.62656L10.4028 1.48135V1.39046C10.4064 1.34077 10.4101 1.29472 10.4186 1.25109C10.4537 1.09113 10.5894 0.999023 10.7882 0.999023C10.9191 0.999023 11.0306 1.04023 11.0924 1.11415C11.1263 1.15172 11.1493 1.19777 11.1614 1.24988C11.1736 1.31896 11.1772 1.33107 11.176 1.48013V1.73463H10.8585Z" fill="#888E91"/>
<path d="M5.97613 4.52265L5.71922 4.70686L5.20417 3.99428L5.09874 4.07063L5.61378 4.78442L5.35566 4.96983L4.14258 3.28898L4.39949 3.10356L4.93393 3.84401L5.04057 3.76766L4.50614 3.02842L4.76184 2.8418L5.97613 4.52265Z" fill="#888E91"/>
<path d="M9.18103 3.20074L8.84898 3.26497L8.47209 2.26397L8.67204 3.2989L8.38483 3.35465L7.99219 1.31992L8.32182 1.25569L8.69749 2.25185L8.49875 1.22176L8.78838 1.16602L9.18103 3.20074Z" fill="#888E91"/>
<path d="M15.6178 4.41859L15.3293 4.24287L15.722 3.24914L15.1754 4.14835L14.9258 3.99686L16.0031 2.22754L16.2903 2.40205L15.8977 3.39214L16.4455 2.49536L16.6963 2.64927L15.6178 4.41859Z" fill="#888E91"/>
<path d="M4.30447 5.2889L4.3687 5.35071C4.40142 5.38827 4.43293 5.42221 4.45717 5.45856C4.55048 5.5955 4.52261 5.75911 4.38203 5.90332C4.28993 5.99906 4.18207 6.04995 4.08391 6.04268C4.03302 6.04147 3.98454 6.0245 3.93849 5.99663C3.90092 5.97361 3.86457 5.94331 3.82579 5.91059L3.76156 5.84757L2.93628 5.05138L2.87205 4.98957C2.83812 4.95321 2.80661 4.91807 2.78116 4.8805C2.68906 4.74356 2.71935 4.58238 2.85993 4.43817C2.95203 4.34122 3.05868 4.29032 3.15562 4.29638C3.20652 4.29638 3.255 4.31456 3.30105 4.34243C3.33862 4.36546 3.37376 4.39576 3.41254 4.42848L3.47798 4.49149L3.71551 4.71932L3.49131 4.952L3.20289 4.67327C3.17865 4.64904 3.16532 4.63692 3.14957 4.62601C3.12048 4.60299 3.08655 4.60541 3.06352 4.62965C3.02474 4.66964 3.03444 4.6963 3.11079 4.76901L4.03907 5.66458C4.11542 5.73729 4.14087 5.74578 4.18086 5.70578C4.21843 5.66822 4.21116 5.64398 4.13118 5.56763L3.82336 5.26951L4.04756 5.03683L4.30447 5.28527V5.2889Z" fill="#888E91"/>
<path d="M6.19023 1.99111L6.86524 3.5314C6.90765 3.62835 6.92825 3.64531 6.97673 3.62471C7.02884 3.60168 7.03126 3.57745 6.98763 3.47807L6.31262 1.939L6.6059 1.81055L7.25182 3.28418L7.28818 3.36658C7.30878 3.41263 7.32211 3.45747 7.33059 3.5011C7.36331 3.66228 7.27848 3.80164 7.09064 3.88405C6.96824 3.93737 6.85069 3.94222 6.76223 3.8998C6.7186 3.87799 6.67982 3.84285 6.6471 3.80043C6.62165 3.76407 6.59741 3.7253 6.57681 3.67924L6.54046 3.59563L5.89453 2.122L6.19023 1.99233V1.99111Z" fill="#888E91"/>
<path d="M13.9026 2.73686L14.2128 2.04609L14.0286 2.78169L13.9026 2.73686ZM13.3039 3.31492L13.5996 3.42035L13.7935 2.98892L13.9632 3.04952L13.8469 3.51003L14.1462 3.61667L14.6103 1.58195L14.2032 1.43652L13.3027 3.31492H13.3039Z" fill="#888E91"/>
<path d="M17.5539 4.24901L17.7696 4.00543C17.7926 3.97998 17.8047 3.96544 17.8144 3.94968C17.8374 3.91939 17.8326 3.88667 17.8071 3.86485C17.7659 3.82728 17.7405 3.83819 17.6702 3.91696L16.8122 4.8804C16.7419 4.95917 16.7346 4.98583 16.7771 5.0234C16.8158 5.05854 16.8401 5.05006 16.9128 4.96886L17.183 4.66468L17.1358 4.62348L17.3248 4.41262L17.6072 4.66468L16.8885 5.47179L16.7601 5.35787L16.7977 5.28274C16.7177 5.30697 16.6486 5.28758 16.5735 5.21851C16.4886 5.14458 16.4341 5.03309 16.4377 4.93978C16.4353 4.8913 16.4523 4.8404 16.4777 4.79193C16.4995 4.75315 16.5286 4.71679 16.5589 4.6768L16.6195 4.60894L17.3818 3.75336L17.4412 3.68671C17.4763 3.65156 17.509 3.61884 17.5454 3.59218C17.6775 3.49645 17.8399 3.51826 17.9901 3.65035C18.0871 3.73761 18.144 3.84183 18.1404 3.93878C18.1404 3.98967 18.1259 4.03936 18.1004 4.08662C18.0641 4.14601 18.058 4.15812 17.9598 4.2684L17.7902 4.45867L17.5539 4.2478V4.24901Z" fill="#888E91"/>
<path d="M2.65448 6.73154C2.65448 6.85394 2.55511 6.95331 2.43271 6.95331C2.31031 6.95331 2.21094 6.85394 2.21094 6.73154C2.21094 6.60914 2.31031 6.50977 2.43271 6.50977C2.55511 6.50977 2.65448 6.60914 2.65448 6.73154Z" fill="#888E91"/>
<path d="M2.65448 16.9444C2.65448 17.0668 2.55511 17.1662 2.43271 17.1662C2.31031 17.1662 2.21094 17.0668 2.21094 16.9444C2.21094 16.822 2.31031 16.7227 2.43271 16.7227C2.55511 16.7227 2.65448 16.822 2.65448 16.9444Z" fill="#888E91"/>
<path d="M12.414 2.21723L12.1074 2.16512L12.151 1.9082L12.883 2.03787L12.8406 2.29479L12.414 2.21723Z" fill="#888E91"/>
<path d="M1.00324 15.2524L1.05293 15.3869L0.837216 15.4657C0.766928 15.3626 0.680885 15.3348 0.530614 15.3602L0.443359 15.1215L2.38719 14.4053L2.49747 14.7022L1.00445 15.2524H1.00324Z" fill="#888E91"/>
<path d="M0.407435 12.8872L0.888546 12.8726C1.00125 12.869 1.02306 12.8787 1.02549 12.9344C1.02549 12.972 1.00488 12.9938 0.968529 13.0023C0.950351 13.0023 0.930961 13.0059 0.893393 13.0071L0.412283 13.0217C0.346842 13.0241 0.325028 13.0217 0.309274 13.0132C0.29352 13.0011 0.280189 12.9805 0.280189 12.9587C0.278977 12.9053 0.303215 12.8932 0.408647 12.8896L0.407435 12.8872ZM1.43873 13.304L1.63748 13.298C1.79017 13.2943 1.79987 13.2931 1.86773 13.2762C1.91984 13.2628 1.96953 13.2386 2.00589 13.2034C2.07496 13.1392 2.11617 13.0289 2.11253 12.8993C2.10647 12.6969 2.0071 12.5636 1.84592 12.5369C1.80229 12.5284 1.75624 12.5236 1.70656 12.526L1.61567 12.5284L0.46924 12.5624L0.379562 12.5648C0.329876 12.566 0.283825 12.5745 0.240198 12.5854C0.188087 12.5987 0.142037 12.6218 0.105681 12.6545C0.0329686 12.7211 -0.00338737 12.8314 0.000248224 12.9647C0.00509569 13.1695 0.100833 13.3004 0.262011 13.3295C0.30685 13.338 0.354113 13.3428 0.4038 13.3416L0.493478 13.3392L1.01216 13.3234C1.21211 13.3174 1.31028 13.2156 1.30543 13.0265C1.303 12.9611 1.2921 12.9138 1.25938 12.8629L1.69686 12.8496C1.76594 12.8496 1.78411 12.8484 1.79987 12.8569C1.81805 12.869 1.82895 12.8872 1.82895 12.9114C1.83017 12.9635 1.80593 12.9805 1.7005 12.9841L1.43025 12.9914L1.43994 13.3052L1.43873 13.304Z" fill="#888E91"/>
<path d="M0.468521 10.8571L0.44792 10.9976L0.220089 10.9625C0.20797 10.8389 0.146165 10.7722 0.00195312 10.7225L0.0407328 10.4717L2.08879 10.7819L2.04152 11.0958L0.468521 10.8583V10.8571Z" fill="#888E91"/>
<path d="M2.06353 8.89999L1.60665 8.75093C1.50001 8.71579 1.48183 8.70004 1.4988 8.64671C1.51092 8.61157 1.53758 8.59703 1.57515 8.60309C1.59211 8.60915 1.6115 8.61157 1.64786 8.62369L2.10594 8.77275C2.16775 8.79214 2.18714 8.80183 2.19926 8.81637C2.21016 8.83334 2.21501 8.85758 2.20774 8.87818C2.19077 8.92908 2.16411 8.93271 2.06353 8.89999ZM1.1619 8.13531L1.04435 8.09774C0.898924 8.05048 0.890441 8.04684 0.820153 8.04078C0.766831 8.03593 0.712297 8.04078 0.666246 8.06259C0.578992 8.10016 0.503856 8.18984 0.463864 8.31345C0.402059 8.50614 0.450534 8.6661 0.592322 8.74487C0.631102 8.76669 0.672305 8.78729 0.719568 8.80304L0.805611 8.83092L1.89629 9.18599L1.98112 9.21387C2.02838 9.22962 2.07443 9.23689 2.11927 9.24174C2.1726 9.24659 2.22349 9.24053 2.26954 9.22235C2.36043 9.18478 2.43193 9.09268 2.47435 8.96543C2.53858 8.77153 2.49374 8.6152 2.35074 8.53401C2.31196 8.51098 2.26954 8.49038 2.22228 8.47584L2.13745 8.44797L1.64422 8.288C1.45517 8.2262 1.32671 8.288 1.26733 8.46857C1.24673 8.53159 1.24188 8.57885 1.25521 8.63823L0.838331 8.5025C0.77289 8.48069 0.754712 8.47463 0.743805 8.46009C0.730475 8.44312 0.726839 8.42252 0.734111 8.39828C0.751077 8.34859 0.77895 8.34132 0.879534 8.37283L1.06495 8.43342L1.1619 8.13409V8.13531Z" fill="#888E91"/>
<path d="M7.67109 14.8879C7.72199 14.8637 7.77289 14.8394 7.82258 14.8152C8.00315 14.8031 8.10979 14.7255 8.26612 14.6686C8.31096 14.6516 8.35822 14.6371 8.40427 14.6213H8.4273C8.37761 14.9824 8.1207 15.3412 8.2746 15.6805C8.30611 15.7277 8.33883 15.7762 8.37034 15.8259C8.42003 15.8441 8.46971 15.8623 8.52182 15.8804C8.57757 15.9071 8.61999 15.9628 8.67937 15.9847C8.71572 15.9822 8.71693 16.0065 8.74117 16.021C8.84539 16.0889 8.92538 16.0477 9.0296 15.9628L9.03323 15.9398C9.12655 15.9338 9.16775 15.9689 9.26712 15.9253C9.27682 15.8514 9.25137 15.8053 9.27197 15.7241C9.23683 15.7265 9.34832 15.6599 9.3774 15.6284C9.41982 15.6259 9.3774 15.5472 9.37013 15.5169C9.33862 15.5193 9.34468 15.5266 9.34953 15.4963L9.38104 15.4854C9.45375 15.3605 9.52767 15.2333 9.59917 15.1085C9.67916 15.0091 9.76156 14.9122 9.84276 14.814C9.86457 14.7643 9.86821 14.728 9.85609 14.6843C10.0003 14.6758 10.0451 14.3438 10.0318 14.2505C10.0839 14.2481 10.3263 13.9936 10.4039 13.9427C10.4802 13.9075 10.559 13.8736 10.6353 13.8372L10.645 13.8312C10.6826 13.8287 10.6717 13.773 10.6814 13.7403C10.6862 13.7039 10.6705 13.7197 10.6377 13.7209L10.6414 13.6991C10.6862 13.7015 10.7311 13.7063 10.7759 13.71C10.8753 13.6748 10.9734 13.6397 11.0716 13.6046C11.0752 13.5743 11.1237 13.5415 11.1092 13.5258C11.177 13.5197 11.2461 13.5149 11.314 13.51C11.44 13.4822 11.7939 13.3137 11.8896 13.2168C11.9041 13.2168 11.9211 13.2155 11.9357 13.2143C11.932 13.2446 11.926 13.2374 11.9563 13.2361C11.9611 13.201 12.0072 13.1986 12.0326 13.1865C12.0374 13.1574 12.029 13.1646 12.0593 13.1622L12.0556 13.1852C12.1077 13.1816 12.0823 13.6615 12.1611 13.7572H12.1841C12.172 13.7851 12.1611 13.8166 12.1489 13.8469C12.1441 13.8469 12.1489 13.9366 12.1295 13.9827H12.1538C12.1429 14.0578 12.378 13.9548 12.4143 13.9427L12.418 13.9196C12.418 13.9354 12.4168 13.9524 12.4168 13.9681C12.4022 14.0384 12.3562 14.0905 12.2992 14.1354C12.0326 14.3486 12.1538 14.6407 12.1853 14.8722C12.1901 14.9485 12.1938 15.0273 12.1974 15.1061C12.218 15.1533 12.2374 15.2006 12.258 15.2478C12.2507 15.2963 12.2435 15.3472 12.2362 15.3969C12.2277 15.512 12.2471 15.6126 12.2847 15.7059L12.281 15.7277C12.3053 15.7265 12.3562 15.5847 12.4471 15.5387L12.441 15.5544C12.4131 15.6138 12.3853 15.6732 12.3574 15.7314C12.315 15.8841 12.3368 16.1519 12.4434 16.2307C12.4277 16.3434 12.4059 16.4318 12.5258 16.4694C12.5295 16.4464 12.5319 16.4246 12.5355 16.4028C12.5428 16.347 12.5961 16.29 12.6228 16.2404C12.6482 16.1713 12.6761 16.1034 12.7028 16.0356C12.7524 16.0331 12.6652 15.9556 12.6482 15.9289C12.6155 15.9313 12.6422 15.8538 12.641 15.8174C12.6713 15.815 12.7028 15.8138 12.7343 15.8114C12.7549 15.6575 12.7197 15.5448 12.647 15.4393C12.6143 15.4417 12.6567 15.4236 12.6725 15.4151L12.6761 15.3921C12.71 15.3908 12.6834 15.3969 12.6967 15.4139L12.6943 15.4357C12.7246 15.4333 12.7209 15.4345 12.7294 15.4078C12.8009 15.2006 12.8785 14.9946 12.9682 14.7946C13.0057 14.7922 12.9912 14.774 12.99 14.7461C12.9997 14.671 13.0106 14.5971 13.0203 14.5244C13.036 14.3438 13.036 14.1329 13.1063 13.9608C13.0772 13.9621 13.0663 13.7682 13.0239 13.7209C13.0288 13.6857 13.0542 13.6736 13.0797 13.6506C13.0893 13.584 13.0978 13.5149 13.1075 13.4482C13.1148 13.3973 13.179 13.3428 13.219 13.3076C13.2287 13.2313 13.2154 13.1683 13.2263 13.0847C13.1875 13.0871 13.1802 13.0689 13.1633 13.0447C13.133 13.0459 13.139 13.0532 13.1427 13.0241C13.1887 13.0204 13.2311 12.955 13.2481 12.9198C13.2651 12.8544 13.2832 12.789 13.3002 12.7247C13.4384 12.4412 13.6104 12.3927 13.8674 12.2485C13.9049 12.2206 13.9425 12.1939 13.9801 12.1673C13.9861 12.1261 13.9292 12.1333 13.894 12.1297L13.8977 12.1055C13.9667 12.1006 14.3036 11.8061 14.357 11.7371C14.3751 11.691 14.3933 11.645 14.4115 11.6001C14.4672 11.5783 14.5278 11.605 14.5666 11.6183L14.5702 11.5965C14.6211 11.571 14.6708 11.5456 14.7205 11.5189C14.7254 11.485 14.7387 11.4959 14.7714 11.4935C14.7763 11.4571 14.7375 11.4608 14.7072 11.4535C14.7132 11.4135 14.7508 11.4159 14.7835 11.405L14.7872 11.382C14.7666 11.3832 14.7484 11.382 14.7435 11.3626C14.7617 11.2293 14.8393 11.2184 14.9459 11.2366C14.9483 11.2208 15.078 11.0257 15.0938 11.0063C15.1265 11.0039 15.1313 10.9397 15.1519 10.913C15.1459 10.9518 15.198 10.9178 15.2234 10.9082C15.2174 10.9518 15.2816 10.8609 15.3022 10.8367C15.2671 10.8391 15.2622 10.8148 15.2392 10.7967L15.2428 10.7736C15.2816 10.7639 15.3228 10.7542 15.3628 10.7446L15.3664 10.7227C15.5846 10.7082 15.7009 10.5531 15.9045 10.5094C15.9106 10.461 15.9469 10.4428 15.9869 10.4149C15.9906 10.3931 15.9942 10.3689 15.9966 10.3471C15.9796 10.3471 15.9651 10.3483 15.9494 10.3495C15.9445 10.3907 15.8754 10.421 15.8439 10.4464C15.8148 10.4476 15.7676 10.398 15.7361 10.387L15.7397 10.3628C15.827 10.3568 15.8427 10.2477 15.936 10.284L15.959 10.2816C15.9627 10.2562 15.9566 10.2525 15.9421 10.238C15.9506 10.1822 15.9336 10.2113 15.9287 10.1725C15.9336 10.1398 15.6888 10.244 15.6391 10.2574C15.644 10.221 15.6743 10.2768 15.6464 10.2598L15.6488 10.238C15.7215 10.2331 15.7615 10.1289 15.7979 10.0804C15.8027 10.0477 15.7736 10.0489 15.747 10.0429C15.6028 10.0102 15.095 10.215 14.9387 10.2719C14.8187 10.3143 14.6987 10.3568 14.5799 10.4016C14.5 10.4452 14.4188 10.4901 14.34 10.5349C14.0746 10.6549 13.7995 10.73 13.5402 10.8621L13.5438 10.8403C13.5171 10.8415 13.5171 10.8367 13.5002 10.8209C13.5123 10.7324 13.528 10.6658 13.4844 10.5991C13.4977 10.5616 13.5135 10.5228 13.5268 10.4852C13.5523 10.2901 13.5789 10.0974 13.6044 9.9023C13.5644 9.90473 13.6201 9.85989 13.6371 9.83323C13.6783 9.8308 13.6456 9.79445 13.6371 9.77021C13.5632 9.58479 13.6565 9.35696 13.642 9.14125C13.6347 9.01522 13.5777 8.94978 13.6407 8.80799C13.6068 8.81041 13.6153 8.79466 13.6092 8.77284C13.5523 8.59228 13.4747 8.65651 13.322 8.60561C13.3244 8.59106 13.3269 8.57531 13.3281 8.56077C13.3608 8.55834 13.402 8.52441 13.4275 8.50987C13.4408 8.41777 13.2808 8.35596 13.2214 8.32324C13.2178 8.34748 13.0675 8.37172 13.0312 8.38747C12.9415 8.42746 12.8446 8.46139 12.744 8.45534C12.6773 8.4517 12.6191 8.41656 12.5404 8.43473C12.3295 8.48563 11.8702 8.91948 11.6799 9.09156H11.7042C11.6981 9.12913 11.7575 9.1255 11.7902 9.12913C11.7878 9.14368 11.7866 9.15943 11.7842 9.17397C11.7539 9.1764 11.7624 9.16791 11.7575 9.197C11.6945 9.20184 11.543 9.26486 11.4909 9.3097C11.3867 9.40423 11.3479 9.55935 11.2631 9.66963C11.2146 9.73143 11.1152 9.7484 11.0825 9.8308C11.0825 9.85019 11.0825 9.86837 11.0825 9.88776L11.0801 9.90957C10.851 9.92412 10.416 10.9869 10.1942 11.1239C10.1906 11.1384 10.1894 11.1542 10.1869 11.1687H10.1639C10.153 11.319 10.0645 11.3796 10.0027 11.5008C9.96637 11.5759 9.95425 11.6341 9.90456 11.6995C9.94456 11.6971 9.91547 11.7201 9.8985 11.7431C9.93122 11.7419 9.87669 11.7977 9.867 11.8352C9.8367 11.9564 9.73369 12.0376 9.67794 12.1455C9.55555 12.3806 9.42345 12.583 9.35074 12.8471C9.21259 12.8556 9.26712 13.0144 9.32287 13.0507L9.31923 13.0725C9.16654 13.0822 9.14957 13.241 9.1423 13.3513H9.11927C9.12412 13.3186 9.10958 13.3319 9.08534 13.3392C8.8866 13.407 8.71693 13.4603 8.55091 13.6118C8.50849 13.6142 8.55091 13.6409 8.56788 13.6542L8.56545 13.6773C8.42003 13.687 8.34368 13.7027 8.20432 13.7912C8.08313 13.87 7.92922 14.0602 7.77532 14.0396L7.75108 14.042L7.74744 14.0639C7.70987 14.0663 7.72321 14.1038 7.71472 14.1329C7.70987 14.1705 7.62383 14.2238 7.59959 14.2602C7.56324 14.3159 7.50507 14.3511 7.46144 14.4044C7.38509 14.5038 7.31602 14.614 7.29542 14.7364C7.28087 14.8285 7.59111 14.9049 7.67715 14.8891L7.67109 14.8879ZM13.6056 10.8548L13.6032 10.8766C13.6347 10.8742 13.6274 10.8682 13.6238 10.8985L13.6032 10.8766C13.5802 10.8779 13.5886 10.8718 13.6056 10.8548ZM11.5042 11.3468C11.5042 11.3468 11.9744 10.7264 12.0278 10.6609C11.9756 10.673 12.0035 10.6209 12.0084 10.5785C12.0508 10.57 12.3756 10.0865 12.4883 9.98956L12.4919 9.96047C12.4919 9.96047 12.5804 10.2234 12.6313 10.2768C12.5586 10.4755 12.4846 10.6767 12.4119 10.8742C12.3792 11.0402 12.4095 11.2038 12.3598 11.3638C12.3089 11.5274 12.1089 11.7274 11.932 11.7783C11.8423 11.8061 11.772 11.8037 11.686 11.8461C11.5151 11.9516 11.3455 12.0582 11.177 12.1649C10.9468 12.0594 11.4751 11.5565 11.5042 11.3481V11.3468Z" fill="#006DB5"/>
<path d="M22.7378 10.2107C22.6081 10.2034 22.4918 10.2919 22.3888 10.3694L22.2894 10.4433L21.8604 10.6954L21.4508 10.9354C21.2145 11.0456 21.0157 11.122 20.823 11.1741L20.6946 11.2214C20.6618 11.2371 20.6315 11.2529 20.5734 11.2662L20.5649 11.2686L20.5625 11.2735L20.5394 11.2577L20.5176 11.2408C20.4522 11.2008 20.434 11.1002 20.434 10.9826C20.434 10.9087 20.4413 10.8287 20.4473 10.7536C20.4534 10.6772 20.4607 10.6021 20.4607 10.5367C20.4607 10.5051 20.457 10.4773 20.4534 10.4506C20.5358 10.4215 20.5479 10.241 20.5576 10.0774C20.5625 10.0071 20.5661 9.94042 20.5758 9.91376C20.5916 9.87377 20.6364 9.8362 20.6764 9.80348L20.6861 9.795L20.6897 9.77924C20.6897 9.77924 20.6861 9.67866 20.6849 9.66411C20.7527 9.58656 20.8497 9.26178 20.8509 9.25814C20.8557 9.23996 20.8582 9.223 20.8582 9.20482C20.8582 9.18422 20.8545 9.16483 20.8509 9.14544C20.8739 9.13332 20.8824 9.10787 20.8885 9.0909L20.8933 9.07636L20.8957 9.06303L20.9006 9.0606L20.9478 9.04L20.9357 9.02061C20.9357 9.02061 20.9781 8.92851 20.9866 8.90912L21.0097 8.89458L21.0145 8.87761L21.0084 8.86065C21.0375 8.84368 21.063 8.80733 21.086 8.77339L21.1163 8.7334L21.2157 8.63645C21.2799 8.57586 21.3405 8.5189 21.3926 8.44619L21.4435 8.31773L21.4677 8.25471L21.5005 8.2123C21.5417 8.16019 21.5889 8.10081 21.5889 8.02325L21.5865 7.99538C21.5695 7.87661 21.4653 7.83177 21.3805 7.79663L21.3623 7.78936L21.3647 7.76633H21.3381L21.3211 7.76512C21.2944 7.76512 21.2726 7.7627 21.2569 7.76027C21.2835 7.72876 21.2969 7.67908 21.3041 7.64272C21.3199 7.63909 21.3332 7.63182 21.3429 7.6197L21.3744 7.58576L21.3211 7.57728L21.3175 7.56516L21.309 7.53487H21.2908L21.2145 7.53002L21.1866 7.60637C21.1648 7.60031 21.149 7.58819 21.1333 7.55789L21.1272 7.54577L21.103 7.54335V7.54093V7.5385L21.1066 7.51911L21.069 7.50336L21.0812 7.48276L21.0472 7.47791V7.46943L21.0521 7.44398L21.0436 7.41732L21.0242 7.40883C21.0181 7.38459 21.0012 7.37005 20.989 7.36399L20.9842 7.36036L20.9903 7.33612L20.9624 7.32764C20.9369 7.32643 20.8982 7.31188 20.8582 7.29613C20.7733 7.26462 20.6776 7.22948 20.6085 7.27068C20.5758 7.29007 20.5576 7.32885 20.5455 7.37854C20.5346 7.37369 20.5225 7.37126 20.5104 7.36278L20.4898 7.34945L20.4849 7.32885L20.4486 7.31794H20.4122L20.4086 7.33976C20.3989 7.42337 20.3831 7.44155 20.3213 7.48276L20.2644 7.52032C20.2644 7.52032 20.2971 7.52396 20.3165 7.52638L20.3116 7.53487L20.2789 7.59667C20.1856 7.76876 20.0971 7.94205 20.0971 8.039C20.0971 8.04991 20.1008 8.05839 20.1032 8.06809C20.0753 8.06688 20.0074 8.06203 20.0074 8.06203L20.005 8.08505C19.9856 8.24744 19.9396 8.30682 19.8656 8.4062L19.8026 8.48982L19.7239 8.64009L19.6984 8.68856C19.6378 8.76612 19.5942 8.85822 19.553 8.95033C19.5106 9.04 19.4718 9.12483 19.4148 9.19876L19.2973 9.32479C19.2524 9.38417 19.2137 9.46537 19.1725 9.55262C19.124 9.65321 19.0743 9.75622 19.0186 9.81923L19.0101 9.82529L18.9313 9.88467C18.7992 10.0095 18.6223 10.1949 18.5617 10.39L18.5399 10.3949L18.5362 10.3973C18.3169 10.5379 18.1206 10.7681 17.9461 10.9705L17.8794 11.0469L17.7897 11.1583L17.7655 11.1886L17.6649 11.2601C17.6201 11.2868 17.574 11.3159 17.5316 11.3595L17.4237 11.4989L17.4092 11.5171C17.3825 11.5425 17.3341 11.5364 17.2832 11.5316C17.2359 11.5268 17.1838 11.5255 17.1426 11.551C17.1838 11.2311 17.2601 10.9729 17.3995 10.6724L17.4225 10.6578L17.4286 10.6385L17.4237 10.6154L17.4201 10.6045C17.4177 10.596 17.4177 10.5863 17.4177 10.5754C17.4177 10.4543 17.5183 10.1731 17.5776 10.0446L17.5861 10.0277L17.5704 10.018L17.5752 10.0095L17.5922 9.97799L17.6104 9.87619L17.631 9.75258C17.6588 9.60231 17.7206 9.32237 17.8212 9.11999L17.8515 9.12241L17.8491 9.09211V9.07636C17.8443 9.0497 17.8418 9.02304 17.8418 8.99638C17.8418 8.90185 17.8661 8.80733 17.9109 8.71159L17.9436 8.71401L17.9339 8.66554C17.8794 8.46437 17.6855 8.15171 17.3922 8.14928C17.0275 8.14686 16.6578 9.06666 16.59 9.39629C16.5706 9.39993 16.5245 9.40841 16.5245 9.40841L16.5076 9.41205L16.5051 9.42901C16.4967 9.50536 16.4676 9.56838 16.4373 9.63382L16.3949 9.7344L16.2737 10.0483L16.2058 10.2204L16.2325 10.2276C16.2325 10.2276 16.264 10.2361 16.2919 10.2434C16.2664 10.2422 16.1901 10.2385 16.1901 10.2385L16.1876 10.2616C16.1804 10.3209 16.1549 10.3803 16.1307 10.4361L16.0955 10.5258L16.0895 10.5597L16.0628 10.7221L16.0131 10.8154L15.9877 10.8663C15.9453 10.9778 15.9259 11.0868 15.9065 11.2008L15.8847 11.3207L15.8665 11.4092C15.8483 11.4965 15.8313 11.5837 15.8313 11.6661C15.8313 11.7485 15.8532 11.8346 15.9101 11.9121V11.917L15.8144 11.8915L15.8047 11.957L15.8229 11.9654C15.8229 11.9654 15.8459 11.9751 15.8629 11.9824C15.858 12.0212 15.8556 12.0588 15.8556 12.0963C15.8556 12.3023 15.921 12.4805 16.0555 12.6465L16.0967 12.695C16.138 12.7435 16.1695 12.7798 16.1925 12.8453L16.1973 12.861L16.4676 12.8768V12.8659C16.4967 12.8768 16.6312 12.9289 16.6312 12.9289H16.6409L16.7754 12.9143C16.8857 12.9083 17.0081 12.8998 17.0711 12.8501C17.0759 12.8501 17.0844 12.8501 17.0965 12.8513L17.0941 12.8683L17.0905 12.9143H17.1159C17.2359 12.9216 17.3122 12.855 17.3862 12.7895L17.4746 12.7168L17.4771 12.7059V12.6865C17.4771 12.6635 17.4698 12.6465 17.4637 12.6295C17.4807 12.6259 17.5025 12.6162 17.5304 12.6005L17.5752 12.5762L17.5728 12.5653L17.5619 12.529L17.5437 12.5193C17.5886 12.5156 17.6273 12.5047 17.6588 12.4926C17.7 12.4769 17.7231 12.4526 17.7449 12.4296L17.7946 12.3848L17.9085 12.3205C18.0103 12.2672 18.1254 12.2054 18.1896 12.1024C18.2066 12.0975 18.2369 12.0782 18.3011 12.003L18.306 11.997V11.9812C18.3242 11.9715 18.3351 11.957 18.3411 11.9448L18.352 11.9267C18.4938 11.8879 18.5859 11.7413 18.6744 11.6007C18.7326 11.5062 18.7931 11.4092 18.8634 11.351L18.8707 11.345V11.3377L18.8913 11.3389L18.8937 11.3147L18.8974 11.2844L18.8828 11.2698L18.8695 11.2638C18.8574 11.2577 18.8428 11.2504 18.8331 11.2395C18.9046 11.2201 18.9689 11.1729 18.9943 11.1111C19.0028 11.0917 19.0064 11.0711 19.0064 11.0505C19.0064 11.0287 18.9992 11.0069 18.9895 10.985L19.1034 10.9741C19.1131 10.9911 19.1216 11.0153 19.1288 11.0396C19.1494 11.1087 19.1785 11.1959 19.2524 11.2468C19.2403 11.2468 19.204 11.2432 19.204 11.2432L19.2015 11.2638H19.1822L19.1797 11.2856L19.1773 11.3147C19.1773 11.4347 19.2658 11.5449 19.3555 11.5898H19.3579L19.3555 11.6043L19.347 11.6079L19.3409 11.6285C19.3409 11.6552 19.3639 11.6891 19.393 11.7328C19.4233 11.7776 19.4621 11.8394 19.4621 11.8782V11.8879L19.4488 11.9L19.4463 11.9109C19.4463 11.9364 19.4863 11.98 19.7372 12.163L19.7651 12.1836L19.8196 12.2478C19.839 12.2745 19.8596 12.2999 19.8875 12.3217C19.8826 12.3339 19.8729 12.3472 19.8632 12.3593L19.8184 12.4175L19.8656 12.4199C19.8911 12.4223 19.9517 12.4635 19.999 12.4975C20.0486 12.5326 20.0959 12.5653 20.1335 12.5787L20.1626 12.5896L20.1783 12.4587C20.2074 12.4599 20.3298 12.4684 20.3298 12.4684L20.3674 12.4587L20.3795 12.4223C20.4013 12.4332 20.4219 12.4478 20.4425 12.4672L20.5455 12.5447V12.5011L20.5479 12.4975C20.5964 12.489 20.6388 12.4514 20.6606 12.4284C20.6752 12.4284 20.7285 12.4308 20.7285 12.4308C20.926 12.4417 20.9963 12.3411 21.0836 12.2151L21.1175 12.1666L21.1236 12.1121H21.0969L21.0775 12.1109L21.0666 12.0988C21.0521 12.0903 21.0363 12.0988 21.0206 12.1084L21 12.106V12.1036C21 12.0939 21.0072 12.066 21.0484 11.997L21.1345 12.026L21.1381 11.9957L21.143 11.986C21.1563 11.98 21.1975 11.997 21.229 12.0176L21.2387 12.0418C21.252 12.0551 21.2702 12.0539 21.2872 12.0527C21.2932 12.0709 21.3029 12.0854 21.3126 12.0975C21.3126 12.1097 21.315 12.1218 21.3223 12.1303C21.3332 12.1412 21.3478 12.14 21.3587 12.1387H21.3926L21.3987 12.1145L21.4023 12.0915L21.395 12.0745L21.3781 12.0672L21.3744 12.0515L21.3793 12.0466L21.3853 12.0321L21.4302 12.0345C21.4459 12.0357 21.4617 12.026 21.4738 12.0176L21.4774 12.0151L21.572 12.0018L21.5695 11.957L21.5756 11.963V11.9691V11.9764C21.5817 11.9667 21.6144 11.9388 21.7755 11.8576L21.7877 11.8503L21.8252 11.8527V11.8297L21.8325 11.7776L21.801 11.7812C21.801 11.7812 21.7065 11.7922 21.6931 11.7934L21.6968 11.7606V11.7534C21.6968 11.7376 21.6907 11.7279 21.6847 11.7219C21.6701 11.7061 21.6471 11.7037 21.6241 11.7037H21.6253V11.694C21.6253 11.694 21.6289 11.6685 21.6301 11.6504C21.7234 11.6407 21.8277 11.5474 21.8749 11.4831L21.9052 11.4855L21.9161 11.3947H21.8955L21.9004 11.3716L21.9101 11.368L21.9367 11.3571L22.0313 11.3135C22.1488 11.2626 22.2264 11.2238 22.2433 11.1911L22.356 10.9281L22.3536 10.9245C22.3839 10.8833 22.5633 10.739 22.6166 10.7269L22.6336 10.7233L22.636 10.7063V10.7003C22.636 10.6639 22.6057 10.6191 22.5778 10.5791C22.5778 10.5791 22.5681 10.5645 22.5608 10.5536C22.5669 10.5427 22.5766 10.5294 22.5899 10.5076C22.6251 10.4494 22.7099 10.3113 22.7353 10.2955L22.745 10.2894L22.7535 10.2119L22.7281 10.2095L22.7378 10.2107Z" fill="#006DB5"/>
<path d="M22.8523 5.29785H18.6738V9.62542H23.0014V5.29785H22.8523ZM22.7033 5.59597V9.32852H18.9719V5.59597H22.7033Z" fill="#E51F1F"/>
<path d="M7.61587 8.86194C7.47893 8.82801 7.29473 8.79286 7.17718 8.77832L7.16869 8.78438L7.11901 8.82074V8.82558C7.09719 8.82316 7.0778 8.82679 7.06084 8.83164V8.82801L7.04266 8.82437L6.95419 8.80983C6.93359 8.80619 6.91057 8.82437 6.88754 8.84255L6.87421 8.85224L6.84391 8.81104L6.83543 8.84618L6.83179 8.85709H6.82574C6.82331 8.84861 6.80998 8.84497 6.76029 8.89587C6.74818 8.88981 6.71909 8.87527 6.71909 8.87527L6.70818 8.88981C6.70212 8.89708 6.66698 8.91041 6.65365 8.91405L6.65123 8.91163C6.64638 8.91041 6.63911 8.9092 6.62941 8.92132L6.60881 8.91284H6.59185L6.58457 8.92011L6.53973 8.98434H6.53489V8.95646L6.48278 8.94798L6.47066 8.98676H6.46096L6.45733 8.99403L6.41491 8.97101L6.41007 8.99282C6.41007 8.99282 6.39916 9.01221 6.33614 9.03402L6.32766 9.03645L6.32523 9.04493C6.32281 9.05341 6.30948 9.0619 6.29857 9.07038L6.27676 9.08735V9.09098C6.2198 9.08856 6.16406 9.11158 6.11073 9.1334L6.0356 9.16248L6.03196 9.17096C6.01742 9.21823 5.9944 9.2873 5.96167 9.3176L5.94834 9.30185L5.95562 9.27882L5.93623 9.2764C5.90835 9.27155 5.88775 9.31154 5.872 9.35517V9.34426L5.85745 9.34305H5.85503L5.85745 9.33578L5.83928 9.3273C5.82231 9.32366 5.80898 9.33335 5.8005 9.34668L5.79807 9.32124L5.78474 9.3176C5.76535 9.31396 5.7193 9.33335 5.62841 9.37456L5.53146 9.41576L5.52783 9.42424C5.51692 9.4606 5.48784 9.48726 5.45754 9.51513C5.4333 9.53695 5.40785 9.55997 5.38967 9.59027C5.33029 9.58179 5.2903 9.59027 5.24425 9.64965L5.23334 9.65329C5.22607 9.66056 5.22365 9.67146 5.22365 9.6848L5.22607 9.70782L5.20789 9.70419L5.22001 9.73448L5.22244 9.74054C5.22244 9.74054 5.21274 9.74902 5.19456 9.75024H5.18487L5.19699 9.72479L5.1982 9.72236L5.16548 9.71024V9.71267C5.15942 9.72479 5.13761 9.74175 5.12064 9.75508L5.03702 9.83143L5.10246 9.81689L5.11458 9.81447C5.11216 9.82537 5.10852 9.85324 5.10731 9.86173C5.04066 9.8993 4.86857 10.1053 4.86736 10.1077L4.84555 10.1477C4.84555 10.1477 4.83706 10.1659 4.82979 10.1792C4.81646 10.1817 4.79586 10.1914 4.74739 10.2277L4.74496 10.2156L4.73163 10.2059C4.70133 10.2011 4.69528 10.2241 4.69164 10.2362L4.67225 10.3004C4.65407 10.3659 4.64922 10.3804 4.56924 10.4216L4.56439 10.3598L4.53652 10.4168C4.53652 10.4168 4.47956 10.5198 4.47229 10.5319L4.40806 10.4834C4.39231 10.4931 4.38746 10.5089 4.38383 10.5295L4.36686 10.527L4.36322 10.5392H4.35474L4.34868 10.5489L4.29657 10.6373L4.24688 10.7379L4.18993 10.8106C4.13418 10.8773 4.07722 10.9463 4.06147 11.0384C3.99603 11.0578 3.9318 11.2966 3.73548 11.6468L3.61793 11.8468L3.61066 11.894V11.8977C3.61066 11.9122 3.60944 11.9171 3.58642 11.9292L3.58036 11.9328L3.57793 11.9401C3.55733 12.0067 3.54158 12.0431 3.49674 12.0952L3.49068 12.1085L3.48341 12.1303L3.49068 12.1328C3.48341 12.1449 3.4519 12.2006 3.4519 12.2006L3.44948 12.2188C3.44948 12.237 3.45796 12.2527 3.46523 12.2661L3.47856 12.2939L3.49432 12.3H3.5028C3.47735 12.3582 3.4519 12.4163 3.4519 12.4612C3.4519 12.4745 3.45432 12.4866 3.45917 12.4975C3.46644 12.5133 3.4822 12.5218 3.49916 12.529C3.4822 12.569 3.45554 12.6369 3.45432 12.6866L3.46644 12.683L3.45796 12.712L3.47614 12.7205L3.51249 12.7266C3.51128 12.7399 3.50159 12.8041 3.50159 12.8041H3.50886L3.50038 12.826C3.50038 12.8417 3.50522 12.8635 3.51249 12.895L3.49916 12.8878L3.47008 13.0126L3.46038 13.0514V13.2016C3.45675 13.2356 3.43857 13.2695 3.42039 13.301L3.41797 13.3046V13.3228L3.42645 13.3349L3.4313 13.3507L3.43615 13.3677H3.4313L3.42282 13.398L3.46281 13.3895C3.49432 13.3822 3.54521 13.4585 3.57309 13.4997L3.59127 13.5264L3.5646 13.547L3.56703 13.5531V13.5555L3.57793 13.5737V13.5894L3.58521 13.5919L3.57793 13.6524V13.6585L3.61187 13.6609L3.6046 13.6658H3.59611L3.61671 13.7021L3.62277 13.7058V13.7142L3.63005 13.7349C3.67488 13.7821 3.69306 13.8124 3.69306 13.8585C3.69306 13.8936 3.68337 13.9348 3.66761 13.9954L3.66398 14.0087L3.65671 14.0172L3.64822 14.0293V14.0305C3.63489 14.0475 3.6046 14.0875 3.6046 14.0875L3.60217 14.0948L3.59975 14.1214L3.6155 14.1275C3.6458 14.1323 3.65913 14.1008 3.66882 14.0754L3.69064 14.0911L3.6967 14.1081L3.70397 14.1033C3.70397 14.1033 3.71851 14.0972 3.73305 14.0924L3.71851 14.1396L3.71609 14.1493L3.73063 14.1566C3.73063 14.1566 3.7379 14.1735 3.7379 14.1905C3.7379 14.2038 3.73548 14.2184 3.72578 14.2341V14.2475C3.72457 14.2705 3.74033 14.2972 3.76093 14.3323L3.77426 14.3541H3.76941L3.76335 14.3735L3.81667 14.3832L3.82273 14.3723L3.84333 14.3347L3.85788 14.3384C3.85788 14.3384 3.9015 14.3444 3.91605 14.3456L3.92089 14.3771H3.93544H4.02996L4.0336 14.365C4.0445 14.3299 4.0542 14.3214 4.07965 14.3056H4.10146C4.11722 14.3032 4.11964 14.3032 4.1257 14.3105L4.13055 14.3153H4.13297C4.13297 14.3323 4.11358 14.3747 4.10752 14.3905L4.09055 14.4305L4.11237 14.4341L4.13782 14.4389L4.14266 14.4268L4.15115 14.4293L4.15721 14.4183L4.19962 14.3505L4.20447 14.342V14.3396L4.21659 14.3456H4.21901V14.359L4.20326 14.4365L4.19114 14.5068L4.20932 14.5613L4.23234 14.6207L4.22507 14.6425L4.23598 14.6462L4.22871 14.6716L4.25173 14.6644L4.29415 14.6547C4.31475 14.6522 4.3608 14.6534 4.36928 14.6753L4.37292 14.685L4.41412 14.6922L4.42503 14.6789C4.43109 14.6607 4.46502 14.6656 4.47593 14.6668C4.47593 14.6668 4.49411 14.6728 4.50501 14.6765L4.50016 14.6934L4.51955 14.6971C4.53652 14.6995 4.54622 14.691 4.55228 14.6777C4.56197 14.6934 4.57772 14.7068 4.60075 14.7177L4.62014 14.7359L4.64317 14.7577C4.70133 14.7807 4.7595 14.7674 4.8104 14.7565L4.87221 14.7431L4.90008 14.7904L4.91099 14.7516C4.92068 14.7177 4.95825 14.7031 5.02733 14.7043C5.05399 14.7092 5.0758 14.6728 5.10489 14.6219L5.11337 14.6074C5.12306 14.605 5.15094 14.6001 5.16306 14.5977L5.16063 14.6062L5.18123 14.6086C5.17275 14.6292 5.15821 14.6644 5.15821 14.6644C5.14124 14.6995 5.12306 14.7371 5.11822 14.7855V14.8025L5.15942 14.8098L5.16427 14.7952C5.17396 14.7661 5.1982 14.7334 5.22123 14.7104H5.22486L5.23092 14.7128L5.25152 14.754L5.26122 14.7746L5.29272 14.7795L5.34605 14.6934L5.34847 14.685C5.36059 14.6825 5.40058 14.6753 5.40058 14.6753L5.45633 14.6656L5.56903 14.6716L5.62356 14.6522C5.65144 14.6389 5.66962 14.6304 5.68295 14.6401L5.70234 14.6547L5.71082 14.6256C5.72657 14.6207 5.74475 14.6098 5.76293 14.5977L5.75445 14.6135L5.81504 14.6244L5.81746 14.6159L5.83564 14.6231L5.86957 14.6389L5.87442 14.6183L5.8829 14.5904L5.86594 14.5844V14.5698V14.5686L5.87442 14.5735L5.90714 14.5941L5.91199 14.571C5.91805 14.5516 5.93744 14.5347 5.9641 14.5262C5.99561 14.5153 6.02833 14.5177 6.03923 14.5262L6.05862 14.5407L6.0659 14.5177C6.0768 14.4838 6.14345 14.4632 6.1786 14.4559L6.19314 14.4535L6.36886 14.4123L6.39795 14.4086L6.40279 14.3977L6.41128 14.3687H6.40885L6.41612 14.3602C6.444 14.3577 6.55791 14.3468 6.58821 14.3347L6.59669 14.3311L6.60639 14.302C6.62214 14.2996 6.64032 14.2959 6.65607 14.2935C6.68879 14.2996 6.74696 14.2535 6.76514 14.2135H6.76635C6.7809 14.2232 6.7918 14.2075 6.8124 14.1772L6.81968 14.1663V14.1711L7.14446 14.0027L7.16385 13.9893H7.18445L7.18687 13.9748C7.19657 13.9275 7.21838 13.8948 7.2511 13.8779C7.28261 13.8609 7.32018 13.8609 7.35653 13.8803L7.38441 13.8936L7.38198 13.8633C7.38077 13.8463 7.38683 13.7312 7.39531 13.7142C7.40985 13.6985 7.42682 13.6961 7.44863 13.6924C7.47166 13.6888 7.49711 13.6852 7.52013 13.6621L7.54195 13.6318L7.56134 13.604L7.61345 13.5822C7.64132 13.5737 7.67283 13.564 7.69464 13.5385C7.72009 13.5082 7.72979 13.4682 7.73827 13.4295L7.76251 13.3531C7.78796 13.3059 7.9867 13.1931 8.02306 13.2065L8.04366 13.2137V13.2028C8.08608 13.1786 8.23392 12.809 8.23635 12.8053L8.32602 12.8175L8.32845 12.8078V12.8053C8.41813 12.7908 8.48357 12.7193 8.5478 12.6478C8.60597 12.5824 8.64111 12.4382 8.71019 12.4248L8.72352 12.4212V12.4066L8.72473 12.3957C8.72473 12.3715 8.71746 12.3545 8.70413 12.3436C8.67747 12.3242 8.63869 12.34 8.60597 12.3521L8.58052 12.3618V12.3739C8.5175 12.3824 8.45691 12.4054 8.40964 12.4321V12.4285L8.38904 12.4297C8.36723 12.4321 8.34784 12.4478 8.33087 12.4624L8.30785 12.4806L8.24725 12.5048L8.24483 12.5C8.23029 12.4939 8.22059 12.5048 8.21211 12.5133L8.20605 12.5181C8.11637 12.5945 7.9043 12.7557 7.82795 12.7593H7.81341L7.81219 12.7726H7.79644L7.78917 12.7847C7.7819 12.7932 7.73221 12.8005 7.7007 12.7993H7.6898L7.68374 12.8126C7.66919 12.8429 7.45591 12.9726 7.42076 12.9665C7.3941 12.9665 7.38925 12.9774 7.38683 12.9871L7.34926 12.9762L7.33957 12.9944C7.33714 13.015 7.29594 13.0538 7.0572 13.1107V13.1071L7.03054 13.1023H7.016L7.00873 13.1168C7.00388 13.1253 6.9651 13.141 6.94813 13.1471L6.91057 13.1629V13.1677C6.89724 13.1677 6.88027 13.1786 6.84876 13.2004C6.8221 13.2174 6.78211 13.2428 6.76757 13.244H6.75545L6.75302 13.2537C6.74212 13.2537 6.72515 13.2586 6.69001 13.2695L6.61851 13.2901L6.61366 13.301C6.54337 13.2949 6.44279 13.3265 6.38098 13.3628V13.3592L6.35553 13.3495H6.34947L6.33008 13.3458L6.31918 13.3592L6.28645 13.3628H6.26585L6.24283 13.3301L6.22829 13.3567C6.22101 13.3677 6.16769 13.381 6.13982 13.3883C6.13982 13.3883 6.08892 13.4052 6.07559 13.4101L6.05741 13.4064L6.05135 13.3955C6.03681 13.3883 6.02469 13.4004 6.00773 13.421C5.99561 13.4149 5.98106 13.4076 5.98106 13.4076L5.96531 13.404L5.94956 13.4016L5.94471 13.4161C5.94229 13.4258 5.92168 13.4282 5.90714 13.4307L5.87927 13.4355V13.4428C5.8623 13.4392 5.82716 13.4307 5.82716 13.4307L5.70718 13.4573L5.64053 13.4525L5.55691 13.4464C5.40058 13.4125 5.21032 13.2586 5.17881 13.0732C5.17396 13.0453 5.17275 13.0186 5.17275 12.9896C5.17275 12.9447 5.1776 12.8987 5.18245 12.849V12.8405L5.18729 12.7799C5.1885 12.7387 5.18972 12.6999 5.20305 12.6539L5.25516 12.5254L5.28788 12.4539L5.32302 12.3364L5.37271 12.2394L5.37998 12.1667V12.1509L5.39331 12.1C5.39331 12.1 5.39695 12.0843 5.40179 12.0697V12.0831C5.40179 12.0964 5.40179 12.1158 5.39816 12.1449L5.39573 12.1618L5.43694 12.1691L5.44178 12.157L5.47087 12.0976L5.52419 12.0467L5.6272 11.9183L5.69385 11.8165C5.73506 11.7498 5.78111 11.6735 5.82595 11.6468L5.83079 11.6444L5.83928 11.648L5.872 11.6674L5.87684 11.6456C5.88048 11.6323 5.88169 11.6201 5.88169 11.6068C5.88169 11.5862 5.87806 11.5656 5.87442 11.545V11.5365C5.8829 11.5499 5.89623 11.5656 5.91926 11.5644C5.97379 11.5608 6.14588 11.4044 6.19435 11.3402L6.21374 11.3535L6.23798 11.379L6.25252 11.3572L6.28524 11.3148C6.30827 11.2917 6.33493 11.2614 6.34947 11.2214C6.36038 11.219 6.40279 11.2093 6.4234 11.2033C6.42946 11.2166 6.43915 11.2275 6.44763 11.2348L6.44157 11.2529L6.46702 11.2602L6.48762 11.2651L6.4949 11.2408H6.49368C6.5058 11.2336 6.51307 11.219 6.5155 11.2069L6.52156 11.1887L6.55912 11.1548L6.56276 11.1512L6.57851 11.1572H6.58336C6.59548 11.1608 6.64153 11.2105 6.65001 11.2299L6.6694 11.2723L6.68273 11.2275C6.68879 11.2081 6.6997 11.1948 6.71667 11.1887C6.74212 11.1778 6.77847 11.1839 6.79786 11.1948L6.80756 11.1996L6.81846 11.1899C6.83301 11.179 6.96146 11.1402 6.9857 11.1378L7.09113 11.1451C7.13355 11.1512 7.17718 11.1572 7.22444 11.1487C7.28382 11.1378 7.3432 11.1027 7.39895 11.0687L7.49226 11.0166L7.62193 10.9742L7.75402 10.9294C7.84007 10.8882 7.92853 10.8433 7.99519 10.7949L8.1394 10.67L8.19151 10.6373C8.22786 10.6167 8.26422 10.5961 8.29815 10.5586C8.33936 10.5125 8.35632 10.4519 8.37329 10.3937L8.40843 10.2907L8.45206 10.2192C8.48599 10.1259 8.50296 10.0338 8.50296 9.9405C8.50296 9.86779 8.49205 9.79265 8.47266 9.71509L8.44964 9.64117L8.38177 9.5527C8.32239 9.48241 8.26664 9.41697 8.26664 9.31881C8.26664 9.30427 8.26786 9.2873 8.27028 9.27155L8.27391 9.25095H8.15879L8.15515 9.26428L8.1503 9.25579C8.10547 9.2158 8.10425 9.19399 8.10062 9.14915L8.09456 9.08856L8.10668 9.04735L8.06305 9.04008L8.05578 9.05463L8.05214 9.06553L8.02306 9.06068L8.03881 9.09583H8.03518C8.00852 9.09825 7.9661 9.0728 7.96004 9.05947L7.95641 9.05099L7.92126 9.04493L7.91641 9.05947L7.91035 9.07038H7.90672L7.89097 9.06674V9.07159C7.87036 9.03887 7.85461 9.01463 7.84128 9.00494H7.83643L7.83037 8.99282C7.81704 8.98434 7.78068 9.01585 7.78068 9.01585C7.65829 8.92374 7.62678 8.87648 7.62678 8.87648L7.61587 8.86194Z" fill="#006DB5"/>
</g>
<defs>
<clipPath id="clip0_4393_55487">
<rect width="23" height="21.5882" fill="white" transform="translate(0 1)"/>
</clipPath>
</defs>
</svg>
