<svg width="23" height="23" viewBox="0 0 23 23" fill="none" xmlns="http://www.w3.org/2000/svg">
<g clip-path="url(#clip0_4393_55141)">
<path d="M21.2056 11.3653C20.8311 11.3606 20.3645 11.448 20.361 11.9194C20.3551 12.3564 20.7886 12.484 21.1926 12.4876C21.5316 12.4923 22.0242 12.4344 22.0301 11.9371C22.0349 11.4705 21.5813 11.3677 21.2068 11.3653H21.2056ZM21.195 12.1651C20.9871 12.1627 20.596 12.158 20.6008 11.9217C20.6031 11.6819 20.9941 11.6855 21.2009 11.6878C21.4041 11.6902 21.7915 11.6914 21.7892 11.9347C21.7868 12.1722 21.3993 12.1651 21.1961 12.1639L21.195 12.1651ZM2.59887 8.01869C2.74063 8.01869 2.85521 7.90411 2.85521 7.76235C2.85521 7.6206 2.74063 7.50601 2.59887 7.50601C2.45711 7.50601 2.34253 7.6206 2.34253 7.76235C2.34253 7.90411 2.45829 8.01869 2.59887 8.01869ZM4.56338 4.6697L3.90067 5.31587L4.06841 5.48716L5.60175 3.99045L5.43636 3.81916L4.77011 4.46769L4.63426 4.32948C4.66143 4.30231 5.11859 3.85696 5.11859 3.85696L4.95321 3.68449L3.99163 4.62245L3.81561 4.44171L4.75948 3.52265L4.59173 3.35136L3.44705 4.46888L3.95619 4.98983C3.95619 4.98983 4.40036 4.55747 4.42753 4.5303L4.5622 4.66852L4.56338 4.6697ZM4.90596 4.80909C4.70868 5.00282 4.58582 5.17411 4.53621 5.33359C4.48305 5.49543 4.49959 5.62419 4.58701 5.71397C4.67442 5.80257 4.802 5.82265 4.96739 5.77304C5.12568 5.72815 5.30524 5.60883 5.50015 5.41864C5.69271 5.232 5.81674 5.05362 5.86754 4.89415C5.91952 4.73231 5.9018 4.60354 5.81556 4.51376H5.81438C5.72696 4.42517 5.5982 4.40508 5.43754 4.45234C5.27689 4.50077 5.10324 4.61654 4.90596 4.81027V4.80909ZM5.59111 4.73349C5.62892 4.77247 5.62774 4.83981 5.58521 4.93195C5.54032 5.03118 5.45645 5.13986 5.34068 5.25444C5.22255 5.36903 5.11032 5.45054 5.00873 5.49307C4.91541 5.53205 4.84689 5.53205 4.81027 5.49307C4.79019 5.47298 4.78074 5.447 4.78074 5.4151C4.78074 5.37966 4.79255 5.3395 4.815 5.29106C4.85871 5.19183 4.94258 5.08315 5.06071 4.96857C5.17884 4.8528 5.29106 4.77365 5.38911 4.73231C5.4848 4.69214 5.55095 4.69214 5.58993 4.73231L5.59111 4.73349ZM8.36246 2.09209C8.35301 1.98932 8.32702 1.8641 8.28331 1.70935L8.17345 1.35259L6.64248 2.03893L6.74289 2.25865C6.74289 2.25865 7.93955 1.72352 7.97971 1.70462C7.99034 1.74242 8.05768 1.98695 8.05768 1.98695C8.08957 2.10508 8.10493 2.20668 8.10493 2.20668L6.72989 2.82096L6.82912 3.04304L7.64186 2.6792C7.65604 2.71109 7.76944 2.96626 7.78362 2.99815L7.19651 3.26158L7.29692 3.4813L8.52193 2.93318L8.71685 3.3679L8.9791 3.25095L8.68495 2.59651L8.04823 2.8812L7.90647 2.56343L8.78772 2.16888L8.68968 1.94797L8.366 2.09327L8.36246 2.09209ZM1.61012 15.0297L1.72707 15.4078L3.26749 14.9293L3.17653 14.634L2.02357 14.9908L2.99343 14.0422L2.8753 13.6606L1.33251 14.139L1.42583 14.4355L2.58588 14.0752L1.6113 15.0297H1.61012ZM3.11274 16.1602L2.88711 16.2796L3.04895 16.582L2.67802 16.7816C2.6414 16.7391 2.60005 16.6824 2.55752 16.6044C2.3945 16.2996 2.51618 16.0031 2.8056 15.8496C3.09738 15.6925 3.41988 15.7562 3.59825 16.0882C3.6585 16.2028 3.71048 16.3587 3.71993 16.4957L3.97036 16.3859C3.93965 16.2441 3.8924 16.1024 3.8038 15.9358C3.5451 15.4526 3.11392 15.3014 2.62604 15.5637C2.14525 15.8212 2.085 16.2654 2.33308 16.7249C2.41459 16.8773 2.53035 17.0179 2.65321 17.1466L3.41988 16.7367L3.11156 16.1614L3.11274 16.1602ZM20.993 12.7734C20.6185 12.7144 20.2357 12.7522 20.1637 13.1964C20.107 13.5555 20.3066 13.7622 20.6516 13.8177C20.9469 13.8638 21.1654 13.7303 21.2139 13.4303C21.2351 13.2956 21.2021 13.1893 21.1028 13.0959L21.1087 13.0924C21.3438 13.1397 21.5848 13.2743 21.5411 13.5507C21.5234 13.6582 21.482 13.7409 21.4324 13.8201L21.6852 13.9016C21.7407 13.7976 21.7762 13.6913 21.7951 13.5744C21.8778 13.0593 21.4265 12.8431 20.9941 12.7734H20.993ZM20.9859 13.3204C20.9622 13.4728 20.8087 13.5141 20.6527 13.4893C20.511 13.4669 20.3763 13.3806 20.4 13.233C20.4259 13.0759 20.5689 13.0333 20.7201 13.057C20.8796 13.0818 21.0107 13.1645 20.9859 13.3192V13.3204ZM1.68808 11.5721C2.32599 11.6358 2.5339 11.2177 2.58351 10.7251L2.62722 10.2856L1.02183 10.125L0.97812 10.5656C0.929687 11.057 1.05136 11.5095 1.68808 11.5732V11.5721ZM1.22383 10.653L1.24155 10.4734L2.34135 10.5833L2.32363 10.7629C2.29646 11.0322 2.07083 11.272 1.72116 11.2366C1.37031 11.2023 1.19666 10.9223 1.22383 10.653ZM1.88536 13.4976C2.37206 13.4492 2.68392 13.1326 2.63313 12.627C2.58115 12.1166 2.21967 11.8733 1.72707 11.9241C1.23683 11.9725 0.920236 12.2785 0.972214 12.7947C1.02301 13.3039 1.40103 13.5472 1.88536 13.4976ZM1.22383 12.7687C1.19076 12.4391 1.47072 12.2891 1.76251 12.2584C2.04484 12.23 2.34843 12.3328 2.37915 12.6518C2.41222 12.9707 2.13462 13.1326 1.85229 13.1609C1.56168 13.1893 1.25691 13.0971 1.22383 12.7687ZM16.3091 2.8115L16.4048 2.58115L16.1284 2.46775C16.1437 2.43349 16.3516 1.93498 16.3516 1.93498L16.0953 1.82984L15.5637 3.10211L15.8189 3.20842C15.8189 3.20842 16.0185 2.73236 16.0327 2.69692L16.3091 2.8115ZM18.1555 5.1812C18.1826 5.15403 18.6587 4.66615 18.6587 4.66615L18.4579 4.46769L17.9535 4.98511L17.7586 4.79255L18.263 4.2775L18.0633 4.07904L17.5565 4.59646L17.2045 4.25152L17.038 4.42399L18.5701 5.92424L18.739 5.75177L18.1555 5.18002V5.1812ZM4.09795 17.6333L3.89831 17.7928L4.11448 18.0586L3.78726 18.3244C3.74237 18.289 3.6904 18.2417 3.63487 18.1732C3.4187 17.905 3.48249 17.5908 3.73883 17.3853C3.99399 17.1773 4.32476 17.1797 4.56102 17.4727C4.64371 17.5731 4.72286 17.716 4.75593 17.8495L4.98156 17.6936C4.92604 17.5589 4.85398 17.429 4.73467 17.2837C4.39091 16.8572 3.93729 16.7887 3.50729 17.1372C3.08439 17.4809 3.10801 17.9275 3.4376 18.3338C3.5451 18.4685 3.68685 18.5843 3.82979 18.6871L4.5055 18.1413L4.09676 17.6345L4.09795 17.6333ZM14.8833 1.5546L15.5661 1.84047L15.6511 1.63374L14.9683 1.34787L14.8833 1.5546ZM19.1643 4.56338C19.1643 4.56338 18.8524 4.85516 18.4402 5.13395L18.6339 5.3265C19.2198 4.92486 19.553 4.60354 19.553 4.60354L18.3374 3.41397L18.1685 3.58998L19.1655 4.56574L19.1643 4.56338ZM20.3267 10.1793C20.3031 10.2951 20.2995 10.4073 20.3161 10.5242C20.3905 11.0417 20.8855 11.1137 21.3178 11.0523C21.6935 10.9991 22.0479 10.8491 21.9864 10.4049C21.9345 10.0435 21.6828 9.90524 21.3355 9.95603C21.0402 9.99738 20.8713 10.1899 20.9138 10.4923C20.9327 10.6282 20.9977 10.718 21.1182 10.7782L21.1135 10.7841C20.8748 10.8089 20.6067 10.7511 20.5665 10.4746C20.55 10.3659 20.5665 10.2762 20.589 10.1864L20.3255 10.1817L20.3267 10.1793ZM21.43 10.2679C21.5718 10.2478 21.7266 10.2903 21.7466 10.438C21.7691 10.5951 21.6439 10.679 21.4938 10.7003C21.3344 10.7227 21.1843 10.6837 21.1619 10.5278C21.1406 10.3742 21.2753 10.2903 21.43 10.2679ZM11.4882 2.39805V2.15116C11.1598 2.1925 10.829 2.18305 10.829 2.18305V1.26045H11.4067V1.01474H10.5526V2.43703C10.5526 2.43703 11.0771 2.44648 11.4882 2.39923V2.39805ZM20.3043 8.01869C20.4448 8.01869 20.5594 7.90411 20.5594 7.76235C20.5594 7.6206 20.4448 7.50601 20.3043 7.50601C20.1637 7.50601 20.0467 7.6206 20.0467 7.76235C20.0467 7.90411 20.1613 8.01869 20.3043 8.01869ZM14.4663 1.73179L15.7338 2.2622L15.82 2.05429L14.5537 1.52625L14.4663 1.73297V1.73179ZM11.8603 1.82393H12.0907V2.89183H12.3612L12.3635 0.772573H12.0907V1.56641H11.8603V0.770211H11.5862V2.78433H11.8603V1.82512V1.82393ZM15.2625 3.80616L15.5259 3.91602L15.7858 3.29111L14.315 2.67684L14.2241 2.88711L15.4349 3.39271L15.2613 3.80616H15.2625ZM14.7911 2.73236C14.9589 2.80324 15.1065 2.82804 15.2329 2.80442C15.357 2.77961 15.4408 2.71818 15.481 2.62013C15.5212 2.52445 15.507 2.42167 15.4373 2.31654C15.3676 2.21376 15.2506 2.12753 15.077 2.05665C14.9128 1.98695 14.7663 1.96333 14.6435 1.98459C14.5123 2.00586 14.4285 2.06492 14.3883 2.16415C14.3729 2.19841 14.3658 2.23385 14.3658 2.27047C14.3658 2.33544 14.3907 2.40395 14.4379 2.47365C14.5111 2.57761 14.6293 2.66502 14.7911 2.73236ZM14.6624 2.27992C14.6789 2.23857 14.7155 2.21495 14.7675 2.20904C14.8254 2.20077 14.901 2.21613 14.9955 2.25511C15.0876 2.29409 15.1526 2.3378 15.1869 2.38151C15.2176 2.42404 15.2235 2.4642 15.2093 2.50437C15.1916 2.54571 15.1561 2.57052 15.1018 2.57997C15.0475 2.58942 14.9707 2.57524 14.8774 2.53626C14.7852 2.49728 14.7214 2.45357 14.686 2.40632C14.6529 2.36143 14.6458 2.32008 14.6612 2.27992H14.6624ZM11.5012 0C5.15994 0 0 5.15876 0 11.5C0 17.8412 5.15994 23 11.5012 23C17.8424 23 23 17.8401 23 11.5C23 5.15994 17.8412 0 11.5012 0ZM11.5012 22.785C5.27807 22.785 0.214997 17.7219 0.214997 11.5C0.214997 5.27807 5.27807 0.213816 11.5012 0.213816C17.7243 0.213816 22.7862 5.27689 22.7862 11.5C22.7862 17.7231 17.7243 22.785 11.5012 22.785ZM17.3912 18.2606L18.4803 19.4514L18.719 19.2328L17.6286 18.0421L17.3912 18.2606ZM16.191 20.0964L16.1886 20.0916C16.3587 19.9735 16.3989 19.775 16.3115 19.6061C16.1059 19.208 15.7444 19.4077 15.4349 19.5659L15.1242 19.7266L15.8661 21.1607L16.152 21.0119L15.8448 20.4165L15.937 20.3692C16.0575 20.3054 16.1177 20.3279 16.2134 20.4129L16.6174 20.7721L16.9375 20.6079L16.4178 20.1649C16.3563 20.1164 16.2701 20.0621 16.1898 20.0964H16.191ZM15.8248 20.1412L15.7291 20.1909L15.5294 19.8034L15.6239 19.7538C15.7669 19.6805 15.9346 19.612 16.0244 19.7845C16.1177 19.9629 15.9642 20.0668 15.8236 20.1401L15.8248 20.1412ZM16.8797 19.2364C16.7769 19.0934 16.8643 18.9706 16.9529 18.9044C17.045 18.8383 17.1525 18.7922 17.26 18.7674L17.1277 18.5347C17.0096 18.5725 16.8927 18.6339 16.7804 18.7154C16.5501 18.8832 16.4024 19.1549 16.615 19.4455C16.9293 19.8778 17.4266 19.3592 17.6062 19.6073C17.6936 19.7242 17.5979 19.8719 17.4975 19.944C17.3947 20.0184 17.2683 20.0621 17.1443 20.0786L17.2908 20.3326C17.4431 20.2712 17.5211 20.2428 17.6629 20.1401C17.9251 19.9475 18.0716 19.6734 17.8637 19.3876C17.5459 18.9505 17.0427 19.462 16.8773 19.2364H16.8797ZM14.6848 21.3308L14.5383 20.902L15.0841 20.7189L15.0026 20.4779L14.4568 20.661L14.3304 20.2842L14.9246 20.0834L14.8443 19.8424L13.9418 20.146L14.458 21.6758L15.3652 21.3698L15.2837 21.1288L14.6848 21.332V21.3308ZM19.4206 15.6877L19.2411 15.9795L19.6132 16.6658L18.8359 16.6328L18.6363 16.9553L19.7774 16.9683L20.3196 17.3037L20.4897 17.0285L19.9475 16.693L19.4218 15.6877H19.4206ZM18.7981 17.1466L18.6055 16.9789L17.7857 17.9204L17.9759 18.0858L18.2807 17.7385L19.3061 18.6327L19.5187 18.3882L18.4921 17.4939L18.7969 17.1455L18.7981 17.1466ZM13.2412 21.5895H13.2365L12.6187 20.4082L12.2749 20.4661L13.0912 21.9675L13.4834 21.9002L13.7527 20.218L13.435 20.2712L13.2412 21.5895ZM11.5012 5.30406C8.08367 5.30406 5.30406 8.08367 5.30406 11.5C5.30406 14.9163 8.08367 17.6959 11.5012 17.6959C14.9187 17.6959 17.6959 14.9163 17.6959 11.5C17.6959 8.08367 14.9175 5.30406 11.5012 5.30406ZM11.5012 17.4361C8.22661 17.4361 5.56394 14.7734 5.56394 11.5C5.56394 8.22661 8.22661 5.56276 11.5012 5.56276C14.7758 5.56276 17.4361 8.22661 17.4361 11.5C17.4361 14.7734 14.7722 17.4361 11.5012 17.4361ZM18.5335 10.9023C18.2051 10.9023 17.9346 11.1704 17.9346 11.5012C17.9346 11.8319 18.2039 12.1001 18.5335 12.1001C18.8631 12.1001 19.1312 11.8331 19.1312 11.5012C19.1312 11.1692 18.8631 10.9023 18.5335 10.9023ZM11.5012 6.13806C8.54201 6.13806 6.13924 8.54319 6.13924 11.4988C6.13924 14.4544 8.54319 16.8596 11.5012 16.8596C14.4592 16.8596 16.8619 14.4544 16.8619 11.4988C16.8619 8.54319 14.4556 6.13806 11.5012 6.13806ZM11.5012 16.5973C8.68613 16.5973 6.40031 14.3103 6.40031 11.4988C6.40031 8.68731 8.68613 6.39795 11.5012 6.39795C14.3162 6.39795 16.5985 8.68495 16.5985 11.4988C16.5985 14.3127 14.3103 16.5973 11.5012 16.5973ZM11.5024 6.98151C9.00981 6.98151 6.98151 9.00863 6.98151 11.5C6.98151 13.9914 9.00863 16.0173 11.5024 16.0173C13.9961 16.0173 16.0185 13.9902 16.0185 11.5C16.0185 9.00981 13.9926 6.98151 11.5024 6.98151ZM11.5024 15.7586C9.15275 15.7586 7.24258 13.8484 7.24258 11.5C7.24258 9.15157 9.15275 7.2414 11.5024 7.2414C13.852 7.2414 15.7598 9.15157 15.7598 11.5C15.7598 13.8484 13.8496 15.7586 11.5024 15.7586ZM11.7563 20.4626L11.8237 22.075L12.1474 22.062L12.0788 20.4484L11.7563 20.4614V20.4626ZM19.6416 11.5C19.6416 7.01104 15.989 3.35845 11.5 3.35845C7.01104 3.35845 3.35845 7.01104 3.35845 11.5C3.35845 15.989 7.00868 19.6416 11.5 19.6416C15.9913 19.6416 19.6416 15.9878 19.6416 11.5ZM11.5 19.4195C7.13154 19.4195 3.57817 15.8661 3.57817 11.5C3.57817 7.1339 7.13154 3.57817 11.5 3.57817C15.8685 3.57817 19.4206 7.13154 19.4206 11.5C19.4206 15.8685 15.8685 19.4195 11.5 19.4195ZM6.10498 16.0492C5.99276 16.1614 5.93015 16.3126 5.93015 16.4721C5.93015 16.6316 5.99158 16.7828 6.10498 16.895C6.34006 17.1266 6.71926 17.1266 6.9508 16.895C7.06538 16.7816 7.12681 16.6316 7.12681 16.4709C7.12681 16.3115 7.0642 16.1614 6.9508 16.0492C6.72044 15.8165 6.34006 15.8165 6.10616 16.0492H6.10498ZM16.4733 7.12563C16.6339 7.12563 16.784 7.0642 16.8974 6.9508C17.1313 6.7169 17.1313 6.3377 16.8974 6.10498C16.6635 5.87227 16.2843 5.87227 16.0527 6.10498C15.9393 6.21839 15.8767 6.36841 15.8767 6.52789C15.8767 6.68737 15.9393 6.83857 16.0527 6.9508C16.165 7.0642 16.3138 7.12563 16.4745 7.12563H16.4733ZM10.8845 22.0609L11.2779 22.0951L11.4185 20.4874L11.1102 20.4602L11.0039 21.6616L10.4923 20.4047L10.0966 20.3704L9.95603 21.9782L10.2655 22.0065L10.3707 20.7957L10.8845 22.0609ZM7.3359 19.4277L6.483 19.7361L6.83148 19.136L6.55152 18.9741L5.7435 20.3716L6.02347 20.5334L6.39795 19.8849L6.40267 19.8873L6.52907 20.8264L6.89527 21.039L6.72399 19.9546L7.67966 19.6286L7.3359 19.4289V19.4277ZM11.5012 5.06425C11.8296 5.06425 12.0989 4.7961 12.0989 4.46769C12.0989 4.13929 11.8296 3.86995 11.5012 3.86995C11.1728 3.86995 10.9023 4.13811 10.9023 4.46769C10.9023 4.79728 11.1716 5.06425 11.5012 5.06425ZM9.21418 21.1253C9.14093 21.3911 9.00863 21.5411 8.77119 21.4761C8.53256 21.41 8.49594 21.2139 8.56682 20.9481L8.81726 20.0503L8.50421 19.964L8.23015 20.9575C8.11556 21.3757 8.30339 21.612 8.70267 21.7206C9.10195 21.8317 9.38665 21.7254 9.50123 21.3084L9.7753 20.3137L9.46343 20.2275L9.21536 21.1265L9.21418 21.1253ZM6.10498 6.9508C6.33888 7.18351 6.71926 7.18351 6.94962 6.9508C7.06302 6.83857 7.12563 6.68855 7.12563 6.52789C7.12563 6.36723 7.0642 6.21602 6.94962 6.1038C6.71808 5.87226 6.33888 5.87226 6.1038 6.1038C5.99158 6.21721 5.92897 6.36605 5.92897 6.52553C5.92897 6.685 5.9904 6.83621 6.1038 6.94962L6.10498 6.9508ZM16.0516 16.0504C15.8177 16.2831 15.8177 16.6611 16.0516 16.895C16.2843 17.1266 16.6635 17.1266 16.8962 16.895C17.0084 16.7828 17.0722 16.6316 17.0722 16.4721C17.0722 16.3126 17.0096 16.1626 16.8962 16.0504C16.6623 15.8165 16.2831 15.8165 16.0516 16.0504ZM6.01875 18.5701L5.4151 19.2813C5.23672 19.4903 5.05362 19.5719 4.86461 19.4112C4.6756 19.2505 4.7264 19.0568 4.90478 18.8465L5.50842 18.1366L5.26035 17.9251L4.59409 18.7119C4.31531 19.0414 4.385 19.3368 4.70159 19.6038C5.017 19.8719 5.31941 19.8944 5.5982 19.5659L6.26564 18.7804L6.01993 18.5701H6.01875ZM11.5012 17.9346C11.1704 17.9346 10.9023 18.2039 10.9023 18.5323C10.9023 18.8607 11.1716 19.1312 11.5012 19.1312C11.8308 19.1312 12.0989 18.8631 12.0989 18.5323C12.0989 18.2015 11.8296 17.9346 11.5012 17.9346ZM19.8991 14.4296L20.1176 14.9943L20.3681 14.9045L20.2381 14.5773L21.4253 14.9577L21.5234 14.6494L19.9877 14.1579L19.9003 14.4308L19.8991 14.4296ZM4.46769 10.9023C4.13811 10.9023 3.86995 11.1704 3.86995 11.5012C3.86995 11.8319 4.13929 12.1001 4.46769 12.1001C4.7961 12.1001 5.0678 11.8331 5.0678 11.5012C5.0678 11.1692 4.79728 10.9023 4.46769 10.9023ZM11.5012 7.82614C9.47524 7.82614 7.82496 9.47406 7.82496 11.5C7.82496 13.5259 9.47524 15.1727 11.5012 15.1727C13.5271 15.1727 15.175 13.5248 15.175 11.5C15.175 9.47524 13.5259 7.82614 11.5012 7.82614ZM11.637 8.09312C12.2844 8.11793 12.8845 8.32465 13.3913 8.66251H11.637V8.09312ZM11.637 9.53195H12.9495C12.979 9.53195 13.1904 9.60519 13.1904 9.85799H11.637V9.53195ZM11.637 10.1309H13.1928C13.1928 10.3967 12.9755 10.4569 12.9495 10.4569H11.637V10.1309ZM11.363 8.09312V8.66251H9.60991C10.1155 8.32465 10.7168 8.11911 11.363 8.09312ZM9.54376 12.8963V14.2902C8.66487 13.6724 8.08957 12.653 8.08957 11.5C8.08957 10.477 8.54319 9.55794 9.26025 8.93184H11.3642V9.2567H10.0033C10.0033 9.2567 9.51423 9.28505 9.51423 10.0045C9.51423 10.7239 10.0033 10.7286 10.0033 10.7286H11.3642V11.0546H10.1344C9.95722 11.0629 9.81782 11.122 9.70796 11.2354C9.54494 11.4067 9.54494 11.6276 9.54494 11.6512V12.1107C9.54494 12.1875 9.60991 12.2525 9.68906 12.2525C9.76821 12.2525 9.82845 12.1887 9.82845 12.1107V11.6358C9.82845 11.6205 9.832 11.5047 9.91469 11.422C9.97848 11.3559 10.0576 11.3287 10.1746 11.3275H11.3642V12.3009H10.1344C9.95722 12.3104 9.81782 12.3683 9.70796 12.4817C9.54494 12.653 9.54494 12.8739 9.54494 12.8975L9.54376 12.8963ZM9.80955 9.85681C9.80955 9.60401 10.0222 9.53077 10.0505 9.53077H11.363V9.85681H9.80955ZM11.363 10.1309V10.4569H10.0505C10.0246 10.4569 9.80837 10.3978 9.80837 10.1309H11.363ZM10.5691 14.7793C10.3081 14.7049 10.0588 14.6009 9.82727 14.4698V12.8798C9.82727 12.8644 9.83082 12.7486 9.91351 12.6659C9.9773 12.5998 10.0564 12.5726 10.1734 12.5714H10.5691V14.7805V14.7793ZM12.1544 14.8466C11.943 14.888 11.7244 14.9104 11.5012 14.9104C11.2779 14.9104 11.057 14.888 10.8456 14.8466V12.5714H12.1556V14.8466H12.1544ZM13.1727 14.471C12.9412 14.6021 12.6919 14.7061 12.4309 14.7805V12.5714H12.8266C12.9447 12.5726 13.0227 12.601 13.0865 12.6659C13.1692 12.7486 13.1727 12.8656 13.1727 12.8798V14.4698V14.471ZM13.4562 14.2914V12.8963C13.4562 12.8727 13.4562 12.6506 13.2932 12.4805C13.1834 12.3671 13.044 12.308 12.8668 12.2997H11.637V11.3263H12.8266C12.9447 11.3275 13.0227 11.3559 13.0865 11.4209C13.1692 11.5035 13.1727 11.6205 13.1727 11.6347V12.1096C13.1727 12.1863 13.2353 12.2513 13.3121 12.2513C13.3889 12.2513 13.4562 12.1875 13.4562 12.1096V11.65C13.4562 11.6264 13.4562 11.4043 13.2932 11.2342C13.1834 11.1208 13.044 11.0617 12.8668 11.0535H11.637V10.7274H12.9979C12.9979 10.7274 13.487 10.7215 13.487 10.0033C13.487 9.28505 12.9979 9.25552 12.9979 9.25552H11.637V8.93066H13.7421C14.458 9.55675 14.9116 10.4746 14.9116 11.4988C14.9116 12.6518 14.3363 13.6724 13.4574 14.2902L13.4562 14.2914Z" fill="#A39890"/>
</g>
<defs>
<clipPath id="clip0_4393_55141">
<rect width="23" height="23" fill="white"/>
</clipPath>
</defs>
</svg>
