<svg width="23" height="23" viewBox="0 0 23 23" fill="none" xmlns="http://www.w3.org/2000/svg">
<g clip-path="url(#clip0_4956_56301)">
<path d="M9.53562 14.5632C9.7534 14.5632 9.92995 14.3866 9.92995 14.1689V12.0587H10.4171L10.4184 14.1689C10.4184 14.3866 10.5949 14.5632 10.8127 14.5632C11.0305 14.5632 11.207 14.3866 11.207 14.1689V12.0587H11.7882L11.7895 14.1689C11.7895 14.3866 11.966 14.5632 12.1838 14.5632C12.4016 14.5632 12.5781 14.3866 12.5781 14.1689V12.0587H13.0678L13.0691 14.1689C13.0691 14.3866 13.2457 14.5632 13.4635 14.5632C13.6812 14.5632 13.8578 14.3866 13.8578 14.1689L13.8655 11.857C13.8655 11.5613 13.6046 11.3222 13.2824 11.3222H12.0781L11.6774 10.8029L11.6284 10.7391C11.5949 10.7101 11.553 10.6914 11.5053 10.6914C11.4577 10.6914 11.4158 10.7107 11.3823 10.7391L11.3333 10.8029L10.9325 11.3216H9.73021C9.40804 11.3216 9.14709 11.5606 9.14709 11.8564L9.14258 14.1682C9.14258 14.386 9.31912 14.5625 9.53691 14.5625L9.53562 14.5632Z" fill="#912642"/>
<path d="M9.53886 10.6074C9.75664 10.6074 9.93319 10.4309 9.93319 10.2131V8.27171H13.0775V10.2131C13.0775 10.4309 13.2541 10.6074 13.4719 10.6074C13.6896 10.6074 13.8662 10.4309 13.8662 10.2131V7.1248C13.8662 6.90702 13.6896 6.73047 13.4719 6.73047C13.2541 6.73047 13.0775 6.90702 13.0775 7.1248V7.58034H9.93319V7.1248C9.93319 6.90702 9.75664 6.73047 9.53886 6.73047C9.32108 6.73047 9.14453 6.90702 9.14453 7.1248V10.2131C9.14453 10.4309 9.32108 10.6074 9.53886 10.6074Z" fill="#912642"/>
<path d="M10.4113 7.44574H12.6014C12.7799 7.44574 12.9249 7.30141 12.9249 7.12228C12.9249 6.94316 12.7799 6.79883 12.6014 6.79883H10.4113C10.2329 6.79883 10.0879 6.9438 10.0879 7.12228C10.0879 7.30076 10.2329 7.44574 10.4113 7.44574Z" fill="#912642"/>
<path d="M12.3106 8.32715C12.1412 8.32715 11.9981 8.43475 11.9427 8.58424H11.0832C11.0271 8.43411 10.8841 8.32715 10.7146 8.32715C10.4969 8.32715 10.3203 8.5037 10.3203 8.72148V10.0817C10.3203 10.2994 10.4969 10.476 10.7146 10.476H12.3113C12.5291 10.476 12.7056 10.2994 12.7056 10.0817V8.72148C12.7056 8.5037 12.5291 8.32715 12.3113 8.32715H12.3106ZM11.109 9.82328V9.23114H11.917V9.82328H11.109Z" fill="#912642"/>
<path d="M10.3699 17.6317C10.7127 17.7702 11.0129 17.9925 11.2468 18.2715C11.281 18.3121 11.3138 18.3546 11.3448 18.3978C11.386 18.43 11.435 18.45 11.4885 18.45C11.5542 18.45 11.6128 18.4197 11.6592 18.3752C11.6611 18.3727 11.6631 18.3694 11.6657 18.3669C11.9086 18.0421 12.2365 17.7857 12.618 17.631C12.8776 17.526 13.1599 17.4667 13.4569 17.4667C13.9943 17.4667 14.4859 17.6568 14.8718 17.9719C14.8802 17.979 14.8886 17.9861 14.897 17.9931C14.9852 18.0614 15.1019 18.0711 15.1824 18.0086C15.2436 17.9609 15.27 17.883 15.2597 17.8031C15.2559 17.7837 15.2494 17.765 15.2449 17.7457C15.2056 17.5724 15.1463 17.4074 15.0729 17.2502C16.4743 17.1594 17.5845 15.68 17.5845 14.2554C17.5845 14.2225 17.5806 14.1903 17.5793 14.1574C18.2378 13.6678 18.6663 12.8862 18.6663 12.0028C18.6663 11.3901 18.4582 10.8263 18.1128 10.3746C18.2127 10.093 18.27 9.79147 18.27 9.47575C18.27 8.32433 17.5452 7.34559 16.5271 6.96286C16.2449 5.78116 15.1843 4.90165 13.9163 4.90165C13.7333 4.90165 13.5542 4.92033 13.3809 4.95513C12.8957 4.4751 12.2288 4.17871 11.4923 4.17871C10.7559 4.17871 10.089 4.4751 9.6038 4.95513C9.43047 4.92033 9.25199 4.90165 9.06836 4.90165C7.80032 4.90165 6.7404 5.78116 6.45754 6.96286C5.44014 7.34559 4.71462 8.32497 4.71462 9.47575C4.71462 9.79147 4.77197 10.093 4.87184 10.3746C4.52648 10.8269 4.31836 11.3901 4.31836 12.0028C4.31836 12.8862 4.74684 13.6684 5.40534 14.1574C5.40406 14.1903 5.40019 14.2225 5.40019 14.2554C5.40019 15.68 6.50973 17.1594 7.91179 17.2502C7.83833 17.4074 7.7797 17.573 7.73975 17.7457C7.73524 17.765 7.72944 17.7837 7.72558 17.8031C7.71527 17.8823 7.74104 17.9609 7.80225 18.0086C7.88279 18.0718 7.99942 18.0614 8.08769 17.9931C8.09607 17.9861 8.10444 17.979 8.11282 17.9719C8.49813 17.6568 8.9904 17.4667 9.52777 17.4667C9.8248 17.4667 10.1077 17.526 10.3673 17.631L10.3699 17.6317ZM17.0484 13.0382C16.8815 13.2373 16.6682 13.3933 16.4266 13.4977C16.4221 13.4996 16.4169 13.5015 16.4124 13.5041C16.3725 13.5247 16.3441 13.5653 16.3441 13.6136C16.3441 13.6278 16.348 13.6413 16.3519 13.6536L16.3551 13.6639C16.3925 13.8024 16.4131 13.9474 16.4131 14.0975C16.4131 14.2116 16.4015 14.3224 16.3802 14.43C16.2256 15.2013 15.5452 16.0995 14.7282 16.0995C14.4427 16.0995 14.174 16.0279 13.9388 15.9029C13.9182 15.892 13.8989 15.8797 13.8789 15.8681C13.5381 15.68 13.1463 15.5724 12.7294 15.5724C12.6392 15.5724 12.551 15.5782 12.4633 15.5879C12.3944 15.5956 12.328 15.6085 12.261 15.622L11.7307 14.8424L11.6657 14.7464C11.6212 14.7032 11.5658 14.6742 11.5026 14.6742C11.4395 14.6742 11.3834 14.7032 11.3396 14.7464L11.2745 14.8424L10.743 15.6239C10.6721 15.6091 10.6006 15.5956 10.5271 15.5879C10.4395 15.5782 10.3512 15.5724 10.261 15.5724C9.84413 15.5724 9.45238 15.68 9.11153 15.8681C9.09156 15.8797 9.07223 15.892 9.05161 15.9029C8.81578 16.0279 8.5471 16.0995 8.26166 16.0995C7.44529 16.0995 6.76424 15.2019 6.6096 14.43C6.58769 14.3224 6.57609 14.2116 6.57609 14.0975C6.57609 13.9474 6.59735 13.8024 6.63473 13.6639L6.63795 13.6536C6.64246 13.6407 6.64632 13.6278 6.64632 13.6136C6.64632 13.5653 6.61797 13.5241 6.57738 13.5041C6.57223 13.5022 6.56772 13.5002 6.56256 13.4977C6.32158 13.3926 6.10766 13.2373 5.94078 13.0382C5.69594 12.7457 5.54839 12.3688 5.54839 11.9577C5.54839 11.7051 5.60573 11.4667 5.70496 11.2515C5.81449 11.0151 5.9788 10.8108 6.17918 10.6491C6.18627 10.6426 6.194 10.6368 6.20174 10.631C6.22171 10.6091 6.2346 10.5808 6.2346 10.5486C6.2346 10.535 6.23073 10.5221 6.22686 10.5099C6.21462 10.4925 6.20238 10.4745 6.19078 10.4558C6.05934 10.2496 5.96913 10.0151 5.9382 9.76054C5.93047 9.69289 5.92467 9.62523 5.92467 9.55629C5.92467 8.97188 6.22171 8.45771 6.67339 8.15551C6.8815 8.01634 7.12377 7.92678 7.38408 7.89198L7.39503 7.8907C7.45625 7.88618 7.50393 7.8385 7.50844 7.77729C7.50844 7.77278 7.50779 7.76763 7.50779 7.76312V7.75732C7.50908 7.48734 7.57416 7.23283 7.68821 7.00732C7.95882 6.47059 8.5065 6.09881 9.14439 6.08013C9.1605 6.08013 9.17661 6.07755 9.19272 6.07755C9.4498 6.07755 9.69207 6.13812 9.90985 6.24121C9.91243 6.2425 9.91437 6.24314 9.9163 6.24443C9.93047 6.25023 9.94529 6.25345 9.96205 6.25345C9.99619 6.25345 10.0271 6.23928 10.0497 6.21673C10.0587 6.20191 10.0677 6.18709 10.0774 6.17227C10.2146 5.95771 10.3963 5.77472 10.6135 5.64134C10.8699 5.48283 11.1715 5.39005 11.4956 5.39005C11.8196 5.39005 12.1206 5.48283 12.3776 5.64134C12.5948 5.77536 12.7765 5.95771 12.9137 6.17227C12.9234 6.18709 12.9324 6.20126 12.9414 6.21673C12.964 6.23928 12.9949 6.25345 13.0291 6.25345C13.0452 6.25345 13.0606 6.24959 13.0748 6.24443C13.0767 6.24314 13.0793 6.2425 13.0812 6.24121C13.299 6.13812 13.5413 6.07755 13.7984 6.07755C13.8145 6.07755 13.8306 6.07948 13.8467 6.08013C14.4846 6.09817 15.0329 6.47059 15.3029 7.00732C15.4169 7.23283 15.482 7.48734 15.4833 7.75732V7.76312C15.4833 7.76763 15.4833 7.77214 15.4833 7.77729C15.4878 7.8385 15.5355 7.88618 15.5967 7.8907L15.6077 7.89198C15.868 7.92678 16.1102 8.0157 16.3184 8.15551C16.77 8.45771 17.0671 8.97253 17.0671 9.55629C17.0671 9.62588 17.0619 9.69353 17.0535 9.76054C17.0226 10.0151 16.9324 10.2496 16.801 10.4558C16.7894 10.4745 16.7771 10.4919 16.7649 10.5099C16.7604 10.5221 16.7571 10.535 16.7571 10.5486C16.7571 10.5808 16.77 10.6091 16.79 10.631C16.7971 10.6368 16.8048 10.6433 16.8119 10.6491C17.0123 10.8108 17.1766 11.0151 17.2861 11.2515C17.3854 11.4667 17.4427 11.7051 17.4427 11.9577C17.4427 12.3688 17.2952 12.7457 17.0503 13.0382H17.0484Z" fill="#912642"/>
<path d="M3.62134 11.4892C3.62134 7.14191 7.14582 3.61678 11.4931 3.61678C15.8404 3.61678 19.3649 7.14127 19.3649 11.4892C19.3649 15.8371 15.8404 19.3616 11.4931 19.3616C7.14582 19.3616 3.62134 15.8371 3.62134 11.4892ZM11.4938 19.5884C15.9667 19.5884 19.593 15.9621 19.593 11.4899C19.593 7.01756 15.9667 3.39062 11.4938 3.39062C7.02082 3.39062 3.39453 7.01691 3.39453 11.4899C3.39453 15.9628 7.02082 19.5884 11.4938 19.5884Z" fill="#912642"/>
<path d="M0.243557 11.5C0.243557 5.2835 5.2835 0.243557 11.5 0.243557C17.7165 0.243557 22.7564 5.2835 22.7564 11.5C22.7564 17.7165 17.7165 22.7564 11.5 22.7564C5.2835 22.7564 0.243557 17.7165 0.243557 11.5ZM11.5 23C17.8512 23 23 17.8512 23 11.5C23 5.14884 17.8512 0 11.5 0C5.14884 0 0 5.14884 0 11.5C0 17.8512 5.14884 23 11.5 23Z" fill="#912642"/>
<path d="M3.22121 11.496C3.22121 6.9238 6.92804 3.21697 11.5002 3.21697C16.0724 3.21697 19.7792 6.9238 19.7792 11.496C19.7792 16.0681 16.0724 19.775 11.5002 19.775C6.92804 19.775 3.22121 16.0681 3.22121 11.496ZM11.4996 19.8491C16.1136 19.8491 19.8546 16.1087 19.8546 11.494C19.8546 6.87934 16.1136 3.13965 11.4996 3.13965C6.88551 3.13965 3.14453 6.88063 3.14453 11.4947C3.14453 16.1087 6.88487 19.8497 11.4989 19.8497L11.4996 19.8491Z" fill="#912642"/>
<path d="M0.493959 11.4955C0.493959 5.41756 5.42179 0.489721 11.4998 0.489721C17.5777 0.489721 22.5062 5.41756 22.5062 11.4962C22.5062 17.5748 17.5784 22.5026 11.4998 22.5026C5.42115 22.5026 0.493959 17.5741 0.493959 11.4955ZM11.4991 22.5786C17.6209 22.5786 22.5842 17.616 22.5842 11.4936C22.5842 5.37116 17.6209 0.40918 11.4991 0.40918C5.37734 0.40918 0.414062 5.37245 0.414062 11.4942C0.414062 17.616 5.37734 22.5793 11.4985 22.5793L11.4991 22.5786Z" fill="#912642"/>
<path d="M20.9027 9.48604C21.0573 9.48604 21.1823 9.36104 21.1823 9.2064C21.1823 9.05176 21.0573 8.92676 20.9027 8.92676C20.748 8.92676 20.623 9.05176 20.623 9.2064C20.623 9.36104 20.748 9.48604 20.9027 9.48604Z" fill="#912642"/>
<path d="M2.13901 9.48604C2.29365 9.48604 2.41865 9.36104 2.41865 9.2064C2.41865 9.05176 2.29365 8.92676 2.13901 8.92676C1.98437 8.92676 1.85938 9.05176 1.85938 9.2064C1.85938 9.36104 1.98437 9.48604 2.13901 9.48604Z" fill="#912642"/>
<path d="M2.38213 11.2748C2.50584 11.2793 2.70172 11.2973 2.74489 11.2168H2.75327L2.73845 11.6124C2.72492 11.9803 2.38342 12.1975 1.84798 12.1788C1.31834 12.1595 0.955585 11.903 0.969116 11.5415L0.983291 11.1543H0.991023C1.0793 11.2387 1.20881 11.2335 1.36796 11.2393L2.38213 11.2754V11.2748ZM1.18754 11.3966C1.17272 11.4346 1.16564 11.4732 1.16435 11.5138C1.15533 11.7542 1.35765 11.9765 1.82285 11.9932C2.29386 12.01 2.53613 11.8605 2.54579 11.5912C2.54772 11.5428 2.5387 11.4939 2.52131 11.4449L1.18754 11.3972V11.3966Z" fill="#912642"/>
<path d="M2.10251 13.6968C1.5587 13.7728 1.12635 13.5576 1.0819 13.2393C1.03808 12.9229 1.37958 12.6027 1.92661 12.5267C2.43306 12.4558 2.89375 12.6607 2.92726 12.9983C2.97623 13.334 2.58254 13.6298 2.10251 13.6968ZM1.97558 12.7058C1.60251 12.758 1.23976 12.97 1.27519 13.2206C1.3087 13.4635 1.62635 13.5776 2.02391 13.5222C2.41373 13.468 2.76875 13.267 2.73396 13.0144C2.69981 12.767 2.37893 12.6497 1.97623 12.7058H1.97558Z" fill="#912642"/>
<path d="M1.75695 14.4201C1.61391 14.4678 1.51146 14.5 1.45927 14.6076L1.45153 14.6102L1.36133 14.3389L1.36906 14.3363C1.47537 14.3911 1.57718 14.3569 1.72022 14.3093L2.73955 13.9697C2.88259 13.922 2.98504 13.8879 3.03465 13.7829L3.04238 13.7803L3.11648 14.0039H3.11391C3.08555 14.0213 3.0746 14.0316 3.05785 14.049L3.01403 14.0876L2.02048 15.0412L2.98891 14.7191C3.13195 14.6714 3.2344 14.6392 3.28401 14.5322L3.29174 14.5296L3.38195 14.7996L3.37421 14.8022C3.27112 14.7481 3.16867 14.7822 3.02563 14.8299L1.59264 15.3073C1.61777 15.1785 1.68607 15.1024 1.80914 14.9865L2.74535 14.0908L1.75695 14.4201Z" fill="#912642"/>
<path d="M3.59552 15.9435L3.59359 15.939C3.67606 15.825 3.65609 15.698 3.61292 15.6098C3.50274 15.3836 3.17155 15.3308 2.78173 15.5208C2.39191 15.7109 2.18766 16.0402 2.29913 16.2696C2.33135 16.3366 2.38032 16.3991 2.44346 16.4487L2.79204 16.2786C2.90351 16.2245 3.02142 16.1652 3.03302 16.0788L3.04011 16.0756L3.14836 16.2979L3.14127 16.3011C3.10841 16.3082 3.06975 16.3269 3.03367 16.3449L2.47697 16.6162C2.44088 16.6336 2.40093 16.651 2.3713 16.6761C2.27851 16.5775 2.18702 16.4822 2.12967 16.3649C1.94862 15.9938 2.18057 15.6091 2.66704 15.372C3.18702 15.1188 3.63289 15.209 3.80364 15.5601C3.84101 15.6368 3.86356 15.7193 3.87387 15.8082L3.59552 15.9435Z" fill="#912642"/>
<path d="M3.80336 16.4158C3.90452 16.3449 4.07269 16.2418 4.05851 16.151L4.06496 16.1465L4.29176 16.4706C4.50246 16.7721 4.36006 17.1516 3.92127 17.4577C3.48635 17.7612 3.0424 17.7741 2.83557 17.4777L2.61328 17.16L2.61972 17.1555C2.74086 17.169 2.84137 17.0872 2.97153 16.9964L3.80336 16.4158ZM2.92256 17.2315C2.93351 17.2708 2.95155 17.3056 2.97475 17.3391C3.11264 17.5363 3.40774 17.5924 3.78918 17.3256C4.17514 17.0563 4.27887 16.7908 4.12488 16.5698C4.09717 16.5305 4.06045 16.4964 4.01728 16.468L2.9232 17.2322L2.92256 17.2315Z" fill="#912642"/>
<path d="M4.1405 18.7927C3.97812 18.8475 3.84024 18.7953 3.76292 18.7129C3.69011 18.6349 3.65403 18.5138 3.70042 18.3707C3.75583 18.2019 3.88921 18.0808 4.03096 17.948L4.55544 17.4564C4.64372 17.3733 4.79513 17.247 4.77581 17.1523L4.7816 17.1465L4.99166 17.3701L4.98586 17.3759C4.89372 17.352 4.75648 17.4931 4.6682 17.5763L4.14436 18.0679C3.88341 18.3127 3.82349 18.4931 3.93689 18.6143C3.99874 18.68 4.10699 18.7051 4.23586 18.6574C4.31898 18.6278 4.3673 18.5808 4.43753 18.5144L5.02838 17.9596C5.11666 17.8765 5.26678 17.7496 5.24874 17.6555L5.25454 17.6497L5.46459 17.8733L5.46008 17.8797C5.36601 17.8546 5.22941 17.9964 5.13921 18.0808L4.39887 18.7754C4.3106 18.8585 4.16047 18.986 4.1798 19.0808L4.174 19.0866L4.01163 18.9132L4.14114 18.7921L4.1405 18.7927Z" fill="#912642"/>
<path d="M5.50395 18.4102C5.57998 18.3161 5.71142 18.1692 5.67985 18.0777L5.685 18.0713L5.92598 18.2659L5.92083 18.2723C5.82611 18.2581 5.7082 18.4192 5.63217 18.5133L4.99364 19.3026C4.91567 19.3986 4.78487 19.5455 4.81645 19.637L4.81129 19.6435L4.57031 19.4482L4.57547 19.4418C4.67147 19.454 4.78938 19.2929 4.86542 19.1989L5.50395 18.4096V18.4102ZM5.80936 18.6641C5.93049 18.599 6.11091 18.5301 6.0774 18.3993L6.08255 18.3928L6.30871 18.5752L6.30678 18.5771L5.51877 18.9611L5.32353 19.7208C5.29325 19.838 5.29325 19.9353 5.31516 20.0391L5.31 20.0455L5.19209 19.9502C5.13024 19.9005 5.10511 19.8142 5.12315 19.7453L5.3506 18.8941L5.80936 18.6628V18.6641Z" fill="#912642"/>
<path d="M6.73818 21.002C6.68277 20.7778 6.66151 20.7887 6.73303 20.5155L6.99076 19.5374C7.02878 19.3912 7.08226 19.223 7.04875 19.1057L7.05262 19.0986L7.26525 19.2004C7.23367 19.2513 7.21241 19.3332 7.19888 19.3834L6.87478 20.616L7.48754 19.7752C7.58612 19.6405 7.69115 19.4962 7.64347 19.3899L7.64669 19.3828L7.85223 19.4814C7.81422 19.5381 7.78715 19.6205 7.75623 19.7372L7.45468 20.8854L8.04553 20.0761C8.13831 19.9504 8.28071 19.7765 8.19824 19.6566L8.20146 19.6495L8.42568 19.7571L7.31744 21.2797C7.25687 21.0626 7.24076 21.0696 7.31228 20.7964L7.55262 19.8847L6.73754 21.002H6.73818Z" fill="#912642"/>
<path d="M9.50168 20.9631C9.35219 21.4914 8.98106 21.8007 8.67178 21.7137C8.36379 21.6268 8.20851 21.186 8.35864 20.6551C8.49781 20.1628 8.87088 19.8233 9.19369 19.9283C9.52101 20.0179 9.63376 20.4972 9.50168 20.9631ZM8.54227 20.6815C8.43982 21.0443 8.48815 21.4605 8.73235 21.5295C8.96882 21.5958 9.20078 21.351 9.30967 20.965C9.41663 20.5868 9.37539 20.1809 9.1299 20.1119C8.88892 20.0443 8.65309 20.2911 8.54227 20.6815Z" fill="#912642"/>
<path d="M10.9065 20.4495C10.9251 20.3947 10.9419 20.3425 10.9477 20.2864V20.2839L11.2254 20.3122V20.3206C11.1842 20.3354 11.1648 20.4114 11.1584 20.4733L11.1281 21.7987C11.1249 21.9256 11.1255 21.9984 11.1816 22.0803V22.0886L10.871 22.0564V22.048C10.9309 22.0242 10.949 21.9449 10.9586 21.8541L11.0005 20.5538L10.4818 22.0506C10.4123 21.9404 10.3974 21.8657 10.3742 21.7117L10.1945 20.4726L9.98377 21.6144C9.95413 21.7761 9.93029 21.8928 10.0005 21.9572V21.9656L9.73828 21.9385V21.9301C9.81689 21.838 9.84009 21.7078 9.86779 21.5648L10.0753 20.4527C10.0894 20.3786 10.1184 20.2729 10.0514 20.1988V20.1904L10.333 20.2194V20.222C10.3278 20.2645 10.3369 20.3064 10.3427 20.3451L10.5224 21.5571L10.9065 20.4495Z" fill="#912642"/>
<path d="M11.9109 21.8381L12.117 21.8607C12.2246 21.8723 12.3329 21.8104 12.4083 21.6886H12.4128L12.3561 22.0436L11.6841 22.0746V22.0668C11.7633 22.0146 11.7446 21.8162 11.7395 21.6951L11.6931 20.6809C11.6873 20.5572 11.6879 20.3607 11.6035 20.313V20.3052L12.119 20.2814C12.1467 20.2801 12.1744 20.2846 12.1944 20.2646H12.1995L12.2137 20.5791H12.2085C12.1538 20.4844 12.0874 20.4773 12.0133 20.4805C11.9566 20.4831 11.9006 20.4882 11.8496 20.5069L11.8728 21.0069L12.0649 20.9979C12.0906 20.9966 12.1164 20.996 12.1351 20.9786H12.1396L12.1525 21.2634H12.1473C12.1183 21.1867 12.05 21.1925 12.0004 21.1951L11.8812 21.2002L11.9102 21.8375L11.9109 21.8381Z" fill="#912642"/>
<path d="M13.0318 21.6143C13.0588 21.7632 13.0762 21.8689 13.1755 21.9359L13.1767 21.9436L12.8958 21.9945L12.8945 21.9868C12.9641 21.8895 12.9448 21.7832 12.9177 21.635L12.7264 20.5776C12.6993 20.4294 12.6806 20.3231 12.5833 20.2587L12.582 20.2509L12.814 20.2091V20.2116C12.8269 20.2426 12.8353 20.2542 12.8507 20.2735L12.8823 20.3225L13.6851 21.4417L13.5034 20.4371C13.477 20.289 13.459 20.1826 13.3604 20.1182L13.3584 20.1105L13.6381 20.0596L13.6394 20.0673C13.5711 20.162 13.5904 20.2677 13.6175 20.4159L13.8862 21.903C13.7618 21.8598 13.6967 21.7812 13.5994 21.6427L12.8462 20.5886L13.0318 21.6143Z" fill="#912642"/>
<path d="M13.9434 19.962L14.0149 19.9414L14.165 20.4614L14.0935 20.482L13.9434 19.962Z" fill="#912642"/>
<path d="M15.0618 19.9147C14.9645 19.8367 14.8485 19.8148 14.7641 19.8471C14.6784 19.8799 14.5908 19.9772 14.6572 20.1505C14.7893 20.4946 15.306 20.291 15.4845 20.7556C15.5876 21.0242 15.5148 21.3406 15.2796 21.4308C15.1875 21.4663 15.0869 21.4785 14.9806 21.4585L14.8163 21.1615C14.9549 21.2556 15.1089 21.2884 15.2268 21.2433C15.3125 21.2105 15.4098 21.0751 15.3421 20.8992C15.192 20.5068 14.6997 20.7768 14.4955 20.244C14.3737 19.9276 14.5225 19.7324 14.7062 19.6615C14.7815 19.6325 14.8653 19.6203 14.9523 19.6306L15.0612 19.9147H15.0618Z" fill="#912642"/>
<path d="M17.3522 20.1188C17.376 20.2889 17.2994 20.4145 17.204 20.4751C17.1144 20.5325 16.9888 20.5453 16.8561 20.4738C16.7001 20.3881 16.6054 20.2348 16.501 20.0711L16.1144 19.4654C16.0494 19.363 15.9534 19.1916 15.8561 19.1929L15.8516 19.1858L16.1099 19.0209L16.1144 19.0273C16.0739 19.1143 16.1879 19.2741 16.253 19.3765L16.6396 19.9822C16.8322 20.2837 16.9985 20.3759 17.1383 20.2863C17.215 20.2374 17.2588 20.1362 17.2356 20.0002C17.2221 19.9133 17.1847 19.8572 17.1325 19.776L16.6969 19.093C16.6318 18.9906 16.5339 18.8198 16.4385 18.8205L16.434 18.8134L16.6931 18.6484L16.6989 18.6542C16.657 18.7419 16.771 18.9023 16.8374 19.006L17.3838 19.8611C17.4489 19.9629 17.5462 20.1336 17.6434 20.133L17.648 20.1401L17.4476 20.2676L17.3522 20.1182V20.1188Z" fill="#912642"/>
<path d="M17.9978 19.4282C18.0971 19.5422 18.166 19.6241 18.2852 19.6311L18.2904 19.6376L18.0745 19.8244L18.0693 19.8186C18.079 19.6994 18.0088 19.6183 17.9096 19.5049L17.2053 18.6943C17.1067 18.5802 17.0358 18.4991 16.9192 18.4933L16.9141 18.4875L17.0919 18.3328L17.0938 18.3347C17.1202 18.3547 17.1338 18.3612 17.1563 18.3695L17.2085 18.3953L18.4701 18.9469L17.8013 18.1769C17.7027 18.0628 17.6331 17.9804 17.5152 17.9759L17.5101 17.9694L17.7246 17.7832L17.7298 17.789C17.7195 17.905 17.7904 17.9862 17.8889 18.1002L18.8793 19.24C18.7504 19.2665 18.6544 19.2323 18.5004 19.1627L17.3148 18.6415L17.9978 19.4282Z" fill="#912642"/>
<path d="M18.2375 17.7777C18.1466 17.694 18.0094 17.5522 17.916 17.578L17.9102 17.5722L18.1183 17.3467L18.1241 17.3525C18.1067 17.4466 18.26 17.5741 18.3489 17.6566L19.0951 18.3447C19.184 18.4266 19.3219 18.567 19.414 18.5426L19.4198 18.5484L19.2117 18.7739L19.2059 18.7687C19.2252 18.6766 19.0719 18.5484 18.983 18.4665L18.2368 17.7784L18.2375 17.7777Z" fill="#912642"/>
<path d="M19.1032 16.894C18.9763 16.7446 18.8332 16.568 18.7192 16.6073L18.7127 16.6028L18.8571 16.4102L20.0813 17.8638C19.9144 17.8799 19.8751 17.8966 19.6766 17.8064L18.6496 17.3399C18.5214 17.2819 18.3822 17.2072 18.2662 17.2091L18.2598 17.204L18.4015 17.0158L18.4266 17.0364C18.4737 17.0719 18.598 17.1267 18.6528 17.1518L19.743 17.6505L19.1025 16.894H19.1032Z" fill="#912642"/>
<path d="M20.4523 16.7569L20.5824 16.5952C20.6494 16.5108 20.6559 16.3858 20.5934 16.2569L20.5959 16.253L20.8653 16.4921L20.5296 17.0758L20.5225 17.072C20.5212 16.9766 20.344 16.8858 20.239 16.8252L19.3595 16.3194C19.2519 16.2575 19.0863 16.1512 19.0012 16.197L18.9941 16.1931L19.2519 15.7446C19.2654 15.7208 19.2841 15.7002 19.2783 15.6725L19.2809 15.668L19.5541 15.8252L19.5515 15.8297C19.4426 15.8245 19.4001 15.8767 19.3633 15.9412C19.335 15.9901 19.3092 16.0404 19.2976 16.0932L19.7319 16.3432L19.8279 16.1763C19.8408 16.1538 19.8537 16.1312 19.8492 16.1068L19.8517 16.1022L20.0992 16.2446L20.0966 16.2492C20.016 16.2324 19.9845 16.293 19.9593 16.3361L19.9001 16.4399L20.4529 16.7582L20.4523 16.7569Z" fill="#912642"/>
<path d="M19.6143 14.9829C19.7 14.7844 19.9197 14.7503 20.1446 14.8469C20.3624 14.9403 20.4842 15.1285 20.4784 15.2702L21.0183 15.249C21.1736 15.2419 21.3424 15.2039 21.468 15.1575L21.4094 15.2941C21.3753 15.3727 21.3224 15.4081 21.2116 15.4133L20.7599 15.4339L20.3521 15.4204C20.3733 15.2889 20.3418 15.1117 20.1092 15.0112C19.9313 14.9345 19.7876 14.9822 19.7522 15.0847C19.74 15.1195 19.7335 15.1555 19.7284 15.1942L20.8366 15.6704C20.9506 15.7193 21.1272 15.8057 21.2045 15.749L21.2122 15.7522L21.0905 16.0357L21.0834 16.0325C21.0711 15.9378 20.8836 15.8695 20.7728 15.8218L19.8398 15.421C19.7258 15.372 19.5499 15.2844 19.4706 15.3398L19.4629 15.3366L19.615 14.9835L19.6143 14.9829Z" fill="#912642"/>
<path d="M20.3542 13.8389C20.2331 13.8686 20.1455 13.9472 20.1197 14.0335C20.0933 14.1218 20.1171 14.25 20.295 14.3029C20.6487 14.4085 20.8014 13.8744 21.2789 14.0168C21.5546 14.0992 21.7615 14.3492 21.6893 14.5909C21.6609 14.6856 21.61 14.7726 21.5295 14.8447L21.1938 14.7938C21.3523 14.7416 21.4728 14.6392 21.5089 14.5187C21.5353 14.4304 21.487 14.2713 21.3066 14.2172C20.9039 14.0973 20.8182 14.6514 20.2711 14.4884C19.9464 14.3918 19.8819 14.1547 19.938 13.9659C19.9612 13.8886 20.0024 13.8151 20.063 13.752L20.3542 13.8389Z" fill="#912642"/>
<path d="M20.5227 13.3708C20.4015 13.347 20.2108 13.2974 20.1445 13.3676L20.1367 13.3663L20.1966 13.0654L20.2044 13.0667C20.2385 13.1556 20.4363 13.1853 20.5549 13.2091L21.5497 13.4069C21.6683 13.4308 21.859 13.4784 21.9254 13.4095L21.9331 13.4114L21.8732 13.7123L21.8655 13.7104C21.8339 13.6221 21.6361 13.5925 21.5175 13.5687L20.5227 13.3702V13.3708Z" fill="#912642"/>
<path d="M21.7061 12.4556C21.8588 12.4646 21.9638 12.4717 22.0521 12.3911H22.0598L22.0418 12.7107H22.0334C21.987 12.6269 21.7905 12.625 21.6694 12.6186L20.4709 12.5503L20.4625 12.692C20.4587 12.7616 20.4845 12.8357 20.5592 12.8905V12.895L20.2422 12.8202V12.8151C20.257 12.7964 20.2583 12.7758 20.2647 12.7552L20.2667 12.7146L20.3008 12.1128C20.3021 12.0857 20.3008 12.0593 20.286 12.0374V12.0322L20.603 12.1018V12.1063C20.5076 12.1218 20.4903 12.1856 20.487 12.2391L20.4787 12.384L21.7042 12.4536L21.7061 12.4556Z" fill="#912642"/>
<path d="M21.7193 11.2906C21.8804 11.2784 21.9609 11.2726 22.0543 11.183H22.0621L22.0859 11.4968H22.0775C22.0047 11.4233 21.8308 11.4478 21.7045 11.4575L21.3069 11.4871L20.6104 11.808C20.4957 11.8602 20.4094 11.8989 20.3456 11.982L20.3346 11.8357C20.3308 11.7842 20.3462 11.7346 20.401 11.7094L21.0827 11.3995L20.5679 11.2371C20.4989 11.2152 20.3668 11.1875 20.3011 11.2829H20.2927L20.2715 11.002L21.2947 11.3235L21.7193 11.2919V11.2906Z" fill="#912642"/>
<path d="M3.34689 7.28219C3.19032 7.19456 3.13362 6.99675 3.22125 6.84018C3.30888 6.6836 3.50669 6.6269 3.66326 6.71453C3.81983 6.80216 3.87653 6.99997 3.7889 7.15654C3.70127 7.31376 3.50346 7.36982 3.34689 7.28219ZM3.33465 6.07213L3.29534 6.14301L3.08658 6.02639C2.97833 5.96582 2.84174 6.00512 2.78117 6.11337L2.31596 6.95036L2.15939 6.86337L2.78246 5.74417L2.50668 5.59082L1.71094 7.0193L2.22318 7.30409C2.33143 7.36466 2.46803 7.32536 2.52859 7.21711L2.98993 6.38786L3.11815 6.45938L2.50089 7.56827L2.7773 7.72226L2.96674 7.3827C3.0215 7.45938 3.09431 7.52574 3.18194 7.57471C3.50089 7.75255 3.90359 7.63786 4.08143 7.31891C4.25926 6.99997 4.14457 6.59726 3.82563 6.41943C3.73736 6.37046 3.64328 6.34404 3.54921 6.3376L3.61171 6.22549C3.65424 6.14881 3.62653 6.05281 3.5505 6.01028C3.47447 5.96775 3.37782 5.99546 3.33529 6.07149L3.33465 6.07213Z" fill="#912642"/>
<path d="M4.60015 4.33286L4.37657 4.0777L4.72322 3.77422L4.5151 3.53711L3.90234 4.07448L4.35466 4.59123C4.45776 4.70915 4.63752 4.72074 4.75479 4.61765L5.4191 4.03518L5.21098 3.79806L4.60015 4.3335V4.33286Z" fill="#912642"/>
<path d="M4.9488 2.99268C4.87405 3.05776 4.86697 3.17116 4.93204 3.24526L4.97521 3.29487L4.7207 3.51781L4.92882 3.75492L5.18333 3.53198L5.60472 4.0133L5.87405 3.77747L5.20137 3.00943C5.1363 2.93469 5.02289 2.9276 4.9488 2.99268Z" fill="#912642"/>
<path d="M11.3639 1.76332C11.2891 1.70855 11.2434 1.62608 11.2273 1.51976V1.20146H11.668V0.885742H10.4637V1.20146H10.8684V1.51268H10.8671C10.8671 1.51268 10.8671 1.66023 10.7601 1.75688C10.6822 1.82711 10.5675 1.85481 10.4199 1.83871V2.15507C10.4425 2.16216 10.7672 2.25172 11.0456 1.94889C11.0456 1.94889 11.2614 2.23755 11.7118 2.15056V1.83871C11.6841 1.84257 11.4972 1.86255 11.3632 1.76332H11.3639Z" fill="#912642"/>
<path d="M12.3738 0.98218H12.12V0.950608C12.12 0.851381 12.0394 0.771484 11.9408 0.771484C11.8423 0.771484 11.7617 0.852026 11.7617 0.950608V2.90228H12.12V1.29726H12.3738V0.98218Z" fill="#912642"/>
<path d="M15.8712 1.71423C15.7797 1.67557 15.6747 1.71874 15.6367 1.81023L15.6238 1.84052L15.4717 1.77673L15.484 1.74773C15.5226 1.65624 15.4794 1.55121 15.3879 1.5132C15.2965 1.47518 15.1914 1.51771 15.1534 1.6092L14.8087 2.43008L14.2758 2.2065L14.5245 1.61436L14.9253 1.78317L15.0477 1.49258L14.319 1.18652L13.9389 2.08987C13.8764 2.23871 13.9466 2.41075 14.0954 2.47325L14.6863 2.72132L14.397 3.40946L14.7275 3.54799L15.348 2.07119L15.5001 2.13498L14.8796 3.61114L15.2101 3.74967L15.9666 1.95005C16.0052 1.85856 15.962 1.75353 15.8706 1.71552L15.8712 1.71423Z" fill="#912642"/>
<path d="M19.0442 4.14506L18.8773 3.99686L18.8992 3.97238C18.9649 3.89828 18.9585 3.78488 18.8844 3.71915C18.8103 3.65343 18.6969 3.65988 18.6312 3.73397L17.9121 4.54261L18.1795 4.78101L18.6679 4.23204L18.8348 4.38024L19.0442 4.14441V4.14506Z" fill="#912642"/>
<path d="M6.0441 3.96921C5.97451 3.88996 5.85402 3.88222 5.77477 3.95181L4.65234 4.9357L4.86046 5.17282L5.8566 4.29975L6.20904 4.70181L6.47837 4.46599L6.0441 3.96985V3.96921Z" fill="#912642"/>
<path d="M17.9546 4.66114C18.057 4.75264 18.0661 4.90921 17.9752 5.01166L17.6021 5.43112L17.3347 5.19271L17.6634 4.82351L16.6582 3.92918L16.8676 3.69336L17.9546 4.6605V4.66114Z" fill="#912642"/>
<path d="M8.20914 1.27667C8.11635 1.31082 8.06867 1.41392 8.10282 1.5067L8.13762 1.60206L7.92048 1.68196C7.74909 1.59819 7.54483 1.58209 7.35089 1.65296C6.9746 1.79149 6.7813 2.20902 6.91983 2.58595C7.05836 2.96224 7.47589 3.15554 7.85282 3.01701C8.05965 2.94098 8.21043 2.78054 8.28195 2.58917L8.47396 2.5183L8.7755 3.33853L9.11184 3.21482L8.43788 1.38299C8.40373 1.2902 8.30063 1.24252 8.20785 1.27667H8.20914ZM7.99329 2.35979C7.98362 2.50992 7.88762 2.64781 7.73749 2.70322C7.53388 2.77796 7.30901 2.67358 7.23362 2.47062C7.15888 2.26701 7.26326 2.04214 7.46623 1.96675C7.60604 1.9152 7.75617 1.94871 7.86056 2.0402L8.24586 1.89845L8.36507 2.22319L7.99264 2.36044L7.99329 2.35979Z" fill="#912642"/>
<path d="M18.3143 3.39729L17.9496 3.80708C17.8536 3.91533 17.688 3.925 17.5798 3.82899C17.4715 3.73299 17.4618 3.56739 17.5579 3.45915C17.6539 3.3509 17.8194 3.34123 17.9277 3.43724L18.0031 3.50489C18.0417 3.53969 18.1017 3.53582 18.1358 3.49716L18.2776 3.33737C18.3433 3.26327 18.3368 3.14987 18.2627 3.08415C18.1886 3.01842 18.0752 3.02487 18.0095 3.09897L17.9722 3.14085L17.5746 2.78711L17.3652 3.02293L17.4528 3.1009C17.4013 3.13183 17.3536 3.17049 17.3117 3.21817C17.0888 3.46881 17.1113 3.85219 17.362 4.07512C17.6126 4.29806 17.996 4.27551 18.2189 4.02487L18.5727 3.62732L18.3136 3.39729H18.3143Z" fill="#912642"/>
<path d="M19.8319 7.76309L19.8197 7.74183L20.9627 7.08912C21.0768 7.02404 21.1161 6.87907 21.051 6.76502L20.3744 5.58203L20.1006 5.7386L20.7166 6.81592L19.6412 7.43061L19.5259 7.22829L20.1779 6.85523C20.2636 6.80626 20.2939 6.69672 20.2443 6.61103C20.1953 6.52533 20.0858 6.49505 20.0001 6.54466L19.348 6.91773L19.2849 6.80755L19.9369 6.43448C20.0226 6.38551 20.0529 6.27597 20.0033 6.19028C19.9543 6.10458 19.8448 6.0743 19.7591 6.12391L19.107 6.49698L18.9698 6.25664L18.6953 6.41386L19.5568 7.92095C19.6 7.99698 19.6966 8.02275 19.7726 7.97958C19.8487 7.93641 19.8744 7.83976 19.8313 7.76373L19.8319 7.76309Z" fill="#912642"/>
</g>
<defs>
<clipPath id="clip0_4956_56301">
<rect width="23" height="23" fill="white"/>
</clipPath>
</defs>
</svg>
