<svg width="23" height="23" viewBox="0 0 23 23" fill="none" xmlns="http://www.w3.org/2000/svg">
<g clip-path="url(#clip0_4393_55372)">
<g clip-path="url(#clip1_4393_55372)">
<path d="M14.0811 5.25113C14.2305 5.30986 14.3818 5.33873 14.5351 5.33873H14.552C14.6924 5.33873 14.8228 5.31185 14.9442 5.26307C14.991 5.33276 15.0378 5.41837 15.0826 5.5219C15.1284 5.62643 15.1652 5.72697 15.1941 5.82354V5.82851L15.428 5.76679L15.4261 5.76082C15.3375 5.53186 15.2409 5.33176 15.1354 5.16253C15.226 5.10877 15.3076 5.05103 15.3813 4.9903C15.4868 4.9027 15.5734 4.81211 15.6431 4.71654L16.0423 4.93456L16.1388 4.75636L15.215 4.24866C15.3474 4.13816 15.4619 4.02168 15.5555 3.90023L15.5595 3.89625L15.4012 3.70312L15.3972 3.7091C15.3484 3.77878 15.2887 3.85245 15.218 3.92811C15.1483 4.00476 15.0786 4.07345 15.0109 4.13716L14.4365 3.82159L14.341 3.99978L14.8576 4.2835C14.7989 4.34821 14.7153 4.4169 14.6058 4.49455C14.4943 4.5722 14.3937 4.63392 14.3031 4.67672L14.2972 4.67871L14.4485 4.85989L14.4525 4.85691C14.4943 4.837 14.5182 4.82505 14.5251 4.82207C14.547 4.81012 14.5699 4.79618 14.5948 4.77826C14.6307 4.8141 14.6725 4.86189 14.7173 4.92062C14.7621 4.97836 14.7949 5.03012 14.8158 5.07293C14.7362 5.10777 14.6486 5.1247 14.552 5.1247C14.5122 5.1247 14.4714 5.12171 14.4296 5.11574C14.2982 5.09682 14.1677 5.05103 14.0353 4.97836L14.0254 4.97239L14.0791 5.24913H14.0811V5.25113ZM14.768 4.63889C14.8108 4.60803 14.8626 4.56722 14.9223 4.51943C14.9841 4.46966 15.0289 4.42785 15.0617 4.395L15.444 4.60604C15.3912 4.66677 15.3235 4.73546 15.2379 4.80713C15.1523 4.87881 15.0776 4.93057 15.0139 4.96343C14.9761 4.9027 14.9353 4.84297 14.8915 4.78424C14.8477 4.72749 14.8059 4.67971 14.768 4.63889Z" fill="#00643D"/>
<path d="M11.0989 16.7659C11.1039 16.6017 11.2243 16.4165 11.2263 16.4145L11.2323 16.4046L11.2234 16.3976L11.072 16.2941L11.0621 16.2871L11.0561 16.2971C11.0561 16.2971 10.9177 16.4822 10.8739 16.7321C10.851 16.8625 10.9068 16.9621 10.9615 17.0606C11.0133 17.1542 11.0621 17.2428 11.0432 17.3543C11.0063 17.5574 10.7405 17.7674 10.7376 17.7704L10.7246 17.7794L10.7376 17.7893L10.8849 17.9028L10.8938 17.9098L10.9008 17.9028C10.9147 17.8899 11.2303 17.5972 11.2721 17.3672C11.298 17.2199 11.2333 17.0955 11.1746 16.9859C11.1348 16.9073 11.0959 16.8336 11.0989 16.7659Z" fill="#00643D"/>
<path d="M7.36523 5.31456L7.54044 5.35338C7.55239 5.34044 7.56334 5.31854 7.57429 5.28569C7.57827 5.27474 7.58424 5.2608 7.58823 5.23989C7.60117 5.21202 7.61411 5.17519 7.62904 5.1274C7.63402 5.11247 7.63999 5.09156 7.64696 5.06568L7.98443 5.71574L8.16562 5.61918L7.76144 4.8407C7.75746 4.83074 7.75447 4.8178 7.75348 4.79889C7.75248 4.79391 7.75248 4.78495 7.75348 4.77499C7.75049 4.77002 7.74253 4.76504 7.72859 4.75907C7.71465 4.75409 7.70669 4.75011 7.7057 4.74712C7.69773 4.73119 7.70171 4.6864 7.71864 4.61173C7.72361 4.58784 7.73357 4.55399 7.74651 4.50621C7.73954 4.49327 7.71465 4.48431 7.66986 4.48033C7.59022 4.47435 7.54044 4.47535 7.52252 4.48431C7.51456 4.48829 7.51157 4.50521 7.51456 4.5301C7.51655 4.55698 7.51954 4.58485 7.52153 4.61671C7.52651 4.70232 7.51058 4.82178 7.47474 4.9731C7.44288 5.1055 7.40605 5.21899 7.36523 5.31555V5.31456Z" fill="#00643D"/>
<path d="M12.0265 16.8328C11.9549 16.7681 11.8941 16.7104 11.8921 16.6646C11.8882 16.5033 11.9867 16.3908 11.9877 16.3898L11.9977 16.3779L11.9847 16.3699L11.8364 16.2813L11.8294 16.2773L11.8225 16.2813C11.8155 16.2873 11.6592 16.4147 11.6642 16.6696C11.6672 16.7492 11.7468 16.8239 11.8394 16.9115C11.9648 17.0289 12.1072 17.1633 12.1122 17.3465C12.1161 17.5536 11.9588 17.8224 11.9569 17.8243L11.9489 17.8373L11.9628 17.8423L12.136 17.912L12.147 17.9159L12.152 17.906C12.2127 17.7915 12.3341 17.4988 12.3242 17.3117C12.3142 17.0946 12.149 16.9423 12.0275 16.8308L12.0265 16.8328Z" fill="#00643D"/>
<path d="M10.7936 12.243C10.7936 12.228 10.7966 12.2031 10.8045 12.1703C10.8065 12.1613 10.8095 12.1464 10.8165 12.1265C10.8165 12.0986 10.8026 12.0797 10.7777 12.0737C10.7518 12.0658 10.7179 12.0568 10.6781 12.0479H10.5756V13.3699H11.0703C11.0086 13.4127 10.931 13.4535 10.8364 13.4933C10.7209 13.5441 10.6104 13.5759 10.5039 13.5919L10.6264 13.8188C10.7408 13.794 10.8653 13.7462 11.0046 13.6755C11.1231 13.6158 11.2008 13.566 11.2376 13.5262L11.1331 13.3689H11.8807L11.7493 13.5212C11.8667 13.6158 11.9693 13.6894 12.0569 13.7392C12.1345 13.784 12.2132 13.8188 12.2918 13.8417L12.4312 13.6197C12.3496 13.5949 12.259 13.556 12.1604 13.5043C12.0688 13.4575 11.9962 13.4127 11.9414 13.3699H12.5029V13.1698H10.7946V12.243H10.7936Z" fill="#00643D"/>
<path d="M14.2988 15.6993H14.4999V15.6047H15.372V15.6824H15.577V15.0273H14.2988V15.7003V15.6993ZM14.4989 15.2364H15.371V15.3937H14.4989V15.2364Z" fill="#00643D"/>
<path d="M15.4752 14.5856C15.4841 14.5577 15.4961 14.5189 15.507 14.4691H15.8933V14.2521H15.0391V14.1406H15.6862V13.9216H15.0391V13.8081H15.8564V13.5891H15.3139C15.3358 13.5482 15.3567 13.5074 15.3766 13.4616C15.3955 13.4178 15.4125 13.373 15.4274 13.3272L15.2193 13.2297C15.2064 13.2934 15.1895 13.3541 15.1715 13.4148C15.1516 13.4756 15.1287 13.5333 15.0999 13.5891H14.7096L14.8122 13.5124C14.7913 13.4636 14.7644 13.4119 14.7315 13.3561C14.6987 13.3014 14.6658 13.2556 14.637 13.2197L14.4687 13.3452C14.5374 13.4328 14.5872 13.5134 14.62 13.5901H14.0287V13.8091H14.838V13.9225H14.1989V14.1416H14.838V14.2531H13.9939V14.4701H14.3831C14.402 14.5069 14.4179 14.5447 14.4289 14.5836C14.4408 14.6224 14.4488 14.6612 14.4548 14.702H13.957V14.9171H15.9331V14.702H15.4274C15.4503 14.6532 15.4662 14.6144 15.4752 14.5865V14.5856ZM14.838 14.701H14.6579C14.6479 14.6473 14.636 14.6045 14.626 14.5686C14.6161 14.5348 14.6031 14.5009 14.5882 14.4691H14.838V14.701ZM15.2671 14.5895C15.2532 14.6303 15.2372 14.6682 15.2193 14.7H15.0391V14.4681H15.3C15.292 14.5089 15.282 14.5487 15.2671 14.5895Z" fill="#00643D"/>
<path d="M8.24504 14.9779H8.94388V14.7509H8.17635V14.5916H9.00162V14.3636H8.17635V14.2143H8.81347V13.9863H8.17635V13.84H8.97175V13.612H8.48495C8.51482 13.5553 8.5417 13.4966 8.5636 13.4348C8.56559 13.4249 8.57754 13.388 8.59745 13.3213L8.40531 13.2158C8.38939 13.2905 8.37147 13.3592 8.35056 13.4249C8.32567 13.5065 8.29979 13.5692 8.2759 13.613H7.85381L7.96132 13.5165C7.93843 13.4627 7.91254 13.4089 7.88069 13.3582C7.84883 13.3054 7.81697 13.2586 7.78512 13.2168L7.62285 13.3422C7.65371 13.3841 7.68557 13.4299 7.71543 13.4796C7.7443 13.5294 7.7662 13.5742 7.77915 13.613H7.18682V13.841H7.97825V13.9873H7.34013V14.2153H7.97825V14.3646H7.149V14.5926H7.97825V14.7519H7.20873V14.9788H7.91055C7.85082 15.0943 7.73733 15.1998 7.5681 15.2964C7.41181 15.386 7.24556 15.4487 7.06836 15.4836L7.23959 15.6996C7.39986 15.6538 7.55516 15.5781 7.70448 15.4736C7.86376 15.3631 7.9882 15.2437 8.07779 15.1112C8.15843 15.2476 8.27889 15.3691 8.43617 15.4736C8.5845 15.5722 8.75075 15.6458 8.93492 15.6956L9.10216 15.4846C8.91501 15.4597 8.73582 15.3989 8.56559 15.3004C8.39536 15.2008 8.28785 15.0933 8.24205 14.9788L8.24504 14.9779Z" fill="#00643D"/>
<path d="M11.4858 16.7124C11.4599 16.5521 11.6113 16.3968 11.6122 16.3938L11.6232 16.3838L11.6093 16.3749L11.4609 16.2823L11.456 16.2783L11.45 16.2843C11.441 16.2923 11.2559 16.4585 11.2559 16.7134C11.2559 16.8458 11.3415 16.9353 11.4241 17.022C11.5037 17.1046 11.5844 17.1822 11.5844 17.2947C11.5844 17.5018 11.3594 17.8024 11.3564 17.8054L11.3474 17.8174L11.3614 17.8243L11.5157 17.9149L11.5276 17.9199L11.5346 17.9109C11.5814 17.8452 11.8094 17.5008 11.8094 17.2708C11.8094 17.1225 11.7088 17.013 11.6212 16.9164C11.5525 16.8467 11.4968 16.781 11.4848 16.7124H11.4858Z" fill="#00643D"/>
<path d="M10.957 13.0712H12.2074V12.0508H10.957V13.0712ZM11.178 12.229H11.9874V12.3415H11.178V12.229ZM11.178 12.5097H11.9874V12.6172H11.178V12.5097ZM11.178 12.7825H11.9874V12.891H11.178V12.7825Z" fill="#00643D"/>
<path d="M10.8385 11.9247C10.8803 11.9456 10.961 11.9556 11.0774 11.9556H12.0819C12.1586 11.9556 12.2282 11.9466 12.2939 11.8998C12.3726 11.8451 12.4303 11.7744 12.4652 11.6639L12.3119 11.5295C12.2641 11.6261 12.2153 11.6778 12.1625 11.7117C12.1098 11.7455 12.0351 11.7505 11.9376 11.7505H11.0755C11.0506 11.7505 11.0227 11.7485 10.9898 11.7435C10.958 11.7406 10.9421 11.7376 10.9421 11.7127V11.6669C10.962 11.6669 11.0426 11.6619 11.1869 11.65C11.3303 11.64 11.4896 11.6291 11.6598 11.6091C11.8669 11.5803 12.0222 11.5534 12.1237 11.5235L12.057 11.3105C11.9435 11.3414 11.7623 11.3722 11.5095 11.4001C11.2596 11.4369 11.0705 11.4479 10.9421 11.4479V11.3901C10.946 11.3792 10.951 11.3643 10.956 11.3533C10.962 11.3384 10.964 11.3244 10.964 11.3155C10.964 11.2986 10.948 11.2826 10.9172 11.2757C10.8853 11.2707 10.8535 11.2667 10.8236 11.2617H10.7539V11.7585C10.7539 11.8481 10.7818 11.8939 10.8365 11.9237L10.8385 11.9247Z" fill="#00643D"/>
<path d="M18.4056 15.7683L17.5634 15.1123L17.4141 15.3074L18.2344 15.9475C18.5171 16.1665 18.4374 16.4254 18.3011 16.6046C18.1667 16.7788 17.9447 16.9102 17.6619 16.6892L16.8446 16.0531L16.6953 16.2492L17.5604 16.9221C17.8033 17.1113 18.1547 17.1192 18.4504 16.732C18.753 16.3368 18.6694 15.9764 18.4036 15.7683H18.4056Z" fill="#00643D"/>
<path d="M15.8457 17.0826L16.2141 18.3777L16.2101 18.3807L15.2215 17.4509L14.9976 17.5813L15.3092 18.9113L15.3052 18.9133L14.3724 17.9507L14.1504 18.0801L15.345 19.2379L15.56 19.1104L15.2464 17.7546L15.2504 17.7526L16.2579 18.6993L16.4729 18.5729L16.0707 16.9502L15.8457 17.0826Z" fill="#00643D"/>
<path d="M19.1678 12.1606C19.2584 12.2561 19.2982 12.3756 19.2793 12.498C19.2475 12.7071 19.0912 12.8534 18.8503 12.8176C18.6412 12.7848 18.4869 12.6205 18.5198 12.4005C18.5486 12.2103 18.6562 12.0779 18.8553 12.0849L18.8891 11.8659C18.5088 11.85 18.3774 12.1198 18.3446 12.3418C18.2649 12.8724 18.6552 13.0177 18.8413 13.0466C19.1868 13.0993 19.4217 12.8475 19.4605 12.5727C19.4834 12.4214 19.4496 12.3109 19.4058 12.2293L19.8547 12.3726L19.7472 13.0904L19.9513 13.1212L20.0847 12.2442L19.2047 11.9784L19.1678 12.1596V12.1606Z" fill="#00643D"/>
<path d="M4.86523 11.6274C4.86523 15.2978 7.8368 18.2744 11.5002 18.2744C15.1637 18.2744 18.1362 15.2978 18.1362 11.6274C18.1362 7.95701 15.1657 4.98047 11.5002 4.98047C7.83481 4.98047 4.86523 7.95701 4.86523 11.6274ZM11.5002 18.0394C11.0323 18.0394 10.5764 17.9896 10.1364 17.8941L10.3186 16.1091L10.3255 16.0136L10.9338 15.3127L11.5072 16.0614L12.0577 15.3137L12.6849 16.0186L12.6928 16.1191L12.869 17.8931C12.429 17.9887 11.9721 18.0394 11.5002 18.0394ZM11.4943 14.7145L11.1419 15.1973L10.9437 14.9414L10.3604 15.6164L10.3693 15.5049C10.4241 14.8638 10.88 14.3441 11.5022 14.3441C12.1244 14.3441 12.5863 14.8638 12.6411 15.5049L12.652 15.6283L12.0388 14.9404L11.8546 15.1933L11.4943 14.7155V14.7145ZM11.7103 15.3894L11.5022 15.6691L11.2902 15.3904L11.4982 15.1087L11.7093 15.3894H11.7103ZM16.0278 16.1619C15.2413 16.9494 14.2518 17.5317 13.1458 17.8264L12.9118 15.4999C12.8442 14.7145 12.2827 14.0684 11.5032 14.0684C10.7237 14.0684 10.1673 14.7145 10.0996 15.5009L9.86065 17.8264C8.75266 17.5327 7.76214 16.9494 6.9747 16.1619C6.03793 15.2232 5.39086 13.9957 5.17683 12.6249L6.30074 12.1272V11.6095H7.09017V12.1162H8.41618V11.6095H9.18669V12.1053H10.3883V11.8215H10.2121V10.9893C10.6122 11.0042 11.0622 11.0152 11.5002 11.0152C11.9104 11.0152 12.3345 11.0042 12.7177 10.9913V11.8205H12.5455V12.1043H13.8556V11.6085H14.6251V12.1152H15.9511V11.6085H16.7405V12.1252L17.8256 12.608C17.6146 13.9858 16.9655 15.2182 16.0258 16.1609L16.0278 16.1619ZM8.54559 10.4129C8.456 10.396 8.37039 10.3761 8.28875 10.3562V9.69615C8.29672 9.69316 8.30369 9.69117 8.31066 9.69017C8.39129 9.66329 8.46994 9.62248 8.54559 9.5747V10.4129ZM9.95024 7.97792C9.85866 7.96896 9.77105 7.96 9.68743 7.94905V6.56331C9.75811 6.58322 9.8487 6.60711 9.95024 6.63101V7.97792ZM9.96816 9.19641V10.5801C9.88056 10.5752 9.79395 10.5682 9.71132 10.5602V9.19641H9.96816ZM9.88056 8.45277V8.91468H9.47937V8.45277H9.88056ZM9.4943 9.19641V10.5403C9.4057 10.5314 9.32009 10.5224 9.23746 10.5125V9.19641H9.4943ZM9.47041 7.92117C9.37683 7.90624 9.29023 7.8923 9.2076 7.87837V7.09192C9.29719 6.99635 9.37186 6.88187 9.43756 6.77336C9.44851 6.75345 9.46046 6.73553 9.47041 6.71662V7.92018V7.92117ZM9.82083 10.9744V11.8215H9.46842V11.3248H8.92786V10.9256C9.05131 10.9345 9.3848 10.9545 9.82083 10.9744ZM9.01945 10.4866C8.92985 10.4746 8.84424 10.4627 8.76261 10.4497V9.41641C8.78053 9.40148 8.79745 9.38754 8.81438 9.37261C8.89601 9.30292 8.9647 9.23921 9.0075 9.19641H9.01846V10.4866H9.01945ZM10.6202 8.45277V8.91468H10.1633V8.45277H10.6202ZM10.1673 7.99683V6.67481C10.2529 6.68974 10.3395 6.70169 10.4251 6.70865C10.4271 6.70865 10.4291 6.70865 10.4301 6.70865V8.01475C10.3395 8.00878 10.2509 8.0028 10.1673 7.99583V7.99683ZM10.442 9.19641V10.608C10.3534 10.603 10.2688 10.5981 10.1852 10.5941V9.19541H10.442V9.19641ZM11.3897 6.73354V8.04461C11.3001 8.04461 11.2135 8.04262 11.1279 8.04163V6.73255C11.1906 6.73255 11.2514 6.73255 11.3111 6.73255C11.336 6.73255 11.3648 6.73255 11.3887 6.73255L11.3897 6.73354ZM11.3579 8.45277V8.91468H10.9019V8.45277H11.3579ZM11.3897 9.19641V10.6309C11.3031 10.6309 11.2175 10.6309 11.1349 10.6279V9.19641H11.3897ZM10.9169 9.19641V10.624C10.8293 10.622 10.7437 10.62 10.66 10.617V9.19641H10.9169ZM10.9099 8.03665C10.8213 8.03466 10.7327 8.02968 10.6481 8.02669V6.7216C10.7317 6.72458 10.8193 6.72757 10.9099 6.72956V8.03765V8.03665ZM12.0975 8.45277V8.91468H11.6406V8.45277H12.0975ZM12.0886 8.03665V6.72856C12.1792 6.72657 12.2688 6.72359 12.3504 6.71861V8.0257C12.2658 8.02968 12.1782 8.03366 12.0886 8.03565V8.03665ZM12.3394 9.19641V10.617C12.2558 10.62 12.1702 10.622 12.0826 10.624V9.19641H12.3394ZM11.8716 8.04163C11.7859 8.04163 11.6993 8.04362 11.6077 8.04461V6.73354H11.6635C11.7302 6.73354 11.7999 6.73354 11.8706 6.73155V8.04163H11.8716ZM11.8656 9.19641V10.6279C11.782 10.6299 11.6963 10.6309 11.6077 10.6309V9.19641H11.8656ZM12.8362 8.45277V8.91468H12.3803V8.45277H12.8362ZM12.5684 8.01574V6.70567C12.656 6.6987 12.7446 6.68576 12.8312 6.66983V7.99683C12.7476 8.0038 12.659 8.00878 12.5684 8.01574ZM12.8133 9.19641V10.5951C12.7297 10.5991 12.6451 10.604 12.5575 10.609V9.1974H12.8133V9.19641ZM14.0716 10.9256V11.3248H13.5739V11.8215H13.11V10.9774C13.5788 10.9564 13.9402 10.9355 14.0706 10.9256H14.0716ZM13.979 10.4866V9.19641H13.99C14.0338 9.23921 14.1015 9.30292 14.1841 9.37261C14.2 9.38754 14.2179 9.40148 14.2359 9.41641V10.4497C14.1542 10.4627 14.0686 10.4746 13.979 10.4866ZM13.7909 7.87737C13.7102 7.89131 13.6226 7.90624 13.5291 7.92018V6.71662C13.54 6.73553 13.551 6.75246 13.5619 6.77336C13.6276 6.88088 13.7023 6.99635 13.7919 7.09192V7.87837L13.7909 7.87737ZM13.761 9.19641V10.5125C13.6794 10.5224 13.5928 10.5314 13.5052 10.5403V9.19641H13.761ZM13.5191 8.91468H13.1179V8.45277H13.5191V8.91468ZM13.312 7.94905C13.2284 7.96 13.1408 7.96896 13.0492 7.97792V6.62503C13.1528 6.60114 13.2443 6.57625 13.312 6.55634V7.95004V7.94905ZM13.2881 9.19641V10.5602C13.2055 10.5672 13.1189 10.5742 13.0303 10.5801V9.19641H13.2881ZM11.5002 5.21541C13.2692 5.21541 14.869 5.93416 16.0278 7.09391C17.1855 8.25566 17.9023 9.85642 17.9023 11.6274C17.9023 11.8604 17.8903 12.0893 17.8655 12.3153L17.0262 11.942V11.3238H15.6704V11.8315H14.9108V11.3238H14.4628V10.6757C15.4145 10.4995 15.9421 10.1182 15.9531 10.1113L16.0337 10.0525L15.8466 9.55479H15.754C15.754 9.55479 15.744 9.55578 15.7251 9.55578C15.6017 9.55678 15.1019 9.54682 14.7685 9.43931C14.652 9.40347 14.4827 9.28401 14.3543 9.17351C14.2896 9.11776 14.2329 9.066 14.1931 9.02717C14.1532 8.98835 14.1313 8.96545 14.1313 8.96545L14.0925 8.91468H13.9123V8.12226C14.8272 7.94606 15.0641 7.70614 15.093 7.67927L15.1408 7.6275L15.0382 7.21835L14.9516 7.2064C14.9516 7.2064 14.7884 7.18251 14.5942 7.14369C14.4031 7.10586 14.1751 7.04712 14.0816 6.99536C14.0089 6.96251 13.8755 6.79526 13.7859 6.63996C13.7391 6.56331 13.6993 6.48765 13.6714 6.4329C13.6445 6.37715 13.6286 6.3443 13.6286 6.3443L13.5918 6.36222L13.6276 6.3443L13.547 6.14222L13.2434 6.15814V6.28159C13.089 6.32638 12.7854 6.40602 12.5286 6.42494C12.2658 6.44684 11.8317 6.44983 11.4953 6.45082C11.1528 6.45082 10.7128 6.44684 10.448 6.42494C10.2668 6.412 10.0597 6.36819 9.90047 6.32738C9.84671 6.31344 9.79793 6.2995 9.75711 6.28955V6.15914L9.45349 6.14321L9.37285 6.34331C9.37285 6.34331 9.35792 6.37715 9.33005 6.43191C9.28823 6.51354 9.21955 6.64096 9.1419 6.75544C9.06624 6.86993 8.97266 6.96948 8.9199 6.99436C8.82533 7.04613 8.59835 7.10586 8.40722 7.14269C8.21409 7.18152 8.05083 7.20441 8.04983 7.20541L7.96422 7.21735L7.86169 7.6265L7.90947 7.67827C7.93734 7.70515 8.17527 7.94606 9.09013 8.12127V8.91368H8.91094L8.87212 8.96445C8.87212 8.96445 8.84922 8.98835 8.8094 9.02618C8.69293 9.14165 8.4122 9.38655 8.23301 9.43931C7.89951 9.54682 7.39977 9.55678 7.27633 9.55578H7.15588L6.96773 10.0525L7.04836 10.1113C7.05931 10.1182 7.58693 10.4995 8.53862 10.6757V11.3238H8.13445V11.8315H7.37389V11.3238H6.01902V11.942L5.14099 12.3312C5.1151 12.1003 5.10316 11.8653 5.10316 11.6264C5.10316 9.85543 5.81892 8.25367 6.97768 7.09292C8.13644 5.93316 9.73621 5.21541 11.5032 5.21441L11.5002 5.21541ZM14.4539 10.4129V9.5747C14.5295 9.62248 14.6082 9.66329 14.6888 9.69017C14.6958 9.69216 14.7028 9.69416 14.7107 9.69615V10.3562C14.6291 10.3761 14.5435 10.396 14.4539 10.4129ZM14.9277 10.2944V9.74891C15.0143 9.76484 15.101 9.77778 15.1846 9.78773V10.2048C15.1069 10.2347 15.0213 10.2656 14.9277 10.2934V10.2944ZM15.4016 10.1162V9.80864C15.5081 9.81561 15.6007 9.81859 15.6644 9.81959L15.7152 9.95498C15.6485 9.9948 15.543 10.0525 15.4016 10.1172V10.1162ZM14.0089 7.83456V7.24821C14.0855 7.28206 14.1771 7.30994 14.2717 7.33582V7.76986C14.1931 7.79176 14.1055 7.81266 14.0089 7.83456ZM14.4887 7.70216V7.38758C14.5076 7.39157 14.5256 7.39455 14.5425 7.39854C14.656 7.42143 14.7585 7.43935 14.8262 7.4503L14.8491 7.5389C14.7914 7.57673 14.6789 7.63646 14.4887 7.70216ZM8.99058 7.24821V7.83456C8.89402 7.81266 8.80641 7.79076 8.72777 7.76986V7.33582C8.82334 7.30994 8.91393 7.28206 8.99058 7.24821ZM8.51075 7.38758V7.70316C8.36342 7.65139 8.26287 7.60361 8.19916 7.56677C8.18024 7.55682 8.16432 7.54686 8.15138 7.5389L8.17328 7.4503C8.24296 7.43935 8.3445 7.42143 8.45799 7.39854C8.47591 7.39455 8.49383 7.39157 8.51075 7.38758ZM8.07273 9.74891V10.2944C7.98015 10.2666 7.89354 10.2367 7.8149 10.2058V9.78873C7.89951 9.77877 7.98513 9.76583 8.07273 9.7499V9.74891ZM7.59887 9.80764V10.1153C7.59887 10.1153 7.59191 10.1133 7.58991 10.1123C7.4605 10.0525 7.36095 9.99778 7.29525 9.95995C7.29226 9.95697 7.28728 9.95597 7.2843 9.95299L7.33606 9.8176C7.39977 9.8166 7.49136 9.81362 7.59887 9.80665V9.80764Z" fill="#00643D"/>
<path d="M17.0918 17.8248L17.259 18.0149L17.4631 17.8317L17.2949 17.6416L17.0918 17.8248Z" fill="#00643D"/>
<path d="M11.494 18.3652C10.9296 18.3652 10.4766 18.8252 10.4746 19.3916C10.4756 19.959 10.9296 20.4199 11.494 20.4199C12.0584 20.4199 12.5084 19.959 12.5094 19.3916C12.5094 18.8252 12.0545 18.3652 11.494 18.3652ZM11.943 18.9008C11.6742 18.9008 11.4592 19.1218 11.4582 19.3916C11.4582 19.6235 11.273 19.8117 11.044 19.8117C10.8151 19.8117 10.6279 19.6235 10.6279 19.3916C10.6279 18.9078 11.0152 18.5175 11.495 18.5166C11.8504 18.5166 12.157 18.7346 12.2894 19.0472C12.2018 18.9566 12.0784 18.9018 11.943 18.9008Z" fill="#00643D"/>
<path d="M7.44922 19.2093L7.66126 19.2959L7.99873 18.9147L8.60798 19.1655L8.57911 19.6732L8.8031 19.7648L8.86979 18.0048L8.63685 17.9082L7.44922 19.2083V19.2093ZM8.65576 18.184L8.60798 18.9505L8.13611 18.7564L8.65178 18.181L8.65576 18.183V18.184Z" fill="#00643D"/>
<path d="M7.77359 17.4235L7.39928 17.995L6.68551 17.5161L7.05982 16.9457L6.87565 16.8223L5.96875 18.201L6.15292 18.3255L6.576 17.6814L7.28978 18.1602L6.86669 18.8043L7.05086 18.9277L7.95776 17.547L7.77359 17.4235Z" fill="#00643D"/>
<path d="M17.7219 5.71059C17.7588 5.69566 17.7847 5.67973 17.8006 5.6648C17.8105 5.65584 17.8145 5.64489 17.8145 5.63195C17.8145 5.61801 17.8076 5.5991 17.7956 5.57919C17.7747 5.54335 17.7438 5.50353 17.706 5.46271L17.6732 5.42687L17.6682 5.42986L17.2839 5.78824L16.7155 5.16406L16.5662 5.30343L17.1326 5.92661C16.9763 6.07096 16.7663 6.14164 16.5005 6.14164H16.4776C16.2267 6.13965 16.0117 6.07793 15.8305 5.96345L15.8235 5.95847L15.8086 6.24119L15.8116 6.24318C15.9709 6.30988 16.157 6.3497 16.3701 6.36364C16.4109 6.36563 16.4507 6.36762 16.4905 6.36762C16.6548 6.36762 16.7951 6.34472 16.9086 6.29794C16.8499 6.43233 16.816 6.61351 16.8101 6.83949C16.8091 6.87333 16.8081 6.90718 16.8081 6.94003C16.8081 7.10927 16.824 7.2566 16.8569 7.38104V7.38502L17.1306 7.40194L17.1266 7.39398C17.0679 7.26954 17.038 7.11424 17.038 6.9261C17.038 6.87234 17.04 6.81659 17.045 6.75786C17.0689 6.46717 17.1495 6.24517 17.2839 6.09187L17.8504 6.71306L17.9997 6.57468L17.4332 5.9525L17.6523 5.74842C17.6622 5.73847 17.6861 5.72552 17.7219 5.71159V5.71059Z" fill="#00643D"/>
<path d="M11.4995 2.39062C6.44735 2.39062 2.33594 6.51 2.33594 11.5721C2.33494 14.023 3.28863 16.3306 5.0198 18.0638C6.74998 19.7969 9.05257 20.7526 11.4995 20.7526C16.5546 20.7526 20.6651 16.6342 20.6651 11.5721C20.6651 6.51 16.5546 2.39062 11.4995 2.39062ZM17.812 17.8935C16.1943 19.5132 13.9634 20.5167 11.4995 20.5167C9.03564 20.5167 6.87243 19.5859 5.18605 17.8965C3.49868 16.2052 2.57088 13.9593 2.56988 11.5701C2.56988 9.10327 3.57135 6.86838 5.18904 5.24771C6.80672 3.62803 9.03863 2.62457 11.4995 2.62457C13.9604 2.62457 16.1943 3.62803 17.812 5.24771C19.4286 6.86838 20.4301 9.10327 20.4301 11.5701C20.4301 14.037 19.4286 16.2729 17.812 17.8925V17.8935Z" fill="#00643D"/>
<path d="M22.4557 7.97193C21.9908 6.60412 21.3686 5.45432 20.6867 4.62407C19.7629 3.50015 18.7285 2.9596 17.8167 3.25626C17.6225 3.31897 17.4443 3.4245 17.2871 3.56188C17.3677 3.36875 17.4105 3.16865 17.4105 2.96458C17.4105 2.00392 16.5773 1.18562 15.2264 0.653028C14.2269 0.258811 12.9427 0.0228775 11.5012 0.000976562C10.0587 0.0228775 8.77455 0.258811 7.77507 0.653028C6.42318 1.18562 5.58995 2.00392 5.58995 2.96458C5.58995 3.16865 5.63375 3.36974 5.71538 3.56287C5.5561 3.4245 5.38089 3.32296 5.18677 3.25924C4.2739 2.96358 3.23958 3.50314 2.31675 4.62805C1.63384 5.4593 1.01165 6.6081 0.546751 7.97592C0.121673 9.35468 -0.0515436 10.6508 0.0131639 11.726C0.100768 13.1784 0.620418 14.2237 1.53229 14.5213C1.72642 14.584 1.93149 14.6039 2.13955 14.587C1.96036 14.6945 1.80904 14.8309 1.68859 14.9962C1.12514 15.7747 1.31727 16.9264 2.09973 18.1519C2.67712 19.0598 3.57705 20.0075 4.73083 20.8736C5.9105 21.7058 7.08718 22.2713 8.12747 22.5401C9.53312 22.9064 10.6869 22.7342 11.2504 21.9567C11.3718 21.7905 11.4544 21.6023 11.4982 21.3982C11.546 21.6023 11.6296 21.7885 11.7511 21.9547C12.3155 22.7322 13.4683 22.9044 14.875 22.5381C15.9143 22.2673 17.0929 21.7038 18.2716 20.8726C19.4254 20.0055 20.3243 19.0578 20.9027 18.1499C21.6852 16.9245 21.8773 15.7717 21.3129 14.9942C21.1934 14.8279 21.0401 14.6916 20.8609 14.583C21.069 14.602 21.272 14.5791 21.4662 14.5173C22.378 14.2207 22.8977 13.1734 22.9853 11.721C23.049 10.6478 22.8778 9.3517 22.4527 7.97193H22.4557ZM21.4662 14.1908C21.2442 14.3043 21.0172 14.364 20.7872 14.375C20.7235 14.376 20.624 14.375 20.5314 14.3561C20.4259 14.3352 20.3393 14.3501 20.3164 14.4058C20.3024 14.4636 20.3651 14.5283 20.4627 14.5731C20.5503 14.6129 20.6309 14.6696 20.6807 14.7075C20.8609 14.8528 21.0092 15.034 21.1217 15.257C21.6463 16.2883 20.8908 17.7009 19.2402 18.5292C17.8485 19.227 17.3637 19.6093 17.3597 19.6123C17.3547 19.6153 16.8431 19.9587 15.75 21.0697C14.4539 22.3868 12.88 22.6705 12.0617 21.8502C11.8855 21.675 11.7591 21.4769 11.6764 21.2608C11.6575 21.2001 11.6267 21.1065 11.6177 21.011C11.6038 20.9035 11.5619 20.8258 11.4992 20.8228C11.4435 20.8258 11.4017 20.9055 11.3867 21.013C11.3768 21.1095 11.3479 21.2031 11.327 21.2628C11.2444 21.4789 11.118 21.677 10.9417 21.8522C10.1244 22.6715 8.55056 22.3877 7.25442 21.0717C6.16136 19.9607 5.64868 19.6173 5.6447 19.6143C5.63972 19.6103 5.15591 19.228 3.7642 18.5312C2.11367 17.7019 1.35808 16.2903 1.88371 15.258C1.9962 15.036 2.14453 14.8548 2.32372 14.7095C2.37449 14.6706 2.45512 14.6149 2.54273 14.5741C2.64029 14.5293 2.70001 14.4656 2.68608 14.4068C2.66418 14.3521 2.57458 14.3372 2.46906 14.3571C2.37449 14.378 2.27693 14.379 2.21322 14.378C1.98326 14.365 1.75728 14.3063 1.53528 14.1928C0.50494 13.6672 0.286926 12.0814 1.13708 10.4388C1.85185 9.05703 2.02108 8.46271 2.02308 8.45375C2.02308 8.45077 2.23711 7.87238 2.47005 6.32737C2.74581 4.49764 3.8528 3.34287 4.99464 3.52405C5.24152 3.56287 5.45854 3.64749 5.65167 3.77292C5.70443 3.80975 5.78307 3.86849 5.84778 3.93917C5.92045 4.0198 6.00009 4.05664 6.04987 4.02578C6.09566 3.98695 6.08272 3.89835 6.03095 3.80478C5.98317 3.72116 5.95131 3.62857 5.93339 3.56685C5.87366 3.34386 5.85873 3.10892 5.89855 2.86303C6.07973 1.7202 7.51922 1.02236 9.34099 1.32399C10.877 1.57785 11.4943 1.55395 11.4992 1.55395C11.5022 1.55395 12.1204 1.57785 13.6565 1.32399C15.4782 1.02236 16.9167 1.71921 17.0979 2.86303C17.1377 3.10892 17.1238 3.34386 17.0641 3.56685C17.0452 3.62857 17.0143 3.72116 16.9655 3.80478C16.9137 3.89835 16.9008 3.98596 16.9476 4.02478C16.9984 4.05664 17.078 4.01682 17.1517 3.93718C17.2174 3.8655 17.295 3.80677 17.3478 3.76993C17.5409 3.6445 17.7599 3.55889 18.0048 3.52006C19.1466 3.33988 20.2536 4.49565 20.5294 6.32339C20.7613 7.86243 20.9744 8.4428 20.9774 8.45077C20.9784 8.45276 21.1446 9.04707 21.8624 10.4358C22.7125 12.0784 22.4945 13.6642 21.4652 14.1898L21.4662 14.1908Z" fill="#00643D"/>
<path d="M19.085 8.85375C18.7575 8.93438 18.6042 9.19919 18.6778 9.50779C18.7166 9.66209 18.8261 9.81042 18.9675 9.84128L18.9635 9.84626C18.5235 9.89902 18.3045 9.82436 18.2498 9.59639C18.2089 9.42516 18.2886 9.30073 18.4528 9.24896L18.4031 9.03991C18.2438 9.07873 17.9869 9.25195 18.0805 9.64318C18.2179 10.2176 18.9785 10.0633 19.1547 10.0205C19.4215 9.95477 19.9073 9.78056 19.7808 9.25095C19.6962 8.89954 19.3856 8.77909 19.085 8.85275V8.85375ZM19.5947 9.29874C19.6524 9.53766 19.5111 9.67503 19.3229 9.71983C18.9974 9.79947 18.8958 9.60137 18.8709 9.49186C18.8371 9.35249 18.8291 9.14344 19.1457 9.06679C19.3667 9.01203 19.5469 9.10362 19.5937 9.29874H19.5947Z" fill="#00643D"/>
<path d="M17.6934 8.56039L17.783 8.77044L19.3409 8.0935L19.2752 7.9382C18.9945 7.98698 18.9258 7.89241 18.7994 7.64453L18.6441 7.71223L18.8004 8.07857L17.6934 8.55939V8.56039Z" fill="#00643D"/>
<path d="M18.7494 10.3957L18.7813 11.1433L18.3691 11.1622L18.3781 11.3752L18.7902 11.3553L18.8012 11.6092L18.9844 11.6012L18.9734 11.3523L20.0724 11.3046L20.0655 11.1264L18.9575 10.3877L18.7494 10.3967V10.3957ZM19.734 11.1035L18.9644 11.1363L18.9416 10.5848L19.733 11.0985V11.1025L19.734 11.1035Z" fill="#00643D"/>
<path d="M18.8672 15.6052L19.0912 15.7217L19.2156 15.4768L18.9916 15.3604L18.8672 15.6052Z" fill="#00643D"/>
<path d="M8.61367 4.22802C8.60272 4.25092 8.5858 4.27581 8.5629 4.30368C8.51213 4.36839 8.45837 4.42712 8.40263 4.48287C8.34688 4.53663 8.30606 4.57048 8.28117 4.58342L8.1876 4.40224C8.17466 4.37536 8.16669 4.34052 8.1647 4.29572C8.1647 4.28278 8.1647 4.26486 8.1657 4.24296C8.15674 4.22802 8.12886 4.22802 8.0771 4.24594C8.00243 4.27083 7.96162 4.28477 7.95266 4.28477L7.92578 4.3007L8.44344 5.29918C8.47032 5.35194 8.5181 5.37384 8.5848 5.36687C8.63557 5.35991 8.70625 5.33402 8.79286 5.28723L8.98101 5.18868C9.09649 5.12795 9.17414 5.06623 9.21396 5.00352C9.26871 4.91691 9.2707 4.81139 9.21893 4.68695C9.19604 4.68794 9.17414 4.68994 9.15821 4.69093C9.10146 4.69292 9.0497 4.69093 8.99992 4.68396C9.00988 4.74469 9.02282 4.81238 9.03974 4.88306C9.03676 4.92786 8.98798 4.97465 8.89639 5.02343L8.6734 5.1409C8.65349 5.14587 8.63955 5.14986 8.6296 5.15284C8.59774 5.15583 8.57684 5.14986 8.56887 5.12995L8.37276 4.75464C8.37873 4.74668 8.4295 4.70288 8.52507 4.62125C8.59177 4.5645 8.66942 4.48586 8.75802 4.3873C8.76499 4.37934 8.78191 4.36341 8.81178 4.33852C8.84064 4.31463 8.8516 4.29373 8.84363 4.28079C8.84064 4.27382 8.80779 4.25689 8.74707 4.22603C8.68535 4.19617 8.65249 4.18223 8.64553 4.18621C8.63657 4.1902 8.62661 4.20413 8.61566 4.22703L8.61367 4.22802Z" fill="#00643D"/>
<path d="M7.0055 4.58129L7.50225 4.31948L7.57791 4.46681L7.75212 4.37423L7.67646 4.22789L7.98109 4.06562L8.05077 4.20002L8.22001 4.10943L8.15132 3.97603L8.33847 3.87648L8.66997 3.71521L8.58038 3.54199L8.06869 3.81277L8.01394 3.71222C8.01095 3.70426 8.00796 3.69132 8.00597 3.6724C8.00299 3.65349 8 3.63955 7.99602 3.63159C7.99005 3.62064 7.97511 3.62064 7.95222 3.63159C7.92733 3.64055 7.89249 3.65747 7.8447 3.68335L7.79592 3.71023L7.89846 3.90535L7.59185 4.06662L7.54307 3.97205C7.5351 3.94716 7.53212 3.92725 7.5361 3.91132C7.53908 3.89539 7.54008 3.88643 7.53908 3.88444C7.53013 3.86553 7.50325 3.86453 7.46442 3.88146C7.4246 3.89938 7.37084 3.92426 7.30514 3.95811L7.41067 4.16219L6.92188 4.42002L7.0055 4.58229V4.58129Z" fill="#00643D"/>
<path d="M6.58306 5.50546C6.57808 5.53034 6.55718 5.56021 6.52233 5.59804L6.48948 5.63188L6.7065 5.66275C6.75926 5.60899 6.78714 5.55324 6.79311 5.4955C6.79809 5.43776 6.78216 5.39197 6.74732 5.35613L6.2635 4.88227C6.25056 4.87033 6.24061 4.84644 6.23065 4.8096C6.22667 4.79268 6.22269 4.78272 6.21871 4.77974C6.20776 4.76978 6.1769 4.78173 6.12613 4.81757C6.07436 4.85241 6.03852 4.88128 6.01562 4.90418L6.54224 5.41984C6.5741 5.4517 6.58704 5.48057 6.58206 5.50645L6.58306 5.50546Z" fill="#00643D"/>
<path d="M6.51548 16.4479L5.3408 17.0711L5.3388 17.0681L6.08642 15.9422L5.93411 15.763L4.7206 16.3414L4.71761 16.3384L5.50605 15.2593L5.35374 15.0801L4.41797 16.4449L4.5653 16.6181L5.8037 16.0328L5.80569 16.0358L5.04215 17.1816L5.19048 17.3548L6.66879 16.6301L6.51548 16.4479Z" fill="#00643D"/>
<path d="M11.5313 4.89301C12.1266 4.89301 12.6084 4.40522 12.6094 3.80394C12.6094 3.20266 12.1266 2.71387 11.5313 2.71387C10.936 2.71387 10.4512 3.20266 10.4512 3.80394C10.4512 4.40522 10.934 4.89301 11.5313 4.89301ZM11.5313 2.87315C12.038 2.87315 12.4501 3.28827 12.4501 3.80294C12.4501 4.31762 12.038 4.73174 11.5313 4.73373C11.0226 4.73174 10.6095 4.31562 10.6095 3.80294C10.6095 3.29026 11.0226 2.87315 11.5313 2.87315Z" fill="#00643D"/>
<path d="M6.4094 5.62173L5.95844 5.17774C5.94848 5.16778 5.94052 5.15086 5.93554 5.12896C5.92857 5.10706 5.92459 5.09412 5.9216 5.09113C5.91264 5.08317 5.88278 5.09611 5.833 5.13194C5.78223 5.16778 5.74839 5.19566 5.73047 5.21457L6.28098 5.75513L6.41039 5.62173H6.4094Z" fill="#00643D"/>
<path d="M11.014 3.92262H11.3943V4.30588C11.3654 4.33873 11.3375 4.38453 11.3375 4.43331C11.3375 4.50399 11.3773 4.56471 11.4351 4.59458C11.4739 4.62245 11.5197 4.6344 11.5197 4.68417L11.5227 4.68119C11.5227 4.6334 11.5665 4.62046 11.6043 4.59458C11.663 4.56471 11.7019 4.502 11.7019 4.43331C11.7019 4.38254 11.675 4.33674 11.6421 4.30389V3.92361H12.0254C12.0583 3.95547 12.1021 3.97936 12.1508 3.97936C12.2205 3.97936 12.2812 3.94054 12.3111 3.8818C12.338 3.84298 12.3509 3.79619 12.3997 3.79619L12.3977 3.7942C12.3499 3.7942 12.337 3.75139 12.3111 3.71157C12.2812 3.65383 12.2205 3.61401 12.1518 3.61401C12.1021 3.61401 12.0573 3.64089 12.0244 3.67374H11.6441V3.28351C11.676 3.25065 11.7019 3.20685 11.7019 3.15708C11.7019 3.08739 11.663 3.02667 11.6033 2.99581C11.5665 2.96992 11.5217 2.95698 11.5217 2.9082H11.5187C11.5187 2.95599 11.4729 2.96694 11.4341 2.99481C11.3773 3.02567 11.3365 3.0864 11.3365 3.15708C11.3365 3.20785 11.3644 3.25364 11.3953 3.28649V3.67374H11.012C10.9801 3.64189 10.9353 3.617 10.8866 3.617C10.8179 3.617 10.7571 3.65682 10.7273 3.71456C10.7014 3.75338 10.6884 3.79718 10.6417 3.79718L10.6387 3.80017C10.6875 3.80017 10.6994 3.84497 10.7273 3.88479C10.7571 3.94253 10.8179 3.98334 10.8866 3.98334C10.9363 3.98334 10.9821 3.95646 11.015 3.92361L11.014 3.92262Z" fill="#00643D"/>
<path d="M3.37112 11.7729C3.5314 11.7769 3.64787 11.6933 3.7066 11.5479C3.77629 11.7301 3.9057 11.8416 4.11376 11.8456C4.19539 11.8466 4.37857 11.8496 4.51993 11.6773C4.62844 11.542 4.65631 11.3608 4.6573 11.2682C4.66427 10.863 4.40445 10.6818 4.13168 10.6779C4.00426 10.6749 3.81511 10.7207 3.71457 10.9506C3.67674 10.875 3.60506 10.7296 3.36117 10.7257C3.16306 10.7217 2.92116 10.867 2.91618 11.2453C2.90821 11.6554 3.19591 11.7699 3.37212 11.7729H3.37112ZM4.15259 10.9068C4.41739 10.9118 4.47015 11.101 4.46716 11.2572C4.46219 11.5559 4.25811 11.6176 4.12272 11.6166C3.96543 11.6136 3.81113 11.4972 3.81611 11.2582C3.81909 11.0611 3.92263 10.9029 4.15259 10.9068ZM3.36515 10.9467C3.51945 10.9486 3.63592 11.0701 3.63194 11.2563C3.62995 11.4106 3.52741 11.5549 3.36614 11.5509C3.25863 11.5489 3.10234 11.4882 3.10632 11.2622C3.1103 11.0094 3.26162 10.9437 3.36614 10.9457L3.36515 10.9467Z" fill="#00643D"/>
<path d="M5.28973 5.97708C5.33353 5.92233 5.35742 5.89147 5.3624 5.88748L5.451 5.97509L5.14936 6.28767L5.2728 6.40913L5.53263 6.13935C5.55254 6.21401 5.55951 6.30161 5.55254 6.40216C5.54557 6.50171 5.52666 6.59528 5.49381 6.6809L5.68594 6.68388C5.70684 6.61718 5.71978 6.53854 5.72576 6.44795C5.72974 6.3713 5.72874 6.30261 5.72277 6.24089L5.96368 6.47781L6.09409 6.34342L5.84123 6.09554C5.92884 6.07663 6.03337 6.07464 6.15382 6.08658L6.30514 6.23591L5.7158 6.85013L5.83924 6.97158L6.31211 6.47981C6.32903 6.57338 6.3131 6.68488 6.2683 6.8133C6.22351 6.94072 6.15382 7.06516 6.06024 7.1886H6.27726C6.36188 7.06815 6.42161 6.93674 6.45745 6.79438C6.48731 6.66796 6.49826 6.54451 6.4893 6.41908L6.77999 6.7028L6.90841 6.56741L6.61573 6.27971C6.72623 6.27971 6.85465 6.25482 7.00696 6.20704C7.12443 6.1712 7.23891 6.12541 7.34942 6.07265L7.34643 5.85762C7.25186 5.91834 7.14235 5.9731 7.01791 6.02088C6.88153 6.07165 6.76605 6.09953 6.67148 6.1045L7.13538 5.62268L7.01194 5.50123L6.43356 6.10251L6.36487 6.03581C6.35491 6.02586 6.34695 6.00296 6.34097 5.96912C6.33699 5.95418 6.33401 5.94423 6.33002 5.94025C6.32306 5.93328 6.30315 5.93825 6.27129 5.95617C6.23943 5.9731 6.2016 5.99998 6.1588 6.03283L6.14287 5.88251C6.08712 5.88052 6.02938 5.88251 5.96766 5.88549C5.89001 5.89047 5.81535 5.90341 5.74168 5.92034L5.97563 5.67644L5.85119 5.55499L5.57743 5.8407L5.4739 5.73816C5.52068 5.67943 5.5605 5.62865 5.59136 5.58585C5.62222 5.54304 5.65209 5.49924 5.67797 5.45345L5.45598 5.43652C5.40322 5.52512 5.33851 5.62368 5.25787 5.73119C5.17823 5.8387 5.09859 5.93328 5.01895 6.01491L4.99805 6.03681L5.19814 6.08161C5.21208 6.06667 5.24095 6.03283 5.28575 5.97708H5.28973Z" fill="#00643D"/>
<path d="M4.50949 15.15L4.68171 15.0674L4.31139 14.273L4.7514 14.0629L5.15358 14.925L5.3258 14.8424L4.83303 13.7842L3.39453 14.4691L3.89527 15.5412L4.06649 15.4596L3.65834 14.5836L4.13916 14.3546L4.50949 15.15Z" fill="#00643D"/>
<path d="M3.54032 12.8844L3.48158 12.4892L4.6722 12.31L4.63935 12.082L2.96094 12.3369L2.98582 12.5011C3.26954 12.529 3.31235 12.6375 3.37208 12.9083L3.53932 12.8834L3.54032 12.8844Z" fill="#00643D"/>
<path d="M3.49774 10.1519C3.65304 10.1857 3.78444 10.127 3.86906 9.99558C3.90291 10.1877 4.00942 10.3231 4.21151 10.3669C4.29215 10.3838 4.47134 10.4236 4.64256 10.2803C4.77496 10.1698 4.83668 9.99757 4.8556 9.90499C4.93922 9.51077 4.71922 9.28181 4.45242 9.22407C4.32798 9.19719 4.13287 9.20515 3.99051 9.41023C3.96861 9.3286 3.9258 9.1723 3.68688 9.12054C3.49376 9.07873 3.22995 9.1723 3.14931 9.54562C3.0647 9.94481 3.32452 10.115 3.49674 10.1519H3.49774ZM4.03232 9.73177C4.07314 9.54064 4.20554 9.40525 4.42953 9.45403C4.68935 9.51077 4.70428 9.70689 4.67342 9.85721C4.61071 10.1489 4.39866 10.1728 4.26626 10.1439C4.11296 10.1101 3.98255 9.96771 4.03232 9.73177ZM3.33448 9.59738C3.38724 9.35249 3.54851 9.31765 3.64905 9.33855C3.80037 9.37041 3.89096 9.51376 3.85214 9.69494C3.81928 9.84725 3.69286 9.96771 3.53457 9.93286C3.42805 9.90997 3.2857 9.82137 3.33348 9.59738H3.33448Z" fill="#00643D"/>
<path d="M4.31728 8.83522C4.52036 8.92481 4.72344 8.98056 4.9086 8.9507C5.12961 8.91386 5.25703 8.76454 5.30879 8.64309C5.40237 8.42209 5.38346 8.30263 5.3287 8.17918C5.25902 8.0209 5.16246 7.92931 5.00318 7.85963C4.63186 7.69836 4.37999 7.94325 4.29936 8.13538C4.20678 8.35141 4.26551 8.5067 4.33022 8.59331L4.32325 8.5963C4.15999 8.52462 3.77573 8.27873 3.90713 7.97013C3.9798 7.7999 4.11519 7.76904 4.26253 7.80388L4.34515 7.61175C4.01962 7.49428 3.81156 7.70831 3.73392 7.8885C3.53283 8.35937 3.97682 8.68589 4.31728 8.83522ZM4.46063 8.2409C4.56516 7.99701 4.78715 8.00796 4.92453 8.06669C5.13458 8.15828 5.22916 8.34344 5.14852 8.53159C5.04997 8.76155 4.82697 8.78544 4.66172 8.71078C4.47855 8.63214 4.36805 8.45792 4.46063 8.2409Z" fill="#00643D"/>
</g>
</g>
<defs>
<clipPath id="clip0_4393_55372">
<rect width="23" height="23" fill="white"/>
</clipPath>
<clipPath id="clip1_4393_55372">
<rect width="23" height="22.7242" fill="white"/>
</clipPath>
</defs>
</svg>
