<svg width="23" height="23" viewBox="0 0 23 23" fill="none" xmlns="http://www.w3.org/2000/svg">
<g clip-path="url(#clip0_4956_56290)">
<path d="M9.03958 15.5951V15.7286C9.03958 15.7419 9.04166 15.7531 9.04684 15.7633C9.05203 15.7725 9.05722 15.7786 9.06344 15.7806C9.06448 15.7816 9.07382 15.7827 9.09042 15.7837C9.10702 15.7847 9.11532 15.7857 9.11635 15.7857C9.11635 15.7857 9.12569 15.7857 9.14125 15.7837C9.15681 15.7827 9.16615 15.7816 9.16719 15.7806C9.17445 15.7765 9.18067 15.7755 9.1869 15.7755C9.19312 15.7755 9.1952 15.7684 9.1952 15.7531C9.1952 15.7398 9.19416 15.7256 9.19312 15.7103C9.19105 15.696 9.18897 15.6828 9.18482 15.6715C9.17964 15.6511 9.16822 15.6348 9.15163 15.6236C9.13503 15.6124 9.11635 15.5992 9.0956 15.5839C8.99497 15.5125 8.92858 15.4595 8.89849 15.4258C8.8684 15.3922 8.85284 15.3504 8.85284 15.3025V15.2179C8.85284 15.1547 8.87359 15.1078 8.91509 15.0772C8.95659 15.0466 9.00846 15.0313 9.07071 15.0303H9.17341C9.23462 15.0313 9.28546 15.0486 9.32592 15.0833C9.36638 15.1179 9.38609 15.1659 9.38609 15.225V15.3912H9.20142V15.2913C9.20142 15.2576 9.19935 15.2352 9.19416 15.224C9.18897 15.2117 9.18275 15.2046 9.17341 15.1995C9.17341 15.1985 9.16407 15.1975 9.14748 15.1954C9.13088 15.1954 9.12154 15.1934 9.1205 15.1934C9.1205 15.1934 9.1122 15.1934 9.09768 15.1914C9.08316 15.1903 9.07278 15.1914 9.06759 15.1944C9.06033 15.1995 9.05411 15.2026 9.04788 15.2056C9.04269 15.2087 9.03958 15.2199 9.03958 15.2393C9.03958 15.2525 9.03958 15.2597 9.03958 15.2607C9.03958 15.2607 9.03958 15.2668 9.03958 15.277C9.04166 15.3066 9.06033 15.3331 9.09457 15.3535C9.1288 15.3738 9.18586 15.4116 9.26678 15.4646C9.29272 15.4819 9.31969 15.5094 9.3477 15.5492C9.37571 15.5879 9.39024 15.6226 9.39024 15.6532V15.7245C9.39024 15.7867 9.36949 15.8387 9.32695 15.8805C9.28546 15.9223 9.23255 15.9448 9.16822 15.9468H9.06448C9.00327 15.9448 8.9514 15.9264 8.9099 15.8917C8.8684 15.8571 8.84766 15.8102 8.84766 15.7521V15.5971H9.04166L9.03958 15.5951Z" fill="#004898"/>
<path d="M9.57422 14.8368V14.6299H9.76822V14.8368H9.57422ZM9.57422 15.9348V15.0387H9.76822V15.9348H9.57422Z" fill="#004898"/>
<path d="M10.3047 15.9349V15.2498C10.3047 15.2366 10.3026 15.2264 10.2985 15.2182C10.2943 15.2091 10.2881 15.205 10.2798 15.2029C10.2798 15.2029 10.2705 15.2009 10.2539 15.2009C10.2373 15.2009 10.2279 15.2009 10.2269 15.2009C10.2269 15.2009 10.2175 15.2009 10.1999 15.2009C10.1833 15.2009 10.174 15.2019 10.1719 15.2029C10.1657 15.205 10.1595 15.2111 10.1553 15.2193C10.1512 15.2284 10.1491 15.2376 10.1491 15.2478V15.9339H9.95508V15.0398H10.1491V15.0745C10.1595 15.0633 10.175 15.0531 10.1947 15.0459C10.2144 15.0378 10.2352 15.0337 10.2559 15.0327C10.258 15.0317 10.2673 15.0307 10.2839 15.0317C10.3016 15.0317 10.3109 15.0327 10.313 15.0327C10.3161 15.0327 10.3265 15.0327 10.3431 15.0317C10.3597 15.0317 10.3701 15.0317 10.3732 15.0327C10.4064 15.0357 10.4354 15.05 10.4603 15.0755C10.4852 15.101 10.4977 15.1357 10.4977 15.1815V15.9339H10.3047V15.9349Z" fill="#004898"/>
<path d="M11.0274 15.4127V15.2445C11.0274 15.2323 11.0253 15.221 11.0211 15.2129C11.017 15.2047 11.0118 15.1986 11.0045 15.1945C11.0045 15.1945 10.9952 15.1925 10.9776 15.1915C10.9599 15.1915 10.9506 15.1915 10.9485 15.1915C10.9485 15.1915 10.9392 15.1915 10.9215 15.1915C10.9049 15.1915 10.8956 15.1935 10.8935 15.1945C10.8873 15.1966 10.8811 15.2027 10.8769 15.2119C10.8728 15.221 10.8707 15.2323 10.8707 15.2445V15.7267C10.8707 15.74 10.8728 15.7502 10.8769 15.7593C10.8811 15.7685 10.8863 15.7746 10.8925 15.7777C10.8946 15.7787 10.9029 15.7797 10.9205 15.7818C10.9371 15.7818 10.9464 15.7828 10.9485 15.7828C10.9506 15.7828 10.9589 15.7828 10.9755 15.7818C10.991 15.7808 11.0004 15.7797 11.0004 15.7777C11.0076 15.7757 11.0139 15.7695 11.0191 15.7604C11.0242 15.7512 11.0274 15.74 11.0274 15.7257V15.5616H11.2203V15.7318C11.2203 15.7889 11.2006 15.8389 11.1601 15.8796C11.1197 15.9204 11.0699 15.9418 11.0097 15.9449H10.8966C10.8334 15.9408 10.7815 15.9184 10.74 15.8766C10.6985 15.8338 10.6777 15.7828 10.6777 15.7216V15.2496C10.6777 15.1884 10.6974 15.1374 10.7379 15.0956C10.7784 15.0539 10.8292 15.0304 10.8904 15.0273H11.0108C11.072 15.0314 11.1218 15.0539 11.1612 15.0926C11.2006 15.1313 11.2203 15.1813 11.2203 15.2394V15.4127H11.0274Z" fill="#004898"/>
<path d="M11.5952 15.5544V15.7277C11.5952 15.7409 11.5973 15.7522 11.6024 15.7613C11.6076 15.7715 11.6128 15.7776 11.6211 15.7797C11.6232 15.7807 11.6315 15.7817 11.6481 15.7838C11.6647 15.7838 11.673 15.7848 11.674 15.7848C11.6751 15.7848 11.6844 15.7848 11.701 15.7838C11.7176 15.7827 11.7259 15.7817 11.7269 15.7797C11.7342 15.7776 11.7404 15.7715 11.7456 15.7613C11.7508 15.7522 11.7529 15.7409 11.7529 15.7277V15.6064H11.9448V15.7328C11.9448 15.7899 11.9241 15.8398 11.8836 15.8806C11.8431 15.9214 11.7913 15.9428 11.729 15.9459H11.619C11.5578 15.9418 11.506 15.9194 11.4655 15.8776C11.425 15.8347 11.4043 15.7838 11.4043 15.7226V15.2506C11.4043 15.1894 11.424 15.1384 11.4634 15.0966C11.5029 15.0548 11.5516 15.0314 11.6118 15.0283H11.7342C11.7944 15.0314 11.8442 15.0538 11.8846 15.0936C11.9251 15.1333 11.9448 15.1833 11.9448 15.2404V15.5554H11.5962L11.5952 15.5544ZM11.7529 15.2445C11.7529 15.2322 11.7508 15.221 11.7467 15.2128C11.7425 15.2047 11.7363 15.1986 11.729 15.1945C11.729 15.1945 11.7197 15.1925 11.702 15.1914C11.6854 15.1914 11.6761 15.1914 11.674 15.1914C11.674 15.1914 11.6647 15.1914 11.6481 15.1914C11.6315 15.1914 11.6222 15.1935 11.6211 15.1945C11.6139 15.1965 11.6076 15.2027 11.6024 15.2118C11.5973 15.221 11.5952 15.2322 11.5952 15.2445V15.3964H11.7529V15.2445Z" fill="#004898"/>
<path d="M12.4003 15.9322V15.2746H12.3184V15.1451H12.337C12.3484 15.1451 12.3547 15.1451 12.3567 15.1451C12.3754 15.139 12.3899 15.1247 12.4024 15.1013C12.4138 15.0789 12.42 15.0575 12.42 15.0381H12.5466V15.9332H12.3993L12.4003 15.9322Z" fill="#004898"/>
<path d="M12.815 15.5958V15.7855C12.815 15.7916 12.8171 15.7977 12.8202 15.8028C12.8233 15.8079 12.8285 15.8109 12.8337 15.813C12.8337 15.813 12.841 15.815 12.8524 15.815C12.8638 15.815 12.87 15.816 12.8711 15.816C12.8721 15.816 12.8783 15.816 12.8908 15.816C12.9022 15.816 12.9094 15.815 12.9105 15.814C12.9157 15.812 12.9198 15.8089 12.9219 15.8028C12.925 15.7967 12.926 15.7916 12.926 15.7865V15.5194C12.926 15.5194 12.9167 15.5285 12.9084 15.5326C12.9001 15.5367 12.8908 15.5387 12.8794 15.5398C12.8773 15.5398 12.869 15.5408 12.8555 15.5408H12.7953C12.759 15.5387 12.7289 15.5255 12.7061 15.501C12.6833 15.4766 12.6719 15.4419 12.6719 15.3981V15.1972C12.6719 15.1473 12.6864 15.1085 12.7154 15.081C12.7445 15.0535 12.7818 15.0382 12.8275 15.0361H12.9094C12.9572 15.0382 12.9956 15.0524 13.0246 15.081C13.0537 15.1085 13.0682 15.1473 13.0682 15.1962V15.7671C13.0682 15.815 13.0537 15.8548 13.0236 15.8874C12.9935 15.92 12.9551 15.9374 12.9094 15.9394H12.8285C12.7839 15.9374 12.7476 15.92 12.7175 15.8884C12.6874 15.8568 12.6729 15.8171 12.6729 15.7691V15.5958H12.8161H12.815ZM12.926 15.1891C12.926 15.1809 12.925 15.1748 12.9219 15.1707C12.9188 15.1656 12.9146 15.1626 12.9084 15.1626C12.9084 15.1615 12.9022 15.1615 12.8908 15.1605C12.8794 15.1605 12.8731 15.1605 12.8721 15.1605H12.8534C12.842 15.1605 12.8358 15.1605 12.8348 15.1605C12.8296 15.1626 12.8254 15.1656 12.8223 15.1707C12.8192 15.1748 12.8171 15.1809 12.8171 15.188V15.393C12.8171 15.3991 12.8182 15.4052 12.8213 15.4103C12.8244 15.4144 12.8275 15.4184 12.8316 15.4205C12.8337 15.4205 12.8399 15.4205 12.8514 15.4215C12.8628 15.4215 12.87 15.4215 12.8721 15.4215C12.8731 15.4215 12.8794 15.4215 12.8918 15.4215C12.9032 15.4215 12.9105 15.4215 12.9115 15.4195C12.9167 15.4174 12.9209 15.4144 12.9229 15.4093C12.926 15.4042 12.9271 15.3981 12.9271 15.3919V15.188L12.926 15.1891Z" fill="#004898"/>
<path d="M13.5581 15.8191V15.9322H13.4149V15.8191H13.1836V15.6926L13.361 15.0371H13.5581V15.6855H13.6567V15.8191H13.5581ZM13.4149 15.2879L13.3153 15.6845H13.4149V15.2879Z" fill="#004898"/>
<path d="M13.938 15.9322H13.7803L13.9961 15.1615H13.7637V15.0371H14.1548V15.1645L13.939 15.9332L13.938 15.9322Z" fill="#004898"/>
<path d="M12.2132 11.2276L12.8263 8.42808H11.8283L11.3562 10.8371V8.42808H10.2939V12.4418C10.9247 12.2257 11.6094 11.979 12.3065 11.7037L12.2132 11.2276ZM13.9011 10.9901C13.9011 10.7658 14.0484 10.5762 14.2528 10.5078V8.41992H13.1873V11.3438C13.427 11.2429 13.6656 11.1379 13.9031 11.0308C13.9031 11.0166 13.9011 11.0033 13.9011 10.9901ZM18.3164 9.12745C18.2085 8.83486 17.1918 8.87971 15.6606 9.20799V8.41992H14.5878V10.5078C14.6584 10.5313 14.7217 10.569 14.7746 10.619C14.9956 10.5089 15.2124 10.3977 15.4251 10.2825C15.6139 10.1826 15.6606 10.0093 15.6606 9.91348V9.3446C16.8152 9.10196 17.5788 9.05201 17.6535 9.24367C17.7209 9.41903 17.2063 9.78401 16.3152 10.2418C15.922 10.4436 15.4541 10.6648 14.9302 10.8942C14.9364 10.9248 14.9395 10.9574 14.9395 10.9901C14.9395 11.2144 14.7922 11.404 14.5878 11.4723V13.6214C14.5878 13.7458 14.537 13.8304 14.4156 13.8304C14.2943 13.8304 14.2517 13.7458 14.2517 13.6214V11.4723C14.149 11.4376 14.0619 11.3734 13.9996 11.2888C13.2713 11.5875 12.4704 11.8954 11.6322 12.1941C10.963 12.4327 10.3115 12.6498 9.69736 12.8435C9.69321 12.8445 9.68906 12.8466 9.68388 12.8476C9.31247 12.9638 8.95456 13.0709 8.61428 13.1687V13.6061C8.61428 13.9048 8.51261 13.9048 8.30927 13.9048V9.15192C8.51261 9.15192 8.61428 9.15192 8.61428 9.45063V12.9852C8.93485 12.8873 9.29484 12.7742 9.68388 12.6467V9.37315C9.68388 8.40871 8.77093 8.43521 8.77093 8.43521H7.24175V12.1533C5.57044 12.9689 4.56516 13.6795 4.6855 14.0037C4.79132 14.2892 5.76755 14.2626 7.24175 13.9629V14.6337H8.77819C8.77819 14.6337 9.68492 14.6704 9.68492 13.6611V13.3441C9.8841 13.285 10.0874 13.2228 10.2929 13.1585V14.6307H11.3552V12.8099C11.3977 12.7956 11.4403 12.7803 11.4828 12.766L11.7837 14.6307H12.8792L12.4455 12.4194C12.6987 12.3256 12.9456 12.2298 13.1873 12.135V13.7029C13.1873 14.5175 13.8876 14.6664 14.425 14.6664C14.9624 14.6664 15.6595 14.5155 15.6595 13.6938V11.0523C17.392 10.2051 18.4378 9.45879 18.3154 9.12745H18.3164ZM7.24175 13.5286C6.09123 13.7967 5.34013 13.8691 5.27165 13.6764C5.19592 13.4623 5.96985 12.9332 7.24175 12.3011V13.5286Z" fill="#004898"/>
<path d="M1.77344 10.0764L1.95499 9.57483C1.98404 9.49429 2.03487 9.43007 2.10749 9.38317C2.18011 9.33525 2.2683 9.33016 2.371 9.36686L3.30677 9.69412C3.40222 9.72674 3.4655 9.78383 3.49662 9.86131C3.52775 9.93981 3.52775 10.0224 3.49662 10.1101L3.31403 10.6147L1.77447 10.0754L1.77344 10.0764ZM2.23613 9.66149C2.21746 9.65435 2.19775 9.65537 2.17804 9.66149C2.15833 9.66863 2.14277 9.68188 2.13239 9.69921C2.13032 9.70125 2.12098 9.7247 2.10542 9.77058C2.08986 9.81645 2.08156 9.84092 2.08052 9.84296L3.22585 10.2436C3.22585 10.2436 3.23519 10.2181 3.25179 10.1733C3.26839 10.1284 3.27565 10.104 3.27565 10.1019C3.27876 10.0805 3.27565 10.0611 3.26527 10.0438C3.25594 10.0265 3.24038 10.0132 3.22066 10.0061L2.23613 9.66149Z" fill="#004898"/>
<path d="M3.91715 9.29329L3.73249 9.5553L2.56641 8.38492L2.79672 8.05664L4.32383 8.71421L4.13916 8.97623L3.0789 8.48993L3.91715 9.29227V9.29329ZM3.57583 9.01089L3.39013 8.88447L3.58413 8.60921L3.76983 8.7346L3.57583 9.01089Z" fill="#004898"/>
<path d="M4.99646 8.0719L4.08144 7.61109L4.73503 8.30842L4.5348 8.48989L3.42578 7.30626L3.69863 7.05954L4.60431 7.56113L3.93516 6.84647L4.13435 6.66602L5.24337 7.84965L4.9975 8.0719H4.99646Z" fill="#004898"/>
<path d="M5.99369 7.34973L5.46252 6.97047L5.79139 7.47716L5.51854 7.64844L4.63672 6.29353L4.90957 6.12225L5.2042 6.57491L5.12224 5.9887L5.39716 5.81641L5.51647 6.61161L6.31218 7.15194L5.99369 7.35177V7.34973Z" fill="#004898"/>
<path d="M6.06604 5.81166C6.03077 5.73418 6.02973 5.65568 6.065 5.57616C6.10028 5.49664 6.16045 5.43445 6.24863 5.38959C6.25278 5.38755 6.2673 5.38042 6.29324 5.37022C6.31814 5.35901 6.33266 5.35289 6.33578 5.35187C6.33889 5.34983 6.35237 5.34372 6.37727 5.33352C6.40113 5.32333 6.41462 5.31721 6.41877 5.31517C6.5111 5.27847 6.60032 5.27337 6.68539 5.29988C6.77046 5.32638 6.83063 5.37838 6.86591 5.45586L7.29333 6.38564C7.33172 6.46822 7.33172 6.5457 7.29333 6.61706C7.25598 6.68843 7.18959 6.74654 7.09726 6.79038C7.09311 6.79242 7.07858 6.79853 7.05472 6.80873C7.03086 6.81892 7.01737 6.82504 7.01322 6.82708C7.00907 6.82912 6.99455 6.83524 6.97173 6.84543C6.94786 6.85563 6.93438 6.86174 6.93023 6.86378C6.83893 6.89946 6.75179 6.90558 6.66879 6.88213C6.5858 6.85868 6.5277 6.81179 6.49554 6.74042L6.06812 5.81064L6.06604 5.81166ZM6.55779 5.54965C6.5526 5.53742 6.54534 5.53028 6.536 5.52519C6.52666 5.52111 6.51629 5.52009 6.50384 5.52519C6.50177 5.52519 6.48932 5.52926 6.46546 5.53844C6.44159 5.54863 6.42914 5.55373 6.42707 5.55475C6.425 5.55475 6.41151 5.56189 6.38868 5.57208C6.36482 5.58228 6.35237 5.58839 6.35134 5.59145C6.342 5.59757 6.33578 5.60573 6.3337 5.61592C6.33163 5.62612 6.33266 5.63631 6.33681 5.64651L6.7881 6.6293C6.79225 6.63847 6.79951 6.64561 6.80885 6.65071C6.81818 6.6558 6.82856 6.65784 6.83893 6.6558C6.84205 6.6558 6.85553 6.65173 6.88043 6.64255C6.90533 6.63338 6.91882 6.62828 6.92089 6.62726C6.92297 6.62726 6.93541 6.62012 6.95928 6.60789C6.9821 6.59565 6.99455 6.58852 6.99559 6.5875C7.00492 6.58036 7.01011 6.57119 7.01219 6.56099C7.0153 6.54978 7.01426 6.5406 7.01011 6.53143L6.55986 5.55067L6.55779 5.54965Z" fill="#004898"/>
<path d="M7.37486 5.26829C7.34996 5.18673 7.3593 5.10924 7.40391 5.03482C7.44852 4.9604 7.51699 4.90636 7.60932 4.87272C7.61347 4.8717 7.62903 4.8666 7.65601 4.85845C7.68194 4.85029 7.6975 4.84621 7.70062 4.84519C7.70373 4.84519 7.71825 4.8401 7.74419 4.83194C7.76909 4.8248 7.78361 4.81971 7.78776 4.81869C7.88424 4.79422 7.97242 4.79932 8.05334 4.83704C8.13426 4.87374 8.18717 4.93287 8.21311 5.01443L8.51812 5.99009C8.54509 6.07674 8.53575 6.15321 8.48803 6.21947C8.44135 6.28574 8.36873 6.33468 8.27121 6.3673C8.26602 6.36832 8.25149 6.37342 8.2266 6.38055C8.2017 6.38769 8.18717 6.39279 8.18302 6.39381C8.17887 6.39483 8.16331 6.39992 8.13945 6.40706C8.11455 6.4142 8.10003 6.41929 8.09588 6.42031C8.00043 6.44478 7.91329 6.43968 7.83444 6.40706C7.7556 6.37342 7.70373 6.3204 7.6809 6.24496L7.3759 5.2693L7.37486 5.26829ZM7.89669 5.06846C7.89254 5.05623 7.88632 5.04807 7.87802 5.04196C7.86972 5.03686 7.85934 5.03482 7.84689 5.03686C7.84482 5.03584 7.83237 5.0389 7.80747 5.04502C7.78257 5.05215 7.76909 5.05521 7.76701 5.05623C7.76494 5.05623 7.75145 5.06133 7.72655 5.06846C7.70165 5.0756 7.6892 5.0807 7.68713 5.08274C7.67675 5.08783 7.67053 5.09395 7.66638 5.10415C7.66223 5.11434 7.66223 5.12454 7.66638 5.13575L7.98902 6.16646C7.99214 6.17564 7.99836 6.18379 8.00666 6.18991C8.016 6.19603 8.02533 6.19908 8.03571 6.19908C8.03882 6.19908 8.05231 6.19704 8.07824 6.19093C8.10418 6.18481 8.11766 6.18175 8.12078 6.18073C8.12285 6.18073 8.13634 6.17462 8.16124 6.16544C8.18614 6.15627 8.19859 6.15117 8.19962 6.14913C8.20896 6.14301 8.21622 6.13486 8.22037 6.12466C8.22452 6.11447 8.22452 6.10529 8.22141 6.0951L7.8998 5.06643L7.89669 5.06846Z" fill="#004898"/>
<path d="M9.52935 6.07112L9.18388 5.52263L9.29385 6.11394L8.97432 6.17103L8.67969 4.58877L8.99922 4.53168L9.09777 5.05978L9.2482 4.48682L9.56877 4.42871L9.3727 5.20964L9.90075 6.00485L9.52935 6.07214V6.07112Z" fill="#004898"/>
<path d="M11.2449 4.29718L11.2636 5.65005C11.2636 5.66126 11.2677 5.67145 11.275 5.67859C11.2822 5.68573 11.2926 5.69082 11.3051 5.69388C11.3071 5.6949 11.3217 5.69592 11.3466 5.6949C11.3715 5.6949 11.3849 5.6949 11.386 5.6949C11.388 5.6949 11.4026 5.6949 11.4285 5.6949C11.4544 5.6949 11.4679 5.69388 11.469 5.69184C11.4793 5.68879 11.4887 5.68369 11.4959 5.67553C11.5032 5.66738 11.5074 5.6582 11.5063 5.64699L11.4876 4.29412L11.8113 4.29004L11.83 5.6215C11.83 5.7102 11.7989 5.78054 11.7346 5.83253C11.6692 5.88351 11.5841 5.91104 11.4783 5.91613C11.4742 5.91613 11.4596 5.91613 11.4327 5.91613C11.4067 5.91613 11.3912 5.91613 11.387 5.91613C11.3849 5.91613 11.3704 5.91613 11.3434 5.91613C11.3175 5.91613 11.303 5.91613 11.2999 5.91613C11.2034 5.91511 11.1183 5.89167 11.0457 5.84681C10.9731 5.80195 10.9368 5.7316 10.9347 5.63271L10.916 4.29921L11.2418 4.29514L11.2449 4.29718Z" fill="#004898"/>
<path d="M12.8532 5.97028L12.5907 4.99259L12.4984 5.93664L12.2266 5.91115L12.3822 4.31055L12.7505 4.34521L12.9756 5.34228L13.07 4.37579L13.3397 4.40128L13.1841 6.00291L12.8521 5.97232L12.8532 5.97028Z" fill="#004898"/>
<path d="M13.5898 6.06939L13.8928 4.49121L14.2113 4.55034L13.9083 6.12852L13.5898 6.06939Z" fill="#004898"/>
<path d="M14.9878 6.40252L14.5469 6.27712L14.745 4.65918L15.048 4.74482L14.9224 5.81631L15.3955 4.84371L15.7015 4.93037L14.9878 6.4015V6.40252Z" fill="#004898"/>
<path d="M15.5831 6.59737L16.2252 5.12012L16.9297 5.41577L16.8477 5.60438L16.441 5.4331L16.2678 5.83274L16.6475 5.99179L16.5697 6.1702L16.19 6.01116L15.9628 6.53416L16.3726 6.70645L16.2906 6.89506L15.582 6.59737H15.5831Z" fill="#004898"/>
<path d="M17.0976 7.33955C17.1101 7.31509 17.1257 7.28858 17.1443 7.26003C17.164 7.23149 17.1972 7.17847 17.2439 7.10099L17.2699 7.05919L17.2958 7.01739C17.3248 6.96846 17.3601 6.91137 17.3995 6.8451C17.439 6.77883 17.4587 6.74519 17.4597 6.74417C17.4711 6.72582 17.4732 6.70543 17.4659 6.68402C17.4597 6.66261 17.4462 6.64426 17.4255 6.63101C17.4244 6.63101 17.4037 6.61775 17.3622 6.5943C17.3207 6.56984 17.2989 6.5576 17.2968 6.55658L16.8943 7.22129L16.6152 7.05817L17.4524 5.67676L17.9131 5.9459C17.9909 5.99178 18.049 6.04989 18.0853 6.12024C18.1216 6.19058 18.1154 6.26806 18.0645 6.35166L17.9566 6.52906C17.9297 6.57391 17.8871 6.60756 17.8301 6.62897C17.772 6.65038 17.7139 6.65547 17.6537 6.64426C17.6962 6.68504 17.7211 6.73703 17.7274 6.80024C17.7346 6.86345 17.7222 6.92054 17.69 6.97356L17.5406 7.22027C17.4836 7.31407 17.4431 7.37931 17.4192 7.41602C17.3954 7.45272 17.3809 7.48228 17.3757 7.50573L17.0966 7.34261L17.0976 7.33955ZM17.7855 6.20486C17.7969 6.18651 17.799 6.16612 17.7938 6.14267C17.7875 6.11922 17.7751 6.10087 17.7543 6.08761C17.7533 6.08761 17.7326 6.07436 17.6911 6.05091C17.6496 6.02644 17.6278 6.01421 17.6257 6.01319L17.3985 6.38837C17.3985 6.38837 17.4224 6.40264 17.4639 6.42609C17.5054 6.44953 17.5261 6.46279 17.5271 6.46279C17.55 6.47298 17.5728 6.47502 17.5956 6.47094C17.6184 6.46585 17.6361 6.45361 17.6475 6.43424L17.7865 6.20588L17.7855 6.20486Z" fill="#004898"/>
<path d="M18.2862 7.41739L18.0746 7.66614C18.0652 7.67634 18.0611 7.68857 18.0611 7.70081C18.0611 7.71304 18.0652 7.72425 18.0735 7.73547C18.0746 7.73751 18.0849 7.7477 18.1036 7.76503C18.1223 7.78236 18.1326 7.79154 18.1347 7.79358C18.1368 7.79562 18.1492 7.80479 18.17 7.82009C18.1907 7.83538 18.2022 7.84252 18.2042 7.84252C18.2167 7.84863 18.2281 7.85067 18.2395 7.84761C18.2509 7.84455 18.2613 7.83844 18.2706 7.82722L18.3515 7.73241C18.3785 7.70081 18.3868 7.65085 18.3754 7.58356C18.364 7.51628 18.3578 7.4602 18.3547 7.41739C18.3453 7.21858 18.3401 7.08299 18.3412 7.01163C18.3412 6.94026 18.3619 6.88113 18.4013 6.83525L18.5165 6.7017C18.5725 6.63543 18.6462 6.60077 18.7364 6.59873C18.8267 6.59669 18.9118 6.62626 18.9916 6.68845C18.9937 6.69049 19.0051 6.69966 19.0248 6.71597C19.0435 6.73229 19.0549 6.74044 19.057 6.74248C19.0591 6.7435 19.0695 6.75267 19.0892 6.76899C19.1089 6.7853 19.1193 6.79345 19.1193 6.79345C19.1898 6.85361 19.2313 6.92497 19.2427 7.00551C19.2541 7.08707 19.2344 7.15639 19.1836 7.21655L18.9854 7.44797L18.7572 7.25936L18.9584 7.02386C18.9657 7.01469 18.9709 7.00449 18.974 6.99226C18.9771 6.98002 18.9761 6.96983 18.9709 6.96167C18.9709 6.95963 18.9605 6.95046 18.9408 6.93313C18.9211 6.91579 18.9097 6.90662 18.9087 6.90458C18.9055 6.90254 18.8952 6.89337 18.8755 6.87705C18.8568 6.86074 18.8454 6.85259 18.8423 6.85259C18.8288 6.84953 18.8174 6.84851 18.8059 6.85055C18.7956 6.85259 18.7821 6.86278 18.7676 6.88011L18.67 6.99633C18.6441 7.02896 18.6337 7.0677 18.6379 7.11358C18.642 7.15843 18.6462 7.20431 18.6493 7.24917C18.6607 7.44185 18.6711 7.58662 18.6815 7.68245C18.6918 7.77829 18.6742 7.85373 18.6275 7.90776L18.5383 8.01277C18.4802 8.08006 18.4055 8.11574 18.3142 8.1188C18.2229 8.12186 18.1358 8.09127 18.0538 8.02806C18.0507 8.02602 18.0403 8.01685 18.0206 8.00054C18.0009 7.98524 17.9905 7.97607 17.9884 7.97403C17.9853 7.97199 17.9739 7.96282 17.9552 7.9465C17.9366 7.93019 17.9252 7.92204 17.9221 7.91898C17.8484 7.85475 17.8048 7.78033 17.7913 7.69775C17.7778 7.61517 17.7965 7.54176 17.8494 7.47957L18.0631 7.23082L18.2883 7.41637L18.2862 7.41739Z" fill="#004898"/>
<path d="M18.582 8.51336L19.8104 7.4541L20.0241 7.69368L18.7957 8.75294L18.582 8.51336Z" fill="#004898"/>
<path d="M20.5343 8.7628L19.3205 9.49479L19.1504 9.22259L20.3642 8.49059L20.2376 8.28873L20.4171 8.18066L20.8393 8.85659L20.6599 8.96466L20.5333 8.7628H20.5343Z" fill="#004898"/>
<path d="M20.7138 10.3996L20.3206 10.3864L19.7594 10.5505L19.666 10.2426L20.2169 10.0816C20.2397 10.0734 20.2864 10.0469 20.3559 10.0031C20.4254 9.95921 20.4908 9.91741 20.553 9.87765C20.6059 9.84401 20.6889 9.78488 20.802 9.69924C20.9151 9.61258 21.0271 9.53612 21.1392 9.4668L21.2274 9.75837L20.6692 10.1407L21.356 10.1815L21.439 10.4557L20.7138 10.3996Z" fill="#004898"/>
<path d="M19.677 15.6196L18.9311 14.7092C18.8118 14.5634 18.6894 14.542 18.5254 14.6715L17.3262 15.6196L17.4735 15.799L18.6116 14.8999L19.3886 15.848L19.2008 15.9968L18.5918 15.2526L18.318 15.4687L18.9269 16.213L18.7132 16.3812L18.1032 15.6369L17.82 15.8612L18.43 16.6055L18.1924 16.7931L18.3439 16.9776L19.926 15.7267L19.7745 15.5421L19.677 15.6196Z" fill="#004898"/>
<path fill-rule="evenodd" clip-rule="evenodd" d="M11.8876 17.1504H12.2434V18.8938H11.8876V18.0221H11.7216V18.8938H11.3855V18.698L10.5638 18.7256C10.4186 18.7286 10.3117 18.6236 10.3086 18.488V17.1494H11.1769V17.3931H10.679V18.488L11.3803 18.4646V17.1494H11.7216V17.7632H11.8876V17.1494V17.1504Z" fill="#004898"/>
<path fill-rule="evenodd" clip-rule="evenodd" d="M7.10278 16.3409L7.02912 16.5734L8.47634 17.0148L8.35496 17.4022L6.84342 16.9404L6.77495 17.1545L7.52086 17.3818L7.43579 17.651L6.73449 17.4369L6.66602 17.654L8.1454 18.1057L8.02713 18.4788L8.39646 18.5909L8.52822 18.175C8.55726 18.0832 8.52822 17.9833 8.40995 17.9476L7.83832 17.7723L7.92339 17.5031L8.75749 17.758L8.82492 17.5439L8.71081 17.5092L8.81974 17.1687C8.87991 16.9771 8.78446 16.8527 8.64441 16.8099L7.10278 16.3389V16.3409Z" fill="#004898"/>
<path fill-rule="evenodd" clip-rule="evenodd" d="M15.8947 16.8759L15.7764 16.4609L15.4164 16.5598L15.7079 17.5854L16.0679 17.4866L15.959 17.1032L16.2214 17.0319L16.1561 16.8035L15.8936 16.8759H15.8947ZM15.8843 17.6313L14.3043 18.0646L14.3686 18.292L15.8075 17.8974L15.904 18.2369L16.2661 18.137L16.1633 17.7781C16.1302 17.6619 16.0399 17.5885 15.8832 17.6303L15.8843 17.6313ZM14.0719 17.5793C14.1383 17.8148 14.4972 17.9229 14.8728 17.8199C15.2483 17.717 15.4984 17.4427 15.432 17.2072C15.3925 17.0655 15.2473 16.9717 15.0585 16.9391L15.3521 16.8585L15.2888 16.6424L14.8157 16.7719L14.7815 16.6516L14.3893 16.7607L14.4225 16.8789L13.9121 17.0196L13.9764 17.2358L14.2514 17.1603C14.1061 17.2847 14.0325 17.4386 14.0719 17.5793ZM14.6829 17.1491C14.8603 17.1002 15.0325 17.1654 15.0689 17.2939C15.1052 17.4213 14.991 17.5651 14.8136 17.613C14.6362 17.6619 14.464 17.5967 14.4277 17.4692C14.3914 17.3408 14.5045 17.198 14.6819 17.1491H14.6829Z" fill="#004898"/>
<path d="M4.3455 16.4297L3.71266 15.8853L3.96372 15.6039L3.66909 15.3501L3.42322 15.6264C3.3008 15.764 3.32051 15.8629 3.40039 15.9322L4.64013 16.9986L4.79886 16.8202L4.34757 16.4318L4.3455 16.4297ZM5.43066 16.1076L5.80725 15.6845L5.52818 15.4439L5.07171 15.9557L4.14424 15.2226L4.46999 14.8566L5.11943 15.4163L5.28231 15.2328L4.35484 14.4346L3.84649 15.0045C3.77283 15.087 3.76142 15.2094 3.86309 15.296L4.91298 16.133L4.68578 16.3879L4.96485 16.6285L5.26778 16.289L5.48149 16.4736L5.64541 16.2901L5.4317 16.1065L5.43066 16.1076Z" fill="#004898"/>
<path d="M0 11.5434C0 16.2534 5.15918 20.0857 11.5 20.0857C17.8408 20.0857 23 16.2534 23 11.5434C23 6.8333 17.8419 3 11.5 3C5.15814 3 0 6.83228 0 11.5434ZM0.135904 11.5434C0.135904 6.90569 5.23387 3.13355 11.5 3.13355C17.7661 3.13355 22.8641 6.90569 22.8641 11.5434C22.8641 16.1811 17.7661 19.9532 11.5 19.9532C5.23387 19.9532 0.135904 16.18 0.135904 11.5434Z" fill="#004898"/>
<path d="M0.408203 11.5431C0.408203 16.033 5.38479 19.6848 11.5005 19.6848C17.6162 19.6848 22.5928 16.0319 22.5928 11.5431C22.5928 7.05426 17.6172 3.40039 11.5005 3.40039C5.38376 3.40039 0.408203 7.05324 0.408203 11.5431ZM0.691424 11.5431C0.691424 7.20616 5.54041 3.67871 11.5005 3.67871C17.4606 3.67871 22.3106 7.20718 22.3106 11.5431C22.3106 15.879 17.4616 19.4075 11.5005 19.4075C5.53937 19.4075 0.691424 15.879 0.691424 11.5431Z" fill="#004898"/>
<path d="M0.408203 11.5431C0.408203 16.033 5.38479 19.6848 11.5005 19.6848C17.6162 19.6848 22.5928 16.0319 22.5928 11.5431C22.5928 7.05426 17.6172 3.40039 11.5005 3.40039C5.38376 3.40039 0.408203 7.05324 0.408203 11.5431ZM0.691424 11.5431C0.691424 7.20616 5.54041 3.67871 11.5005 3.67871C17.4606 3.67871 22.3106 7.20718 22.3106 11.5431C22.3106 15.879 17.4616 19.4075 11.5005 19.4075C5.53937 19.4075 0.691424 15.879 0.691424 11.5431Z" fill="#004898"/>
<path d="M21.0468 13.1018C21.0468 13.2466 20.9275 13.3638 20.7812 13.3638C20.6349 13.3638 20.5156 13.2466 20.5156 13.1018C20.5156 12.957 20.6349 12.8408 20.7812 12.8408C20.9275 12.8408 21.0468 12.9581 21.0468 13.1018Z" fill="#004898"/>
<path d="M1.95312 13.1018C1.95312 13.2466 2.07243 13.3638 2.21871 13.3638C2.36499 13.3638 2.48429 13.2466 2.48429 13.1018C2.48429 12.957 2.36499 12.8408 2.21871 12.8408C2.07243 12.8408 1.95312 12.9581 1.95312 13.1018Z" fill="#004898"/>
</g>
<defs>
<clipPath id="clip0_4956_56290">
<rect width="23" height="17.0857" fill="white" transform="translate(0 3)"/>
</clipPath>
</defs>
</svg>
