<svg width="23" height="23" viewBox="0 0 23 23" fill="none" xmlns="http://www.w3.org/2000/svg">
<g clip-path="url(#clip0_4927_60941)">
<path d="M11.4994 0.647461C5.50493 0.647461 0.646484 5.5075 0.646484 11.4994C0.646484 17.4913 5.50493 22.3533 11.4994 22.3533C17.4938 22.3533 22.3523 17.4953 22.3523 11.4994C22.3523 5.50345 17.4938 0.647461 11.4994 0.647461ZM11.4994 17.5217C8.17453 17.5217 5.47652 14.826 5.47652 11.4994C5.47652 8.17282 8.1725 5.47708 11.4994 5.47708C14.8262 5.47708 17.5222 8.17484 17.5222 11.4994C17.5222 14.8239 14.8262 17.5217 11.4994 17.5217Z" fill="#004E96"/>
<path d="M11.5 23C5.15867 23 0 17.8398 0 11.499C0 5.15822 5.15867 0 11.5 0C17.8413 0 23 5.15822 23 11.499C23 17.8398 17.8413 22.998 11.5 22.998V23ZM11.5 0.30426C5.32704 0.30426 0.306315 5.32657 0.306315 11.499C0.306315 17.6714 5.32704 22.6937 11.5 22.6937C17.673 22.6937 22.6957 17.6714 22.6957 11.499C22.6957 5.32657 17.673 0.30426 11.5 0.30426Z" fill="#004E96"/>
<path d="M4.19931 11.531C4.39608 11.3788 4.50156 11.1638 4.51982 10.8717C4.52996 10.6892 4.49548 10.4579 4.45288 10.3464L2.95782 10.2551L2.91522 10.9306L3.35947 10.9569L3.37367 10.7298L4.05122 10.7703C4.05933 10.7906 4.06136 10.8231 4.0573 10.8677C4.0431 11.0989 3.78345 11.32 3.10996 11.2795C2.38373 11.2348 2.14639 10.9529 2.16667 10.6182C2.17479 10.4985 2.20116 10.4072 2.24579 10.3342L1.78124 10.2227C1.73458 10.2997 1.68387 10.4336 1.67373 10.6243C1.64127 11.1659 2.03279 11.7115 3.0491 11.7866C3.52987 11.8231 3.95385 11.7338 4.19931 11.531Z" fill="white"/>
<path d="M4.68853 9.73148L4.11039 9.43128L4.2463 8.99923L4.88936 9.08848L5.03339 8.63412L2.21164 8.25684L2.03516 8.8187L4.54451 10.1838L4.68853 9.73148ZM3.7209 9.25684L3.18942 8.99112C3.04133 8.91607 2.77964 8.79436 2.60924 8.71323L2.6133 8.70308C2.79587 8.73757 3.07379 8.7903 3.24622 8.81667L3.83045 8.91404L3.7209 9.25684Z" fill="white"/>
<path d="M3.79921 8.10906C4.50313 8.48837 5.16444 8.49446 5.47278 7.92448C5.55393 7.77641 5.59247 7.6405 5.5945 7.55937L5.1685 7.38493C5.15836 7.44781 5.13198 7.53908 5.09344 7.61211C4.95144 7.8758 4.61267 7.95288 4.02235 7.63645C3.40972 7.30785 3.29409 6.96099 3.42595 6.71556C3.47667 6.62022 3.52941 6.5756 3.58215 6.53908L3.21904 6.24902C3.16224 6.27336 3.07298 6.36261 2.99184 6.51272C2.76058 6.94476 2.87215 7.60399 3.80327 8.10501L3.79921 8.10906Z" fill="white"/>
<path d="M6.01662 7.10303L5.12811 6.3363L5.46485 5.94888L6.35134 6.71561L6.67388 6.34441L4.55199 4.51074L4.23148 4.87991L5.08145 5.61622L4.74471 6.00364L3.89473 5.26936L3.57422 5.64056L5.69611 7.47423L6.01662 7.10303Z" fill="white"/>
<path d="M7.34017 5.88189C7.7256 5.59589 7.74182 5.05227 7.11297 4.20238C6.73159 3.68716 6.14939 3.19223 5.66253 3.55329C5.21016 3.88797 5.38462 4.58169 5.84105 5.19832C6.29951 5.81698 6.88171 6.22469 7.34219 5.88392L7.34017 5.88189ZM5.92625 3.94883C6.10679 3.81495 6.42528 4.13341 6.71739 4.52692C7.05617 4.98534 7.24077 5.36668 7.07239 5.49041C6.91214 5.60806 6.63219 5.41333 6.25285 4.90014C5.89379 4.41536 5.76802 4.06242 5.92422 3.9468L5.92625 3.94883Z" fill="white"/>
<path d="M8.38509 5.19614L8.13152 4.6221C7.90229 4.10486 7.70957 3.71541 7.58177 3.46389H7.58786C7.74406 3.6647 7.99155 3.94665 8.166 4.1292L8.94904 4.94867L9.36084 4.76612L8.22686 2.2002L7.83332 2.37464L8.08283 2.94259C8.29178 3.41521 8.51898 3.84523 8.65083 4.11095L8.64475 4.115C8.48246 3.9223 8.22686 3.64036 8.0666 3.47403L7.26532 2.62616L6.85352 2.80669L7.98749 5.37261L8.38103 5.19817L8.38509 5.19614Z" fill="white"/>
<path d="M10.7303 4.54514C11.211 4.49037 11.4119 4.07455 11.3328 3.36056L11.14 1.64453L10.6532 1.6993L10.856 3.51066C10.9027 3.93256 10.8155 4.0563 10.6735 4.07049C10.5436 4.08469 10.4219 3.97313 10.3753 3.5634L10.1724 1.75204L9.68555 1.8068L9.87826 3.52688C9.95738 4.22668 10.2069 4.60396 10.7323 4.54514H10.7303Z" fill="white"/>
<path d="M12.1847 2.57572H12.1929C12.2253 2.83129 12.2963 3.19843 12.3551 3.44387L12.6189 4.54529L13.0651 4.596L13.3796 1.80898L12.9515 1.7603L12.8826 2.37693C12.8258 2.89012 12.8035 3.37693 12.7852 3.67308H12.7771C12.7345 3.42561 12.6554 3.05239 12.6006 2.82724L12.3369 1.69133L11.8906 1.64062L11.5762 4.42764L12.0042 4.47632L12.0752 3.85158C12.1381 3.28971 12.1685 2.85766 12.1847 2.57369V2.57572Z" fill="white"/>
<path d="M14.0849 1.99649L13.2891 4.68652L13.7598 4.82577L14.5557 2.13574L14.0849 1.99649Z" fill="white"/>
<path d="M14.7607 5.24948L16.4729 2.95536L15.984 2.72615L15.3186 3.73832C15.1441 4.00607 14.9636 4.2941 14.7912 4.5801L14.7851 4.57605C14.8946 4.26367 14.992 3.93305 15.0833 3.64096L15.4342 2.46854L14.9433 2.2373L14.2617 5.01418L14.7607 5.24745V5.24948Z" fill="white"/>
<path d="M16.1399 6.15414L16.4158 5.76875L15.8904 5.38944L16.3326 4.77483L16.7971 5.10952L17.0629 4.74035L16.5963 4.40769L16.9736 3.88234L17.4666 4.23731L17.7424 3.85191L16.8519 3.21094L15.2148 5.48883L16.1399 6.15414Z" fill="white"/>
<path d="M16.6177 6.64312L17.4454 5.88856L17.4961 5.94332C17.6056 6.063 17.5833 6.18673 17.3581 6.45448C17.1532 6.6918 16.9808 6.92507 16.9463 7.00215L17.2932 7.38146C17.3399 7.27801 17.5488 6.99606 17.7476 6.7486C17.9383 6.50722 18.0093 6.32669 17.9525 6.14616L17.9586 6.14008C18.2264 6.2415 18.5164 6.15833 18.7376 5.95752C18.9161 5.79525 19.0216 5.63298 19.0317 5.41594C19.0439 5.18876 18.912 4.97781 18.7315 4.77699C18.6057 4.63906 18.4576 4.50925 18.3298 4.41797L16.2891 6.28004L16.6197 6.64312H16.6177ZM18.3744 5.04272C18.4008 5.05286 18.4373 5.08734 18.4678 5.11979C18.6077 5.28612 18.5428 5.46259 18.3643 5.62487C18.1838 5.78917 17.9606 5.83176 17.8166 5.67355L17.7557 5.60661L18.3744 5.04272Z" fill="white"/>
<path d="M18.6732 7.34647C18.6428 7.60813 18.6103 7.75417 18.4339 7.85559C18.2736 7.94484 18.1012 7.91036 17.9896 7.70955C17.9206 7.58784 17.876 7.4134 17.8801 7.29373L17.4358 7.46208C17.4317 7.5635 17.4764 7.76229 17.5758 7.93876C17.8172 8.36675 18.2777 8.49859 18.7239 8.24707C18.9816 8.10306 19.1702 7.85965 19.2007 7.456C19.227 7.13145 19.2676 7.02395 19.4116 6.94079C19.5415 6.86776 19.7159 6.88602 19.8173 7.06857C19.8843 7.19028 19.8985 7.3059 19.8904 7.39312L20.3387 7.23085C20.3468 7.14363 20.3144 6.98338 20.2312 6.83531C19.9736 6.37892 19.5151 6.32618 19.1236 6.54728C18.9025 6.67101 18.7097 6.93064 18.6753 7.34444L18.6732 7.34647Z" fill="white"/>
<path d="M20.643 7.7622L18.0234 8.7666L18.1992 9.22493L20.8187 8.22053L20.643 7.7622Z" fill="white"/>
<path d="M20.5539 9.05856L18.3184 9.60623L18.434 10.0829L20.6715 9.53523L20.777 9.97337L21.2659 9.85369L20.9373 8.50684L20.4484 8.62651L20.5539 9.05856Z" fill="white"/>
<path d="M18.5449 10.7932L18.5774 11.282L19.6688 11.209L21.4133 11.6593L21.3788 11.1502L20.7135 11.0447C20.5106 11.0122 20.3057 10.9859 20.0988 10.9696V10.9615C20.3037 10.9108 20.5086 10.8479 20.683 10.7871L21.3403 10.5741L21.3058 10.0508L19.616 10.7181L18.5449 10.7891V10.7932Z" fill="white"/>
<path d="M15.7229 17.4094C15.7939 17.5088 15.8 17.6508 15.7797 17.74C15.7473 17.8638 15.6661 17.9693 15.5586 18.0443L15.7878 18.3709L16.1509 18.1153L17.1328 19.519L17.4513 19.2958L15.9927 17.2188L15.7209 17.4094H15.7229Z" fill="white"/>
<path d="M17.6864 16.4845C17.3436 16.2735 16.9602 16.2654 16.6883 16.5433C16.3962 16.8415 16.4469 17.31 16.7958 17.6528C17.1366 17.9855 17.5992 18.0545 17.869 17.7786C18.0231 17.6204 18.0556 17.448 18.0475 17.308C18.1104 17.3709 18.1976 17.4662 18.2645 17.6021C18.3436 17.7583 18.3964 17.9348 18.2503 18.0849C18.1043 18.235 17.8994 18.1883 17.7675 18.0971L17.52 18.3506C17.8122 18.596 18.2686 18.6468 18.5384 18.3729C18.7838 18.1214 18.7859 17.7563 18.5932 17.4094C18.4471 17.1376 17.9805 16.6569 17.6884 16.4865L17.6864 16.4845ZM17.6174 17.4236C17.4734 17.5697 17.2523 17.5474 17.0697 17.3709C16.881 17.1863 16.8689 16.9774 17.0109 16.8313C17.1508 16.6893 17.3618 16.6954 17.5505 16.88C17.733 17.0585 17.7574 17.2816 17.6174 17.4236Z" fill="white"/>
<path d="M19.6426 15.5919C19.4317 15.4621 19.1598 15.4641 18.9712 15.5675C18.9712 15.4114 18.886 15.2085 18.6425 15.0584C18.3281 14.8637 17.9001 14.9225 17.685 15.2714C17.4781 15.6081 17.6039 16.0381 17.9812 16.245L18.178 15.9245C18.0056 15.8312 17.9224 15.6548 18.0319 15.4783C18.1415 15.2998 18.3403 15.3181 18.4579 15.4032C18.5654 15.4763 18.602 15.5655 18.606 15.6548C18.606 15.7562 18.5675 15.8495 18.5026 15.9529L18.8515 16.168C18.9002 16.0888 18.9509 16.0057 19.03 15.9347C19.1537 15.8475 19.312 15.8414 19.4357 15.9306C19.5939 16.0442 19.6548 16.2349 19.5473 16.4114C19.4317 16.598 19.2186 16.6406 19.0158 16.4986L18.815 16.8231C19.2187 17.1051 19.6933 16.9895 19.9124 16.6345C20.1356 16.2714 20.0057 15.815 19.6447 15.5919H19.6426Z" fill="white"/>
<path d="M20.4461 13.8212C20.1986 13.6386 19.5698 13.4074 19.233 13.3769C18.8314 13.3343 18.4825 13.4905 18.3567 13.8597C18.2228 14.2552 18.4683 14.6569 18.9308 14.8151C19.3811 14.9692 19.8294 14.8313 19.9532 14.4682C20.0242 14.2593 19.9775 14.0889 19.9126 13.9652C19.9978 13.9936 20.1155 14.0443 20.2331 14.1376C20.3711 14.2451 20.4948 14.381 20.4279 14.5798C20.3589 14.7786 20.156 14.8252 19.9978 14.7968L19.8842 15.1315C20.2514 15.2268 20.6875 15.0767 20.8113 14.7137C20.9249 14.381 20.7687 14.0504 20.4461 13.8212ZM19.5759 14.2573C19.5089 14.452 19.298 14.527 19.0586 14.4459C18.8091 14.3607 18.7076 14.1782 18.7726 13.9834C18.8375 13.7948 19.0302 13.7096 19.2797 13.7948C19.5211 13.8759 19.6388 14.0686 19.5759 14.2573Z" fill="white"/>
<path d="M2.69531 13.1177C2.69531 13.3003 2.8434 13.4484 3.02597 13.4484C3.20854 13.4484 3.35663 13.3003 3.35663 13.1177C3.35663 12.9352 3.20854 12.7871 3.02597 12.7871C2.8434 12.7871 2.69531 12.9352 2.69531 13.1177Z" fill="white"/>
<path d="M15.2467 18.9404C15.0641 18.9404 14.916 19.0885 14.916 19.2711C14.916 19.4536 15.0641 19.6017 15.2467 19.6017C15.4292 19.6017 15.5773 19.4536 15.5773 19.2711C15.5773 19.0885 15.4292 18.9404 15.2467 18.9404Z" fill="white"/>
<path d="M19.7383 12.4966C19.7383 12.6792 19.8864 12.8273 20.0689 12.8273C20.2515 12.8273 20.3996 12.6792 20.3996 12.4966C20.3996 12.3141 20.2515 12.166 20.0689 12.166C19.8864 12.166 19.7383 12.3141 19.7383 12.4966Z" fill="white"/>
<path d="M4.28578 16.3632L4.68338 16.1623L4.5353 15.8439L4.53936 15.8419L5.55364 15.3429L5.38121 14.9717L2.74609 16.2394L2.93069 16.635L4.13567 16.0406L4.28578 16.3632Z" fill="white"/>
<path d="M5.01294 14.7969L4.46117 13.6123L4.0798 13.7786L4.42466 14.521H4.4206C4.25831 14.5839 4.0798 14.6143 3.88911 14.6143C3.46108 14.6143 2.99857 14.4521 2.68008 14.1924L2.56445 14.6143C2.94177 14.8963 3.42051 15.0525 3.91346 15.0525C4.28469 15.0525 4.65389 14.9673 5.01497 14.7969H5.01294Z" fill="white"/>
<path d="M8.5782 19.081L8.57414 19.079L8.39766 18.9917L8.39968 18.9877L8.86626 18.0222L8.51328 17.8457L7.21094 20.4644L7.59434 20.655L8.18668 19.4279L8.36925 19.5191L8.36723 19.5232L7.783 20.7504L8.1664 20.9431L9.39369 18.2859L9.04071 18.1094L8.5782 19.081Z" fill="white"/>
<path d="M7.43136 19.7524L7.6119 19.3914L7.58959 19.3853C7.48005 19.3528 7.25487 19.2859 7.09665 19.2068L6.9729 19.1459V19.1419L7.51859 18.1094H7.52265L7.98922 18.3447L8.17788 17.9735L7.34413 17.5557L6.38867 19.3183L6.72947 19.4887C7.05404 19.651 7.28125 19.7119 7.39079 19.7402C7.40499 19.7443 7.41919 19.7484 7.42933 19.7504L7.43136 19.7524Z" fill="white"/>
<path d="M10.0774 20.2713C10.1282 20.2773 10.1789 20.2794 10.2296 20.2794C10.5927 20.2794 10.8544 20.113 10.8828 19.8635C10.9132 19.5877 10.6353 19.3605 10.2113 19.3118C10.1647 19.3057 10.118 19.3037 10.0714 19.3037C9.76708 19.3037 9.4425 19.4254 9.40396 19.6952C9.38976 19.7885 9.41816 19.8838 9.4851 19.9731C9.60479 20.1293 9.83199 20.2429 10.0774 20.2713ZM9.84822 19.7479C9.85836 19.6668 9.98008 19.6364 10.0916 19.6364C10.116 19.6364 10.1424 19.6364 10.1667 19.6404C10.2864 19.6546 10.3817 19.6932 10.4223 19.7439C10.4385 19.7662 10.4466 19.7885 10.4426 19.8149C10.4345 19.8899 10.3452 19.9345 10.2073 19.9345C10.1829 19.9345 10.1566 19.9345 10.1302 19.9305C10.0369 19.9203 9.91922 19.8859 9.87053 19.823C9.85227 19.8007 9.84619 19.7763 9.85025 19.75L9.84822 19.7479Z" fill="white"/>
<path d="M9.4668 20.7256L10.9963 20.9041V20.9082L10.9416 21.4477L11.3939 21.5005L11.4812 20.5573L9.5236 20.3301L9.4668 20.7256Z" fill="white"/>
<path d="M11.5938 19.3443L11.6628 18.5897L11.2571 18.541L11.0664 20.397L11.4924 20.4477L11.5533 19.7824H11.5594L11.8819 19.8209L11.9184 19.3848L11.5938 19.3483V19.3443Z" fill="white"/>
<path d="M11.0512 18.9669L9.46688 18.7803L9.41211 19.1494L11.0127 19.3381L11.0512 18.9669Z" fill="white"/>
<path d="M9.83789 18.7116L10.7041 18.813L10.7467 18.4519L9.88861 18.3525L9.83789 18.7116Z" fill="white"/>
<path d="M13.7295 20.551V20.5469L13.5408 19.6504L13.1249 19.7336L13.3055 20.6362L13.2994 20.6382L13.0823 20.6808V20.6768L12.9079 19.7782L12.49 19.8613L12.6563 20.768H12.6523L12.1289 20.8735L12.1999 21.2833L14.7742 20.766L14.6809 20.3603L13.7295 20.551Z" fill="white"/>
<path d="M13.6379 18.9716C13.719 19.4219 13.7413 19.8155 13.7535 20.138L14.1633 20.0548C14.1694 19.6309 14.1105 19.1278 13.9807 18.4727L12.0312 18.8662L12.1043 19.2759L13.6379 18.9676V18.9716Z" fill="white"/>
<path d="M4.54224 17.9039L4.89319 17.5631L4.59093 17.2568L3.93164 17.8856L5.38004 19.3481L5.66607 19.0459L4.53819 17.908L4.54224 17.9039Z" fill="white"/>
<path d="M5.97668 15.8438L5.71094 16.0993L6.31951 16.7139L6.5812 16.4543L5.97668 15.8438Z" fill="white"/>
<path d="M7.01609 16.9404L6.39332 17.5794L6.11135 17.2974L5.82532 17.5855L6.10932 17.8715L5.5332 18.4638L5.83749 18.7721L7.30415 17.2305L7.01609 16.9404Z" fill="white"/>
<path d="M5.79619 16.9245L6.14714 17.2774L6.42911 16.9935L5.42902 15.9854L5.13691 16.2592L5.47974 16.604L5.47568 16.6081C5.38642 16.673 5.26471 16.7054 5.11256 16.7054C4.86305 16.7054 4.61556 16.6182 4.5405 16.5858L4.44922 17.0361C4.60745 17.1111 4.82045 17.1537 5.02331 17.1537C5.11459 17.1537 5.19776 17.1436 5.26876 17.1253H5.27688V17.1314C5.23225 17.3748 5.27688 17.6608 5.39859 17.8981L5.81445 17.7582C5.75968 17.6446 5.62174 17.1781 5.79619 16.9306L5.80025 16.9265L5.79619 16.9245Z" fill="white"/>
<path d="M10.767 14.1788C9.72835 14.1788 8.5112 13.3654 9.24352 11.5844C10.0793 9.5601 12.6759 8.24367 13.7409 8.24367C14.0066 8.24367 14.1648 8.339 14.1547 8.52764C14.1405 8.80756 13.9174 9.1605 14.1912 9.38363C14.534 9.66152 15.5402 9.21121 15.6376 8.49925C15.7005 8.02866 15.0574 7.5459 13.7632 7.5459C10.7812 7.5459 7.83569 9.28626 6.95934 11.6189C6.17631 13.7021 7.41171 15.481 9.78109 15.481C11.9192 15.481 13.3534 14.1788 13.8524 12.5926L13.9762 12.195H11.3147C11.1869 12.7203 11.339 13.3349 12.1566 13.3349C12.3817 13.3349 12.6028 13.2802 12.7976 13.1706C12.8179 13.1605 12.826 13.1747 12.8138 13.1869C12.4385 13.6676 11.6859 14.1767 10.771 14.1767L10.767 14.1788Z" fill="#004E96"/>
<path d="M13.6094 14.4709C14.3437 14.5987 14.8529 14.2924 15.0902 13.7123C15.1896 13.4709 15.2769 13.1768 15.3398 12.8624C15.4412 12.3695 14.8772 12.2113 14.2768 12.2012L13.6094 14.4709Z" fill="#80C341"/>
<path d="M16.8731 11.9513C16.9826 11.3083 16.7169 10.8397 16.1245 10.7768C15.8771 10.7505 15.6275 10.7322 15.2969 10.7565C14.7755 10.7971 14.6031 11.0405 14.3516 11.9513H16.8731Z" fill="#00B9F2"/>
<path d="M13.2239 10.5077C13.1346 10.7207 13.0332 11.0189 12.9804 11.2988C12.8973 11.741 13.3557 11.9377 14.0475 11.9519L14.6824 9.7937C13.9339 9.63346 13.4389 9.98843 13.2239 10.5077Z" fill="#FCAF16"/>
</g>
<defs>
<clipPath id="clip0_4927_60941">
<rect width="23" height="23" fill="white"/>
</clipPath>
</defs>
</svg>
