<svg width="23" height="23" viewBox="0 0 23 23" fill="none" xmlns="http://www.w3.org/2000/svg">
<g clip-path="url(#clip0_4393_55144)">
<path d="M6.81467 14.3042C6.81591 14.311 6.81716 14.3178 6.81778 14.3253C6.82027 14.3421 6.82151 14.357 6.82027 14.3689C6.81965 14.3807 6.81591 14.3919 6.80969 14.4024C6.79725 14.4236 6.78046 14.4391 6.75931 14.4503C6.73816 14.4609 6.71328 14.469 6.68529 14.4721C6.64735 14.4783 6.61501 14.4758 6.58826 14.4659C6.55654 14.4553 6.53352 14.4323 6.51859 14.3987C6.513 14.3844 6.50864 14.3732 6.50678 14.3639C6.50429 14.3552 6.50242 14.3427 6.49993 14.3259L6.58142 14.316L6.67596 14.3023L6.81156 14.2861C6.81218 14.2911 6.81343 14.2979 6.81467 14.3048V14.3042ZM6.76367 14.1145C6.75745 14.1157 6.74812 14.1169 6.73567 14.1188C6.73008 14.1194 6.68654 14.1263 6.6063 14.14C6.52668 14.153 6.46883 14.1617 6.43462 14.1673L6.26357 14.1903C6.25797 14.1916 6.24118 14.1928 6.21132 14.1947C6.18209 14.1972 6.15783 14.2003 6.13979 14.2022L6.08008 14.2065C6.08008 14.2109 6.08319 14.2239 6.08816 14.2445C6.09314 14.2668 6.09687 14.2849 6.09874 14.2979C6.09936 14.3042 6.1006 14.3178 6.10185 14.3409C6.10309 14.3639 6.10496 14.3807 6.1062 14.3919C6.12549 14.3894 6.15472 14.3838 6.19328 14.3757C6.23247 14.3682 6.2617 14.362 6.28223 14.3595C6.30773 14.3552 6.33324 14.3508 6.35936 14.3458C6.38548 14.3415 6.41223 14.3371 6.43835 14.3334C6.43835 14.339 6.4396 14.3458 6.44084 14.3539C6.44209 14.362 6.44333 14.3713 6.4452 14.3832C6.44582 14.385 6.44769 14.3968 6.45142 14.4161C6.45515 14.4367 6.45888 14.4528 6.46324 14.4646C6.47568 14.5026 6.48687 14.5306 6.49682 14.5474C6.51113 14.571 6.53103 14.5928 6.55778 14.6121C6.5839 14.632 6.61065 14.6432 6.63864 14.6481C6.66663 14.6525 6.69835 14.6525 6.73257 14.6481C6.77984 14.6413 6.8184 14.6214 6.84764 14.5884C6.87687 14.5555 6.89367 14.5156 6.89678 14.4678C6.89864 14.4466 6.89864 14.4261 6.89553 14.4056C6.89304 14.385 6.89056 14.3645 6.88745 14.3446C6.88745 14.3415 6.88371 14.3222 6.87687 14.2849C6.87003 14.2476 6.86505 14.2202 6.86256 14.2034L6.85075 14.0977C6.82151 14.1039 6.7929 14.1095 6.76429 14.1132L6.76367 14.1145Z" fill="#011E41"/>
<path d="M6.94447 14.9324C6.95194 14.9716 6.9538 15.0008 6.94883 15.0213C6.94198 15.0493 6.92146 15.0711 6.88787 15.0854C6.86921 15.0928 6.85117 15.0991 6.83375 15.1022C6.72677 15.1246 6.66332 15.0872 6.6428 14.9896C6.64031 14.9778 6.63907 14.9684 6.63782 14.9622L6.71806 14.9461L6.80576 14.9293L6.93825 14.9019C6.9395 14.9087 6.94198 14.9181 6.94509 14.9324H6.94447ZM6.30691 15.3516C6.30816 15.3566 6.31002 15.3721 6.31313 15.3964C6.31624 15.4206 6.31935 15.4405 6.32246 15.4536L6.3772 15.4014C6.39835 15.3808 6.43256 15.3472 6.47859 15.3018C6.54825 15.2328 6.60548 15.1781 6.64964 15.1389C6.67203 15.1899 6.70375 15.2278 6.74481 15.2515C6.78648 15.2757 6.83313 15.2819 6.886 15.2714C6.92457 15.2633 6.95505 15.2483 6.97682 15.2272C6.99859 15.2054 7.016 15.1762 7.02844 15.1389C7.03591 15.1165 7.0384 15.0916 7.03529 15.068C7.03155 15.0437 7.02533 15.0058 7.01476 14.9554C7.00792 14.928 7.0017 14.9019 6.99548 14.8745C6.98926 14.8484 6.98304 14.8223 6.97806 14.7949L6.96438 14.7178C6.94385 14.7215 6.89222 14.7346 6.81012 14.7551C6.7784 14.7632 6.74792 14.77 6.7193 14.7762L6.51777 14.8192C6.50907 14.8204 6.47797 14.826 6.42572 14.8347C6.37347 14.844 6.33055 14.8521 6.29696 14.859L6.22294 14.8702L6.20117 14.8733C6.20179 14.8776 6.20615 14.8913 6.21237 14.9118C6.21859 14.933 6.22356 14.9492 6.22543 14.9616C6.22605 14.9672 6.22792 14.9796 6.23041 15.0014C6.23352 15.0238 6.236 15.0406 6.23849 15.0543C6.24658 15.0518 6.26399 15.0468 6.29136 15.0381C6.31811 15.03 6.33926 15.0244 6.35419 15.0207L6.38404 15.0138L6.58184 14.9709C6.58184 14.9709 6.58744 14.9716 6.58931 14.9753C6.58931 14.9772 6.58744 14.9803 6.58433 14.984L6.53457 15.0282L6.48108 15.0754L6.27955 15.2521C6.29074 15.2882 6.29945 15.3211 6.30567 15.351L6.30691 15.3516Z" fill="#011E41"/>
<path d="M6.57265 15.7853C6.61183 15.7318 6.6703 15.6902 6.74867 15.6603C6.79035 15.6454 6.83264 15.6329 6.87432 15.6242C6.91662 15.6155 6.95642 15.6143 6.99561 15.6174C7.0348 15.6211 7.0715 15.6348 7.10819 15.6578C7.13059 15.6721 7.14738 15.6877 7.15796 15.7026C7.16853 15.7175 7.1791 15.7387 7.18968 15.7654C7.21767 15.8395 7.20709 15.9097 7.15733 15.9738C7.11628 16.0279 7.05595 16.0702 6.97695 16.0995C6.93528 16.115 6.89485 16.1262 6.85504 16.1337C6.81523 16.1405 6.77666 16.1418 6.73997 16.1362C6.69269 16.1293 6.65288 16.1138 6.6193 16.0901C6.58633 16.0659 6.56145 16.0335 6.5459 15.9906C6.51791 15.9166 6.52724 15.8475 6.57265 15.7853ZM7.10633 16.2456C7.13183 16.2301 7.15671 16.2114 7.18035 16.1884C7.20461 16.1666 7.22451 16.1418 7.24006 16.1144C7.25374 16.0901 7.26494 16.0603 7.27427 16.0236C7.28609 15.9794 7.29044 15.9352 7.28609 15.8892C7.28174 15.8432 7.27116 15.7965 7.25374 15.7499C7.2326 15.6933 7.20461 15.6429 7.1704 15.6C7.13681 15.5564 7.09389 15.5216 7.04413 15.493C6.99312 15.4656 6.93963 15.4495 6.88241 15.4457C6.8258 15.4432 6.7692 15.4519 6.71384 15.4731C6.65786 15.4942 6.60997 15.521 6.57078 15.554C6.53159 15.5875 6.50049 15.6292 6.4781 15.6802C6.45571 15.73 6.44513 15.7841 6.44762 15.8401C6.44949 15.8979 6.46131 15.9539 6.48183 16.0099C6.5036 16.0677 6.53097 16.1181 6.56518 16.1598C6.59939 16.2021 6.64107 16.2369 6.69207 16.2649C6.74308 16.2923 6.79719 16.3085 6.85504 16.3109C6.91288 16.3147 6.96886 16.3047 7.0236 16.2854C7.05408 16.2736 7.08207 16.2606 7.10757 16.2456H7.10633Z" fill="#011E41"/>
<path d="M7.57237 16.4674C7.58046 16.4774 7.59103 16.4911 7.60285 16.5103C7.61467 16.5284 7.62275 16.5402 7.62524 16.5433C7.63395 16.5539 7.64577 16.5669 7.6607 16.5837C7.67563 16.5993 7.68496 16.6092 7.68807 16.6136C7.67127 16.626 7.64826 16.6428 7.61778 16.664C7.5873 16.6845 7.5674 16.6988 7.55931 16.7056L7.52137 16.7361L7.43988 16.8021C7.4517 16.817 7.47223 16.8437 7.50022 16.8804C7.52821 16.9178 7.54314 16.9383 7.54563 16.9408C7.55869 16.9576 7.57921 16.9831 7.60969 17.0179C7.63955 17.0527 7.6551 17.0714 7.65696 17.0733L7.78261 16.9731C7.80003 16.9588 7.81433 16.9476 7.82491 16.937C7.86845 16.8991 7.89271 16.8779 7.89706 16.8742C7.90515 16.8842 7.9151 16.8991 7.92754 16.9171C7.93998 16.9358 7.94744 16.947 7.95055 16.9507C7.95739 16.9594 7.96921 16.9719 7.98476 16.9893C8.00031 17.0061 8.01027 17.016 8.01338 17.0216C7.99658 17.0347 7.98103 17.0465 7.96673 17.0558C7.91634 17.0888 7.8896 17.1062 7.88586 17.11L7.67625 17.2723C7.63768 17.3034 7.60347 17.3314 7.57299 17.3581C7.46663 17.4489 7.41003 17.4975 7.40256 17.5037C7.39448 17.4931 7.38453 17.4794 7.37271 17.462C7.36089 17.444 7.35342 17.4328 7.35031 17.429C7.34161 17.4185 7.32854 17.4029 7.31175 17.3849C7.29496 17.3668 7.285 17.3556 7.28252 17.3532L7.41189 17.2636L7.54252 17.1641L7.58543 17.1305L7.47969 16.9924L7.36897 16.8574L7.26075 16.9433C7.23649 16.9625 7.20352 16.9911 7.16122 17.0278C7.11893 17.0639 7.09218 17.0869 7.07974 17.0975C7.07228 17.0882 7.06233 17.0745 7.05051 17.0565C7.03869 17.0384 7.03122 17.0278 7.02811 17.0241C7.01941 17.0123 7.00634 16.998 6.99017 16.98C6.97338 16.9632 6.96405 16.952 6.96094 16.9489C6.99453 16.9227 7.0362 16.8904 7.08596 16.8549C7.19854 16.7741 7.26945 16.7224 7.29682 16.6994C7.33663 16.6683 7.37084 16.6397 7.40132 16.6136C7.5083 16.5215 7.56553 16.4724 7.57237 16.4668V16.4674Z" fill="#011E41"/>
<path d="M7.87554 17.7327C7.87927 17.6667 7.90664 17.5996 7.9564 17.533C7.98315 17.4969 8.01238 17.464 8.04224 17.4341C8.07334 17.4049 8.10568 17.3806 8.13989 17.3632C8.17473 17.3452 8.21329 17.3364 8.25683 17.3364C8.28358 17.3364 8.30535 17.3402 8.32214 17.3464C8.33956 17.3532 8.35946 17.3657 8.3831 17.3825C8.44654 17.4304 8.47578 17.4938 8.46894 17.5759C8.46396 17.6437 8.43535 17.7109 8.38559 17.7793C8.35946 17.8141 8.33085 17.8459 8.30162 17.8732C8.27176 17.9012 8.24004 17.9224 8.20645 17.9379C8.16229 17.9572 8.12061 17.9659 8.07956 17.9641C8.03913 17.9622 8.00056 17.9479 7.96387 17.9205C7.8998 17.8732 7.86994 17.8104 7.87492 17.7327H7.87554ZM8.57406 17.8303C8.58712 17.8036 8.59831 17.7737 8.60578 17.742C8.61386 17.7109 8.61697 17.6792 8.61511 17.6468C8.61324 17.6201 8.60702 17.5884 8.59458 17.5517C8.5809 17.5081 8.55975 17.4689 8.53114 17.4322C8.50315 17.3955 8.46831 17.3632 8.42851 17.3333C8.37999 17.2973 8.32961 17.2693 8.27798 17.2519C8.22573 17.2338 8.17099 17.2263 8.11315 17.2307C8.05592 17.2338 8.00243 17.25 7.95267 17.2792C7.90291 17.3072 7.86061 17.3452 7.82516 17.393C7.78908 17.4409 7.7642 17.4901 7.74927 17.5392C7.73372 17.5884 7.73061 17.6406 7.7387 17.6947C7.74678 17.7495 7.76731 17.8005 7.79966 17.8471C7.83262 17.8944 7.87243 17.9348 7.92032 17.9703C7.97009 18.007 8.02109 18.0343 8.07209 18.0518C8.12372 18.0692 8.17846 18.076 8.23568 18.0717C8.29291 18.0673 8.34702 18.0505 8.39741 18.0225C8.44779 17.9933 8.49008 17.9553 8.52492 17.9087C8.54482 17.8826 8.56037 17.8564 8.57406 17.8297V17.8303Z" fill="#011E41"/>
<path d="M8.70662 17.9481L8.8814 17.6514C8.887 17.6532 8.89446 17.6576 8.90379 17.6632C8.91312 17.67 8.91872 17.6731 8.92121 17.6738C8.93116 17.6781 8.93987 17.6806 8.94796 17.6825C8.95604 17.6837 8.96226 17.6856 8.96662 17.6868C8.96973 17.7733 8.97222 17.8405 8.9747 17.8859C8.97595 17.9027 8.9803 17.9686 8.98777 18.0837C8.99212 18.1515 8.9971 18.2174 9.00269 18.2839L9.11528 18.1882C9.23346 18.0893 9.34666 17.9885 9.45489 17.8884L9.46609 17.8952C9.47107 17.8995 9.47666 17.902 9.48226 17.9045C9.48724 17.9064 9.49346 17.9095 9.49968 17.912C9.51647 17.9188 9.5314 17.9238 9.54446 17.9263C9.50465 18.0588 9.47418 18.1683 9.45054 18.2522C9.4269 18.3362 9.40949 18.399 9.39705 18.4419L9.34667 18.6354C9.34667 18.6391 9.3448 18.646 9.34231 18.6572C9.34044 18.669 9.33796 18.6764 9.33547 18.6827C9.32365 18.6771 9.30748 18.6696 9.28757 18.6596C9.26829 18.6491 9.25585 18.6435 9.2515 18.641C9.23968 18.636 9.22289 18.6304 9.20236 18.6242C9.18121 18.6161 9.16877 18.6124 9.16442 18.6111C9.19241 18.5427 9.21977 18.4631 9.2459 18.3723C9.27202 18.2808 9.2969 18.1931 9.32178 18.1085C9.27265 18.1508 9.22413 18.1938 9.17561 18.2361C9.1271 18.2784 9.07858 18.3213 9.03006 18.3636C8.99772 18.3928 8.94982 18.4363 8.887 18.4954C8.8758 18.4892 8.86772 18.4855 8.86212 18.4824C8.85963 18.4817 8.85403 18.4799 8.84657 18.4793L8.836 18.2765C8.83226 18.2112 8.82915 18.1496 8.82604 18.0942C8.82169 18.0333 8.81734 17.9723 8.8136 17.9101L8.71408 18.0868L8.65375 18.2012L8.60337 18.3007L8.57227 18.3648C8.55796 18.3549 8.54738 18.3493 8.54116 18.3455C8.53432 18.3424 8.52935 18.3406 8.52499 18.3387C8.51069 18.3325 8.49327 18.3281 8.47461 18.3238C8.4771 18.3175 8.48083 18.3113 8.48518 18.3051C8.48518 18.3032 8.49016 18.2983 8.49825 18.2889C8.50882 18.2721 8.52499 18.2485 8.54614 18.2155C8.56169 18.1906 8.57848 18.1639 8.59715 18.1347C8.61581 18.1054 8.63633 18.0725 8.65748 18.0351C8.67925 17.9978 8.69604 17.9686 8.70848 17.9474L8.70662 17.9481Z" fill="#011E41"/>
<path d="M9.91396 18.0144C9.90961 18.0312 9.90463 18.0486 9.89779 18.0692C9.88099 18.1171 9.87104 18.1475 9.86793 18.16C9.86171 18.1836 9.85114 18.2197 9.83683 18.267C9.82252 18.3142 9.81195 18.3503 9.80573 18.3733C9.79951 18.3988 9.7908 18.4368 9.77961 18.489C9.76841 18.5394 9.7597 18.5786 9.75286 18.6035C9.74975 18.6165 9.74291 18.6514 9.73233 18.7061C9.72798 18.7285 9.72362 18.7496 9.71865 18.7689C9.70683 18.7658 9.69066 18.7602 9.67075 18.7534C9.65023 18.7459 9.63779 18.7422 9.63343 18.7409C9.6042 18.7335 9.57123 18.7279 9.53516 18.721C9.54573 18.68 9.56004 18.6308 9.5787 18.5717C9.61975 18.4386 9.64525 18.3553 9.65458 18.3205L9.66951 18.2607L9.70434 18.1177C9.70932 18.0978 9.71429 18.0766 9.71865 18.0567C9.723 18.0362 9.72798 18.007 9.7342 17.9678C9.74664 17.9715 9.76343 17.9765 9.78458 17.9839C9.80511 17.9914 9.81755 17.9958 9.8219 17.9964C9.83559 18.0001 9.853 18.0045 9.87477 18.007C9.89654 18.0107 9.90961 18.0138 9.91396 18.0138V18.0144Z" fill="#011E41"/>
<path d="M10.0642 18.8479L10.0567 18.8454L10.0132 18.8342C9.99764 18.8317 9.98022 18.8317 9.96094 18.833C9.97835 18.7602 9.99639 18.6756 10.0144 18.5792C10.0325 18.4828 10.048 18.3895 10.0611 18.2999L10.0872 18.1189L10.0928 18.0654C10.1108 18.0723 10.1276 18.076 10.1426 18.0779C10.1575 18.0804 10.1743 18.0816 10.1942 18.0804C10.2178 18.1146 10.2632 18.1811 10.3317 18.28C10.3771 18.346 10.4225 18.4131 10.4685 18.4809C10.5257 18.5661 10.5711 18.6339 10.6041 18.6843L10.642 18.4368L10.6588 18.3117C10.6613 18.2962 10.6632 18.2744 10.6663 18.2433C10.6682 18.2128 10.6706 18.1898 10.6731 18.1749L10.675 18.1531C10.6862 18.1562 10.6962 18.1587 10.7036 18.1612C10.7117 18.1637 10.7185 18.1656 10.7248 18.1656C10.7304 18.1668 10.7384 18.1668 10.7503 18.1668C10.7621 18.1668 10.7708 18.1668 10.7764 18.1687L10.764 18.2303C10.7615 18.2471 10.7584 18.2651 10.754 18.2825C10.7434 18.3304 10.7366 18.3603 10.7347 18.3721C10.7297 18.4063 10.7229 18.4436 10.7154 18.484C10.7073 18.5232 10.7011 18.5562 10.6968 18.5829L10.6794 18.6968L10.6439 18.935L10.6321 18.9306C10.6209 18.9275 10.6103 18.9238 10.5991 18.9226C10.5854 18.9207 10.5693 18.9194 10.5512 18.9213C10.5064 18.8479 10.4729 18.7957 10.4529 18.7646C10.4175 18.708 10.3833 18.6557 10.3509 18.6072C10.3267 18.5711 10.2912 18.5201 10.2446 18.4536L10.1413 18.3061L10.1158 18.4573L10.1003 18.5593C10.0965 18.5836 10.0897 18.6445 10.0791 18.7403C10.0748 18.7789 10.0704 18.8149 10.0648 18.8492L10.0642 18.8479Z" fill="#011E41"/>
<path d="M11.6258 18.2005C11.6215 18.2285 11.619 18.2558 11.6165 18.2813C11.614 18.3068 11.6121 18.3348 11.6115 18.3666L11.6047 18.4779L11.5972 18.6029C11.5941 18.6875 11.5879 18.7485 11.5767 18.7858C11.5593 18.8461 11.5226 18.8934 11.4672 18.9295C11.4373 18.9488 11.4044 18.9637 11.3671 18.9718C11.3291 18.9805 11.2906 18.9836 11.2501 18.9823C11.1711 18.9792 11.1052 18.9643 11.0511 18.9357C10.9864 18.9015 10.9453 18.8499 10.9279 18.7802C10.9261 18.7752 10.9248 18.7653 10.9236 18.7528C10.9217 18.7404 10.9205 18.7304 10.9198 18.7205C10.9192 18.7118 10.9186 18.7031 10.918 18.6962C10.918 18.6894 10.918 18.6807 10.9186 18.6701C10.9186 18.657 10.9186 18.6471 10.9186 18.6402L10.9211 18.499L10.9248 18.3572L10.9273 18.226V18.1787C10.9379 18.1787 10.9553 18.1793 10.9777 18.1824C11.0007 18.1856 11.015 18.1868 11.0206 18.1868C11.0511 18.188 11.0816 18.1862 11.1133 18.1831L11.1058 18.2384C11.1052 18.2677 11.1015 18.3118 11.0965 18.3715C11.0915 18.4306 11.089 18.4754 11.0878 18.504L11.0865 18.555C11.0853 18.5843 11.0847 18.6123 11.084 18.6409C11.084 18.6695 11.0853 18.6975 11.0903 18.7261C11.0946 18.7541 11.0996 18.7783 11.1064 18.7964C11.1133 18.8144 11.1257 18.8331 11.145 18.8536C11.1786 18.8866 11.2215 18.9046 11.2731 18.9065C11.3272 18.9077 11.3695 18.8984 11.4006 18.8797C11.4311 18.8598 11.4579 18.8256 11.4803 18.7752C11.4902 18.7534 11.4971 18.7217 11.5002 18.6819C11.5039 18.6421 11.5064 18.5942 11.5083 18.5401C11.5095 18.5015 11.5095 18.4456 11.5089 18.369C11.5083 18.2932 11.5089 18.2359 11.5089 18.198C11.5226 18.2011 11.5325 18.2023 11.5387 18.2036C11.5443 18.2048 11.5543 18.2055 11.5667 18.2055C11.5785 18.2055 11.5872 18.2055 11.5941 18.2055C11.6009 18.2055 11.6109 18.2036 11.6239 18.2017L11.6258 18.2005Z" fill="#011E41"/>
<path d="M11.8267 18.5417L11.841 18.1977C11.8473 18.1971 11.8553 18.1971 11.8672 18.1977C11.8784 18.1989 11.8852 18.1989 11.8871 18.1989C11.8976 18.1977 11.907 18.1964 11.9151 18.1933C11.9219 18.1908 11.9287 18.1902 11.9331 18.1877C11.9766 18.2642 12.0102 18.3221 12.0339 18.36C12.0432 18.3756 12.078 18.4328 12.139 18.5298C12.1738 18.5871 12.2093 18.6437 12.2447 18.6996L12.2995 18.5628C12.3567 18.4191 12.4096 18.2779 12.4587 18.1392H12.4711C12.478 18.1417 12.4842 18.1417 12.4898 18.1405C12.496 18.1405 12.5016 18.1405 12.5085 18.1392C12.5265 18.1373 12.542 18.1349 12.5545 18.1299C12.5825 18.2661 12.6061 18.3762 12.6248 18.4627C12.6441 18.5466 12.6577 18.6107 12.6671 18.6542L12.7125 18.8495C12.7125 18.8495 12.7156 18.8589 12.7187 18.8707C12.7224 18.8813 12.7243 18.89 12.7249 18.8956C12.7118 18.8968 12.6944 18.8981 12.6714 18.8981C12.649 18.8993 12.6353 18.8993 12.631 18.8993C12.6179 18.9006 12.6011 18.9024 12.5794 18.9068C12.5576 18.9111 12.5445 18.913 12.5396 18.9136C12.5333 18.8408 12.5196 18.7569 12.4997 18.6642C12.4798 18.5715 12.4612 18.4819 12.4431 18.3949C12.4195 18.4564 12.3965 18.5168 12.3741 18.5771C12.3511 18.6374 12.3287 18.6978 12.3063 18.7581C12.2907 18.7992 12.2696 18.8607 12.2416 18.9416C12.2292 18.9416 12.2205 18.9416 12.2136 18.9416C12.2111 18.9422 12.2055 18.9428 12.1981 18.946L12.0936 18.7724C12.0587 18.7158 12.0276 18.6636 11.9984 18.6163C11.9661 18.564 11.9337 18.5124 11.9014 18.4595L11.897 18.6617V18.7905L11.9001 18.9024L11.9026 18.9739C11.8858 18.9721 11.8734 18.9715 11.8665 18.9721C11.8591 18.9721 11.8535 18.9721 11.8485 18.9733C11.833 18.9739 11.8155 18.9777 11.7969 18.9833C11.7969 18.9777 11.7969 18.9702 11.7969 18.9621C11.7969 18.9603 11.7981 18.9534 11.8006 18.941C11.8025 18.9223 11.8056 18.8931 11.8087 18.8545C11.8106 18.8253 11.8124 18.7929 11.8155 18.7587C11.8186 18.7245 11.8205 18.686 11.8224 18.643C11.8242 18.5995 11.8249 18.5659 11.8261 18.5417H11.8267Z" fill="#011E41"/>
<path d="M13.2395 18.1225C13.2283 18.0821 13.2203 18.0554 13.2153 18.0379C13.229 18.0311 13.2383 18.0261 13.2433 18.0236C13.2489 18.0224 13.2557 18.0205 13.265 18.0174C13.2955 18.0075 13.326 18.0087 13.3565 18.0205C13.3689 18.0249 13.3814 18.0367 13.3944 18.0554C13.4069 18.0728 13.4156 18.0896 13.4199 18.1045C13.4268 18.1275 13.4305 18.1493 13.4286 18.1704C13.4274 18.1934 13.4212 18.2133 13.4093 18.2308C13.3981 18.2488 13.3851 18.2619 13.3702 18.2699C13.3559 18.278 13.3366 18.2861 13.3117 18.2936C13.3073 18.2948 13.3017 18.2967 13.2943 18.2998L13.257 18.1866C13.257 18.1866 13.2507 18.163 13.2395 18.1238V18.1225ZM13.5611 18.176C13.5866 18.1319 13.5922 18.0865 13.5773 18.0379C13.5586 17.9795 13.5219 17.9428 13.4684 17.9291C13.4236 17.9166 13.3708 17.9204 13.3086 17.9397L13.1531 17.9919L13.0293 18.028C13.0399 18.0616 13.0567 18.1101 13.0809 18.1748C13.1046 18.2388 13.122 18.288 13.1319 18.3203C13.1332 18.3253 13.1456 18.3676 13.1699 18.4478C13.1935 18.5275 13.2109 18.5853 13.2221 18.6201C13.2302 18.645 13.237 18.6705 13.2451 18.6991C13.2526 18.7265 13.2582 18.7514 13.2613 18.7725L13.3546 18.7389L13.5151 18.6917C13.5288 18.6873 13.5425 18.6823 13.5555 18.6774C13.5686 18.6718 13.5792 18.6674 13.586 18.6631C13.614 18.6481 13.6358 18.6338 13.6513 18.6201C13.6718 18.6021 13.688 18.5822 13.6986 18.5592C13.7235 18.5051 13.7272 18.451 13.7098 18.3956C13.693 18.3433 13.6594 18.306 13.609 18.2843C13.5854 18.2749 13.5599 18.2699 13.5331 18.2699C13.5064 18.2687 13.4809 18.2712 13.4579 18.2787L13.4554 18.2699C13.5033 18.2457 13.5393 18.2146 13.5617 18.1773L13.5611 18.176ZM13.3136 18.362C13.3179 18.3601 13.3235 18.3583 13.3297 18.3552C13.3366 18.3527 13.3428 18.3508 13.3484 18.3489C13.3963 18.3334 13.4361 18.3346 13.4684 18.3514C13.5008 18.3688 13.525 18.4043 13.5425 18.4572C13.553 18.4908 13.5536 18.5256 13.5431 18.5617C13.5381 18.5816 13.5281 18.5984 13.5138 18.6102C13.4995 18.6232 13.4827 18.6332 13.4622 18.6394L13.4081 18.6537L13.3627 18.5188L13.3142 18.362H13.3136Z" fill="#011E41"/>
<path d="M13.6553 17.8303L13.6484 17.8166C13.6659 17.8085 13.6932 17.7954 13.7305 17.7805C13.7679 17.765 13.7952 17.7525 13.8139 17.7432C13.8469 17.7276 13.8904 17.7059 13.9445 17.6766C13.9986 17.6474 14.0316 17.6306 14.0428 17.625C14.0465 17.6393 14.0521 17.6542 14.0602 17.6717C14.0621 17.6754 14.0646 17.6804 14.0677 17.6847C14.0702 17.6903 14.0739 17.6959 14.0776 17.7028L14.0857 17.7133C14.0602 17.7258 14.0204 17.7438 13.9663 17.7643C13.9128 17.7861 13.8724 17.8029 13.8469 17.8153L13.8966 17.9223L13.9514 18.0374L14.1796 17.9149C14.1834 17.9267 14.1865 17.9366 14.1896 17.9447C14.1921 17.9528 14.1952 17.9596 14.1977 17.9652C14.202 17.9739 14.2058 17.9808 14.2095 17.9864C14.2132 17.9914 14.217 17.9963 14.2219 18.0019C14.202 18.0113 14.1715 18.025 14.1299 18.0417C14.0882 18.0592 14.0571 18.0728 14.0359 18.0828L13.9856 18.1064L14.0478 18.2371L14.1125 18.3646C14.1846 18.3291 14.2611 18.2862 14.342 18.2358C14.3451 18.2501 14.3507 18.265 14.3594 18.2818C14.3619 18.2856 14.3637 18.2905 14.3669 18.2949C14.37 18.2993 14.3731 18.3061 14.3768 18.3117L14.3849 18.3235C14.3644 18.3335 14.3333 18.3478 14.2916 18.3658C14.2493 18.3832 14.2182 18.3969 14.197 18.4081L14.0782 18.4709L13.9887 18.5176L13.9632 18.4579L13.8742 18.2644L13.7996 18.1083L13.7405 17.9889C13.7281 17.9621 13.7175 17.9428 13.7106 17.9298C13.6746 17.8639 13.6559 17.8309 13.6559 17.8303H13.6553Z" fill="#011E41"/>
<path d="M14.6807 18.1439L14.6739 18.1483L14.6359 18.17C14.6235 18.1806 14.6104 18.1924 14.5974 18.2067C14.5582 18.1439 14.5103 18.0718 14.4543 17.9909C14.3989 17.9107 14.3436 17.8341 14.2888 17.7601L14.1781 17.6152L14.1445 17.5735C14.1619 17.5654 14.1763 17.5561 14.1887 17.5474C14.2011 17.5387 14.213 17.5263 14.226 17.5119C14.2664 17.5194 14.3461 17.5343 14.4642 17.5555C14.5432 17.5692 14.6222 17.5841 14.7025 17.5978C14.8039 17.6177 14.8841 17.6326 14.9426 17.6451L14.7933 17.4435L14.7162 17.3434C14.7074 17.3309 14.6931 17.3135 14.6726 17.2911C14.6527 17.2681 14.6378 17.2507 14.6278 17.2376L14.6141 17.2215C14.6241 17.2165 14.6328 17.2109 14.6403 17.2072C14.6477 17.2028 14.6533 17.1985 14.6583 17.1953C14.6627 17.1922 14.6689 17.1866 14.677 17.1779C14.6851 17.1705 14.6919 17.1649 14.6963 17.1611L14.7317 17.2134C14.7417 17.2264 14.7516 17.2414 14.7616 17.2582C14.7877 17.2986 14.8045 17.3241 14.8119 17.3334C14.8331 17.362 14.8549 17.3925 14.8779 17.4261C14.9009 17.4603 14.9196 17.4877 14.9351 17.5088L15.0048 17.6021L15.1491 17.7956L15.1373 17.8012C15.1267 17.8055 15.1174 17.8111 15.1093 17.8174C15.0974 17.8267 15.0856 17.8379 15.0744 17.8503C14.9905 17.8317 14.9301 17.818 14.8934 17.8099C14.8287 17.7956 14.7678 17.7831 14.7099 17.7726C14.6664 17.7639 14.6054 17.7533 14.5258 17.7402L14.3485 17.711L14.4375 17.8348L14.4997 17.9169C14.514 17.9374 14.5519 17.9847 14.6129 18.0606C14.6378 18.0904 14.6596 18.119 14.6807 18.1464V18.1439Z" fill="#011E41"/>
<path d="M14.7899 17.072L14.7793 17.0627C14.7924 17.0472 14.8129 17.026 14.8415 16.998C14.8701 16.9694 14.8913 16.9483 14.9056 16.9327C14.9298 16.906 14.9622 16.8693 15.002 16.8226C15.0418 16.7753 15.0654 16.748 15.0741 16.7393C15.0828 16.7505 15.0934 16.7629 15.1071 16.7747C15.1102 16.7778 15.1146 16.7816 15.1189 16.7853C15.1233 16.7884 15.1289 16.7928 15.1351 16.7971L15.1469 16.8046C15.1276 16.8257 15.0971 16.8568 15.0548 16.8966C15.0125 16.9358 14.9821 16.9669 14.9622 16.9881L15.0486 17.0689L15.1419 17.1548L15.3086 16.9576C15.3167 16.9669 15.3236 16.9744 15.3292 16.9812C15.3348 16.9881 15.3403 16.993 15.3447 16.9974C15.3515 17.0036 15.3578 17.0086 15.3634 17.0117C15.3683 17.0148 15.3739 17.0185 15.3802 17.0217C15.3658 17.0378 15.3422 17.0621 15.3092 17.0932C15.2769 17.1243 15.2533 17.1485 15.2377 17.166L15.1992 17.207L15.3061 17.3047L15.4131 17.4005C15.4672 17.3401 15.522 17.2723 15.5786 17.1958C15.5873 17.2076 15.5985 17.2194 15.6115 17.2313C15.6153 17.2338 15.619 17.2375 15.6234 17.2418C15.6277 17.245 15.6333 17.2487 15.6395 17.2524L15.6514 17.2605C15.6358 17.2767 15.6122 17.3022 15.5798 17.3333C15.5475 17.3669 15.5238 17.3911 15.5083 17.4085L15.4206 17.5099L15.3553 17.5871L15.3092 17.541L15.155 17.3942L15.0275 17.2767L14.9286 17.1877C14.9074 17.1684 14.8913 17.1541 14.8794 17.1442C14.821 17.0963 14.7917 17.072 14.7911 17.072H14.7899Z" fill="#011E41"/>
<path d="M15.1453 16.6653L15.1328 16.6572C15.144 16.641 15.1614 16.6161 15.1857 16.5844C15.2099 16.5527 15.2274 16.5284 15.2392 16.511C15.2597 16.4805 15.2864 16.4395 15.3194 16.3872C15.3518 16.3356 15.3717 16.3039 15.3785 16.2939C15.3891 16.3039 15.4015 16.3145 15.4164 16.325C15.4202 16.3275 15.4252 16.33 15.4295 16.3331C15.4345 16.3362 15.4407 16.3387 15.4469 16.3431L15.4594 16.3481C15.4432 16.3729 15.4177 16.4072 15.3816 16.4532C15.3455 16.498 15.32 16.5322 15.3039 16.5564L15.4009 16.6242L15.5048 16.6964L15.641 16.4762C15.6503 16.4843 15.6578 16.4911 15.6646 16.4973C15.6715 16.5029 15.6771 16.5073 15.682 16.511C15.6901 16.5166 15.6976 16.5204 15.7032 16.5235C15.7082 16.5253 15.7144 16.5284 15.7212 16.5303C15.7088 16.549 15.6889 16.5757 15.6615 16.6112C15.6342 16.6466 15.6136 16.674 15.6006 16.6939L15.5688 16.7393L15.6777 16.8127L15.8817 16.9402C15.8755 16.9495 15.8649 16.9632 15.8506 16.9806C15.8369 16.9987 15.8276 17.0099 15.8239 17.0155C15.817 17.026 15.8077 17.041 15.7971 17.0596C15.7865 17.0795 15.7797 17.0907 15.7766 17.0957L15.725 17.0553L15.5514 16.9334L15.409 16.8351L15.2983 16.7611C15.2746 16.7449 15.256 16.7337 15.2429 16.7256C15.1788 16.6864 15.1453 16.6671 15.1453 16.6665V16.6653Z" fill="#011E41"/>
<path d="M15.5109 16.0342C15.5258 16.0423 15.5414 16.051 15.5594 16.0622C15.603 16.0889 15.6303 16.1057 15.6415 16.1113C15.6633 16.1237 15.6956 16.1412 15.7386 16.166C15.7809 16.1909 15.8138 16.209 15.8356 16.2208C15.8586 16.2332 15.8934 16.25 15.9407 16.273C15.988 16.2948 16.0234 16.3128 16.0477 16.3247C16.0595 16.3309 16.0912 16.3452 16.1429 16.3676C16.164 16.3775 16.1827 16.3862 16.2001 16.3949C16.1951 16.4061 16.1858 16.4204 16.174 16.4391C16.1622 16.4571 16.1553 16.4683 16.1534 16.4721C16.1391 16.4982 16.1255 16.5299 16.1118 16.5635C16.0744 16.5442 16.0284 16.5187 15.9755 16.4876C15.8555 16.4167 15.7802 16.3732 15.7485 16.3564L15.6938 16.3271L15.5632 16.2612C15.5445 16.2519 15.5252 16.2426 15.5066 16.2326C15.4873 16.2239 15.4599 16.2121 15.4238 16.1971C15.43 16.1866 15.4388 16.171 15.4506 16.1524C15.4624 16.1337 15.4699 16.1231 15.4717 16.1188C15.4779 16.107 15.4854 16.0902 15.4941 16.0703C15.5028 16.0497 15.5084 16.0373 15.5103 16.0342H15.5109Z" fill="#011E41"/>
<path d="M16.4032 15.5515L16.4138 15.5391L16.4953 15.5976C16.499 15.633 16.4984 15.671 16.4915 15.7101C16.4853 15.7487 16.4754 15.7873 16.4604 15.8252C16.448 15.8588 16.4349 15.8868 16.4225 15.9092C16.4213 15.911 16.4107 15.9272 16.392 15.9583C16.3821 15.9732 16.3678 15.9907 16.3491 16.0087C16.3298 16.0267 16.313 16.0417 16.2975 16.0535C16.2819 16.0647 16.2639 16.0746 16.2446 16.084C16.2291 16.0902 16.211 16.097 16.1911 16.1032C16.1519 16.1138 16.1127 16.1188 16.0742 16.1163C16.035 16.1138 15.9952 16.1051 15.9548 16.0902C15.8888 16.0647 15.8353 16.0348 15.7949 15.9981C15.7545 15.9621 15.7227 15.9142 15.6991 15.8532C15.6804 15.8016 15.673 15.7475 15.6767 15.6877C15.6811 15.6293 15.6941 15.5714 15.7153 15.5148C15.7296 15.4763 15.7489 15.4408 15.7719 15.406C15.7955 15.3705 15.821 15.3413 15.849 15.3164C15.8621 15.3251 15.8776 15.3363 15.8963 15.3481C15.9143 15.3606 15.9324 15.3718 15.9485 15.3823L15.9429 15.3966C15.9069 15.406 15.8745 15.4228 15.8459 15.447C15.8167 15.4719 15.7955 15.5024 15.7825 15.5372C15.7514 15.6193 15.7601 15.6965 15.8111 15.7661C15.8552 15.8277 15.9205 15.875 16.007 15.9079C16.0481 15.9241 16.0885 15.9334 16.1289 15.9372C16.1706 15.9409 16.2092 15.9372 16.2465 15.9272C16.2832 15.9166 16.3161 15.8961 16.3448 15.8681C16.3734 15.8408 16.3951 15.8084 16.4094 15.7699C16.4219 15.7375 16.4275 15.7014 16.4262 15.661C16.425 15.6206 16.4169 15.5845 16.4032 15.5503V15.5515Z" fill="#011E41"/>
<path d="M15.88 15.0133C15.8962 15.0177 15.9142 15.0233 15.9335 15.0295C15.9814 15.0457 16.0119 15.0562 16.0249 15.0593C16.0492 15.0656 16.0847 15.0761 16.1319 15.0911C16.1792 15.1054 16.2147 15.1166 16.2389 15.1234C16.2638 15.129 16.3017 15.1383 16.3534 15.1495C16.4044 15.1607 16.4429 15.1694 16.4691 15.1763C16.4821 15.1794 16.5163 15.1862 16.5717 15.1974C16.5941 15.2018 16.6152 15.2061 16.6339 15.2117C16.6314 15.2236 16.6258 15.2391 16.6183 15.2596C16.6109 15.2795 16.6065 15.2926 16.6059 15.297C16.5978 15.3262 16.5916 15.3585 16.5854 15.3946C16.5443 15.3834 16.4946 15.3691 16.4361 15.3504C16.3036 15.3088 16.2203 15.2833 16.1854 15.2746L16.1257 15.2584L15.9833 15.2229C15.9627 15.218 15.9428 15.2117 15.9223 15.2074C15.9018 15.2037 15.8725 15.1974 15.834 15.1918C15.8371 15.1788 15.8427 15.162 15.8502 15.1421C15.8576 15.1209 15.862 15.1079 15.8632 15.1041C15.8669 15.0904 15.8701 15.073 15.8744 15.0519C15.8781 15.0295 15.8806 15.017 15.8819 15.0127L15.88 15.0133Z" fill="#011E41"/>
<path d="M16.5911 14.7615C16.5308 14.7889 16.4592 14.7964 16.3771 14.7839C16.333 14.7777 16.2907 14.7665 16.2496 14.7541C16.2092 14.7404 16.1725 14.723 16.1408 14.7012C16.109 14.6782 16.0829 14.649 16.063 14.6098C16.0506 14.5868 16.0431 14.565 16.0412 14.5476C16.0394 14.5289 16.0406 14.5059 16.045 14.476C16.0574 14.3977 16.1003 14.3423 16.1756 14.3093C16.2384 14.2826 16.3112 14.2751 16.3945 14.2882C16.4375 14.295 16.4785 14.305 16.5171 14.318C16.555 14.3324 16.5892 14.3504 16.6185 14.3715C16.6558 14.4014 16.6838 14.435 16.7006 14.4711C16.718 14.5084 16.723 14.5501 16.7161 14.5942C16.7043 14.6738 16.6626 14.7286 16.5917 14.7603L16.5911 14.7615ZM16.351 14.0997C16.3211 14.101 16.29 14.1047 16.2583 14.1128C16.2266 14.1203 16.1967 14.1327 16.1694 14.1495C16.1457 14.1625 16.1215 14.1831 16.0953 14.2111C16.0636 14.244 16.0381 14.282 16.0195 14.3236C16.0002 14.3653 15.9871 14.4114 15.9797 14.4605C15.9703 14.5202 15.9703 14.578 15.9797 14.6322C15.9877 14.6863 16.007 14.7385 16.0381 14.787C16.068 14.8362 16.1078 14.876 16.1557 14.9071C16.2036 14.9369 16.2577 14.9562 16.3155 14.9662C16.3746 14.9749 16.43 14.9749 16.4804 14.9656C16.5308 14.9556 16.578 14.9332 16.6228 14.9015C16.667 14.8685 16.7024 14.8269 16.7286 14.7758C16.7541 14.7248 16.7721 14.6707 16.7808 14.6116C16.7908 14.5501 16.7908 14.4928 16.7827 14.44C16.774 14.3865 16.7541 14.3355 16.723 14.2863C16.6925 14.2366 16.652 14.1968 16.6035 14.1657C16.5544 14.1346 16.5015 14.1147 16.4437 14.1059C16.4113 14.101 16.3802 14.0991 16.351 14.0997Z" fill="#011E41"/>
<path d="M9.71041 15.8223L9.71166 15.6065L9.70295 15.6003C9.65879 15.6252 9.61089 15.6501 9.55864 15.6743C9.55118 15.6619 9.54371 15.6507 9.53501 15.6407C9.52692 15.6301 9.51635 15.6196 9.50391 15.6078V15.5978C9.56486 15.5779 9.62893 15.553 9.69548 15.5244C9.74649 15.5014 9.80869 15.4715 9.88209 15.4336L9.90697 15.4435C9.90697 15.497 9.90572 15.5617 9.90324 15.6345C9.89702 15.8056 9.89391 15.9125 9.89391 15.9567V16.0351C9.89391 16.0674 9.89515 16.1159 9.89826 16.1819C9.90075 16.2472 9.90199 16.2963 9.90199 16.3305L9.89017 16.3293C9.86529 16.3274 9.84601 16.3262 9.83357 16.3249C9.82113 16.3249 9.80993 16.3243 9.79936 16.3243C9.78568 16.3243 9.76639 16.3249 9.74151 16.3274C9.71601 16.3293 9.70108 16.3312 9.69611 16.3312L9.70419 16.2285C9.70419 16.1663 9.70544 16.0861 9.7073 15.9903C9.70917 15.8933 9.71041 15.8379 9.71041 15.8223Z" fill="#011E41"/>
<path d="M10.9767 15.8485C10.9581 15.8939 10.9282 15.9156 10.8878 15.9156C10.8474 15.9156 10.8212 15.8988 10.8032 15.864C10.7926 15.8422 10.7845 15.8093 10.7796 15.7645L10.7758 15.7054C10.7758 15.6575 10.7827 15.6152 10.797 15.581C10.8163 15.5319 10.8455 15.507 10.8866 15.507C10.9326 15.507 10.9649 15.535 10.9823 15.5897C10.9929 15.6214 10.9985 15.6675 10.9985 15.7278C10.9985 15.7751 10.9911 15.8155 10.9774 15.8485H10.9767ZM10.6651 16.2857C10.6682 16.2944 10.6713 16.3038 10.6744 16.3143C10.6776 16.3249 10.6832 16.3311 10.6894 16.3318C10.6956 16.3336 10.7 16.3349 10.7037 16.3374C10.7192 16.3417 10.7311 16.3448 10.7391 16.3461C10.7466 16.3461 10.7603 16.3461 10.7783 16.3461C10.8405 16.3461 10.9002 16.3318 10.9568 16.3025C11.0134 16.2727 11.0595 16.2335 11.0937 16.1819C11.1279 16.1309 11.1528 16.0736 11.1683 16.0102C11.1839 15.9461 11.192 15.8802 11.192 15.8124C11.192 15.7651 11.1857 15.7191 11.1739 15.6743C11.1615 15.6289 11.1434 15.5891 11.1186 15.5555C11.09 15.5188 11.0533 15.4908 11.0103 15.4734C10.9668 15.456 10.9195 15.4473 10.8679 15.4473C10.8268 15.4473 10.7895 15.4522 10.7559 15.4647C10.7217 15.4771 10.6912 15.4952 10.6645 15.5219C10.6297 15.5574 10.6067 15.5909 10.5942 15.6233C10.5824 15.6569 10.5762 15.6986 10.5762 15.7489C10.5762 15.8217 10.6011 15.8808 10.6502 15.9237C10.7 15.9685 10.7615 15.989 10.8349 15.989C10.8996 15.989 10.9519 15.9679 10.9911 15.9237L11.0004 15.9281V15.9411C11.0004 16.0239 10.983 16.0991 10.9488 16.1651C10.9058 16.2484 10.8467 16.2901 10.7715 16.2901C10.7528 16.2901 10.7329 16.2839 10.7099 16.2714C10.6975 16.2646 10.6794 16.2521 10.6558 16.2354L10.6465 16.2447C10.6564 16.2627 10.6626 16.2764 10.6645 16.2839L10.6651 16.2857Z" fill="#011E41"/>
<path d="M11.9014 15.7419C11.9468 15.6741 11.9773 15.6287 11.9922 15.6076H12.0009V15.977H11.7583L11.7515 15.9689C11.8156 15.8713 11.8653 15.796 11.9014 15.7419ZM11.6613 16.0206C11.6626 16.0336 11.6632 16.0448 11.6632 16.0554C11.6632 16.0672 11.6632 16.0778 11.6619 16.0865C11.6619 16.089 11.6607 16.0983 11.6582 16.117H12.0022C12.0022 16.1593 12.0009 16.1991 11.9984 16.2358C11.996 16.2725 11.9935 16.303 11.9904 16.3303C11.9947 16.3303 12.0096 16.3291 12.0333 16.3266C12.0575 16.3241 12.0762 16.3235 12.0905 16.3235C12.1085 16.3235 12.1241 16.3235 12.1372 16.3247C12.1496 16.326 12.1639 16.3278 12.1788 16.3285L12.1906 16.3297L12.1882 16.3073L12.1844 16.252L12.1807 16.1164L12.292 16.1245C12.2895 16.1002 12.2883 16.084 12.2877 16.0772C12.2877 16.071 12.2877 16.061 12.2877 16.0486C12.2877 16.033 12.2877 16.0206 12.2889 16.0088C12.2902 15.9976 12.2908 15.9857 12.2927 15.9733L12.1813 15.9814L12.1838 15.7326L12.1863 15.6032C12.1863 15.597 12.1882 15.5653 12.1913 15.5062C12.1925 15.4919 12.1925 15.4726 12.1925 15.4502C12.1676 15.4558 12.139 15.4589 12.1073 15.4589C12.0955 15.4589 12.0805 15.4577 12.0638 15.4558C12.047 15.4533 12.0364 15.4514 12.0327 15.4514H12.0208C12.0022 15.4807 11.9779 15.5199 11.9474 15.5653C11.9306 15.5908 11.9045 15.6287 11.8697 15.6797L11.7751 15.8228L11.6594 15.9913C11.6601 15.9976 11.6613 16.0081 11.6626 16.02L11.6613 16.0206Z" fill="#011E41"/>
<path d="M12.9717 15.951C12.991 15.9068 13.0208 15.8838 13.0606 15.8838C13.1067 15.8838 13.1378 15.9093 13.1558 15.9597C13.1664 15.9921 13.1714 16.0362 13.1714 16.0922C13.1714 16.142 13.1645 16.1843 13.1521 16.2178C13.1334 16.2676 13.1042 16.2919 13.0625 16.2919C13.0159 16.2919 12.9841 16.2639 12.9667 16.2091C12.9561 16.1762 12.9512 16.1308 12.9512 16.071C12.9512 16.0238 12.958 15.984 12.9723 15.9504L12.9717 15.951ZM13.2354 15.4584C13.218 15.454 13.1962 15.4521 13.1695 15.4521H13.1459C13.1365 15.4534 13.1179 15.4559 13.0899 15.4609C13.0625 15.4652 13.0364 15.4727 13.0109 15.482C12.986 15.4926 12.9624 15.505 12.94 15.5218C12.8765 15.571 12.8286 15.6412 12.7963 15.7321C12.7689 15.8104 12.7559 15.895 12.7559 15.9858C12.7559 16.0319 12.7608 16.076 12.772 16.1177C12.7832 16.16 12.8006 16.1992 12.8255 16.2353C12.8498 16.2707 12.8821 16.2999 12.9238 16.3205C12.9412 16.3292 12.9636 16.3366 12.9904 16.3422C13.0171 16.3472 13.0414 16.3503 13.0644 16.3503C13.1515 16.3503 13.2255 16.3242 13.2846 16.2701C13.3443 16.2178 13.3741 16.1469 13.3741 16.0605C13.3741 15.9827 13.3486 15.9218 13.2983 15.877C13.2479 15.8316 13.1832 15.8098 13.1054 15.8098C13.0457 15.8098 12.996 15.831 12.9568 15.8751L12.9474 15.8701C12.9474 15.8278 12.9524 15.7868 12.963 15.7457C12.9686 15.7246 12.9754 15.7003 12.9835 15.6717C12.9916 15.6443 13.0059 15.6176 13.0258 15.5915C13.0457 15.5666 13.0662 15.5467 13.088 15.533C13.1154 15.515 13.1434 15.5069 13.172 15.5069C13.1857 15.5069 13.1994 15.5075 13.213 15.5088C13.2267 15.51 13.2392 15.5131 13.251 15.5175L13.2584 15.51C13.251 15.4938 13.2423 15.477 13.2348 15.459L13.2354 15.4584Z" fill="#011E41"/>
<path d="M1.59148 10.3161C1.88756 10.3161 2.12827 10.0754 2.12827 9.77996C2.12827 9.4845 1.88818 9.24316 1.59148 9.24316C1.29478 9.24316 1.05469 9.48326 1.05469 9.77996C1.05469 10.0767 1.29478 10.3161 1.59148 10.3161Z" fill="#011E41"/>
<path d="M21.3487 10.141C21.6447 10.141 21.8855 9.90025 21.8855 9.60418C21.8855 9.3081 21.6454 9.06738 21.3487 9.06738C21.052 9.06738 20.8125 9.30748 20.8125 9.60418C20.8125 9.90087 21.0526 10.141 21.3487 10.141Z" fill="#011E41"/>
<path d="M1.96875 5.77388L2.51363 5.0424L2.35688 4.93728L2.58081 4.63685L2.73817 4.74072L3.29114 3.99805L3.52501 4.15542L2.19952 5.93436L1.96875 5.77388Z" fill="#011E41"/>
<path d="M3.8104 5.44518L3.44031 5.19824L3.17969 5.54781L3.54916 5.79475L3.8104 5.44518Z" fill="#011E41"/>
<path d="M4.36461 4.7227L4.13633 4.57031L2.78906 6.37849L3.01734 6.5315L4.36461 4.7227Z" fill="#011E41"/>
<path d="M3.27342 5.62348C2.99041 5.9152 2.65577 6.04831 2.46917 5.92267C2.24836 5.77525 2.3174 5.32305 2.62218 4.91315C2.92759 4.50324 3.35429 4.2899 3.5751 4.43731C3.75984 4.56109 3.74242 4.89635 3.55395 5.24219M3.19941 5.29879C3.35491 5.09042 3.40094 4.86836 3.30328 4.80367C3.20563 4.73774 3.00036 4.85406 2.8461 5.06305C2.6906 5.27018 2.64395 5.49224 2.74161 5.55817C2.83926 5.62348 3.04453 5.50779 3.19941 5.29879Z" fill="#011E41"/>
<path d="M3.40649 6.61082C3.14275 6.43417 3.195 5.93594 3.52218 5.4968C3.84936 5.05704 4.3283 4.84369 4.59141 5.01972C4.85452 5.19575 4.80289 5.69522 4.4751 6.13436C4.14792 6.57412 3.66897 6.78685 3.40586 6.61144L3.40649 6.61082ZM4.23811 5.97575C4.44213 5.70206 4.49002 5.40226 4.34572 5.3046C4.20141 5.20819 3.91902 5.35125 3.71562 5.62556C3.5116 5.89924 3.46309 6.19843 3.60802 6.29546C3.75232 6.39187 4.03471 6.24943 4.23811 5.97575Z" fill="#011E41"/>
<path d="M7.78362 2.30152L7.13797 1.37598L6.83008 1.57004L7.47634 2.49621L7.78362 2.30152Z" fill="#011E41"/>
<path d="M6.31445 3.34852L7.8477 2.38379L8.35713 3.11403L8.03617 3.31618L7.68536 2.81297L6.47307 3.57618L6.31445 3.34852Z" fill="#011E41"/>
<path d="M5.87395 2.81141C5.68361 2.53773 5.76074 2.17199 6.04625 1.99223C6.33175 1.81247 6.71739 1.88773 6.90773 2.16079C7.09806 2.43323 7.02093 2.80022 6.73605 2.97998C6.45055 3.15974 6.06491 3.08385 5.87457 2.81141H5.87395ZM6.56313 2.73242C6.68505 2.65591 6.70682 2.48237 6.61165 2.34553C6.51648 2.20993 6.34046 2.16142 6.21854 2.23792C6.09663 2.31443 6.07486 2.48735 6.17003 2.62357C6.26519 2.75979 6.44122 2.80768 6.56313 2.7318V2.73242Z" fill="#011E41"/>
<path d="M11.367 0.514648H10.4707V2.60397H11.9075V1.54656H12.0332V2.60397H12.4207V0.514648H12.0388V1.24737H11.9131V0.521491H11.5306V2.33091H10.8041V0.748524H11.367V0.514648Z" fill="#011E41"/>
<path d="M19.7848 4.10156L20.8888 5.6062L19.3245 6.63687L19.4439 6.79983L19.2032 6.95845L17.9355 5.23237L18.1763 5.07252L18.4021 5.38103L19.3873 4.73166L19.6162 5.04328L18.6266 5.69577L18.7199 5.82266L19.7145 5.16706L19.9353 5.46749L18.9395 6.12371L19.0869 6.33582L20.4118 5.46314L19.5366 4.26017L19.7848 4.10156Z" fill="#011E41"/>
<path d="M15.931 1.32129L16.8889 1.92402L16.7596 2.10937L15.8066 1.50914L15.931 1.32129Z" fill="#011E41"/>
<path d="M15.5657 1.48828L16.8608 2.30373L16.7028 2.53015L15.4121 1.71842L15.5657 1.48828Z" fill="#011E41"/>
<path d="M17.1535 2.09863L17.5137 2.32442L17.1336 2.87055L17.3296 2.99495L17.1529 3.24935L16.957 3.12495L16.7766 3.38246L16.4258 3.16164L17.1535 2.09863Z" fill="#011E41"/>
<path d="M15.0692 2.41895L16.7287 3.4633L16.3114 4.06291L15.9469 3.83401L16.1876 3.48756L14.8926 2.67335L15.0692 2.41895Z" fill="#011E41"/>
<path d="M15.42 2.01825C15.5724 1.79868 15.9189 1.76074 16.1925 1.93365C16.4669 2.10595 16.5658 2.42317 16.4127 2.64337C16.2603 2.86293 15.9139 2.90088 15.6396 2.72796C15.3653 2.55566 15.267 2.23782 15.4194 2.01825H15.42ZM15.7522 2.5681C15.8585 2.63528 16.019 2.58365 16.1104 2.45241C16.2013 2.32179 16.1888 2.16131 16.0818 2.09413C15.9748 2.02696 15.8144 2.07858 15.7236 2.20858C15.6327 2.34045 15.6452 2.5003 15.7522 2.56748V2.5681Z" fill="#011E41"/>
<path d="M0.750622 13.7335L2.55693 13.1992L2.63033 13.4455L1.88392 13.667L2.16196 14.6062L2.90837 14.3854L2.98114 14.6323L1.17483 15.1673L1.10143 14.9197L1.94612 14.6703L1.66808 13.731L0.823397 13.9817L0.75 13.7341L0.750622 13.7335Z" fill="#011E41"/>
<path d="M1.8965 15.8694C1.97612 15.7101 2.1086 15.5832 2.29459 15.4893C2.52659 15.3699 2.73061 15.3357 2.90602 15.3842C3.08143 15.434 3.21329 15.5447 3.30099 15.7188C3.39181 15.898 3.40363 16.0696 3.33583 16.2339C3.26803 16.3987 3.13554 16.5312 2.93836 16.6313C2.75114 16.7265 2.56329 16.7657 2.3742 16.7495C2.18449 16.7333 2.03894 16.6239 1.93755 16.4229C1.82994 16.2115 1.81626 16.0267 1.8965 15.8681V15.8694ZM2.85875 15.118C2.6398 15.0875 2.4165 15.1298 2.18947 15.2449C1.93817 15.3736 1.76339 15.5453 1.66573 15.7605C1.56995 15.995 1.58861 16.2419 1.71985 16.4995C1.86042 16.7769 2.06631 16.9398 2.3375 16.9908C2.56827 17.0338 2.80961 16.9908 3.06028 16.8627C3.29166 16.7451 3.45339 16.5934 3.54544 16.4062C3.66363 16.1661 3.64683 15.898 3.49631 15.6013C3.352 15.3183 3.13989 15.1572 2.85875 15.1174V15.118Z" fill="#011E41"/>
<path d="M4.43374 17.1805L2.64857 17.9543L3.85091 17.0169L3.24259 18.7156L3.418 18.9414L4.90398 17.7832L4.75469 17.5916L3.55173 18.5302L4.16938 16.8415L3.98402 16.6045L2.49805 17.7627L2.64857 17.9555L4.43374 17.1805Z" fill="#011E41"/>
<path d="M5.71126 18.4537L5.08801 18.2771C4.83672 18.3082 4.60906 18.4438 4.40442 18.6839C4.19978 18.9246 4.10524 19.1709 4.12079 19.4228C4.1494 19.6368 4.2483 19.8165 4.41873 19.9615C4.54997 20.0728 4.67935 20.1418 4.80562 20.1655C4.88026 20.1817 4.98103 20.1804 5.10854 20.1649L4.99782 20.3894L5.12284 20.4945L5.77657 19.7276L5.1471 19.1914L5.00964 19.3519L5.45873 19.7351C5.3138 19.9011 5.16701 19.9851 5.01835 19.9882C4.86906 19.9907 4.72973 19.9372 4.60036 19.8265C4.43117 19.6822 4.35466 19.5248 4.37146 19.3544C4.38763 19.1833 4.46849 19.0123 4.61342 18.8425C4.78136 18.6453 4.95366 18.5352 5.12969 18.5141C5.30509 18.491 5.45935 18.5371 5.59184 18.6503C5.70442 18.7454 5.77657 18.8487 5.80892 18.9594C5.84189 19.0701 5.82509 19.1871 5.75978 19.3127L5.95198 19.4763C6.08011 19.2617 6.10437 19.0564 6.02538 18.8599C5.97188 18.7237 5.87734 18.5986 5.74236 18.4842C5.54581 18.3163 5.32811 18.2478 5.08925 18.2771L5.71126 18.4537Z" fill="#011E41"/>
<path d="M5.87662 20.9233L6.90355 19.3441L6.68709 19.2041L5.66016 20.7828L5.87662 20.9233Z" fill="#011E41"/>
<path d="M6.26687 21.1386L7.16878 19.4854L7.38711 19.6035L6.94672 20.4097L8.19261 20.0439L8.50174 20.2131L7.45055 20.5042L7.61849 21.877L7.32739 21.719L7.20113 20.5739L6.79869 20.6821L6.48395 21.2581L6.26562 21.1386H6.26687Z" fill="#011E41"/>
<path d="M10.1116 20.4698L9.19916 21.386C9.15997 21.6149 9.15997 21.7959 9.2004 21.929C9.27318 22.1728 9.46724 22.3215 9.78011 22.3762C10.0936 22.4309 10.3262 22.3551 10.4774 22.151C10.5607 22.0378 10.6217 21.868 10.6615 21.6391L10.8425 20.5973L10.5875 20.5531L10.3878 21.7001C10.3648 21.8344 10.3256 21.9377 10.2709 22.0105C10.1682 22.1423 10.0109 22.1908 9.79815 22.1535C9.62026 22.123 9.50581 22.0329 9.45418 21.8848C9.41935 21.7872 9.41313 21.6702 9.43677 21.5359L9.63581 20.3889L9.38016 20.3447L9.19916 21.3866L10.1116 20.4698Z" fill="#011E41"/>
<path d="M11.8526 20.6122L11.4054 22.5069L11.373 20.9817L12.3707 22.4857L12.6568 22.4795L12.6164 20.5967L12.3744 20.6017L12.4068 22.1281L11.4228 20.6216L11.1211 20.6284L11.1615 22.5112L11.4047 22.5069L11.8526 20.6122Z" fill="#011E41"/>
<path d="M13.5525 22.3248L13.2303 20.4688L12.9766 20.5123L13.2988 22.369L13.5525 22.3248Z" fill="#011E41"/>
<path d="M13.4348 20.4639L13.7035 20.378L14.7093 21.7402L14.7274 20.0496L14.9992 19.9619L14.9208 21.9666L14.6633 22.0494L13.4336 20.4651L13.4348 20.4639Z" fill="#011E41"/>
<path d="M15.7482 19.552L17.2571 20.8768L17.1508 20.6797L16.145 21.2252L15.8415 20.6635L16.7558 20.1677L16.6519 19.9755L15.7376 20.47L15.4651 19.9668L16.4548 19.4319L16.3447 19.2285L15.1367 19.8829L16.0337 21.5405L17.2578 20.8762L15.7482 19.552Z" fill="#011E41"/>
<path d="M16.9094 19.0841L17.3946 18.6935C17.4624 18.6394 17.5246 18.6058 17.5812 18.5927C17.6881 18.5697 17.7833 18.6102 17.8679 18.7147C17.9463 18.8111 17.973 18.9013 17.9494 18.9821C17.9251 19.063 17.866 19.1414 17.7734 19.2154L17.3137 19.5855L16.9094 19.0835V19.0841ZM17.9537 20.381L17.4468 19.7522L17.8996 19.3883C17.9811 19.323 18.0477 19.2838 18.0999 19.2714C18.1926 19.2502 18.2803 19.2857 18.3618 19.3777L18.5708 19.6122C18.6193 19.6676 18.6541 19.703 18.674 19.7205C18.6946 19.7366 18.7132 19.7484 18.7294 19.7571L18.9732 19.5606L18.9465 19.5282C18.9054 19.5394 18.86 19.5258 18.8103 19.4903C18.781 19.4692 18.7431 19.43 18.6958 19.3752L18.5303 19.1843C18.4582 19.1016 18.3923 19.053 18.3325 19.0387C18.2728 19.0244 18.2057 19.0282 18.1292 19.0512C18.1677 18.9653 18.1814 18.8789 18.1733 18.7937C18.1646 18.7084 18.1248 18.6214 18.0539 18.5343C17.9183 18.3651 17.7566 18.3054 17.5681 18.3545C17.4686 18.38 17.3641 18.4379 17.2515 18.5281L16.5723 19.0761L17.7541 20.5427L17.9531 20.3829L17.9537 20.381Z" fill="#011E41"/>
<path d="M18.334 17.3965L19.3298 19.01C19.5071 18.9889 19.6725 18.89 19.8268 18.714C19.9587 18.5609 20.0408 18.3986 20.0725 18.2269C20.1048 18.0534 20.0426 17.8979 19.8847 17.7604C19.759 17.6503 19.6228 17.6111 19.4779 17.6441C19.3945 17.6628 19.3 17.7107 19.1936 17.7878L18.9747 17.947C18.8272 18.054 18.7265 18.1168 18.6724 18.1374C18.5896 18.1666 18.5137 18.1517 18.4441 18.0913C18.3813 18.0366 18.347 17.9632 18.3427 17.8718C18.339 17.7809 18.3856 17.6789 18.4845 17.5651C18.607 17.4245 18.7308 17.3574 18.8565 17.3636C18.9243 17.3667 19.0008 17.3984 19.0854 17.4544L19.2434 17.2734C19.0854 17.1353 18.9249 17.0874 18.7626 17.1285C18.599 17.1701 18.4534 17.2665 18.324 17.4146C18.1828 17.5769 18.1144 17.7374 18.1194 17.8966C18.1244 18.0565 18.1909 18.1915 18.3184 18.3041C18.436 18.4067 18.5641 18.4384 18.7022 18.3992C18.7818 18.3768 18.8907 18.3152 19.0288 18.2145L19.2403 18.0602C19.3553 17.9769 19.4499 17.9252 19.5251 17.9035C19.5998 17.8836 19.6763 17.9078 19.7534 17.9756C19.8567 18.0658 19.8784 18.1846 19.8181 18.3345C19.7864 18.4117 19.7403 18.4863 19.6775 18.5585C19.5369 18.7208 19.392 18.7911 19.2421 18.7737C19.1625 18.7625 19.0804 18.7245 18.9964 18.6586L18.8391 18.8396C18.9908 18.9752 19.1544 19.0318 19.3311 19.01L18.334 17.3965Z" fill="#011E41"/>
<path d="M19.0943 16.4937L20.7239 17.4479L19.1664 16.3867L19.0215 16.6001L20.5784 17.6606L20.7239 17.4472L19.0943 16.4937Z" fill="#011E41"/>
<path d="M19.2949 16.2434L20.004 14.8887L20.2031 14.9925L19.9082 15.5555L21.3786 16.3261L21.258 16.5557L19.7882 15.785L19.4933 16.3479L19.2949 16.244V16.2434Z" fill="#011E41"/>
<path d="M20.2595 14.1012L22.0135 14.7997L22.0913 14.5565L21.3679 14.3258L20.5132 13.3057L20.4224 13.5899L21.1203 14.3811L20.0928 14.6206L20.002 14.9042L21.2901 14.569L22.0129 14.7997L20.2595 14.1012Z" fill="#011E41"/>
<path d="M8.86595 8.42472V6.65013H12.7865V7.23233H12.8972V6.54004H8.75586V8.53544H10.2101V8.42472H8.86595Z" fill="#011E41"/>
<path d="M12.6497 10.2068L12.5956 10.2498C12.5887 10.3605 12.6142 10.4855 12.5744 10.5838C12.5365 10.6267 12.4749 10.6242 12.4202 10.6174C12.3953 10.5968 12.3997 10.5757 12.3984 10.5446H12.2149L12.195 10.7548C12.3076 10.7461 12.409 10.8015 12.4842 10.6889C12.544 10.7411 12.6522 10.7785 12.6553 10.8674C12.6416 10.8985 12.6093 10.9035 12.5838 10.9147C12.5688 11.0117 12.567 11.1156 12.5384 11.2064C12.5782 11.2201 12.6298 11.2157 12.6715 11.2108C12.7666 10.8413 12.8058 10.4525 12.8394 10.0607C12.9458 10.075 13.0646 10.0806 13.1653 10.1204C13.1796 10.1471 13.1398 10.1608 13.1193 10.1652L13.0982 10.1701C13.0105 10.5241 12.8979 10.8693 12.7598 11.2033L12.7641 11.2114L13.1442 11.1821C13.1529 11.0179 13.0764 10.8761 13.0235 10.7306C13.0745 10.7331 13.1174 10.7772 13.1573 10.8145C13.3215 10.9601 13.4135 11.1442 13.3793 11.3619C13.3687 11.4086 13.3401 11.454 13.2916 11.4701C13.2555 11.4801 13.2163 11.4732 13.1865 11.4546C13.1349 11.4079 13.1473 11.3345 13.1448 11.2661C12.9856 11.309 12.8263 11.3818 12.664 11.4341C12.6491 11.4527 12.6491 11.4994 12.6099 11.4788C12.5757 11.4129 12.5614 11.337 12.5265 11.2698C12.4961 11.3576 12.432 11.4764 12.3256 11.4876C12.2908 11.4919 12.2392 11.5019 12.2218 11.462C12.2099 11.4129 12.2205 11.332 12.1453 11.3277C12.1154 11.3134 12.0756 11.3109 12.0544 11.2823C12.1477 11.2611 12.2927 11.342 12.3437 11.2114C12.3941 11.092 12.3773 10.9657 12.3965 10.8332C12.3294 10.8232 12.2578 10.8158 12.1869 10.8251C12.1826 10.8711 12.1757 10.9041 12.1247 10.9197C12.0855 10.9284 12.0414 10.9358 11.9997 10.9277C11.9624 10.8811 11.9997 10.8232 11.9997 10.7729C12.0233 10.6516 12.0327 10.5241 12.042 10.3953L12.218 10.4805L12.3965 10.4755C12.4127 10.3748 12.3916 10.2877 12.4021 10.1938L11.9562 10.195C11.9518 10.182 11.9443 10.1285 11.9375 10.1173H12.4021L12.4898 10.0283C12.5483 10.0793 12.6746 10.111 12.6522 10.2075L12.6497 10.2068Z" fill="#011E41"/>
<path d="M13.1563 11.6955C13.1221 11.7279 13.0649 11.7024 13.0226 11.7167C13.0798 11.8087 13.1856 11.8392 13.2745 11.8827L13.4456 11.925C13.4493 11.9742 13.3741 11.9785 13.3703 12.0289C13.3573 12.0613 13.3622 12.1011 13.3498 12.134C13.2528 12.1067 13.1775 12.0271 13.0991 11.9586L13.0736 11.9798H12.3788C12.3745 11.9667 12.3552 11.9294 12.3633 11.9157H12.8603C12.9063 11.8883 12.9418 11.7733 13.0064 11.874C13.0114 11.8771 13.0127 11.8846 13.0195 11.8821C12.9903 11.828 12.9517 11.7907 12.9274 11.7304H12.576L12.535 11.6682H12.8895L12.994 11.5605C13.0543 11.5935 13.1277 11.6246 13.157 11.6949L13.1563 11.6955Z" fill="#011E41"/>
<path d="M12.5374 11.7371C12.5337 11.7794 12.4821 11.7726 12.4535 11.7913C12.3216 11.9399 12.1593 12.0743 11.982 12.1427L11.9727 12.1346C12.1114 11.9716 12.2445 11.8087 12.3073 11.6152C12.3857 11.6513 12.4634 11.6874 12.5374 11.7371Z" fill="#011E41"/>
<path d="M13.163 12.2003C13.1698 12.2401 13.1201 12.2345 13.0927 12.2345C13.0716 12.2358 13.0486 12.232 13.0305 12.2389C13.1313 12.3726 13.2942 12.4248 13.4522 12.451C13.4578 12.492 13.3981 12.5057 13.3851 12.5393C13.3676 12.5766 13.3701 12.6233 13.3515 12.66C13.2961 12.6712 13.2488 12.5393 13.2059 12.6401V12.9784C13.2414 12.9542 13.265 12.8994 13.3017 12.8615C13.3596 12.9162 13.4373 12.9654 13.4697 13.0369L13.4168 13.073L12.0067 13.0717C11.9837 13.0761 11.9843 13.0158 11.9719 13.0039L12.2113 13.0083V12.5387C12.1317 12.5853 12.0589 12.6506 11.9688 12.6687V12.6519C12.1149 12.4964 12.2387 12.3322 12.299 12.1425C12.3768 12.1792 12.4595 12.2146 12.5292 12.2675C12.5211 12.3023 12.4776 12.3042 12.4496 12.3129C12.4023 12.3757 12.3444 12.4267 12.2866 12.4808L12.3948 12.5188H12.9832L13.0678 12.4553C13.015 12.3888 12.9665 12.3197 12.9347 12.2432L12.9173 12.2345H12.5746C12.5615 12.2239 12.5584 12.1903 12.5553 12.176H12.9105L13.0013 12.084C13.0616 12.1114 13.1207 12.1468 13.1642 12.2003H13.163ZM12.4695 12.5772H12.4023V13.0089H12.4695V12.5772ZM12.7456 12.5772H12.6865C12.7052 12.5965 12.689 12.6226 12.6704 12.6369V13.0089H12.7456V12.5772ZM13.005 12.576L12.9577 12.5772L12.9658 12.6065C12.9553 12.617 12.9447 12.6282 12.9335 12.6369V13.0089L13.005 13.007V12.5766V12.576Z" fill="#011E41"/>
<path d="M10.2604 10.0265C10.2778 10.0626 10.2243 10.0707 10.2106 10.0887C10.1945 10.5633 10.4663 11.0242 10.9011 11.2388C10.8942 11.2923 10.8706 11.2344 10.7872 11.2854C10.7369 11.3165 10.7319 11.4136 10.6958 11.4148C10.5851 11.38 10.5061 11.2593 10.4327 11.1722C10.2492 10.9247 10.2038 10.6193 10.1646 10.3108C10.1242 10.7418 10.0066 11.2276 9.55007 11.4011C9.48787 11.4217 9.42505 11.4528 9.35352 11.4391L9.35787 11.4235C9.90088 11.1561 9.96122 10.5403 9.93883 9.98047C10.0477 9.99291 10.1609 9.99042 10.2604 10.0265Z" fill="#011E41"/>
<path d="M9.67597 11.7386C9.75932 11.7349 9.93286 11.7654 9.96831 11.6447C10.028 11.6795 10.1114 11.7206 10.1481 11.7921C10.1611 11.8363 10.1107 11.8406 10.0896 11.8593V12.24C10.066 12.2928 9.99506 12.2879 9.94778 12.2879C9.92726 12.2879 9.90611 12.2804 9.89678 12.2593C9.89242 12.2437 9.91046 12.2089 9.88061 12.2095H9.66664L9.65855 12.2257L9.66166 13.0797C9.63927 13.1313 9.57396 13.1257 9.52482 13.1301C9.49869 13.1301 9.47444 13.1195 9.4707 13.0884V11.6416L9.67597 11.7386ZM9.8918 11.9246V11.8021H9.66975V11.9246H9.8918ZM9.8918 12.1305V12.008H9.66975V12.1305H9.8918Z" fill="#011E41"/>
<path d="M10.647 11.7416L10.7061 11.6539C10.7683 11.7018 10.8548 11.728 10.8896 11.8088C10.8884 11.848 10.8442 11.8536 10.8231 11.876L10.8218 13.0329C10.8001 13.1051 10.7198 13.1275 10.6557 13.1312C10.6271 13.1412 10.6141 13.1163 10.6141 13.0933V13.018C10.5662 12.9751 10.5027 12.9658 10.4461 12.9434C10.3964 12.9689 10.3385 12.9894 10.2794 12.9807C10.2496 12.9496 10.2601 12.9029 10.2589 12.8631L10.0325 12.8544C10.0082 12.911 10.0549 13.0174 9.95723 13.0224C9.92364 13.028 9.87948 13.0466 9.84838 13.0224L9.83594 12.9969V12.2859C9.89938 12.3002 9.96469 12.3394 10.0288 12.3649H10.2626L10.3087 12.3021C10.2763 12.3008 10.2359 12.2934 10.2091 12.266L10.2079 11.6533L10.4094 11.741H10.6477L10.647 11.7416ZM10.6302 11.9394V11.8163H10.4088V11.9394H10.6302ZM10.6302 12.1447V12.0209H10.4082V12.1447H10.6302ZM10.2558 12.5689V12.4458H10.0337V12.5689H10.2558ZM10.2558 12.7736V12.6504H10.0337V12.7736H10.2558ZM10.3622 12.289C10.3622 12.289 10.402 12.3033 10.4455 12.3406C10.5531 12.4321 10.4536 12.4694 10.4536 12.4694V12.8961C10.4536 12.8961 10.5133 12.9017 10.568 12.9104C10.6228 12.9185 10.6383 12.8799 10.6383 12.8799V12.2212H10.4038C10.4169 12.2467 10.3622 12.2878 10.3622 12.2878V12.289Z" fill="#011E41"/>
<path d="M14.2296 7.23145V9.1267H10.209V8.53455H12.8961V7.23145H14.2296Z" fill="#011E41"/>
<path d="M10.209 7.23145H12.7853V8.42384H10.209V7.23145ZM12.3574 7.62891H11.5289V7.39192H11.4213V7.62891H10.6456V7.73589H11.3989C11.262 8.05561 10.6487 8.09293 10.6487 8.09293L10.6587 8.20116C11.3373 8.15326 11.4742 7.81924 11.4742 7.81924C11.6651 8.17441 12.3269 8.208 12.3269 8.208L12.3338 8.0979C11.7771 8.04379 11.606 7.84848 11.5519 7.73652H12.3562V7.62953L12.3574 7.62891Z" fill="#011E41"/>
<path d="M5.44141 13.128C5.62428 13.3003 5.72007 13.666 5.72131 13.6698L5.83078 13.6418C5.82643 13.6256 5.72566 13.2412 5.51916 13.0459L5.44141 13.128Z" fill="#011E41"/>
<path d="M5.91016 12.6012C5.91575 12.6187 6.04886 13.0111 6.33996 13.3022L6.4202 13.222C6.14839 12.9514 6.01901 12.5701 6.01776 12.5664L5.91016 12.6012Z" fill="#011E41"/>
<path d="M5.31291 9.42966C5.04607 9.44148 4.80721 9.55344 4.64052 9.74502C4.21444 10.2339 4.46324 10.7247 4.6542 10.9169C4.79291 11.055 5.22147 11.2484 5.5953 10.9306C5.70788 10.8354 5.77319 10.7035 5.77879 10.5598C5.78439 10.4199 5.73339 10.2824 5.64195 10.1916C5.56731 10.1164 5.43731 10.0747 5.32659 10.0896C5.22894 10.1039 5.15181 10.1555 5.10391 10.2414L5.20281 10.2967C5.23329 10.2426 5.27994 10.2109 5.34214 10.2022C5.42985 10.1898 5.51879 10.2277 5.56233 10.2706C5.632 10.3397 5.67056 10.446 5.66621 10.5542C5.66123 10.6675 5.61023 10.7695 5.52252 10.8441C5.17544 11.1389 4.79477 10.897 4.73444 10.8373C4.56899 10.6718 4.35501 10.2451 4.72635 9.81966C4.87439 9.64923 5.07965 9.55406 5.31851 9.54349C5.66496 9.52794 6.03568 9.69401 6.36286 10.0087C6.84989 10.479 6.84927 11.2459 6.84927 11.7043C6.84927 12.1702 6.58367 13.4621 5.76946 13.6002C5.57228 13.6344 5.40123 13.6002 5.26066 13.4988C5.1008 13.3831 5.02243 13.2059 5.00315 13.079C4.96707 12.8451 5.04482 12.6349 5.21525 12.5005C5.3608 12.3861 5.55238 12.3475 5.69109 12.406C5.84099 12.4675 5.94487 12.6031 5.95669 12.7506C5.96602 12.8681 5.91563 12.9658 5.81549 13.028C5.73587 13.0759 5.6575 13.0908 5.58908 13.0697C5.53123 13.0529 5.4852 13.0106 5.45846 12.954L5.35583 13.0006C5.39501 13.0864 5.46841 13.1511 5.55549 13.1785C5.62578 13.1997 5.73774 13.2071 5.87396 13.125C6.0108 13.041 6.08171 12.9011 6.06927 12.7431C6.05434 12.5534 5.9231 12.3798 5.73401 12.3015C5.55549 12.2275 5.3241 12.271 5.14496 12.4109C4.94095 12.5708 4.84827 12.8202 4.89056 13.0952C4.92104 13.2898 5.03425 13.4752 5.1941 13.5903C5.35769 13.7078 5.56295 13.7495 5.7875 13.7116C6.68319 13.5592 6.96185 12.2131 6.96185 11.7404C6.96185 11.2279 6.9631 10.4298 6.44123 9.92789C6.09228 9.59014 5.69109 9.41411 5.31353 9.42966H5.31291Z" fill="#011E41"/>
<path d="M0 11.4997C0 17.8411 5.15894 23 11.5003 23C17.8417 23 23 17.8417 23 11.4997C23 5.15769 17.8411 0 11.5003 0C5.15956 0 0 5.15894 0 11.4997ZM0.113206 11.4997C0.113206 5.22176 5.22176 0.113828 11.5003 0.113828C17.7789 0.113828 22.8868 5.22176 22.8868 11.5003C22.8868 17.7789 17.7789 22.8868 11.5003 22.8868C5.22176 22.8868 0.113206 17.7789 0.113206 11.4997Z" fill="#011E41"/>
<path d="M2.83789 11.5C2.83789 16.2764 6.72358 20.1627 11.5 20.1627C16.2764 20.1627 20.1614 16.2764 20.1614 11.5C20.1614 6.72358 16.2758 2.83789 11.5 2.83789C6.7242 2.83789 2.83789 6.72358 2.83789 11.5ZM2.9511 11.5C2.9511 6.7864 6.78578 2.9511 11.5 2.9511C16.2142 2.9511 20.0482 6.78578 20.0482 11.5C20.0482 16.2142 16.2136 20.0495 11.5 20.0495C6.7864 20.0495 2.9511 16.2142 2.9511 11.5Z" fill="#011E41"/>
<path d="M6.64971 5.76903C6.31196 5.93386 6.07809 6.26912 5.97359 6.7375L5.9145 7.04539C5.84732 7.41673 5.76397 7.87826 5.54005 8.3684C5.34101 8.80256 5.109 9.10673 4.90498 9.37481L4.64062 9.73869L4.73579 9.80089L4.99455 9.44323C5.2023 9.17017 5.43866 8.86165 5.64268 8.41505C5.87282 7.91247 5.95742 7.44285 6.02584 7.06529L6.08431 6.76175C6.18196 6.32137 6.38909 6.02094 6.69947 5.87042C6.9433 5.75161 7.27172 5.75783 7.53607 5.88783C7.76435 5.99979 7.91674 6.18951 7.96588 6.42214C8.02995 6.73065 7.94722 7.06592 7.75502 7.27491C7.59579 7.44907 7.37186 7.52434 7.10875 7.49199C6.73741 7.44845 6.61239 7.19156 6.61923 6.96577C6.62608 6.74061 6.76852 6.49242 7.01794 6.47874C7.19148 6.46817 7.27856 6.55027 7.32024 6.62056C7.37995 6.72008 7.38306 6.85879 7.32708 6.95022L7.42349 7.00931C7.50124 6.88242 7.49875 6.69893 7.41727 6.56271C7.33517 6.42463 7.19086 6.35496 7.0111 6.36553C6.69387 6.38357 6.51411 6.68711 6.50541 6.96328C6.49732 7.22639 6.6466 7.55233 7.09507 7.60582C7.47574 7.65123 7.70961 7.49324 7.83899 7.35266C8.05483 7.11754 8.14813 6.74372 8.07722 6.39974C8.02124 6.13228 7.84708 5.91458 7.58646 5.78644C7.29225 5.64276 6.92464 5.63592 6.65033 5.76965L6.64971 5.76903Z" fill="#011E41"/>
<path d="M9.51668 3.63602L9.32697 3.81952C9.16835 3.99928 8.90276 4.29846 8.42381 4.6698C7.87271 5.09712 7.22396 5.45229 6.83707 5.66439L6.56836 5.81616L6.62869 5.91195L6.8918 5.76391C7.28243 5.54994 7.93616 5.19229 8.4941 4.75937C8.98113 4.38181 9.25108 4.07641 9.4128 3.8954L9.56831 3.73741C9.65166 3.69511 9.92658 3.63291 10.1978 3.84066C10.334 3.94578 10.4124 4.09258 10.4086 4.2344C10.4049 4.35942 10.3408 4.46765 10.2227 4.54789C9.91352 4.75751 9.54654 5.0909 9.05515 5.56052C8.65706 5.94056 8.28572 6.49726 8.01453 6.90406L7.85529 7.14042L7.9486 7.20449L8.10907 6.96688C8.37778 6.56568 8.74539 6.01396 9.13414 5.64262C9.6218 5.17736 9.98443 4.84707 10.2867 4.64181C10.4341 4.54167 10.5181 4.39923 10.5225 4.23813C10.5274 4.06023 10.4329 3.87799 10.2674 3.7511C9.96141 3.5166 9.64357 3.5732 9.51855 3.63665L9.51668 3.63602Z" fill="#011E41"/>
<path d="M6.7793 6.43527L6.83341 6.5348C6.85829 6.52111 7.44733 6.20078 7.68121 5.92336L7.59475 5.85059C7.37456 6.11245 6.78552 6.43216 6.77992 6.4359L6.7793 6.43527Z" fill="#011E41"/>
<path d="M7.32227 6.9587L7.42676 7.00286C7.42676 7.00286 7.54059 6.74597 8.02202 6.38023L7.9536 6.29004C7.44418 6.67755 7.32724 6.9475 7.32289 6.9587H7.32227Z" fill="#011E41"/>
<path d="M5.14125 10.1895L5.23144 10.2586C5.24326 10.2424 5.52378 9.86919 5.61273 9.54513L5.50326 9.51465C5.41991 9.81819 5.14311 10.1864 5.14062 10.1895H5.14125Z" fill="#011E41"/>
<path d="M5.66602 10.6053L5.77798 10.6215C5.77798 10.6172 5.84142 10.2116 6.2109 9.83157L6.13003 9.75195C5.73381 10.1594 5.6685 10.5873 5.66602 10.6047V10.6053Z" fill="#011E41"/>
<path d="M15.3061 5.80291C15.0454 5.93043 14.8706 6.14875 14.8147 6.41684C14.7431 6.75956 14.8371 7.13277 15.0529 7.36851C15.1817 7.50971 15.4155 7.6677 15.7962 7.62229C16.2447 7.5688 16.3939 7.24224 16.3859 6.97975C16.3772 6.70358 16.1968 6.40066 15.8795 6.38263C15.7004 6.37205 15.5555 6.44172 15.4734 6.57918C15.3919 6.7154 15.3894 6.89952 15.4672 7.02641L15.5636 6.96731C15.5076 6.87526 15.5107 6.73655 15.571 6.63703C15.6127 6.56612 15.6998 6.48526 15.8727 6.49521C16.1228 6.50952 16.2652 6.75645 16.272 6.98224C16.2789 7.20803 16.1539 7.4643 15.7819 7.50971C15.5188 7.54018 15.2949 7.46554 15.1356 7.29138C14.9434 7.08176 14.8607 6.74712 14.9248 6.43861C14.9733 6.20598 15.1263 6.01564 15.3546 5.90368C15.6183 5.77492 15.9467 5.7687 16.1899 5.88689C16.5009 6.03866 16.7074 6.33846 16.8051 6.77822L16.8642 7.08363C16.9326 7.46057 17.0172 7.93018 17.2473 8.43152C17.4532 8.88248 17.7319 9.25382 17.9558 9.55238L18.2251 9.92745L18.3203 9.86525L18.0466 9.48458C17.8146 9.17482 17.5509 8.82401 17.35 8.38487C17.1267 7.89597 17.0427 7.43444 16.9755 7.0631L16.9158 6.75459C16.8119 6.28559 16.5781 5.95095 16.2397 5.7855C15.966 5.65177 15.599 5.65799 15.3042 5.80229L15.3061 5.80291Z" fill="#011E41"/>
<path d="M12.6263 3.76796C12.4615 3.89485 12.3657 4.07647 12.3713 4.25437C12.3757 4.41422 12.4597 4.55729 12.6071 4.65743C12.9081 4.86145 13.2714 5.19173 13.7596 5.65824C14.108 5.99101 14.4308 6.4625 14.6908 6.84068L14.939 7.1946L15.0298 7.12618L14.7835 6.77661C14.521 6.39408 14.1944 5.91762 13.8374 5.57676C13.3448 5.10652 12.9778 4.7725 12.6699 4.56413C12.5517 4.48389 12.487 4.37504 12.4833 4.25064C12.4796 4.1082 12.5573 3.9614 12.6941 3.85628C12.9647 3.64915 13.2409 3.71135 13.3242 3.75241L13.4785 3.90978C13.6402 4.09202 13.9102 4.39619 14.3985 4.77561C14.9589 5.21102 15.6139 5.56929 16.0057 5.78326L16.2639 5.92819L16.3236 5.83178L16.0598 5.68374C15.6711 5.47164 15.0211 5.11585 14.4675 4.68666C13.9873 4.31346 13.7217 4.01365 13.5631 3.83451L13.3752 3.65164C13.249 3.58882 12.9305 3.53222 12.6257 3.76796H12.6263Z" fill="#011E41"/>
<path d="M15.2109 5.93899C15.4448 6.21765 15.9704 6.50564 15.9934 6.51745L16.0475 6.41793C16.0419 6.41482 15.5182 6.12808 15.2974 5.86621L15.2109 5.93899Z" fill="#011E41"/>
<path d="M14.8691 6.39621C15.35 6.76257 15.4632 7.01697 15.4638 7.01946L15.5683 6.97468C15.5639 6.96348 15.447 6.69477 14.9376 6.30664L14.8691 6.39621Z" fill="#011E41"/>
<path d="M16.4503 9.94269C15.9284 10.4465 15.9297 11.2439 15.9297 11.7204C15.9297 12.2298 16.2077 13.5758 17.104 13.7282C17.3292 13.7668 17.5345 13.7251 17.6981 13.6063C17.8579 13.4912 17.9711 13.3059 18.001 13.1118C18.0433 12.8363 17.9512 12.5881 17.7472 12.4282C17.5674 12.2864 17.336 12.2429 17.1575 12.3175C16.9691 12.3953 16.8378 12.5688 16.8229 12.7591C16.8105 12.9184 16.8814 13.0571 17.0182 13.1404C17.1544 13.2238 17.267 13.2157 17.3367 13.1939C17.4244 13.1672 17.4978 13.1031 17.5376 13.0179L17.4343 12.9694C17.4082 13.0272 17.3622 13.0677 17.3043 13.0863C17.2353 13.1068 17.1563 13.0925 17.0773 13.044C16.9778 12.9824 16.9268 12.8848 16.9361 12.7679C16.9473 12.6192 17.0518 12.4836 17.2011 12.422C17.3404 12.3642 17.5326 12.4027 17.6782 12.5172C17.8486 12.6515 17.9257 12.8612 17.8896 13.0944C17.8704 13.2219 17.7926 13.3986 17.6327 13.5143C17.4922 13.615 17.3211 13.6499 17.1239 13.615C16.3097 13.4769 16.0435 12.1857 16.0435 11.7565C16.0435 11.2607 16.0423 10.4938 16.5293 10.0242C16.8565 9.70944 17.2266 9.54461 17.573 9.55891C17.8125 9.56886 18.0171 9.66465 18.1658 9.83446C18.5371 10.2618 18.3226 10.6866 18.1571 10.8521C18.0968 10.9124 17.7186 11.1556 17.369 10.8595C17.2813 10.7843 17.2303 10.6816 17.2253 10.5691C17.221 10.4614 17.2595 10.3557 17.328 10.286C17.3771 10.2369 17.476 10.1946 17.5612 10.2139C17.639 10.2319 17.6987 10.2966 17.7385 10.4073L17.8449 10.3688C17.7789 10.1828 17.6676 10.1212 17.5861 10.1032C17.4536 10.0733 17.318 10.1361 17.2477 10.2064C17.1569 10.2972 17.1059 10.4341 17.1115 10.574C17.1177 10.719 17.183 10.8508 17.295 10.946C17.6782 11.2707 18.1192 11.0499 18.2361 10.9323C18.4277 10.7414 18.6765 10.2512 18.2504 9.76044C18.0831 9.56949 17.8442 9.45753 17.5768 9.44633C17.1992 9.43016 16.7986 9.60743 16.4497 9.94269H16.4503Z" fill="#011E41"/>
<path d="M17.2637 9.53962C17.3532 9.86369 17.6263 10.235 17.6381 10.2512L17.7289 10.1834C17.7264 10.1803 17.4571 9.81331 17.3731 9.50977L17.2637 9.54024V9.53962Z" fill="#011E41"/>
<path d="M16.6797 9.8495C17.0492 10.2289 17.112 10.6345 17.1126 10.6388L17.2246 10.6227C17.2221 10.6046 17.1568 10.1779 16.7605 9.77051L16.6797 9.8495Z" fill="#011E41"/>
<path d="M17.0586 13.658L17.1681 13.6854C17.1693 13.6817 17.2651 13.3165 17.4473 13.1443L17.3696 13.0615C17.1631 13.2562 17.0623 13.6412 17.0586 13.6574V13.658Z" fill="#011E41"/>
<path d="M16.4727 13.2385L16.5529 13.3181C16.8434 13.0283 16.9765 12.6345 16.9821 12.6178L16.8745 12.5811C16.8732 12.5854 16.7439 12.9661 16.4727 13.2379V13.2385Z" fill="#011E41"/>
<path d="M10.1315 4.7207C10.1551 4.73439 10.7211 5.05659 11.3904 5.05659C12.3253 5.05659 12.724 4.72941 12.7402 4.71573L12.6674 4.62865C12.6637 4.63176 12.2793 4.94276 11.3904 4.94276C10.7522 4.94276 10.1931 4.62553 10.1875 4.62305L10.1309 4.7207H10.1315Z" fill="#011E41"/>
<path d="M17.0197 15.1053L16.9917 15.2303C16.7646 16.243 16.0754 19.3225 11.5018 19.3225C6.92819 19.3225 6.13948 16.1758 5.89255 15.1414L5.85522 14.9871C5.65058 14.2003 5.1424 13.3867 5.1368 13.3792L5.04102 13.4396C5.04599 13.4477 5.54546 14.2457 5.74575 15.0164L5.78245 15.1675C6.03436 16.2237 6.80068 19.4357 11.5018 19.4357C14.5969 19.4357 16.481 18.0294 17.1024 15.2552L17.1304 15.1314C17.2952 14.4423 17.5148 14.0118 17.9147 13.3624L17.8183 13.3027C17.4115 13.9633 17.1882 14.4012 17.0197 15.1059V15.1053Z" fill="#011E41"/>
<path d="M14.0941 9.58949H11.8978C11.8673 9.59944 11.5544 9.84514 11.4705 9.91107C11.4114 9.86566 11.0674 9.60193 11.0674 9.60193L8.6739 9.59011L7.51883 10.8491L7.50391 14.6937H10.5866C10.6171 14.7242 10.9878 15.0955 10.9878 15.0955H11.9171C11.9171 15.0955 12.2411 14.7714 12.271 14.7416H15.233V10.7564C15.2168 10.7159 14.1333 9.60628 14.1333 9.60628L14.1165 9.58887H14.0928L14.0941 9.58949ZM11.5065 10.0274L11.9332 9.69025C11.9332 9.69025 14.0232 9.70269 14.0704 9.70269C14.1028 9.73566 15.1372 10.7962 15.1372 10.7962C15.1372 10.7962 15.1223 14.5177 15.1216 14.6278H12.2256C12.2256 14.6278 11.9015 14.9518 11.8716 14.9823H11.0357C11.0052 14.9518 10.6345 14.5805 10.6345 14.5805H7.61836V10.8882C7.62893 10.897 8.63472 9.80097 8.72429 9.70394H11.0326C11.0326 9.717 11.4375 10.028 11.4375 10.028L11.4723 10.0554L11.5065 10.028V10.0274Z" fill="#011E41"/>
<path d="M8.6432 9.64648V13.4687H11.1051C11.1051 13.4855 11.4491 13.7903 11.4491 13.7903L11.4864 13.8233C11.4864 13.8233 11.9056 13.4519 11.9063 13.4507C11.9063 13.465 14.0995 13.4687 14.0995 13.4687H14.1561L14.1673 9.65084H14.0541C14.0541 9.65084 14.0435 13.2454 14.0429 13.3549C13.9352 13.3549 11.8689 13.3512 11.8689 13.3512C11.8372 13.3636 11.5716 13.5962 11.4858 13.6715C11.4248 13.618 11.1443 13.3692 11.1443 13.3692C11.1443 13.3692 8.86339 13.3568 8.75578 13.3555V9.64648H8.64258H8.6432Z" fill="#011E41"/>
<path d="M14.5958 10.2314C14.5958 10.2314 14.5989 13.8005 14.5995 13.9119H12.0437C12.0051 13.9274 11.622 14.29 11.622 14.29C11.622 14.29 11.2898 14.277 11.2475 14.2751C11.2189 14.2471 10.8961 13.9243 10.8961 13.9243H8.20092C8.20092 13.8148 8.19719 10.247 8.19719 10.247H8.08398L8.08772 14.0375H10.8494C10.8793 14.068 11.1996 14.3877 11.1996 14.3877H11.6612C11.7003 14.3728 12.0829 14.0089 12.0829 14.0089L14.7127 14.0245L14.709 10.2314H14.5958Z" fill="#011E41"/>
<path d="M8.37305 9.94593L8.37927 13.7738H10.965C10.9948 13.8055 11.3151 14.1389 11.3151 14.1389H11.6131C11.6131 14.1389 11.911 13.8011 11.9415 13.7669C11.9913 13.7669 14.46 13.7588 14.46 13.7588V9.97455H14.3468V13.6463C14.2386 13.6463 11.8899 13.6537 11.8899 13.6537C11.8899 13.6537 11.5919 13.9915 11.5615 14.0251H11.363C11.3326 13.9933 11.0129 13.6599 11.0129 13.6599H8.49247C8.49247 13.5505 8.48687 9.94531 8.48687 9.94531H8.37367L8.37305 9.94593Z" fill="#011E41"/>
<path d="M14.8726 10.5225V14.267H12.0823C12.0823 14.267 11.7986 14.55 11.7688 14.5804H11.1337C11.1032 14.5431 10.8271 14.2004 10.8271 14.2004C10.8271 14.2004 8.00313 14.2047 7.89428 14.2047C7.89428 14.0953 7.89055 10.5859 7.89055 10.5859H7.77734L7.78108 14.3186C7.78108 14.3186 10.7194 14.3142 10.7723 14.3142C10.8028 14.3522 11.079 14.6936 11.079 14.6936H11.8148C11.8148 14.6936 12.0991 14.4106 12.1289 14.3802H14.9858V10.5225H14.8726Z" fill="#011E41"/>
<path d="M8.65724 13.3715L7.51953 14.5967L7.60249 14.6737L8.7402 13.4485L8.65724 13.3715Z" fill="#011E41"/>
<path d="M14.0566 13.449L15.1203 14.6887L15.2061 14.6147L14.1425 13.375L14.0566 13.449Z" fill="#011E41"/>
</g>
<defs>
<clipPath id="clip0_4393_55144">
<rect width="23" height="23" fill="white"/>
</clipPath>
</defs>
</svg>
