<svg width="23" height="23" viewBox="0 0 23 23" fill="none" xmlns="http://www.w3.org/2000/svg">
<g clip-path="url(#clip0_4956_56228)">
<path d="M11.4975 0C5.14668 0 0 5.14668 0 11.4975C0 17.8482 5.14668 22.9949 11.4975 22.9949C17.8482 22.9949 22.9949 17.8482 22.9949 11.4975C22.9949 5.14668 17.8482 0 11.4975 0ZM11.4975 22.6901C5.31942 22.6901 0.309918 17.6806 0.309918 11.4975C0.309918 5.31434 5.31942 0.309918 11.4975 0.309918C17.6755 0.309918 22.6901 5.31942 22.6901 11.5025C22.6901 17.6857 17.6806 22.6952 11.4975 22.6952V22.6901Z" fill="#231815"/>
<path d="M11.4974 4.1709C7.4481 4.1709 4.16602 7.45298 4.16602 11.5022C4.16602 15.5515 7.4481 18.8336 11.4974 18.8336C15.5466 18.8336 18.8287 15.5515 18.8287 11.5022C18.8287 7.45298 15.5466 4.1709 11.4974 4.1709ZM11.4974 18.6558C7.54463 18.6558 4.33876 15.4499 4.33876 11.4972C4.33876 7.54443 7.54463 4.33856 11.4974 4.33856C15.4501 4.33856 18.656 7.54443 18.656 11.4972C18.656 15.4499 15.4501 18.6558 11.4974 18.6558Z" fill="#231815"/>
<path d="M2.16936 11.869C2.41323 11.869 2.60629 11.6708 2.60629 11.4321C2.60629 11.1933 2.40815 10.9951 2.16936 10.9951C1.93057 10.9951 1.73242 11.1933 1.73242 11.4321C1.73242 11.6708 1.93057 11.869 2.16936 11.869Z" fill="#231815"/>
<path d="M21.0385 11.869C21.2824 11.869 21.4754 11.6708 21.4754 11.4321C21.4754 11.1933 21.2773 10.9951 21.0385 10.9951C20.7997 10.9951 20.6016 11.1933 20.6016 11.4321C20.6016 11.6708 20.7997 11.869 21.0385 11.869Z" fill="#231815"/>
<path d="M3.29653 13.428L3.24064 13.2096L3.30161 13.1943L3.47943 13.9056L3.42354 13.9209L3.36766 13.7024L1.80282 14.0987L1.85871 14.3172L1.80282 14.3324L1.625 13.6211L1.68089 13.6059L1.73677 13.8294L3.30161 13.4331L3.29653 13.428Z" fill="#231815"/>
<path d="M3.57502 14.3839L3.48357 14.1807L3.53946 14.1553L3.763 14.6633L2.98567 15.9487L4.05768 15.4762L3.95099 15.2374L4.00687 15.212L4.2355 15.7201L4.17961 15.7455L4.08816 15.5423L2.54365 16.2282L2.51317 16.1926L3.54962 14.4804L2.12704 15.1054L2.23373 15.3492L2.17785 15.3746L1.94922 14.8615L2.00511 14.8361L2.09656 15.0393L3.56994 14.3839H3.57502Z" fill="#231815"/>
<path d="M5.01392 16.8988L4.88182 16.726L4.92755 16.6904L5.36448 17.2646L5.31876 17.3001L5.18158 17.1172L3.90126 18.0927L4.03844 18.2756L3.99271 18.3112L3.55578 17.7371L3.6015 17.7015L3.7336 17.8742L4.36868 17.3865L3.91142 16.787L3.27634 17.2747L3.40844 17.4475L3.36272 17.483L2.92578 16.9089L2.97151 16.8733L3.10868 17.0563L4.389 16.0808L4.25182 15.8979L4.29755 15.8623L4.73448 16.4364L4.68876 16.472L4.55666 16.2992L3.95715 16.7514L4.4144 17.3509L5.01392 16.8988Z" fill="#231815"/>
<path d="M5.35329 18.6358L5.04845 18.3665L5.61748 18.0413L5.34821 18.6358H5.35329ZM4.42353 18.6409L4.27111 18.5037L4.23047 18.5494L4.63692 18.9101L4.67756 18.8644L4.48958 18.6968L4.9824 18.4072L5.31772 18.7069L5.07893 19.2251L4.89095 19.0575L4.85031 19.1032L5.43458 19.6214L5.47522 19.5757L5.30756 19.4284L6.01885 17.7873L5.98329 17.7568L4.42353 18.6459V18.6409Z" fill="#231815"/>
<path d="M7.41785 18.9003L7.21462 18.8088L7.24003 18.7529L7.91067 19.0578L7.88527 19.1137L7.6668 19.012L7.18922 20.0587C7.05712 20.3432 7.06221 20.5057 7.41785 20.6683C7.83446 20.8563 7.9564 20.7039 8.07325 20.4397L8.54067 19.4083L8.30188 19.3016L8.32728 19.2458L8.81502 19.4693L8.78962 19.5252L8.60164 19.4388L8.11898 20.4956C7.9818 20.7953 7.8243 20.9427 7.30608 20.709C6.77769 20.4651 6.77769 20.272 6.91487 19.9774L7.40769 18.9003H7.41785Z" fill="#231815"/>
<path d="M9.32253 19.667L9.10406 19.6264L9.11422 19.5654L9.65785 19.6721L10.2675 21.049L10.4911 19.8957L10.232 19.8449L10.2421 19.7839L10.7908 19.8906L10.7807 19.9516L10.5622 19.9109L10.2421 21.5672H10.1964L9.3835 19.7382L9.08882 21.2624L9.35301 21.3132L9.34285 21.3741L8.78906 21.2674L8.79922 21.2065L9.01769 21.2471L9.32761 19.667H9.32253Z" fill="#231815"/>
<path d="M11.3693 19.9623H11.1406V19.9014H11.8722V19.9623H11.6436V21.5729H11.8722V21.6339H11.1406V21.5729H11.3693V19.9623Z" fill="#231815"/>
<path d="M12.2942 19.9113L12.0961 19.9418L12.0859 19.8808L12.8125 19.7639L12.8226 19.8249L12.5788 19.8655L13.1834 21.0595L13.4018 19.7334L13.1579 19.7741L13.1478 19.7131L13.6559 19.6318L13.666 19.6928L13.4882 19.7233L13.1783 21.4964L13.1275 21.5066L12.2942 19.9214V19.9113Z" fill="#231815"/>
<path d="M14.1028 19.5403L13.8895 19.6216L13.8691 19.5657L15.1596 19.0576L15.3679 19.5454L15.307 19.5657C15.0783 19.1948 14.9818 19.1897 14.4636 19.3929L14.3569 19.4336L14.6312 20.1296L14.7532 20.0788C15.0174 19.9772 14.997 19.8705 14.8954 19.6266L14.9615 19.6012L15.2663 20.3684L15.2003 20.3938C15.0885 20.1144 15.0428 20.0433 14.7786 20.1449L14.6566 20.1957L14.9462 20.9273L15.2866 20.7901C15.6321 20.6529 15.6778 20.4345 15.5966 20.0941L15.6575 20.0687L15.8557 20.6275L14.4991 21.161L14.4788 21.1051L14.6922 21.0238L14.1028 19.525V19.5403Z" fill="#231815"/>
<path d="M16.0088 18.6102L16.1155 18.539C16.3238 18.4019 16.4661 18.4679 16.588 18.6559C16.6998 18.8236 16.7303 18.9963 16.5474 19.1182L16.4051 19.2097L16.0088 18.6051V18.6102ZM16.6693 20.109L16.4813 20.236L16.5118 20.2868L17.1164 19.8905L17.0808 19.8397L16.8979 19.9616L16.4508 19.2808L16.5778 19.1944C16.837 19.0217 16.9386 19.0827 17.1266 19.3316C17.3349 19.606 17.4111 19.6873 17.66 19.5247L17.8074 19.4281L17.7718 19.3773L17.721 19.4129C17.5991 19.4942 17.5127 19.3977 17.3603 19.1944C17.1316 18.8845 17.0148 18.9048 16.6896 19.0674C16.8674 18.9099 16.9741 18.7423 16.8166 18.5086C16.6236 18.2139 16.4051 18.2799 16.1511 18.4476L15.5566 18.8388L15.5922 18.8896L15.7802 18.7626L16.6693 20.109Z" fill="#231815"/>
<path d="M17.792 18.6966L17.8378 18.6509C18.0461 18.8389 18.3611 18.8694 18.5643 18.6712C18.7066 18.529 18.7777 18.3156 18.61 18.153C18.2798 17.8228 17.7311 18.6001 17.3094 18.1733C17.096 17.9549 17.157 17.65 17.3602 17.4468C17.4618 17.3452 17.6142 17.2537 17.7514 17.208L18.0308 17.4671L17.9851 17.5128C17.7514 17.3553 17.5533 17.3604 17.3958 17.5179C17.2738 17.6348 17.223 17.8177 17.3602 17.9549C17.665 18.2648 18.1985 17.4874 18.6507 17.9498C18.8844 18.1886 18.8031 18.5391 18.5897 18.7525C18.4627 18.8795 18.3306 18.971 18.1426 19.0421L17.787 18.7068L17.792 18.6966Z" fill="#231815"/>
<path d="M18.1927 16.6293L18.0555 16.8122L18.0098 16.7767L18.4467 16.1924L18.4975 16.2279L18.3603 16.4108L19.6508 17.3762L19.788 17.1933L19.8388 17.2288L19.4019 17.8131L19.3561 17.7775L19.4933 17.5946L18.2028 16.6293H18.1927Z" fill="#231815"/>
<path d="M18.9853 15.4401L18.8888 15.628C18.777 15.8516 18.9599 16.0497 19.1581 16.1564L19.1276 16.2225L18.6348 15.9735L19.3308 14.5967L19.8236 14.8456L19.7931 14.9117C19.5899 14.8202 19.3156 14.7897 19.2038 15.0082L19.1073 15.1962L20.5298 15.9176L20.6518 15.6789L20.7077 15.7043L20.3419 16.4257L20.286 16.4003L20.4079 16.1615L18.9853 15.4401Z" fill="#231815"/>
<path d="M20.3923 14.0074L19.5032 14.2411L19.4524 14.4392L19.3965 14.424L19.5946 13.6771L19.6505 13.6924L19.5845 13.9362L20.3669 13.7482L19.7724 13.2148L19.7115 13.4536L19.6556 13.4383L19.7877 12.9404L19.8436 12.9557L19.7928 13.1386L20.4583 13.7381L21.2458 13.9464L21.3017 13.7279L21.3576 13.7432L21.1696 14.4494L21.1137 14.4341L21.1747 14.2106L20.3923 14.0023V14.0074Z" fill="#231815"/>
<path d="M5.66932 4.18697C5.46101 3.84657 5.57279 3.39439 5.91827 3.18608C6.26375 2.9727 6.71593 3.07939 6.92423 3.42487C7.13254 3.76528 7.02076 4.21745 6.67528 4.42576C6.3298 4.63914 5.87762 4.53245 5.66932 4.18697ZM6.52286 4.17681C6.67528 4.08028 6.70068 3.84149 6.57875 3.63826C6.45173 3.43504 6.22819 3.34358 6.07069 3.44012C5.91827 3.53665 5.89286 3.77544 6.0148 3.97866C6.14182 4.18189 6.36536 4.27334 6.52286 4.17681Z" fill="#231815"/>
<path d="M6.02033 2.95737L5.89331 2.74906L5.53767 2.96753L5.66468 3.17583L5.19727 3.46035L5.3446 3.69914L6.63 2.91164L6.48775 2.67285L6.02033 2.95737Z" fill="#231815"/>
<path d="M6.98064 2.19043L6.625 2.4089L7.80879 4.34462L8.16443 4.12615L7.48871 3.01857L7.80879 2.82551L7.66145 2.58672L7.34137 2.77978L6.98064 2.19043Z" fill="#231815"/>
<path d="M12.2382 1.14844V1.8394H12.0908V1.14844H11.6895V3.4144H12.0908V2.13916H12.2382V3.4144H12.6395V1.14844H12.2382Z" fill="#231815"/>
<path d="M10.867 1.52943H11.497V1.25H10.4453V2.59129C10.4453 2.73354 10.5672 2.84532 10.7146 2.84532H11.8323V2.56588H10.8619V1.52435L10.867 1.52943Z" fill="#231815"/>
<path d="M3.36299 7.74761L3.88629 8.02196L4.60774 6.65527L4.85669 6.78737L4.06411 8.28107C3.99298 8.41317 3.83548 8.46906 3.71355 8.40301L3.16992 8.11849L3.36807 7.74761H3.36299Z" fill="#231815"/>
<path d="M2.84338 5.72947L2.64844 6.09766L3.98648 6.80611L4.18143 6.43793L2.84338 5.72947Z" fill="#231815"/>
<path d="M2.32079 8.0069C2.02103 7.8494 1.93466 7.43279 2.12264 7.07714C2.31063 6.7215 2.70692 6.55892 3.00159 6.71642C3.30135 6.87392 3.38772 7.29053 3.19974 7.64617C3.01175 8.00182 2.61546 8.1644 2.32079 8.0069ZM2.94062 7.509C3.02699 7.3515 2.97111 7.15335 2.81361 7.07206C2.66119 6.99077 2.46813 7.05174 2.38176 7.21432C2.29538 7.37182 2.35127 7.56997 2.50877 7.65126C2.66119 7.73255 2.85425 7.67158 2.94062 7.509Z" fill="#231815"/>
<path d="M15.8362 2.85589C15.9988 2.61202 16.3799 2.58662 16.6949 2.79492C17.0099 3.00323 17.1318 3.36903 16.9743 3.60782C16.8117 3.85169 16.4307 3.8771 16.1157 3.66879C15.8007 3.46049 15.6787 3.09468 15.8362 2.85589ZM16.2579 3.45541C16.3849 3.54178 16.5577 3.51129 16.6339 3.38936C16.7152 3.26742 16.6745 3.09976 16.5475 3.01339C16.4205 2.92702 16.2478 2.9575 16.1716 3.07944C16.0903 3.20137 16.1309 3.36904 16.2579 3.45541Z" fill="#231815"/>
<path d="M16.893 2.87584L17.0251 2.67262L16.6797 2.44399L16.5425 2.64722L16.1055 2.35254L15.9531 2.58625L17.1776 3.39915L17.33 3.16544L16.893 2.87584Z" fill="#231815"/>
<path d="M18.0302 3.44465L17.6847 3.21094L16.9785 4.27279L17.3291 4.5065L17.639 4.03908L17.9489 4.24739L18.1064 4.01368L17.7914 3.80537L18.0302 3.44465Z" fill="#231815"/>
<path d="M15.6524 3.54688L15.5 3.78058L16.7549 4.60873L16.4298 5.10155L16.7803 5.33526L17.2579 4.60873L15.6524 3.54688Z" fill="#231815"/>
<path d="M19.1126 7.61608L19.8442 7.20455L19.641 6.83875L18.9094 7.25028L18.3708 6.29004L18.127 6.42722L19.3209 8.56108L19.5648 8.4239L19.1126 7.61608Z" fill="#231815"/>
<path d="M18.7013 7.10764L19.5294 6.64022L19.3262 6.27441L18.498 6.74183" fill="#231815"/>
<path d="M20.8356 7.1484L19.9922 5.64453L19.7483 5.78171L20.5155 7.15348L19.2148 7.88509L19.4181 8.25089L20.7492 7.50404C20.866 7.43799 20.9016 7.28049 20.8305 7.15348L20.8356 7.1484Z" fill="#231815"/>
<path d="M15.8362 7.77846H14.1495V7.35168H13.5093V5.51758H10.9385C10.4406 5.51758 10.0291 5.68524 9.74965 5.99516C9.49054 6.28983 9.35336 6.69628 9.35336 7.17386V7.77846H7.33635L6.49805 15.6483L11.5838 17.8127L16.6695 15.6483L15.8362 7.77846ZM11.599 17.6298H11.5888H11.5787L6.69619 15.5518H6.68095V15.5264L7.48369 7.96644V7.94612H9.52102V7.17386C9.52102 6.73693 9.64296 6.37112 9.87666 6.10693C10.1256 5.8275 10.4914 5.68524 10.9385 5.68524H13.3417V7.51935H13.9818V7.94612H15.6838V7.96644L16.4866 15.5264V15.5417L16.4713 15.5467L11.5939 17.6247L11.599 17.6298Z" fill="#231815"/>
<path fill-rule="evenodd" clip-rule="evenodd" d="M13.9878 8.81024H13.9624H13.3477V9.96862H13.9624H13.9878V9.99403V10.2684H15.639L15.4206 8.24121H13.9878V8.78484V8.81024Z" fill="#00AFEC"/>
<path fill-rule="evenodd" clip-rule="evenodd" d="M7.75245 8.24121L7.53906 10.2684H9.52559V8.24121H7.75245Z" fill="#00AFEC"/>
<path fill-rule="evenodd" clip-rule="evenodd" d="M15.6636 10.5422H13.982V11.2484H13.3418V12.229H11.3553V10.5422H10.6084V10.7302C10.6084 11.7006 9.70915 12.2036 8.82004 12.2036H8.72859V11.1519H8.78447C9.20617 11.1519 9.52117 10.9334 9.52117 10.6387V10.5371H7.50924L6.99609 15.3535L11.5839 17.3096L16.1717 15.3535L15.6586 10.5371L15.6636 10.5422Z" fill="#005BAC"/>
<path d="M11.3543 8.24121H10.6074V10.2684H11.3543V8.24121Z" fill="#00AFEC"/>
<path fill-rule="evenodd" clip-rule="evenodd" d="M11.1155 6.625C10.8716 6.625 10.6074 6.79774 10.6074 7.18387V7.94596H11.3543V6.625H11.1104H11.1155ZM11.1917 7.7783H10.7751V7.18387C10.7751 6.89427 10.958 6.79266 11.1155 6.79266H11.1917V7.7783Z" fill="black"/>
<path d="M9.42969 13.707V13.8391H9.74977V14.9365H9.91743V13.4326H9.78533C9.75993 13.6663 9.64307 13.707 9.42969 13.7121V13.707Z" fill="white"/>
<path d="M10.7705 13.4277C10.5419 13.4277 10.3691 13.631 10.3691 13.9561C10.3691 14.2 10.486 14.4134 10.7553 14.4134C10.862 14.4134 10.9737 14.3575 11.0347 14.2305C11.0245 14.3931 11.0296 14.8147 10.7756 14.8147C10.6333 14.8147 10.5774 14.7436 10.5774 14.6064H10.4047C10.4098 14.8249 10.5317 14.9672 10.7553 14.9672C11.1871 14.9672 11.2024 14.4439 11.2024 14.1289C11.2024 13.8139 11.1719 13.4277 10.7705 13.4277ZM10.7807 14.261C10.5876 14.261 10.547 14.0781 10.547 13.9206C10.547 13.7631 10.5927 13.5751 10.7807 13.5751C10.9788 13.5751 11.0296 13.7885 11.0296 13.946C11.0296 14.1035 10.9737 14.261 10.7858 14.261H10.7807Z" fill="white"/>
<path d="M12.0249 13.9459C11.9182 13.9459 11.8522 13.9815 11.7811 14.0526L11.8471 13.6055H12.3552V13.4531H11.715L11.6286 14.2254H11.776C11.8166 14.1339 11.8878 14.0882 11.9843 14.0882C12.1977 14.0882 12.2332 14.2711 12.2332 14.4438C12.2332 14.6318 12.1672 14.8097 11.9945 14.8097C11.8217 14.8097 11.7658 14.6979 11.7709 14.5353H11.5982C11.588 14.7995 11.7303 14.957 11.9995 14.957C12.3095 14.957 12.4111 14.6826 12.4111 14.4184C12.4111 14.1746 12.3044 13.9409 12.03 13.9409L12.0249 13.9459Z" fill="white"/>
<path d="M13.3629 14.4083V13.4277H13.2104L12.6465 14.4032V14.5556H13.1952V14.9316H13.3629V14.5556H13.4949V14.4032H13.3629V14.4083ZM13.1952 14.4083H12.7786L13.1952 13.6919V14.4083Z" fill="white"/>
</g>
<defs>
<clipPath id="clip0_4956_56228">
<rect width="23" height="23" fill="white"/>
</clipPath>
</defs>
</svg>
