<svg width="23" height="23" viewBox="0 0 23 23" fill="none" xmlns="http://www.w3.org/2000/svg">
<g clip-path="url(#clip0_4956_56299)">
<path d="M3.89368 13.5215L3.97128 13.7123C3.92989 13.7375 3.79603 13.806 3.71907 13.8377C3.95447 13.8778 4.13684 14.0143 4.27653 14.359C4.50158 14.9138 4.27459 15.4008 3.72748 15.6226C3.20947 15.8322 2.66365 15.644 2.42566 15.0574C2.2129 14.5323 2.38945 14.1986 2.62226 14.0259L2.72638 14.2833C2.58734 14.4172 2.49098 14.6351 2.62937 14.9772C2.80786 15.4183 3.21205 15.5256 3.6059 15.3659C4.02237 15.1971 4.23126 14.8388 4.056 14.4049C3.90726 14.0382 3.63758 13.9056 3.2903 14.046L3.23857 14.0673L3.46944 14.637L3.25862 14.7224L2.93074 13.9121L3.89433 13.5215H3.89368Z" fill="#662C91"/>
<path d="M3.18605 12.7811L3.7836 12.9642L3.81335 13.2403L1.83961 12.6324L1.80469 12.3084L3.60058 11.2607L3.63227 11.5531L3.08839 11.8667L3.18669 12.7805L3.18605 12.7811ZM2.86851 11.9792C2.37249 12.2664 2.13709 12.4015 2.01422 12.4578V12.4604C2.14097 12.4869 2.4792 12.58 2.94871 12.7229L2.86851 11.9792Z" fill="#662C91"/>
<path d="M3.62416 11.0247L1.75195 10.7188L1.80369 10.4026C2.45815 10.076 3.32668 9.5981 3.53621 9.52373V9.51856C3.29175 9.49722 2.99362 9.44613 2.69032 9.39698L1.98606 9.28187L2.0268 9.03418L3.89901 9.33942L3.8505 9.63755C3.43015 9.85614 2.30036 10.4246 2.05978 10.5229V10.5281C2.30359 10.5546 2.56745 10.5973 2.89985 10.6516L3.6649 10.7764L3.62416 11.0241V11.0247Z" fill="#662C91"/>
<path d="M4.79311 7.28869L4.70516 7.47494C4.65795 7.46136 4.51697 7.40962 4.44196 7.3747C4.57194 7.57518 4.59522 7.80152 4.43678 8.13781C4.18133 8.6791 3.66979 8.84272 3.13561 8.5905C2.63054 8.35187 2.39837 7.82287 2.66869 7.24989C2.91056 6.7377 3.2753 6.64069 3.55985 6.69502L3.44151 6.94658C3.24879 6.93559 3.02309 7.01255 2.86594 7.3456C2.66287 7.77566 2.85753 8.14557 3.24232 8.32729C3.64845 8.51872 4.05393 8.42947 4.25376 8.00653C4.42255 7.6489 4.33719 7.36047 3.99896 7.20074L3.94852 7.17681L3.68596 7.73297L3.48031 7.63597L3.85345 6.8457L4.79376 7.28934L4.79311 7.28869Z" fill="#662C91"/>
<path d="M4.75366 6.4242C4.96901 6.51797 5.19277 6.49534 5.43529 6.21402C5.67909 5.93076 5.66422 5.72705 5.53035 5.61194C5.38872 5.48971 5.23352 5.49424 4.85002 5.81242C4.40574 6.18104 4.18133 6.16746 3.98473 5.99867C3.73122 5.78073 3.79331 5.41793 4.06363 5.10428C4.46588 4.63606 4.8054 4.7376 4.96513 4.84689L4.78923 5.05125C4.66377 4.99628 4.48205 4.94519 4.22078 5.24914C4.04293 5.45608 3.99896 5.65074 4.14253 5.77426C4.26023 5.87515 4.38569 5.88097 4.72262 5.6003C5.25809 5.1586 5.48961 5.21292 5.69009 5.38559C5.91902 5.58284 5.95847 5.934 5.58532 6.36729C5.23998 6.76824 4.88171 6.81222 4.57452 6.63244L4.75431 6.42355L4.75366 6.4242Z" fill="#662C91"/>
<path d="M7.04956 3.91967L6.11895 4.57608L6.49792 5.11349L7.52424 4.38918L7.62448 4.59612L6.40803 5.4543L5.31445 3.90351L6.51344 3.05762L6.64278 3.24128L5.66432 3.93131L5.98767 4.38983L6.91828 3.73342L7.04891 3.91903L7.04956 3.91967Z" fill="#662C91"/>
<path d="M9.41885 2.86956C9.59993 3.3727 9.41368 3.92821 8.81483 4.14357C8.23862 4.35116 7.73096 4.0679 7.54147 3.54213C7.36298 3.04676 7.57898 2.48607 8.15261 2.27977C8.72365 2.07412 9.23971 2.3716 9.41885 2.86956ZM7.80662 3.44125C7.94437 3.82345 8.30393 4.0886 8.74628 3.92951C9.1841 3.77236 9.29339 3.35782 9.1537 2.97045C9.01984 2.59794 8.66092 2.33538 8.2134 2.49641C7.79563 2.64645 7.66952 3.06163 7.80597 3.44125H7.80662Z" fill="#662C91"/>
<path d="M11.2549 1.72812L11.2142 2.80423C11.1954 3.30349 11.4839 3.45094 11.7697 3.46193C12.1196 3.47487 12.3343 3.31772 12.3517 2.84756L12.3925 1.77145L12.6596 1.78115L12.6188 2.85468C12.5955 3.47163 12.2657 3.70509 11.7529 3.68569C11.2426 3.66629 10.9238 3.40308 10.9464 2.81264L10.9878 1.71777L11.2549 1.72812Z" fill="#662C91"/>
<path d="M13.1211 3.77342L13.7271 1.97559L14.031 2.07776C14.247 2.7762 14.5775 3.71134 14.6169 3.93057L14.6221 3.93251C14.6829 3.69388 14.7818 3.40803 14.8801 3.11702L15.1078 2.44057L15.3458 2.52076L14.7398 4.31859L14.4533 4.22223C14.3059 3.77213 13.9288 2.56473 13.8706 2.31122L13.8654 2.30928C13.7995 2.54662 13.7141 2.79949 13.6068 3.11896L13.3591 3.85361L13.1211 3.77342Z" fill="#662C91"/>
<path d="M16.5108 3.16997L15.5427 4.80096L15.3105 4.66321L16.2787 3.03223L16.5108 3.16997Z" fill="#662C91"/>
<path d="M16.4082 5.42128L17.0129 3.44043L17.236 3.63185L16.9049 4.6821C16.7826 5.07012 16.718 5.24021 16.6772 5.34562L16.6811 5.34885C16.7645 5.29711 16.9598 5.20076 17.2606 5.04296L18.2946 4.53983L18.5139 4.72802L16.6378 5.61788L16.4089 5.42128H16.4082Z" fill="#662C91"/>
<path d="M18.9122 6.94214L18.2448 6.01929L17.7119 6.40473L18.4478 7.42264L18.2415 7.52546L17.3691 6.31871L18.907 5.20703L19.7665 6.39632L19.5847 6.5276L18.8831 5.5569L18.4284 5.88542L19.0952 6.80827L18.9109 6.94149L18.9122 6.94214Z" fill="#662C91"/>
<path d="M19.3211 7.91144L18.5573 8.20375L18.4629 7.95671L20.2355 7.27832L20.5595 8.12485C20.6979 8.48701 20.6268 8.79419 20.3125 8.91513C20.0978 8.99726 19.9044 8.94811 19.7641 8.7528C19.7763 8.88279 19.7505 9.07551 19.4381 9.19515L19.3605 9.2249C19.226 9.27663 19.076 9.33354 19.0087 9.38205L18.9111 9.12724C18.9783 9.07033 19.1148 9.02377 19.2648 8.96622L19.3224 8.94423C19.5843 8.84399 19.6276 8.71012 19.5086 8.39776L19.3224 7.9108L19.3211 7.91144ZM19.5261 7.83254L19.7304 8.36672C19.8365 8.64416 19.9865 8.74375 20.1986 8.66291C20.3907 8.58919 20.436 8.41458 20.3332 8.14749L20.1249 7.60361L19.5261 7.83254Z" fill="#662C91"/>
<path d="M19.677 9.92458C19.4617 10.019 19.3259 10.1981 19.3679 10.5674C19.41 10.9393 19.5697 11.0667 19.745 11.0466C19.9306 11.0253 20.0334 10.9089 20.0599 10.4109C20.0916 9.83404 20.2539 9.67883 20.5113 9.64973C20.8431 9.61222 21.0675 9.90388 21.114 10.3158C21.1839 10.9296 20.8786 11.1093 20.6898 11.152L20.6594 10.8836C20.7849 10.8293 20.9459 10.7304 20.9006 10.332C20.8696 10.061 20.757 9.89612 20.5682 9.91746C20.4143 9.93493 20.3244 10.0235 20.3018 10.4613C20.2623 11.1546 20.0644 11.2872 19.8019 11.3169C19.5018 11.3512 19.2172 11.141 19.1526 10.5726C19.0931 10.0468 19.3045 9.75385 19.6454 9.65038L19.6764 9.92393L19.677 9.92458Z" fill="#662C91"/>
<path d="M21.0967 12.3429L19.2051 12.1909L19.2264 11.9219L21.118 12.0738L21.0967 12.3429Z" fill="#662C91"/>
<path d="M20.6768 13.5337L20.8482 12.8301L21.0687 12.8838L20.6626 14.5503L20.4421 14.4966L20.6128 13.7956L18.9902 13.4005L19.0543 13.1379L20.6768 13.533V13.5337Z" fill="#662C91"/>
<path d="M18.5461 14.6462L19.198 14.9553C19.2174 14.9643 19.229 14.9643 19.2497 14.9592L20.6104 14.7231L20.4726 15.0128C20.0853 15.0743 19.5291 15.1745 19.3487 15.1868C19.4534 15.3401 19.7302 15.8232 19.9262 16.1646L19.7988 16.4323L19.1165 15.2269C19.1055 15.2127 19.1003 15.2043 19.0809 15.1952L18.4316 14.8867L18.5461 14.6455V14.6462Z" fill="#662C91"/>
<path d="M18.6504 16.1416L18.6394 16.1578C18.4137 16.5005 18.1628 16.829 17.8938 17.1343L17.8809 17.1492L18.0387 17.2882L18.0516 17.2733C18.3277 16.961 18.5845 16.6247 18.8153 16.2735L18.8263 16.2574L18.6511 16.1416H18.6504Z" fill="#662C91"/>
<path d="M4.99962 17.1161C4.73124 16.8108 4.48097 16.4816 4.25721 16.1382L4.24622 16.1221L4.07031 16.2372L4.08131 16.2534C4.31089 16.6052 4.56698 16.9427 4.84248 17.2551L4.85541 17.27L5.01321 17.1309L5.00027 17.1161H4.99962Z" fill="#662C91"/>
<path d="M10.5184 20.5314L10.5617 19.5057H11.3636V19.291H10.2979L10.25 20.7455H11.4044V20.5314H10.5184Z" fill="#662C91"/>
<path d="M11.5957 20.6671V21.3196H11.8673V20.032H12.2049V21.3196H12.4739V19.124H12.2049V19.8276H11.8673V19.124H11.5957V20.453V20.6671Z" fill="#662C91"/>
<path d="M7.51074 17.9057L7.30509 17.7324L6.39453 18.8034L6.60018 18.9767L6.96557 18.5427L7.25594 18.7872L7.39433 18.6229L7.10332 18.3785L7.51074 17.9057Z" fill="#662C91"/>
<path d="M8.35605 18.5889C8.35605 18.5889 7.93505 19.136 7.18164 19.4632L7.29287 19.6773C7.29287 19.6773 7.94475 19.438 8.36575 18.9665L8.26293 20.2283L8.52678 20.2308L8.63026 18.7214L8.3567 18.5889H8.35605Z" fill="#662C91"/>
<path d="M9.33652 19.4689L8.92392 19.3111L8.84632 19.5161L9.26409 19.6758L8.74414 20.9958L8.99053 21.0895L9.78016 19.0537L9.52859 18.958L9.33652 19.4689Z" fill="#662C91"/>
<path d="M13.8244 20.5315L15.0835 20.0374L15.2885 20.5677L15.5478 20.4681L15.2659 19.7373L13.748 20.3316L13.8244 20.5315Z" fill="#662C91"/>
<path d="M14.7483 18.4121L14.5 18.5072L14.9533 19.6881L15.2017 19.593L15.0005 19.0692L15.3608 18.9308L15.2819 18.7258L14.9223 18.8642L14.7483 18.4121Z" fill="#662C91"/>
<path d="M16.7905 17.5516C16.806 17.571 16.8248 17.5949 16.8468 17.6214C16.8843 17.6706 16.9283 17.7314 16.9768 17.8025C17.0343 17.8917 17.0828 17.9719 17.1294 18.0547C17.1856 18.1588 17.2342 18.2617 17.2781 18.3684L17.2865 18.3884L17.3059 18.3787C17.348 18.358 17.3777 18.3419 17.4023 18.3263C17.4333 18.3134 17.467 18.2953 17.5032 18.272L17.5161 18.2636L17.5109 18.2487C17.4812 18.1595 17.4482 18.0774 17.4101 17.9985C17.3654 17.9118 17.3221 17.8342 17.2775 17.7605C17.2329 17.69 17.1869 17.6169 17.1397 17.5471C17.1203 17.5199 17.1016 17.4947 17.0835 17.4707C17.0582 17.4371 17.035 17.4054 17.0123 17.3737C16.9903 17.3472 16.9709 17.3233 16.9535 17.3013C16.9393 17.2838 16.927 17.2677 16.9153 17.2541L16.8578 17.1855L15.5508 18.2836L15.6905 18.4499L16.7776 17.5361C16.7815 17.5412 16.786 17.5464 16.7905 17.5522V17.5516Z" fill="#662C91"/>
<path d="M17.4308 18.7543L17.0311 18.279L16.8319 18.4465L17.2316 18.9218L16.9289 19.176L16.5299 18.7007L16.3301 18.8682L16.7297 19.3435L16.3624 19.652L16.5021 19.8182L18.1868 18.4025L18.0471 18.2363L17.4308 18.7543Z" fill="#662C91"/>
<path d="M6.03064 18.5889C5.70211 18.3128 5.33155 18.2714 5.1369 18.5029C4.94224 18.7344 5.04636 19.0927 5.37553 19.3688C5.70405 19.645 6.07461 19.6864 6.26927 19.4548C6.46393 19.2233 6.35981 18.865 6.03064 18.5889ZM5.50875 19.2097C5.30245 19.0364 5.23261 18.8172 5.34772 18.6801C5.46283 18.543 5.69112 18.574 5.89742 18.7473C6.10372 18.9207 6.17356 19.1399 6.05845 19.277C5.94333 19.4141 5.71505 19.3831 5.50875 19.2097Z" fill="#662C91"/>
<path d="M14.3695 19.3728C14.312 19.2234 14.1904 19.1277 14.0365 19.0934L14.3288 18.9809L14.2602 18.8018L13.7015 19.0158L13.6206 18.805L13.3561 18.9065L13.437 19.1173L12.873 19.334L12.9416 19.5131L13.2443 19.3967C13.1531 19.5254 13.1259 19.678 13.1835 19.8274C13.2889 20.1023 13.6096 20.1948 13.9537 20.0628C14.2977 19.9309 14.4743 19.647 14.3689 19.3728H14.3695ZM13.4312 19.733C13.3723 19.5791 13.4764 19.4174 13.6769 19.3405C13.8774 19.2635 14.063 19.3133 14.1218 19.4679C14.1807 19.6218 14.0766 19.7835 13.8761 19.8604C13.6756 19.9374 13.49 19.8876 13.4312 19.733Z" fill="#662C91"/>
<path d="M6.77275 17.6574L6.78374 17.6147L6.28966 17.1995L5.81821 16.8037L5.68047 16.968L6.39055 17.5642C6.39055 17.5642 6.01546 17.7906 5.43084 17.7796L5.4082 18.0409C5.4082 18.0409 6.21982 18.0855 6.77275 17.6574Z" fill="#662C91"/>
<path d="M16.7739 6.83473L16.7571 6.7125V6.70926H16.7448C15.3414 6.35164 12.7999 6.11106 11.4496 6.13111C10.0954 6.11042 7.54284 6.35293 6.14208 6.7125L6.12527 6.83796C6.12203 6.8593 5.84072 8.99665 6.35032 11.4819C6.65039 12.9454 7.16193 14.2427 7.87072 15.3395C8.75606 16.7092 9.95246 17.7653 11.4263 18.478C11.4302 18.4799 11.4457 18.487 11.4457 18.487C11.4457 18.487 11.4716 18.4747 11.4774 18.4721C12.9486 17.7595 14.1431 16.7041 15.0271 15.3363C15.7359 14.2401 16.2475 12.9422 16.5475 11.4787C17.0571 8.99342 16.7758 6.85607 16.7726 6.83473H16.7739Z" fill="#662C91"/>
<path d="M11.7406 8.50098H11.2168V8.59798H11.7406V8.50098Z" fill="white"/>
<path d="M12.1571 8.29954C12.0426 8.25298 11.888 8.24845 11.7904 8.25815C11.6598 8.27173 11.5621 8.328 11.4832 8.38361C11.4282 8.3474 11.3008 8.27432 11.1469 8.25815C11.1191 8.25492 11.0874 8.25363 11.0557 8.25363C10.9949 8.25363 10.8779 8.25945 10.7802 8.29954C10.7304 8.32024 10.6153 8.3668 10.5332 8.34028V7.20467C10.6302 7.22343 10.7498 7.17428 10.8029 7.15294L10.8106 7.1497C10.9167 7.10637 11.0648 7.10702 11.1353 7.11478C11.2614 7.12772 11.3843 7.19045 11.4541 7.24089L11.4839 7.26352L11.5136 7.24024C11.5815 7.18786 11.6753 7.12772 11.8033 7.11414C11.8738 7.10702 12.0219 7.10573 12.128 7.14906L12.1357 7.15229C12.1888 7.17428 12.3084 7.22343 12.4048 7.20467V8.34028C12.3233 8.3668 12.2082 8.32024 12.1577 8.29954H12.1571Z" fill="white"/>
<path d="M9.45792 9.8563C9.44886 9.79681 9.4217 9.68299 9.34539 9.59115C9.29559 9.54071 9.2555 9.49932 9.12486 9.4256C9.08671 9.40426 8.90757 9.32924 8.87588 9.31695C8.87912 9.30402 8.883 9.30014 8.88688 9.28914C8.89593 9.26457 8.92438 9.19796 8.92697 9.19473C8.93279 9.18826 8.94961 9.15916 8.95607 9.15269C9.05437 9.04663 9.05243 9.05827 9.05308 9.05245C9.05308 9.04469 9.0492 9.03693 9.04144 9.02982C9.02204 9.01106 8.96965 8.98972 8.94767 8.99037C8.90628 8.99166 8.86554 9.00136 8.82544 9.01818C8.82285 9.01753 8.82027 9.01624 8.81703 9.01494C8.79116 9.00589 8.74784 8.99037 8.70451 9.00589C8.64178 9.02852 8.58228 9.06344 8.53054 9.09578C8.51179 9.08479 8.49109 9.07638 8.47169 9.06862L8.45747 9.0628C8.39926 9.03887 8.19426 8.96773 8.14769 8.95545C8.09208 8.94057 8.02676 8.9341 7.95239 8.93734C7.67301 8.94963 7.43373 9.1902 7.35548 9.2691C7.28241 9.34282 7.17505 9.46634 7.10521 9.55753L7.08451 9.58339C7.08451 9.58339 7.06641 9.62543 7.06641 9.62608L7.16665 9.59762C7.53785 9.52842 7.83728 9.54783 8.06039 9.58275C8.07914 9.58598 8.09402 9.58727 8.10889 9.58857C7.94722 9.70239 7.706 9.90028 7.67301 9.92809L7.66396 9.93714L7.6659 9.94878C7.67366 9.98888 7.98667 10.124 8.04552 10.1441C8.09078 10.1596 8.11019 10.1609 8.12247 10.1499C8.12894 10.1441 8.13605 10.1357 8.14381 10.1266C8.14705 10.1227 8.18326 10.0885 8.19814 10.0736L8.46975 9.79422C8.46975 9.79422 8.51502 9.74701 8.52408 9.75154C8.52796 9.75348 8.53119 9.75542 8.53442 9.75736C8.55188 9.76706 8.56999 9.77805 8.58939 9.79099C8.61332 9.80715 8.63402 9.82138 8.65665 9.83884C8.86424 10.0018 9.01622 10.159 9.15591 10.3614L9.26649 10.5515C9.33181 10.5101 9.38872 10.4066 9.43011 10.2637C9.46891 10.1286 9.47926 9.98694 9.45856 9.85501L9.45792 9.8563Z" fill="white"/>
<path d="M15.6194 9.35506C15.6 9.17463 15.4306 9.04852 15.2256 9.06146C15.1299 9.06728 14.9844 9.11125 14.879 9.16558C14.7736 9.11125 14.6281 9.06728 14.5323 9.06146C14.5226 9.06146 14.5129 9.06081 14.5032 9.06081C14.3112 9.06081 14.1566 9.18368 14.1385 9.35506C14.1178 9.55101 14.1838 9.76701 14.3209 9.94679C14.4573 10.1266 14.6526 10.2559 14.8563 10.3012L14.8783 10.3057L14.901 10.3012C15.1047 10.2559 15.3 10.1272 15.4364 9.94679C15.5729 9.76636 15.6395 9.55101 15.6188 9.35506H15.6194Z" fill="white"/>
<path d="M14.2304 11.9988L13.847 11.6179L12.3123 11.6225L11.749 10.0801H11.1677C11.1677 10.0801 10.5921 11.6302 10.5921 11.6257L8.79297 11.627C8.82078 11.627 8.80073 12.1301 8.80073 12.1301L10.4084 12.134C10.4084 12.134 9.38341 14.7467 9.27347 14.9271L9.83675 15.1379C9.96415 14.8806 11.0028 12.1327 11.0028 12.1327C11.015 12.1327 11.9081 12.1327 11.9081 12.1327C11.9107 12.1327 12.2722 13.1855 12.2722 13.1855C12.289 13.172 11.3979 14.0191 11.3979 14.0191C11.4302 14.0463 11.7529 14.3237 11.8435 14.3994L12.4766 13.7605C12.4766 13.7605 12.9345 15.0345 12.9338 15.1302L13.5068 14.9601C13.5068 14.9601 13.3671 14.5624 13.2255 14.1569C13.078 13.7359 12.928 13.3071 12.9293 13.3065L14.1664 12.0648L14.2311 11.9982L14.2304 11.9988ZM11.1909 11.6257C11.1871 11.6257 11.4651 10.8969 11.4651 10.8969C11.4651 10.8969 11.7251 11.6231 11.7212 11.6231L11.1909 11.6257ZM12.7269 12.7574C12.7269 12.7574 12.4979 12.1398 12.5018 12.1398H13.3729C13.3781 12.1398 12.7269 12.7574 12.7269 12.7574Z" fill="white"/>
<path d="M10.6855 16.5781C10.7282 16.5723 10.7657 16.5593 10.7968 16.5225H10.8375V16.9208H10.7683V16.6221H10.6855V16.5781Z" fill="white"/>
<path d="M11.047 16.8219C11.0489 16.8387 11.0787 16.8697 11.1317 16.8697C11.1918 16.8697 11.2494 16.8342 11.252 16.7449C11.2281 16.7617 11.1906 16.7844 11.1298 16.7844C11.0205 16.7844 10.9668 16.7236 10.9668 16.657C10.9668 16.5787 11.0308 16.5225 11.1356 16.5225C11.2404 16.5225 11.3277 16.5832 11.3277 16.7204C11.3277 16.8135 11.2804 16.9305 11.1317 16.9305C11.0205 16.9305 10.9759 16.8633 10.9733 16.8219H11.0463H11.047ZM11.1356 16.7255C11.2041 16.7255 11.2339 16.69 11.2501 16.6777C11.241 16.6246 11.2022 16.5833 11.1375 16.5833C11.0832 16.5833 11.0399 16.6065 11.0399 16.655C11.0399 16.6964 11.0754 16.7255 11.1349 16.7255H11.1356Z" fill="white"/>
<path d="M11.7633 16.5937H11.5079L11.5021 16.6784C11.5241 16.6648 11.5603 16.6499 11.614 16.6499C11.7142 16.6499 11.784 16.6965 11.784 16.787C11.784 16.862 11.7375 16.9306 11.6023 16.9306C11.4406 16.9306 11.4238 16.8329 11.4238 16.8116H11.4988C11.4988 16.8265 11.5228 16.8692 11.6036 16.8692C11.6702 16.8692 11.711 16.8368 11.711 16.7864C11.711 16.7359 11.665 16.7081 11.6056 16.7081C11.5409 16.7081 11.515 16.7366 11.5073 16.745H11.4387L11.4452 16.5322H11.7633V16.593V16.5937Z" fill="white"/>
<path d="M11.9552 16.7165V16.7152C11.9164 16.6997 11.8932 16.6731 11.8932 16.6298C11.8932 16.5697 11.9468 16.5225 12.0632 16.5225C12.1796 16.5225 12.234 16.5742 12.234 16.6298C12.234 16.6803 12.2016 16.7035 12.1712 16.7152V16.7165C12.1971 16.7236 12.2424 16.7559 12.2424 16.8135C12.2424 16.8975 12.1628 16.9299 12.0626 16.9299C11.9624 16.9299 11.8828 16.8975 11.8828 16.8135C11.8828 16.7559 11.9281 16.7229 11.9546 16.7165H11.9552ZM12.0626 16.8691C12.124 16.8691 12.1693 16.8542 12.1693 16.807C12.1693 16.7598 12.1176 16.7475 12.0626 16.7475C12.0076 16.7475 11.9565 16.7585 11.9565 16.807C11.9565 16.8555 12.0018 16.8691 12.0626 16.8691ZM12.0626 16.6893C12.1182 16.6893 12.1622 16.6777 12.1622 16.6356C12.1622 16.5878 12.0956 16.5833 12.0626 16.5833C12.0296 16.5833 11.9637 16.5878 11.9637 16.6356C11.9637 16.677 12.007 16.6893 12.0626 16.6893Z" fill="white"/>
<path d="M9.92593 16.1012L9.77589 16.2765H9.65625L9.86902 16.0359L9.67242 15.8115H9.78947L9.92593 15.9706L10.0617 15.8115H10.1781L9.9809 16.0359L10.1924 16.2765H10.0747L9.92593 16.1012Z" fill="white"/>
<path d="M10.2734 15.8115H10.5354C10.6149 15.8115 10.7455 15.8115 10.7455 15.9544C10.7455 16.0974 10.6149 16.0967 10.5354 16.0967H10.3653V16.2771H10.2734V15.8122V15.8115ZM10.5554 16.0178C10.6078 16.0178 10.6537 16.0133 10.6537 15.9532C10.6537 15.893 10.6078 15.8891 10.5554 15.8891H10.3653V16.0178H10.5554Z" fill="white"/>
<path d="M10.8457 15.8115H10.9375V16.2765H10.8457V15.8115Z" fill="white"/>
<path d="M11.0625 15.8115H11.4919V15.8898H11.2125L11.307 16.0424L11.2125 16.1989H11.4997V16.2771H11.0709L11.2067 16.045L11.0625 15.8115Z" fill="white"/>
<path d="M12.7812 15.8115H13.2107V15.8898H12.9313L13.0257 16.0424L12.9313 16.1989H13.2184V16.2771H12.7897L12.9255 16.045L12.7812 15.8115Z" fill="white"/>
<path d="M11.7746 15.8888H11.5645V15.8105H12.076V15.8888H11.8658V16.2755H11.774V15.8888H11.7746Z" fill="white"/>
<path d="M12.405 15.7998C12.612 15.7998 12.685 15.9201 12.685 16.0475C12.685 16.1439 12.6275 16.2881 12.405 16.2881C12.1826 16.2881 12.125 16.1439 12.125 16.0475C12.125 15.9201 12.1981 15.7998 12.405 15.7998ZM12.5932 16.0423C12.5932 15.9304 12.5124 15.8781 12.405 15.8781C12.2977 15.8781 12.2168 15.9304 12.2168 16.0423C12.2168 16.1742 12.3171 16.2098 12.405 16.2098C12.493 16.2098 12.5932 16.1742 12.5932 16.0423Z" fill="white"/>
</g>
<defs>
<clipPath id="clip0_4956_56299">
<rect width="23" height="23" fill="white"/>
</clipPath>
</defs>
</svg>
