<svg width="23" height="23" viewBox="0 0 23 23" fill="none" xmlns="http://www.w3.org/2000/svg">
<g clip-path="url(#clip0_4393_55524)">
<path d="M2.34766 8.15196L2.42225 7.9891L3.09112 8.29618L2.64603 7.50175L2.74674 7.28418L3.21917 8.15072L4.28712 7.94061L4.17771 8.17931L3.19928 8.34467L3.94398 8.6878L3.86814 8.85067L2.34766 8.15072V8.15196Z" fill="#898989"/>
<path d="M3.51738 6.0249C3.74365 5.71782 4.17257 5.75636 4.5729 6.04976C4.98317 6.35063 5.13982 6.74101 4.91355 7.04933C4.68728 7.35766 4.2683 7.32533 3.85803 7.02447C3.45771 6.73106 3.29236 6.33198 3.51738 6.0249ZM4.74322 6.92376C4.91479 6.69003 4.72955 6.40036 4.45976 6.20268C4.18501 6.00128 3.84933 5.9242 3.68771 6.14922C3.52236 6.37052 3.69641 6.6689 3.97117 6.8703C4.23971 7.06798 4.57165 7.15749 4.74322 6.92501V6.92376Z" fill="#898989"/>
<path d="M4.5364 4.87298L4.76267 4.66535C4.94543 4.49752 5.15802 4.37443 5.4278 4.67033C5.5658 4.82076 5.57948 5.00352 5.49494 5.1266L5.49867 5.13033C5.55959 5.11416 5.6031 5.12162 5.70256 5.17135L6.32791 5.50206L6.17624 5.6413L5.64164 5.34416C5.48997 5.26211 5.44645 5.30189 5.37683 5.36654L5.29726 5.43989L5.79953 5.98816L5.66651 6.11L4.53516 4.8767L4.5364 4.87298ZM5.15553 5.282L5.26867 5.17881C5.39424 5.06319 5.40045 4.92146 5.29229 4.80211C5.19035 4.69146 5.06229 4.67903 4.93921 4.79092L4.8124 4.90779L5.15678 5.282H5.15553Z" fill="#898989"/>
<path d="M5.89258 3.74664L6.48436 3.36621L6.59874 3.54399L6.15863 3.82745L6.42344 4.23897L6.82501 3.98162L6.93939 4.1594L6.53782 4.41675L6.8362 4.88048L7.27631 4.59702L7.39069 4.77481L6.7989 5.15524L5.89382 3.74664H5.89258Z" fill="#898989"/>
<path d="M7.69922 2.76618L7.87452 2.69531L8.99592 4.04672L8.81441 4.12007L8.53716 3.77693L7.96776 4.00818L8.00879 4.44704L7.83349 4.51791L7.70046 2.76493L7.69922 2.76618ZM7.86581 2.94272L7.94662 3.80553L8.41035 3.6178L7.86581 2.94272Z" fill="#898989"/>
<path d="M10.2363 2.07584L10.48 2.05719L11.1377 3.35762H11.1414L11.037 2.01368L11.216 2L11.3465 3.66843L11.1165 3.68584L10.4427 2.35805H10.439L10.5459 3.73059L10.3669 3.74427L10.2363 2.07584Z" fill="#898989"/>
<path d="M12.6247 2.07129L12.8124 2.09491L13.1344 3.82178L12.9405 3.79815L12.8646 3.36302L12.2542 3.28842L12.0764 3.69248L11.8887 3.66886L12.6247 2.07253V2.07129ZM12.6843 2.30502L12.335 3.09821L12.8311 3.15913L12.6843 2.30502Z" fill="#898989"/>
<path d="M14.1897 2.59872L13.8155 2.48683L13.8765 2.28418L14.7964 2.56018L14.7355 2.76283L14.3613 2.65094L13.9411 4.05207L13.7695 3.99986L14.1897 2.59872Z" fill="#898989"/>
<path d="M15.5069 2.85547L15.671 2.93006L14.9773 4.45304L14.8145 4.37844L15.5082 2.85547H15.5069Z" fill="#898989"/>
<path d="M16.98 3.63434C17.2983 3.84569 17.2784 4.2771 17.0036 4.68985C16.7226 5.1138 16.3397 5.28785 16.0202 5.07526C15.7007 4.86266 15.7156 4.44369 15.9966 4.01975C16.2713 3.60575 16.6617 3.42299 16.9787 3.63434H16.98ZM16.1383 4.89996C16.3795 5.06034 16.6605 4.86142 16.8457 4.58418C17.0347 4.30072 17.0956 3.96131 16.8644 3.80964C16.6356 3.65423 16.3459 3.84196 16.157 4.12542C15.9717 4.40266 15.8971 4.73958 16.1383 4.89996Z" fill="#898989"/>
<path d="M18.2033 4.61621L18.3748 4.79026L17.8005 6.12924L17.803 6.13172L18.7652 5.1881L18.892 5.31616L17.6973 6.48853L17.5357 6.32443L18.12 4.95437L18.1175 4.95189L17.1353 5.91664L17.0098 5.78859L18.2045 4.61621H18.2033Z" fill="#898989"/>
<path d="M19.7432 6.44487L19.8464 6.60276L18.7287 7.9579L18.6218 7.79255L18.9065 7.45563L18.5721 6.93968L18.1481 7.06152L18.0449 6.90238L19.7419 6.44238L19.7432 6.44487ZM19.6015 6.6413L18.7685 6.88249L19.0408 7.30271L19.6015 6.64255V6.6413Z" fill="#898989"/>
<path d="M20.4985 7.80469L20.5681 7.97004L19.2179 8.53447L19.4206 9.01934L19.2254 9.10015L18.9531 8.44993L20.4972 7.80469H20.4985Z" fill="#898989"/>
<path d="M3.50962 15.0332C3.06454 15.1849 2.76864 15.0966 2.66919 14.8044C2.56973 14.511 2.75 14.2611 3.19508 14.1107L4.12378 13.7949L4.18097 13.9652L3.2821 14.2711C2.97751 14.3743 2.79351 14.5172 2.8681 14.7373C2.9427 14.9574 3.17643 14.9574 3.47978 14.8542L4.37864 14.5483L4.43583 14.7187L3.50713 15.0344L3.50962 15.0332Z" fill="#898989"/>
<path d="M4.60659 15.0928L4.72594 15.3066L3.82086 16.4492V16.4529L4.99821 15.794L5.08648 15.9506L3.62691 16.7699L3.51377 16.5685L4.43626 15.3999L4.43377 15.3961L3.2328 16.07L3.14453 15.9133L4.60534 15.094L4.60659 15.0928Z" fill="#898989"/>
<path d="M5.37377 16.3369L5.48318 16.4799L4.15042 17.4931L4.04102 17.3502L5.37377 16.3369Z" fill="#898989"/>
<path d="M4.99117 18.4376L4.83203 18.2785L5.68365 16.7617L5.82538 16.9047L5.06203 18.2113L5.06452 18.2138L6.38111 17.4629L6.51414 17.5972L4.98992 18.4389L4.99117 18.4376Z" fill="#898989"/>
<path d="M6.76466 17.7803L7.33406 18.193L7.20974 18.3646L6.78579 18.0575L6.4986 18.4541L6.88401 18.7338L6.75968 18.9042L6.37428 18.6244L6.05103 19.0708L6.47498 19.3778L6.35066 19.5482L5.78125 19.1354L6.76341 17.7803H6.76466Z" fill="#898989"/>
<path d="M7.68594 18.4121L7.95945 18.5514C8.18075 18.6645 8.36972 18.8199 8.18821 19.1767C8.09496 19.3582 7.92961 19.4353 7.78415 19.398L7.78167 19.403C7.81772 19.4539 7.82518 19.4987 7.81399 19.6081L7.72199 20.3093L7.53923 20.2161L7.63123 19.6118C7.6561 19.4415 7.60264 19.4142 7.5181 19.3707L7.42237 19.3222L7.08421 19.9848L6.92383 19.9028L7.68469 18.4121H7.68594ZM7.51934 19.1344L7.6561 19.2041C7.80777 19.2811 7.94329 19.2376 8.01664 19.0947C8.08502 18.9604 8.05269 18.8348 7.90475 18.7602L7.75059 18.6819L7.51934 19.1344Z" fill="#898989"/>
<path d="M9.28172 19.3624C9.20961 19.2878 9.16858 19.2518 9.08031 19.2219C8.98458 19.1909 8.85653 19.1983 8.80182 19.3649C8.69988 19.6695 9.23572 19.769 9.06166 20.2924C8.94853 20.6318 8.70734 20.7002 8.46863 20.6206C8.38534 20.5932 8.31447 20.5336 8.24609 20.4739L8.33312 20.2675C8.38036 20.3185 8.46739 20.398 8.55442 20.4266C8.65139 20.459 8.81301 20.4316 8.87517 20.2451C8.99328 19.8896 8.44874 19.8175 8.61285 19.3239C8.70609 19.0417 8.92366 18.9472 9.13874 19.0193C9.21707 19.0454 9.30534 19.0951 9.37496 19.161L9.28172 19.3624Z" fill="#898989"/>
<path d="M9.87208 19.248L10.0486 19.2841L9.7117 20.9239L9.53516 20.8879L9.87208 19.248Z" fill="#898989"/>
<path d="M10.7837 19.6006L10.3945 19.5695L10.4119 19.3594L11.3692 19.4352L11.3531 19.6453L10.9639 19.6142L10.8496 21.0726L10.6705 21.0589L10.7849 19.6006H10.7837Z" fill="#898989"/>
<path d="M12.106 20.374L11.5391 19.4429L11.7479 19.4254L12.1806 20.144L12.4839 19.367L12.694 19.3496L12.2838 20.3604L12.3397 21.0578L12.1607 21.0727L12.1047 20.374H12.106Z" fill="#898989"/>
<path d="M14.1748 18.9087C14.5316 18.7744 14.8698 19.0417 15.0451 19.5067C15.2241 19.9829 15.1433 20.3956 14.784 20.5299C14.4247 20.6642 14.0928 20.4081 13.9138 19.9319C13.7385 19.4669 13.818 19.043 14.1748 18.9087ZM14.7094 20.3322C14.9805 20.2303 14.9829 19.8859 14.8661 19.5738C14.7467 19.2543 14.5068 19.0069 14.2482 19.1064C13.9884 19.2021 13.9722 19.5465 14.0915 19.8648C14.2084 20.1768 14.4384 20.4342 14.7094 20.3322Z" fill="#898989"/>
<path d="M15.0664 18.5456L15.6433 18.21L15.7489 18.3927L15.3275 18.6376L15.5736 19.0603L15.9765 18.8254L16.0834 19.0081L15.6806 19.2419L16.0635 19.9008L15.9081 19.9915L15.0664 18.5444V18.5456Z" fill="#898989"/>
<path d="M16.8105 17.2678L16.9436 17.1348L18.5014 17.9466L18.3621 18.0846L17.9742 17.8757L17.5378 18.3096L17.7455 18.6988L17.6112 18.8318L16.8105 17.2678ZM17.0318 17.366L17.4396 18.1306L17.794 17.7775L17.0318 17.366Z" fill="#898989"/>
<path d="M17.4902 16.5297L17.668 16.2786C17.8122 16.076 17.9937 15.9119 18.3195 16.1431C18.4861 16.2612 18.537 16.4365 18.4811 16.5745L18.4848 16.577C18.5408 16.5484 18.5855 16.5471 18.6925 16.5745L19.3737 16.7672L19.2544 16.9338L18.6701 16.7548C18.5047 16.7063 18.4699 16.7548 18.4152 16.8319L18.353 16.9201L18.9597 17.3503L18.8553 17.497L17.4902 16.5285V16.5297ZM18.1815 16.7995L18.2697 16.6752C18.368 16.536 18.3443 16.3955 18.2138 16.3022C18.0907 16.2152 17.9627 16.2301 17.8669 16.3644L17.7675 16.5049L18.1815 16.7995Z" fill="#898989"/>
<path d="M18.4658 15.3874L18.2905 15.7355L18.1016 15.641L18.533 14.7832L18.7219 14.8777L18.5466 15.227L19.8533 15.8835L19.7725 16.0439L18.4646 15.3874H18.4658Z" fill="#898989"/>
<path d="M19.0669 14.0083C18.9923 14.0804 18.9562 14.1214 18.9264 14.2097C18.8953 14.3054 18.9028 14.4335 19.0694 14.4882C19.3752 14.5889 19.4734 14.053 19.9968 14.2271C20.3362 14.339 20.4058 14.5802 20.3263 14.8189C20.2989 14.9022 20.2392 14.9743 20.1796 15.0414L19.9732 14.9544C20.0242 14.9071 20.1037 14.8201 20.1323 14.7331C20.1647 14.6349 20.1373 14.4745 19.9508 14.4136C19.5952 14.2955 19.5231 14.84 19.0296 14.6771C18.7474 14.5839 18.6529 14.3663 18.7237 14.1513C18.7498 14.0729 18.7996 13.9847 18.8655 13.915L19.0669 14.0083Z" fill="#898989"/>
<path d="M5.20323 10.1729H3.20783V10.4563H4.88123V11.1525H2.89453V11.436H4.06194V11.9059H3.21404V12.1894H4.88123V12.9963H5.18956V11.9059H4.37026V11.436H5.53642V11.1525H5.20199V10.1729H5.20323Z" fill="#898989"/>
<path d="M7.88672 10.1211V12.9905H8.19629V10.1211H8.18137H7.88672Z" fill="#898989"/>
<path d="M7.38591 10.1221V10.633H7.02413C6.91721 10.3148 6.70462 10.1246 6.45597 10.1246C6.08424 10.1246 5.81445 10.5398 5.81445 11.1104C5.81445 11.6811 6.08424 12.0976 6.45597 12.0976C6.69716 12.0976 6.89732 11.926 7.01045 11.6289H7.38591V12.9915H7.69548V10.1221H7.38591ZM7.08505 10.9128H7.38591V11.3442H7.08132C7.09251 11.2683 7.09872 11.1888 7.09872 11.1104C7.09872 11.0433 7.09375 10.9774 7.08629 10.9128H7.08505ZM6.45597 11.8092C6.25705 11.8092 6.11283 11.5145 6.11283 11.1104C6.11283 10.7064 6.25705 10.4117 6.45597 10.4117C6.65489 10.4117 6.80035 10.7064 6.80035 11.1104C6.80035 11.5145 6.65489 11.8092 6.45597 11.8092Z" fill="#898989"/>
<path d="M8.54688 11.3037V11.5872H9.73169V11.8383H8.94347V12.0894H10.4913V12.2983H8.94347V12.9895H10.8394V12.7397H9.25304V12.5345H10.7984V11.8383H10.0413V11.5872H11.2261V11.3037H8.54812H8.54688Z" fill="#898989"/>
<path d="M11.8523 11.2783C12.2178 11.2037 12.6256 11.0856 12.8892 10.7698C13.154 11.0856 13.5618 11.2049 13.9273 11.2783L13.936 11.2808L14.1163 11.0421L14.0939 11.0383C13.517 10.9339 13.1876 10.7437 13.0844 10.4602H13.9261V10.1768H11.8536V10.4602H12.694C12.5933 10.7399 12.2626 10.9289 11.6845 11.0383L11.6621 11.0433L11.8436 11.282L11.8523 11.2795V11.2783Z" fill="#898989"/>
<path d="M13.0414 11.083H12.7319V11.4311H11.5508V11.7146H14.23V11.4311H13.0414V11.083Z" fill="#898989"/>
<path d="M16.491 11.8965V12.2135H15.29V11.8965H14.9805V12.9905H16.7993V11.8965H16.4898H16.491ZM15.2875 12.7431V12.4535H16.4885V12.7431H15.2875Z" fill="#898989"/>
<path d="M16.7998 10.1211H16.4902V11.7398H16.7998V11.0399H17.1976V10.7564H16.7998V10.1211Z" fill="#898989"/>
<path d="M19.7393 10.1211H19.4297V11.7908H19.7393V11.0461H20.1383V10.7626H19.7393V10.1211Z" fill="#898989"/>
<path d="M17.7324 11.9824V12.2659H19.4307V12.9944H19.7403V11.9824H17.7324Z" fill="#898989"/>
<path d="M22.0143 12.4424V11.377H21.7085V12.4424H21.333V11.377H21.0234V12.4424H20.3496V12.7259H22.999V12.4424H22.0131H22.0143Z" fill="#898989"/>
<path d="M22.4314 11.9034H22.7534V10.2275H20.625V10.511H22.4327V11.9034H22.4314Z" fill="#898989"/>
<path d="M8.87381 11.1501C9.30894 11.0644 9.667 10.8617 9.88829 10.577C10.1083 10.8617 10.4676 11.0644 10.9015 11.1501L10.9115 11.1526L11.0793 10.9201L11.0582 10.9152C10.5783 10.8157 10.0611 10.5273 10.0611 10.127V10.1133H9.71548V10.127C9.71548 10.5273 9.19829 10.8157 8.7184 10.9152L8.69727 10.9201L8.8651 11.1526L8.87505 11.1501H8.87381Z" fill="#898989"/>
<path d="M0.692557 12.1055H0.386719V12.9907H2.31126V12.7072H0.692557V12.1055Z" fill="#898989"/>
<path d="M2.29004 10.1214H1.98047V12.2274H2.29004V11.157H2.68912V10.8735H2.29004V10.1201V10.1214Z" fill="#898989"/>
<path d="M1.54286 11.0822C1.54286 10.887 1.44216 10.7043 1.27184 10.5837H1.656V10.3251H0.982162V10.0889H0.673838V10.3251H0V10.5837H0.385405C0.215081 10.7043 0.114378 10.887 0.114378 11.0822C0.114378 11.4353 0.435135 11.7212 0.829243 11.7212C1.22335 11.7212 1.54411 11.4341 1.54411 11.0822H1.54286ZM0.828 11.4539C0.595514 11.4539 0.406541 11.2874 0.406541 11.0835C0.406541 10.8796 0.595514 10.713 0.828 10.713C1.06049 10.713 1.2507 10.8796 1.2507 11.0835C1.2507 11.2874 1.06049 11.4539 0.828 11.4539Z" fill="#898989"/>
<path d="M16.0617 11.0248C16.0617 10.8557 15.9734 10.6978 15.823 10.5847H16.1748V10.3261H15.501V10.0898H15.1914V10.3261H14.5176V10.5847H14.8694C14.7202 10.6978 14.6307 10.8557 14.6307 11.0248C14.6307 11.3542 14.9515 11.6215 15.3456 11.6215C15.7397 11.6215 16.0604 11.353 16.0604 11.0248H16.0617ZM15.3468 11.353C15.1168 11.353 14.9291 11.205 14.9291 11.0235C14.9291 10.842 15.1168 10.6941 15.3468 10.6941C15.5768 10.6941 15.7646 10.842 15.7646 11.0235C15.7646 11.205 15.5781 11.353 15.3468 11.353Z" fill="#898989"/>
<path d="M17.5721 11.0424C17.5721 11.3818 17.8929 11.6578 18.287 11.6578C18.6811 11.6578 19.0018 11.3818 19.0018 11.0424C19.0018 10.8647 18.9111 10.7005 18.7569 10.5837H19.1162V10.3251H18.4424V10.0889H18.1328V10.3251H17.459V10.5837H17.817C17.6629 10.7005 17.5721 10.8647 17.5721 11.0424ZM18.287 11.3955C18.057 11.3955 17.8693 11.2364 17.8693 11.0424C17.8693 10.8485 18.0557 10.6894 18.287 10.6894C18.5182 10.6894 18.7047 10.8472 18.7047 11.0424C18.7047 11.2376 18.517 11.3955 18.287 11.3955Z" fill="#898989"/>
<path d="M12.8911 11.8516C12.2894 11.8516 11.8691 12.094 11.8691 12.4396C11.8691 12.7852 12.2894 13.0289 12.8911 13.0289C13.4928 13.0289 13.913 12.7865 13.913 12.4396C13.913 12.0928 13.4928 11.8516 12.8911 11.8516ZM12.8911 12.7529C12.487 12.7529 12.1936 12.6211 12.1936 12.4409C12.1936 12.2606 12.487 12.1288 12.8911 12.1288C13.2951 12.1288 13.5885 12.2593 13.5885 12.4409C13.5885 12.6224 13.2951 12.7529 12.8911 12.7529Z" fill="#898989"/>
</g>
<defs>
<clipPath id="clip0_4393_55524">
<rect width="23" height="19.0738" fill="white" transform="translate(0 2)"/>
</clipPath>
</defs>
</svg>
