<svg width="23" height="23" viewBox="0 0 23 23" fill="none" xmlns="http://www.w3.org/2000/svg">
<g clip-path="url(#clip0_4393_53532)">
<path d="M0.00195312 11.5012C0.00195312 17.8404 5.15905 23 11.4982 23C17.8374 23 22.9995 17.8429 22.9995 11.5012C22.9995 5.15957 17.8399 0 11.4982 0C5.15657 0 0.00195312 5.15957 0.00195312 11.5012ZM0.259684 11.5012C0.259684 5.30083 5.30278 0.257731 11.4982 0.257731C17.6937 0.257731 22.7417 5.30083 22.7417 11.4988C22.7417 17.6967 17.6986 22.7373 11.4982 22.7373C5.29783 22.7373 0.259684 17.6967 0.259684 11.5012Z" fill="#7D7D7D"/>
<path d="M0.617188 11.5009C0.617188 17.5006 5.4992 22.3826 11.4989 22.3826C17.4986 22.3826 22.3855 17.5006 22.3855 11.5009C22.3855 5.50123 17.5035 0.614258 11.4989 0.614258C5.49425 0.614258 0.617188 5.49875 0.617188 11.5009ZM0.713837 11.5009C0.713837 5.5508 5.55372 0.713385 11.4989 0.713385C17.444 0.713385 22.2889 5.55327 22.2889 11.5009C22.2889 17.4485 17.449 22.286 11.4989 22.286C5.54877 22.286 0.713837 17.4461 0.713837 11.5009Z" fill="#7D7D7D"/>
<path d="M18.4148 17.8285C18.4866 17.8929 18.5411 18.0292 18.4321 18.1507C18.3478 18.2473 18.2165 18.2622 18.1199 18.1754C18.0183 18.0862 18.0009 17.9474 18.0951 17.8458C18.1992 17.7269 18.3379 17.7616 18.4123 17.831L18.4148 17.8285Z" fill="#7D7D7D"/>
<path d="M4.75379 17.7465C4.82565 17.811 4.88017 17.9473 4.77113 18.0662C4.6844 18.1629 4.55801 18.1802 4.45888 18.091C4.35976 18.0018 4.33993 17.863 4.4341 17.7589C4.53818 17.6425 4.67448 17.6747 4.75131 17.7441L4.75379 17.7465Z" fill="#7D7D7D"/>
<path d="M3.65957 17.0211C3.40927 17.1847 3.36467 17.2144 3.3151 17.2516C3.26306 17.2912 3.24571 17.321 3.26802 17.3805C3.27297 17.3953 3.29032 17.4251 3.29775 17.4375C3.30271 17.4449 3.30271 17.4523 3.29775 17.4573C3.28784 17.4647 3.28041 17.4573 3.26802 17.4399C3.22093 17.3681 3.16393 17.2689 3.1565 17.259C3.14659 17.2442 3.08215 17.1549 3.04994 17.1079C3.03755 17.0905 3.03507 17.0806 3.04498 17.0732C3.05241 17.0682 3.05985 17.0732 3.06233 17.0806C3.06976 17.0905 3.0772 17.1004 3.09454 17.1178C3.13172 17.1549 3.16641 17.15 3.22589 17.1178C3.27793 17.088 3.32501 17.0583 3.57531 16.8923L3.67196 16.8303L3.667 16.8229C3.61744 16.8154 3.13172 16.7188 3.03259 16.7014C2.95577 16.6866 2.88638 16.6717 2.85912 16.6915C2.83929 16.7039 2.83433 16.7188 2.83929 16.7336C2.83929 16.7436 2.84177 16.7535 2.83681 16.756C2.82938 16.7609 2.81947 16.756 2.81203 16.7436C2.78973 16.7113 2.76247 16.6593 2.73769 16.6197C2.73273 16.6122 2.65838 16.5081 2.63112 16.4685C2.61873 16.4511 2.61873 16.4412 2.62617 16.4363C2.6336 16.4313 2.63856 16.4313 2.64847 16.4437C2.66334 16.4685 2.69556 16.4957 2.73025 16.518C2.80212 16.5651 2.86655 16.5726 2.98303 16.5998C3.04746 16.6147 3.50344 16.7138 3.56788 16.7213C3.5877 16.6494 3.71161 16.0893 3.72896 15.9828C3.76613 15.7672 3.77357 15.7226 3.75622 15.6234C3.74631 15.5714 3.71905 15.5218 3.71161 15.5094C3.70418 15.497 3.7017 15.4871 3.70665 15.4822C3.71409 15.4772 3.724 15.4822 3.74135 15.5094L3.79587 15.5912C3.82561 15.6358 3.84543 15.6656 3.86526 15.7027C3.91482 15.7919 3.90491 15.8564 3.895 15.9605C3.88261 16.072 3.73887 16.6519 3.69426 16.7931L3.69922 16.8006L3.85535 16.6965C4.00899 16.5949 4.13538 16.5131 4.19733 16.4586C4.23946 16.4239 4.2692 16.3892 4.24442 16.3371C4.23203 16.3124 4.21964 16.2851 4.20973 16.2702C4.20229 16.2603 4.20725 16.2554 4.20973 16.2504C4.21716 16.2454 4.22707 16.2504 4.23946 16.2678C4.29151 16.3471 4.3485 16.4437 4.35594 16.4561C4.36337 16.4685 4.43028 16.5602 4.4625 16.6073C4.47489 16.6246 4.47489 16.6345 4.46746 16.642C4.4625 16.6444 4.45507 16.6444 4.45011 16.6345C4.4402 16.6197 4.42533 16.6023 4.41294 16.5899C4.38568 16.5627 4.34355 16.5775 4.29398 16.6023C4.22212 16.6395 4.09573 16.7213 3.9396 16.8229L3.65709 17.0087L3.65957 17.0211Z" fill="#7D7D7D"/>
<path d="M2.90235 15.5315C2.51327 15.6901 2.2258 15.5464 2.10685 15.249C1.99285 14.9689 2.11676 14.6146 2.54549 14.4411C3.06343 14.2304 3.28894 14.5253 3.35585 14.6839C3.4872 15.0036 3.32116 15.3605 2.90482 15.529L2.90235 15.5315ZM3.01882 15.6802C3.33851 15.5513 3.63589 15.1945 3.43763 14.7063C3.26416 14.2775 2.82057 14.1288 2.42158 14.2899C2.00772 14.4584 1.87638 14.8599 2.03746 15.2589C2.23571 15.7496 2.72887 15.7942 3.01634 15.6777L3.01882 15.6802Z" fill="#7D7D7D"/>
<path d="M2.245 13.6901C1.83115 13.7644 1.58085 13.5662 1.52385 13.249C1.46933 12.9516 1.66511 12.6294 2.11862 12.5501C2.66877 12.451 2.82986 12.7856 2.85959 12.9566C2.92155 13.2961 2.68364 13.6133 2.245 13.6901ZM2.32926 13.8586C2.66877 13.7967 3.03307 13.5092 2.9389 12.9912C2.85712 12.5353 2.45317 12.2998 2.03188 12.3767C1.59076 12.456 1.38012 12.8203 1.45694 13.2465C1.55111 13.7669 2.02445 13.9131 2.32926 13.8586Z" fill="#7D7D7D"/>
<path d="M1.87843 11.7397C1.57857 11.7372 1.52405 11.7372 1.46457 11.7397C1.40014 11.7422 1.36792 11.757 1.35305 11.8215C1.3481 11.8363 1.3481 11.8686 1.34562 11.8859C1.34562 11.8933 1.34066 11.9008 1.33323 11.9008C1.32084 11.9008 1.31836 11.8909 1.31836 11.871C1.31836 11.7843 1.32579 11.6703 1.32579 11.6604C1.32579 11.643 1.32084 11.5315 1.32084 11.4745C1.32084 11.4547 1.32579 11.4448 1.33571 11.4448C1.34314 11.4448 1.34562 11.4522 1.34562 11.4597C1.34562 11.472 1.34562 11.4844 1.35058 11.5067C1.36049 11.5588 1.3927 11.5737 1.45962 11.5786C1.52157 11.5836 1.57361 11.5836 1.87347 11.586H1.98747V11.5786C1.9503 11.5464 1.60087 11.1945 1.52653 11.1251C1.47201 11.0706 1.42244 11.021 1.39023 11.021C1.36792 11.021 1.35553 11.0309 1.35058 11.0458C1.34562 11.0557 1.34314 11.0631 1.33571 11.0631C1.32579 11.0631 1.32332 11.0532 1.32332 11.0408C1.32332 11.0037 1.33075 10.9442 1.33075 10.8971C1.33075 10.8872 1.32579 10.7608 1.32579 10.7112C1.32579 10.6914 1.33075 10.6815 1.33818 10.6815C1.3481 10.6815 1.35058 10.6865 1.35058 10.7013C1.35058 10.7311 1.36049 10.7707 1.37536 10.8104C1.41005 10.8897 1.45714 10.9318 1.53892 11.0185C1.586 11.0681 1.90817 11.4027 1.95525 11.4448C2.01225 11.3952 2.42858 11.0012 2.50293 10.9219C2.6541 10.7608 2.68384 10.7286 2.72349 10.6369C2.74579 10.5873 2.74827 10.5303 2.75075 10.5179C2.75075 10.5056 2.7557 10.4932 2.76314 10.4932C2.77305 10.4932 2.77801 10.5031 2.77801 10.5353V10.6344C2.77801 10.6889 2.77801 10.7236 2.77305 10.7682C2.76314 10.8698 2.72101 10.9169 2.6541 10.9987C2.58223 11.0854 2.13864 11.4869 2.02464 11.5786V11.5885H2.21298C2.39637 11.591 2.55002 11.5935 2.62932 11.5836C2.68384 11.5786 2.72844 11.5662 2.73588 11.5092C2.74084 11.482 2.74579 11.4522 2.74579 11.4349C2.74579 11.4225 2.75075 11.42 2.75818 11.42C2.7681 11.42 2.77305 11.4299 2.77305 11.4497C2.77305 11.5439 2.76562 11.6554 2.76562 11.6703C2.76562 11.6852 2.77057 11.7967 2.77057 11.8537C2.77057 11.8735 2.76562 11.8834 2.7557 11.8834C2.75075 11.8834 2.74331 11.8785 2.74579 11.8686C2.74579 11.8512 2.74084 11.8289 2.73836 11.8116C2.73092 11.7719 2.68879 11.7645 2.6318 11.7546C2.55249 11.7446 2.39885 11.7422 2.21546 11.7422H1.87843V11.7397Z" fill="#7D7D7D"/>
<path d="M2.95536 8.59951C3.02475 8.60942 3.13131 8.61933 3.1784 8.54747C3.20814 8.4979 3.22053 8.44834 3.22549 8.43099C3.22549 8.42108 3.23044 8.41612 3.23788 8.4186C3.24779 8.42108 3.25027 8.4409 3.24531 8.46073C3.2354 8.50286 3.18088 8.70111 3.15857 8.7705C3.14371 8.81263 3.13627 8.82007 3.12636 8.81759C3.11892 8.81759 3.11645 8.81015 3.11645 8.80024C3.11645 8.79033 3.08671 8.78041 3.05201 8.77546L2.06818 8.6342V8.63916L2.9281 9.33057C2.99997 9.39005 3.01732 9.39996 3.01236 9.41731C3.00988 9.4297 2.98758 9.43465 2.91324 9.45448C2.80915 9.48174 2.44734 9.56352 2.42751 9.56848C2.39034 9.57591 1.89222 9.67752 1.83523 9.68743V9.69486L2.68276 9.97738C2.7125 9.98729 2.74472 9.99472 2.77693 10.0022C2.8042 10.0096 2.83393 9.99472 2.84632 9.96746C2.86119 9.93773 2.87111 9.91046 2.87358 9.89807C2.87358 9.89064 2.88102 9.8832 2.88598 9.88568C2.89837 9.88816 2.90084 9.90055 2.89589 9.92286C2.87854 9.99225 2.85128 10.079 2.8488 10.0963C2.84385 10.1137 2.82898 10.2054 2.81659 10.2549C2.81163 10.2748 2.80667 10.2847 2.7918 10.2822C2.78685 10.2822 2.78437 10.2698 2.78685 10.2624C2.7918 10.2475 2.79428 10.2351 2.79428 10.2054C2.79676 10.1409 2.72737 10.1186 2.65798 10.0939L1.47341 9.66513C1.45359 9.65521 1.4412 9.64778 1.44367 9.63539C1.44367 9.623 1.45606 9.61804 1.47837 9.61308L2.78933 9.32561L1.74849 8.49542C1.73362 8.48303 1.72123 8.47312 1.72619 8.46073C1.72866 8.44834 1.74601 8.44586 1.78071 8.45082L2.95784 8.60199L2.95536 8.59951Z" fill="#7D7D7D"/>
<path d="M3.04718 7.61311C3.21569 7.68746 3.35447 7.74941 3.4313 7.7742C3.48334 7.79154 3.52794 7.79898 3.55768 7.74941C3.57255 7.72711 3.59238 7.68994 3.59981 7.67259C3.60477 7.66268 3.6122 7.6602 3.61716 7.66268C3.62707 7.66763 3.62707 7.67755 3.61716 7.69737C3.57503 7.79402 3.52051 7.90306 3.51555 7.9105C3.5106 7.91793 3.46847 8.03193 3.44369 8.08397C3.43377 8.10379 3.42882 8.11123 3.41643 8.10627C3.41147 8.10627 3.40651 8.09884 3.41147 8.08645C3.4189 8.07158 3.42386 8.04927 3.42882 8.03193C3.43625 7.99475 3.40156 7.96749 3.35447 7.93775C3.28508 7.89563 3.1463 7.83615 2.97779 7.75933L2.66802 7.62303C2.39294 7.5016 2.34585 7.47929 2.28638 7.45947C2.22442 7.43716 2.18725 7.44212 2.16247 7.47681C2.1476 7.49416 2.13521 7.51646 2.13025 7.52885C2.12777 7.53629 2.12034 7.54125 2.1129 7.53877C2.10299 7.53381 2.10299 7.5239 2.1129 7.50407C2.13769 7.44708 2.1922 7.33804 2.19716 7.32812C2.20212 7.32069 2.24425 7.20669 2.26903 7.15465C2.27646 7.13482 2.2839 7.12739 2.29629 7.13235C2.30372 7.13482 2.30372 7.14474 2.30124 7.15217C2.29629 7.16456 2.29381 7.17448 2.28638 7.19926C2.27399 7.2513 2.29877 7.27856 2.35824 7.3083C2.41276 7.33556 2.46233 7.35786 2.7374 7.47929L3.04718 7.61559V7.61311Z" fill="#7D7D7D"/>
<path d="M3.73197 6.89932C3.86579 6.98358 3.91783 6.99597 3.95996 6.96127C3.98722 6.93649 4.01201 6.9018 4.02192 6.88693C4.02687 6.87949 4.03431 6.87702 4.03927 6.87949C4.04918 6.88693 4.0467 6.89684 4.03183 6.91667C3.96988 7.00836 3.92279 7.06784 3.91288 7.08271C3.90297 7.09757 3.86331 7.16696 3.81623 7.23883C3.80632 7.2537 3.7964 7.26361 3.78649 7.25618C3.77906 7.25122 3.77906 7.24379 3.78649 7.23635C3.7964 7.22396 3.81375 7.19422 3.82119 7.16448C3.83605 7.1174 3.7964 7.07775 3.65019 6.9811L2.73574 6.36899C2.67379 6.32686 2.65892 6.31199 2.66883 6.2996C2.67627 6.28721 2.73079 6.28225 2.75805 6.2773C2.80018 6.27234 3.21651 6.20543 3.64523 6.13604C3.92031 6.09143 4.23009 6.04683 4.31682 6.03196L3.49407 5.50906C3.38998 5.44215 3.34785 5.42976 3.30077 5.46941C3.27599 5.49419 3.24873 5.52889 3.24129 5.54128C3.23386 5.55367 3.2289 5.55119 3.22147 5.54623C3.21155 5.5388 3.21899 5.52641 3.23138 5.50658C3.27846 5.43471 3.33546 5.36037 3.34785 5.34302C3.36024 5.32567 3.38998 5.26868 3.43459 5.20424C3.44698 5.1869 3.45442 5.17698 3.46433 5.18194C3.47176 5.1869 3.47176 5.19681 3.46433 5.20672C3.45937 5.21416 3.45194 5.22655 3.4445 5.24885C3.41972 5.30833 3.45194 5.33807 3.54611 5.4025L4.48038 6.02948C4.58694 6.09887 4.5919 6.10878 4.58447 6.11869C4.57455 6.13108 4.54481 6.13852 4.40356 6.16826C4.3763 6.17569 3.98722 6.24756 3.69232 6.29712C3.37016 6.34916 3.04799 6.39625 2.9563 6.40864L3.73445 6.89932H3.73197Z" fill="#7D7D7D"/>
<path d="M5.01088 4.33249C4.82254 4.09954 4.79032 4.05741 4.74819 4.0128C4.70359 3.96324 4.67385 3.95085 4.61437 3.98058C4.5995 3.98802 4.57472 4.00537 4.55985 4.01776C4.55489 4.02271 4.54498 4.02519 4.54003 4.01776C4.53259 4.00784 4.54003 4.00041 4.5549 3.98554C4.62181 3.93102 4.71598 3.86163 4.73085 3.85172C4.74324 3.84181 4.82997 3.76498 4.87458 3.72781C4.88945 3.71542 4.90184 3.71046 4.9068 3.72037C4.91175 3.72533 4.9068 3.73524 4.90184 3.7402C4.89193 3.74763 4.88449 3.75755 4.86715 3.77489C4.83245 3.81455 4.84236 3.84924 4.87954 3.90376C4.91423 3.95332 4.94893 3.99545 5.13727 4.2284L5.30578 4.43657C5.47926 4.65217 5.60317 4.70669 5.71468 4.71413C5.84355 4.72404 5.92037 4.68439 6.00711 4.615C6.0988 4.54065 6.15332 4.42666 6.1558 4.31762C6.1558 4.17636 6.07154 4.0351 5.94763 3.88146L5.79646 3.69559C5.60812 3.46264 5.57591 3.42051 5.53378 3.37591C5.48917 3.32882 5.45943 3.31395 5.39996 3.34369C5.38509 3.35113 5.35783 3.36847 5.34543 3.38086C5.34048 3.38582 5.33057 3.3883 5.32561 3.38086C5.31817 3.37095 5.32561 3.36352 5.34048 3.34865C5.40739 3.29413 5.49413 3.23217 5.50156 3.22474C5.51147 3.2173 5.57838 3.15535 5.62299 3.11818C5.64034 3.10579 5.65025 3.10083 5.65769 3.11074C5.66264 3.1157 5.65769 3.12561 5.65273 3.13057C5.64282 3.138 5.6329 3.14544 5.61803 3.16526C5.58334 3.20491 5.59325 3.23961 5.63043 3.29413C5.66512 3.34369 5.69981 3.38582 5.88816 3.61877L6.01702 3.77985C6.14837 3.94093 6.27475 4.13423 6.24006 4.33744C6.21032 4.52083 6.10872 4.62491 6.02198 4.69678C5.96994 4.73891 5.81629 4.8529 5.62795 4.83803C5.49908 4.82812 5.35783 4.76865 5.18187 4.55057L5.00592 4.33249H5.01088Z" fill="#7D7D7D"/>
<path d="M6.97663 3.67541C7.05098 3.81419 7.09063 3.85136 7.14515 3.84145C7.18232 3.83401 7.21949 3.81666 7.23684 3.80923C7.24427 3.80427 7.25171 3.80675 7.25666 3.81171C7.26162 3.82162 7.25419 3.83153 7.23188 3.84145C7.13523 3.89101 7.06337 3.92075 7.0485 3.92818C7.03363 3.93562 6.96424 3.97775 6.88742 4.0174C6.87007 4.02483 6.85768 4.02979 6.85272 4.0174C6.84776 4.00996 6.85272 4.00501 6.86016 4.00005C6.87255 3.99261 6.90476 3.97527 6.92459 3.95544C6.96176 3.92075 6.94441 3.86871 6.86511 3.71258L6.36948 2.73122C6.33478 2.66431 6.3323 2.64201 6.34469 2.63705C6.35708 2.62961 6.40665 2.65192 6.43143 2.66183C6.47108 2.67918 6.86759 2.82539 7.27401 2.97408C7.53422 3.07073 7.82665 3.18473 7.9109 3.21199L7.44996 2.35206C7.39296 2.24054 7.36075 2.2108 7.30127 2.22319C7.26658 2.23311 7.22693 2.25045 7.21206 2.25789C7.19967 2.26284 7.19471 2.25789 7.19223 2.25293C7.18728 2.24302 7.19967 2.23311 7.21949 2.22319C7.29632 2.18354 7.38057 2.14637 7.4004 2.13894C7.42022 2.12902 7.47227 2.09681 7.54413 2.05963C7.56396 2.04972 7.57635 2.04476 7.58131 2.05716C7.58378 2.06459 7.58131 2.07202 7.56892 2.07946C7.559 2.08442 7.54909 2.08937 7.52926 2.10424C7.4797 2.14389 7.49209 2.18602 7.54413 2.28763L8.04968 3.29377C8.10668 3.40776 8.10668 3.41768 8.09677 3.42263C8.08438 3.43007 8.05216 3.42263 7.91586 3.37555C7.8886 3.36811 7.5144 3.24173 7.23436 3.13764C6.92707 3.02365 6.62473 2.90717 6.53799 2.87248L6.97663 3.68036V3.67541Z" fill="#7D7D7D"/>
<path d="M8.83539 2.56774C8.88991 2.7437 8.93452 2.88991 8.96674 2.96425C8.98904 3.0163 9.01135 3.05347 9.06834 3.04356C9.0956 3.0386 9.13773 3.03116 9.1526 3.02621C9.16251 3.02373 9.16995 3.02621 9.16995 3.03364C9.16995 3.04356 9.16499 3.05099 9.14517 3.05842C9.04356 3.08816 8.92709 3.12038 8.91717 3.12286C8.90726 3.12534 8.79327 3.16746 8.73875 3.18233C8.71892 3.18977 8.70901 3.18729 8.70405 3.17738C8.70405 3.17242 8.70405 3.16499 8.71396 3.16251C8.73131 3.15755 8.75114 3.14764 8.76601 3.13773C8.8007 3.1179 8.79574 3.07577 8.78831 3.02125C8.77344 2.94195 8.72883 2.79574 8.67431 2.61979L8.57519 2.29762C8.48597 2.01015 8.4711 1.96059 8.4488 1.90111C8.4265 1.83916 8.39676 1.81438 8.35463 1.81686C8.33232 1.81686 8.30754 1.82181 8.29515 1.82677C8.28772 1.82677 8.28028 1.82677 8.2778 1.82181C8.27533 1.80942 8.28276 1.80446 8.30259 1.79703C8.36206 1.7772 8.48102 1.74747 8.48845 1.74499C8.49836 1.74251 8.61236 1.70038 8.66688 1.68303C8.6867 1.6756 8.69662 1.67808 8.70157 1.68799C8.70157 1.69542 8.69662 1.70038 8.68918 1.70286C8.67679 1.70782 8.66688 1.71277 8.64457 1.72268C8.59749 1.74747 8.59253 1.78216 8.60988 1.84659C8.62475 1.90607 8.63962 1.95811 8.72883 2.2431L8.82796 2.56527L8.83539 2.56774Z" fill="#7D7D7D"/>
<path d="M10.1927 2.5999C10.2645 2.32978 10.4207 1.62845 10.443 1.48472C10.4479 1.45498 10.4529 1.42772 10.4504 1.41037C10.4504 1.3955 10.4405 1.37816 10.4182 1.37072C10.3934 1.36577 10.3661 1.37072 10.3463 1.3732C10.3339 1.3732 10.324 1.3732 10.324 1.36577C10.324 1.35337 10.3339 1.34842 10.3637 1.34346C10.4405 1.33107 10.5272 1.32611 10.5495 1.32116C10.5594 1.32116 10.6412 1.30133 10.6957 1.2939C10.7156 1.29142 10.728 1.2939 10.7304 1.30133C10.7304 1.31125 10.7255 1.3162 10.7106 1.31868C10.6982 1.31868 10.6561 1.32611 10.6239 1.35585C10.6016 1.37568 10.5768 1.41285 10.5471 1.54915C10.5347 1.60615 10.4727 1.84653 10.4108 2.09435C10.3364 2.38925 10.2819 2.60733 10.2522 2.70646C10.215 2.82789 10.2125 2.86011 10.1927 2.86259C10.1704 2.86507 10.158 2.84028 10.1059 2.75602L9.46657 1.66067C9.40957 1.56154 9.37735 1.54419 9.30796 1.53428C9.27823 1.5318 9.24601 1.53428 9.2361 1.53676C9.22618 1.53676 9.22123 1.53428 9.21875 1.52685C9.21875 1.51693 9.2361 1.51198 9.26584 1.50702C9.35753 1.49215 9.46657 1.48224 9.48887 1.47976C9.5087 1.47728 9.59296 1.45994 9.66482 1.44755C9.69952 1.44259 9.71687 1.44259 9.71687 1.4525C9.71687 1.46241 9.71439 1.46737 9.69952 1.46737C9.67969 1.46985 9.645 1.47728 9.62765 1.4872C9.60782 1.49959 9.60535 1.51693 9.60782 1.52933C9.6103 1.55411 9.64252 1.60863 9.68217 1.68049L10.1927 2.59742V2.5999Z" fill="#7D7D7D"/>
<path d="M11.3969 1.84673C11.4018 1.54687 11.4043 1.49235 11.4018 1.43287C11.3994 1.36844 11.3845 1.33622 11.3201 1.32135C11.3052 1.3164 11.273 1.31392 11.2556 1.31392C11.2482 1.31392 11.2408 1.30896 11.2408 1.30153C11.2408 1.28914 11.2507 1.28666 11.2705 1.28666C11.3572 1.28666 11.4787 1.29657 11.4861 1.29657C11.4985 1.29657 11.8826 1.30401 11.9247 1.30153C11.9619 1.30153 11.9916 1.29657 12.0065 1.29409C12.0164 1.29409 12.0239 1.28418 12.0338 1.28418C12.0387 1.28418 12.0412 1.29161 12.0412 1.30153C12.0412 1.31392 12.0313 1.3387 12.0239 1.39074C12.0239 1.41057 12.0164 1.49483 12.0115 1.51713C12.0115 1.52704 12.004 1.53695 11.9966 1.53695C11.9842 1.53695 11.9817 1.52704 11.9817 1.51217C11.9817 1.49978 11.9817 1.46509 11.9718 1.44278C11.9594 1.41057 11.9396 1.38826 11.838 1.37587C11.8058 1.37092 11.5976 1.36596 11.5753 1.36596C11.5679 1.36596 11.5629 1.37092 11.5629 1.38579L11.553 1.91612C11.553 1.92851 11.553 1.93594 11.5629 1.93594C11.5877 1.93594 11.8231 1.9409 11.8677 1.93594C11.9148 1.93346 11.9396 1.92851 11.9594 1.91116C11.9718 1.89629 11.9817 1.88638 11.9892 1.88638C11.9941 1.88638 11.9991 1.89133 11.9991 1.90125C11.9991 1.91364 11.9892 1.94585 11.9817 2.00781C11.9768 2.04746 11.9718 2.11685 11.9718 2.13172C11.9718 2.14659 11.9718 2.16889 11.957 2.16889C11.947 2.16889 11.9446 2.16146 11.9446 2.15154C11.9446 2.13172 11.9446 2.11189 11.9371 2.08711C11.9297 2.05985 11.9123 2.02763 11.838 2.01772C11.786 2.01029 11.5976 2.00285 11.5629 2.00285C11.553 2.00285 11.5505 2.00781 11.5505 2.01524V2.18376C11.5456 2.24819 11.5406 2.47123 11.5406 2.51088C11.5431 2.6447 11.5728 2.66948 11.7612 2.67196C11.8107 2.67196 11.895 2.67196 11.9446 2.65461C11.9941 2.63479 12.0189 2.59514 12.0338 2.51831C12.0387 2.49601 12.0412 2.48858 12.0511 2.48858C12.0635 2.48858 12.0635 2.50344 12.061 2.51831C12.061 2.53318 12.0437 2.66453 12.0338 2.70418C12.0189 2.75374 12.004 2.75374 11.9297 2.75126C11.6397 2.74631 11.5109 2.73144 11.4564 2.73144C11.4464 2.73144 11.325 2.73392 11.268 2.73144C11.2482 2.73144 11.2383 2.72648 11.2383 2.71657C11.2383 2.71161 11.2432 2.70418 11.2532 2.70418C11.2705 2.70418 11.2928 2.7017 11.3101 2.69674C11.3498 2.68931 11.3597 2.64718 11.3671 2.59266C11.3771 2.51088 11.3795 2.35971 11.3845 2.17632L11.3895 1.83929L11.3969 1.84673Z" fill="#7D7D7D"/>
<path d="M13.0992 1.51677C13.0992 1.51677 13.1091 1.49942 13.119 1.49695C13.1389 1.49695 13.1909 1.49695 13.2479 1.50934C13.4511 1.54651 13.5478 1.71255 13.5056 1.94798C13.4784 2.09171 13.4115 2.1834 13.3346 2.2181C13.2851 2.2404 13.233 2.23544 13.186 2.22801C13.1017 2.21314 13.0174 2.1834 12.9927 2.1611C12.9852 2.15366 12.9827 2.14623 12.9827 2.13632L13.0967 1.51925L13.0992 1.51677ZM12.8018 2.2751C12.7671 2.456 12.7399 2.60469 12.7151 2.68152C12.6977 2.73604 12.6804 2.77569 12.6408 2.77569C12.6234 2.77569 12.5986 2.77569 12.5838 2.77321C12.5714 2.77321 12.5664 2.77569 12.5664 2.78064C12.5664 2.79304 12.5738 2.79799 12.5937 2.80047C12.6507 2.81038 12.7696 2.82773 12.7721 2.82773C12.782 2.82773 12.8985 2.85747 13.0026 2.87729C13.0224 2.87977 13.0323 2.87729 13.0348 2.86738C13.0348 2.86242 13.0348 2.85499 13.0224 2.85251C13.005 2.85003 12.9654 2.83764 12.9381 2.83021C12.8836 2.81286 12.8787 2.76825 12.8836 2.71373C12.8886 2.63195 12.9158 2.48326 12.9505 2.30236L12.958 2.25775C12.958 2.25775 12.9654 2.24288 12.9753 2.24536L13.2058 2.29244C13.2058 2.29244 13.2206 2.29988 13.2281 2.30731C13.2578 2.36431 13.3223 2.50557 13.3817 2.62452C13.4635 2.7856 13.5131 2.89216 13.5849 2.94916C13.6295 2.98386 13.6742 3.00368 13.7807 3.02351L13.9145 3.04829C13.9492 3.05572 13.9616 3.05324 13.9616 3.04085C13.9616 3.0359 13.9567 3.02846 13.9468 3.02598C13.9344 3.02598 13.9096 3.01855 13.8749 3.00616C13.8303 2.98881 13.751 2.95412 13.6692 2.82773C13.5825 2.69143 13.4858 2.49813 13.3669 2.27014C13.5651 2.14623 13.6494 2.01736 13.6766 1.87611C13.7014 1.74476 13.6345 1.6382 13.5949 1.59607C13.5081 1.50686 13.3842 1.46969 13.2653 1.44738C13.2058 1.43747 13.062 1.41517 13.0422 1.41269C13.0323 1.41269 12.9134 1.38295 12.8291 1.36808C12.8093 1.3656 12.7994 1.36808 12.7969 1.37799C12.7969 1.38543 12.8018 1.39038 12.8093 1.39286C12.8266 1.39534 12.8588 1.40278 12.8712 1.41021C12.9307 1.43499 12.9406 1.46721 12.9332 1.53412C12.9257 1.59607 12.9158 1.64812 12.8613 1.94302L12.7994 2.2751H12.8018Z" fill="#7D7D7D"/>
<path d="M14.1282 3.12344C14.1083 3.10113 14.1083 3.0937 14.1282 3.04414C14.1604 2.95244 14.1926 2.88305 14.205 2.85579C14.2149 2.83597 14.2198 2.82853 14.2298 2.83101C14.2397 2.83597 14.2397 2.84093 14.2347 2.85579C14.2298 2.87314 14.2198 2.89792 14.2174 2.92518C14.1951 3.06892 14.2967 3.16309 14.4181 3.20522C14.5916 3.26717 14.7204 3.173 14.7626 3.05653C14.8072 2.93262 14.7799 2.84093 14.6709 2.65754L14.6139 2.56089C14.4801 2.33538 14.4751 2.20651 14.5197 2.08508C14.5891 1.89178 14.7799 1.81248 15.0104 1.89426C15.0798 1.91904 15.1318 1.9463 15.1715 1.97356C15.2037 1.99339 15.2161 2.00082 15.2309 2.00578C15.2458 2.01074 15.2483 2.01569 15.2433 2.0256C15.2409 2.03552 15.2111 2.09252 15.1665 2.21395C15.1566 2.24368 15.1467 2.2536 15.1392 2.25112C15.1293 2.24616 15.1293 2.23873 15.1318 2.22138C15.1392 2.19908 15.1442 2.14704 15.1417 2.12225C15.1368 2.09747 15.1169 2.00578 14.9509 1.9463C14.827 1.9017 14.7006 1.9463 14.6535 2.07517C14.6164 2.17677 14.6436 2.25855 14.765 2.45681L14.8022 2.51381C14.9559 2.75915 14.9658 2.88801 14.9137 3.03422C14.8865 3.10857 14.8096 3.23496 14.6535 3.27956C14.5569 3.30682 14.4503 3.29195 14.3537 3.25726C14.2694 3.22752 14.1901 3.18539 14.1282 3.12096V3.12344Z" fill="#7D7D7D"/>
<path d="M15.7932 3.25211C15.7089 3.41567 15.6395 3.55197 15.6098 3.62631C15.59 3.67836 15.58 3.72048 15.6271 3.75518C15.6494 3.77005 15.6841 3.79483 15.7015 3.80226C15.7114 3.80722 15.7114 3.81466 15.7089 3.81961C15.704 3.82705 15.694 3.82952 15.6742 3.81961C15.58 3.77005 15.476 3.71057 15.466 3.70562C15.4561 3.70066 15.3471 3.6511 15.2951 3.62384C15.2752 3.61392 15.2703 3.60649 15.2752 3.59658C15.2777 3.59162 15.2851 3.58914 15.2951 3.5941C15.3099 3.60153 15.3322 3.60897 15.3496 3.61392C15.3867 3.62384 15.4165 3.59162 15.4462 3.54453C15.4908 3.47762 15.5602 3.34132 15.6445 3.17776L15.7981 2.8779C15.9344 2.61274 15.9592 2.56317 15.984 2.50618C16.0112 2.4467 16.0088 2.40953 15.9741 2.37979C15.9592 2.36492 15.9369 2.35253 15.9245 2.34509C15.9171 2.34262 15.9121 2.33518 15.9171 2.32775C15.922 2.31783 15.9319 2.31783 15.9518 2.32775C16.0088 2.35749 16.1129 2.41696 16.1228 2.42192C16.1302 2.42687 16.2417 2.47644 16.2938 2.5037C16.3111 2.51361 16.3185 2.52105 16.3136 2.53096C16.3086 2.53839 16.3012 2.53839 16.2938 2.53344C16.2814 2.52848 16.2715 2.52352 16.2491 2.51609C16.1996 2.50122 16.1698 2.52352 16.1352 2.58052C16.1029 2.63256 16.0782 2.68213 15.9419 2.94729L15.7882 3.24715L15.7932 3.25211Z" fill="#7D7D7D"/>
<path d="M16.9232 3.95545C16.8167 4.10662 16.7274 4.22805 16.6878 4.29992C16.6605 4.34948 16.6457 4.38913 16.6878 4.42878C16.7076 4.44861 16.7398 4.47587 16.7547 4.48578C16.7646 4.49321 16.7646 4.49817 16.7597 4.50313C16.7547 4.51056 16.7423 4.51056 16.725 4.49817C16.6382 4.43621 16.5441 4.36187 16.5366 4.35691C16.5292 4.35196 16.4276 4.28505 16.3805 4.25283C16.3631 4.24044 16.3582 4.233 16.3631 4.22309C16.3656 4.21814 16.3731 4.21566 16.383 4.22309C16.3978 4.233 16.4177 4.24292 16.435 4.25035C16.4697 4.2677 16.5044 4.23796 16.5416 4.19583C16.5961 4.13636 16.6853 4.01245 16.7919 3.86128L17.2652 3.1996L17.0323 3.03852C16.9356 2.97161 16.8885 2.95426 16.8365 2.97409C16.7993 2.98896 16.7869 2.99639 16.7745 3.00383C16.7621 3.01374 16.7547 3.01374 16.7473 3.00878C16.7423 3.0063 16.7423 2.99887 16.7473 2.98896C16.7572 2.97409 16.886 2.86257 16.8984 2.85018C16.9084 2.84274 16.9282 2.82788 16.9356 2.83035C16.9455 2.83779 16.9505 2.86505 16.9901 2.89726C17.0323 2.93444 17.0893 2.97904 17.1091 2.99391L17.6964 3.41273C17.7955 3.48459 17.8501 3.49946 17.8625 3.5069C17.8699 3.51185 17.8625 3.52177 17.8575 3.53168C17.8228 3.57876 17.7435 3.68285 17.7286 3.7002C17.7187 3.71506 17.7088 3.71754 17.7038 3.71259C17.6964 3.70763 17.6964 3.7002 17.7113 3.67789L17.7212 3.66054C17.7485 3.6085 17.7385 3.54655 17.5899 3.43751L17.3941 3.29377L16.9232 3.95545Z" fill="#7D7D7D"/>
<path d="M17.9576 4.91493C18.032 4.84307 18.0468 4.79846 18.0691 4.74146C18.0815 4.70924 18.2005 4.23095 18.2253 4.112C18.2426 4.02774 18.2426 3.96083 18.2352 3.9187C18.2277 3.88401 18.2104 3.84931 18.198 3.83692C18.1906 3.82949 18.1881 3.81958 18.193 3.81462C18.198 3.80966 18.2079 3.80966 18.2203 3.82205C18.2451 3.84684 18.3417 3.9534 18.3492 3.96083C18.3591 3.97075 18.4136 4.01783 18.4656 4.07235C18.4805 4.08722 18.478 4.09465 18.4731 4.09961C18.4681 4.10457 18.4582 4.09961 18.4409 4.09218C18.426 4.08722 18.4111 4.08722 18.3987 4.09961C18.3839 4.11696 18.3739 4.13926 18.364 4.17148C18.3467 4.23343 18.1955 4.78607 18.1807 4.8505C18.2624 4.82076 18.7333 4.69685 18.8052 4.6795C18.8522 4.66959 18.8795 4.65225 18.8968 4.6349C18.9167 4.61507 18.9266 4.59525 18.9142 4.57542C18.9068 4.55807 18.9018 4.54816 18.9068 4.54073C18.9117 4.53577 18.9241 4.54073 18.9365 4.5556C18.9712 4.59029 19.0108 4.63738 19.0208 4.64977C19.0282 4.6572 19.1298 4.75137 19.1546 4.77863C19.1645 4.78855 19.1694 4.79846 19.1645 4.80341C19.1571 4.81085 19.1471 4.80837 19.1347 4.79598C19.1199 4.78111 19.0877 4.76129 19.053 4.75137C19.0084 4.74146 18.9786 4.74146 18.9117 4.74889C18.8126 4.75881 18.3021 4.88519 18.2203 4.91741C18.1509 4.94467 18.1088 4.9868 18.0642 5.03141L17.9477 5.14788C17.9254 5.17019 17.8684 5.22718 17.8139 5.28666C17.7767 5.32879 17.7594 5.37092 17.7941 5.418C17.8089 5.44031 17.8362 5.47252 17.8486 5.48491C17.856 5.49235 17.856 5.49978 17.8486 5.50474C17.8411 5.51217 17.8312 5.5097 17.8164 5.49483C17.742 5.42048 17.6627 5.32879 17.6553 5.32383C17.6478 5.3164 17.5586 5.23462 17.519 5.19497C17.5041 5.1801 17.4992 5.17018 17.5091 5.16275C17.514 5.15779 17.519 5.15779 17.5289 5.16523C17.5413 5.17762 17.5586 5.19001 17.576 5.19992C17.6082 5.22223 17.6503 5.20488 17.6924 5.16771C17.7544 5.11567 17.8114 5.05867 17.8337 5.03636L17.9502 4.91989L17.9576 4.91493Z" fill="#7D7D7D"/>
<path d="M18.7798 6.6741C18.7798 6.65179 18.7798 6.64931 18.8145 6.62949C18.874 6.59232 18.9236 6.56753 18.9434 6.55762C18.9558 6.55019 18.9657 6.55019 18.9682 6.55762C18.9731 6.56506 18.9682 6.56753 18.9607 6.57497C18.9508 6.5824 18.9335 6.59232 18.9186 6.60471C18.8418 6.67657 18.8566 6.7757 18.9062 6.855C18.9756 6.969 19.0921 6.97396 19.1664 6.92687C19.2482 6.87731 19.2755 6.81287 19.2953 6.65923L19.3052 6.57993C19.33 6.39158 19.387 6.31724 19.4663 6.26768C19.5927 6.19085 19.7364 6.2305 19.8306 6.38167C19.8603 6.42876 19.8752 6.46593 19.8876 6.49815C19.8975 6.52293 19.9024 6.53284 19.9074 6.54275C19.9124 6.55267 19.9124 6.55514 19.9074 6.5601C19.9024 6.56506 19.8603 6.5824 19.7785 6.63197C19.7587 6.64436 19.7488 6.64684 19.7463 6.6394C19.7414 6.63197 19.7463 6.62701 19.7562 6.61958C19.7686 6.60966 19.7959 6.5824 19.8058 6.56753C19.8157 6.55267 19.8454 6.49071 19.7761 6.38167C19.7265 6.29989 19.6348 6.26767 19.5481 6.31972C19.4811 6.36185 19.4613 6.41884 19.439 6.58736L19.4341 6.63692C19.4093 6.84509 19.3572 6.92191 19.2631 6.98139C19.2135 7.01113 19.1119 7.0483 19.0053 7.00122C18.9384 6.97148 18.8839 6.91696 18.8443 6.85253C18.8096 6.79801 18.7848 6.73853 18.7773 6.6741H18.7798Z" fill="#7D7D7D"/>
<path d="M19.6963 7.52457C19.5774 7.58405 19.4782 7.63113 19.4287 7.66335C19.394 7.68565 19.3717 7.70548 19.3841 7.74513C19.389 7.76496 19.4014 7.79222 19.4064 7.80461C19.4088 7.81204 19.4064 7.817 19.4039 7.817C19.3965 7.81948 19.3915 7.817 19.3841 7.80213C19.3518 7.73274 19.3172 7.65344 19.3122 7.646C19.3097 7.63857 19.2676 7.56175 19.2478 7.52457C19.2403 7.5097 19.2403 7.50227 19.2478 7.49979C19.2502 7.49979 19.2577 7.49979 19.2602 7.50723C19.2651 7.51962 19.275 7.53201 19.2825 7.54192C19.2998 7.56422 19.3295 7.55679 19.3692 7.5444C19.4237 7.52457 19.5228 7.47749 19.6443 7.41801L19.8648 7.31145C20.0606 7.21728 20.0953 7.19993 20.1325 7.17763C20.1746 7.15532 20.1895 7.13054 20.182 7.1008C20.1796 7.08593 20.1721 7.06859 20.1696 7.05867C20.1696 7.05372 20.1696 7.04876 20.1696 7.04381C20.1771 7.04133 20.182 7.04381 20.1895 7.05867C20.2093 7.1008 20.244 7.18011 20.2465 7.18754C20.2489 7.19498 20.2911 7.2718 20.3109 7.30897C20.3183 7.32384 20.3183 7.33128 20.3109 7.33375C20.3059 7.33375 20.301 7.33375 20.2985 7.32632C20.2936 7.31641 20.2886 7.31145 20.2787 7.29658C20.2564 7.26684 20.2291 7.26684 20.1845 7.28419C20.1424 7.30154 20.1077 7.31888 19.9119 7.41305L19.6914 7.51962L19.6963 7.52457Z" fill="#7D7D7D"/>
<path d="M19.7934 8.2774C19.6868 8.31705 19.6571 8.33935 19.6571 8.379C19.6571 8.40626 19.667 8.436 19.6719 8.44839C19.6719 8.45583 19.6719 8.46078 19.667 8.46078C19.6595 8.46326 19.6546 8.45583 19.6472 8.44096C19.6224 8.36661 19.61 8.31209 19.605 8.2997C19.6001 8.28731 19.5778 8.23279 19.5579 8.17579C19.553 8.1634 19.553 8.15349 19.5629 8.15101C19.5679 8.15101 19.5728 8.15101 19.5728 8.15844C19.5753 8.16836 19.5852 8.19314 19.6001 8.21049C19.6199 8.24023 19.6595 8.23527 19.781 8.19314L20.5368 7.94284C20.5889 7.9255 20.6037 7.9255 20.6087 7.93541C20.6112 7.94532 20.5913 7.97754 20.5814 7.99488C20.5666 8.02214 20.4179 8.28979 20.2692 8.56487C20.1725 8.74082 20.061 8.93907 20.0313 8.99607L20.6954 8.75816C20.7822 8.72843 20.8069 8.7086 20.8045 8.66399C20.802 8.63921 20.7921 8.607 20.7896 8.59708C20.7871 8.58717 20.7896 8.58469 20.7946 8.58469C20.802 8.58221 20.8069 8.59213 20.8119 8.607C20.8317 8.66647 20.8491 8.73091 20.854 8.74577C20.859 8.76064 20.8763 8.80277 20.8962 8.85729C20.9011 8.87216 20.9036 8.88207 20.8962 8.88455C20.8912 8.88455 20.8862 8.88455 20.8813 8.87216C20.8813 8.86473 20.8763 8.85729 20.8664 8.84242C20.8416 8.80277 20.8119 8.80525 20.7326 8.83251L19.9594 9.08776C19.8727 9.1175 19.8652 9.11502 19.8628 9.10759C19.8603 9.09768 19.8677 9.07537 19.9148 8.98368C19.9222 8.96385 20.0536 8.71108 20.1577 8.52026C20.2717 8.31209 20.3881 8.1064 20.4203 8.0494L19.7934 8.2774Z" fill="#7D7D7D"/>
<path d="M20.1394 9.70012C20.236 9.54647 20.3872 9.48948 20.5186 9.46717C20.6103 9.4523 20.7763 9.45726 20.92 9.55886C21.0167 9.62825 21.1009 9.74225 21.1356 9.9529C21.1455 10.0074 21.153 10.0867 21.153 10.1536C21.153 10.2081 21.153 10.2528 21.153 10.2974C21.153 10.3122 21.148 10.3172 21.1406 10.3172C21.1307 10.3172 21.1108 10.3172 21.0638 10.3221C21.0167 10.3271 20.9423 10.3395 20.9225 10.342C20.9027 10.342 20.8928 10.342 20.8928 10.3345C20.8928 10.3246 20.9002 10.3221 20.92 10.3197C20.9721 10.3098 21.0266 10.28 21.0514 10.2379C21.0836 10.1834 21.1034 10.0718 21.0836 9.95042C21.0538 9.76703 20.9869 9.69269 20.9299 9.65056C20.8159 9.5663 20.692 9.56382 20.5508 9.58612C20.2881 9.62825 20.0824 9.87112 20.1295 10.1635C20.1468 10.2676 20.1716 10.3444 20.2385 10.3915C20.2732 10.4163 20.3377 10.4238 20.3624 10.4238C20.3773 10.4238 20.3847 10.4237 20.3847 10.4337C20.3847 10.4411 20.3773 10.4436 20.3649 10.4461C20.355 10.4461 20.2336 10.451 20.184 10.4461C20.1567 10.4411 20.1543 10.4411 20.1394 10.4163C20.1097 10.3643 20.0824 10.2627 20.0675 10.1735C20.0328 9.96776 20.0601 9.82155 20.1394 9.69516V9.70012Z" fill="#7D7D7D"/>
<path d="M20.8132 10.959C21.0288 10.9516 21.0685 10.9516 21.1131 10.9466C21.1601 10.9417 21.1824 10.9293 21.1899 10.8847C21.1899 10.8748 21.1924 10.85 21.1899 10.8376C21.1899 10.8326 21.1899 10.8252 21.1973 10.8252C21.2072 10.8252 21.2097 10.8326 21.2097 10.8475C21.2097 10.9095 21.2097 10.9987 21.2097 11.0036C21.2097 11.0135 21.2196 11.2911 21.2221 11.3208C21.2221 11.3481 21.2271 11.3704 21.232 11.3803C21.232 11.3877 21.2394 11.3927 21.2394 11.4001C21.2394 11.4051 21.2345 11.4051 21.2271 11.4051C21.2171 11.4051 21.1998 11.4001 21.1626 11.3952C21.1478 11.3952 21.0883 11.3952 21.0709 11.3902C21.0635 11.3902 21.0561 11.3877 21.0561 11.3803C21.0561 11.3729 21.0635 11.3679 21.0734 11.3679C21.0833 11.3679 21.1056 11.3679 21.123 11.358C21.1453 11.3481 21.1601 11.3332 21.1676 11.2589C21.1676 11.2341 21.1676 11.0829 21.1676 11.0681C21.1676 11.0631 21.1626 11.0606 21.1527 11.0606L20.7686 11.073C20.7686 11.073 20.7562 11.073 20.7562 11.0829C20.7562 11.1003 20.7636 11.2713 20.7661 11.3035C20.7711 11.3357 20.7735 11.3555 20.7884 11.3679C20.8008 11.3778 20.8082 11.3828 20.8082 11.3877C20.8082 11.3927 20.8082 11.3952 20.7983 11.3952C20.7909 11.3952 20.7661 11.3902 20.7215 11.3877C20.6942 11.3877 20.6422 11.3853 20.6323 11.3853C20.6224 11.3853 20.605 11.3853 20.605 11.3754C20.605 11.3679 20.61 11.3654 20.6174 11.3654C20.6298 11.3654 20.6447 11.3654 20.662 11.358C20.6819 11.3506 20.7042 11.3382 20.7091 11.2837C20.7116 11.2465 20.7091 11.1077 20.7091 11.0854C20.7091 11.078 20.7042 11.0755 20.6992 11.0755L20.5778 11.0804C20.5307 11.0804 20.3696 11.0854 20.3399 11.0879C20.2457 11.0953 20.2259 11.1176 20.2308 11.2514C20.2308 11.2886 20.2333 11.3481 20.2507 11.3853C20.2655 11.42 20.2953 11.4373 20.3523 11.4447C20.3671 11.4447 20.3746 11.4497 20.3746 11.4571C20.3746 11.4646 20.3646 11.4646 20.3547 11.467C20.3448 11.467 20.2482 11.4596 20.2209 11.4522C20.1837 11.4447 20.1837 11.4323 20.1813 11.3778C20.1738 11.1672 20.1813 11.0755 20.1813 11.0334C20.1813 11.0309 20.1813 11.0061 20.1788 10.9788C20.1788 10.9516 20.1738 10.9194 20.1738 10.8971C20.1738 10.8822 20.1738 10.8748 20.1837 10.8748C20.1887 10.8748 20.1937 10.8772 20.1937 10.8847C20.1937 10.8971 20.1986 10.9144 20.2011 10.9268C20.2085 10.9541 20.2383 10.9615 20.2779 10.964C20.3349 10.9689 20.4464 10.964 20.5802 10.9615L20.8256 10.9541L20.8132 10.959Z" fill="#7D7D7D"/>
<path d="M20.6233 13.0208C20.4325 12.9911 20.2714 12.9638 20.1847 12.9613C20.1252 12.9613 20.0955 12.9613 20.0731 13.0208C20.0632 13.0481 20.0434 13.1274 20.0409 13.1447C20.0409 13.1521 20.031 13.1596 20.0236 13.1571C20.0137 13.1571 20.0112 13.1447 20.0162 13.1224C20.0385 12.9812 20.0632 12.8597 20.0657 12.8498C20.0657 12.8399 20.088 12.6813 20.1054 12.5599C20.1078 12.54 20.1153 12.5301 20.1227 12.5326C20.1301 12.5326 20.1376 12.5425 20.1351 12.5499C20.1301 12.5723 20.1227 12.6664 20.1252 12.7036C20.1252 12.768 20.1525 12.7854 20.2119 12.7978C20.2937 12.8176 20.4573 12.8424 20.6481 12.8721L20.9802 12.9242C21.0818 12.9415 21.1635 12.9514 21.2676 12.9688C21.3048 12.9762 21.3271 12.9737 21.3321 12.944C21.337 12.9068 21.2899 12.7655 21.2751 12.7135C21.2701 12.7036 21.2701 12.6962 21.2701 12.6887C21.2701 12.6838 21.28 12.6788 21.2899 12.6813C21.2949 12.6813 21.3023 12.6887 21.3073 12.6986C21.3122 12.711 21.4857 13.0852 21.4931 13.1026C21.5031 13.1224 21.5105 13.1373 21.508 13.1521C21.508 13.167 21.4832 13.167 21.4659 13.1645C21.451 13.1621 21.2652 13.1224 20.9752 13.0753L20.6258 13.0183L20.6233 13.0208Z" fill="#7D7D7D"/>
<path d="M20.5893 14.6688C20.0738 14.5126 19.8781 14.0046 19.8359 13.7469C19.8359 13.7345 19.8359 13.7221 19.8359 13.7147C19.8359 13.7072 19.8483 13.7023 19.8582 13.7047C19.8682 13.7072 19.8756 13.7171 19.8781 13.732C19.9326 13.9848 20.1507 14.359 20.5843 14.4903C20.9065 14.587 21.1122 14.4953 21.1618 14.3342C21.2113 14.1682 21.1023 14.0418 20.9561 13.9972C20.6513 13.9055 20.5224 14.1136 20.5075 14.1632C20.4803 14.2499 20.4877 14.2921 20.4976 14.3193C20.5026 14.3317 20.5026 14.3416 20.5026 14.3466C20.5026 14.3516 20.4927 14.354 20.4877 14.3516C20.4827 14.3516 20.4778 14.3466 20.4753 14.3392C20.4357 14.2698 20.4357 14.1657 20.458 14.0938C20.5373 13.8336 20.7702 13.784 20.9239 13.8287C21.1766 13.9055 21.2956 14.1434 21.2188 14.3962C21.1395 14.6564 20.8718 14.7505 20.5918 14.6663L20.5893 14.6688Z" fill="#7D7D7D"/>
<path d="M19.7593 15.5483L19.9922 15.0626C20.0195 15.1171 20.3416 15.7912 20.3739 15.8383L19.7617 15.5483H19.7593ZM20.2524 15.9448C20.3466 15.9894 20.4854 16.0588 20.5102 16.0712C20.5275 16.0786 20.5424 16.0811 20.5473 16.0687C20.5523 16.0563 20.5473 16.0415 20.5349 16.0167C20.4854 15.925 20.0145 14.9535 20.0071 14.9387C20.0021 14.9288 19.9922 14.9114 19.9773 14.9065C19.9625 14.899 19.9501 14.9114 19.9402 14.9337L19.6676 15.5062C19.6106 15.4789 19.4743 15.4194 19.4024 15.3748C19.3528 15.3451 19.3231 15.3154 19.3405 15.2534C19.3504 15.2237 19.3677 15.184 19.3751 15.1691C19.3801 15.1592 19.3751 15.1518 19.3677 15.1493C19.3578 15.1444 19.3504 15.1518 19.3429 15.1716C19.2983 15.2658 19.2587 15.3624 19.2512 15.3748C19.2463 15.3872 19.1868 15.4963 19.1422 15.5904C19.1323 15.6103 19.1323 15.6202 19.1422 15.6227C19.1496 15.6251 19.1595 15.6227 19.1645 15.6127C19.1719 15.5954 19.1918 15.5607 19.2091 15.5409C19.2488 15.4913 19.2859 15.4913 19.3405 15.5111C19.4198 15.5409 19.5511 15.6078 19.6081 15.635L19.5313 15.7936C19.5214 15.8135 19.5238 15.8234 19.5362 15.8407C19.5536 15.8581 19.5883 15.8853 19.5982 15.8903C19.6081 15.8953 19.618 15.9002 19.623 15.8903C19.6254 15.8829 19.6155 15.8581 19.6378 15.811L19.7023 15.6797L20.2574 15.9448H20.2524Z" fill="#7D7D7D"/>
<path d="M19.2827 16.8298C19.31 16.7876 19.3372 16.7455 19.3447 16.6959C19.3447 16.691 19.3496 16.6761 19.3521 16.6711C19.3546 16.6662 19.362 16.6687 19.3695 16.6711C19.3769 16.6761 19.3794 16.6835 19.3794 16.6984C19.3794 16.7455 19.3695 16.8322 19.3075 16.919C19.1563 17.1395 18.9085 17.1123 18.7673 17.0156C18.6434 16.9289 18.5641 16.8124 18.5442 16.6959C18.5244 16.572 18.5442 16.4655 18.626 16.349C18.7797 16.1284 19.0498 16.0937 19.3372 16.2895C19.6445 16.5002 19.8131 16.971 19.7338 17.37C19.7288 17.3898 19.7263 17.4047 19.7214 17.4096C19.7164 17.4171 19.709 17.4196 19.6991 17.4121C19.6867 17.4022 19.6891 17.3849 19.6916 17.3626C19.7189 17.0825 19.6173 16.6835 19.2431 16.4258C19.0572 16.2994 18.792 16.235 18.6657 16.4184C18.5789 16.5448 18.6111 16.7133 18.7846 16.8347C19.0052 16.9859 19.2158 16.9214 19.2802 16.8248L19.2827 16.8298Z" fill="#7D7D7D"/>
<path d="M9.58035 19.8057L9.04754 21.3942L7.95714 21.0274L8.10831 20.5739L7.80845 20.4748L7.58789 21.129L9.27801 21.699L9.88021 19.9048L9.58035 19.8057Z" fill="#7D7D7D"/>
<path d="M9.2438 19.6918L7.98984 19.2705L7.6875 20.1701L8.93898 20.5914L9.24132 19.6918H9.2438ZM8.71099 20.2841L8.05675 20.0635L8.22031 19.5753L8.87455 19.7959L8.71099 20.2841Z" fill="#7D7D7D"/>
<path d="M16.8637 18.2295L17.7113 19.5206L17.8946 19.3992L18.0111 19.5751L16.2318 20.7424L16.1178 20.5664L16.4053 20.3781L15.9542 19.6891L16.2194 19.5157L16.6704 20.2046L16.9505 20.0212L16.4994 19.3323L16.7572 19.1613L17.2082 19.8477L17.4461 19.6941L16.72 18.5888L15.5106 19.3818L15.3867 19.196L16.8637 18.2295Z" fill="#7D7D7D"/>
<path d="M12.1015 19.9795V20.5148H11.9032V19.9795H11.6083V21.0451H10.6468V20.2025H11.3109V19.9795H10.332V21.2607H11.6083V21.905H11.9032V20.7403H12.1015V21.905H12.3988V19.9795H12.1015Z" fill="#7D7D7D"/>
<path d="M6.86987 19.4242L7.12512 19.0574L5.8786 18.1876L5.99755 18.0166L7.51172 19.0674L7.13504 19.6101L7.29116 19.7166L7.16973 19.8926L6.36184 19.3325L6.18341 19.5902L6.86244 20.0611L6.43867 20.6683L6.17846 20.4873L6.4808 20.0561L5.14258 19.1268L5.26401 18.9509L5.92321 19.4093L6.10411 19.1516L5.36561 18.6386L5.48705 18.4652L6.86987 19.4242Z" fill="#7D7D7D"/>
<path d="M14.4628 19.5304L14.8147 20.6579L13.3477 21.1164L13.4096 21.3196L14.8792 20.8612L15.0353 21.3667L15.3376 21.2725L14.8296 19.6444L15.07 19.57L15.0031 19.3594L14.4628 19.5304Z" fill="#7D7D7D"/>
<path d="M13.0915 20.5216C13.1733 20.7843 13.5078 20.9131 13.8374 20.8115C14.167 20.7099 14.3678 20.4125 14.286 20.1498C14.2488 20.0334 14.1621 19.9417 14.0481 19.8872L14.2488 19.8252L14.1844 19.6195L13.6838 19.7756L13.6268 19.5947L13.3245 19.6889L13.3815 19.8698L12.8809 20.0259L12.9453 20.2316L13.1411 20.1697C13.0766 20.2812 13.0568 20.4051 13.094 20.5216H13.0915ZM13.5971 20.0458C13.7631 19.9937 13.939 20.0829 13.9886 20.2415C14.0382 20.4026 13.944 20.5736 13.778 20.6257C13.6119 20.6777 13.436 20.591 13.3864 20.4299C13.3368 20.2688 13.431 20.0978 13.5971 20.0458Z" fill="#7D7D7D"/>
<path d="M18.6882 7.9819C17.3326 5.15925 14.3836 3.28327 11.0727 3.46418C9.80887 3.53357 8.61934 3.88547 7.58594 4.46784C8.92663 4.38111 9.53131 3.81856 9.88569 3.75413C10.2401 3.68721 10.302 3.96229 11.9128 3.95238C13.5261 3.94247 14.1482 4.54714 14.1482 4.54714C14.1482 4.54714 14.8123 5.37486 16.0043 5.62267C17.1963 5.87049 17.5011 6.95594 17.5557 7.10711C17.6102 7.26075 17.801 8.01908 18.6882 7.97942" fill="#9FD9F6"/>
<path d="M16.7948 13.1714C16.9881 12.9905 17.2211 12.8344 17.4788 12.7377C18.3809 12.4032 18.8616 11.5928 19.1466 10.9113C19.1863 10.8146 19.2234 10.7205 19.2532 10.6337C19.2705 10.5767 19.2879 10.5197 19.3027 10.4702C19.3325 10.3661 19.3523 10.2794 19.3647 10.21C19.3647 10.1951 19.3697 10.1802 19.3721 10.1654C19.2953 9.69202 19.1813 9.23604 19.0277 8.79492C19.0648 9.25339 18.7526 11.0724 17.6126 11.63C16.9534 11.9521 16.6808 12.6014 16.723 13.2433C16.7453 13.2185 16.77 13.1937 16.7973 13.1689L16.7948 13.1714Z" fill="#8EC43E"/>
<path d="M5.64598 13.8994C4.79844 13.0816 4.9397 12.2514 4.9397 12.2514C4.96696 11.8623 5.34116 11.6814 4.67949 10.0954C4.06985 8.62336 4.74144 8.0162 4.74144 8.0162C4.74144 8.0162 5.27177 7.55774 5.05865 6.90598C5.04378 6.85641 5.03139 6.80933 5.019 6.75977C4.24581 7.84025 3.73034 9.12147 3.57422 10.5117C3.59157 10.5811 4.10951 12.8784 5.64846 13.8994H5.64598Z" fill="#DCDDDD"/>
<path d="M8.78135 18.9682C8.78135 18.9682 10.2658 19.2185 11.262 18.2247C10.8928 18.2817 10.5111 18.3065 10.127 18.2966C6.32299 18.2123 3.48052 14.7007 3.56973 10.5176C3.55486 10.6613 3.51521 11.0504 3.51769 11.432C3.5276 15.0799 5.85214 17.905 8.77887 18.9682H8.78135Z" fill="#00A672"/>
<path d="M15.0661 16.3385C14.6423 16.393 14.2606 16.284 14.2606 16.284C13.9038 16.1675 13.599 16.1229 13.3388 16.1254C12.9373 16.512 12.9001 17.0151 12.9001 17.0151C12.8853 17.1117 12.8654 17.2034 12.8406 17.2926C13.485 17.1712 14.0847 16.9581 14.6125 16.6037L14.6324 16.6309C14.0376 17.1563 13.3635 17.5726 12.63 17.8576C11.9361 19.2306 10.3327 19.3222 10.1543 19.3297C10.588 19.4015 11.0415 19.4288 11.4975 19.4288C15.2618 19.4288 17.8937 16.9085 18.8527 14.5195C17.4525 16.5888 15.9359 16.5814 15.0611 16.336L15.0661 16.3385Z" fill="#F39939"/>
<path d="M14.6347 16.6327L14.6148 16.6055C14.087 16.9598 13.4848 17.1705 12.8429 17.2944C12.7909 17.505 12.719 17.6909 12.6348 17.8594C13.3658 17.5744 14.0424 17.1606 14.6371 16.6327H14.6347Z" fill="white"/>
<path d="M11.8074 17.4184C11.3662 17.4506 10.8681 17.4432 10.484 17.4184C8.45933 17.2747 7.48788 15.3442 7.48788 15.3442C7.07403 14.6751 6.52139 14.4743 6.52139 14.4743C6.13727 14.2959 5.85228 14.1001 5.64659 13.8994C4.10764 12.8784 3.5897 10.5811 3.57236 10.5117V10.5167C3.48314 14.7023 6.32562 18.2114 10.1296 18.2957C10.5137 18.3056 10.8929 18.2783 11.2646 18.2238C11.4753 18.0157 11.6636 17.7505 11.8098 17.4184H11.8074Z" fill="#FDD23E"/>
<path d="M14.335 16.0187C13.1058 15.1935 12.0377 15.8328 12.0377 15.8328C9.64875 17.1835 8.63517 15.2083 8.63517 15.2083C8.17423 14.4104 7.15817 14.3732 6.91779 14.3633C6.53863 14.3459 6.03308 14.1601 5.64648 13.9023C5.85217 14.1006 6.13716 14.2989 6.52128 14.4773C6.52128 14.4773 7.07144 14.678 7.48777 15.3471C7.48777 15.3471 7.56955 15.5032 7.72568 15.7312C8.12467 16.3012 9.03416 17.3173 10.4839 17.4214C10.7094 17.4387 10.9721 17.4461 11.2397 17.4437C11.4306 17.4412 11.6214 17.4338 11.8072 17.4214C11.8419 17.3445 11.8742 17.2628 11.9039 17.1785C11.9039 17.1785 12.1641 16.1476 13.3363 16.1278C13.594 16.1228 13.9013 16.1674 14.2582 16.2864C14.2582 16.2864 14.6398 16.3954 15.0636 16.3409C14.6125 16.2145 14.3325 16.0212 14.3325 16.0212L14.335 16.0187Z" fill="#8EC43E"/>
<path d="M12.6323 17.8604C12.1937 18.0313 11.7352 18.1553 11.2619 18.2271C10.2657 19.2209 8.78125 18.9706 8.78125 18.9706C8.83577 18.9929 8.89029 19.0077 8.94233 19.0276C9.33388 19.1564 9.74031 19.2605 10.1542 19.3324C10.3326 19.325 11.936 19.2308 12.6299 17.8604H12.6323Z" fill="#004EA2"/>
<path d="M11.9072 17.1757C11.8775 17.26 11.8428 17.3418 11.8105 17.4186C12.1649 17.3963 12.5119 17.3567 12.8439 17.2922C12.8712 17.2005 12.8861 17.1113 12.9034 17.0147C12.9034 17.0147 12.9406 16.5116 13.3421 16.125C12.1699 16.1448 11.9097 17.1757 11.9097 17.1757H11.9072Z" fill="#004EA2"/>
<path d="M12.8403 17.2949C12.5082 17.3594 12.1613 17.399 11.8069 17.4213C11.6582 17.7534 11.4724 18.0186 11.2617 18.2267C11.7351 18.1549 12.1935 18.0309 12.6322 17.8599C12.7164 17.6914 12.7883 17.5056 12.8403 17.2949Z" fill="#00A672"/>
<path d="M8.45898 10.9208H8.51103C8.6498 10.9208 8.79354 10.9009 8.79354 10.7052V8.72511C8.79354 8.52933 8.6498 8.5095 8.51103 8.5095H8.45898V8.39551C8.61015 8.39551 8.84062 8.41038 9.03392 8.41038C9.23961 8.41038 9.48743 8.39551 9.64355 8.39551V8.5095H9.59647C9.48 8.5095 9.28422 8.51446 9.28422 8.72511V10.7052C9.28422 10.9183 9.48247 10.9208 9.59647 10.9208H9.64355V11.0323C9.48743 11.0323 9.24209 11.0174 9.03392 11.0174C8.83815 11.0174 8.61015 11.0323 8.45898 11.0323V10.9208ZM10.0103 8.39551C10.1764 8.39551 10.3374 8.41038 10.501 8.41038C10.6646 8.41038 10.8405 8.39551 11.014 8.39551V8.5095H10.9644C10.7117 8.5095 10.5035 8.6805 10.3474 8.84654L9.74268 9.49334L10.7265 10.7151C10.8083 10.8266 10.9297 10.9233 11.0759 10.9233V11.0348C10.9496 11.0348 10.8157 11.0273 10.6869 11.0273C10.5654 11.0273 10.444 11.0348 10.3226 11.0348C10.2879 10.9629 10.1788 10.8117 10.1243 10.7523L9.29909 9.73125L10.102 8.84654C10.1516 8.79697 10.2705 8.66811 10.2705 8.58881C10.2705 8.5095 10.107 8.5095 10.0549 8.5095H10.0128V8.39551H10.0103Z" fill="#004EA2"/>
<path d="M13.1086 10.3711L14.0131 8.39355C14.1271 8.39355 14.2659 8.40842 14.4046 8.40842C14.5434 8.40842 14.6772 8.39355 14.8086 8.39355V8.50755H14.7739C14.6599 8.50755 14.4269 8.51499 14.4195 8.68102C14.4146 8.78015 14.4294 8.89167 14.4369 8.97593L14.5831 10.7082C14.5979 10.8965 14.6946 10.9139 14.9226 10.9213V11.0328C14.7442 11.0254 14.5558 11.0179 14.3724 11.0179C14.1618 11.0179 13.9536 11.0254 13.743 11.0328V10.9213C13.9412 10.9089 14.0726 10.9089 14.0726 10.7429C14.0726 10.6983 14.0726 10.6561 14.0726 10.557L13.9635 8.96106H13.9561L12.9797 11.0898H12.888L11.9612 9.00319H11.9537L11.8249 10.6636C11.8249 10.785 11.8546 10.8445 11.9042 10.8767C11.9612 10.9139 12.0405 10.9163 12.147 10.9188H12.1941V11.0303C12.0231 11.0229 11.8472 11.0155 11.6737 11.0155C11.525 11.0155 11.3713 11.0229 11.2227 11.0303V10.9188H11.2747C11.5795 10.9064 11.5894 10.7776 11.6241 10.5074L11.7381 9.45669C11.7679 9.18905 11.7827 8.94123 11.7827 8.79254C11.7827 8.57942 11.6192 8.50755 11.4482 8.50755H11.3986V8.39355C11.5572 8.39355 11.7084 8.40842 11.867 8.40842C11.981 8.40842 12.095 8.39355 12.209 8.39355L13.1061 10.3711H13.1086Z" fill="#004EA2"/>
<path d="M15.2921 8.78458C15.2921 8.51198 15.1509 8.5095 14.9997 8.5095H14.9551V8.39551C15.1186 8.39551 15.3218 8.41038 15.5622 8.41038C15.8026 8.41038 15.981 8.39551 16.1347 8.39551V8.5095H16.0876C15.934 8.5095 15.7803 8.51446 15.7803 8.78458V10.0881C15.7803 10.5689 15.9612 10.9009 16.5089 10.9009C17.012 10.9009 17.2375 10.5837 17.2375 10.0732V8.78458C17.2375 8.51198 17.0913 8.5095 16.9599 8.5095H16.8831V8.39551C17.0368 8.39551 17.1929 8.41038 17.3465 8.41038C17.5002 8.41038 17.6414 8.39551 17.7901 8.39551V8.5095H17.7083C17.6043 8.5095 17.4655 8.51446 17.4655 8.78458V9.99146C17.4655 10.844 17.007 11.0918 16.437 11.0918C15.701 11.0918 15.2921 10.8266 15.2921 10.1501V8.78458Z" fill="#004EA2"/>
<path d="M15.9164 15.3298C15.7801 15.875 15.4307 16.2046 15.0813 16.331C15.0788 16.331 15.0714 16.3335 15.0664 16.3359C15.4604 16.269 16.8011 15.9741 16.7788 14.3484C16.7788 14.3484 16.7739 13.9271 16.7218 13.2432C16.0676 13.9024 16.0527 14.7846 15.9164 15.3298Z" fill="#004EA2"/>
<path d="M19.371 10.1656C19.3611 10.2374 19.3413 10.344 19.3041 10.4704C19.2892 10.5199 19.2719 10.5769 19.2545 10.6339C19.2248 10.7207 19.1876 10.8148 19.148 10.9115C18.863 11.593 18.3822 12.4034 17.4802 12.7379C17.1902 12.847 16.9275 13.0328 16.7218 13.2435C16.7739 13.9274 16.7788 14.3487 16.7788 14.3487C16.8011 15.9472 15.51 16.2594 15.0887 16.3338C15.0838 16.3338 15.0788 16.3338 15.0714 16.3362H15.0664C15.0664 16.3362 15.0813 16.3412 15.0862 16.3412C15.961 16.5816 17.4678 16.5741 18.858 14.5197C19.2545 13.5706 19.4701 12.5273 19.4701 11.4344C19.4701 11.0007 19.4354 10.5769 19.371 10.1631V10.1656Z" fill="#00A672"/>
</g>
<defs>
<clipPath id="clip0_4393_53532">
<rect width="23" height="22.9975" fill="white"/>
</clipPath>
</defs>
</svg>
