<svg width="23" height="23" viewBox="0 0 23 23" fill="none" xmlns="http://www.w3.org/2000/svg">
<g clip-path="url(#clip0_4393_55416)">
<g clip-path="url(#clip1_4393_55416)">
<path d="M1.52921 8.34179C1.54261 8.30158 1.74363 7.70237 1.74363 7.70237L1.48135 7.6143C1.48135 7.6143 1.28225 8.21161 1.26885 8.25372C1.23056 8.24224 0.788324 8.09291 0.75195 8.08142C0.795982 7.93976 1.01231 7.30034 1.01423 7.29268L1.02189 7.27162L0.753864 7.18164L0.365234 8.33987L0.388208 8.34753L2.36199 9.0061L2.79082 7.72343L2.51131 7.63153C2.51131 7.63153 2.21266 8.52557 2.19926 8.56769C2.15906 8.55429 1.5675 8.3571 1.52921 8.3437V8.34179Z" fill="#910023"/>
<path d="M22.4286 14.8775L22.5282 14.5578L20.763 13.1162L20.6673 13.4263C20.6673 13.4263 21.3048 13.9145 21.3278 13.9318C21.3201 13.9605 21.1153 14.6267 21.1038 14.6554C21.0732 14.6554 20.271 14.7052 20.271 14.7052L20.1523 15.09L22.4229 14.8928L22.4286 14.8775ZM21.4044 14.6248C21.4216 14.5712 21.548 14.1634 21.5633 14.1098C21.6092 14.1462 22.0668 14.5118 22.1434 14.575C22.0438 14.5808 21.4618 14.621 21.4044 14.6267V14.6248Z" fill="#910023"/>
<path d="M11.5918 20.8807L11.6473 22.9885L12.0111 22.9789L11.9517 20.8711H11.9307L11.5918 20.8807Z" fill="#910023"/>
<path d="M22.2587 7.2998L20.2754 8.01197L20.3979 8.35466L22.3813 7.63866L22.3736 7.61951L22.2587 7.2998Z" fill="#910023"/>
<path d="M22.9785 11.8411L20.8726 11.7109L20.8496 12.0747L22.9555 12.201L22.9574 12.1781L22.9785 11.8411Z" fill="#910023"/>
<path d="M0.202003 13.4704L2.29065 13.1353L2.23513 12.7773L0.146484 13.1143L0.150313 13.1353L0.202003 13.4704Z" fill="#910023"/>
<path d="M19.243 18.547L18.9424 18.6408L18.6859 18.7193C18.4925 18.7749 18.3585 18.7634 18.2838 18.6849C18.2226 18.6198 18.2053 18.5451 18.2341 18.4551C18.257 18.3843 18.3106 18.3096 18.393 18.235C18.5289 18.1125 18.7031 18.0206 18.8275 18.0091L18.8735 18.0052L18.6189 17.7334L18.6035 17.7411C18.4638 17.8081 18.3317 17.9019 18.2111 18.0167C18.0522 18.1661 17.9488 18.323 17.9009 18.4858C17.8435 18.6772 17.8818 18.8438 18.012 18.9835C18.146 19.1252 18.3298 19.175 18.5557 19.1329C18.5595 19.1329 18.6667 19.0984 18.6667 19.0984L19.1128 18.9586C19.3042 18.905 19.444 18.9223 19.5282 19.0103C19.5914 19.0773 19.6067 19.1635 19.5761 19.2726C19.5493 19.3702 19.4995 19.4526 19.4268 19.5215C19.2621 19.6765 19.0688 19.7799 18.8524 19.8316L18.8046 19.8431L19.0381 20.0958L19.1109 20.0652C19.2774 19.9943 19.4382 19.8871 19.5876 19.7436C19.7752 19.5655 19.8881 19.3645 19.9168 19.1635C19.9417 18.974 19.8862 18.8055 19.7503 18.6619C19.6335 18.5375 19.4612 18.4973 19.2353 18.5413L19.243 18.547Z" fill="#910023"/>
<path d="M19.2203 4.24032L19.1036 3.94742L19.004 3.69854C18.9351 3.51092 18.937 3.375 19.0098 3.29651C19.0691 3.2295 19.1438 3.20844 19.2357 3.2295C19.3084 3.24482 19.3869 3.29268 19.4673 3.37309C19.6013 3.49944 19.7028 3.66791 19.7238 3.78852L19.7315 3.83446L19.9823 3.55879L19.9746 3.54347C19.898 3.40946 19.7947 3.28502 19.6721 3.17398C19.5094 3.02657 19.3448 2.93468 19.1801 2.90022C18.9849 2.8581 18.8202 2.90788 18.692 3.04955C18.5599 3.19313 18.5235 3.37883 18.5828 3.6009C18.5828 3.60473 18.6269 3.70811 18.6269 3.70811L18.7992 4.1446C18.8681 4.33222 18.8604 4.47197 18.7781 4.56386C18.7168 4.63087 18.6326 4.65384 18.5197 4.63278C18.4201 4.61172 18.334 4.56961 18.2612 4.50069C18.0947 4.34753 17.976 4.16375 17.907 3.95124L17.8936 3.9053L17.6562 4.15609L17.6926 4.22692C17.7769 4.38965 17.8956 4.54089 18.0487 4.68064C18.2402 4.85486 18.4488 4.95249 18.6498 4.96589C18.8413 4.97738 19.0059 4.90846 19.1361 4.76296C19.251 4.63661 19.2778 4.46048 19.2184 4.24224L19.2203 4.24032Z" fill="#910023"/>
<path d="M10.1824 22.4375C10.1824 22.4375 9.9144 21.9474 9.8474 21.8249C9.92397 21.8115 10.0561 21.777 10.169 21.6947C10.2915 21.6066 10.3662 21.4899 10.3892 21.3578C10.416 21.2046 10.3796 21.0706 10.2839 20.9557C10.1843 20.837 10.0274 20.7585 9.82251 20.7222L9.1582 20.6054L9.13523 20.6016L8.77148 22.6711L9.13906 22.7362L9.1448 22.7055C9.14863 22.6328 9.16394 22.5332 9.20797 22.2824C9.20797 22.2824 9.43962 20.9672 9.44728 20.9232C9.78422 20.9787 9.91249 21.0457 9.95652 21.0917C10.0197 21.1548 10.0408 21.2333 10.0235 21.331C9.98141 21.5607 9.79188 21.6679 9.43771 21.6583H9.39942L9.96035 22.7208C10.0274 22.8434 10.1441 22.9199 10.3069 22.9487L10.6036 23.0023L10.5481 22.9487C10.4179 22.8223 10.2858 22.6309 10.1824 22.4375Z" fill="#910023"/>
<path d="M1.11041 10.1005C1.02617 10.1752 0.962999 10.2805 0.920881 10.4106C0.834732 10.2249 0.702636 10.1254 0.532251 10.1177C0.386754 10.1101 0.266145 10.1675 0.176167 10.2862C0.0881026 10.4011 0.0383274 10.5657 0.0287552 10.7725L0.00195312 11.3985L2.104 11.4885L2.12123 11.0884C2.12889 10.9122 2.1308 10.7954 2.12697 10.7284C2.11932 10.5925 2.09443 10.4719 2.05231 10.3724C2.00254 10.2575 1.92979 10.1618 1.83215 10.0852C1.73452 10.0067 1.62348 9.96458 1.50287 9.96075C1.35163 9.9531 1.21953 10.001 1.11041 10.1005ZM0.277632 11.0482L0.289118 10.872C0.289118 10.7572 0.308262 10.6672 0.361867 10.6002C0.407813 10.5447 0.469075 10.5159 0.564797 10.5198C0.647117 10.5236 0.746668 10.5466 0.796443 10.6557C0.834732 10.7418 0.83856 10.8663 0.832817 10.9869C0.832817 10.9869 0.828988 11.0596 0.828988 11.0692C0.819416 11.0692 0.287204 11.0462 0.275717 11.0462L0.277632 11.0482ZM1.77472 10.5179C1.83215 10.6117 1.84555 10.7074 1.83215 10.8605C1.83215 10.8605 1.82258 11.0884 1.81875 11.1132C1.80918 11.1132 1.09701 11.0826 1.08744 11.0807C1.08744 11.0711 1.09509 10.8816 1.09509 10.8816C1.09509 10.7361 1.12573 10.6021 1.19656 10.5025C1.27697 10.3896 1.38609 10.3417 1.4933 10.3513C1.62922 10.359 1.72877 10.4413 1.7728 10.5159L1.77472 10.5179Z" fill="#910023"/>
<path d="M12.9101 20.791L12.9139 20.814L12.9676 21.0609C12.9676 21.0609 13.4998 20.9422 13.5419 20.9346C13.5515 20.9786 13.9401 22.7227 13.9401 22.7227L14.2943 22.6423C14.2943 22.6423 13.9056 20.9001 13.896 20.8542C13.9382 20.8465 14.4819 20.724 14.4819 20.724L14.4206 20.4521L12.9082 20.7891L12.9101 20.791Z" fill="#910023"/>
<path d="M20.913 4.71777L20.8939 4.72926L20.6775 4.85944C20.6775 4.85944 20.9571 5.32656 20.98 5.36294C20.9398 5.38591 19.4121 6.31058 19.4121 6.31058L19.5997 6.62263C19.5997 6.62263 21.1294 5.69796 21.1696 5.67499C21.1906 5.71136 21.4778 6.18997 21.4778 6.18997L21.7171 6.04639L20.9149 4.71969L20.913 4.71777Z" fill="#910023"/>
<path d="M22.7872 8.9716H22.7643L22.5135 9.00415C22.5135 9.00415 22.5786 9.54402 22.5824 9.58614C22.5364 9.59188 20.7637 9.80438 20.7637 9.80438L20.8058 10.1643C20.8058 10.1643 22.5786 9.95179 22.6245 9.94605C22.6302 9.98817 22.6953 10.5414 22.6953 10.5414L22.971 10.507L22.7853 8.96777L22.7872 8.9716Z" fill="#910023"/>
<path d="M3.05273 3.51333L3.06805 3.52865L3.24418 3.71243C3.24418 3.71243 3.63472 3.33338 3.66535 3.30466C3.6979 3.33721 4.94037 4.61796 4.94037 4.61796L5.20264 4.36334C5.20264 4.36334 3.96018 3.08259 3.92954 3.05004C3.96018 3.02132 4.36029 2.63269 4.36029 2.63269L4.16693 2.43359L3.05465 3.51333H3.05273Z" fill="#910023"/>
<path d="M1.03831 16.1259L3.00443 15.3563L2.51051 14.0947L2.23674 14.2058L2.59666 15.1247L0.904297 15.7871L1.03831 16.1259Z" fill="#910023"/>
<path d="M5.90124 19.0944C5.90124 19.0944 4.48073 19.9176 4.37736 19.9788C4.41947 19.8659 4.98232 18.3286 4.98232 18.3286L4.66261 18.0625L3.91406 20.1914L4.16868 20.4019L6.14821 19.3011L6.1214 19.2801L5.90124 19.0963V19.0944Z" fill="#910023"/>
<path d="M3.60009 5.41256C3.60009 5.41256 3.04299 5.46616 2.90324 5.47765C2.92047 5.40299 2.94153 5.26706 2.9109 5.13114C2.87835 4.98372 2.80178 4.86886 2.68691 4.7942C2.55864 4.70996 2.4208 4.6889 2.27722 4.73102C2.1279 4.77697 1.9958 4.888 1.87902 5.06413L1.50953 5.62697L1.49805 5.64612L3.25167 6.80244L3.45843 6.48847L3.43162 6.47124C3.36845 6.44061 3.2823 6.38509 3.06788 6.24534C3.06788 6.24534 1.95368 5.51019 1.91731 5.48531C2.10301 5.19623 2.21404 5.10816 2.27531 5.08328C2.35763 5.05073 2.43803 5.06222 2.52035 5.11774C2.71371 5.24792 2.73669 5.46425 2.58736 5.78587L2.57013 5.82225L3.76856 5.73035C3.90832 5.71695 4.02318 5.64229 4.11508 5.50254L4.27972 5.25175L4.2108 5.28046C4.04424 5.34938 3.81643 5.39533 3.59818 5.41256H3.60009Z" fill="#910023"/>
<path d="M9.94966 1.03613L9.64718 0.948071L9.38873 0.873408C9.19729 0.812146 9.092 0.727911 9.07285 0.622617C9.05754 0.534553 9.08434 0.461805 9.159 0.404372C9.21452 0.356511 9.30067 0.323966 9.41362 0.306736C9.59549 0.279934 9.78885 0.300993 9.89989 0.358426L9.942 0.379484L9.87691 0.0119132L9.85968 0.00808431C9.70461 -0.0129745 9.5438 -0.00531672 9.37916 0.0233998C9.16474 0.0616884 8.99244 0.136351 8.86418 0.245474C8.71102 0.373741 8.64976 0.534553 8.68231 0.722168C8.71677 0.913611 8.8412 1.05719 9.05371 1.14717L9.16474 1.17972L9.61464 1.3099C9.80417 1.36925 9.91137 1.46114 9.93243 1.58175C9.94966 1.67173 9.9152 1.75213 9.82905 1.82871C9.75248 1.8938 9.66441 1.93592 9.56678 1.95315C9.3447 1.99144 9.12454 1.97229 8.91587 1.89572L8.86992 1.8804L8.92353 2.21925L9.00202 2.23457C9.18006 2.26712 9.37342 2.2652 9.57826 2.22883C9.83288 2.18288 10.0396 2.0795 10.1717 1.92826C10.2981 1.78085 10.344 1.61046 10.3096 1.41902C10.2809 1.25055 10.1583 1.12228 9.94583 1.03422L9.94966 1.03613Z" fill="#910023"/>
<path d="M6.34744 1.06824L6.04688 1.21948L6.23066 3.49192L6.52165 3.34642C6.52165 3.34642 6.43168 2.55001 6.42785 2.51938C6.45656 2.50598 7.07684 2.19202 7.10556 2.17861C7.12662 2.19967 7.72009 2.74337 7.72009 2.74337L8.08 2.5615L6.36467 1.0625L6.35127 1.07016M6.87391 1.98143C6.82413 2.00632 6.44316 2.19776 6.39147 2.22456C6.38573 2.16713 6.33404 1.58323 6.32447 1.48559C6.39722 1.55259 6.82988 1.94314 6.87391 1.98334V1.98143Z" fill="#910023"/>
<path d="M17.7975 1.69879L17.5755 1.57626L16.9514 2.71344C16.7637 3.05229 16.5838 3.19204 16.1684 2.96231H16.1722C15.8965 2.81107 15.8525 2.55837 16.042 2.21377L16.6699 1.08042L16.3502 0.904297L15.7223 2.03956C15.6457 2.17739 15.5998 2.27503 15.5787 2.33629C15.5404 2.45116 15.5347 2.56411 15.5615 2.67323C15.6093 2.87042 15.7433 3.03315 15.9635 3.15376L16.1186 3.23991C16.3368 3.36051 16.5474 3.38732 16.7408 3.32414C16.8461 3.28968 16.938 3.22268 17.0145 3.13078C17.0566 3.08101 17.1141 2.98911 17.1907 2.85128L17.8167 1.71602L17.7956 1.70453L17.7975 1.69879Z" fill="#910023"/>
<path d="M6.7894 20.8732C6.82769 20.8904 7.40011 21.1604 7.40011 21.1604L7.51689 20.9115C7.51689 20.9115 6.94639 20.6435 6.90618 20.6262C6.92341 20.5879 7.12252 20.1687 7.13975 20.1323C7.27567 20.1917 7.88446 20.4846 7.89212 20.4865L7.91318 20.496L8.03379 20.2414L6.92916 19.7207L6.91959 19.7418L6.0332 21.6256L7.25653 22.2018L7.38096 21.9338C7.38096 21.9338 6.52904 21.5337 6.48884 21.5145C6.50607 21.4762 6.77217 20.9115 6.7894 20.8751V20.8732Z" fill="#910023"/>
<path d="M16.1913 19.6463L15.8965 19.8071L16.1492 22.0719L16.4344 21.9168C16.4344 21.9168 16.3196 21.1224 16.3157 21.0917C16.3425 21.0783 16.9552 20.7452 16.9801 20.7318C17.003 20.7529 17.6118 21.2793 17.6118 21.2793L17.966 21.0879L16.2047 19.6387L16.1894 19.6463M16.7465 20.5442C16.6967 20.5691 16.3234 20.7739 16.2736 20.8007C16.266 20.7433 16.1951 20.1613 16.1836 20.0656C16.2583 20.1288 16.7044 20.5059 16.7484 20.5442H16.7465Z" fill="#910023"/>
<path d="M16.5077 12.6547V5.47754H6.64258V12.6586C6.64258 12.7639 6.63492 15.2871 8.43257 16.7823L8.42874 16.7784C8.48618 16.8282 9.83011 18.0075 11.4995 18.7273L11.532 18.7407H11.622L11.6565 18.7235C13.2646 17.9788 14.7291 16.7938 14.7445 16.7823C16.544 15.2833 16.5096 12.76 16.5077 12.6528V12.6547Z" fill="#910023"/>
<path d="M7.00586 5.84277V5.91169H16.1683V5.84277H7.00586Z" fill="#E1D7C7"/>
<path d="M7.00586 7.80273V7.87357H16.1683V7.80273H7.00586Z" fill="#E1D7C7"/>
<path d="M6.98633 8.97461V9.04544H16.1488V8.97461H6.98633Z" fill="#E1D7C7"/>
<path d="M8.71253 7.50397C8.66467 7.46568 8.61681 7.43122 8.51726 7.32593C8.51726 7.32593 8.09417 6.85689 8.02908 6.78606C8.0444 6.76692 8.52109 6.18493 8.52109 6.18301L8.54981 6.1543H8.3105L7.77637 6.81669V6.1543H7.53516V7.55183H7.77637V6.83583L8.33539 7.45803C8.38134 7.51929 8.46557 7.55183 8.58235 7.55183H8.78145L8.73359 7.51737L8.71445 7.50397H8.71253Z" fill="#E1D7C7"/>
<path d="M9.85948 6.11227C9.64698 6.11227 9.4632 6.1831 9.31579 6.32477C9.16837 6.46644 9.0918 6.64256 9.0918 6.84358C9.0918 7.05608 9.16646 7.23604 9.31387 7.37579C9.45745 7.51363 9.63358 7.58255 9.84034 7.58255C10.0471 7.58255 10.2271 7.51172 10.3726 7.36813C10.518 7.22647 10.5946 7.04651 10.5946 6.83401C10.5946 6.63874 10.5257 6.47026 10.3898 6.33051C10.2481 6.18693 10.0701 6.11227 9.8614 6.11035M9.84991 7.40259C9.70442 7.40259 9.58189 7.34133 9.48617 7.22072C9.39619 7.10969 9.35025 6.97568 9.35025 6.82635C9.35025 6.67702 9.39619 6.54301 9.48617 6.44346C9.57615 6.34391 9.69676 6.29414 9.84608 6.29414C9.99541 6.29414 10.1141 6.35348 10.2079 6.47409C10.2941 6.58322 10.3362 6.71914 10.3362 6.87612C10.3362 7.03311 10.2921 7.15563 10.2041 7.25327C10.1141 7.3509 9.99541 7.40259 9.84991 7.40259Z" fill="#E1D7C7"/>
<path d="M13.2412 6.88362C13.2699 6.88362 13.6911 6.88362 13.6911 6.88362V6.69983C13.6911 6.69983 13.2699 6.69983 13.2412 6.69983V6.338C13.3388 6.33609 13.7906 6.338 13.7964 6.338H13.8117V6.15039H12.998V6.16571V7.55176H13.8978V7.35457C13.8978 7.35457 13.2718 7.35457 13.2431 7.35457V6.88362H13.2412Z" fill="#E1D7C7"/>
<path d="M15.1929 6.15039H14.9689L14.3965 7.55176H14.6128C14.6128 7.55176 14.7985 7.05783 14.8043 7.03677H15.3097C15.3173 7.05592 15.5049 7.55176 15.5049 7.55176H15.773L15.2005 6.15039H15.191M15.2331 6.85107H14.8732C14.8866 6.8147 15.0302 6.45287 15.055 6.39161C15.078 6.45287 15.2197 6.81661 15.2331 6.85107Z" fill="#E1D7C7"/>
<path d="M12.1537 7.23396C12.1537 7.23396 11.922 6.94297 11.8627 6.87022C11.9106 6.85299 11.9948 6.8147 12.0599 6.74769C12.1307 6.67495 12.1652 6.59071 12.1652 6.50073C12.1652 6.39735 12.1269 6.31312 12.0484 6.24994C11.968 6.18485 11.857 6.15039 11.7191 6.15039H11.2539V7.55176H11.5028V7.5307C11.497 7.48475 11.4951 7.412 11.4951 7.24545V6.32652C11.7229 6.3246 11.8148 6.35332 11.8493 6.37821C11.8972 6.41267 11.9201 6.46053 11.9201 6.52945C11.9201 6.68452 11.8053 6.77641 11.5736 6.81087L11.5468 6.8147L12.0369 7.44263C12.0943 7.51538 12.1805 7.55176 12.2896 7.55176H12.4887L12.4466 7.52304C12.347 7.45412 12.2379 7.34883 12.1479 7.23396H12.1537Z" fill="#E1D7C7"/>
<path d="M11.2731 8.46362H11.4875V8.37556C11.4875 8.37556 11.2865 8.37556 11.2731 8.37556V8.20326C11.319 8.20326 11.5353 8.20326 11.5373 8.20326H11.5449V8.11328H11.1582V8.12094V8.78142H11.5851V8.68761C11.5851 8.68761 11.2884 8.68761 11.275 8.68761V8.46362H11.2731Z" fill="#E1D7C7"/>
<path d="M8.08276 8.11523H8.00235V8.52684C8.00235 8.64936 7.97364 8.71637 7.82431 8.71637H7.80708C7.70753 8.71637 7.65584 8.65319 7.65584 8.52684V8.11523H7.53906V8.52684C7.53906 8.57661 7.53906 8.61107 7.54481 8.63213C7.55246 8.67042 7.56778 8.70297 7.59075 8.72785C7.63478 8.77571 7.69605 8.79869 7.77645 8.79869H7.85111C7.92961 8.79869 7.99278 8.7738 8.03681 8.72785C8.05979 8.70105 8.07702 8.66851 8.08276 8.63213C8.08659 8.61107 8.0885 8.57661 8.0885 8.52684V8.11523H8.08085H8.08276Z" fill="#E1D7C7"/>
<path d="M9.08783 8.11523V8.12289C9.08783 8.12289 9.08783 8.56704 9.08783 8.60533C9.06294 8.5747 8.70111 8.11523 8.70111 8.11523H8.60156V8.78337H8.68963C8.68963 8.78337 8.68963 8.32199 8.68963 8.2837C8.71451 8.31434 9.08208 8.78337 9.08208 8.78337H9.17781V8.11523H9.08974H9.08783Z" fill="#E1D7C7"/>
<path d="M9.66992 8.11523V8.78337H9.78479V8.11523H9.77713H9.66992Z" fill="#E1D7C7"/>
<path d="M13.8516 8.78337H13.9664V8.63787V8.26265V8.12289V8.11523H13.9588H13.8516V8.26265V8.63787V8.78337Z" fill="#E1D7C7"/>
<path d="M10.6752 8.11523C10.6752 8.11523 10.4972 8.60342 10.4838 8.63979C10.4704 8.60342 10.2962 8.11523 10.2962 8.11523H10.1641L10.4129 8.78529H10.5182L10.7767 8.11523H10.6752Z" fill="#E1D7C7"/>
<path d="M13.2872 8.44421L13.1972 8.40018L13.1206 8.36189C13.0651 8.33317 13.0364 8.30062 13.0364 8.26616C13.0364 8.23745 13.0498 8.21639 13.0766 8.20299C13.0977 8.1915 13.1264 8.18576 13.1608 8.18767C13.2202 8.18767 13.2795 8.20682 13.3102 8.2317L13.3216 8.24128V8.12258H13.3178C13.27 8.10727 13.2202 8.09961 13.1666 8.09961C13.0977 8.09961 13.0383 8.11301 12.9924 8.13981C12.9368 8.17236 12.91 8.2183 12.91 8.27957C12.91 8.34083 12.9407 8.39252 13.0019 8.43272L13.0345 8.44995L13.1685 8.51504C13.224 8.54567 13.2527 8.57822 13.2527 8.61842C13.2527 8.64714 13.2374 8.67202 13.2068 8.68925C13.18 8.70648 13.1493 8.71414 13.1187 8.71414C13.0479 8.71414 12.979 8.695 12.9177 8.66054L12.9043 8.65288L12.9215 8.76966H12.9254C12.979 8.79072 13.0402 8.80221 13.1053 8.80221C13.1857 8.80221 13.2566 8.78115 13.3082 8.74094C13.3561 8.70266 13.3791 8.65097 13.3791 8.5897C13.3791 8.5361 13.3484 8.48824 13.2872 8.44995V8.44421Z" fill="#E1D7C7"/>
<path d="M14.4043 8.11328V8.20135C14.4043 8.20135 14.5766 8.20135 14.59 8.20135V8.78333H14.7049C14.7049 8.78333 14.7049 8.21666 14.7049 8.20135H14.8963V8.11328H14.4043Z" fill="#E1D7C7"/>
<path d="M15.6521 8.11328C15.6521 8.11328 15.4817 8.37556 15.4703 8.3947C15.4588 8.37747 15.2903 8.11328 15.2903 8.11328H15.1582C15.1582 8.11328 15.3956 8.48851 15.3994 8.49234C15.3994 8.49617 15.3994 8.78333 15.3994 8.78333H15.5143C15.5143 8.78333 15.5143 8.49617 15.5143 8.49234C15.5162 8.48851 15.7651 8.1152 15.7651 8.1152H15.654L15.6521 8.11328Z" fill="#E1D7C7"/>
<path d="M12.4523 8.63209C12.4523 8.63209 12.3412 8.49425 12.3144 8.45788C12.3374 8.45022 12.3776 8.43108 12.4082 8.40045C12.4408 8.36599 12.458 8.32578 12.458 8.28175C12.458 8.23198 12.4389 8.19369 12.4025 8.16114C12.3642 8.13051 12.3106 8.11328 12.2455 8.11328H12.0234V8.78142H12.1421V8.77185C12.1383 8.74887 12.1383 8.71633 12.1383 8.63592V8.19752C12.2474 8.19752 12.2895 8.21092 12.3068 8.2224C12.3297 8.23772 12.3412 8.26261 12.3412 8.29324C12.3412 8.36599 12.2876 8.41193 12.1766 8.42725H12.1632L12.3968 8.72781C12.4255 8.76227 12.4638 8.78142 12.5174 8.78142H12.6131L12.592 8.76802C12.5442 8.73547 12.4925 8.6857 12.4504 8.63018L12.4523 8.63209Z" fill="#E1D7C7"/>
<path d="M16.1642 12.6581V12.6734C16.1642 12.8859 16.1259 15.1871 14.5273 16.5195C14.5139 16.5291 13.1183 17.6567 11.5753 18.3842C9.98437 17.6835 8.67107 16.5329 8.65767 16.5214L8.65384 16.5176C7.00743 15.1469 6.98828 12.7481 6.98828 12.66V9.41504H16.1661V12.6562L16.1642 12.6581Z" fill="#E1D7C7"/>
<path d="M10.8031 17.2362H10.9295C10.9467 17.2362 10.941 17.2209 10.941 17.2209C10.8893 16.995 10.9161 16.817 10.9256 16.7634C10.9256 16.7634 10.9314 16.748 10.9122 16.748H10.7878C10.7706 16.748 10.7763 16.7614 10.7763 16.7614C10.8184 16.9357 10.8031 17.1558 10.7916 17.219C10.7916 17.219 10.784 17.2362 10.8031 17.2362Z" fill="#910023"/>
<path d="M11.2703 16.7344C11.0692 16.7535 11.0826 16.989 11.0826 16.989C11.0941 17.2015 11.3162 17.2417 11.3162 17.2417C11.2549 17.4044 11.0941 17.4542 11.0941 17.4542C11.0558 17.4695 11.0846 17.4791 11.0846 17.4791C11.1324 17.4944 11.2033 17.4676 11.2033 17.4676C11.4981 17.3355 11.5057 17.0273 11.5057 17.0273C11.5115 16.7133 11.2722 16.7363 11.2722 16.7363M11.3411 17.167C11.2454 17.169 11.2224 17.0196 11.2224 17.0196C11.1975 16.855 11.2626 16.8454 11.2626 16.8454C11.3296 16.8244 11.3602 16.9641 11.3602 16.9641C11.3928 17.1249 11.343 17.1651 11.343 17.1651L11.3411 17.167Z" fill="#910023"/>
<path d="M12.0134 16.9238C12.0134 16.9238 11.9866 16.7286 11.8028 16.7305C11.8028 16.7305 11.621 16.7267 11.6133 16.9774C11.6133 16.9774 11.6057 17.2416 11.8354 17.2301C11.8354 17.2301 12.0594 17.2167 12.0115 16.9238M11.8411 17.1459C11.755 17.1785 11.7454 17.0004 11.7454 17.0004C11.7358 16.8319 11.8048 16.8147 11.8048 16.8147C11.8737 16.7975 11.8928 16.9219 11.8928 16.9219C11.9254 17.1134 11.8411 17.1459 11.8411 17.1459Z" fill="#910023"/>
<path d="M12.0679 17.2991C12.2613 17.3374 12.313 17.1995 12.313 17.1995C12.3742 17.0062 12.1311 16.9966 12.1311 16.9966L12.1694 16.7458C12.1694 16.7458 12.4125 16.7573 12.4776 16.7248C12.4776 16.7248 12.4929 16.7152 12.4834 16.7516C12.4834 16.7516 12.47 16.8339 12.3896 16.8416L12.2689 16.8511L12.2575 16.922C12.2575 16.922 12.4642 16.9181 12.4604 17.1421C12.4604 17.1421 12.4527 17.3144 12.2498 17.3584C12.2498 17.3584 12.1541 17.3795 12.045 17.3355C12.045 17.3355 12.0296 17.3278 12.0373 17.3144C12.0373 17.3144 12.045 17.2991 12.0622 17.301L12.0679 17.2991Z" fill="#910023"/>
<path d="M11.3542 12.6125C11.3695 12.5933 11.3887 12.6067 11.4059 12.6125C11.4212 12.6163 11.4212 12.6469 11.4308 12.6622C11.4365 12.6737 11.4652 12.7044 11.4691 12.7139C11.494 12.8269 11.4691 12.9743 11.4193 13.0585C11.404 13.0853 11.381 13.0987 11.3657 13.0987C11.3446 13.1007 11.337 13.07 11.3293 13.0585C11.2968 13.0126 11.3217 12.9054 11.3293 12.8556C11.337 12.7905 11.2872 12.6871 11.3198 12.6393L11.3561 12.6125H11.3542Z" fill="#910023"/>
<path d="M9.8226 12.7314C9.8494 12.7237 9.8896 12.7371 9.90492 12.7314L9.94129 12.7161C9.98341 12.6893 10.0255 12.6969 10.0696 12.7008C10.0906 12.7027 10.1557 12.7314 10.1768 12.7314C10.2112 12.7352 10.372 12.7525 10.5424 12.7773C10.5424 12.7773 10.6343 12.7659 10.6094 12.7391C10.6247 12.7563 10.6075 12.7257 10.5711 12.7123L10.5597 12.6989C10.5597 12.6989 10.529 12.6721 10.5845 12.6548C10.5635 12.6606 10.6209 12.6472 10.6324 12.6338C10.6554 12.6108 10.6228 12.584 10.6228 12.584C10.5424 12.5572 10.4505 12.6089 10.3299 12.5955C10.2706 12.5897 10.1844 12.5572 10.1002 12.5706C10.0083 12.5878 9.87237 12.6395 9.8092 12.6893C9.8092 12.6893 9.77857 12.7429 9.8226 12.7295V12.7314Z" fill="#910023"/>
<path d="M10.8469 12.0667C10.9292 12.0609 10.933 12.1471 10.935 12.1394C10.9254 12.2007 10.7741 12.2064 10.7397 12.2543C10.6344 12.3902 10.6784 12.5223 10.4295 12.5357C10.4295 12.5357 10.3798 12.5242 10.3989 12.5032C10.4142 12.4859 10.4755 12.4706 10.4966 12.4572C10.5291 12.4381 10.5253 12.3864 10.5463 12.3558C10.5502 12.3481 10.5789 12.3385 10.5865 12.3309C10.6554 12.2371 10.6631 12.1413 10.7875 12.0858C10.7933 12.082 10.8373 12.0705 10.8469 12.0686V12.0667Z" fill="#910023"/>
<path d="M11.6447 11.6997C11.6734 11.6843 11.7002 11.6997 11.7193 11.7169C11.7308 11.7245 11.8208 11.9428 11.8246 11.9638C11.8361 12.0423 11.8457 12.2261 11.8246 12.2836C11.794 12.3659 11.7193 12.4291 11.7346 12.5726C11.7442 12.6588 11.7806 12.7239 11.8169 12.7985C11.8208 12.81 11.8591 12.8828 11.861 12.8981C11.8744 12.9766 11.8323 13.0761 11.8265 13.1393C11.8074 13.2963 11.8706 13.4399 11.8457 13.5892C11.8342 13.6543 11.815 13.6868 11.7787 13.727L11.7499 13.75C11.7423 13.7653 11.7289 13.7711 11.7136 13.7826L11.6963 13.7998C11.6695 13.8055 11.6676 13.8228 11.6561 13.8228C11.5891 13.8381 11.5757 13.7979 11.5796 13.8074C11.5106 13.616 11.6255 13.3901 11.5662 13.2063C11.5528 13.1642 11.503 13.1202 11.4953 13.0761C11.4724 12.9096 11.6274 12.8215 11.6255 12.7105C11.6255 12.6301 11.5202 12.5267 11.4972 12.4482C11.4666 12.3563 11.4475 12.1802 11.4877 12.0653C11.4972 12.0366 11.5336 11.9906 11.5432 11.9524C11.5623 11.8815 11.591 11.8222 11.6025 11.7743C11.6064 11.759 11.6159 11.7379 11.6236 11.7245C11.6255 11.7207 11.6408 11.7035 11.6447 11.6997Z" fill="#910023"/>
<path d="M13.6265 11.3031C13.7394 11.2897 13.7892 11.3338 13.7375 11.4295L13.7146 11.4505C13.7146 11.4505 13.6763 11.4927 13.6686 11.4984C13.615 11.5386 13.5633 11.5635 13.5212 11.6133C13.5078 11.6305 13.4963 11.6745 13.4772 11.6879C13.4485 11.709 13.3412 11.7549 13.3144 11.7607C13.1785 11.7817 12.9928 11.6477 12.9737 11.5692C12.9564 11.5022 12.9737 11.4371 13.0024 11.4218C13.0483 11.3989 13.1689 11.4103 13.2111 11.4065C13.3164 11.3989 13.3814 11.4065 13.4619 11.3759C13.5116 11.3606 13.5671 11.3089 13.6246 11.3031H13.6265Z" fill="#910023"/>
<path d="M13.0485 11.2571C13.0485 11.2571 13.1117 11.2839 13.1691 11.2705C13.2093 11.2609 13.284 11.2264 13.3223 11.2188C13.3452 11.213 13.3778 11.2245 13.3988 11.2188C13.4601 11.1996 13.575 11.079 13.4391 11.0656C13.3893 11.0618 13.24 11.1173 13.194 11.1307C13.1481 11.1422 13.1193 11.1499 13.0811 11.1709C13.0715 11.1767 13.0179 11.2207 13.0236 11.213C13.0236 11.213 12.9892 11.2417 13.0485 11.259V11.2571Z" fill="#910023"/>
<path d="M12.0712 11.4873C12.031 11.4815 12.031 11.4145 11.9314 11.4356C11.8606 11.4509 11.8415 11.5543 11.74 11.5504L11.6883 11.5255C11.6443 11.5141 11.6117 11.5313 11.5734 11.5102C11.3935 11.426 11.7132 10.9933 11.8166 10.9991C11.8223 10.9991 11.8759 11.0182 11.8817 11.024C11.9142 11.0527 11.9142 11.1733 11.9448 11.2154C11.9678 11.246 12.0042 11.2441 12.0348 11.2671C12.0674 11.292 12.1286 11.3762 12.1363 11.4203C12.1363 11.4203 12.1535 11.493 12.0731 11.4834L12.0712 11.4873Z" fill="#910023"/>
<path d="M13.554 11.0575C13.554 11.0575 13.554 11.0537 13.5559 11.0518C13.5521 11.0575 13.5521 11.0594 13.554 11.0575Z" fill="#910023"/>
<path d="M11.2945 11.5193C11.2256 11.5576 11.0724 11.6189 11.0418 11.6859C11.0246 11.7203 11.0246 11.7529 11.0092 11.795C11.0073 11.7988 10.9882 11.8065 10.9824 11.8199C10.9078 11.8199 10.8427 11.816 10.7776 11.8333C10.7278 11.8486 10.6551 11.9003 10.5996 11.9098C10.4866 11.929 10.3985 11.8792 10.2932 11.8964C10.2454 11.9041 10.2148 11.9539 10.1765 11.973C10.1439 11.9883 10.1305 11.9883 10.1037 12.0132L10.0807 12.04C10.0769 12.0496 10.0654 12.0764 10.0578 12.0879C10.0348 12.1224 10.0252 12.1587 10.0195 12.1951C10.0137 12.2315 9.99268 12.3195 9.97353 12.354C9.96396 12.3712 9.9161 12.4114 9.90844 12.4267C9.90461 12.4382 9.89312 12.4478 9.90844 12.465C9.89121 12.4478 9.89504 12.4823 9.98693 12.488C10.0884 12.4899 10.3086 12.4229 10.3086 12.4229L10.4139 12.3655C10.4349 12.3502 10.5172 12.287 10.5345 12.2659C10.611 12.1702 10.8178 11.8218 10.9786 11.9137L11.0073 11.9347C11.0456 11.9998 10.9978 12.1836 10.969 12.2257L10.9327 12.2698C10.9039 12.2793 10.8848 12.354 10.8791 12.3885C10.8714 12.444 10.8886 12.4938 10.8925 12.5244C10.9001 12.5914 10.9078 12.6737 10.8676 12.756C10.858 12.7713 10.835 12.8001 10.8427 12.8441C10.8503 12.8939 10.9212 12.9302 10.9307 12.9724C10.9365 12.9934 10.9556 12.9953 10.9307 13.0355C10.9173 13.0566 10.858 13.093 10.8427 13.1121C10.8197 13.1351 10.8389 13.1715 10.8542 13.1868C10.8982 13.227 10.9346 13.2308 10.969 13.2768C11.0188 13.3399 11.015 13.3935 11.1222 13.405C11.2064 13.4127 11.327 13.4184 11.2753 13.3016L11.2505 13.2595C11.2198 13.1849 11.1681 13.1179 11.1605 13.0355C11.1509 12.9302 11.2351 12.8766 11.1988 12.7924C11.1701 12.7273 11.0437 12.735 11.0322 12.6507C11.0265 12.6029 11.0743 12.5033 11.0839 12.4593C11.0935 12.398 11.0782 12.3597 11.0973 12.3061C11.1107 12.2678 11.1662 12.2257 11.172 12.1798C11.1835 12.0955 11.1184 12.0419 11.1471 11.9501C11.1605 11.9022 11.2351 11.9079 11.2619 11.8735C11.2964 11.8256 11.2773 11.7605 11.3002 11.6935C11.3021 11.6859 11.3213 11.6457 11.3251 11.6399C11.3232 11.6361 11.3404 11.5538 11.3404 11.5538C11.329 11.5021 11.2964 11.5231 11.2926 11.5212M10.4847 12.1932C10.4139 12.2085 10.4062 12.0573 10.2339 12.1166C10.2243 12.1204 10.1765 12.1645 10.1726 12.1721C10.1516 12.2181 10.1631 12.3329 10.1401 12.3444C10.1401 12.3444 10.0731 12.3617 10.0865 12.2755C10.1075 12.1415 10.1324 12.1166 10.2013 12.0592C10.2109 12.0515 10.2358 12.0324 10.2492 12.0305C10.3296 12.0113 10.4809 12.0439 10.5077 12.0841C10.5306 12.1185 10.4809 12.1932 10.4847 12.1932Z" fill="#910023"/>
<path d="M15.1657 11.1804C15.1542 11.1172 14.9838 11.1229 14.9149 11.0387C14.89 11.0062 14.9092 10.987 14.9149 10.9621C14.934 10.8894 15.0891 10.9334 15.1255 10.8683C15.1408 10.8415 15.1446 10.7611 15.1351 10.7496C15.0374 10.6309 14.8326 10.6865 14.6871 10.629C14.6162 10.6003 14.5301 10.5429 14.4574 10.5142C14.3655 10.4797 14.2946 10.4739 14.2027 10.4376C14.1817 10.428 14.1415 10.3993 14.1185 10.3897C14.0151 10.3495 13.9347 10.3399 13.8313 10.2959C13.8198 10.2921 13.7873 10.2729 13.7739 10.2691C13.7337 10.2519 13.7203 10.248 13.6763 10.2327C13.5174 10.1753 13.3163 10.1255 13.0885 10.1389C12.9871 10.1447 12.8722 10.1255 12.7171 10.1696C12.6635 10.183 12.5889 10.2289 12.5391 10.2442C12.5027 10.2557 12.474 10.2614 12.4415 10.2748C12.3974 10.2921 12.3572 10.3189 12.296 10.3342C12.1198 10.3744 11.8863 10.3304 11.7082 10.3591C11.5532 10.384 11.4651 10.4816 11.3368 10.5256C11.2985 10.539 11.2813 10.5352 11.2449 10.5486C11.222 10.5563 11.1703 10.5697 11.153 10.5792C11.0994 10.606 11.065 10.6156 11.0056 10.6405C10.975 10.6539 10.9405 10.6807 10.9118 10.696C10.8697 10.7171 10.8659 10.7228 10.8314 10.7496L10.8027 10.7707C10.8027 10.7707 10.7395 10.8262 10.7319 10.8339C10.707 10.8607 10.684 10.8951 10.661 10.9219C10.5959 10.9966 10.4983 11.0923 10.4179 11.1517C10.3892 11.1727 10.3681 11.1689 10.3413 11.1919C10.3107 11.2148 10.2839 11.2397 10.2552 11.2627C10.1882 11.3106 10.1212 11.3431 10.0484 11.3833L10.0006 11.4139C9.93737 11.4541 9.9412 11.4714 9.87611 11.5135C9.83399 11.5422 9.81485 11.5862 9.77656 11.6188C9.75167 11.6379 9.72104 11.7011 9.70381 11.7279C9.62341 11.8447 9.59278 12.0189 9.53534 12.1644C9.51811 12.2065 9.37836 12.4075 9.3439 12.419L9.31901 12.4439C9.29987 12.4611 9.29987 12.465 9.28072 12.4841C9.23861 12.5205 9.1984 12.5415 9.16586 12.5875C9.13906 12.6219 9.12374 12.6641 9.10077 12.7023C9.06439 12.7617 9.00505 12.8287 8.97441 12.8938C8.96101 12.9187 8.95336 12.9417 8.94378 12.9646C8.93995 12.9685 8.93804 12.9723 8.93804 12.9723C8.92081 12.9914 8.89401 13.0737 8.89401 13.0737C8.86529 13.1388 8.79829 13.1771 8.70831 13.3035C8.60493 13.3111 8.24502 13.2192 7.99997 13.1044C8.05549 13.1656 8.32925 13.3494 8.65087 13.3858C8.62982 13.4164 8.6279 13.449 8.58961 13.4585C8.46135 13.4892 8.23736 13.4203 7.93679 13.315C7.95402 13.3571 8.21821 13.5122 8.60876 13.5351C8.55132 13.6021 8.01528 13.5868 7.59602 13.472C7.58071 13.516 8.12058 13.6366 8.41731 13.6328C8.36562 13.6577 8.23353 13.6883 8.14738 13.7189C8.01145 13.7036 7.82384 13.6806 7.78747 13.6672C7.79512 13.694 7.92913 13.7304 8.04017 13.7572C7.93296 13.7955 7.77598 13.8165 7.71472 13.8299C7.75875 13.8414 7.93105 13.8146 8.10909 13.7706C8.26607 13.8012 8.50729 13.8319 8.63939 13.8261C8.60684 13.8434 8.48049 13.9238 8.38285 13.9812C8.13015 14.0042 7.85639 14.0252 7.79895 14.0329C7.8315 14.0386 8.05357 14.0405 8.28905 14.0348C8.14546 14.119 7.99231 14.2071 7.91765 14.2396C8.02677 14.2109 8.22204 14.1363 8.42114 14.031C8.61833 14.0233 8.80403 14.008 8.88252 13.9793C8.85572 14.0367 8.69682 14.3124 8.5475 14.3775C8.61259 14.366 8.81743 14.3086 8.94378 13.9965C8.98782 14.0156 9.0395 14.0271 9.09694 14.031C9.12948 14.0807 9.20797 14.2071 9.35539 14.2148C9.38602 14.3009 9.65978 14.747 10.0446 14.5728C9.93355 14.5115 9.86654 14.4502 9.81102 14.2722C9.98141 14.2607 10.4332 14.5096 10.5691 15.0437C10.4619 15.0073 10.3279 14.9461 10.3145 14.8925C10.2858 15.0169 10.2667 15.1758 10.5404 15.4515C10.5462 15.5108 10.5442 15.5817 10.5577 15.6487C10.6036 15.6965 10.6553 15.731 10.7031 15.7712C10.707 15.8478 10.6955 15.955 10.9003 16.0162C10.9693 16.0737 11.1932 16.1349 11.2258 16.1732C11.2928 16.1943 11.3904 16.1981 11.4632 16.1943C11.4632 16.1943 11.5589 16.177 11.5857 16.1407C11.6336 16.1388 11.7006 16.1368 11.9954 15.821C12.0567 15.7463 11.9954 15.3385 12.0107 15.2409C12.0394 15.1681 12.0528 15.103 12.093 15.0131C12.093 15.0131 12.1332 14.925 12.2079 14.8905C12.2136 14.8886 12.2175 14.8886 12.2232 14.8867C12.3936 14.8484 12.6157 15.0073 12.721 15.0514C12.7592 15.0667 12.7784 15.059 12.809 15.0782C12.8243 15.0858 12.8454 15.1203 12.8607 15.1298C12.899 15.1509 12.9354 15.1452 12.9756 15.1681C13.0368 15.2026 13.1613 15.3826 13.2685 15.3615C13.3029 15.3538 13.3278 15.2773 13.3585 15.2581C13.4082 15.2275 13.4791 15.2294 13.525 15.1949C13.5767 15.1547 13.5557 15.1088 13.5633 15.0533C13.5633 15.0514 13.5863 15.0246 13.5901 15.015C13.615 15.0131 13.6705 15.015 13.705 15.0035C13.7088 15.0035 13.7241 14.9844 13.7299 14.9786C13.7509 14.9556 13.7356 14.9307 13.7299 14.9135C13.7222 14.8925 13.6705 14.8695 13.6533 14.8503C13.615 14.8121 13.5499 14.7565 13.525 14.7106C13.5135 14.6876 13.5289 14.6819 13.5116 14.6589C13.4944 14.6321 13.4504 14.6053 13.437 14.5708C13.3872 14.4617 13.4063 14.2167 13.3853 14.1822C13.3642 14.1497 13.3393 14.1535 13.3202 14.1229C13.2781 14.0559 13.3298 13.8376 13.3336 13.7534C13.3374 13.6845 13.2704 13.7266 13.2704 13.7266C13.2149 13.8644 13.2206 13.9257 13.2072 14.1229C13.2053 14.1401 13.1804 14.2454 13.1804 14.2645C13.1804 14.3334 13.2206 14.4502 13.1919 14.5325C13.1823 14.5593 13.1268 14.611 13.0522 14.6091C13.0234 14.6091 12.8799 14.5727 12.8473 14.5574C12.8416 14.5536 12.8109 14.5191 12.809 14.5191C12.7382 14.4617 12.7229 14.5153 12.721 14.544C12.719 14.5728 12.7305 14.5785 12.7363 14.5957C12.7382 14.613 12.7669 14.6742 12.765 14.678C12.765 14.6838 12.7382 14.7508 12.6061 14.6723C12.5065 14.611 12.407 14.4445 12.4012 14.4158C12.3878 14.3526 12.407 14.3028 12.4204 14.2818C12.4702 14.2358 12.5295 14.299 12.5793 14.3258C12.5927 14.3334 12.6233 14.3545 12.6386 14.3564C12.6674 14.3622 12.7152 14.3507 12.721 14.3507C12.9143 14.3392 13.1153 14.41 13.1498 14.2798C13.1709 14.1975 13.0904 14.1535 13.077 14.1209C13.0598 14.0788 13.0675 14.0769 13.0579 14.031C13.0579 14.0271 13.0426 13.9984 13.0388 13.9946C13.0196 13.9601 13.033 13.9314 13.0139 13.8931C12.9947 13.851 12.9373 13.8261 12.9124 13.7897C12.8799 13.7419 12.8799 13.6825 12.8358 13.6481C12.7707 13.5945 12.5085 13.516 12.4778 13.4547C12.4281 13.359 12.4893 13.181 12.4663 13.0603C12.4529 12.9895 12.43 12.9512 12.3859 12.9072C12.3687 12.89 12.361 12.8651 12.3668 12.8421C12.3783 12.8 12.4012 12.8115 12.4127 12.7157C12.4204 12.6641 12.4089 12.6047 12.4127 12.5492C12.4127 12.5396 12.4376 12.4573 12.4395 12.4477C12.451 12.3041 12.4319 12.1548 12.4012 12.0534C12.3859 12.0036 12.34 11.9595 12.3247 11.9117C12.3113 11.8715 12.3266 11.8485 12.3113 11.8083C12.2979 11.7738 12.2538 11.749 12.2366 11.7202C12.2021 11.6686 12.2117 11.5824 12.1581 11.5537C12.1198 11.5326 12.1045 11.5613 12.1083 11.5537C12.0949 11.5996 12.0988 11.6456 12.1217 11.7068C12.1313 11.7336 12.1792 11.77 12.1868 11.7968C12.1964 11.8447 12.1792 11.9002 12.1868 11.95L12.2117 12.0017C12.2309 12.1299 12.1619 12.3003 12.1103 12.3712C12.0739 12.419 11.9648 12.4784 11.9571 12.5492C11.9514 12.5932 11.9705 12.5951 11.9801 12.6124C11.9973 12.6353 12.049 12.666 12.0567 12.6889C12.0624 12.7062 12.0701 12.7023 12.0758 12.7196L12.0815 12.754C12.0911 12.844 11.9743 12.8632 12.0298 12.9704C12.0452 13.001 12.1007 13.001 12.1313 13.0201C12.1887 13.0565 12.2998 13.1599 12.3094 13.2499C12.3151 13.2882 12.3094 13.4949 12.2979 13.5198C12.2711 13.5772 12.1275 13.5983 12.1447 13.7113C12.1619 13.8338 12.4874 13.7993 12.5774 13.8644C12.6214 13.895 12.6291 13.9601 12.6425 14.0195C12.6501 14.0501 12.6176 14.0616 12.6042 14.0693C12.5697 14.0903 12.5448 14.0731 12.5027 14.0827C12.3974 14.1037 12.229 14.1516 12.1849 14.2358C12.1294 14.3334 12.1945 14.4675 12.1715 14.5804C12.1485 14.6819 12.072 14.8063 12.0164 14.8886C11.982 14.9384 11.9399 14.9882 11.9226 15.0571C11.8844 15.2083 11.9112 15.3864 11.8997 15.5625H11.8978C11.8978 15.5625 11.9054 15.6563 11.8422 15.7233C11.7714 15.7999 11.5283 16.0277 11.356 16.0277C11.2928 16.0258 11.266 16.0047 11.1952 15.9531C11.1511 15.9492 11.0497 15.9243 10.9922 15.865C10.9731 15.8324 10.7836 15.6391 10.9022 15.5836C11.0152 15.5319 11.1971 15.6448 11.2813 15.6984C11.3158 15.6984 11.5627 15.7118 11.8231 15.3672C11.8116 15.1873 11.7963 14.9576 11.7752 14.9154C11.7484 14.8274 11.5991 14.6723 11.5685 14.5785C11.5493 14.5019 11.513 14.3545 11.5359 14.2511C11.5264 14.1363 11.4536 14.1114 11.423 14.0176C11.4153 13.9946 11.4057 13.9754 11.4 13.9678C11.3904 13.9333 11.3847 13.9046 11.3636 13.874C11.3177 13.8051 11.2736 13.7897 11.2315 13.7208C11.1875 13.65 11.1952 13.5619 11.1282 13.516C11.0918 13.4911 11.042 13.4892 10.9999 13.4643C10.9693 13.4471 10.9329 13.403 10.8984 13.3877C10.8582 13.3705 10.8467 13.3647 10.8065 13.3456C10.7874 13.336 10.751 13.3188 10.7338 13.3111C10.7165 13.3016 10.6974 13.3111 10.6821 13.2977C10.6323 13.2556 10.6687 13.2173 10.6438 13.1465C10.6419 13.1369 10.6227 13.1369 10.617 13.1216C10.5959 13.1159 10.5615 13.0833 10.5328 13.1025C10.4945 13.1312 10.483 13.1216 10.46 13.181C10.4466 13.2192 10.4198 13.3322 10.3949 13.3609C10.372 13.3877 10.3432 13.426 10.3069 13.4528C10.2724 13.47 10.2437 13.4681 10.2437 13.4681L10.148 13.4815L10.1001 13.5543C10.1001 13.5543 10.0484 13.5466 10.0216 13.5466C10.014 13.5638 9.95078 13.6136 9.93163 13.6308C9.85122 13.6787 9.80145 13.6442 9.79571 13.627C9.79188 13.6117 9.76699 13.5792 9.82059 13.5466C10.0082 13.493 10.2379 13.2422 10.2571 13.1886C10.2341 13.225 9.84548 13.4394 9.77465 13.4681C9.85122 13.2863 10.326 13.0182 10.3566 12.9857C10.2341 13.0048 9.83017 13.248 9.75933 13.3571C9.69233 13.4662 9.61383 13.4356 9.53726 13.4317C9.46451 13.4298 9.47025 13.5083 9.46834 13.5543C9.46834 13.6002 9.43196 13.6959 9.46259 13.7132C9.51237 13.7553 9.64255 13.583 9.68467 13.6749C9.70764 13.7783 9.43962 13.7744 9.44154 13.8587C9.42813 13.9027 9.69041 13.918 9.73827 13.9659C9.65404 14.0271 9.44919 14.0463 9.38793 14.0501C9.34964 14.0539 9.31518 14.0501 9.29604 14.0501C9.26158 14.0444 9.21755 14.0137 9.17926 13.9486C9.1046 13.8127 9.23095 13.7208 9.23286 13.6864C9.23669 13.65 9.21946 13.6691 9.21755 13.6136C9.21563 13.5562 9.27881 13.5466 9.29604 13.5351C9.31327 13.5217 9.2903 13.5064 9.29604 13.4509C9.32858 13.3265 9.53151 13.1829 9.47982 13.1427C9.43196 13.1178 9.33433 13.2269 9.29604 13.2748C9.15629 13.4547 8.99356 13.3973 8.93804 13.4011C8.81552 13.4088 8.83657 13.2728 8.92272 13.2824C9.02227 13.2614 9.01462 13.1254 9.08545 13.1388C9.10842 13.2384 8.99739 13.2537 9.04908 13.2748C9.11991 13.3035 9.12757 13.2097 9.14863 13.1714C9.16969 13.1312 9.26924 13.0469 9.25775 13.0259C9.22903 13.0163 9.15437 13.068 9.12183 13.0948C9.04142 12.8938 9.24435 12.7387 9.25584 12.6794C9.32284 12.5741 9.69616 12.4382 9.70381 12.2793L9.71339 12.2697C9.71339 12.2697 9.72104 12.2659 9.73253 12.2831C9.73444 12.2927 9.73636 12.3041 9.74019 12.3137C9.74019 12.3271 9.74019 12.3386 9.74019 12.3386V12.3233C9.74402 12.3482 9.74402 12.3692 9.74402 12.3654V12.3903C9.74785 12.4037 9.76699 12.4114 9.7689 12.4133C9.77656 12.4133 9.79762 12.4056 9.81676 12.3826C9.82059 12.3788 9.84165 12.3578 9.84165 12.3539C9.87803 12.3271 9.88377 12.3233 9.90866 12.2888C9.97375 12.195 9.84931 12.0591 9.88377 11.9327C9.90674 11.8485 9.98523 11.749 9.98523 11.749C10.0063 11.7011 9.97375 11.7011 9.97375 11.7011C9.92397 11.6934 9.88951 11.7451 9.89717 11.7375C9.83399 11.7968 9.81485 11.8255 9.7689 11.9059C9.7689 11.9059 9.73062 11.9404 9.71913 11.8925C9.69616 11.8141 9.78613 11.6571 9.81485 11.6379C9.86654 11.6015 9.92014 11.5862 9.98715 11.5594C10.0197 11.546 10.0695 11.4924 10.102 11.4829C10.1173 11.4771 10.1365 11.4733 10.1518 11.4829C10.1518 11.4829 10.1767 11.502 10.1652 11.5594C10.1652 11.5594 10.1403 11.6284 10.148 11.6552C10.1537 11.6724 10.1518 11.6877 10.1901 11.6877C10.282 11.6877 10.4868 11.6686 10.5481 11.636C10.5615 11.6303 10.5749 11.6111 10.5883 11.5996C10.6074 11.5805 10.6017 11.5518 10.5883 11.5479L10.5481 11.5345C10.5787 11.5307 10.3758 11.5288 10.4083 11.5231C10.3719 11.5288 10.4562 11.4293 10.4466 11.3814C10.4428 11.3584 10.4026 11.3488 10.3949 11.3316C10.3911 11.3201 10.37 11.3029 10.3949 11.2933L10.4236 11.2799C10.4332 11.2723 10.4447 11.2608 10.4581 11.255C10.5213 11.2244 10.6381 11.2397 10.6878 11.255C10.6936 11.257 10.7759 11.2799 10.8027 11.3565C10.8104 11.3776 10.8161 11.4024 10.8276 11.4216C10.8659 11.4752 10.9788 11.4924 11.0439 11.4312C11.0573 11.4197 11.0726 11.389 11.0822 11.3718C11.1473 11.2206 11.0516 11.1191 10.9271 11.077C10.8774 11.0598 10.797 11.054 10.7357 11.0387C10.6917 11.0272 10.7185 10.9889 10.7299 10.9794L10.7491 10.9621C10.774 10.9258 10.8486 10.8932 10.8774 10.8856C10.9444 10.8607 11.0114 10.8339 11.1071 10.8741C11.1205 10.8798 11.1588 10.9085 11.1703 10.9104C11.243 10.9277 11.2698 10.9334 11.3368 10.899C11.3636 10.8856 11.3598 10.8817 11.3617 10.8741C11.3847 10.8051 11.3387 10.7611 11.3387 10.7669C11.3253 10.675 11.5876 10.7879 11.6278 10.7305C11.6661 10.6769 11.6412 10.5773 11.691 10.539C11.6967 10.5352 11.7274 10.5142 11.7293 10.5142C11.7771 10.5046 11.8212 10.5237 11.8595 10.539L11.9016 10.5582C11.9839 10.5926 12.0567 10.6099 12.1007 10.6788C12.1294 10.7228 12.1237 10.7879 12.1505 10.8319C12.1619 10.8511 12.1907 10.8645 12.2041 10.8836C12.2155 10.897 12.2385 10.9066 12.2538 10.9162C12.2768 10.9315 12.2864 10.9372 12.317 10.9468C12.34 10.9564 12.3725 10.9908 12.3936 10.9985C12.4721 11.031 12.5659 11.0253 12.6482 11.0234C12.698 11.0215 12.7286 11.0502 12.7746 11.0368C12.7995 11.0291 12.7918 10.9851 12.7765 10.9679C12.7458 10.9296 12.7229 10.9372 12.6731 10.9104C12.654 10.899 12.6291 10.8587 12.6099 10.8473C12.5525 10.809 12.4663 10.8032 12.4319 10.7439C12.4261 10.7343 12.4204 10.7171 12.4185 10.7056L12.4032 10.6788C12.3323 10.5352 12.3094 10.451 12.3783 10.4242C12.4204 10.4089 12.5123 10.4165 12.5582 10.3993C12.5697 10.3935 12.5889 10.3648 12.5965 10.361C12.698 10.3131 12.8894 10.2576 12.9928 10.3093C13.0234 10.3246 12.9928 10.405 13.0043 10.4376C13.012 10.451 13.0349 10.4759 13.0617 10.4835C13.2819 10.5429 13.5001 10.5333 13.6609 10.608C13.7567 10.6539 13.8294 10.7247 13.9175 10.7994C13.9921 10.8664 13.9041 10.9392 13.9807 10.9621C13.929 10.9698 13.883 10.9755 13.8754 10.9468C13.8734 10.9392 13.8562 10.9162 13.8505 10.9085C13.793 10.8549 13.726 10.7688 13.6456 10.742C13.6035 10.7267 13.5863 10.7401 13.5423 10.7286L13.4906 10.7113C13.435 10.696 13.4312 10.7018 13.3776 10.6903C13.3527 10.6865 13.2991 10.6558 13.2742 10.6539C13.1651 10.6386 13.1038 10.6807 13.0062 10.6539C12.9603 10.6405 12.9009 10.5678 12.8645 10.5486C12.8186 10.5218 12.7765 10.5142 12.7248 10.4969C12.7037 10.4912 12.6922 10.4912 12.6769 10.4988C12.6482 10.5161 12.6578 10.541 12.6731 10.562C12.6808 10.5735 12.6884 10.5926 12.698 10.5984C12.7344 10.6252 12.8071 10.6252 12.8263 10.6616C12.8818 10.7726 12.7995 10.8128 12.788 10.8453C12.7822 10.8664 12.7669 10.8817 12.788 10.9085C12.7995 10.9238 12.8263 10.9411 12.8397 10.9468C12.8913 10.9698 12.9315 10.9602 12.9813 10.9851C13.0158 11.0023 13.0522 11.0655 13.0962 11.0751C13.1996 11.0981 13.2225 11.0215 13.2742 11.01C13.3489 10.9947 13.3929 11.033 13.4791 11.01C13.5078 11.0023 13.5231 10.9698 13.5423 10.9602C13.592 10.9353 13.6399 10.9315 13.6705 10.9468C13.6705 10.9468 13.7031 10.9621 13.6571 10.9851C13.6303 11.0004 13.6093 11.0004 13.5805 11.0138C13.5614 11.0234 13.5461 11.0502 13.5423 11.054C13.5327 11.0713 13.5269 11.0981 13.5269 11.1C13.5346 11.1153 13.5461 11.1229 13.5537 11.1268C13.6418 11.1574 13.7337 11.1 13.8103 11.0885C13.8658 11.0789 14.0247 11.0885 14.0706 11.1229C14.0706 11.1229 14.1128 11.1306 14.086 11.2091C14.0687 11.255 13.996 11.2895 13.9692 11.3278C13.9539 11.3508 13.9347 11.3929 13.9194 11.4139C13.8926 11.4484 13.8888 11.4484 13.86 11.479L13.8409 11.5058C13.8294 11.5384 13.6992 11.6494 13.6763 11.6858C13.6609 11.7088 13.6552 11.7317 13.6399 11.7547C13.6169 11.7872 13.5997 11.793 13.5882 11.8141C13.5499 11.8677 13.4772 11.9768 13.4178 12.0055C13.391 12.017 13.3527 12.0055 13.3144 11.9978C13.2895 11.9902 13.2608 11.9442 13.2379 11.9327C13.1479 11.8925 13.0483 11.904 12.9698 11.8562C12.9315 11.8332 12.8952 11.7643 12.8665 11.7279C12.8473 11.703 12.8301 11.6609 12.8033 11.6494C12.7573 11.6341 12.6463 11.6494 12.6252 11.6877C12.5831 11.7681 12.6922 11.9749 12.7018 12.0591C12.7076 12.1318 12.675 12.1644 12.7018 12.2237C12.7133 12.2544 12.7612 12.262 12.7784 12.2888C12.8473 12.398 12.788 12.5511 12.8033 12.6966C12.809 12.7426 12.8358 12.7981 12.8282 12.8632C12.8167 12.9646 12.6865 13.0527 12.7401 13.2078C12.7401 13.2135 12.7669 13.2326 12.7688 13.2346C12.7899 13.2441 12.8205 13.2403 12.8435 13.2346C12.8856 13.2192 12.9277 13.135 12.9718 13.1063C12.9756 13.1006 12.9909 13.0929 12.9986 13.0929C13.0043 13.0852 13.0158 13.0833 13.0215 13.0795C13.0407 13.0661 13.0483 13.0642 13.0598 13.0412C13.077 12.9991 13.0713 12.9589 13.0847 12.8995C13.0981 12.8517 13.1421 12.7636 13.1498 12.7081C13.1651 12.5511 13.0522 12.2467 13.1326 12.195C13.1632 12.1759 13.1938 12.1395 13.2474 12.1299C13.2704 12.1242 13.3489 12.1472 13.3814 12.1472C13.3393 12.2448 13.4925 12.5013 13.481 12.6411C13.4504 12.9857 13.2264 13.1752 13.033 13.359C13.012 13.3801 13.0292 13.4049 13.0464 13.4222C13.0847 13.4585 13.1785 13.4432 13.2264 13.4356C13.2972 13.4203 13.3278 13.3896 13.3795 13.3724C13.3987 13.3647 13.4216 13.3762 13.4427 13.3724C13.4963 13.3571 13.5403 13.2863 13.571 13.2422C13.571 13.2422 13.6341 13.1752 13.6456 13.2633V13.269C13.6456 13.3513 13.6322 13.4432 13.6456 13.5236C13.6609 13.6194 13.8352 13.9084 13.9271 13.9199C14.1396 13.9506 13.9213 13.6825 13.9137 13.6634C13.8792 13.583 13.8447 13.4375 13.8505 13.3322C13.8505 13.2939 13.8849 13.2135 13.8888 13.1771C13.8907 13.1599 13.8811 13.1159 13.8888 13.1025C13.906 13.068 14.0189 13.0565 14.0419 13.0125C14.0477 12.9991 14.0381 12.9761 14.0419 12.9627C14.0477 12.9321 14.0687 12.8746 14.0936 12.8478C14.1089 12.8287 14.13 12.8172 14.1568 12.8478C14.1798 12.8727 14.1855 12.9302 14.2219 12.9704L14.2525 13.0048C14.2908 13.0297 14.3521 12.9972 14.3348 13.001C14.375 12.9895 14.3693 12.9493 14.3865 12.9359C14.3884 12.934 14.4114 12.9244 14.4114 12.9244C14.5033 12.8287 14.2985 12.7426 14.2965 12.6545C14.2965 12.5569 14.3195 12.4439 14.2851 12.3348C14.2774 12.308 14.2276 12.2697 14.22 12.2448C14.2066 12.1835 14.2391 12.1184 14.2448 12.0782C14.2602 11.9959 14.2314 11.8715 14.2583 11.8351C14.2736 11.816 14.2985 11.8007 14.3463 11.8083C14.3789 11.8141 14.3999 11.8677 14.4229 11.8849C14.5071 11.9519 14.6028 11.9902 14.7426 11.9729C14.7598 11.9729 14.7732 11.9461 14.7771 11.9385C14.7866 11.9136 14.7847 11.8811 14.7675 11.8581C14.7177 11.7911 14.5224 11.7394 14.5129 11.7049C14.5052 11.68 14.4746 11.6456 14.509 11.6303C14.4899 11.6418 14.6297 11.6264 14.6794 11.6149C14.7445 11.5996 14.7483 11.5365 14.7943 11.5135C14.8575 11.4809 14.9513 11.5097 14.9876 11.4503C15.0087 11.412 14.9915 11.3565 15.0125 11.322C15.0374 11.2761 15.114 11.2684 15.1523 11.2321C15.1638 11.2225 15.158 11.1823 15.1561 11.1689M10.0293 14.1707C10.0044 14.1439 10.0254 14.0884 10.0714 14.0654C10.1575 14.0252 10.192 14.0712 10.2111 14.0941C10.2935 14.2224 10.4007 14.389 10.4811 14.456C10.4083 14.4636 10.1326 14.3794 10.0293 14.1707ZM10.7319 15.463C10.6878 15.463 10.4026 15.2237 10.4447 15.0743C10.5289 15.1375 10.7185 15.2696 10.7414 15.2658C10.7663 15.2811 10.7874 15.4457 10.7299 15.463M11.0631 15.463C11.0267 15.4304 10.7491 15.1394 10.8199 15.0035C10.8965 15.0801 11.1071 15.2734 11.1818 15.2926C11.2028 15.3481 11.199 15.4993 11.065 15.463M11.0918 14.3507C11.1396 14.4234 11.2066 14.4655 11.2028 14.6206C11.199 14.6589 11.2105 14.6666 11.243 14.6627C11.2717 14.6551 11.2564 14.4751 11.3426 14.4866C11.4172 14.4981 11.3655 14.5996 11.4038 14.7163C11.4172 14.7585 11.5015 14.9059 11.4785 15.1605C11.4766 15.2256 11.3521 15.3117 11.2813 15.2619C11.2239 15.2256 11.2239 15.1835 11.1894 14.9135C11.176 14.7546 10.9827 14.701 10.9003 14.6283C10.818 14.567 10.8659 14.5383 10.8506 14.4292C10.8027 14.2703 10.617 14.1956 10.6802 14.0903C10.6993 14.0635 10.7185 14.0386 10.7759 14.0616C10.7797 14.1401 10.9673 14.2013 11.0937 14.3526M9.77465 13.8491C9.79379 13.8414 9.87611 13.8012 9.89717 13.7936C9.98523 13.7629 10.0312 13.8089 10.1116 13.7649C10.1307 13.7534 10.1518 13.7227 10.169 13.7074C10.1843 13.694 10.2111 13.6959 10.2303 13.6825C10.2743 13.6519 10.3585 13.5581 10.4141 13.5466C10.4466 13.5409 10.4466 13.5485 10.4638 13.5504C10.4638 13.5543 10.4887 13.5447 10.4811 13.5945C10.4658 13.6902 10.6878 13.5945 10.8352 13.6289C10.9348 13.6519 11.0305 13.6864 11.0056 13.7495C11.0095 13.7419 10.9769 13.7687 10.9693 13.7744C10.9003 13.8242 10.8486 13.7706 10.8123 13.7649C10.7529 13.7572 10.7108 13.7763 10.6495 13.7687L10.5768 13.7438C10.5308 13.7419 10.4638 13.7649 10.4275 13.7687C10.3605 13.7744 10.3279 13.7495 10.2667 13.7572C10.2379 13.761 10.1901 13.7993 10.169 13.807C10.1499 13.8146 10.1269 13.8204 10.1078 13.828C10.0944 13.8319 10.0618 13.8491 10.0465 13.8568C9.98523 13.8874 9.94886 13.8874 9.8742 13.9065L9.83017 13.918C9.73636 13.9314 9.74593 13.8663 9.77465 13.8491ZM9.54683 14.2128C9.64829 14.1899 9.67701 14.2148 9.72487 14.3296C9.76125 14.3966 9.83591 14.4866 9.86463 14.5306C9.74784 14.544 9.56406 14.3851 9.51237 14.299C9.47982 14.2569 9.5296 14.2224 9.54683 14.2128ZM8.26607 13.7342C8.39817 13.6979 8.51495 13.6596 8.56473 13.6308C8.58196 13.6308 8.59919 13.6308 8.61833 13.6289C8.62599 13.6634 8.63939 13.6998 8.66045 13.7342C8.66428 13.7419 8.67002 13.7476 8.67385 13.7553C8.59344 13.7553 8.43263 13.7476 8.26799 13.7342M8.54367 13.9659C8.61259 13.9257 8.67768 13.8816 8.73894 13.8357C8.76766 13.8682 8.79829 13.8989 8.83275 13.9295C8.79637 13.9391 8.68533 13.9525 8.54558 13.9678L8.54367 13.9659Z" fill="#910023"/>
<path d="M9.77458 13.8496C9.76692 13.8534 9.76884 13.8534 9.77458 13.8496V13.8496Z" fill="#910023"/>
<path d="M14.7811 0.275448L14.4289 0.181641L14.0173 1.58109C13.9809 1.7017 13.9522 1.77062 13.9235 1.80508C13.868 1.87209 13.7799 1.91229 13.6401 1.87974C13.5463 1.85677 13.4027 1.76488 13.4027 1.76488L13.3262 2.02524C13.464 2.11905 13.5923 2.15542 13.6535 2.17074C13.8354 2.21477 14.023 2.18797 14.1743 2.0597C14.2355 2.00801 14.3044 1.89697 14.3619 1.69979L14.7811 0.275448Z" fill="#910023"/>
</g>
</g>
<defs>
<clipPath id="clip0_4393_55416">
<rect width="23" height="23" fill="white"/>
</clipPath>
<clipPath id="clip1_4393_55416">
<rect width="22.9789" height="23" fill="white"/>
</clipPath>
</defs>
</svg>
