<svg width="23" height="23" viewBox="0 0 23 23" fill="none" xmlns="http://www.w3.org/2000/svg">
<g clip-path="url(#clip0_4956_56231)">
<mask id="mask0_4956_56231" style="mask-type:luminance" maskUnits="userSpaceOnUse" x="0" y="0" width="23" height="23">
<path d="M0 11.4996C0 17.8494 5.14997 22.9992 11.5016 22.9992C17.8533 22.9992 23 17.8494 23 11.4996C23 5.14979 17.8517 0 11.5016 0C5.15159 0 0 5.14897 0 11.4996Z" fill="white"/>
</mask>
<g mask="url(#mask0_4956_56231)">
<path d="M23 0H0V22.9992H23V0Z" fill="url(#paint0_radial_4956_56231)"/>
</g>
<path d="M11.5 23C8.42803 23 5.54025 21.804 3.36813 19.632C1.19601 17.4591 0 14.5715 0 11.4996C0 8.42773 1.19601 5.54006 3.36813 3.36801C5.54025 1.19596 8.42803 0 11.5 0C14.572 0 17.4597 1.19596 19.6319 3.36801C21.804 5.54006 23 8.42773 23 11.4996C23 14.5715 21.8032 17.4591 19.6319 19.6312C17.4597 21.8032 14.572 22.9992 11.5 22.9992V23ZM11.5 0.353759C5.35444 0.353759 0.353771 5.35425 0.353771 11.4996C0.353771 17.6449 5.35363 22.6454 11.5 22.6454C17.6464 22.6454 22.6462 17.6457 22.6462 11.4996C22.6462 5.35344 17.6464 0.353759 11.5 0.353759Z" fill="url(#paint1_linear_4956_56231)"/>
<path d="M11.5006 22.4163C8.58441 22.4163 5.84349 21.2811 3.78172 19.2186C1.71995 17.1569 0.583984 14.4153 0.583984 11.4992C0.583984 8.58315 1.71914 5.84233 3.78172 3.78063C5.84349 1.71812 8.58441 0.583008 11.5006 0.583008C14.4168 0.583008 17.1585 1.71893 19.2203 3.78063C21.282 5.84233 22.418 8.58396 22.418 11.4992C22.418 14.4145 21.282 17.1569 19.2203 19.2186C17.1585 21.2803 14.4168 22.4163 11.5006 22.4163ZM11.5006 0.715262C5.55463 0.715262 0.716243 5.55348 0.716243 11.4992C0.716243 17.445 5.55382 22.2832 11.5006 22.2832C17.4474 22.2832 22.2849 17.4458 22.2849 11.4992C22.2849 5.55267 17.4474 0.715262 11.5006 0.715262Z" fill="#77222D"/>
<path d="M19.2203 3.78063C17.1585 1.71893 14.4168 0.583008 11.5006 0.583008C8.58441 0.583008 5.84349 1.71893 3.78172 3.78063C1.71914 5.84233 0.583984 8.58315 0.583984 11.4992C0.583984 14.4153 1.71914 17.1569 3.78172 19.2186C5.84349 21.2803 8.58522 22.4163 11.5006 22.4163C14.416 22.4163 17.1585 21.2811 19.2203 19.2186C21.282 17.1569 22.418 14.4153 22.418 11.4992C22.418 8.58315 21.282 5.84233 19.2203 3.78063ZM11.5006 19.4052C7.14092 19.4052 3.59429 15.8587 3.59429 11.4992C3.59429 7.13971 7.14092 3.5932 11.5006 3.5932C15.8602 3.5932 19.4069 7.13971 19.4069 11.4992C19.4069 15.8587 15.8602 19.4052 11.5006 19.4052Z" fill="url(#paint2_radial_4956_56231)"/>
<path d="M11.5006 22.4163C8.58441 22.4163 5.84349 21.2811 3.78172 19.2186C1.71995 17.1569 0.583984 14.4153 0.583984 11.4992C0.583984 8.58315 1.71914 5.84233 3.78172 3.78063C5.84349 1.71812 8.58441 0.583008 11.5006 0.583008C14.4168 0.583008 17.1585 1.71893 19.2203 3.78063C21.282 5.84233 22.418 8.58396 22.418 11.4992C22.418 14.4145 21.282 17.1569 19.2203 19.2186C17.1585 21.2803 14.4168 22.4163 11.5006 22.4163ZM11.5006 0.715262C5.55463 0.715262 0.716243 5.55348 0.716243 11.4992C0.716243 17.445 5.55382 22.2832 11.5006 22.2832C17.4474 22.2832 22.2849 17.4458 22.2849 11.4992C22.2849 5.55267 17.4474 0.715262 11.5006 0.715262Z" fill="url(#paint3_linear_4956_56231)"/>
<path d="M11.5001 19.4058C7.14039 19.4058 3.59375 15.8593 3.59375 11.4998C3.59375 7.14026 7.14039 3.59375 11.5001 3.59375C15.8597 3.59375 19.4064 7.14026 19.4064 11.4998C19.4064 15.8593 15.8597 19.4058 11.5001 19.4058ZM11.5001 3.726C7.21341 3.726 3.72601 7.21329 3.72601 11.4998C3.72601 15.7863 7.21341 19.2735 11.5001 19.2735C15.7867 19.2735 19.2741 15.7863 19.2741 11.4998C19.2741 7.21329 15.7867 3.726 11.5001 3.726Z" fill="url(#paint4_linear_4956_56231)"/>
<path d="M11.4996 19.0581C7.33144 19.0581 3.94141 15.6674 3.94141 11.4993C3.94141 7.33132 7.33225 3.94141 11.4996 3.94141C15.667 3.94141 19.0586 7.33213 19.0586 11.4993C19.0586 15.6666 15.6678 19.0581 11.4996 19.0581ZM11.4996 4.1621C7.45396 4.1621 4.16211 7.45384 4.16211 11.4993C4.16211 15.5449 7.45396 18.8366 11.4996 18.8366C15.5453 18.8366 18.8371 15.5449 18.8371 11.4993C18.8371 7.45384 15.5453 4.1621 11.4996 4.1621Z" fill="url(#paint5_linear_4956_56231)"/>
<path d="M6.46381 3.68618L6.23094 3.41032L6.44596 3.22857L6.31045 3.06873L6.09543 3.25048L5.86256 2.97461L5.61914 3.1807L6.2212 3.89146L6.46381 3.68618Z" fill="url(#paint6_radial_4956_56231)"/>
<path d="M6.69534 4.04356C6.57525 3.90075 6.3651 3.8829 6.15251 3.96648L6.0235 3.81313L5.94155 3.88209L5.58453 3.45937C5.53747 3.40338 5.45227 3.39608 5.39628 3.44314L4.61328 4.10441L4.7496 4.26506L5.40359 3.71252L5.71111 4.0752L5.44091 4.30401L5.23725 4.06303L5.02385 4.24315L5.22832 4.48332L4.98977 4.68454L5.12041 4.83951L5.6892 4.35837C5.57642 4.55148 5.56181 4.75756 5.68027 4.89793C5.84986 5.09834 6.20038 5.05858 6.48113 4.82166C6.76269 4.58393 6.86411 4.24072 6.69453 4.04112L6.69534 4.04356ZM6.35293 4.67156C6.21499 4.7884 6.03161 4.79976 5.93506 4.68373C5.83769 4.5677 5.87907 4.39001 6.01782 4.27399C6.15576 4.15715 6.33751 4.14579 6.43569 4.261C6.53306 4.37784 6.49168 4.55472 6.35374 4.67156H6.35293Z" fill="url(#paint7_radial_4956_56231)"/>
<path d="M4.4006 5.97568C4.4006 6.10794 4.2935 6.21585 4.16124 6.21585C4.02898 6.21585 3.92188 6.10875 3.92188 5.97568C3.92188 5.84262 4.02898 5.73633 4.16124 5.73633C4.2935 5.73633 4.4006 5.84343 4.4006 5.97568Z" fill="url(#paint8_radial_4956_56231)"/>
<path d="M19.2522 5.97568C19.2522 6.10794 19.1451 6.21585 19.0128 6.21585C18.8805 6.21585 18.7734 6.10875 18.7734 5.97568C18.7734 5.84262 18.8805 5.73633 19.0128 5.73633C19.1451 5.73633 19.2522 5.84343 19.2522 5.97568Z" fill="url(#paint9_radial_4956_56231)"/>
<path d="M11.7678 20.6962C11.7678 20.8285 11.6607 20.9356 11.5284 20.9356C11.3962 20.9356 11.2891 20.8285 11.2891 20.6962C11.2891 20.564 11.3962 20.4561 11.5284 20.4561C11.6607 20.4561 11.7678 20.5632 11.7678 20.6962Z" fill="url(#paint10_radial_4956_56231)"/>
<path d="M3.96069 7.63378L3.90714 7.75224L3.16065 7.40984L3.15903 7.4139C3.20771 7.46583 3.25153 7.51532 3.29129 7.56157L3.74405 8.10762L3.6767 8.25367L3.17201 7.62161L2.11719 7.56887L2.18129 7.42931L3.07951 7.47719L2.94969 7.31248L2.3598 7.04148L2.41416 6.92383L3.9615 7.63378H3.96069Z" fill="url(#paint11_radial_4956_56231)"/>
<path d="M1.97365 7.94824L3.6711 8.2379L3.62809 8.36853L2.77207 8.21275C2.5611 8.17462 2.35095 8.13405 2.18948 8.09997V8.10321C2.34446 8.17137 2.52621 8.26468 2.72419 8.36529L3.49827 8.76124L3.45608 8.89025L2.5968 8.73609C2.39557 8.69957 2.19597 8.66225 2.02071 8.62087V8.6233C2.1911 8.70201 2.36231 8.78801 2.5538 8.88376L3.32788 9.27808L3.28649 9.40385L1.75781 8.60221L1.80001 8.4732L2.682 8.6298C2.89783 8.66793 3.06336 8.70039 3.23051 8.74095V8.73771C3.07634 8.66793 2.92461 8.59491 2.72744 8.49024L1.92983 8.07725L1.97202 7.94824H1.97365Z" fill="url(#paint12_radial_4956_56231)"/>
<path d="M2.13235 9.29682L1.63091 9.08261L1.6585 8.95117L3.25209 9.64165L3.21882 9.795L1.48242 9.77309L1.51163 9.63759L2.05771 9.6449L2.13235 9.29682ZM2.23135 9.65544L2.73117 9.66193C2.84477 9.66356 2.94619 9.67005 3.04599 9.67573V9.67248C2.95106 9.63678 2.85288 9.59865 2.75551 9.55808L2.29464 9.35848L2.23135 9.65463V9.65544Z" fill="url(#paint13_radial_4956_56231)"/>
<path d="M1.44442 10.0301L3.13701 10.2143L3.12159 10.3547L2.23067 10.5818C2.02457 10.6346 1.83957 10.6727 1.66107 10.7011L1.6635 10.7044C1.89069 10.7173 2.09679 10.736 2.36049 10.7652L3.06885 10.8423L3.05587 10.964L1.36328 10.7798L1.37789 10.6492L2.27124 10.4252C2.4676 10.3766 2.66802 10.3303 2.85707 10.3003L2.85464 10.2954C2.64043 10.28 2.43677 10.2605 2.15521 10.2297L1.43225 10.151L1.44523 10.0293L1.44442 10.0301Z" fill="url(#paint14_radial_4956_56231)"/>
<path d="M1.41753 11.8869C1.38183 11.8292 1.32422 11.714 1.32422 11.5785C1.32422 11.426 1.38994 11.301 1.54898 11.2029C1.69016 11.1169 1.91817 11.0625 2.18349 11.0625C2.69143 11.0641 3.06224 11.2702 3.06224 11.6069C3.06224 11.723 3.01924 11.8138 2.98354 11.8576L2.80422 11.826C2.84479 11.7725 2.87724 11.7051 2.87724 11.6045C2.87724 11.3603 2.62003 11.2004 2.19242 11.2004C1.76481 11.2004 1.50516 11.3538 1.50516 11.5875C1.50516 11.6727 1.52545 11.7303 1.5506 11.7603H2.05854V11.5558H2.23542V11.8869H1.41672H1.41753Z" fill="url(#paint15_radial_4956_56231)"/>
<path d="M1.37695 12.3855L3.03465 11.9189L3.05169 12.0553L2.21189 12.2816C2.00498 12.3376 1.79807 12.3912 1.63741 12.4293V12.4325C1.80781 12.4277 2.01228 12.4325 2.23461 12.4398L3.10362 12.465L3.12066 12.5997L2.27842 12.8293C2.08125 12.8829 1.88408 12.9348 1.70801 12.9721V12.9754C1.89625 12.9721 2.08774 12.977 2.30276 12.981L3.17177 13.0054L3.188 13.1368L1.46296 13.0679L1.44592 12.9332L2.31007 12.6962C2.52184 12.6378 2.68412 12.5964 2.85289 12.5616V12.5583C2.6825 12.5616 2.51454 12.5607 2.2914 12.551L1.39399 12.5202L1.37695 12.3855Z" fill="url(#paint16_radial_4956_56231)"/>
<path d="M2.62142 14.2209C2.05425 14.3686 1.70048 14.2436 1.63638 13.9953C1.56984 13.7389 1.86032 13.4704 2.35934 13.3406C2.88269 13.2043 3.2746 13.3073 3.34275 13.5669C3.41172 13.8323 3.11151 14.0935 2.62223 14.2209H2.62142ZM2.39828 13.4736C2.04613 13.5653 1.75971 13.76 1.81164 13.9572C1.86357 14.156 2.20355 14.1876 2.5776 14.0903C2.90541 14.0051 3.22104 13.8152 3.16668 13.6059C3.11232 13.3982 2.76017 13.3787 2.39909 13.4736H2.39828Z" fill="url(#paint17_radial_4956_56231)"/>
<path d="M2.98879 15.2042C2.44191 15.4136 2.07597 15.3284 1.98428 15.089C1.88934 14.8415 2.14818 14.5421 2.63015 14.358C3.13485 14.1649 3.53649 14.2233 3.63224 14.474C3.73042 14.7304 3.46103 15.0233 2.98879 15.2042ZM2.68452 14.4862C2.34454 14.6168 2.08165 14.8415 2.15467 15.0322C2.22851 15.2245 2.5693 15.218 2.93037 15.0801C3.24682 14.9592 3.53974 14.7352 3.46265 14.5332C3.38557 14.3328 3.03342 14.3523 2.68452 14.4862Z" fill="url(#paint18_radial_4956_56231)"/>
<path d="M2.28987 15.7578L3.8145 15L3.87779 15.1266L3.24976 15.7984C3.10452 15.9542 2.96983 16.0856 2.83432 16.2057L2.83757 16.2073C3.03555 16.0954 3.21974 16.0004 3.45748 15.8828L4.09524 15.5655L4.14961 15.6751L2.62498 16.4329L2.56656 16.3152L3.19864 15.645C3.33739 15.4982 3.48182 15.3513 3.62382 15.2239L3.61976 15.2207C3.4307 15.3229 3.24895 15.417 2.99498 15.542L2.34343 15.8657L2.28906 15.7562L2.28987 15.7578Z" fill="url(#paint19_radial_4956_56231)"/>
<path d="M4.63371 16.4019L3.83286 17.0153C3.53021 17.2473 3.46205 17.425 3.544 17.5313C3.63488 17.6498 3.82474 17.6238 4.12415 17.395L4.92419 16.7824L5.00371 16.8871L4.21584 17.4907C3.8004 17.8088 3.53102 17.8104 3.39876 17.6376C3.2738 17.4745 3.3379 17.2303 3.7574 16.909L4.55338 16.2988L4.6329 16.4027L4.63371 16.4019Z" fill="url(#paint20_radial_4956_56231)"/>
<path d="M3.86719 18.1765L5.10701 17.0098L5.20438 17.1128L4.79787 17.938C4.70374 18.1286 4.61287 18.2942 4.51874 18.4483H4.5228C4.68021 18.2844 4.8287 18.14 5.02181 17.9583L5.54111 17.4698L5.62468 17.5591L4.38486 18.7258L4.2948 18.6301L4.70537 17.8057C4.79543 17.6248 4.89118 17.443 4.99098 17.2791L4.98611 17.2775C4.83519 17.4301 4.68751 17.5729 4.48142 17.7668L3.95157 18.2658L3.868 18.1765H3.86719Z" fill="url(#paint21_radial_4956_56231)"/>
<path d="M5.85617 17.7673L4.70236 19.0193L4.60742 18.9316L5.76124 17.6797L5.85617 17.7673Z" fill="url(#paint22_radial_4956_56231)"/>
<path d="M5.09456 19.3574L5.91002 17.8271L6.01875 17.9156L5.61305 18.6661C5.50188 18.8722 5.40046 19.0564 5.29579 19.2284L5.29822 19.23C5.44428 19.0945 5.61142 18.9541 5.78588 18.8089L6.44717 18.2612L6.55508 18.348L5.20491 19.4467L5.09375 19.3566L5.09456 19.3574Z" fill="url(#paint23_radial_4956_56231)"/>
<path d="M6.52866 19.417L6.20491 19.1987L5.8625 19.7083L6.22357 19.9517L6.12052 20.1042L5.65234 19.7886L6.60331 18.376L7.05282 18.6786L6.94978 18.8312L6.60736 18.6007L6.30715 19.047L6.63089 19.2652L6.52947 19.4162L6.52866 19.417Z" fill="url(#paint24_radial_4956_56231)"/>
<path d="M7.15954 18.7705C7.2277 18.7819 7.31614 18.8168 7.39403 18.8598C7.51574 18.9271 7.57254 19.0074 7.58147 19.1218C7.58958 19.2127 7.55794 19.3279 7.49384 19.4431C7.38511 19.6403 7.23987 19.7304 7.11816 19.732L7.11491 19.7385C7.16116 19.8164 7.1425 19.9446 7.07759 20.1109C6.99158 20.3348 6.93235 20.4898 6.91936 20.5572L6.80171 20.4922C6.81064 20.4419 6.86175 20.3032 6.93965 20.1036C7.02728 19.8837 7.02322 19.7807 6.92342 19.7166L6.81632 19.6573L6.4593 20.3032L6.3457 20.2407L7.15873 18.7705H7.15954ZM6.89746 19.5121L7.01349 19.5762C7.1352 19.6427 7.27395 19.573 7.36807 19.4026C7.47436 19.2103 7.43866 19.0813 7.3202 19.0123C7.26583 18.9815 7.22121 18.9693 7.19849 18.9677L6.89746 19.5113V19.5121Z" fill="url(#paint25_radial_4956_56231)"/>
<path d="M7.23048 20.4096C7.25888 20.4883 7.31649 20.5694 7.39763 20.6051C7.51934 20.6587 7.63781 20.5816 7.70759 20.425C7.77169 20.2789 7.75952 20.1743 7.67188 20.0388C7.56153 19.8822 7.52746 19.7094 7.62482 19.4903C7.73274 19.2477 7.93072 19.1203 8.10923 19.199C8.20335 19.2412 8.25528 19.3077 8.27881 19.3653L8.17333 19.5146C8.15548 19.4741 8.11491 19.4002 8.03134 19.3637C7.90638 19.3085 7.80171 19.414 7.75465 19.5203C7.69055 19.6655 7.71408 19.7621 7.80414 19.9016C7.91449 20.072 7.93721 20.2343 7.83579 20.4623C7.72949 20.7025 7.53232 20.8639 7.31568 20.7682C7.22724 20.7292 7.15015 20.6424 7.125 20.5654L7.22967 20.4104L7.23048 20.4096Z" fill="url(#paint26_radial_4956_56231)"/>
<path d="M8.59294 19.4206L8.00062 21.0166L7.87891 20.9719L8.47123 19.376L8.59294 19.4206Z" fill="url(#paint27_radial_4956_56231)"/>
<path d="M8.89681 19.7219L8.60471 19.6334L8.65907 19.4541L9.37067 19.6699L9.31631 19.8484L9.02258 19.76L8.5828 21.2107L8.45703 21.1726L8.89681 19.7219Z" fill="url(#paint28_radial_4956_56231)"/>
<path d="M9.33789 21.4025L9.48557 20.6958L9.37603 19.6719L9.52046 19.7019L9.56265 20.1912C9.57401 20.325 9.58212 20.4321 9.58861 20.5555H9.59186C9.64217 20.4532 9.69896 20.351 9.76307 20.2333L10.0008 19.8033L10.1452 19.8341L9.61539 20.7218L9.4669 21.4309L9.3387 21.4042L9.33789 21.4025Z" fill="url(#paint29_radial_4956_56231)"/>
<path d="M13.9799 20.5777C13.9167 20.3489 13.8412 20.073 13.7933 19.8661H13.7885C13.7998 20.0698 13.8055 20.2864 13.8071 20.5274L13.8152 21.3745L13.713 21.3988L13.3552 20.6507C13.2497 20.4292 13.1572 20.2256 13.0801 20.0365H13.0769C13.1231 20.2442 13.1815 20.5234 13.2318 20.7741L13.3738 21.4905L13.2456 21.5213L12.9219 19.8483L13.0939 19.8069L13.4639 20.5655C13.5564 20.7587 13.6351 20.9323 13.7024 21.0978H13.7073C13.6935 20.9234 13.687 20.7327 13.6838 20.5128L13.6781 19.6674L13.8501 19.626L14.3118 21.2658L14.1804 21.2974L13.9799 20.5769V20.5777Z" fill="url(#paint30_radial_4956_56231)"/>
<path d="M14.5986 20.6013L14.6781 21.1424L14.5434 21.1919L14.3008 19.4678L14.4582 19.4102L15.3872 20.8828L15.2485 20.9339L14.9564 20.4706L14.5994 20.6013H14.5986ZM14.8696 20.3189L14.6026 19.8945C14.5418 19.7988 14.4923 19.7087 14.4436 19.6219H14.4403C14.4598 19.7233 14.4793 19.8264 14.4955 19.9311L14.5661 20.4301L14.8696 20.3189Z" fill="url(#paint31_radial_4956_56231)"/>
<path d="M15.7143 20.7296L15.41 20.074L14.6895 19.3284L14.8323 19.2618L15.1674 19.6245C15.2591 19.7243 15.3321 19.8046 15.4124 19.898L15.4157 19.8963C15.3962 19.7827 15.3824 19.6667 15.3654 19.532L15.3077 19.0411L15.4505 18.9746L15.5366 20.0124L15.8425 20.6696L15.7151 20.7288L15.7143 20.7296Z" fill="url(#paint32_radial_4956_56231)"/>
<path d="M16.4103 18.6986L16.4078 18.7003L16.347 18.9291L16.2285 18.8049L16.3064 18.5185L16.4046 18.4512L17.3328 19.8054L17.2209 19.8816L16.4095 18.6986H16.4103Z" fill="url(#paint33_radial_4956_56231)"/>
<path d="M17.681 19.3561C17.7078 19.3407 17.7313 19.3147 17.763 19.2782C17.8141 19.2125 17.8392 19.1232 17.8279 19.0177C17.8173 18.8985 17.7638 18.7557 17.6542 18.5942L17.651 18.5974C17.6778 18.72 17.6559 18.823 17.5763 18.8887C17.4327 19.0072 17.199 18.9123 17.0205 18.6964C16.8225 18.4571 16.7576 18.1569 16.9199 18.0214C17.083 17.8859 17.3573 18.0133 17.625 18.3362C17.8555 18.6145 17.9577 18.8579 17.9788 19.0429C17.9966 19.1889 17.9601 19.3171 17.8879 19.4039C17.8571 19.4461 17.8238 19.477 17.797 19.4956L17.681 19.3553V19.3561ZM17.1171 18.5958C17.2477 18.7532 17.3994 18.8149 17.4928 18.7378C17.565 18.6778 17.5747 18.5747 17.5398 18.4757C17.5333 18.4555 17.5212 18.4327 17.4984 18.4051C17.3191 18.1893 17.1325 18.0652 17.0197 18.1585C16.928 18.2348 16.9694 18.4165 17.1179 18.5958H17.1171Z" fill="url(#paint34_radial_4956_56231)"/>
<path d="M18.2604 18.7321C18.3172 18.7321 18.4267 18.7127 18.4957 18.6437C18.6231 18.5171 18.5346 18.3492 18.4373 18.2534C18.2742 18.0912 18.1119 18.1139 18.0161 18.2088L17.961 18.2632L17.8433 18.1447L17.8985 18.0895C17.9707 18.0181 18.0032 17.868 17.866 17.7293C17.7735 17.636 17.6543 17.5905 17.5626 17.6814C17.5042 17.7398 17.4879 17.8372 17.492 17.9045L17.3524 17.8153C17.3459 17.7325 17.376 17.6133 17.4555 17.5346C17.5999 17.3909 17.8003 17.4623 17.9415 17.6043C18.0608 17.7244 18.1168 17.8713 18.0786 18.0133L18.0827 18.0165C18.2011 17.9557 18.3813 17.9897 18.5436 18.1528C18.7286 18.3394 18.7991 18.5934 18.6231 18.7678C18.5403 18.8498 18.4275 18.8798 18.3537 18.879L18.2596 18.7305L18.2604 18.7321Z" fill="url(#paint35_radial_4956_56231)"/>
<path d="M19.3338 17.9555L18.9922 17.6675L18.6823 18.035L18.5703 17.9409L18.0664 16.9121L18.1638 16.7969L18.9443 17.4549L19.0377 17.3437L19.1707 17.4557L19.0774 17.5669L19.419 17.8549L19.3338 17.9555ZM18.8583 17.5547L18.4397 17.2009C18.3739 17.1458 18.309 17.089 18.2457 17.0314L18.2425 17.0346C18.2952 17.1206 18.3325 17.1863 18.3723 17.2569L18.636 17.8103L18.6401 17.8135L18.8583 17.5547Z" fill="url(#paint36_radial_4956_56231)"/>
<path d="M19.848 16.8103C19.9324 16.7892 20.0225 16.7389 20.0728 16.6578C20.1475 16.5369 20.0898 16.4047 19.943 16.3138C19.8075 16.2302 19.7004 16.2318 19.5486 16.3089C19.3726 16.4063 19.1932 16.4225 18.9896 16.2967C18.764 16.158 18.6683 15.9365 18.7778 15.7588C18.8354 15.6655 18.9117 15.6192 18.9734 15.6006L19.1056 15.7272C19.061 15.741 18.9807 15.7758 18.9295 15.8586C18.8525 15.9836 18.9417 16.1036 19.0407 16.1645C19.1762 16.2481 19.2768 16.2335 19.4326 16.1548C19.6225 16.059 19.7888 16.0533 20.0022 16.184C20.2262 16.3219 20.3552 16.5458 20.2221 16.7608C20.1677 16.8485 20.0679 16.9199 19.986 16.9369L19.8472 16.8103H19.848Z" fill="url(#paint37_radial_4956_56231)"/>
<path d="M20.0784 15.3327L19.8861 15.7027L20.4306 15.9858L20.6448 15.5737L20.8079 15.6588L20.5296 16.1944L19.0195 15.4081L19.2873 14.8945L19.4512 14.9797L19.2475 15.3708L19.7246 15.6191L19.9169 15.2491L20.0784 15.3335V15.3327Z" fill="url(#paint38_radial_4956_56231)"/>
<path d="M20.4444 14.2101C20.9961 14.4065 21.2136 14.7221 21.1219 14.9801C21.027 15.2471 20.6318 15.3176 20.1458 15.1448C19.6362 14.9639 19.375 14.6458 19.4707 14.3756C19.5689 14.0998 19.9681 14.0405 20.4436 14.2101H20.4444ZM20.1912 15.0036C20.5336 15.1254 20.8825 15.118 20.9556 14.9128C21.0294 14.7059 20.7689 14.4811 20.4046 14.3513C20.0857 14.2377 19.7149 14.2239 19.6378 14.4414C19.5608 14.6572 19.8391 14.8779 20.1912 15.0028V15.0036Z" fill="url(#paint39_radial_4956_56231)"/>
<path d="M19.7125 13.6882L20.6951 13.913C21.0667 13.9973 21.2485 13.93 21.2801 13.7904C21.3158 13.6355 21.1754 13.4983 20.8087 13.4148L19.8261 13.19L19.8577 13.0537L20.8257 13.2752C21.3353 13.3912 21.5057 13.6087 21.4546 13.8351C21.4059 14.0493 21.1738 14.1661 20.6594 14.0485L19.6816 13.8253L19.7133 13.689L19.7125 13.6882Z" fill="url(#paint40_radial_4956_56231)"/>
<path d="M19.8828 12.8708L19.9015 12.7336L21.4058 12.9397L21.4683 12.4854L21.6509 12.5105L21.5697 13.102L19.8828 12.8708Z" fill="url(#paint41_radial_4956_56231)"/>
<path d="M20.0071 11.5468L20.0047 11.4081L20.8258 11.3943V11.3894C20.7593 11.3618 20.6984 11.3342 20.6425 11.3083L19.9974 10.9918L19.9941 10.8198L20.7236 11.1955L21.6965 10.7598L21.6997 10.9237L20.8696 11.2912L21.0579 11.3894L21.707 11.378L21.7094 11.5168L20.0071 11.546V11.5468Z" fill="url(#paint42_radial_4956_56231)"/>
<path d="M20.7088 9.7635C21.2906 9.6921 21.6265 9.87628 21.6597 10.1481C21.6946 10.4288 21.3725 10.669 20.8613 10.7323C20.325 10.7988 19.9477 10.6317 19.9128 10.3477C19.8771 10.0572 20.2073 9.82516 20.7088 9.7635ZM20.8378 10.5862C21.1989 10.5416 21.5072 10.3785 21.4804 10.1619C21.4536 9.94444 21.1202 9.86005 20.7364 9.90711C20.4004 9.94849 20.0629 10.1027 20.0913 10.3315C20.1197 10.5586 20.467 10.6317 20.8378 10.5854V10.5862Z" fill="url(#paint43_radial_4956_56231)"/>
<path d="M19.873 9.7533C19.8348 9.69082 19.7983 9.59589 19.7764 9.5034C19.7415 9.35978 19.761 9.25674 19.8389 9.16911C19.8998 9.09852 20.0061 9.04173 20.1334 9.01089C20.3517 8.95815 20.518 9.01008 20.6032 9.10582L20.6105 9.1042C20.6357 9.01333 20.742 8.93625 20.9075 8.87053C21.1298 8.78046 21.2832 8.71718 21.3424 8.68066L21.3765 8.81941C21.3343 8.84781 21.1972 8.90541 20.9976 8.98412C20.7769 9.07012 20.7047 9.14639 20.7266 9.27053L20.7574 9.39711L21.4747 9.22428L21.5071 9.35897L19.8738 9.75249L19.873 9.7533ZM20.5943 9.43686L20.5611 9.29893C20.5262 9.15532 20.3793 9.09365 20.1902 9.1399C19.9768 9.19183 19.9071 9.3111 19.9387 9.45471C19.9541 9.51962 19.9752 9.56344 19.9906 9.58291L20.5943 9.43686Z" fill="url(#paint44_radial_4956_56231)"/>
<path d="M20.3257 8.16574L20.4629 8.55926L21.043 8.35723L20.8905 7.91827L21.0649 7.85742L21.2629 8.42701L19.6547 8.98604L19.4648 8.43918L19.6393 8.37832L19.7837 8.79456L20.2917 8.61849L20.1545 8.22497L20.3266 8.16493L20.3257 8.16574Z" fill="url(#paint45_radial_4956_56231)"/>
<path d="M20.3959 7.6566L20.9282 7.53002L20.9891 7.65984L19.2932 8.05417L19.2227 7.90325L20.6077 6.84766L20.671 6.98153L20.2353 7.31338L20.3968 7.65741L20.3959 7.6566ZM20.0909 7.41156L19.6916 7.71501C19.6016 7.78398 19.5164 7.84159 19.4344 7.89757L19.4361 7.90082C19.5342 7.87242 19.6357 7.84402 19.7379 7.81887L20.2288 7.70447L20.0917 7.41237L20.0909 7.41156Z" fill="url(#paint46_radial_4956_56231)"/>
<path d="M10.8844 2.47732H11.7429V3.10289H12.0277V2.0051H12.1924V3.10289H12.4788V1.31543H12.1924V1.79576H12.0277V1.31543H11.7429V2.26474H11.0199V1.58318H11.5952V1.37223H10.7051V2.30449C10.7051 2.38969 10.7554 2.47732 10.8844 2.47732Z" fill="url(#paint47_radial_4956_56231)"/>
<path d="M17.8588 5.27838L17.7582 5.19075L18.4982 4.34206C18.546 4.28688 18.5403 4.20169 18.4852 4.15382L17.3654 3.17773L17.2275 3.33595L18.1979 4.18303L17.5091 4.9733L17.2794 4.77289L17.7298 4.25605L17.4961 4.05158L17.0449 4.56843L16.868 4.41346L17.3184 3.89661L17.0847 3.69296L16.6344 4.20899L16.4177 4.01994L16.2773 4.18059L17.72 5.43903L17.8596 5.27838H17.8588Z" fill="url(#paint48_radial_4956_56231)"/>
<path d="M14.4453 2.74528C14.7544 2.88078 15.0692 2.81262 15.1658 2.59355C15.2072 2.50187 15.1982 2.3972 15.1544 2.29659L15.3224 2.37042L15.4052 2.18381L14.9443 1.97934L15.0027 1.84547L14.7325 1.727L14.6741 1.86007L14.214 1.65723L14.1313 1.84465L14.2976 1.91849C14.1945 1.95338 14.1126 2.01829 14.0712 2.1116C13.9747 2.33067 14.1321 2.60653 14.4461 2.74528H14.4453ZM14.3641 2.23898C14.4185 2.11728 14.5759 2.06697 14.7163 2.12782C14.8526 2.18868 14.9216 2.33878 14.868 2.46049C14.8128 2.58381 14.6579 2.63087 14.5215 2.57164C14.382 2.50998 14.3106 2.36312 14.3641 2.23898Z" fill="url(#paint49_radial_4956_56231)"/>
<path d="M15.7056 2.71135L15.876 2.32594L15.5798 2.19531L15.1466 3.1787L13.9335 2.644L13.8516 2.82981L15.0646 3.3645L14.8593 3.83185L15.1539 3.96167L15.4159 3.36856L15.6212 2.90283L15.8557 3.0075L15.9417 2.81439L15.7056 2.71135Z" fill="url(#paint50_radial_4956_56231)"/>
<path d="M8.48978 2.67004C8.82083 2.53048 9.00746 2.26354 8.89873 2.00552C8.78919 1.74507 8.46869 1.69152 8.13682 1.83027C7.80577 1.96982 7.61915 2.23595 7.72869 2.49722C7.83741 2.75523 8.15711 2.80878 8.48978 2.67004ZM8.21228 2.0112C8.36564 1.94711 8.52792 1.98767 8.58877 2.13453C8.64963 2.27977 8.56524 2.42419 8.4127 2.48829C8.26015 2.55239 8.09706 2.51182 8.03702 2.3674C7.97616 2.22054 8.06055 2.07611 8.21309 2.01202L8.21228 2.0112Z" fill="url(#paint51_radial_4956_56231)"/>
<path d="M8.54465 3.25071L8.83756 3.12739L8.71829 2.84503L9.4591 2.53427L9.38039 2.34766L7.62695 3.08438L7.70566 3.271L8.42537 2.96836L8.54465 3.25071Z" fill="url(#paint52_radial_4956_56231)"/>
<path d="M9.54973 3.03125L8.31803 3.5481L8.16467 3.18541L7.875 3.30631L8.0389 3.6982C8.07217 3.77609 8.15088 3.83776 8.27096 3.78664L9.62682 3.21705L9.54892 3.03287L9.54973 3.03125Z" fill="url(#paint53_radial_4956_56231)"/>
<path d="M7.84096 6.79178L7.06445 6.24573L7.16669 6.16946L7.5448 6.44127C7.64785 6.51673 7.74035 6.58488 7.82393 6.65385L7.82636 6.65223C7.78417 6.55324 7.74522 6.44046 7.70789 6.32119L7.56346 5.8725L7.66327 5.79785L7.94401 6.71389L7.84096 6.79097V6.79178Z" fill="#77222D"/>
<path d="M8.46928 5.8804L8.16744 6.05647L8.33053 6.33802L8.66889 6.14166L8.71757 6.22605L8.27779 6.48163L7.82422 5.7019L8.24696 5.45605L8.29645 5.54044L7.97595 5.72705L8.11957 5.97371L8.42141 5.79845L8.47009 5.88203L8.46928 5.8804Z" fill="#77222D"/>
<path d="M8.48633 5.34779C8.53582 5.31371 8.61128 5.27233 8.6835 5.24069C8.79791 5.19039 8.88229 5.17984 8.95207 5.20337C9.00887 5.22203 9.05756 5.26747 9.08677 5.33238C9.13383 5.44029 9.09731 5.54252 9.02429 5.60987L9.02591 5.61311C9.09813 5.60743 9.16223 5.65043 9.21902 5.72751C9.29611 5.83056 9.35128 5.90196 9.38212 5.9263L9.27177 5.97498C9.24742 5.95632 9.19793 5.89466 9.13139 5.80135C9.05674 5.69831 8.99264 5.67559 8.89446 5.71372L8.79385 5.75835L8.95126 6.11616L8.84497 6.16322L8.48714 5.3486L8.48633 5.34779ZM8.75815 5.67721L8.86769 5.62934C8.98209 5.57903 9.02672 5.48491 8.98534 5.39079C8.93828 5.2845 8.84091 5.27152 8.72813 5.32102C8.67701 5.34374 8.64293 5.36321 8.6267 5.37619L8.75896 5.67802L8.75815 5.67721Z" fill="#77222D"/>
<path d="M9.32682 4.99805L9.6173 5.85242L9.50533 5.89056L9.21484 5.03618L9.32601 4.99805H9.32682Z" fill="#77222D"/>
<path d="M9.776 4.96866L9.50986 5.0352L9.48633 4.93945L10.1338 4.77637L10.1582 4.87292L9.89122 4.94026L10.0868 5.71918L9.97236 5.74758L9.77681 4.96866H9.776Z" fill="#77222D"/>
<path d="M10.4513 5.35288L10.3986 5.6466L10.2793 5.66364L10.4578 4.7265L10.5957 4.70703L11.0274 5.55816L10.9041 5.5752L10.7686 5.30745L10.4513 5.35288ZM10.7329 5.22063L10.6079 4.9756C10.5795 4.92042 10.5592 4.86931 10.5381 4.819H10.5357C10.5292 4.87336 10.5243 4.93016 10.513 4.98777L10.4627 5.25877L10.7329 5.22063Z" fill="#77222D"/>
<path d="M11.1319 5.41638C11.1847 5.44883 11.2601 5.47236 11.3404 5.47074C11.4597 5.46831 11.5279 5.40421 11.5263 5.31333C11.5246 5.23057 11.4759 5.18189 11.3526 5.13889C11.2041 5.08858 11.1116 5.01231 11.1092 4.88655C11.1068 4.74618 11.2204 4.63908 11.3956 4.63584C11.4865 4.63421 11.5555 4.65369 11.5944 4.67641L11.5644 4.77215C11.536 4.75511 11.4751 4.73158 11.3932 4.7332C11.2699 4.73564 11.2244 4.81028 11.226 4.87195C11.2277 4.95633 11.2836 4.9969 11.4094 5.04233C11.5628 5.09832 11.6415 5.16972 11.6439 5.30279C11.6472 5.44153 11.5474 5.56567 11.3348 5.57054C11.2479 5.57216 11.1522 5.54782 11.1035 5.51618L11.1319 5.418V5.41638Z" fill="#77222D"/>
<path d="M12.1866 5.28343C12.168 5.44165 12.2589 5.52035 12.3773 5.53577C12.4609 5.54713 12.5144 5.53901 12.5599 5.52603L12.5696 5.61285C12.5258 5.62583 12.4512 5.63881 12.3489 5.62502C12.1509 5.59824 12.0503 5.45138 12.0763 5.25746C12.1023 5.06355 12.2369 4.92805 12.4236 4.9532C12.6345 4.9816 12.6646 5.17146 12.6483 5.28992C12.6451 5.31345 12.6418 5.3313 12.637 5.34347L12.1858 5.28343H12.1866ZM12.5404 5.24529C12.5518 5.17227 12.5355 5.053 12.4041 5.03515C12.2848 5.01892 12.2199 5.11953 12.1996 5.19986L12.5404 5.24529Z" fill="#77222D"/>
<path d="M13.0575 4.92464L13.0226 5.07637L13.1873 5.11369L13.167 5.20132L13.0023 5.16399L12.9244 5.50477C12.9066 5.58347 12.9179 5.63297 12.9828 5.64676C13.0137 5.65406 13.0331 5.65569 13.051 5.65406L13.0364 5.7425C13.0129 5.74494 12.9755 5.74494 12.9309 5.7352C12.8774 5.72303 12.8384 5.69463 12.8181 5.65812C12.7946 5.61593 12.7946 5.5567 12.8116 5.48205L12.8903 5.13722L12.793 5.1145L12.8124 5.02687L12.9098 5.04959L12.9374 4.93194L13.0575 4.92383V4.92464Z" fill="#77222D"/>
<path d="M13.7622 5.02034L13.8726 5.06172L13.5878 5.81387L13.9489 5.95018L13.914 6.04186L13.4434 5.86336L13.7631 5.01953L13.7622 5.02034Z" fill="#77222D"/>
<path d="M14.4971 5.32113L14.2513 5.79659C14.1596 5.9751 14.2002 6.09193 14.3065 6.14792C14.4241 6.20877 14.5426 6.16983 14.6335 5.99376L14.8793 5.51829L14.984 5.57265L14.7422 6.04163C14.6148 6.28747 14.4339 6.32074 14.2602 6.23068C14.0963 6.1463 14.02 5.98889 14.1491 5.7398L14.3925 5.26758L14.4971 5.32194V5.32113Z" fill="#77222D"/>
<path d="M15.1328 6.75775L15.1514 6.52732C15.1571 6.43806 15.162 6.38127 15.1693 6.32285L15.1668 6.32123C15.1157 6.34962 15.0662 6.37397 14.9835 6.4121L14.7814 6.51271L14.6719 6.43563L15.1595 6.21981L15.1977 5.70215L15.3088 5.77923L15.2853 6.02102C15.2788 6.08836 15.2739 6.14029 15.2658 6.19384L15.2691 6.19628C15.321 6.16707 15.3632 6.14597 15.4232 6.11757L15.6439 6.01453L15.7551 6.09161L15.2788 6.29445L15.2439 6.83564L15.1328 6.75856V6.75775Z" fill="#77222D"/>
<path d="M16.7317 8.23226C16.7058 8.14057 16.6287 8.07566 16.5354 8.06593C16.5208 8.0643 16.5062 8.0643 16.4907 8.06755L15.5471 8.25498V7.65131C15.5471 7.49959 15.4213 7.37707 15.2663 7.37707H12.2885C12.2406 7.37707 12.2025 7.33975 12.2017 7.2935V7.29188L12.2 6.54866C12.2 6.39774 12.0743 6.27441 11.9193 6.27441H11.0933C10.9383 6.27441 10.8125 6.39693 10.8125 6.54866L10.8109 7.29188V7.2935C10.8109 7.33975 10.772 7.37707 10.7241 7.37707H7.74626C7.59128 7.37707 7.46551 7.5004 7.46551 7.65131V8.25498L6.52104 8.06755C6.50644 8.0643 6.49183 8.0643 6.47723 8.06593C6.3831 8.07647 6.30602 8.14138 6.28087 8.23226C6.276 8.2493 6.27438 8.26796 6.276 8.28581L7.11093 15.7269L7.13933 15.9963C7.1799 16.2202 7.32027 16.4206 7.52962 16.5472L11.198 18.5221C11.297 18.5619 11.4008 18.5813 11.5055 18.5813C11.6102 18.5813 11.714 18.561 11.8138 18.5221L15.4814 16.5472C15.6907 16.4206 15.8311 16.2202 15.8724 15.9963L15.9008 15.7269L16.7358 8.28581C16.7374 8.26796 16.7358 8.2493 16.7309 8.23226H16.7317ZM7.75113 7.78844C7.75113 7.78844 7.75843 7.65537 7.89556 7.65537H10.8109C10.97 7.65537 11.099 7.52961 11.099 7.37464V6.73284C11.099 6.63548 11.1777 6.55596 11.2767 6.5519H11.7367C11.8365 6.55596 11.9152 6.63548 11.9152 6.73284V7.37464C11.9152 7.52961 12.0443 7.65537 12.2025 7.65537H15.1235C15.2501 7.65537 15.2615 7.78844 15.2615 7.78844V8.31177L14.8136 8.40102V8.20061C14.8136 8.04483 14.6837 7.91745 14.5239 7.91745H13.3693C13.2094 7.91745 13.0796 8.04483 13.0796 8.20061V8.74505L12.6561 8.82862V8.20061C12.6561 8.05294 12.5327 7.93205 12.381 7.93205H10.634C10.4823 7.93205 10.359 8.05213 10.359 8.20061V8.82862L9.93542 8.74505V8.20061C9.93542 8.04483 9.8056 7.91745 9.64575 7.91745H8.49031C8.33047 7.91745 8.20064 8.04483 8.20064 8.20061V8.40102L7.75275 8.31177V7.78844H7.75113ZM14.5085 8.21522V8.46188L13.3814 8.685V8.21441H14.5085V8.21522ZM12.3802 8.20061V8.88379L11.7319 9.01199C11.7018 9.0201 11.555 9.03957 11.5055 9.03957C11.456 9.03957 11.3091 9.0201 11.2791 9.01199L10.6308 8.88379V8.20143C10.6308 8.20143 10.6308 8.20143 10.6316 8.20143H12.3794L12.3802 8.20061ZM9.62952 8.21522V8.68582L8.5033 8.46269V8.21603H9.62952V8.21522ZM15.5828 15.9468C15.5609 16.0807 15.4619 16.2251 15.3248 16.303L11.6889 18.26C11.6386 18.2795 11.5745 18.29 11.5063 18.29C11.4381 18.29 11.374 18.2795 11.3237 18.26L7.68703 16.303C7.55071 16.2259 7.45172 16.0807 7.429 15.9468L6.5965 8.51299C6.59569 8.46107 6.61598 8.38074 6.76771 8.41238L11.2134 9.29353C11.2442 9.30246 11.2767 9.30814 11.3091 9.31301C11.374 9.32356 11.4398 9.32842 11.5055 9.32842C11.5712 9.32842 11.6377 9.32356 11.7018 9.31301C11.7343 9.30814 11.7668 9.30246 11.7976 9.29353L16.2433 8.41238C16.3942 8.38074 16.4153 8.46107 16.4137 8.51299L15.582 15.9468H15.5828Z" fill="url(#paint54_linear_4956_56231)"/>
<path d="M13.5061 10.6839C14.0213 10.6839 14.4157 10.4348 14.4157 10.0299C14.4157 9.62507 14.0213 9.37598 13.5061 9.37598C12.9909 9.37598 12.5957 9.62426 12.5957 10.0299C12.5957 10.4356 12.9892 10.6839 13.5061 10.6839ZM13.5061 9.6559C13.743 9.6559 13.9353 9.80032 13.9353 10.0275C13.9353 10.2547 13.743 10.3999 13.5061 10.3999C13.2692 10.3999 13.0761 10.2563 13.0761 10.0275C13.0761 9.7987 13.2684 9.6559 13.5061 9.6559Z" fill="url(#paint55_linear_4956_56231)"/>
<path d="M12.1387 10.7529V11.0442H13.2592V11.4832H13.7136V11.0442H14.8731V10.7529H12.1387Z" fill="url(#paint56_linear_4956_56231)"/>
<path d="M12.791 11.1846H12.3398V11.7923C12.3398 11.9132 12.4104 12.0389 12.5979 12.0389H14.7132V11.7509H12.791V11.1846Z" fill="url(#paint57_linear_4956_56231)"/>
<path d="M10.0942 10.8629V10.5789H9.94082V9.78133C9.94082 9.67666 9.854 9.58984 9.74933 9.58984H8.27339V9.89249H9.50997V10.5781H9.00203V10.1221H8.59471V10.5781H8.14844V10.8686H9.21219C8.91197 10.9757 8.70749 11.1899 8.70749 11.4511C8.70749 11.8276 9.1351 12.1092 9.66332 12.1092C10.1915 12.1092 10.6192 11.8284 10.6192 11.4511C10.6192 11.1842 10.4058 10.9676 10.095 10.8621L10.0942 10.8629ZM9.6617 11.8236C9.40205 11.8236 9.1919 11.6678 9.1919 11.4503C9.1919 11.2329 9.40205 11.0763 9.6617 11.0763C9.92135 11.0763 10.1307 11.2329 10.1307 11.4503C10.1307 11.6678 9.92054 11.8236 9.6617 11.8236Z" fill="url(#paint58_linear_4956_56231)"/>
<path d="M11.0964 10.0247H10.6931V9.50781H10.2363V10.8474H10.6931V10.3289H11.0964V10.0247Z" fill="url(#paint59_linear_4956_56231)"/>
<path d="M15.664 12.2617L15.0473 12.3972C15.0068 12.4086 14.9378 12.4183 14.8956 12.4183H13.5097C12.7714 12.4183 11.96 12.8654 11.96 14.3534V16.1555C11.96 16.2878 11.8293 16.2878 11.7871 16.2878C11.7449 16.2878 11.6143 16.2934 11.6143 16.1555V14.3534C11.6143 13.4747 10.9725 12.4183 9.9063 12.4183H7.69036C7.64736 12.4183 7.61328 12.4532 7.61328 12.4954V14.205C7.61328 14.248 7.63762 14.3072 7.66765 14.3372L8.12122 14.7908C8.15124 14.8208 8.17639 14.88 8.17639 14.923L8.17883 15.5827C8.17883 16.1011 8.88718 16.1011 8.95291 16.1011C9.01863 16.1011 9.7424 16.106 9.7424 15.5827C9.7424 15.5827 9.73347 14.7291 9.73347 14.5108C9.73347 14.2926 9.57282 14.1352 9.48356 14.1352C9.39431 14.1352 9.39106 14.2236 9.39106 14.2926V15.5835C9.39106 15.9283 9.01052 15.9218 8.95291 15.9218C8.8953 15.9218 8.51475 15.9243 8.51475 15.5835V14.9393C8.51475 14.8962 8.49041 14.837 8.46039 14.807L8.1058 14.4524C8.07578 14.4224 8.05063 14.3632 8.05063 14.3202V12.7518C8.05063 12.7088 8.08552 12.6739 8.12771 12.6739H9.90711C10.4881 12.6739 10.8808 13.6459 10.8808 14.0354V16.4111C10.8808 16.4541 10.9157 16.489 10.9587 16.489H12.2277C12.6415 16.489 12.6448 16.08 12.6448 16.08V14.0362C12.6448 13.4447 13.1235 12.6747 13.5106 12.6747H14.8055C14.8486 12.6747 14.8721 12.708 14.8591 12.7485C14.8591 12.7485 14.5743 13.7952 14.537 13.8739C14.4996 13.9518 14.4153 13.9786 14.3731 13.9786H13.8943C13.8513 13.9786 13.7532 13.9835 13.8173 14.054C13.8814 14.1246 14.0436 14.1295 14.0858 14.1295H14.3731C14.4161 14.1295 14.4477 14.1628 14.4323 14.2025C14.4323 14.2025 14.3276 14.6488 14.2457 14.8224C14.1637 14.9952 14.0883 14.9952 14.0453 14.9952H13.5941C13.526 14.9952 13.4481 15.0269 13.517 15.0999C13.5852 15.1729 13.6996 15.1591 13.7726 15.1591H14.0826C14.1248 15.1599 14.1443 15.2038 14.124 15.2419C14.124 15.2419 14.055 15.4602 14.0006 15.6151C13.9463 15.7701 13.6923 15.7928 13.6501 15.7928H13.3036C13.2606 15.7928 13.1941 15.8066 13.2266 15.8683C13.2582 15.9299 13.4254 15.9437 13.4684 15.9437H13.8879C14.0842 15.9437 14.2652 15.7879 14.3917 15.5518C14.5183 15.3165 14.5118 15.2476 14.5248 15.19C14.5386 15.1315 14.528 15.1283 14.5045 15.1348C14.4226 15.1591 14.2984 15.1551 14.2984 15.1551C14.2984 15.1551 14.5946 15.0415 14.7496 14.6723C14.8477 14.4386 14.9094 14.2236 14.9216 14.1798C14.9337 14.1352 14.9208 14.1295 14.9045 14.1352C14.8137 14.1668 14.7268 14.1579 14.7268 14.1579C14.7268 14.1579 14.9865 14.0484 15.2283 13.4788C15.4701 12.9092 15.7127 12.3153 15.7127 12.3153C15.7297 12.2763 15.7094 12.2536 15.6681 12.265L15.664 12.2617Z" fill="url(#paint60_linear_4956_56231)"/>
<path d="M8.8564 13.4531C8.8142 13.4531 8.76552 13.4856 8.74929 13.5245L8.58945 13.9099C8.57322 13.9489 8.59431 13.9813 8.63732 13.9813H8.86532C8.90833 13.9813 8.9562 13.9489 8.97243 13.9099L9.13227 13.5245C9.1485 13.4856 9.12659 13.4531 9.0844 13.4531H8.8564Z" fill="url(#paint61_linear_4956_56231)"/>
</g>
<defs>
<radialGradient id="paint0_radial_4956_56231" cx="0" cy="0" r="1" gradientUnits="userSpaceOnUse" gradientTransform="translate(4.0876 2.57098) scale(29.4132 29.4073)">
<stop stop-color="white"/>
<stop offset="0.26" stop-color="white"/>
<stop offset="0.36" stop-color="#F1F1F1"/>
<stop offset="0.9" stop-color="#AAABAB"/>
<stop offset="1" stop-color="#AAABAB"/>
</radialGradient>
<linearGradient id="paint1_linear_4956_56231" x1="0" y1="11.4996" x2="23" y2="11.4996" gradientUnits="userSpaceOnUse">
<stop stop-color="#AE0B02"/>
<stop offset="0.02" stop-color="#AB0A01"/>
<stop offset="0.68" stop-color="#730300"/>
<stop offset="1" stop-color="#5E0000"/>
</linearGradient>
<radialGradient id="paint2_radial_4956_56231" cx="0" cy="0" r="1" gradientUnits="userSpaceOnUse" gradientTransform="translate(11.2409 10.7195) scale(10.9166 10.9162)">
<stop stop-color="#E61911"/>
<stop offset="0.11" stop-color="#D4150C"/>
<stop offset="0.28" stop-color="#BF1107"/>
<stop offset="0.57" stop-color="#910000"/>
<stop offset="0.8" stop-color="#7E0000"/>
<stop offset="1" stop-color="#730000"/>
</radialGradient>
<linearGradient id="paint3_linear_4956_56231" x1="5.75748" y1="2.17573" x2="17.4029" y2="21.0819" gradientUnits="userSpaceOnUse">
<stop stop-color="#B60E04"/>
<stop offset="0.49" stop-color="#A40700"/>
<stop offset="0.51" stop-color="#7D0000"/>
<stop offset="1" stop-color="#530000"/>
</linearGradient>
<linearGradient id="paint4_linear_4956_56231" x1="15.9636" y1="18.0232" x2="7.09538" y2="5.06123" gradientUnits="userSpaceOnUse">
<stop stop-color="#AE0B02"/>
<stop offset="0.02" stop-color="#AB0A01"/>
<stop offset="0.68" stop-color="#730300"/>
<stop offset="1" stop-color="#5E0000"/>
</linearGradient>
<linearGradient id="paint5_linear_4956_56231" x1="7.75986" y1="4.99132" x2="15.2633" y2="18.0506" gradientUnits="userSpaceOnUse">
<stop stop-color="#AE0B02"/>
<stop offset="0.02" stop-color="#AB0A01"/>
<stop offset="0.68" stop-color="#730300"/>
<stop offset="1" stop-color="#5E0000"/>
</linearGradient>
<radialGradient id="paint6_radial_4956_56231" cx="0" cy="0" r="1" gradientUnits="userSpaceOnUse" gradientTransform="translate(6.24717 2.15025) scale(33.8785 33.8773)">
<stop stop-color="white"/>
<stop offset="0.26" stop-color="white"/>
<stop offset="0.36" stop-color="#F1F1F1"/>
<stop offset="0.9" stop-color="#AAABAB"/>
<stop offset="1" stop-color="#AAABAB"/>
</radialGradient>
<radialGradient id="paint7_radial_4956_56231" cx="0" cy="0" r="1" gradientUnits="userSpaceOnUse" gradientTransform="translate(6.24663 2.14981) scale(33.8809 33.8797)">
<stop stop-color="white"/>
<stop offset="0.26" stop-color="white"/>
<stop offset="0.36" stop-color="#F1F1F1"/>
<stop offset="0.9" stop-color="#AAABAB"/>
<stop offset="1" stop-color="#AAABAB"/>
</radialGradient>
<radialGradient id="paint8_radial_4956_56231" cx="0" cy="0" r="1" gradientUnits="userSpaceOnUse" gradientTransform="translate(6.24897 2.15006) scale(33.8858 33.8846)">
<stop stop-color="white"/>
<stop offset="0.26" stop-color="white"/>
<stop offset="0.36" stop-color="#F1F1F1"/>
<stop offset="0.9" stop-color="#AAABAB"/>
<stop offset="1" stop-color="#AAABAB"/>
</radialGradient>
<radialGradient id="paint9_radial_4956_56231" cx="0" cy="0" r="1" gradientUnits="userSpaceOnUse" gradientTransform="translate(6.24618 2.15006) scale(33.8866 33.8854)">
<stop stop-color="white"/>
<stop offset="0.26" stop-color="white"/>
<stop offset="0.36" stop-color="#F1F1F1"/>
<stop offset="0.9" stop-color="#AAABAB"/>
<stop offset="1" stop-color="#AAABAB"/>
</radialGradient>
<radialGradient id="paint10_radial_4956_56231" cx="0" cy="0" r="1" gradientUnits="userSpaceOnUse" gradientTransform="translate(6.24945 2.15146) scale(33.8784 33.8773)">
<stop stop-color="white"/>
<stop offset="0.26" stop-color="white"/>
<stop offset="0.36" stop-color="#F1F1F1"/>
<stop offset="0.9" stop-color="#AAABAB"/>
<stop offset="1" stop-color="#AAABAB"/>
</radialGradient>
<radialGradient id="paint11_radial_4956_56231" cx="0" cy="0" r="1" gradientUnits="userSpaceOnUse" gradientTransform="translate(6.24804 2.15052) scale(33.8793 33.8781)">
<stop stop-color="white"/>
<stop offset="0.26" stop-color="white"/>
<stop offset="0.36" stop-color="#F1F1F1"/>
<stop offset="0.9" stop-color="#AAABAB"/>
<stop offset="1" stop-color="#AAABAB"/>
</radialGradient>
<radialGradient id="paint12_radial_4956_56231" cx="0" cy="0" r="1" gradientUnits="userSpaceOnUse" gradientTransform="translate(6.24892 2.14936) scale(33.8809 33.8797)">
<stop stop-color="white"/>
<stop offset="0.26" stop-color="white"/>
<stop offset="0.36" stop-color="#F1F1F1"/>
<stop offset="0.9" stop-color="#AAABAB"/>
<stop offset="1" stop-color="#AAABAB"/>
</radialGradient>
<radialGradient id="paint13_radial_4956_56231" cx="0" cy="0" r="1" gradientUnits="userSpaceOnUse" gradientTransform="translate(6.2486 2.14862) scale(33.885 33.8838)">
<stop stop-color="white"/>
<stop offset="0.26" stop-color="white"/>
<stop offset="0.36" stop-color="#F1F1F1"/>
<stop offset="0.9" stop-color="#AAABAB"/>
<stop offset="1" stop-color="#AAABAB"/>
</radialGradient>
<radialGradient id="paint14_radial_4956_56231" cx="0" cy="0" r="1" gradientUnits="userSpaceOnUse" gradientTransform="translate(6.25036 2.14843) scale(33.8841 33.8829)">
<stop stop-color="white"/>
<stop offset="0.26" stop-color="white"/>
<stop offset="0.36" stop-color="#F1F1F1"/>
<stop offset="0.9" stop-color="#AAABAB"/>
<stop offset="1" stop-color="#AAABAB"/>
</radialGradient>
<radialGradient id="paint15_radial_4956_56231" cx="0" cy="0" r="1" gradientUnits="userSpaceOnUse" gradientTransform="translate(6.24781 2.15037) scale(33.8777 33.8765)">
<stop stop-color="white"/>
<stop offset="0.26" stop-color="white"/>
<stop offset="0.36" stop-color="#F1F1F1"/>
<stop offset="0.9" stop-color="#AAABAB"/>
<stop offset="1" stop-color="#AAABAB"/>
</radialGradient>
<radialGradient id="paint16_radial_4956_56231" cx="0" cy="0" r="1" gradientUnits="userSpaceOnUse" gradientTransform="translate(6.2478 2.15083) scale(33.8768 33.8756)">
<stop stop-color="white"/>
<stop offset="0.26" stop-color="white"/>
<stop offset="0.36" stop-color="#F1F1F1"/>
<stop offset="0.9" stop-color="#AAABAB"/>
<stop offset="1" stop-color="#AAABAB"/>
</radialGradient>
<radialGradient id="paint17_radial_4956_56231" cx="0" cy="0" r="1" gradientUnits="userSpaceOnUse" gradientTransform="translate(6.2492 2.15172) scale(33.8777 33.8765)">
<stop stop-color="white"/>
<stop offset="0.26" stop-color="white"/>
<stop offset="0.36" stop-color="#F1F1F1"/>
<stop offset="0.9" stop-color="#AAABAB"/>
<stop offset="1" stop-color="#AAABAB"/>
</radialGradient>
<radialGradient id="paint18_radial_4956_56231" cx="0" cy="0" r="1" gradientUnits="userSpaceOnUse" gradientTransform="translate(6.24738 2.15004) scale(33.8793 33.8781)">
<stop stop-color="white"/>
<stop offset="0.26" stop-color="white"/>
<stop offset="0.36" stop-color="#F1F1F1"/>
<stop offset="0.9" stop-color="#AAABAB"/>
<stop offset="1" stop-color="#AAABAB"/>
</radialGradient>
<radialGradient id="paint19_radial_4956_56231" cx="0" cy="0" r="1" gradientUnits="userSpaceOnUse" gradientTransform="translate(6.24871 2.1511) scale(33.8785 33.8772)">
<stop stop-color="white"/>
<stop offset="0.26" stop-color="white"/>
<stop offset="0.36" stop-color="#F1F1F1"/>
<stop offset="0.9" stop-color="#AAABAB"/>
<stop offset="1" stop-color="#AAABAB"/>
</radialGradient>
<radialGradient id="paint20_radial_4956_56231" cx="0" cy="0" r="1" gradientUnits="userSpaceOnUse" gradientTransform="translate(6.24921 2.1501) scale(33.8793 33.8781)">
<stop stop-color="white"/>
<stop offset="0.26" stop-color="white"/>
<stop offset="0.36" stop-color="#F1F1F1"/>
<stop offset="0.9" stop-color="#AAABAB"/>
<stop offset="1" stop-color="#AAABAB"/>
</radialGradient>
<radialGradient id="paint21_radial_4956_56231" cx="0" cy="0" r="1" gradientUnits="userSpaceOnUse" gradientTransform="translate(6.24784 2.15027) scale(33.8801 33.8789)">
<stop stop-color="white"/>
<stop offset="0.26" stop-color="white"/>
<stop offset="0.36" stop-color="#F1F1F1"/>
<stop offset="0.9" stop-color="#AAABAB"/>
<stop offset="1" stop-color="#AAABAB"/>
</radialGradient>
<radialGradient id="paint22_radial_4956_56231" cx="0" cy="0" r="1" gradientUnits="userSpaceOnUse" gradientTransform="translate(6.24726 2.14919) scale(33.8809 33.8797)">
<stop stop-color="white"/>
<stop offset="0.26" stop-color="white"/>
<stop offset="0.36" stop-color="#F1F1F1"/>
<stop offset="0.9" stop-color="#AAABAB"/>
<stop offset="1" stop-color="#AAABAB"/>
</radialGradient>
<radialGradient id="paint23_radial_4956_56231" cx="0" cy="0" r="1" gradientUnits="userSpaceOnUse" gradientTransform="translate(6.24838 2.14816) scale(33.8833 33.8822)">
<stop stop-color="white"/>
<stop offset="0.26" stop-color="white"/>
<stop offset="0.36" stop-color="#F1F1F1"/>
<stop offset="0.9" stop-color="#AAABAB"/>
<stop offset="1" stop-color="#AAABAB"/>
</radialGradient>
<radialGradient id="paint24_radial_4956_56231" cx="0" cy="0" r="1" gradientUnits="userSpaceOnUse" gradientTransform="translate(6.2471 2.15014) scale(33.8793 33.8781)">
<stop stop-color="white"/>
<stop offset="0.26" stop-color="white"/>
<stop offset="0.36" stop-color="#F1F1F1"/>
<stop offset="0.9" stop-color="#AAABAB"/>
<stop offset="1" stop-color="#AAABAB"/>
</radialGradient>
<radialGradient id="paint25_radial_4956_56231" cx="0" cy="0" r="1" gradientUnits="userSpaceOnUse" gradientTransform="translate(6.24752 2.15034) scale(33.8801 33.8789)">
<stop stop-color="white"/>
<stop offset="0.26" stop-color="white"/>
<stop offset="0.36" stop-color="#F1F1F1"/>
<stop offset="0.9" stop-color="#AAABAB"/>
<stop offset="1" stop-color="#AAABAB"/>
</radialGradient>
<radialGradient id="paint26_radial_4956_56231" cx="0" cy="0" r="1" gradientUnits="userSpaceOnUse" gradientTransform="translate(6.24706 2.14961) scale(33.8817 33.8805)">
<stop stop-color="white"/>
<stop offset="0.26" stop-color="white"/>
<stop offset="0.36" stop-color="#F1F1F1"/>
<stop offset="0.9" stop-color="#AAABAB"/>
<stop offset="1" stop-color="#AAABAB"/>
</radialGradient>
<radialGradient id="paint27_radial_4956_56231" cx="0" cy="0" r="1" gradientUnits="userSpaceOnUse" gradientTransform="translate(6.24961 2.14971) scale(33.8793 33.8781)">
<stop stop-color="white"/>
<stop offset="0.26" stop-color="white"/>
<stop offset="0.36" stop-color="#F1F1F1"/>
<stop offset="0.9" stop-color="#AAABAB"/>
<stop offset="1" stop-color="#AAABAB"/>
</radialGradient>
<radialGradient id="paint28_radial_4956_56231" cx="0" cy="0" r="1" gradientUnits="userSpaceOnUse" gradientTransform="translate(6.24759 2.14912) scale(33.8825 33.8813)">
<stop stop-color="white"/>
<stop offset="0.26" stop-color="white"/>
<stop offset="0.36" stop-color="#F1F1F1"/>
<stop offset="0.9" stop-color="#AAABAB"/>
<stop offset="1" stop-color="#AAABAB"/>
</radialGradient>
<radialGradient id="paint29_radial_4956_56231" cx="0" cy="0" r="1" gradientUnits="userSpaceOnUse" gradientTransform="translate(6.24888 2.14945) scale(33.8809 33.8797)">
<stop stop-color="white"/>
<stop offset="0.26" stop-color="white"/>
<stop offset="0.36" stop-color="#F1F1F1"/>
<stop offset="0.9" stop-color="#AAABAB"/>
<stop offset="1" stop-color="#AAABAB"/>
</radialGradient>
<radialGradient id="paint30_radial_4956_56231" cx="0" cy="0" r="1" gradientUnits="userSpaceOnUse" gradientTransform="translate(6.24809 2.15062) scale(33.8801 33.8789)">
<stop stop-color="white"/>
<stop offset="0.26" stop-color="white"/>
<stop offset="0.36" stop-color="#F1F1F1"/>
<stop offset="0.9" stop-color="#AAABAB"/>
<stop offset="1" stop-color="#AAABAB"/>
</radialGradient>
<radialGradient id="paint31_radial_4956_56231" cx="0" cy="0" r="1" gradientUnits="userSpaceOnUse" gradientTransform="translate(6.25005 2.149) scale(33.8825 33.8813)">
<stop stop-color="white"/>
<stop offset="0.26" stop-color="white"/>
<stop offset="0.36" stop-color="#F1F1F1"/>
<stop offset="0.9" stop-color="#AAABAB"/>
<stop offset="1" stop-color="#AAABAB"/>
</radialGradient>
<radialGradient id="paint32_radial_4956_56231" cx="0" cy="0" r="1" gradientUnits="userSpaceOnUse" gradientTransform="translate(6.24762 2.15078) scale(33.8817 33.8805)">
<stop stop-color="white"/>
<stop offset="0.26" stop-color="white"/>
<stop offset="0.36" stop-color="#F1F1F1"/>
<stop offset="0.9" stop-color="#AAABAB"/>
<stop offset="1" stop-color="#AAABAB"/>
</radialGradient>
<radialGradient id="paint33_radial_4956_56231" cx="0" cy="0" r="1" gradientUnits="userSpaceOnUse" gradientTransform="translate(6.2507 2.14986) scale(33.8801 33.8789)">
<stop stop-color="white"/>
<stop offset="0.26" stop-color="white"/>
<stop offset="0.36" stop-color="#F1F1F1"/>
<stop offset="0.9" stop-color="#AAABAB"/>
<stop offset="1" stop-color="#AAABAB"/>
</radialGradient>
<radialGradient id="paint34_radial_4956_56231" cx="0" cy="0" r="1" gradientUnits="userSpaceOnUse" gradientTransform="translate(6.24835 2.14929) scale(33.8825 33.8813)">
<stop stop-color="white"/>
<stop offset="0.26" stop-color="white"/>
<stop offset="0.36" stop-color="#F1F1F1"/>
<stop offset="0.9" stop-color="#AAABAB"/>
<stop offset="1" stop-color="#AAABAB"/>
</radialGradient>
<radialGradient id="paint35_radial_4956_56231" cx="0" cy="0" r="1" gradientUnits="userSpaceOnUse" gradientTransform="translate(6.25001 2.14931) scale(33.8825 33.8813)">
<stop stop-color="white"/>
<stop offset="0.26" stop-color="white"/>
<stop offset="0.36" stop-color="#F1F1F1"/>
<stop offset="0.9" stop-color="#AAABAB"/>
<stop offset="1" stop-color="#AAABAB"/>
</radialGradient>
<radialGradient id="paint36_radial_4956_56231" cx="0" cy="0" r="1" gradientUnits="userSpaceOnUse" gradientTransform="translate(6.24833 2.15159) scale(33.8793 33.8781)">
<stop stop-color="white"/>
<stop offset="0.26" stop-color="white"/>
<stop offset="0.36" stop-color="#F1F1F1"/>
<stop offset="0.9" stop-color="#AAABAB"/>
<stop offset="1" stop-color="#AAABAB"/>
</radialGradient>
<radialGradient id="paint37_radial_4956_56231" cx="0" cy="0" r="1" gradientUnits="userSpaceOnUse" gradientTransform="translate(6.24976 2.15126) scale(33.8793 33.8781)">
<stop stop-color="white"/>
<stop offset="0.26" stop-color="white"/>
<stop offset="0.36" stop-color="#F1F1F1"/>
<stop offset="0.9" stop-color="#AAABAB"/>
<stop offset="1" stop-color="#AAABAB"/>
</radialGradient>
<radialGradient id="paint38_radial_4956_56231" cx="0" cy="0" r="1" gradientUnits="userSpaceOnUse" gradientTransform="translate(6.24968 2.15111) scale(33.8809 33.8797)">
<stop stop-color="white"/>
<stop offset="0.26" stop-color="white"/>
<stop offset="0.36" stop-color="#F1F1F1"/>
<stop offset="0.9" stop-color="#AAABAB"/>
<stop offset="1" stop-color="#AAABAB"/>
</radialGradient>
<radialGradient id="paint39_radial_4956_56231" cx="0" cy="0" r="1" gradientUnits="userSpaceOnUse" gradientTransform="translate(6.24891 2.15069) scale(33.8817 33.8805)">
<stop stop-color="white"/>
<stop offset="0.26" stop-color="white"/>
<stop offset="0.36" stop-color="#F1F1F1"/>
<stop offset="0.9" stop-color="#AAABAB"/>
<stop offset="1" stop-color="#AAABAB"/>
</radialGradient>
<radialGradient id="paint40_radial_4956_56231" cx="0" cy="0" r="1" gradientUnits="userSpaceOnUse" gradientTransform="translate(6.25049 2.14886) scale(33.8817 33.8805)">
<stop stop-color="white"/>
<stop offset="0.26" stop-color="white"/>
<stop offset="0.36" stop-color="#F1F1F1"/>
<stop offset="0.9" stop-color="#AAABAB"/>
<stop offset="1" stop-color="#AAABAB"/>
</radialGradient>
<radialGradient id="paint41_radial_4956_56231" cx="0" cy="0" r="1" gradientUnits="userSpaceOnUse" gradientTransform="translate(6.24802 2.14766) scale(33.8841 33.8829)">
<stop stop-color="white"/>
<stop offset="0.26" stop-color="white"/>
<stop offset="0.36" stop-color="#F1F1F1"/>
<stop offset="0.9" stop-color="#AAABAB"/>
<stop offset="1" stop-color="#AAABAB"/>
</radialGradient>
<radialGradient id="paint42_radial_4956_56231" cx="0" cy="0" r="1" gradientUnits="userSpaceOnUse" gradientTransform="translate(6.24979 2.14947) scale(33.8801 33.8789)">
<stop stop-color="white"/>
<stop offset="0.26" stop-color="white"/>
<stop offset="0.36" stop-color="#F1F1F1"/>
<stop offset="0.9" stop-color="#AAABAB"/>
<stop offset="1" stop-color="#AAABAB"/>
</radialGradient>
<radialGradient id="paint43_radial_4956_56231" cx="0" cy="0" r="1" gradientUnits="userSpaceOnUse" gradientTransform="translate(6.2504 2.15119) scale(33.8801 33.8789)">
<stop stop-color="white"/>
<stop offset="0.26" stop-color="white"/>
<stop offset="0.36" stop-color="#F1F1F1"/>
<stop offset="0.9" stop-color="#AAABAB"/>
<stop offset="1" stop-color="#AAABAB"/>
</radialGradient>
<radialGradient id="paint44_radial_4956_56231" cx="0" cy="0" r="1" gradientUnits="userSpaceOnUse" gradientTransform="translate(6.24875 2.14992) scale(33.8817 33.8805)">
<stop stop-color="white"/>
<stop offset="0.26" stop-color="white"/>
<stop offset="0.36" stop-color="#F1F1F1"/>
<stop offset="0.9" stop-color="#AAABAB"/>
<stop offset="1" stop-color="#AAABAB"/>
</radialGradient>
<radialGradient id="paint45_radial_4956_56231" cx="0" cy="0" r="1" gradientUnits="userSpaceOnUse" gradientTransform="translate(6.24954 2.14941) scale(33.8809 33.8797)">
<stop stop-color="white"/>
<stop offset="0.26" stop-color="white"/>
<stop offset="0.36" stop-color="#F1F1F1"/>
<stop offset="0.9" stop-color="#AAABAB"/>
<stop offset="1" stop-color="#AAABAB"/>
</radialGradient>
<radialGradient id="paint46_radial_4956_56231" cx="0" cy="0" r="1" gradientUnits="userSpaceOnUse" gradientTransform="translate(6.24751 2.15062) scale(33.8826 33.8813)">
<stop stop-color="white"/>
<stop offset="0.26" stop-color="white"/>
<stop offset="0.36" stop-color="#F1F1F1"/>
<stop offset="0.9" stop-color="#AAABAB"/>
<stop offset="1" stop-color="#AAABAB"/>
</radialGradient>
<radialGradient id="paint47_radial_4956_56231" cx="0" cy="0" r="1" gradientUnits="userSpaceOnUse" gradientTransform="translate(6.24967 2.14952) scale(33.8785 33.8773)">
<stop stop-color="white"/>
<stop offset="0.26" stop-color="white"/>
<stop offset="0.36" stop-color="#F1F1F1"/>
<stop offset="0.9" stop-color="#AAABAB"/>
<stop offset="1" stop-color="#AAABAB"/>
</radialGradient>
<radialGradient id="paint48_radial_4956_56231" cx="0" cy="0" r="1" gradientUnits="userSpaceOnUse" gradientTransform="translate(6.24922 2.14972) scale(33.8809 33.8797)">
<stop stop-color="white"/>
<stop offset="0.26" stop-color="white"/>
<stop offset="0.36" stop-color="#F1F1F1"/>
<stop offset="0.9" stop-color="#AAABAB"/>
<stop offset="1" stop-color="#AAABAB"/>
</radialGradient>
<radialGradient id="paint49_radial_4956_56231" cx="0" cy="0" r="1" gradientUnits="userSpaceOnUse" gradientTransform="translate(6.24767 2.14973) scale(33.8825 33.8813)">
<stop stop-color="white"/>
<stop offset="0.26" stop-color="white"/>
<stop offset="0.36" stop-color="#F1F1F1"/>
<stop offset="0.9" stop-color="#AAABAB"/>
<stop offset="1" stop-color="#AAABAB"/>
</radialGradient>
<radialGradient id="paint50_radial_4956_56231" cx="0" cy="0" r="1" gradientUnits="userSpaceOnUse" gradientTransform="translate(6.24872 2.14987) scale(33.8825 33.8813)">
<stop stop-color="white"/>
<stop offset="0.26" stop-color="white"/>
<stop offset="0.36" stop-color="#F1F1F1"/>
<stop offset="0.9" stop-color="#AAABAB"/>
<stop offset="1" stop-color="#AAABAB"/>
</radialGradient>
<radialGradient id="paint51_radial_4956_56231" cx="0" cy="0" r="1" gradientUnits="userSpaceOnUse" gradientTransform="translate(6.2495 2.14995) scale(33.8817 33.8805)">
<stop stop-color="white"/>
<stop offset="0.26" stop-color="white"/>
<stop offset="0.36" stop-color="#F1F1F1"/>
<stop offset="0.9" stop-color="#AAABAB"/>
<stop offset="1" stop-color="#AAABAB"/>
</radialGradient>
<radialGradient id="paint52_radial_4956_56231" cx="0" cy="0" r="1" gradientUnits="userSpaceOnUse" gradientTransform="translate(6.24757 2.14968) scale(33.8801 33.8789)">
<stop stop-color="white"/>
<stop offset="0.26" stop-color="white"/>
<stop offset="0.36" stop-color="#F1F1F1"/>
<stop offset="0.9" stop-color="#AAABAB"/>
<stop offset="1" stop-color="#AAABAB"/>
</radialGradient>
<radialGradient id="paint53_radial_4956_56231" cx="0" cy="0" r="1" gradientUnits="userSpaceOnUse" gradientTransform="translate(6.24895 2.14929) scale(33.8817 33.8805)">
<stop stop-color="white"/>
<stop offset="0.26" stop-color="white"/>
<stop offset="0.36" stop-color="#F1F1F1"/>
<stop offset="0.9" stop-color="#AAABAB"/>
<stop offset="1" stop-color="#AAABAB"/>
</radialGradient>
<linearGradient id="paint54_linear_4956_56231" x1="9.40639" y1="6.4659" x2="14.2356" y2="17.2979" gradientUnits="userSpaceOnUse">
<stop stop-color="#AE0B02"/>
<stop offset="0.02" stop-color="#AB0A01"/>
<stop offset="0.68" stop-color="#730300"/>
<stop offset="1" stop-color="#5E0000"/>
</linearGradient>
<linearGradient id="paint55_linear_4956_56231" x1="11.5003" y1="5.5325" x2="16.3254" y2="16.3555" gradientUnits="userSpaceOnUse">
<stop stop-color="#AE0B02"/>
<stop offset="0.02" stop-color="#AB0A01"/>
<stop offset="0.68" stop-color="#730300"/>
<stop offset="1" stop-color="#5E0000"/>
</linearGradient>
<linearGradient id="paint56_linear_4956_56231" x1="11.1772" y1="5.67535" x2="16.0031" y2="16.4992" gradientUnits="userSpaceOnUse">
<stop stop-color="#AE0B02"/>
<stop offset="0.02" stop-color="#AB0A01"/>
<stop offset="0.68" stop-color="#730300"/>
<stop offset="1" stop-color="#5E0000"/>
</linearGradient>
<linearGradient id="paint57_linear_4956_56231" x1="10.8582" y1="5.81734" x2="15.6842" y2="16.6404" gradientUnits="userSpaceOnUse">
<stop stop-color="#AE0B02"/>
<stop offset="0.02" stop-color="#AB0A01"/>
<stop offset="0.68" stop-color="#730300"/>
<stop offset="1" stop-color="#5E0000"/>
</linearGradient>
<linearGradient id="paint58_linear_4956_56231" x1="7.67539" y1="7.23686" x2="12.5013" y2="18.0599" gradientUnits="userSpaceOnUse">
<stop stop-color="#AE0B02"/>
<stop offset="0.02" stop-color="#AB0A01"/>
<stop offset="0.68" stop-color="#730300"/>
<stop offset="1" stop-color="#5E0000"/>
</linearGradient>
<linearGradient id="paint59_linear_4956_56231" x1="8.98028" y1="6.65502" x2="13.8062" y2="17.4789" gradientUnits="userSpaceOnUse">
<stop stop-color="#AE0B02"/>
<stop offset="0.02" stop-color="#AB0A01"/>
<stop offset="0.68" stop-color="#730300"/>
<stop offset="1" stop-color="#5E0000"/>
</linearGradient>
<linearGradient id="paint60_linear_4956_56231" x1="8.72815" y1="6.76791" x2="13.5541" y2="17.5909" gradientUnits="userSpaceOnUse">
<stop stop-color="#AE0B02"/>
<stop offset="0.02" stop-color="#AB0A01"/>
<stop offset="0.68" stop-color="#730300"/>
<stop offset="1" stop-color="#5E0000"/>
</linearGradient>
<linearGradient id="paint61_linear_4956_56231" x1="6.25423" y1="7.87168" x2="11.0794" y2="18.6931" gradientUnits="userSpaceOnUse">
<stop stop-color="#AE0B02"/>
<stop offset="0.02" stop-color="#AB0A01"/>
<stop offset="0.68" stop-color="#730300"/>
<stop offset="1" stop-color="#5E0000"/>
</linearGradient>
<clipPath id="clip0_4956_56231">
<rect width="23" height="23" fill="white"/>
</clipPath>
</defs>
</svg>
