<svg width="23" height="23" viewBox="0 0 23 23" fill="none" xmlns="http://www.w3.org/2000/svg">
<g clip-path="url(#clip0_4956_56230)">
<path d="M18.8012 18.382L19.1498 18.7196C19.2438 18.8088 19.3182 18.8864 19.3731 18.9524C19.4318 19.0184 19.4671 19.0843 19.4866 19.1542L19.6237 19.0145C19.6081 18.9485 19.5728 18.8787 19.5258 18.8049C19.4749 18.7312 19.4083 18.6497 19.3221 18.5643C19.3221 18.5643 18.9657 18.2151 18.9618 18.2112C18.9226 18.1763 18.8795 18.1608 18.8364 18.1646C18.7894 18.1646 18.7464 18.1879 18.7072 18.2267L17.9316 19.0106L18.0531 19.1309L18.8012 18.3742V18.382Z" fill="#002968"/>
<path d="M19.4792 19.3833L18.9505 18.8711L18.7899 19.0302L19.3186 19.5463L19.1816 19.6821L18.6528 19.1699L18.4961 19.329L19.0249 19.8451L18.8016 20.0702L18.9191 20.1827L20.0354 19.0574L19.9179 18.9409L19.4792 19.3833Z" fill="#002968"/>
<path d="M11.9234 21.2695V21.743H11.6884V21.2695H11.4691V22.2203C11.4417 22.2319 11.4064 22.2435 11.3633 22.2552C11.3202 22.2668 11.2693 22.2707 11.2184 22.2707H10.862V21.483H11.2732V21.3277H10.6309V22.2474C10.6309 22.3056 10.6504 22.3522 10.6857 22.3832C10.7209 22.4143 10.768 22.4298 10.8228 22.4298H11.2066C11.2654 22.4298 11.3163 22.4221 11.3594 22.4104C11.3986 22.3988 11.4377 22.3794 11.473 22.3561V23.0003H11.6923V21.9137H11.9274V23.0003H12.1506V21.2695H11.9274H11.9234Z" fill="#002968"/>
<path d="M8.01022 20.625L8.24132 20.7297C8.24132 20.7297 7.50886 22.2936 7.51278 22.2936L7.2856 22.1888C7.2856 22.1888 8.01414 20.625 8.01414 20.6211L8.01022 20.625ZM7.4031 20.5745L7.32868 20.7336C7.25818 20.8811 7.23468 21.0286 7.26601 21.1799C7.29735 21.3312 7.36394 21.4438 7.45794 21.5097L7.30518 21.5718C7.24251 21.5136 7.16026 21.4477 7.10934 21.3312C7.0545 21.2148 7.03883 21.1023 7.04667 21.0208C6.98791 21.079 6.88999 21.1372 6.76857 21.1721C6.64323 21.2032 6.54139 21.1915 6.45522 21.1799L6.4043 21.0247C6.51789 21.0518 6.64714 21.0286 6.78424 20.9548C6.92133 20.8811 7.01925 20.7647 7.08975 20.6172L7.16417 20.4581C7.16417 20.4581 6.85866 20.3184 6.85474 20.3184L6.92133 20.1787L7.77913 20.5706L7.71254 20.7103L7.40702 20.5668L7.4031 20.5745Z" fill="#002968"/>
<path d="M16.396 21.5295C16.3764 21.4751 16.3411 21.4402 16.2981 21.4208C16.2511 21.4053 16.2041 21.4053 16.1531 21.4208L15.1426 21.8011L15.2052 21.9602L16.1766 21.5954L16.3568 22.0689L16.5762 21.9874L16.3999 21.5217L16.396 21.5295Z" fill="#002968"/>
<path d="M16.0635 20.6558L15.9264 20.2988L15.707 20.3803L16.0674 21.3272L16.2867 21.2457L16.1183 20.8033L16.3807 20.7024L16.322 20.5588L16.0635 20.6558Z" fill="#002968"/>
<path d="M15.5142 20.7341L15.6082 20.6992L15.5534 20.5556L15.1852 20.6953L15.1265 20.5439L14.8993 20.6293L14.9267 20.6992L14.958 20.7807L14.5898 20.9204L14.6447 21.0639L14.7387 21.029L14.8836 20.9747C14.8444 21.029 14.8209 21.0872 14.8092 21.1493C14.7974 21.2114 14.8053 21.2735 14.8249 21.3356C14.864 21.4365 14.9384 21.5102 15.0481 21.5529C15.1578 21.5956 15.2675 21.5956 15.385 21.5529C15.4986 21.5102 15.5847 21.4365 15.6357 21.3317C15.6866 21.2308 15.6944 21.126 15.6552 21.0251C15.6317 20.9669 15.5965 20.9165 15.5456 20.8738C15.4986 20.835 15.4437 20.8117 15.385 20.7962C15.385 20.7962 15.3771 20.7962 15.3732 20.7962L15.5142 20.7419V20.7341ZM15.4398 21.2812C15.4163 21.3395 15.3771 21.3821 15.3223 21.4015C15.2675 21.4209 15.2126 21.4171 15.1578 21.386C15.103 21.3589 15.0599 21.3123 15.0364 21.2502C15.0129 21.1881 15.0129 21.1299 15.0364 21.0717C15.0599 21.0135 15.099 20.9708 15.15 20.9514C15.2048 20.932 15.2596 20.9359 15.3184 20.9669C15.3732 20.998 15.4124 21.0407 15.4359 21.1027C15.4594 21.1648 15.4594 21.223 15.4359 21.2812H15.4398Z" fill="#002968"/>
<path d="M5.13115 18.9916L4.95097 18.8092L4.82171 18.9373L4.61803 18.7316L4.71596 18.6346L4.10492 18.0215L3.64664 18.4677C3.60748 18.5066 3.58789 18.5492 3.58789 18.5958C3.58789 18.6424 3.61139 18.6851 3.65056 18.7277L4.12842 19.2089L4.24201 19.0964L4.44569 19.3021L4.26943 19.4767L4.44569 19.6552C4.44569 19.6552 5.12723 18.9916 5.13115 18.9916ZM4.06575 18.9218L3.81115 18.6657L4.17542 18.3125L4.43002 18.5686L4.06575 18.9218ZM4.57103 19.1856L4.36735 18.98L4.50053 18.8519L4.70421 19.0576L4.57103 19.1856Z" fill="#002968"/>
<path d="M4.21752 19.6398C4.20577 19.5195 4.15485 19.4108 4.06084 19.3138C3.96684 19.2207 3.85717 19.1663 3.73574 19.1547C3.6104 19.1431 3.50856 19.1741 3.43023 19.2556C3.34797 19.3332 3.31272 19.4341 3.32447 19.5583C3.3323 19.6786 3.38714 19.7872 3.48114 19.8842C3.57515 19.9813 3.68482 20.0317 3.80625 20.0434C3.92767 20.055 4.02951 20.0201 4.11176 19.9425C4.19402 19.8648 4.22927 19.764 4.21752 19.6398ZM3.75141 19.8377C3.68482 19.8454 3.62607 19.8222 3.58298 19.7795C3.5399 19.7368 3.52031 19.6786 3.52815 19.6126C3.53206 19.5466 3.5634 19.4884 3.61432 19.438C3.66524 19.3875 3.72399 19.3604 3.7945 19.3565C3.865 19.3487 3.91984 19.3681 3.96292 19.4147C4.00601 19.4574 4.02559 19.5156 4.01776 19.5816C4.00993 19.6475 3.98251 19.7057 3.93159 19.7562C3.88067 19.8066 3.82191 19.8338 3.75533 19.8377H3.75141Z" fill="#002968"/>
<path d="M9.90216 6.32545C9.98441 6.30605 10.5328 5.61531 10.3526 4.88189C10.1528 4.07861 9.25979 3.70996 9.25979 3.70996C9.25979 3.70996 8.637 4.45891 8.84851 5.32039C9.02869 6.05381 9.79249 6.35261 9.90216 6.32545Z" fill="#0086D1"/>
<path d="M14.5431 4.97478C14.4726 4.92821 13.5874 4.99418 13.1644 5.61895C12.6983 6.3058 13.0312 7.20997 13.0312 7.20997C13.0312 7.20997 14.0104 7.15564 14.5079 6.42222C14.9309 5.79745 14.6371 5.03686 14.5431 4.97478Z" fill="#0086D1"/>
<path d="M6.36403 11.2887C6.4032 11.2149 6.22302 10.3496 5.54148 10.0158C4.79336 9.64718 3.93164 10.0896 3.93164 10.0896C3.93164 10.0896 4.11182 11.0442 4.90695 11.44C5.58849 11.7776 6.31311 11.3895 6.36011 11.2887H6.36403Z" fill="#0086D1"/>
<path d="M6.15332 16.0385C6.23557 16.0618 7.05812 15.7281 7.26571 15.0024C7.49289 14.2069 6.89361 13.4502 6.89361 13.4502C6.89361 13.4502 5.97706 13.7994 5.73421 14.6493C5.52661 15.3749 6.04364 16.0075 6.15332 16.0385Z" fill="#0086D1"/>
<path d="M16.3692 11.4551C16.3692 11.5366 16.9371 12.2157 17.697 12.1963C18.5313 12.173 19.0836 11.3814 19.0836 11.3814C19.0836 11.3814 18.4725 10.6208 17.5834 10.6441C16.8235 10.6635 16.3652 11.3426 16.3692 11.4551Z" fill="#0086D1"/>
<path d="M15.2764 13.489C15.2019 13.5239 14.8063 14.3156 15.1393 14.9947C15.5035 15.7397 16.4553 15.9144 16.4553 15.9144C16.4553 15.9144 16.9058 15.0529 16.518 14.2574C16.189 13.5783 15.3782 13.4424 15.2764 13.4929V13.489Z" fill="#0086D1"/>
<path d="M10.646 10.2442C10.5834 10.1899 9.69422 10.1588 9.20461 10.737C8.668 11.3695 8.89909 12.3048 8.89909 12.3048C8.89909 12.3048 9.87832 12.3591 10.4541 11.6839C10.9437 11.1057 10.7322 10.3179 10.646 10.2481V10.2442Z" fill="#0086D1"/>
<path d="M5.92674 7.31445C5.84448 7.33386 5.3157 8.04012 5.51546 8.76966C5.73481 9.56905 6.64353 9.91054 6.64353 9.91054C6.64353 9.91054 7.24673 9.14219 7.01172 8.29235C6.81196 7.56281 6.03641 7.28729 5.93066 7.31833L5.92674 7.31445Z" fill="#002968"/>
<path d="M18.6918 14.2223C18.7349 14.1524 18.6448 13.2754 17.9985 12.8757C17.2896 12.4372 16.3887 12.7943 16.3887 12.7943C16.3887 12.7943 16.4709 13.7644 17.2269 14.2301C17.8732 14.6298 18.6291 14.3154 18.6879 14.2184L18.6918 14.2223Z" fill="#002968"/>
<path d="M11.7075 9.08432C11.7193 9.16581 12.3499 9.78669 13.1058 9.68968C13.9323 9.58491 14.3984 8.73895 14.3984 8.73895C14.3984 8.73895 13.713 8.04433 12.8277 8.15686C12.0718 8.25388 11.6879 8.97566 11.7036 9.08432H11.7075Z" fill="#002968"/>
<path d="M16.9675 10.3726C17.0459 10.3959 17.8802 10.0816 18.1034 9.35978C18.3502 8.56815 17.7666 7.7998 17.7666 7.7998C17.7666 7.7998 16.8422 8.12965 16.5837 8.97561C16.3604 9.69739 16.8657 10.3416 16.9715 10.3726H16.9675Z" fill="#002968"/>
<path d="M6.27572 12.041C6.21697 11.9828 5.33567 11.8586 4.79122 12.3863C4.19193 12.9607 4.32511 13.9114 4.32511 13.9114C4.32511 13.9114 5.29258 14.0627 5.93495 13.4496C6.48332 12.9257 6.35406 12.1186 6.27572 12.041Z" fill="#002968"/>
<path d="M8.23725 13.8618C8.15499 13.8734 7.53612 14.506 7.6458 15.2549C7.7633 16.0737 8.6211 16.5238 8.6211 16.5238C8.6211 16.5238 9.31439 15.837 9.18905 14.9639C9.08329 14.2188 8.35084 13.8463 8.23725 13.8618Z" fill="#002968"/>
<path d="M7.77424 12.3054C7.85649 12.3054 8.54195 11.7428 8.52236 10.9899C8.49886 10.1634 7.69982 9.61621 7.69982 9.61621C7.69982 9.61621 6.93211 10.2216 6.95561 11.1025C6.97519 11.8592 7.66065 12.3093 7.77424 12.3054Z" fill="#002968"/>
<path d="M11.3114 8.9366C11.3937 8.92108 11.9812 8.2575 11.8363 7.51632C11.6796 6.7014 10.8022 6.29395 10.8022 6.29395C10.8022 6.29395 10.1403 7.01185 10.3087 7.88109C10.4497 8.62227 11.1978 8.95988 11.3114 8.9366Z" fill="#002968"/>
<path d="M10.4701 9.11187C10.4897 9.03038 10.1176 8.23099 9.37335 8.06024C8.55863 7.8701 7.82617 8.49874 7.82617 8.49874C7.82617 8.49874 8.22178 9.38739 9.08741 9.58918C9.82771 9.75992 10.4427 9.22053 10.4701 9.11187Z" fill="#002968"/>
<path d="M9.29171 7.43143C9.33088 7.3577 9.16637 6.49234 8.48875 6.14309C7.74846 5.7628 6.87891 6.18966 6.87891 6.18966C6.87891 6.18966 7.0395 7.14815 7.83071 7.55561C8.50442 7.90098 9.23688 7.52844 9.2878 7.42755L9.29171 7.43143Z" fill="#002968"/>
<path d="M14.1013 7.86584C14.1288 7.94345 14.8847 8.40912 15.6015 8.153C16.3849 7.86972 16.6552 6.94615 16.6552 6.94615C16.6552 6.94615 15.8326 6.41452 14.9944 6.7172C14.2776 6.9772 14.0661 7.76107 14.1013 7.86584Z" fill="#002968"/>
<path d="M12.3347 10.2097C12.3895 10.1437 13.263 9.973 13.8388 10.4658C14.4733 11.0052 14.395 11.9637 14.395 11.9637C14.395 11.9637 13.4353 12.1733 12.7616 11.5989C12.1819 11.1061 12.2642 10.2951 12.3347 10.2136V10.2097Z" fill="#002968"/>
<path d="M15.2913 11.4981C15.3735 11.5136 16.1647 11.1101 16.3057 10.3689C16.4624 9.55397 15.8005 8.85547 15.8005 8.85547C15.8005 8.85547 14.9192 9.28233 14.7507 10.1516C14.6097 10.8928 15.1816 11.4787 15.2913 11.4981Z" fill="#002968"/>
<path d="M13.4778 16.461C13.5601 16.4765 14.3513 16.073 14.4923 15.3318C14.649 14.5207 13.987 13.8184 13.987 13.8184C13.987 13.8184 13.1057 14.2452 12.9373 15.1145C12.7924 15.8556 13.3682 16.4416 13.4778 16.461Z" fill="#002968"/>
<path d="M11.7772 6.44217C11.8595 6.44994 12.6037 5.96099 12.6624 5.20816C12.729 4.3816 11.9887 3.75684 11.9887 3.75684C11.9887 3.75684 11.1622 4.27683 11.0917 5.15771C11.033 5.91054 11.6636 6.43053 11.7772 6.43829V6.44217Z" fill="#002968"/>
<path d="M15.8715 12.3245C15.8519 12.1732 15.7422 12.0839 15.6208 12.1188C14.2303 12.6194 13.3725 12.7087 12.0094 12.8328L11.7823 12.7824C11.6648 12.7746 11.6256 12.6815 11.6099 12.6194L11.5472 9.85647C11.5472 9.61588 11.4493 9.41797 11.3279 9.41797C11.2065 9.41797 11.1086 9.61588 11.1086 9.85647L10.9793 12.5961C10.854 12.9803 10.5171 12.9493 10.5171 12.9493V12.957C9.29895 12.9842 8.68008 12.9997 7.41101 12.666C7.23475 12.6233 7.09766 12.5845 7.09766 12.7126C7.09766 12.8406 7.24258 13.0346 7.42667 13.0773C8.87984 13.6633 9.58488 13.5508 10.9205 13.8728L10.615 18.6692C10.5876 18.999 10.3918 19.0728 10.3918 19.0728H12.0995C12.0094 19.0301 11.9233 18.8244 11.8802 18.7119L11.6413 13.8379C13.1806 13.5119 14.1363 13.2248 15.6874 12.6388C15.8088 12.6078 15.8872 12.4797 15.8715 12.3284V12.3245Z" fill="#002968"/>
<path d="M0.540542 12.6352C0.540542 12.6352 0.493539 12.6352 0.438703 12.6352C0.45437 12.6313 0.485705 12.6197 0.485705 12.6197L0.540542 12.6003L1.58635 12.22L1.57069 12.0259L0.423035 11.7931C0.423035 11.7931 0.407368 11.7931 0.379949 11.7853C0.399534 11.7853 0.434786 11.7776 0.434786 11.7776L1.53935 11.603L1.51977 11.3701H1.48843L-0.00390625 11.6185L0.0195951 11.925L1.04582 12.1268C1.04582 12.1268 1.10849 12.1346 1.16724 12.1423C1.10066 12.1617 1.03407 12.1812 1.03407 12.1812L0.0705147 12.5304L0.0940161 12.8331L1.64119 12.8486L1.6216 12.6235H0.540542V12.6352Z" fill="#002968"/>
<path d="M0.234875 9.07227L0.227041 9.11883L0.195706 9.33614L0.728404 9.70868C0.728404 9.70868 0.787157 9.74748 0.830243 9.77853C0.775407 9.79405 0.712736 9.80957 0.712736 9.80957L0.0938671 10.0075L0.0507812 10.2869C0.0507812 10.2869 1.03 9.94151 1.04567 9.93763C1.06134 9.93763 1.64887 10.0269 1.64887 10.0269L1.68413 9.79017C1.68413 9.79017 1.10443 9.7048 1.09267 9.70091C1.08092 9.69315 0.234875 9.07227 0.234875 9.07227Z" fill="#002968"/>
<path d="M1.73079 7.03531C1.50361 6.94993 1.31952 6.92665 1.15501 6.96546C1.01792 6.9965 0.837742 7.08575 0.743737 7.33023C0.606646 7.68336 0.806407 8.00932 1.26077 8.18007C1.50361 8.26932 1.71904 8.28484 1.89139 8.22275C2.05198 8.16454 2.16949 8.04813 2.23607 7.88126C2.29483 7.7338 2.29483 7.60963 2.23607 7.46217C2.15774 7.26426 2.00889 7.1362 1.73471 7.03143L1.73079 7.03531ZM2.0559 7.80753C2.01281 7.91619 1.91097 8.00932 1.81697 8.02484C1.70729 8.04425 1.51536 8.00544 1.3156 7.93171C1.14718 7.86962 1.04142 7.80365 0.970917 7.72604C0.900413 7.64455 0.884745 7.51649 0.927831 7.40008C0.97875 7.27202 1.08059 7.19441 1.20985 7.18277C1.31952 7.17501 1.46053 7.20605 1.66421 7.27978C1.90314 7.36903 1.98539 7.44664 2.03631 7.52813C2.08723 7.60963 2.09507 7.70276 2.0559 7.80365V7.80753Z" fill="#002968"/>
<path d="M2.23201 4.65707L2.11842 4.82394L2.81563 5.27796C2.81563 5.27796 2.96055 5.36333 3.07023 5.43318C2.97622 5.41766 2.88222 5.40214 2.88222 5.40214L1.80507 5.28572L1.66406 5.49139L2.94097 6.33735L3.07414 6.13944L2.33385 5.65825C2.33385 5.65825 2.22026 5.5884 2.12234 5.5302C2.20068 5.54184 2.28685 5.55348 2.36127 5.56124L3.39533 5.6699L3.52459 5.47975L2.24768 4.63379L2.23201 4.65707Z" fill="#002968"/>
<path d="M4.05314 3.66288L4.2294 3.77542C4.2294 3.77542 4.40566 3.60855 4.44092 3.57363C4.47617 3.60855 4.69943 3.84138 4.71902 3.86467C4.69943 3.92676 4.66418 3.98496 4.60151 4.03929C4.49967 4.13243 4.35866 4.18675 4.26074 4.16347C4.15107 4.14019 4.01789 4.05481 3.88863 3.919C3.79463 3.82198 3.72412 3.72109 3.67712 3.61631C3.59487 3.43393 3.67712 3.29811 3.76329 3.21662C3.84163 3.14289 3.91997 3.10796 4.06098 3.08468H4.0884L4.06489 2.89453H4.03748C3.8808 2.90229 3.74371 2.96438 3.62228 3.07692C3.50478 3.18945 3.44211 3.31363 3.43036 3.46109C3.41077 3.67064 3.50086 3.87631 3.70062 4.08586C3.8808 4.27601 4.05706 4.36914 4.24899 4.38078C4.42133 4.39242 4.58976 4.32645 4.72685 4.19451C4.84044 4.08586 4.93053 3.94228 4.95795 3.81422V3.7987L4.45267 3.27094L4.04531 3.65512L4.05314 3.66288Z" fill="#002968"/>
<path d="M6.01998 2.82512L5.33061 1.78125L5.30711 1.79677L5.13477 1.90931L5.82414 2.95706C5.90639 3.08123 5.93381 3.13944 5.93773 3.18601C5.94556 3.24422 5.91814 3.31795 5.87506 3.38392L5.85156 3.41496L6.03957 3.47705L6.05132 3.46153C6.12966 3.36063 6.16883 3.25198 6.16099 3.1472C6.15707 3.08123 6.13749 3.01914 6.09832 2.95706L6.01607 2.82124L6.01998 2.82512Z" fill="#002968"/>
<path d="M6.80324 0.996993L6.61914 1.08237L7.25759 2.46772L7.46911 2.37459L6.82674 0.985352L6.80324 0.996993Z" fill="#002968"/>
<path d="M11.0809 0H11.0535L10.8498 0.0194027L10.936 1.04775C10.9478 1.17969 10.9399 1.23013 10.9047 1.28446C10.8694 1.33879 10.7872 1.37371 10.6736 1.38536C10.5208 1.397 10.419 1.35043 10.3877 1.24954C10.3759 1.21073 10.3642 1.12536 10.3563 1.03223L10.2741 0.0659693L10.043 0.085372L10.1331 1.137C10.1487 1.30774 10.1605 1.33491 10.2036 1.40088C10.2936 1.54834 10.4503 1.61043 10.6853 1.59102C10.8694 1.5755 10.9909 1.52894 11.0809 1.4358C11.171 1.34267 11.1906 1.26118 11.171 1.04387L11.0849 0L11.0809 0Z" fill="#002968"/>
<path d="M13.2661 0.970419C13.2661 0.970419 13.2505 1.13728 13.2387 1.26534C13.2113 1.17609 13.1839 1.08684 13.1839 1.08684L12.8196 0.0778937L12.5689 0.0429688V0.0701326L12.3574 1.54862L12.5964 1.57967L12.7099 0.706542C12.7099 0.706542 12.7217 0.574604 12.7334 0.462068C12.7569 0.535798 12.7844 0.61729 12.8079 0.68714L13.1604 1.65728L13.3915 1.68832L13.603 0.182668L13.3719 0.151624L13.2661 0.970419Z" fill="#002968"/>
<path d="M15.0404 0.581851L14.5586 2.00213L14.7779 2.07586L15.2676 0.628418L15.0521 0.554688L15.0404 0.581851Z" fill="#002968"/>
<path d="M16.6398 2.31242C16.6398 2.31242 16.5576 2.39391 16.491 2.45988C16.5106 2.39391 16.5301 2.31242 16.5419 2.23481L16.7299 1.24139L16.5106 1.12109L16.5027 1.1599L16.2207 2.70436L16.4087 2.80913L17.6151 1.72646L17.4036 1.61004L16.6398 2.3163V2.31242Z" fill="#002968"/>
<path d="M18.7392 2.81731C18.7783 2.85223 19.1974 3.20536 19.1974 3.20536L19.358 3.07342L18.6961 2.51074L18.6765 2.53403L17.6973 3.65938L18.371 4.2337L18.5081 4.0746C18.5081 4.0746 18.0537 3.68655 18.0145 3.6555C18.0459 3.62058 18.2966 3.32954 18.3279 3.29461C18.3671 3.32566 18.7117 3.62058 18.7117 3.62058L18.8488 3.46148C18.8488 3.46148 18.5041 3.16655 18.465 3.13551C18.4963 3.10059 18.7078 2.85223 18.7392 2.81731Z" fill="#002968"/>
<path d="M20.729 4.76123C20.729 4.64869 20.6859 4.54004 20.5723 4.39258L20.3451 4.09766L20.3216 4.11318L19.127 5.02511L19.2719 5.20749C19.2719 5.20749 19.7419 4.85048 19.7928 4.8078C19.8046 4.8272 19.8163 4.84272 19.8163 4.86212C19.8163 4.88153 19.8124 4.90869 19.8046 4.93973C19.7811 5.04839 19.738 5.18809 19.6753 5.36659L19.5774 5.59167L19.5852 5.60719L19.7537 5.8245L19.8986 5.40152L19.9299 5.30063L19.9613 5.19973C19.973 5.15705 19.9887 5.09884 19.9965 5.03675C20.067 5.11048 20.1493 5.16481 20.2433 5.17645C20.3529 5.19197 20.4665 5.15705 20.5684 5.07943C20.7094 4.97078 20.7329 4.83108 20.7368 4.75347L20.729 4.76123ZM20.2158 4.96302C20.1493 4.95526 20.0866 4.90869 20.0122 4.8078C20.0122 4.8078 19.9613 4.74183 19.9338 4.7069C19.973 4.67586 20.2864 4.43914 20.3255 4.4081C20.349 4.43914 20.4117 4.52064 20.4117 4.52064C20.4548 4.57884 20.4822 4.62541 20.4979 4.67586C20.5018 4.69138 20.5057 4.7069 20.5057 4.7263C20.5057 4.78839 20.4744 4.85436 20.4195 4.89705C20.349 4.95138 20.2746 4.97854 20.2198 4.9669L20.2158 4.96302Z" fill="#002968"/>
<path d="M21.3194 7.19083C21.3585 7.10546 21.3624 7.02009 21.3429 6.87651L21.3194 6.70188C21.2919 6.50786 21.335 6.44577 21.4173 6.40696C21.4721 6.3798 21.523 6.37592 21.57 6.39532C21.6327 6.4186 21.6836 6.47293 21.7267 6.55442C21.7776 6.66308 21.7894 6.75233 21.7659 6.91531V6.94636L21.9656 6.96576V6.9386C21.997 6.76397 21.9735 6.60875 21.903 6.46129C21.7737 6.18965 21.5191 6.08488 21.2724 6.20129C21.1823 6.24398 21.1157 6.31383 21.0804 6.40308C21.0491 6.48845 21.053 6.56994 21.0726 6.70964L21.0961 6.86099C21.1235 7.03173 21.0843 7.1365 20.9786 7.18695C20.9081 7.22188 20.8376 7.218 20.7671 7.18695C20.7044 7.15203 20.6652 7.10934 20.6182 7.01621C20.5556 6.88427 20.5399 6.76397 20.5634 6.62427V6.59323L20.3519 6.57771V6.60487C20.3284 6.78337 20.3558 6.9386 20.4341 7.10158C20.4929 7.22576 20.5673 7.30725 20.6692 7.37322C20.8141 7.45471 20.9747 7.47023 21.1078 7.40426C21.1979 7.36158 21.2763 7.28008 21.3154 7.19083H21.3194Z" fill="#002968"/>
<path d="M22.5568 8.26172L22.5294 8.26948L21.0723 8.66141L21.1349 8.88261L22.6194 8.47903L22.5568 8.26172Z" fill="#002968"/>
<path d="M21.4023 10.3412L21.4258 10.5663C21.4258 10.5663 22.6988 10.446 22.7537 10.4421C22.7576 10.4925 22.7928 10.8379 22.7928 10.8379H23.0004L22.9025 9.80566H22.8751L22.6988 9.82507C22.6988 9.82507 22.7302 10.1666 22.738 10.217C22.6832 10.2209 21.4102 10.3412 21.4102 10.3412H21.4023Z" fill="#002968"/>
<path d="M22.9691 12.297L23.0005 12.0176L22.9574 12.037C22.9574 12.037 22.0369 12.4056 22.0252 12.4095C22.0095 12.4095 21.418 12.3435 21.418 12.3435L21.3906 12.5803C21.3906 12.5803 21.9703 12.6423 21.986 12.6423C21.9977 12.6501 22.8673 13.2361 22.8673 13.2361L22.8947 12.9722L22.3463 12.6229C22.3463 12.6229 22.2876 12.5841 22.2406 12.557C22.2915 12.5415 22.3581 12.5182 22.3581 12.5182L22.9691 12.297Z" fill="#002968"/>
<path d="M2.18916 16.0458C2.18916 16.2127 2.05207 16.3485 1.88364 16.3485C1.71522 16.3485 1.57812 16.2127 1.57812 16.0458C1.57812 15.879 1.71522 15.7432 1.88364 15.7432C2.05207 15.7432 2.18916 15.879 2.18916 16.0458Z" fill="#002968"/>
<path d="M21.4333 16.0458C21.4333 16.2127 21.2962 16.3485 21.1278 16.3485C20.9594 16.3485 20.8223 16.2127 20.8223 16.0458C20.8223 15.879 20.9594 15.7432 21.1278 15.7432C21.2962 15.7432 21.4333 15.879 21.4333 16.0458Z" fill="#002968"/>
</g>
<defs>
<clipPath id="clip0_4956_56230">
<rect width="23" height="23" fill="white"/>
</clipPath>
</defs>
</svg>
