<svg width="23" height="23" viewBox="0 0 23 23" fill="none" xmlns="http://www.w3.org/2000/svg">
<path d="M11.5005 23C17.8427 23 23 17.839 23 11.5005C23 5.16212 17.8427 0 11.5005 0C5.15842 0 0 5.15997 0 11.5005C0 17.8411 5.15842 23 11.5005 23ZM0.481653 11.5005C0.481653 5.42448 5.42505 0.482773 11.5005 0.482773C17.576 0.482773 22.5162 5.42448 22.5162 11.5005C22.5162 17.5766 17.576 22.5172 11.5005 22.5172C5.42505 22.5172 0.481653 17.5744 0.481653 11.5005Z" fill="#C10230"/>
<path d="M19.4258 10.354C18.8764 6.44239 15.4812 3.49414 11.528 3.49414C7.57479 3.49414 4.17956 6.43916 3.62695 10.3444L4.05915 10.4046C4.58058 6.71119 7.79196 3.92853 11.528 3.92853C15.264 3.92853 18.4765 6.7155 18.9958 10.4142L19.4258 10.353V10.354Z" fill="#C10230"/>
<path d="M9.4199 16.8126V16.7223L9.62633 16.6987L9.67578 16.6815L9.69728 16.6234C9.70481 16.5653 9.70911 16.4406 9.70911 16.2449V15.9847C9.70911 15.8955 9.70911 15.7965 9.70589 15.6933L9.70374 15.5998L9.69621 15.5568L9.67901 15.5449L9.6317 15.5632C9.49086 15.6256 9.40163 15.6643 9.36185 15.6879L9.34895 15.6804L9.33819 15.6105L9.32422 15.5417L9.32637 15.5342C9.45646 15.4987 9.55967 15.4643 9.63708 15.4406C9.71341 15.4138 9.83275 15.3708 9.99509 15.3105L10.0198 15.3267C10.0198 15.3385 10.0166 15.3708 10.0123 15.4299C10.008 15.4858 10.0048 15.5224 10.0048 15.5396C10.0048 15.6009 10.0005 15.7621 9.99617 16.0213V16.1836C9.99617 16.3395 9.99832 16.4503 10.0048 16.5105C10.0048 16.6051 10.0091 16.6567 10.0166 16.6728L10.0392 16.6954C10.0564 16.703 10.1069 16.7105 10.1929 16.7148L10.2628 16.7202V16.8105C10.1037 16.8051 9.97574 16.803 9.8779 16.803C9.81125 16.803 9.65643 16.8051 9.41668 16.8105L9.4199 16.8126Z" fill="#C10230"/>
<path d="M11.1343 15.986L11.0655 16.0645L10.9666 16.0936L10.858 16.0549L10.7774 15.9516C10.758 15.9022 10.7473 15.8366 10.7473 15.757C10.7473 15.6474 10.7645 15.5721 10.8021 15.5269C10.8387 15.4807 10.8828 15.457 10.9387 15.457C11.0096 15.457 11.0655 15.4904 11.0999 15.5581C11.1365 15.6259 11.1548 15.7205 11.1548 15.843C11.1548 15.9054 11.1494 15.9516 11.1354 15.986H11.1343ZM10.9387 16.7882C11.0301 16.7505 11.1128 16.6935 11.1913 16.6183C11.2666 16.543 11.3279 16.4516 11.3719 16.3452C11.4171 16.2387 11.4397 16.1086 11.4397 15.9559C11.4397 15.8226 11.4225 15.7151 11.3891 15.6302C11.3558 15.542 11.3042 15.4721 11.2322 15.4194C11.1634 15.3656 11.0741 15.3398 10.9645 15.3398C10.8236 15.3398 10.7086 15.3861 10.6172 15.4839C10.5247 15.5818 10.4785 15.7086 10.4785 15.8732C10.4785 16.0076 10.5129 16.1097 10.5764 16.1839C10.6387 16.2527 10.7183 16.2903 10.8118 16.2903L10.9677 16.2645L11.0053 16.2398C11.0311 16.2194 11.0763 16.1774 11.1472 16.1151C11.1354 16.2269 11.1236 16.3108 11.1064 16.3656C11.0838 16.4366 11.0526 16.5011 11.0161 16.5591C10.9752 16.6183 10.9236 16.6613 10.8602 16.6989C10.7989 16.7333 10.7312 16.7527 10.6591 16.7527L10.5807 16.7387L10.5548 16.7806L10.6387 16.8495C10.7451 16.8495 10.8441 16.8312 10.9354 16.7903L10.9387 16.7882Z" fill="#C10230"/>
<path d="M11.933 15.879C11.9771 15.7995 12.0491 15.678 12.1513 15.5145L12.1459 15.7156L12.1437 15.8565L12.1394 16.2511H11.7481C11.8266 16.0823 11.8878 15.9586 11.9341 15.8801L11.933 15.879ZM12.2512 16.8048L12.5297 16.8102H12.6168V16.7209L12.4759 16.708L12.4319 16.6887L12.4136 16.6543C12.4082 16.6156 12.4071 16.5425 12.4071 16.4339H12.6114L12.6039 16.3532L12.6114 16.2554L12.6039 16.2435L12.448 16.25H12.4071V16.0048C12.4082 15.7737 12.4104 15.6264 12.4136 15.5597C12.4179 15.4586 12.42 15.3801 12.4243 15.3307L12.405 15.3135C12.3921 15.3135 12.3458 15.321 12.2631 15.3404L12.1341 15.3662C12.1039 15.4059 12.0523 15.4791 11.9825 15.592C11.9126 15.7027 11.8276 15.8565 11.7266 16.0511C11.6535 16.1941 11.6062 16.2909 11.5879 16.3468L11.6008 16.4382C11.733 16.4328 11.862 16.4328 11.9932 16.4328H12.1384C12.1341 16.5468 12.1341 16.6091 12.1308 16.6209L12.1125 16.6865L12.0781 16.7016C12.0609 16.708 11.9943 16.7113 11.876 16.7188V16.8091L12.2512 16.8016V16.8048Z" fill="#C10230"/>
<path d="M13.1176 15.6108C13.1327 15.556 13.1574 15.5162 13.1864 15.4914L13.2886 15.456L13.3789 15.485L13.4445 15.5732C13.4627 15.614 13.4767 15.6753 13.4864 15.7549C13.5058 15.9054 13.5165 16.0538 13.5165 16.2054C13.5165 16.4398 13.495 16.5839 13.4584 16.6452C13.4187 16.7032 13.3714 16.7344 13.3133 16.7344L13.1864 16.672C13.1499 16.629 13.1241 16.5419 13.108 16.4118C13.0918 16.2796 13.0832 16.1291 13.0832 15.9688C13.0832 15.8086 13.094 15.6904 13.1176 15.6108ZM12.837 16.429C12.8532 16.5215 12.8779 16.6011 12.9177 16.6591C12.9574 16.7204 13.0069 16.7688 13.0682 16.8011C13.1316 16.8322 13.2015 16.8473 13.2854 16.8473C13.3552 16.8473 13.4144 16.8376 13.4627 16.8172L13.5961 16.7344C13.6348 16.6968 13.6713 16.6452 13.7014 16.5806C13.7337 16.5183 13.7573 16.4398 13.767 16.3506C13.7778 16.2602 13.7853 16.1559 13.7853 16.0355C13.7853 15.8656 13.7692 15.7334 13.7401 15.6388C13.71 15.5431 13.6616 15.4689 13.5939 15.4151C13.5262 15.3656 13.4348 15.3398 13.3133 15.3398C13.2553 15.3398 13.1993 15.3484 13.1467 15.3656L13.0101 15.4495C12.9703 15.4828 12.9349 15.5302 12.9048 15.5871C12.8747 15.6441 12.851 15.7054 12.8413 15.7753C12.8231 15.8775 12.8145 15.9914 12.8145 16.1183C12.8145 16.2334 12.822 16.3366 12.8338 16.429H12.837Z" fill="#C10230"/>
<path d="M8.39478 1.74568L8.43026 1.77148L8.46251 1.84352C8.49047 1.93491 8.5152 2.03383 8.54207 2.14888L8.61411 2.45532L8.66786 2.68649C8.69797 2.81552 8.71624 2.89078 8.72914 2.92089L8.8087 3.05744C8.84633 3.10045 8.89471 3.13593 8.95277 3.16496C9.01082 3.19615 9.08286 3.21227 9.16564 3.2198C9.2796 3.22733 9.39787 3.21765 9.51936 3.18754C9.62472 3.16281 9.71288 3.13163 9.78921 3.0897C9.86339 3.04669 9.92468 2.99831 9.97306 2.94347C10.0193 2.88433 10.0526 2.82304 10.0709 2.76283C10.0913 2.69939 10.0967 2.62843 10.0892 2.54886C10.0816 2.4693 10.0709 2.39188 10.0515 2.31984L9.98596 2.03383C9.9666 1.95319 9.94403 1.83707 9.915 1.69191C9.88705 1.54569 9.87307 1.46182 9.87522 1.44139L9.8892 1.39946C9.9064 1.38225 9.95155 1.36505 10.0268 1.35L10.0042 1.25L9.7376 1.31989L9.70535 1.33064C9.67847 1.33602 9.58924 1.35322 9.44302 1.3801L9.4656 1.48117C9.55591 1.46074 9.61612 1.45644 9.6473 1.46504L9.6817 1.48655C9.69568 1.5059 9.7161 1.56611 9.74191 1.66611C9.75373 1.71234 9.78383 1.84352 9.83329 2.05426L9.8892 2.30156C9.93113 2.47145 9.94403 2.59295 9.92898 2.66069C9.91607 2.72843 9.8806 2.78756 9.82146 2.84347C9.76556 2.89508 9.67955 2.93809 9.56774 2.9639C9.46883 2.98648 9.38819 2.99078 9.31723 2.97573C9.24735 2.9639 9.19252 2.93702 9.15274 2.89616C9.10974 2.85853 9.07641 2.80047 9.05275 2.72627C9.03985 2.69294 9.01728 2.60262 8.98395 2.45532L8.94847 2.31447L8.88289 2.03383C8.84418 1.86287 8.82375 1.7532 8.82375 1.70052L8.83666 1.65106C8.85816 1.62955 8.91084 1.61127 8.99792 1.58977L8.9732 1.4887L8.92912 1.50053L8.76785 1.54138L8.60443 1.58439L8.21094 1.66718L8.23566 1.76718L8.39693 1.74568H8.39478Z" fill="#C10230"/>
<path d="M11.0304 2.89446V2.79447H11.0056L10.8906 2.78479L10.8476 2.77081L10.8315 2.74823C10.825 2.7278 10.8197 2.67189 10.8164 2.5762C10.8121 2.43965 10.81 2.30632 10.81 2.17837V1.56872C11.2959 2.15901 11.669 2.602 11.9345 2.89984C12.0044 2.90629 12.0754 2.91812 12.1442 2.92995L12.1592 2.91919C12.1474 2.80307 12.1442 2.47298 12.1442 1.92892C12.1442 1.85903 12.1442 1.75151 12.1474 1.60743C12.1528 1.46012 12.1603 1.3655 12.1721 1.32572L12.1861 1.30744C12.2044 1.29669 12.2646 1.28809 12.3646 1.28486V1.18164C12.2356 1.18594 12.1313 1.18809 12.0507 1.18809C11.97 1.18809 11.8765 1.18594 11.7754 1.18164V1.28486C11.884 1.28701 11.9496 1.29669 11.9668 1.30959L11.9905 1.36873C11.9969 1.44722 12.0034 1.70527 12.0034 2.14504V2.42889C11.8894 2.31492 11.7486 2.15041 11.5755 1.94182C11.3346 1.65689 11.1325 1.40636 10.9637 1.18272L10.8508 1.18702L10.6724 1.18917C10.624 1.18917 10.5476 1.18702 10.4434 1.18272V1.28594C10.5283 1.29239 10.5831 1.29776 10.5993 1.30099L10.639 1.32249L10.6573 1.36228C10.6616 1.38056 10.6638 1.42034 10.6638 1.48163L10.6702 1.83645V2.23105C10.6702 2.33965 10.6681 2.42889 10.6638 2.49663C10.6595 2.61598 10.6519 2.6891 10.6476 2.72135L10.6315 2.76651L10.6079 2.78157C10.595 2.78587 10.539 2.78802 10.4434 2.79554V2.90092C10.5799 2.89554 10.6863 2.89124 10.767 2.89124C10.7863 2.89124 10.8756 2.89124 11.0314 2.89446H11.0304Z" fill="#C10230"/>
<path d="M3.49215 5.15043L3.53301 5.1343L3.57386 5.1472L3.66632 5.21709L3.93833 5.44826L4.23398 5.70954C4.31677 5.78051 4.38235 5.83749 4.43073 5.88695C4.51566 5.97082 4.5705 6.02566 4.58877 6.04823L4.6135 6.09017L4.61027 6.11812C4.60382 6.13103 4.5705 6.17619 4.51136 6.25038L4.58985 6.32134C4.67693 6.21597 4.74574 6.13425 4.79842 6.07189C4.8124 6.05899 4.87153 5.99232 4.97474 5.87512L4.90056 5.81169L4.8855 5.82997L4.80165 5.91168L4.76617 5.93426L4.73714 5.93104C4.71671 5.92243 4.66941 5.88803 4.5963 5.82889C4.49094 5.73965 4.38988 5.65578 4.29419 5.57299L3.83511 5.16871C4.59845 5.19559 5.17901 5.20741 5.57573 5.20204C5.63056 5.15473 5.68324 5.11064 5.737 5.06656L5.73915 5.04506C5.64561 4.97624 5.39404 4.7655 4.98549 4.4053C4.93389 4.36014 4.85325 4.28703 4.74681 4.18811C4.63823 4.08811 4.57372 4.02037 4.55222 3.98489L4.54684 3.96231C4.54899 3.94081 4.58447 3.89242 4.64683 3.81393L4.56942 3.74512C4.48879 3.84511 4.4232 3.92575 4.37052 3.98704C4.31354 4.04833 4.25226 4.11822 4.18023 4.18811L4.25656 4.25477C4.33182 4.1752 4.37912 4.13112 4.40278 4.12789L4.46083 4.15047C4.52534 4.19348 4.72424 4.36122 5.05537 4.65045L5.26825 4.83754C5.10483 4.84614 4.88873 4.84722 4.61995 4.83969C4.24581 4.83109 3.92112 4.81711 3.64589 4.79668L3.57386 4.88592L3.45882 5.02033C3.42872 5.05903 3.37389 5.11387 3.30078 5.18806L3.38034 5.25687C3.44162 5.19559 3.47925 5.1601 3.4943 5.15043H3.49215Z" fill="#C10230"/>
<path d="M13.2726 3.07764L13.2898 2.97442C13.2124 2.96045 13.1651 2.95077 13.149 2.94324L13.1178 2.92711L13.1049 2.90023C13.1017 2.87335 13.1049 2.78518 13.1178 2.70562L13.1457 2.48842L13.2156 2.01425C13.2199 2.00135 13.235 1.8949 13.2683 1.70244C13.2769 1.64438 13.2866 1.60782 13.2898 1.58739L13.3124 1.51428L13.3274 1.49815L13.3608 1.4874C13.3769 1.48525 13.4231 1.48847 13.5016 1.5003L13.5199 1.396C13.3898 1.37987 13.2543 1.36267 13.1113 1.34224C12.9845 1.32181 12.8705 1.30461 12.7716 1.28418L12.7565 1.38848C12.8415 1.4046 12.8909 1.41536 12.9049 1.42073L12.9307 1.43794L12.9372 1.46374C12.9372 1.48847 12.9329 1.55191 12.9243 1.65083C12.9189 1.69814 12.9049 1.79921 12.8813 1.95512L12.8081 2.44649C12.7963 2.52713 12.7802 2.61423 12.7587 2.70562C12.7436 2.77121 12.7361 2.84002 12.7329 2.84862L12.7211 2.86583L12.6834 2.87443C12.6705 2.87443 12.6211 2.8712 12.5426 2.86153L12.5254 2.96475C12.6243 2.9755 12.7383 2.99055 12.8641 3.00991C13.0103 3.03249 13.1457 3.05291 13.2737 3.07872L13.2726 3.07764Z" fill="#C10230"/>
<path d="M19.9191 6.1684C19.8836 6.19528 19.7955 6.24904 19.6622 6.32968L19.2386 6.59418C19.1676 6.63719 19.0924 6.68235 19.0096 6.72536C18.9515 6.75654 18.8935 6.79417 18.8827 6.79848L18.8612 6.80063L18.8332 6.7759C18.8236 6.76622 18.7956 6.72751 18.7483 6.66192L18.6602 6.71461C18.7171 6.7974 18.7806 6.89202 18.8472 6.99954C18.9246 7.12642 18.9945 7.24577 19.0601 7.35759L19.1493 7.29953C19.1096 7.23394 19.0859 7.19416 19.0816 7.17695L19.0752 7.1404L19.087 7.11244C19.1053 7.09309 19.173 7.03932 19.2407 6.99632L19.4246 6.87912L19.8331 6.62536C19.846 6.61891 19.9352 6.56515 20.103 6.46408L20.2029 6.40602L20.275 6.37376L20.2997 6.37591L20.3287 6.39312C20.3384 6.40495 20.3664 6.44365 20.4115 6.51247L20.4997 6.45548C20.4287 6.34903 20.3524 6.23184 20.275 6.11034C20.2083 5.99959 20.1513 5.90282 20.1019 5.8125L20.0116 5.87056C20.0535 5.94475 20.0793 5.99099 20.0815 6.00281L20.0858 6.03507L20.0729 6.05765C20.0546 6.07485 20.003 6.11034 19.9202 6.16732L19.9191 6.1684Z" fill="#C10230"/>
<path d="M14.0425 1.7656C14.0511 1.83441 14.0694 2.04193 14.0974 2.38385L14.1307 2.82684C14.1425 2.9892 14.1554 3.16231 14.1672 3.34187L14.3414 3.39993C14.4306 3.28381 14.5908 3.08919 14.8241 2.82254L15.1004 2.50642L15.2445 2.34407C15.3606 2.20859 15.4337 2.1387 15.4606 2.12687C15.4757 2.12257 15.5208 2.12687 15.595 2.14838L15.6283 2.04731L15.38 1.97312L15.094 1.87097L15.0607 1.96882L15.1821 2.01935L15.2219 2.03655L15.2338 2.05698L15.2305 2.08709L15.2198 2.11612C15.2015 2.143 15.1596 2.19891 15.0972 2.2774C15.0048 2.3903 14.9564 2.45374 14.9456 2.46772L14.4833 3.00963L14.4285 2.21289V2.18924C14.4285 2.18278 14.4253 2.1387 14.4199 2.06021C14.4091 1.92151 14.4081 1.83979 14.4167 1.81828L14.436 1.79248L14.4758 1.78818C14.508 1.7914 14.5564 1.80216 14.6166 1.82259L14.651 1.72367L14.2393 1.59571C14.1995 1.58389 14.0909 1.5441 13.9092 1.47852L13.877 1.57529C13.9479 1.60109 13.9909 1.62475 14.0103 1.6441C14.0232 1.657 14.035 1.69894 14.0447 1.7656H14.0425Z" fill="#C10230"/>
<path d="M15.8973 2.79497L15.6263 3.26269C15.5941 3.31645 15.5414 3.40139 15.4672 3.51644C15.4285 3.57773 15.3963 3.62504 15.3758 3.65084L15.2404 3.65407L15.207 3.7089C15.4253 3.82825 15.5403 3.89492 15.5554 3.90459C15.6188 3.939 15.7328 4.00566 15.893 4.10351L16.0596 4.20566C16.1413 4.25297 16.2047 4.28522 16.2531 4.30458L16.2725 4.30027C16.3262 4.20996 16.3983 4.10351 16.4939 3.97556L16.409 3.92502C16.3391 4.01104 16.2908 4.06588 16.2585 4.09276L16.2338 4.10136C16.2155 4.10351 16.1714 4.08846 16.1058 4.05512C16.0392 4.02287 15.9682 3.98631 15.8919 3.94223C15.8166 3.89814 15.751 3.85943 15.6984 3.82073L15.7682 3.6917L16.022 3.25086C16.0682 3.27344 16.1252 3.30462 16.1929 3.34225C16.266 3.38526 16.3262 3.42612 16.3692 3.45945L16.4004 3.51106C16.4004 3.53687 16.3768 3.59171 16.3273 3.6702L16.4165 3.72181L16.5456 3.48956L16.6832 3.26484L16.5982 3.21753C16.5628 3.27667 16.5305 3.32075 16.5058 3.34118L16.481 3.35301L16.4101 3.32398C16.3101 3.26914 16.2531 3.23688 16.2359 3.22613L16.0908 3.13904L16.2155 2.92399C16.2843 2.8025 16.3488 2.70465 16.4026 2.63476C16.4681 2.66702 16.5348 2.6982 16.5972 2.73691C16.6606 2.77454 16.7272 2.81647 16.7896 2.86593L16.8649 2.93045V2.9584C16.8573 2.97991 16.8305 3.03152 16.7864 3.11431L16.867 3.16054C16.9251 3.0756 16.9573 3.02614 16.9649 3.01969L17.0713 2.87991V2.86163L17.039 2.83583C16.9659 2.78852 16.9175 2.75841 16.8907 2.74551L16.6778 2.62723C16.5585 2.56165 16.4542 2.50143 16.3596 2.4466L16.2219 2.36811L15.9854 2.21973L15.9327 2.31004C16.0123 2.36273 16.0585 2.39499 16.0714 2.41434L16.079 2.44122C16.0779 2.4595 16.0531 2.51111 16.0112 2.59068C15.9446 2.70788 15.9069 2.77884 15.8951 2.79497H15.8973Z" fill="#C10230"/>
<path d="M1.40804 9.83011L1.43062 9.81721C1.44997 9.81291 1.50588 9.82043 1.59511 9.83764C1.72628 9.86452 1.80261 9.88172 1.82304 9.88495L2.34877 10.0086C2.41113 10.0237 2.50789 10.0516 2.63905 10.0871C2.71324 10.1064 2.76484 10.1226 2.79602 10.1355L2.83472 10.2656L2.89923 10.2806C2.94976 10.0387 2.97879 9.90645 2.98417 9.88602C2.99814 9.81828 3.03147 9.69033 3.0777 9.50647L3.12393 9.31831C3.14436 9.22691 3.15833 9.15487 3.16479 9.10326L3.15296 9.08498C3.05297 9.06241 2.92826 9.02477 2.77882 8.97209L2.75517 9.06778C2.8573 9.10756 2.92503 9.13767 2.95836 9.16133L2.97556 9.1796C2.98309 9.20003 2.97986 9.24304 2.96911 9.31831C2.95836 9.39142 2.94116 9.46884 2.92396 9.55378C2.90461 9.6398 2.8831 9.71291 2.86483 9.77743C2.82397 9.76775 2.77559 9.76022 2.72076 9.74624L2.22621 9.63227C2.23373 9.58174 2.24556 9.5183 2.26169 9.44303C2.28211 9.35917 2.30254 9.2925 2.32404 9.23982L2.36382 9.19681C2.38855 9.19036 2.44446 9.19681 2.53477 9.21724L2.55734 9.11509L2.30147 9.06241L2.04666 8.99789L2.02301 9.09359C2.09289 9.11187 2.14127 9.12692 2.16815 9.1452L2.1875 9.16778L2.17998 9.24304C2.15632 9.35379 2.14342 9.41938 2.1402 9.43766C2.12407 9.49679 2.11009 9.55163 2.09289 9.60109L1.85529 9.54733C1.71768 9.51507 1.60909 9.48389 1.52308 9.45378C1.53491 9.37959 1.54781 9.30756 1.56393 9.23982C1.58114 9.16563 1.60264 9.08929 1.62952 9.0151L1.67145 8.92693L1.69617 8.9151C1.71768 8.9151 1.77573 8.92693 1.86819 8.94521L1.88862 8.85489C1.79078 8.82478 1.73488 8.8065 1.72413 8.80435L1.56178 8.74414L1.54351 8.74737L1.52846 8.78392C1.50265 8.86887 1.4919 8.92693 1.48438 8.95596L1.436 9.19358C1.40697 9.32476 1.38116 9.44303 1.35644 9.54948L1.31988 9.70324L1.25 9.97312L1.35106 9.99354C1.37794 9.90323 1.39622 9.85162 1.41019 9.83119L1.40804 9.83011Z" fill="#C10230"/>
<path d="M17.3236 3.71646L17.0397 4.05945L16.8075 4.32611L16.7086 4.42288L16.6817 4.44438L16.657 4.44008C16.6419 4.43578 16.5957 4.40352 16.5237 4.34869L16.457 4.42933C16.5409 4.49384 16.6333 4.56481 16.728 4.64437C16.8365 4.73362 16.9419 4.82501 17.0462 4.91318L17.1118 4.83361C17.0526 4.78308 17.0204 4.75189 17.0096 4.73684L16.9892 4.70566V4.68523L17.0344 4.60997C17.0483 4.58954 17.1043 4.5175 17.2075 4.38632C17.2924 4.28202 17.3709 4.1831 17.4472 4.09064C17.4977 4.0315 17.5967 3.9186 17.7407 3.74657C17.8063 3.67022 17.8515 3.62291 17.8697 3.59818L17.9643 3.66592C18.0321 3.71861 18.0751 3.76162 18.0923 3.79603C18.1202 3.84226 18.1321 3.8971 18.1299 3.95731C18.1256 4.01537 18.0987 4.07666 18.0525 4.13042C18.0063 4.18418 17.9514 4.22504 17.888 4.24869C17.8246 4.27665 17.7654 4.28095 17.716 4.2659C17.6633 4.25514 17.5988 4.21536 17.53 4.15192L17.4934 4.17235L17.502 4.28202C17.4956 4.36804 17.4838 4.48201 17.4644 4.62179L17.3913 5.11209L17.3709 5.18306L17.5214 5.30133C17.5655 5.33574 17.6311 5.39488 17.7267 5.47337L17.7891 5.39595L17.7353 5.34219L17.7246 5.2938C17.7246 5.27338 17.7278 5.21531 17.731 5.11424C17.731 5.10887 17.7364 5.06156 17.7461 4.97231L17.7805 4.63577L17.7827 4.60997L17.7913 4.52932L17.8095 4.4003C17.9364 4.44331 18.0471 4.45406 18.1417 4.4304C18.2396 4.4089 18.317 4.35944 18.3783 4.28417C18.432 4.22074 18.4589 4.15515 18.4621 4.08311C18.4654 4.00892 18.446 3.94656 18.4105 3.89495C18.374 3.84011 18.3062 3.77345 18.2105 3.6928C18.16 3.65087 18.0955 3.60141 18.017 3.5412C17.9676 3.50679 17.9106 3.46056 17.8472 3.4068C17.7708 3.34443 17.7117 3.29605 17.673 3.25949C17.5902 3.18745 17.5429 3.14552 17.5278 3.13477L17.4666 3.21003C17.5364 3.27992 17.5762 3.324 17.587 3.34228V3.36916C17.5816 3.38852 17.545 3.4369 17.4838 3.51539L17.3279 3.71538L17.3236 3.71646Z" fill="#C10230"/>
<path d="M18.1736 5.93082C18.1199 5.86093 18.0855 5.78459 18.0715 5.70503C18.0564 5.61901 18.0575 5.55235 18.0801 5.49751C18.1414 5.4373 18.1962 5.38999 18.2435 5.35451L18.1801 5.27387C18.0328 5.38999 17.9124 5.4631 17.8242 5.49966C17.8446 5.60288 17.8715 5.68998 17.9038 5.76094C17.9371 5.83298 17.9823 5.91039 18.0425 5.98781C18.1253 6.09533 18.2113 6.17812 18.3016 6.22973C18.3575 6.26307 18.4231 6.2878 18.4962 6.30285C18.5693 6.31898 18.6413 6.3222 18.7047 6.3136C18.7951 6.29962 18.88 6.25877 18.9606 6.19748L19.0746 6.08135L19.1316 5.96416L19.138 5.8362C19.1337 5.79212 19.1176 5.73621 19.0918 5.676C19.08 5.65019 19.0531 5.60396 19.0133 5.52654C18.9757 5.45343 18.9456 5.39214 18.9251 5.35128C18.9004 5.29107 18.8854 5.24376 18.8821 5.20828L18.9004 5.10291L18.9875 5.00184C19.0466 4.95775 19.1165 4.9427 19.1982 4.95453C19.2778 4.97065 19.3509 5.02119 19.4186 5.10936C19.4627 5.16849 19.4939 5.23086 19.5122 5.29752C19.5283 5.36311 19.5294 5.41687 19.5165 5.45665C19.4885 5.48783 19.438 5.52977 19.367 5.58998L19.4261 5.66847C19.4939 5.62009 19.5509 5.58353 19.5928 5.55557L19.7315 5.48246L19.7476 5.45665C19.7347 5.39321 19.71 5.3244 19.6723 5.25021C19.6358 5.17602 19.5906 5.10828 19.539 5.03947C19.4885 4.9728 19.4337 4.91474 19.3702 4.86206C19.31 4.81045 19.2423 4.77711 19.1724 4.75346C19.1004 4.72658 19.0251 4.7255 18.9413 4.74378C18.8542 4.75776 18.78 4.79217 18.7069 4.84915L18.5822 4.98248C18.5499 5.03409 18.5327 5.08893 18.5263 5.14699C18.522 5.20398 18.5316 5.26741 18.5564 5.33515C18.5736 5.38031 18.6144 5.46956 18.68 5.60611C18.723 5.70288 18.7488 5.77062 18.7563 5.81685L18.7402 5.93835L18.6553 6.04157L18.5005 6.11254C18.4456 6.11684 18.3908 6.10501 18.3317 6.07275C18.2736 6.04157 18.222 5.99749 18.1736 5.9362V5.93082Z" fill="#C10230"/>
<path d="M1.84768 11.6356C1.90251 11.6152 1.9509 11.5873 1.99175 11.5453C2.03153 11.5034 2.06486 11.4486 2.08744 11.3787C2.10356 11.3335 2.12614 11.2367 2.15947 11.0916C2.18635 10.9905 2.21107 10.9195 2.23365 10.8808L2.32289 10.7927L2.45298 10.7658C2.51426 10.7701 2.56801 10.783 2.61532 10.811C2.66262 10.84 2.69918 10.8851 2.72283 10.9464C2.74971 11.0066 2.76153 11.0744 2.76046 11.1529C2.75723 11.24 2.73788 11.3217 2.6981 11.3937C2.65725 11.4668 2.61209 11.5195 2.56049 11.5486C2.47448 11.5572 2.40137 11.5582 2.34224 11.555V11.6561C2.53038 11.6615 2.66907 11.6787 2.76153 11.7055C2.80884 11.6131 2.84109 11.5303 2.86367 11.4518C2.88195 11.3754 2.89377 11.2862 2.89485 11.1862C2.90022 11.0529 2.88302 10.9346 2.84647 10.8368C2.82282 10.7765 2.78949 10.7153 2.74111 10.6583C2.6938 10.6002 2.64112 10.554 2.58414 10.5185C2.50566 10.4755 2.41427 10.4529 2.31213 10.4486C2.253 10.4465 2.20032 10.454 2.15302 10.469L2.03368 10.5228L1.94874 10.6174C1.92294 10.6583 1.90144 10.7099 1.88316 10.7755C1.87779 10.8002 1.86489 10.855 1.84768 10.9378C1.83263 11.0206 1.81973 11.0862 1.81005 11.1335C1.79178 11.1927 1.77243 11.2389 1.752 11.2711L1.67136 11.34L1.5402 11.3647C1.46817 11.3647 1.40258 11.3324 1.34775 11.2711C1.29507 11.2099 1.2682 11.1228 1.27142 11.0152C1.27357 10.9378 1.28862 10.8701 1.31873 10.8088C1.34668 10.7454 1.37786 10.7045 1.41549 10.6798C1.45527 10.6744 1.52192 10.6722 1.61546 10.6722L1.61868 10.5712C1.53482 10.568 1.46924 10.5604 1.41979 10.5529L1.26497 10.5249L1.23594 10.5346C1.20261 10.5927 1.18219 10.6626 1.16391 10.7421C1.14778 10.8217 1.13703 10.9034 1.13488 10.9894C1.13381 11.0701 1.14026 11.1529 1.15531 11.2314C1.17358 11.3088 1.20046 11.3819 1.24132 11.4432C1.28217 11.5066 1.34023 11.5572 1.41549 11.598C1.48967 11.6378 1.57353 11.6582 1.66276 11.6615C1.72727 11.6615 1.78963 11.6528 1.84661 11.6346L1.84768 11.6356Z" fill="#C10230"/>
<path d="M21.8115 10.9321C21.791 10.8547 21.7566 10.787 21.7136 10.7267C21.6685 10.6644 21.6083 10.6182 21.5309 10.5837C21.4524 10.5483 21.3685 10.53 21.2782 10.5364C21.2148 10.5386 21.1546 10.5493 21.0987 10.5719C21.0427 10.5966 20.9965 10.6321 20.9578 10.6751C20.9213 10.7149 20.8933 10.7751 20.875 10.8461C20.8621 10.8913 20.8449 10.9891 20.818 11.1364C20.7987 11.2386 20.7793 11.3084 20.7578 11.3525L20.674 11.445L20.546 11.4773C20.4848 11.4794 20.4299 11.4665 20.3805 11.4418C20.3332 11.4181 20.2955 11.373 20.2644 11.3149C20.2353 11.2558 20.2192 11.1869 20.216 11.1128C20.2117 11.0235 20.231 10.9439 20.2644 10.8676C20.3009 10.7913 20.3428 10.7364 20.3923 10.7042C20.4762 10.6913 20.5482 10.6816 20.6062 10.6816L20.603 10.5816C20.4149 10.5859 20.274 10.5816 20.1827 10.559C20.1396 10.6515 20.1117 10.7386 20.0956 10.816C20.0816 10.8945 20.0751 10.9827 20.0794 11.0848C20.0837 11.2192 20.1085 11.3342 20.1493 11.4278C20.1762 11.4902 20.2138 11.5482 20.2654 11.602C20.317 11.6557 20.3719 11.6998 20.4332 11.7321C20.5116 11.7708 20.603 11.788 20.7073 11.7858C20.7664 11.7837 20.8191 11.7729 20.8664 11.7557L20.9815 11.6934L21.0599 11.5923C21.0836 11.5514 21.0997 11.4998 21.1159 11.4332C21.1191 11.4063 21.1298 11.3515 21.1374 11.2665C21.1492 11.1837 21.1599 11.1192 21.1675 11.0719C21.1825 11.0106 21.1986 10.9611 21.2158 10.9321L21.2922 10.8558L21.4212 10.8235C21.4943 10.8203 21.5599 10.8472 21.6179 10.9052C21.676 10.9644 21.7061 11.0493 21.7115 11.1568C21.7136 11.2332 21.7007 11.3041 21.676 11.3665C21.6513 11.4278 21.6222 11.4751 21.5878 11.5009C21.5491 11.5084 21.4825 11.5149 21.39 11.5203L21.3932 11.6213C21.4749 11.6213 21.5438 11.6246 21.5921 11.6246L21.748 11.6439L21.7771 11.6342C21.8039 11.574 21.8233 11.5031 21.8351 11.4235C21.848 11.3407 21.8523 11.2601 21.8491 11.174C21.8459 11.0891 21.834 11.0106 21.8136 10.9321H21.8115Z" fill="#C10230"/>
<path d="M20.3548 7.00747C20.4204 6.98059 20.4795 6.96016 20.5376 6.94833L20.5827 6.94511L20.6096 6.98489C20.6408 7.04295 20.673 7.11284 20.7074 7.19133L20.7773 7.35154C20.7569 7.36337 20.6558 7.40853 20.4741 7.48379L19.8065 7.77088C19.6463 7.84076 19.5485 7.8784 19.513 7.88592L19.4549 7.86765C19.4377 7.85582 19.4076 7.80636 19.3679 7.71819L19.2754 7.75797C19.341 7.89023 19.3969 8.0128 19.442 8.1171C19.4861 8.21494 19.5334 8.33859 19.5893 8.4859L19.6807 8.44504C19.6452 8.35579 19.6291 8.29881 19.6302 8.2773L19.6581 8.22677C19.6882 8.20311 19.7828 8.15903 19.943 8.09022L20.6096 7.80421C20.787 7.72679 20.8881 7.68486 20.9171 7.67518L20.9848 7.83431C21.0225 7.92141 21.0504 7.99667 21.0698 8.05688L21.0773 8.09667L21.0375 8.13322C20.9859 8.16118 20.9343 8.19236 20.8762 8.22032L20.916 8.31064C21.073 8.2472 21.1568 8.21494 21.1622 8.21064L21.2859 8.17301L21.2923 8.15473L21.2396 8.05688C21.2106 7.9956 21.1568 7.86872 21.0762 7.68271L20.8827 7.23327C20.8031 7.05155 20.7526 6.9279 20.7268 6.86339L20.687 6.74942L20.673 6.74512L20.5709 6.79995C20.5516 6.80856 20.4666 6.84834 20.3172 6.915L20.3559 7.00855L20.3548 7.00747Z" fill="#C10230"/>
<path d="M20.4085 8.89505C20.2494 8.87247 20.1451 8.85741 20.0924 8.84881C19.9774 8.82946 19.9107 8.81763 19.8935 8.81226L19.8505 8.79505L19.8279 8.76602C19.8215 8.75634 19.8064 8.71871 19.7871 8.65527L19.6914 8.68L19.7624 8.94881L19.8215 9.22084L19.9193 9.19826C19.8989 9.10364 19.8914 9.04558 19.8989 9.02407L19.9355 8.99397C19.9613 8.98752 20.0322 8.98967 20.1505 9.00687L20.3053 9.02407L20.4504 9.62942L20.215 9.79393L20.1258 9.84124L20.0871 9.83264C20.0784 9.82296 20.0591 9.76812 20.0311 9.67673L19.9344 9.70039L20.0397 10.11L20.1129 10.4401L20.2085 10.4165L20.2032 10.3649L20.1956 10.2918L20.2032 10.266L20.23 10.2358L20.3257 10.1638L20.4698 10.0509L21.5696 9.23159L21.532 9.06171L21.2385 9.023L20.4085 8.89505ZM20.5698 9.53803C20.5504 9.46921 20.53 9.3875 20.5074 9.29933C20.4859 9.20471 20.4655 9.12192 20.4526 9.04665L21.1159 9.14235L20.5709 9.53803H20.5698Z" fill="#C10230"/>
<path d="M21.2035 12.6533C20.9519 12.6533 20.752 12.8587 20.752 13.1071C20.752 13.3554 20.9519 13.5597 21.2035 13.5597C21.4551 13.5597 21.6561 13.3565 21.6561 13.1071C21.6561 12.8576 21.4562 12.6533 21.2035 12.6533Z" fill="#C10230"/>
<path d="M21.4254 14.5813L21.4049 14.5953L21.3802 14.5974C21.363 14.5942 21.3168 14.5813 21.2426 14.5555C21.2308 14.5522 21.1878 14.535 21.1136 14.5071L20.8136 14.3856L20.5717 14.2856L20.4642 14.2383L20.3933 14.1856C20.3857 14.1641 20.3933 14.1265 20.418 14.0652L20.4223 14.0555L20.3492 14.0254L20.2535 14.2834C20.2438 14.3049 20.2234 14.3533 20.189 14.4254L20.2858 14.52C20.3105 14.5458 20.3771 14.6168 20.4846 14.735L20.6771 14.9426C20.7276 14.9985 20.7975 15.0748 20.8867 15.1802L20.2137 15.2264L20.0611 15.2329L19.8611 15.2415C19.8417 15.3017 19.8191 15.363 19.7955 15.421C19.7794 15.4662 19.7428 15.5436 19.6934 15.6629L19.7654 15.692L19.8191 15.5952L19.8396 15.5694L19.8611 15.5673C19.8815 15.5673 19.9353 15.5855 20.0266 15.6199C20.1148 15.6543 20.2191 15.6963 20.3341 15.7414C20.4631 15.792 20.5556 15.8307 20.6083 15.8543C20.7169 15.9006 20.7857 15.9339 20.8179 15.95L20.847 15.9737L20.8513 15.993C20.8513 16.0081 20.8416 16.0511 20.8201 16.1156L20.8932 16.1446C20.9093 16.0898 20.9351 16.021 20.9717 15.9339C20.9975 15.8672 21.0265 15.8027 21.0555 15.7382L20.9835 15.7081C20.9566 15.7662 20.9394 15.8017 20.9308 15.8103L20.9061 15.8296H20.8738C20.8599 15.8264 20.804 15.806 20.7072 15.7683C20.6094 15.7339 20.5255 15.7006 20.4556 15.6705L20.0331 15.5027L20.5836 15.4619C20.6674 15.4554 20.7954 15.449 20.9663 15.4404C21.0641 15.435 21.1426 15.4318 21.1985 15.4318L21.2211 15.3716L21.1007 15.2479C21.0201 15.1608 20.9566 15.0931 20.9147 15.0479L20.7545 14.8727L20.432 14.5125L21.0555 14.763C21.1749 14.8092 21.2448 14.8404 21.2663 14.8555L21.2974 14.892C21.2996 14.9049 21.2867 14.9469 21.2609 15.0189L21.3351 15.0468L21.4383 14.778L21.5512 14.5092L21.4791 14.4791C21.449 14.5404 21.4329 14.5748 21.4286 14.5824L21.4254 14.5813Z" fill="#C10230"/>
<path d="M20.3772 16.3263L20.2364 16.2209L20.0504 16.108C19.9934 16.0725 19.9181 16.0231 19.8278 15.9596C19.7354 15.8973 19.6838 15.8607 19.6741 15.8478L19.6601 15.8188L19.7074 15.7188L19.6408 15.6758L19.5354 15.8553L19.5225 15.8768C19.5107 15.8962 19.4763 15.951 19.4107 16.0446L19.4773 16.0854C19.515 16.0274 19.5461 15.9908 19.5655 15.9822L19.5945 15.9747C19.6106 15.9779 19.6537 15.9994 19.7225 16.0392C19.7526 16.0575 19.8375 16.1102 19.9783 16.1983L20.1396 16.2983C20.2514 16.3682 20.3224 16.4252 20.3525 16.4693C20.3815 16.5123 20.3933 16.5628 20.3933 16.6209C20.3901 16.6811 20.3654 16.7478 20.3181 16.8209C20.2772 16.8876 20.2374 16.9316 20.1934 16.9617L20.0611 17.0101L19.9171 16.9714C19.8945 16.9596 19.8321 16.923 19.7354 16.8628L19.6429 16.8058L19.4601 16.6929C19.3462 16.622 19.2763 16.5736 19.2483 16.5456L19.2311 16.5123C19.2301 16.4908 19.2483 16.451 19.2838 16.393L19.2182 16.3532L19.2 16.3833L19.1354 16.4908L19.0699 16.6005L18.9043 16.8564L18.971 16.8962L19.0451 16.7983L19.0785 16.794L19.1354 16.8134C19.1967 16.8478 19.2645 16.8876 19.3397 16.9327L19.5397 17.0596L19.6924 17.1574C19.7751 17.2069 19.8267 17.2402 19.8483 17.2478L19.9622 17.2779L20.0977 17.2607L20.2385 17.1757C20.3041 17.1187 20.3622 17.0499 20.4127 16.9703C20.4578 16.9037 20.4858 16.837 20.5041 16.7747C20.5213 16.7134 20.5288 16.6564 20.5223 16.5972C20.518 16.5435 20.5041 16.4919 20.4793 16.4499L20.3772 16.3263Z" fill="#C10230"/>
<path d="M19.7598 17.7188L19.7351 17.735L19.7104 17.7317L19.6061 17.6629L19.4696 17.5619L19.1696 17.3307C19.1599 17.3253 19.0976 17.2726 18.9772 17.1769L18.9051 17.1189L18.8643 17.0737L18.86 17.0576L18.8664 17.0296L18.9288 16.9382L18.8632 16.8877C18.8051 16.9705 18.7406 17.0587 18.6707 17.1457C18.6095 17.2285 18.5525 17.2963 18.502 17.3586L18.5654 17.4081L18.6449 17.3199L18.6675 17.3092L18.689 17.3135C18.7052 17.321 18.7471 17.3479 18.8116 17.3941C18.8395 17.4146 18.9051 17.464 19.003 17.5382L19.3126 17.778C19.361 17.8167 19.4169 17.8597 19.4717 17.9102L19.5373 17.9694L19.5459 17.9866L19.5362 18.0145L19.4717 18.1048L19.5384 18.1565C19.5824 18.0909 19.6341 18.0199 19.6975 17.9393C19.7684 17.8479 19.8351 17.7629 19.8996 17.6844L19.8351 17.636L19.7609 17.7199L19.7598 17.7188Z" fill="#C10230"/>
<path d="M18.3161 19.2679L18.2871 19.2776L18.2645 19.2679L18.1774 19.1819L18.0635 19.0497L17.8194 18.7636C17.8119 18.7572 17.7592 18.6916 17.6614 18.5733L17.6044 18.5024L17.571 18.4486V18.4314L17.5829 18.4067L17.6635 18.3282L17.6098 18.2637C17.5356 18.3336 17.4539 18.4067 17.3679 18.4776C17.2915 18.5422 17.2195 18.6002 17.1582 18.6486L17.212 18.712L17.3066 18.64L17.3324 18.6368L17.3485 18.6443C17.3657 18.6561 17.4001 18.6905 17.4549 18.7497C17.4786 18.7776 17.5302 18.8378 17.6108 18.9303L17.8646 19.2292C17.9054 19.2798 17.9473 19.3346 17.9925 19.3927L18.043 19.4668L18.0473 19.483L18.0323 19.5088L17.9506 19.584L18.0032 19.6496C18.0613 19.5948 18.128 19.5357 18.2043 19.469C18.2925 19.3927 18.3752 19.326 18.4569 19.2636L18.4053 19.2013L18.315 19.2679H18.3161Z" fill="#C10230"/>
<path d="M8.13683 19.987C8.04114 19.9472 7.95836 19.915 7.88633 19.8838L7.85622 19.9612C7.91965 19.9892 7.95406 20.0042 7.96373 20.0096L7.98201 20.0289V20.0504C7.98201 20.0698 7.96696 20.1193 7.94116 20.1935C7.92933 20.2268 7.90138 20.302 7.8573 20.4182L7.71861 20.7816C7.69603 20.8418 7.67023 20.9063 7.6369 20.9741L7.60034 21.0558L7.58529 21.0633H7.55949C7.54659 21.0633 7.51326 21.0526 7.4509 21.0332L7.42188 21.1074C7.49713 21.1343 7.58099 21.1633 7.6756 21.1988C7.78311 21.2386 7.88633 21.2794 7.97771 21.3214L8.00674 21.2429C7.95083 21.2192 7.91643 21.2031 7.9046 21.1977L7.88203 21.1773L7.87772 21.1547C7.8788 21.1343 7.89063 21.0934 7.91428 21.0332L7.97126 20.873L8.10457 20.5203C8.10995 20.5085 8.14005 20.4343 8.19596 20.2913L8.23251 20.2053L8.26262 20.1494L8.27659 20.1397H8.30455C8.3153 20.1397 8.35293 20.1504 8.41206 20.1719L8.44109 20.0956C8.34325 20.0634 8.24434 20.0257 8.13683 19.9881V19.987Z" fill="#C10230"/>
<path d="M6.28349 19.0041C6.19856 18.9493 6.12545 18.8977 6.06202 18.8525L6.01686 18.9203C6.07277 18.959 6.10395 18.9837 6.11147 18.9923L6.12545 19.0117L6.12115 19.0343C6.1147 19.0536 6.09105 19.0955 6.05234 19.1633C6.03192 19.1966 5.99106 19.2643 5.9244 19.3665L5.71261 19.6944C5.67605 19.7471 5.63627 19.8041 5.59219 19.8654L5.53951 19.9342L5.52338 19.9428L5.49436 19.9342C5.48575 19.9342 5.45243 19.9138 5.3976 19.8826L5.35352 19.9514C5.42125 19.9923 5.49758 20.0364 5.58144 20.0944C5.6782 20.1557 5.76959 20.217 5.85129 20.2761L5.89645 20.2073L5.80507 20.1396L5.78894 20.1148V20.0923L5.84915 19.9815L5.94053 19.8353L6.1448 19.5203C6.15018 19.5095 6.19641 19.4418 6.28134 19.316L6.3351 19.2407L6.37595 19.1934L6.39208 19.1837L6.41896 19.1891L6.51787 19.2439L6.5641 19.1751C6.47486 19.1235 6.38348 19.0665 6.28672 19.0041H6.28349Z" fill="#C10230"/>
<path d="M19.0605 18.535L19.0143 18.5307C18.9907 18.5156 18.9315 18.4629 18.8348 18.3683L18.4316 17.9791C18.3241 17.8737 18.2639 17.8156 18.2499 17.7995L18.3424 17.7006L18.4757 17.5748L18.5015 17.5597L18.5391 17.5759L18.6477 17.664L18.7036 17.6081C18.609 17.5146 18.5606 17.4694 18.5563 17.463L18.4929 17.3877H18.48L18.423 17.4565C18.3875 17.4931 18.3144 17.5705 18.2048 17.6823L17.9403 17.9543C17.8349 18.0619 17.7618 18.136 17.7231 18.1726L17.6543 18.236V18.2489L17.7242 18.3038C17.7371 18.3124 17.7887 18.3629 17.8822 18.45L17.9381 18.3952L17.8414 18.2823L17.8263 18.2522L17.8457 18.2231L17.9639 18.0887L18.0575 17.9909C18.0736 18.0016 18.1349 18.0629 18.2445 18.1672L18.6456 18.5586C18.7423 18.6522 18.7982 18.7124 18.8111 18.7349L18.8186 18.7812L18.7369 18.8865L18.7896 18.9403C18.867 18.8532 18.9369 18.779 18.9982 18.7145C19.0552 18.6565 19.1294 18.5876 19.2164 18.5038L19.1616 18.45L19.0573 18.535H19.0605Z" fill="#C10230"/>
<path d="M9.48409 20.5281L9.51312 20.5442V20.5873L9.48624 20.7217L9.55828 20.7464C9.5959 20.6195 9.61633 20.5539 9.61848 20.5485L9.65719 20.4572L9.64966 20.4464L9.56473 20.4292C9.51205 20.4152 9.41098 20.3862 9.25939 20.3443L8.89708 20.2367C8.75086 20.1937 8.65195 20.1647 8.60034 20.1475L8.51219 20.1152L8.50143 20.1217L8.48638 20.2099C8.48101 20.2249 8.46273 20.2937 8.43048 20.4184L8.50466 20.4389L8.55949 20.3034L8.57992 20.2765H8.61755C8.66593 20.2905 8.72506 20.3012 8.78849 20.3217L8.91643 20.3582C8.91213 20.3776 8.89063 20.4593 8.84655 20.6045L8.68958 21.1431C8.6541 21.2722 8.6283 21.3496 8.61432 21.3732L8.57562 21.4023C8.56272 21.4044 8.51756 21.3969 8.44338 21.3786L8.42188 21.4517C8.53584 21.4797 8.63367 21.5044 8.71861 21.5281C8.80032 21.5507 8.896 21.5829 9.00996 21.6238L9.03039 21.5485C8.96051 21.5259 8.91858 21.5087 8.90675 21.498L8.88955 21.455C8.89063 21.4248 8.9089 21.3485 8.94653 21.2195L9.10458 20.6808C9.14543 20.5378 9.17016 20.4539 9.17876 20.4346L9.30562 20.4733C9.3755 20.4948 9.43356 20.512 9.48194 20.5292L9.48409 20.5281Z" fill="#C10230"/>
<path d="M5.09081 19.2548L5.4456 18.8204C5.53806 18.7054 5.59182 18.6387 5.60794 18.6226L5.71116 18.7064C5.76706 18.7516 5.81329 18.7925 5.84877 18.8279L5.86812 18.8527L5.852 18.8914L5.77351 19.0086L5.83587 19.057C5.91865 18.9559 5.96058 18.9011 5.96596 18.8989L6.03799 18.829L6.03477 18.8172L5.96381 18.7677C5.92188 18.7344 5.84017 18.6667 5.71761 18.5731L5.42517 18.3333C5.30476 18.2377 5.2252 18.1699 5.1865 18.1366L5.11769 18.0742H5.10479L5.05641 18.1495C5.04673 18.1613 5.0005 18.2204 4.92309 18.3215L4.98438 18.3699L5.08759 18.2667L5.11662 18.2452L5.14779 18.2624L5.29079 18.3699L5.39507 18.4527C5.3854 18.4688 5.33164 18.5366 5.23488 18.6548L4.88332 19.0892C4.79838 19.1957 4.74462 19.257 4.72205 19.2709L4.67689 19.2849C4.66077 19.2806 4.62314 19.257 4.564 19.2107L4.51562 19.2709C4.60916 19.3387 4.68979 19.3989 4.75753 19.4569C4.82203 19.5107 4.90052 19.5752 4.9919 19.6537L5.03921 19.5978C4.98223 19.5473 4.94997 19.515 4.94567 19.501V19.4537C4.9575 19.429 5.0048 19.3645 5.09081 19.2591V19.2548Z" fill="#C10230"/>
<path d="M17.1614 19.2356L17.1313 19.0668C17.1044 18.9324 17.0979 18.8528 17.1033 18.8345L17.1807 18.7582L17.1356 18.6904L16.97 18.8044L16.7689 18.9324L16.813 18.9979L16.9023 18.9485L16.9334 18.9367H16.9506L16.9678 18.956L16.9797 18.9732C16.9861 18.9979 16.999 19.0496 17.0194 19.127C17.0442 19.2409 17.0581 19.3001 17.0592 19.3151L17.1678 19.8581L16.6539 19.5065L16.6389 19.4936L16.5571 19.4377C16.4679 19.3764 16.4174 19.3377 16.4077 19.3216L16.4013 19.2969L16.4185 19.2721L16.5088 19.2022L16.4636 19.1356L16.1862 19.3227C16.1594 19.342 16.0819 19.3893 15.9551 19.4678L15.9992 19.5366L16.1067 19.485L16.197 19.5237C16.2432 19.5506 16.3776 19.6398 16.6001 19.7904L16.8851 19.9839C16.9904 20.057 17.1022 20.1323 17.2162 20.2129L17.3355 20.1355C17.3076 20.0259 17.2699 19.8323 17.2194 19.5603L17.1603 19.2388L17.1614 19.2356Z" fill="#C10230"/>
<path d="M7.70243 19.9078C7.71426 19.9078 7.75081 19.9153 7.80457 19.9379L7.8422 19.8658L7.65835 19.7787L7.44978 19.6648L7.41322 19.7357L7.50138 19.7895L7.53256 19.8088L7.53686 19.8261L7.53256 19.8486L7.51966 19.8691C7.50138 19.8884 7.46375 19.926 7.40462 19.9798C7.32184 20.0551 7.27668 20.0959 7.26378 20.1045L6.84556 20.4701L6.89932 19.8476V19.8304C6.90254 19.8239 6.90469 19.7906 6.90899 19.7293C6.91867 19.6218 6.92727 19.5594 6.93802 19.5433L6.95415 19.5261H6.98533L7.09069 19.5691L7.12724 19.496L6.82513 19.3519C6.79611 19.3358 6.71762 19.2927 6.58431 19.2207L6.54883 19.2927L6.64344 19.3594C6.65096 19.3723 6.65634 19.4035 6.65634 19.4583C6.65311 19.5121 6.64451 19.6723 6.62409 19.9422L6.59721 20.2862C6.58646 20.4099 6.57678 20.5432 6.5628 20.6841L6.69074 20.7475C6.77138 20.6712 6.91867 20.5421 7.13154 20.3637L7.38205 20.1518L7.51106 20.0454C7.6175 19.954 7.68093 19.9067 7.70243 19.9035V19.9078Z" fill="#C10230"/>
<path d="M16.5795 20.5028L16.5408 20.4985C16.5279 20.4921 16.486 20.4727 16.4161 20.4362C16.4118 20.434 16.3784 20.4168 16.3182 20.3824L16.0914 20.2501L16.0731 20.2405L16.0194 20.2061L15.9323 20.1523C16.0043 20.0781 16.0462 20.0007 16.0624 19.9276C16.0753 19.8502 16.0667 19.7792 16.0333 19.7104C16.0043 19.6534 15.9656 19.6158 15.9151 19.5878L15.7656 19.5674C15.7129 19.5738 15.6452 19.6018 15.5581 19.6437C15.513 19.6663 15.456 19.6953 15.3883 19.7351C15.3485 19.7577 15.298 19.7835 15.2399 19.8125C15.17 19.8448 15.1195 19.8727 15.0797 19.891C15.0034 19.9244 14.9582 19.948 14.9453 19.9545L14.9776 20.0222C15.0517 19.9921 15.0937 19.976 15.112 19.976L15.1302 19.9846C15.1421 19.9985 15.1668 20.0362 15.2023 20.1071L15.2926 20.2835L15.4485 20.591L15.5603 20.8394L15.6022 20.9426L15.6065 20.9705L15.5947 20.9845C15.5861 20.9942 15.5495 21.0168 15.4882 21.0501L15.5248 21.1254C15.5958 21.0845 15.6764 21.0404 15.7624 20.9985C15.8613 20.9501 15.9591 20.9028 16.0559 20.8587L16.0204 20.7856C15.9645 20.8103 15.9312 20.8265 15.9204 20.8297H15.8903L15.8731 20.8254L15.8344 20.7673C15.8269 20.7533 15.7893 20.6878 15.7334 20.5738C15.685 20.4835 15.6388 20.3942 15.5979 20.3082C15.5721 20.2566 15.5205 20.1491 15.4474 19.9899C15.4119 19.9179 15.3915 19.8706 15.3818 19.8523L15.4603 19.805C15.5205 19.7727 15.5635 19.7577 15.5915 19.7545L15.7162 19.7803L15.8183 19.891L15.8506 20.0469L15.8076 20.1749C15.7818 20.2082 15.7344 20.2405 15.6667 20.2706L15.6699 20.3007L15.7495 20.3319C15.8129 20.362 15.8871 20.4082 15.9807 20.4663L16.3053 20.6738L16.3516 20.7093L16.4817 20.6426C16.5182 20.6211 16.5827 20.5942 16.6698 20.5523L16.6354 20.4813L16.5795 20.5007V20.5028Z" fill="#C10230"/>
<path d="M2.63771 16.655C2.63771 16.655 2.65706 16.6184 2.68931 16.5561L2.8151 16.326L2.8237 16.3077L2.85488 16.2507L2.90541 16.1647C2.98497 16.2335 3.0613 16.2722 3.13979 16.2862C3.21289 16.2969 3.286 16.2862 3.35266 16.2507C3.40749 16.2217 3.44727 16.1819 3.472 16.1281L3.48812 15.9787C3.47737 15.9292 3.44942 15.8604 3.40319 15.7755C3.38061 15.7303 3.34943 15.6744 3.31073 15.6067C3.286 15.5679 3.2602 15.5185 3.22795 15.4604C3.19247 15.3927 3.16451 15.3411 3.14516 15.3024C3.10753 15.226 3.08496 15.1809 3.07743 15.168L3.0097 15.2056C3.04303 15.2744 3.05808 15.3174 3.06023 15.3368L3.05055 15.3551C3.04195 15.3669 3.00002 15.3948 2.93336 15.4314L2.76135 15.5282L2.45386 15.6938L2.20981 15.8142L2.10875 15.8561L2.08187 15.8626L2.06467 15.8518C2.05392 15.8421 2.03026 15.8077 1.99694 15.7443L1.92383 15.7841C1.96468 15.855 2.00984 15.9346 2.05499 16.0195C2.1066 16.1152 2.15713 16.2109 2.20228 16.3066L2.27647 16.269L2.23131 16.1711L2.22594 16.1443L2.23239 16.126L2.28829 16.0851C2.30334 16.0765 2.36678 16.04 2.47751 15.9776C2.5689 15.9228 2.65598 15.8765 2.73984 15.8357C2.79145 15.8056 2.89573 15.7518 3.05485 15.6712C3.12474 15.6378 3.16882 15.6174 3.19139 15.6056L3.23762 15.6808C3.26988 15.74 3.286 15.7841 3.29245 15.8109L3.26988 15.9378L3.16344 16.0432L3.00862 16.0798L2.87961 16.04C2.84413 16.0142 2.8108 15.9669 2.77747 15.9023L2.74737 15.9066L2.71942 15.9884C2.69254 16.0496 2.64846 16.1281 2.5904 16.2217L2.39473 16.5528L2.35818 16.5969L2.43128 16.726C2.45171 16.7657 2.48396 16.827 2.52589 16.913L2.59363 16.8765L2.57427 16.8206L2.58073 16.784C2.58503 16.7711 2.60438 16.7249 2.63771 16.6561V16.655Z" fill="#C10230"/>
<path d="M15.1129 20.9181C15.1258 21.0008 15.1334 21.0589 15.1323 21.0912L15.1258 21.1084L15.0323 21.1621C14.9796 21.1836 14.9226 21.203 14.857 21.2256C14.7915 21.2471 14.7323 21.2643 14.684 21.2783L14.6453 21.1675L14.5216 20.7923C14.5582 20.7761 14.6033 20.76 14.6614 20.7406C14.7259 20.7213 14.7807 20.7084 14.8226 20.6998L14.8699 20.7105C14.8839 20.7213 14.9033 20.7632 14.9237 20.8331L14.999 20.8073L14.9323 20.6159L14.8721 20.4181L14.8001 20.4407C14.8173 20.4966 14.8237 20.531 14.8237 20.5589L14.8194 20.5804L14.7635 20.6062C14.6807 20.6353 14.6323 20.6536 14.6173 20.6579L14.4894 20.6966L14.4302 20.5127C14.3947 20.4095 14.3711 20.3245 14.3582 20.2525C14.413 20.2331 14.4646 20.2116 14.5195 20.1934C14.5721 20.174 14.6323 20.159 14.6936 20.1482L14.7689 20.1407L14.7861 20.1525C14.7958 20.1676 14.813 20.2106 14.8366 20.2794L14.9065 20.2546C14.8882 20.1751 14.8743 20.1364 14.8721 20.1235L14.8484 19.9923L14.8388 19.9805L14.8076 19.9848C14.742 20.0041 14.6958 20.0181 14.6743 20.0246L14.4958 20.0891C14.3969 20.1245 14.3066 20.1536 14.226 20.1815L14.1088 20.2192L13.9023 20.2805L13.926 20.3568C13.997 20.3396 14.0432 20.3288 14.0604 20.3331L14.0776 20.3417C14.0883 20.3536 14.1066 20.3934 14.1303 20.4611C14.1657 20.5579 14.1873 20.6191 14.1916 20.6321L14.3195 21.0331C14.3356 21.0783 14.3571 21.1525 14.3851 21.2568C14.4012 21.3127 14.412 21.3546 14.4173 21.3804L14.3464 21.461L14.3636 21.5094C14.5453 21.4481 14.6442 21.4116 14.6571 21.4073C14.7119 21.3901 14.8097 21.36 14.9495 21.3137L15.0946 21.2718C15.1645 21.2471 15.2172 21.2266 15.2548 21.2105L15.2613 21.1944C15.2376 21.1191 15.2129 21.0202 15.1882 20.9009L15.1129 20.9224V20.9181Z" fill="#C10230"/>
<path d="M3.42741 17.6222C3.35108 17.662 3.29732 17.6857 3.26615 17.6954H3.24464L3.17046 17.6201L3.0565 17.4728C3.01779 17.4169 2.98447 17.3663 2.95759 17.3244L3.04897 17.2534L3.37043 17.0244L3.46289 17.1427L3.54998 17.2836L3.55428 17.3309C3.54675 17.3481 3.51342 17.3782 3.45322 17.419L3.5016 17.4835L3.66609 17.3631L3.83596 17.2459L3.78973 17.1836L3.68544 17.2427H3.66179L3.62201 17.1997C3.56933 17.1298 3.53708 17.0868 3.53063 17.075L3.45644 16.9631L3.61126 16.8513C3.70157 16.789 3.77575 16.7416 3.83811 16.7062L3.9424 16.8427C3.97787 16.8922 4.00905 16.9427 4.03916 16.9975L4.07141 17.0653L4.06173 17.0868C4.05206 17.0997 4.01658 17.1298 3.95745 17.1707L3.99938 17.2319C4.06818 17.19 4.10581 17.1653 4.11549 17.161L4.23375 17.0954L4.2402 17.0836L4.2273 17.0567C4.18967 16.9997 4.16495 16.9621 4.15097 16.9427L4.03701 16.79C3.97357 16.7072 3.91874 16.6298 3.86821 16.5599L3.79833 16.4589L3.67577 16.2793L3.61126 16.3255C3.64996 16.3868 3.67254 16.4266 3.67577 16.4438L3.67254 16.4632C3.66287 16.4782 3.63276 16.5072 3.57471 16.5524C3.48977 16.6137 3.44139 16.6513 3.42741 16.6578L3.08445 16.9029C3.0436 16.9287 2.97801 16.9739 2.88986 17.033L2.78019 17.0986L2.68236 17.0556L2.64258 17.0857C2.75654 17.2395 2.81782 17.3244 2.82857 17.3352C2.8619 17.3814 2.91888 17.4631 3.00382 17.5857L3.08875 17.7104C3.13176 17.7706 3.16616 17.8158 3.19196 17.8459L3.20917 17.848C3.2726 17.8018 3.35968 17.748 3.46934 17.6868L3.42634 17.6233L3.42741 17.6222Z" fill="#C10230"/>
<path d="M13.9337 21.0487L13.8746 20.9659L13.7875 20.9175L13.6574 20.896C13.6391 20.896 13.595 20.896 13.5305 20.896C13.466 20.896 13.4144 20.8992 13.3768 20.896L13.2618 20.8777L13.1951 20.8294L13.1564 20.7337C13.1446 20.6777 13.1596 20.624 13.1962 20.5735C13.2338 20.5218 13.2929 20.4885 13.3779 20.4735C13.4338 20.4616 13.4886 20.4616 13.5402 20.4735L13.6531 20.5272C13.666 20.553 13.6778 20.6046 13.695 20.6756L13.7692 20.6605C13.7585 20.5982 13.7542 20.5466 13.7488 20.5079L13.7445 20.3864L13.7327 20.367C13.6864 20.353 13.6295 20.3477 13.5649 20.3477C13.5004 20.3477 13.4381 20.353 13.3725 20.3649C13.3101 20.3788 13.251 20.396 13.1951 20.4208C13.1381 20.4477 13.0897 20.4799 13.0489 20.5218C13.008 20.5627 12.979 20.6154 12.9618 20.6777C12.9425 20.739 12.9414 20.8078 12.9521 20.8756L13.0048 21.0057L13.0994 21.1014C13.1349 21.1272 13.1822 21.1412 13.2392 21.1476C13.2768 21.1498 13.3521 21.153 13.4671 21.1562C13.5488 21.1573 13.6047 21.1637 13.6381 21.1756L13.7208 21.2283L13.7595 21.324L13.752 21.4519L13.6714 21.5551C13.6295 21.5852 13.5778 21.6057 13.5209 21.6175C13.4553 21.6293 13.3886 21.6293 13.3284 21.6089C13.2661 21.5917 13.2209 21.5659 13.1887 21.5315C13.1682 21.468 13.1532 21.4143 13.1467 21.3702L13.0725 21.3842C13.0962 21.5272 13.108 21.6347 13.1026 21.71C13.1801 21.7293 13.2499 21.7422 13.3112 21.7454C13.3714 21.7476 13.4402 21.7422 13.5166 21.7282C13.6176 21.7078 13.7036 21.6745 13.7724 21.6325L13.8907 21.5218L13.9681 21.382C13.9896 21.3154 13.9928 21.2444 13.9767 21.1637L13.9348 21.0487H13.9337Z" fill="#C10230"/>
<path d="M11.7928 21.2486L11.7219 21.1852L11.5972 21.1368C11.5789 21.1303 11.537 21.126 11.4735 21.1142C11.4112 21.1013 11.3585 21.0905 11.323 21.0819L11.2155 21.0389L11.1607 20.9776L11.1413 20.8755C11.1413 20.8174 11.165 20.769 11.2144 20.7271C11.2607 20.6862 11.3252 20.6647 11.4112 20.6658C11.4703 20.668 11.5241 20.6776 11.5692 20.6992L11.6703 20.7733C11.6746 20.8045 11.6767 20.8551 11.6778 20.926L11.7552 20.9303C11.7584 20.8669 11.7617 20.8164 11.766 20.7744L11.7875 20.6572L11.7799 20.6346C11.7359 20.611 11.6821 20.5916 11.6208 20.5787C11.5585 20.568 11.494 20.5626 11.4284 20.5615C11.3639 20.5615 11.3004 20.5637 11.2402 20.5787C11.1811 20.5906 11.1273 20.6174 11.0779 20.6465C11.0317 20.6787 10.9897 20.7217 10.9607 20.7819C10.9295 20.8422 10.9156 20.9045 10.9134 20.9744L10.936 21.1142L11.008 21.2249C11.0392 21.2583 11.0822 21.283 11.137 21.297C11.1736 21.3077 11.2445 21.326 11.3585 21.354C11.4381 21.3712 11.4918 21.3873 11.523 21.4056L11.5907 21.4733L11.609 21.5776L11.5778 21.7013L11.4778 21.7862C11.4295 21.8077 11.3768 21.8163 11.3176 21.8152C11.2488 21.8152 11.1865 21.798 11.1295 21.7668C11.0714 21.7389 11.0338 21.7045 11.0102 21.6636C11.0037 21.6002 10.9994 21.5421 11.0005 21.4948H10.9231C10.9209 21.641 10.9091 21.7475 10.8887 21.8185C10.9596 21.8539 11.0252 21.883 11.0843 21.8948C11.1435 21.9098 11.2134 21.9195 11.2886 21.9195C11.3929 21.9195 11.4843 21.9077 11.5574 21.8765L11.6961 21.7926L11.8025 21.6711C11.8369 21.6109 11.8531 21.5421 11.8541 21.4604L11.8391 21.3389L11.7928 21.2454V21.2486Z" fill="#C10230"/>
<path d="M10.5615 21.7746L10.5443 21.7617L10.5304 21.7337L10.5089 21.6434L10.4723 21.5079L10.2218 20.4768L10.0896 20.4531L9.9756 20.6499L9.63478 21.2026C9.57135 21.3079 9.5262 21.3789 9.5047 21.4144C9.45632 21.4886 9.42729 21.5316 9.41976 21.5445L9.39288 21.5692L9.36493 21.5778L9.27569 21.5703L9.26172 21.6488L9.47674 21.6767L9.68854 21.7197L9.70037 21.6434C9.62833 21.6305 9.58533 21.6165 9.57135 21.6068L9.56168 21.5703C9.56705 21.5498 9.58855 21.4972 9.63371 21.4208L9.69284 21.3144L10.168 21.3918L10.2143 21.609L10.2207 21.6886L10.2014 21.7133C10.1917 21.7154 10.1476 21.7133 10.0745 21.7047L10.0616 21.7821L10.3863 21.8305L10.6411 21.8789L10.6551 21.8004L10.6142 21.7885L10.5605 21.7735L10.5615 21.7746ZM9.94872 21.252C9.87561 21.2402 9.8111 21.2294 9.75305 21.2187L10.0218 20.7725L10.1401 21.2832C10.0831 21.2735 10.0197 21.266 9.94979 21.252H9.94872Z" fill="#C10230"/>
<path d="M4.30883 18.8037L4.36581 18.6747L4.80553 17.7081L4.71522 17.6113L4.50235 17.692L3.89276 17.9178C3.77772 17.9619 3.70031 17.9898 3.66161 18.0027C3.57667 18.0328 3.52722 18.05 3.51432 18.0522L3.47884 18.0565L3.45196 18.0457L3.38423 17.9855L3.32617 18.0382L3.47776 18.1952L3.61753 18.3586L3.67451 18.3048C3.62613 18.25 3.6014 18.2113 3.5971 18.1962L3.61108 18.1629C3.62613 18.1489 3.67666 18.1231 3.76159 18.0909L3.87233 18.0457L4.19487 18.3995L4.09918 18.5973L4.05618 18.6629L4.02715 18.6736C4.01532 18.6683 3.98522 18.6392 3.92931 18.5887L3.87233 18.6392L4.09918 18.879L4.26905 19.0704L4.32603 19.022L4.30238 18.9876L4.26905 18.9414L4.26583 18.9199L4.2712 18.8908L4.30883 18.8048V18.8037ZM4.24217 18.2909C4.20454 18.2522 4.15831 18.207 4.11101 18.15L3.97877 18.0016L4.46365 17.8199L4.2411 18.2909H4.24217Z" fill="#C10230"/>
<path d="M2.0091 15.4866C1.95319 15.4392 1.90589 15.393 1.87149 15.3446C1.83708 15.2973 1.80913 15.2436 1.78548 15.1866C1.75 15.0952 1.73172 15.0135 1.7328 14.9382C1.7371 14.8855 1.75 14.8253 1.77903 14.7597C1.80483 14.6984 1.84891 14.6382 1.90589 14.5823C1.96395 14.5275 2.04028 14.4834 2.13489 14.4425C2.28756 14.3791 2.42195 14.3759 2.54128 14.4199C2.66277 14.4683 2.74771 14.5565 2.80361 14.6963C2.83264 14.7705 2.84769 14.8371 2.84554 14.892C2.84554 14.9489 2.83264 15.0038 2.80791 15.0597C2.77136 15.0812 2.7219 15.1038 2.65955 15.1307L2.68535 15.1973C2.74233 15.179 2.80469 15.1608 2.87457 15.1414L2.98638 15.1221L2.99606 15.1113C2.99391 15.0188 2.98316 14.9382 2.97026 14.8726C2.95628 14.8049 2.9337 14.7339 2.9036 14.6543C2.81114 14.4253 2.6832 14.2748 2.51871 14.1963C2.35314 14.1178 2.18004 14.1167 1.99727 14.1866C1.89191 14.2318 1.79945 14.2898 1.72634 14.3716C1.67689 14.4232 1.63926 14.4855 1.60701 14.5565C1.5769 14.6307 1.55863 14.7092 1.55863 14.7952C1.55755 14.9038 1.58335 15.0231 1.62958 15.1436C1.66506 15.2296 1.70269 15.3005 1.73925 15.35C1.7758 15.4038 1.82848 15.4565 1.89514 15.5134L1.99942 15.5199L2.01018 15.4876L2.0091 15.4866Z" fill="#C10230"/>
<path d="M1.84217 13.4952C2.09053 13.4952 2.2948 13.2941 2.2948 13.0436C2.2948 12.7931 2.0916 12.5898 1.84217 12.5898C1.59275 12.5898 1.39062 12.7931 1.39062 13.0436C1.39062 13.2941 1.59167 13.4952 1.84217 13.4952Z" fill="#C10230"/>
<path d="M1.82513 8.20412L1.85416 8.16434L1.87996 8.15681C1.89502 8.15358 1.9434 8.16756 2.02295 8.19122C2.10466 8.2181 2.19067 8.2482 2.28851 8.28153L3.18408 8.59765C3.20236 8.60303 3.28944 8.63636 3.44856 8.69872C3.5292 8.72883 3.57973 8.75248 3.6023 8.76646L3.64638 8.82344L3.63993 8.89549L3.59908 8.96215L3.50232 9.03204L3.50554 9.06322C3.5937 9.0944 3.66251 9.11913 3.71412 9.14278L3.76142 9.05677C3.77755 9.01591 3.784 8.9686 3.77862 8.91054C3.77647 8.8557 3.7625 8.79549 3.74422 8.73205C3.72057 8.66646 3.69476 8.60733 3.66359 8.55679C3.61736 8.48368 3.56145 8.42024 3.49587 8.37293C3.43136 8.32454 3.33675 8.28046 3.21419 8.2353L2.72393 8.06757L2.31109 7.92026C2.1982 7.8794 2.11326 7.84607 2.05198 7.81919L2.00038 7.78156L1.99393 7.72995C1.99715 7.71382 2.01113 7.66651 2.03693 7.59017L1.93695 7.55469C1.91114 7.64608 1.87459 7.7536 1.83051 7.87833C1.7789 8.02886 1.723 8.17831 1.66602 8.32024L1.766 8.3568L1.82513 8.20197V8.20412Z" fill="#C10230"/>
<path d="M2.48878 7.31598C2.55758 7.41382 2.65219 7.49984 2.77691 7.5794C2.9371 7.68478 3.09192 7.74069 3.24028 7.74714C3.3865 7.75359 3.52411 7.72133 3.65098 7.64822C3.77569 7.5751 3.88965 7.46113 3.98642 7.30415C4.07888 7.16652 4.13586 7.02889 4.16166 6.88696C4.17886 6.78589 4.17564 6.68267 4.15413 6.5773C4.13156 6.47408 4.09178 6.38054 4.0305 6.29774C3.94879 6.18162 3.84557 6.08485 3.71764 6.00098C3.64238 5.9526 3.56712 5.91604 3.49616 5.89239C3.42413 5.86551 3.3521 5.85153 3.28006 5.8483C3.2091 5.84508 3.12955 5.85368 3.04246 5.87948C2.95538 5.90421 2.87474 5.94615 2.79948 6.00313C2.70272 6.0827 2.61241 6.1827 2.53178 6.30635C2.45222 6.43 2.39524 6.5558 2.36406 6.68375C2.33933 6.78482 2.33718 6.88911 2.35761 7.00094C2.37696 7.11384 2.42104 7.22028 2.48878 7.31598ZM2.63177 6.40742C2.68767 6.31925 2.74788 6.25904 2.81024 6.2257C2.87367 6.1913 2.9457 6.17194 3.02526 6.16872C3.10589 6.16872 3.19083 6.17947 3.28436 6.2085C3.37682 6.23968 3.47143 6.28807 3.56389 6.34613C3.70366 6.43967 3.80795 6.53214 3.88105 6.63106C3.95309 6.73106 3.98642 6.8289 3.98642 6.92352C3.98319 7.01707 3.95416 7.10738 3.89826 7.1934C3.83912 7.28157 3.76817 7.35146 3.68108 7.39124C3.59292 7.43102 3.48326 7.4407 3.35317 7.41705C3.22201 7.39554 3.07687 7.3321 2.91882 7.23211C2.80916 7.15899 2.71885 7.07835 2.64897 6.98803C2.57801 6.89879 2.54146 6.8031 2.53931 6.70633C2.53931 6.60418 2.56941 6.50526 2.63177 6.40849V6.40742Z" fill="#C10230"/>
<path d="M5.42108 4.1274C5.50064 4.25427 5.5974 4.35642 5.71029 4.42846C5.78232 4.47684 5.86725 4.51017 5.96079 4.5306C6.05755 4.55318 6.15754 4.55533 6.26397 4.54243C6.41556 4.51878 6.56608 4.46179 6.71982 4.36179C6.81551 4.30373 6.90367 4.23492 6.98538 4.1575C7.06816 4.08009 7.15847 3.97687 7.25738 3.84891L7.14665 3.69623C7.12622 3.66183 7.09396 3.60484 7.04558 3.52312L7.02193 3.46076L7.07891 3.37797L7.03591 3.31023L6.73057 3.50807L6.42202 3.69623L6.47255 3.77687C6.58328 3.71774 6.65209 3.68333 6.68004 3.67795H6.71982C6.73165 3.68548 6.7596 3.72311 6.79938 3.7887L6.85851 3.8844L6.9198 3.99192L6.81766 4.11879L6.6951 4.21556C6.53813 4.31341 6.36826 4.33599 6.18334 4.28653C6.00164 4.23492 5.84683 4.10804 5.71889 3.9059C5.60278 3.71774 5.563 3.54248 5.59848 3.37152C5.63503 3.20163 5.73824 3.06293 5.91026 2.95541C5.98337 2.90917 6.05325 2.87799 6.12313 2.85971C6.19194 2.83928 6.25752 2.82961 6.32095 2.83176L6.40911 2.84896L6.46717 2.91993L6.53383 3.01347L6.61446 2.96293C6.53383 2.80165 6.48115 2.68445 6.45857 2.61349L6.44029 2.60059C6.36826 2.60811 6.27365 2.63822 6.16076 2.678C6.04895 2.71994 5.93284 2.77692 5.81672 2.85111C5.72104 2.9081 5.6404 2.97261 5.5716 3.03712C5.50064 3.10271 5.44473 3.17475 5.39528 3.25969C5.3469 3.34034 5.31464 3.43173 5.29422 3.52527C5.27486 3.62312 5.27379 3.71881 5.29422 3.81881C5.31249 3.9188 5.35442 4.02202 5.42216 4.12955L5.42108 4.1274Z" fill="#C10230"/>
<path d="M3.83008 11.0628C3.83008 11.0628 4.02682 11.623 4.16121 12.0703L3.89243 10.9639C3.86878 10.9768 3.84835 11.0037 3.83115 11.0639L3.83008 11.0628Z" fill="#C10230"/>
<path d="M19.2235 11.0629C19.2074 11.0027 19.1859 10.9758 19.1633 10.9629L18.8945 12.0693C19.0268 11.622 19.2235 11.0618 19.2235 11.0618V11.0629Z" fill="#C10230"/>
<path d="M18.5603 10.9916C18.2496 11.6389 18.3281 12.3539 18.3281 12.3539C17.6658 11.7561 16.6229 12.241 16.6229 12.241C16.6563 12.3539 17.0035 12.6184 17.0035 12.6184C17.0196 13.8732 17.7647 14.1269 17.7647 14.1269C17.5002 14.3248 17.4336 14.542 17.4336 14.542C17.0508 14.0592 16.2079 14.1613 16.2079 14.1613C16.2079 15.0366 17.1358 15.4688 17.1358 15.4688C17.0519 15.8494 17.1024 16.0344 17.1024 16.0344C16.7885 16.1827 16.4412 16.6139 16.4412 16.6139C16.5391 15.6828 16.2079 15.3699 16.2079 15.3699C15.6446 15.7021 15.4145 16.3311 15.4145 16.3311C14.4695 16.43 13.9556 17.1096 13.9556 17.1096L14.0211 16.8107C12.2655 17.1924 12.2816 18.4321 12.2816 18.4321L12.1999 18.4009C12.1064 17.8364 11.5817 17.8493 11.5258 17.8547C11.4699 17.8493 10.9474 17.8364 10.8517 18.4009L10.7689 18.4321C10.7689 18.4321 10.784 17.1913 9.03045 16.8107L9.09603 17.1096C9.09603 17.1096 8.58212 16.43 7.63924 16.3311C7.63924 16.3311 7.40702 15.7032 6.84366 15.3699C6.84366 15.3699 6.51252 15.6838 6.61251 16.6139C6.61251 16.6139 6.26524 16.1827 5.95131 16.0344C5.95131 16.0344 5.99969 15.8494 5.9169 15.4688C5.9169 15.4688 6.84366 15.0376 6.84366 14.1613C6.84366 14.1613 5.99969 14.0592 5.6191 14.542C5.6191 14.542 5.55136 14.3248 5.28796 14.1269C5.28796 14.1269 6.03302 13.8721 6.05022 12.6184C6.05022 12.6184 6.39641 12.3539 6.43189 12.241C6.43189 12.241 5.38687 11.7571 4.72675 12.3539C4.72675 12.3539 4.90844 10.7292 3.66668 10.168C3.66668 10.168 3.25061 11.1292 3.71506 12.1388C3.71506 12.1388 3.33555 11.941 3.1689 11.9227C3.1689 11.9227 3.05494 12.6195 3.48284 13.1173C3.48284 13.1173 3.13557 13.0528 2.75391 13.2657C2.75391 13.2657 3.15062 14.1108 4.0462 14.3925C4.0462 14.3925 4.11178 14.557 4.17736 14.6742C4.17736 14.6742 3.58282 14.5731 3.00226 14.8237C3.00226 14.8237 3.48284 15.3537 3.66561 15.4376C3.66561 15.4376 4.11178 15.7182 4.34401 15.7516L4.16016 15.8161C4.16016 15.8161 4.99015 16.9257 5.73521 17.059C5.73521 17.059 5.20733 17.2042 5.00628 17.4569C5.00628 17.4569 5.95023 18.3343 7.19307 18.0697C7.19307 18.0697 6.92644 18.3515 6.7942 18.6332C6.7942 18.6332 7.62097 18.8643 8.44988 18.5644L8.36602 18.7665C8.36602 18.7665 8.91218 18.8794 9.70884 18.3515L10.04 18.5848C10.04 18.5848 9.0799 18.7482 8.45096 18.9815L9.11323 19.4622C9.11323 19.4622 9.17989 19.3933 9.62606 19.1826C9.62606 19.1826 10.87 19.4364 11.5258 19.4127C12.1827 19.4364 13.4245 19.1826 13.4245 19.1826C13.8728 19.3933 13.9384 19.4622 13.9384 19.4622L14.5985 18.9815C13.9706 18.7493 13.0105 18.5848 13.0105 18.5848L13.3417 18.3515C14.1373 18.8794 14.6834 18.7665 14.6834 18.7665L14.5996 18.5644C15.4306 18.8643 16.2574 18.6332 16.2574 18.6332C16.1251 18.3504 15.8585 18.0697 15.8585 18.0697C17.1003 18.3343 18.0453 17.4569 18.0453 17.4569C17.8421 17.2042 17.3153 17.059 17.3153 17.059C18.0604 16.9257 18.8904 15.8161 18.8904 15.8161L18.7065 15.7516C18.9387 15.7172 19.3871 15.4376 19.3871 15.4376C19.5677 15.3537 20.0483 14.8237 20.0483 14.8237C19.4709 14.5731 18.8732 14.6742 18.8732 14.6742C18.9387 14.557 19.0054 14.3925 19.0054 14.3925C19.8988 14.1108 20.2966 13.2657 20.2966 13.2657C19.9139 13.0528 19.5677 13.1173 19.5677 13.1173C19.9988 12.6195 19.8827 11.9227 19.8827 11.9227C19.7171 11.941 19.3355 12.1388 19.3355 12.1388C19.801 11.1292 19.3871 10.168 19.3871 10.168C19.0957 10.2991 18.8861 10.4873 18.7312 10.6991L18.5571 10.9916H18.5603ZM20.0321 13.3474L19.9601 13.4388C19.9601 13.4388 19.901 13.3237 19.8182 13.3474C19.8182 13.3474 18.8925 13.656 18.3431 13.9775C18.3431 13.9775 18.7581 13.084 20.0311 13.3474H20.0321ZM18.3033 14.3753C18.4184 14.442 18.7764 14.4183 18.7764 14.4183L18.627 14.7075L18.313 14.9226C18.3442 14.7215 18.3044 14.3742 18.3044 14.3742L18.3033 14.3753ZM18.2055 13.0926L18.528 13.1012C18.485 13.184 18.4033 13.5721 18.4033 13.5721L18.2055 13.8044C18.255 13.6054 18.2055 13.0926 18.2055 13.0926ZM19.2892 13.1334H19.2064C19.2064 13.1334 19.4731 12.8614 19.6537 12.4603C19.6537 12.4603 19.644 12.7926 19.2892 13.1334ZM19.5387 12.27C19.5387 12.27 19.3301 12.7205 18.9097 13.2334L18.6431 13.3818C18.6431 13.3818 18.8183 12.5281 19.5387 12.27ZM19.2849 10.4551C19.2849 10.4551 19.6644 11.784 18.7764 12.5539C18.7839 12.4614 18.8334 12.2775 18.8936 12.07L19.1624 10.9636C19.1054 10.9335 19.0409 11.0152 19.0409 11.0152C18.899 11.2206 18.5764 12.5109 18.5764 12.5109C18.5764 12.5109 18.1872 11.2776 19.2849 10.4551ZM18.3872 12.7861C18.0152 12.4958 17.2422 12.2636 17.2422 12.2636C18.212 12.1378 18.3872 12.7861 18.3872 12.7861ZM18.1356 12.8614C17.5658 12.8324 17.11 12.4378 17.11 12.4378C17.6067 12.5442 18.1356 12.8614 18.1356 12.8614ZM18.0958 14.3592C18.2464 15.1957 17.8647 15.7656 17.8647 15.7656L17.64 15.801C17.7314 15.7172 17.9217 15.071 17.9217 15.071C17.8959 14.9323 18.0958 14.3592 18.0958 14.3592ZM17.7153 12.9764L17.9808 13.0431C18.0722 13.3399 18.0152 13.8291 18.0152 13.8291C17.8733 13.656 17.7153 12.9764 17.7153 12.9764ZM17.2196 12.7442L17.4927 12.9119C17.5927 13.428 17.8324 13.9248 17.8324 13.9248C17.1766 13.599 17.2185 12.7431 17.2185 12.7431L17.2196 12.7442ZM17.9055 14.3172C17.84 14.3925 17.7583 14.8731 17.7583 14.8731C17.7249 15.3118 17.368 15.9086 17.368 15.9086L17.2852 15.9333C17.3422 14.4925 17.9055 14.3183 17.9055 14.3183V14.3172ZM17.3099 14.714L17.268 14.8376C17.268 14.8376 16.8788 14.4914 16.6885 14.3753C16.6885 14.3753 17.0777 14.3602 17.3099 14.714ZM16.4735 14.4678C16.4735 14.4678 17.0121 14.814 17.1863 15.0376L17.1508 15.2376C17.1508 15.2376 16.5638 14.957 16.4735 14.4678ZM16.151 15.6602C16.151 15.6602 16.1821 15.7258 16.1907 15.8161C16.1907 15.8161 16.051 15.7752 16.0338 15.901C16.0338 15.901 15.6209 17.2053 15.2973 17.3461C15.2973 17.3461 15.3543 16.2967 16.151 15.6591V15.6602ZM15.2887 17.6063C15.2887 17.6063 15.6693 17.5795 16.2327 15.9483C16.2327 15.9483 16.4907 17.2063 15.2887 17.6708V17.6074V17.6063ZM15.2156 16.5623C14.5286 17.9698 13.8577 18.0257 13.8577 18.0257C14.3964 17.3816 15.05 16.7945 15.05 16.7945C15.1253 16.6709 15.0253 16.6128 15.0253 16.6128C15.1339 16.5709 15.2156 16.5612 15.2156 16.5612V16.5623ZM14.9651 17.6784L14.7512 17.6558C14.8243 17.5708 15.0973 17.1666 15.0973 17.1666L15.0909 17.5139C14.95 17.5483 14.9651 17.6784 14.9651 17.6784ZM14.8511 16.6945C14.8511 16.6945 13.8749 17.6386 13.8427 17.7386C13.8427 17.7386 14.1566 16.8849 14.8511 16.6945ZM9.21322 17.7386C9.18096 17.6386 8.20368 16.6945 8.20368 16.6945C8.89928 16.8849 9.21322 17.7386 9.21322 17.7386ZM8.02736 16.6139C8.02736 16.6139 7.92737 16.6709 8.00371 16.7956C8.00371 16.7956 8.65953 17.3827 9.19709 18.0267C9.19709 18.0267 8.52729 17.9708 7.83921 16.5634C7.83921 16.5634 7.922 16.572 8.02844 16.615L8.02736 16.6139ZM7.96285 17.5139L7.95533 17.1666C7.95533 17.1666 8.22841 17.5708 8.30259 17.6558L8.08757 17.6784C8.08757 17.6784 8.10262 17.5483 7.96285 17.5139ZM6.90386 15.6602C7.69945 16.2978 7.75428 17.3472 7.75428 17.3472C7.43389 17.2063 7.0189 15.9021 7.0189 15.9021C7.0017 15.7763 6.86086 15.8172 6.86086 15.8172C6.86946 15.7268 6.90279 15.6613 6.90279 15.6613L6.90386 15.6602ZM6.82 15.9483C7.38229 17.5795 7.76503 17.6063 7.76503 17.6063V17.6698C6.56305 17.2053 6.82 15.9473 6.82 15.9473V15.9483ZM5.90185 15.2365L5.86852 15.0366C6.04269 14.8129 6.57918 14.4667 6.57918 14.4667C6.48887 14.9559 5.90078 15.2365 5.90078 15.2365H5.90185ZM6.36523 14.3753C6.17386 14.4925 5.78466 14.8376 5.78466 14.8376L5.74381 14.714C5.97604 14.3602 6.36523 14.3753 6.36523 14.3753ZM5.76854 15.9322L5.68575 15.9075C5.68575 15.9075 5.33096 15.3107 5.29871 14.8721C5.29871 14.8721 5.21485 14.3914 5.14819 14.3162C5.14819 14.3162 5.71156 14.4903 5.76854 15.9311V15.9322ZM5.13099 15.071C5.13099 15.071 5.32021 15.7172 5.4116 15.801L5.19012 15.7656C5.19012 15.7656 4.80846 15.1957 4.95575 14.3592C4.95575 14.3592 5.15572 14.9312 5.13099 15.071ZM5.07401 13.0431L5.33526 12.9764C5.33526 12.9764 5.1783 13.656 5.03961 13.8291C5.03961 13.8291 4.98048 13.3399 5.07294 13.0431H5.07401ZM5.22238 13.9259C5.22238 13.9259 5.46213 13.4291 5.56211 12.913L5.83627 12.7453C5.83627 12.7453 5.87605 13.6001 5.22238 13.9269V13.9259ZM4.91704 12.8614C4.91704 12.8614 5.44708 12.5442 5.94163 12.4378C5.94163 12.4378 5.48686 12.8324 4.91704 12.8614ZM5.80939 12.2646C5.80939 12.2646 5.04068 12.4969 4.66654 12.7872C4.66654 12.7872 4.84179 12.1399 5.80939 12.2646ZM4.84931 13.8044L4.64934 13.5721C4.64934 13.5721 4.56871 13.184 4.5257 13.1012L4.84824 13.0926C4.84824 13.0926 4.79771 13.6044 4.84824 13.8044H4.84931ZM4.74395 14.9226L4.42679 14.7075L4.28057 14.4183C4.28057 14.4183 4.63429 14.442 4.7504 14.3753C4.7504 14.3753 4.71062 14.7226 4.74502 14.9237L4.74395 14.9226ZM3.76882 10.4551C4.86544 11.2776 4.47625 12.5109 4.47625 12.5109C4.47625 12.5109 4.15371 11.2206 4.01179 11.0152C4.01179 11.0152 3.94944 10.9335 3.89138 10.9636L4.16016 12.07C4.21929 12.2775 4.26767 12.4614 4.27842 12.5539C3.385 11.7851 3.76774 10.4551 3.76774 10.4551H3.76882ZM4.41066 13.3818L4.14511 13.2334C3.72474 12.7205 3.51724 12.27 3.51724 12.27C4.23649 12.5281 4.41066 13.3818 4.41066 13.3818ZM3.4022 12.4603C3.5839 12.8614 3.84838 13.1334 3.84838 13.1334H3.76452C3.40865 12.7926 3.40328 12.4603 3.40328 12.4603H3.4022ZM3.09364 13.4399L3.01946 13.3485C4.29348 13.085 4.70847 13.9785 4.70847 13.9785C4.16016 13.656 3.23341 13.3485 3.23341 13.3485C3.14955 13.3259 3.09257 13.4399 3.09257 13.4399H3.09364ZM3.18503 13.5474C3.87203 13.7291 4.68374 14.199 4.68374 14.199C3.78172 14.399 3.18503 13.5474 3.18503 13.5474ZM3.3506 14.9226C4.74825 14.5667 4.88264 15.5613 4.88264 15.5613C4.36013 15.0301 3.59142 14.8903 3.59142 14.8903C3.40113 14.8903 3.51616 15.0462 3.51616 15.0462C4.34401 15.2774 4.65902 15.6441 4.65902 15.6441C4.03007 15.5763 3.3506 14.9226 3.3506 14.9226ZM4.66654 16.0989C4.58376 16.0537 4.50205 15.9322 4.50205 15.9322C6.03302 15.8161 6.50607 16.8171 6.50607 16.8171C5.58577 16.1999 4.80738 15.9903 4.80738 15.9903C4.65794 15.9322 4.66547 16.0989 4.66547 16.0989H4.66654ZM4.72675 16.1548C4.72675 16.1548 5.27936 16.2806 6.38243 16.9666C6.38243 16.9666 5.41267 17.0096 4.72675 16.1548ZM5.34602 17.4397C6.01796 16.9171 6.95332 17.3085 6.95332 17.3085C6.97052 17.3666 7.28553 17.63 7.28553 17.63C6.78667 17.4805 5.83627 17.3246 5.83627 17.3246C5.65995 17.373 5.80187 17.4967 5.80187 17.4967C6.55445 17.6386 7.32423 17.8547 7.32423 17.8547C6.17386 18.1794 5.34494 17.4407 5.34494 17.4407L5.34602 17.4397ZM7.22532 18.5063L7.11028 18.5009C7.11028 18.5009 7.67472 17.5795 8.6262 17.9698C8.6262 17.9698 7.41669 18.3332 7.28553 18.3998C7.28553 18.3998 7.21027 18.4256 7.22532 18.5063ZM7.55753 18.5063C7.55753 18.5063 8.652 18.1429 8.87455 18.1106L8.96594 18.159C8.96594 18.159 8.39505 18.5493 7.55861 18.5063H7.55753ZM8.75629 18.5568C8.90681 18.4418 9.16376 18.2504 9.16376 18.2504L9.37878 18.2923C9.14763 18.5009 8.75522 18.5568 8.75522 18.5568H8.75629ZM9.2874 17.0655C10.613 17.5128 10.5958 18.4654 10.5958 18.4654C10.4216 18.4084 9.568 17.3246 9.568 17.3246C9.34438 17.2246 9.42824 17.4569 9.42824 17.4569C9.75077 17.8547 10.2238 18.4181 10.2238 18.4181C9.45189 18.2687 9.2874 17.0655 9.2874 17.0655ZM11.5322 19.1299H11.5215C11.4323 19.1342 10.7721 19.1342 10.14 18.9977C10.14 18.9977 10.7829 18.7665 11.5269 18.7482C12.2698 18.7665 12.9127 18.9977 12.9127 18.9977C12.2795 19.1342 11.6204 19.1331 11.5322 19.1299ZM12.8288 18.4181C12.8288 18.4181 13.2997 17.8536 13.6255 17.4569C13.6255 17.4569 13.7072 17.2246 13.4836 17.3246C13.4836 17.3246 12.631 18.4084 12.4568 18.4654C12.4568 18.4654 12.4396 17.5128 13.7653 17.0655C13.7653 17.0655 13.5997 18.2687 12.8288 18.4181ZM13.6739 18.2934L13.89 18.2515C13.89 18.2515 14.1469 18.4418 14.2964 18.5579C14.2964 18.5579 13.9061 18.502 13.6739 18.2934ZM14.0878 18.159L14.1803 18.1106C14.4039 18.1429 15.4973 18.5063 15.4973 18.5063C14.6608 18.5493 14.0878 18.159 14.0878 18.159ZM15.9435 18.5009L15.8284 18.5063C15.8445 18.4256 15.7714 18.3998 15.7714 18.3998C15.637 18.3332 14.4286 17.9698 14.4286 17.9698C15.3812 17.5795 15.9435 18.5009 15.9435 18.5009ZM17.7066 17.4397C17.7066 17.4397 16.8788 18.1783 15.7284 17.8536C15.7284 17.8536 16.4982 17.6375 17.2519 17.4956C17.2519 17.4956 17.3927 17.3719 17.2185 17.3235C17.2185 17.3235 16.2649 17.4795 15.7704 17.6289C15.7704 17.6289 16.0821 17.3644 16.1004 17.3074C16.1004 17.3074 17.0379 16.9171 17.7056 17.4386L17.7066 17.4397ZM16.6724 16.9666C17.7733 16.2806 18.3281 16.1548 18.3281 16.1548C17.64 17.0096 16.6724 16.9666 16.6724 16.9666ZM18.3872 16.0989C18.3872 16.0989 18.3937 15.9322 18.2464 15.9903C18.2464 15.9903 17.4669 16.1999 16.5487 16.8171C16.5487 16.8171 17.0207 15.8161 18.5528 15.9322C18.5528 15.9322 18.47 16.0537 18.3883 16.0989H18.3872ZM19.7031 14.9226C19.7031 14.9226 19.0247 15.5763 18.3947 15.6441C18.3947 15.6441 18.7097 15.2774 19.5387 15.0462C19.5387 15.0462 19.6537 14.8903 19.4623 14.8903C19.4623 14.8903 18.6915 15.0312 18.1722 15.5613C18.1722 15.5613 18.3044 14.5656 19.7031 14.9226ZM18.37 14.199C18.37 14.199 19.1828 13.7291 19.8676 13.5474C19.8676 13.5474 19.2742 14.4 18.37 14.199Z" fill="#C10230"/>
<path d="M12.0015 12.8066C11.3983 13.1905 11.0371 12.8066 11.0371 12.8066V14.7936C11.5994 15.0743 12.0015 14.7936 12.0015 14.7936V12.8066Z" fill="#C10230"/>
<path d="M6.54944 12.167C6.54944 12.167 6.38817 14.7034 9.105 14.8432C9.105 14.8432 11.237 14.9335 10.7962 13.0422H9.89091C9.89091 13.0422 10.5134 14.0174 9.40603 14.1777C9.40603 14.1777 8.11696 14.3992 8.19975 12.3466C8.19975 12.3466 8.34059 9.97355 10.1511 8.56502C10.1511 8.56502 9.54687 7.8801 9.86941 7.05541C9.86941 7.05541 10.135 6.12857 11.1574 5.89525L11.0671 9.14026L11.5004 9.40476V9.41229L11.5047 9.40691L11.5111 9.41229V9.40476L11.9422 9.14026L11.853 5.89955C12.8668 6.13502 13.1313 7.05648 13.1313 7.05648C13.4538 7.88118 12.8486 8.56609 12.8486 8.56609C14.6612 9.97463 14.802 12.3476 14.802 12.3476C14.8827 14.4002 13.5936 14.1787 13.5936 14.1787C12.4873 14.0185 13.1098 13.0433 13.1098 13.0433H12.2035C11.7616 14.9335 13.8957 14.8443 13.8957 14.8443C16.6115 14.7045 16.4524 12.1681 16.4524 12.1681C16.6115 9.81442 13.7947 8.52416 13.7947 8.52416C14.5161 6.14147 12.6378 5.5501 11.839 5.40925L11.8218 4.82433L11.5122 4.49962V4.49316L11.5057 4.49531L11.5014 4.49316V4.49962L11.1896 4.82433L11.1724 5.40602C10.3801 5.5458 8.48358 6.13072 9.20713 8.52416C9.20713 8.52416 6.39032 9.81442 6.55159 12.1681L6.54944 12.167Z" fill="#C10230"/>
<path d="M14.4988 12.4904L13.6731 9.6895C12.4259 9.03792 11.5293 9.88304 11.5013 9.90992C11.4766 9.88304 10.58 9.03792 9.33175 9.6895L8.50391 12.4904C8.50391 12.4904 9.89296 11.7227 11.2422 12.6507H11.2433C11.3003 12.6883 11.3938 12.7141 11.5003 12.7141C11.6067 12.7141 11.6981 12.6883 11.7551 12.6507H11.7615C13.1108 11.7227 14.4977 12.4904 14.4977 12.4904H14.4988ZM11.5013 12.5087C11.4766 12.4904 10.2198 11.6701 8.86837 12.1055L9.47044 9.81315C9.47044 9.81315 10.2961 9.2906 11.5024 9.99057C12.7098 9.28952 13.5333 9.81315 13.5333 9.81315L14.1375 12.1055C12.7829 11.6701 11.5304 12.4904 11.5013 12.5087Z" fill="#C10230"/>
<path d="M10.1668 11.5883L10.1313 11.584L10.1162 11.5722L10.1033 11.5475L10.07 11.4529L10.0216 11.3163L9.66467 10.2637L9.57974 10.2723L9.54426 10.5099L9.43675 11.183C9.41955 11.3131 9.40234 11.397 9.39697 11.44C9.38407 11.5314 9.37117 11.5883 9.36902 11.6002L9.35826 11.6335L9.34429 11.6486L9.28516 11.6625L9.29161 11.7485L9.4303 11.7303L9.57221 11.726L9.56469 11.64L9.47653 11.626L9.46363 11.5937C9.46148 11.5701 9.46578 11.5099 9.48083 11.4142L9.49803 11.2873L9.81089 11.2625L9.88077 11.4851L9.9012 11.5679L9.89367 11.598L9.81304 11.6195L9.81949 11.7034L10.0313 11.6797L10.2012 11.6722L10.1958 11.5873L10.1678 11.5851L10.1668 11.5883ZM9.6464 11.1658L9.51631 11.1733L9.59802 10.6314L9.77003 11.1529L9.6464 11.1658Z" fill="#C10230"/>
<path d="M10.6026 11.0092V11.0909C10.665 11.0974 10.7037 11.1017 10.7187 11.1114L10.7348 11.1296C10.7381 11.1404 10.7413 11.1813 10.7413 11.2468L10.7381 11.3404C10.7381 11.3963 10.737 11.4318 10.7348 11.4479L10.6617 11.4898L10.5811 11.5049C10.4865 11.5049 10.4069 11.4458 10.3435 11.3253C10.2801 11.2071 10.2467 11.0447 10.2467 10.8404C10.2467 10.6555 10.279 10.5103 10.3392 10.4017C10.4005 10.2942 10.48 10.2415 10.5822 10.2415L10.6994 10.2673L10.7907 10.3361L10.823 10.3877L10.8284 10.4662L10.8327 10.5641H10.8811C10.8886 10.4093 10.8983 10.3028 10.909 10.2404L10.9026 10.2232C10.8692 10.1985 10.8219 10.1759 10.7617 10.1512C10.7037 10.1308 10.6381 10.1211 10.5693 10.1211C10.5134 10.1211 10.4639 10.1286 10.4145 10.1458L10.2801 10.2265C10.2381 10.2641 10.1994 10.3125 10.164 10.3727C10.1317 10.4329 10.1037 10.5028 10.0855 10.5834C10.0672 10.663 10.0586 10.7576 10.0586 10.8662C10.0586 10.9942 10.0715 11.1114 10.1016 11.2157C10.1199 11.2834 10.1457 11.3458 10.1801 11.4049C10.2166 11.463 10.2575 11.5103 10.3069 11.549C10.3779 11.5995 10.4585 11.6275 10.5499 11.6275C10.6058 11.6275 10.6617 11.6167 10.7187 11.5995C10.7735 11.5759 10.8402 11.5468 10.9176 11.4995L10.9112 11.3372C10.9112 11.3049 10.9112 11.2468 10.9144 11.1673L10.9198 11.1124L10.9671 11.0759V11.0103L10.7832 11.0124L10.6015 11.0103L10.6026 11.0092Z" fill="#C10230"/>
<path d="M11.9079 11.491L11.895 11.4802L11.8843 11.4523L11.8585 11.3577L11.8209 11.2179L11.5499 10.1416H11.4628L11.4091 10.3738L11.2489 11.0383C11.2188 11.1652 11.1973 11.248 11.1898 11.2899C11.165 11.3835 11.15 11.4351 11.1446 11.4491L11.1328 11.4802L11.1145 11.4921L11.0586 11.505V11.5899L11.1984 11.5845L11.3381 11.5899V11.505L11.251 11.4845L11.2414 11.4512C11.2414 11.4254 11.251 11.3674 11.2704 11.2727L11.2973 11.1459H11.6112L11.665 11.376L11.6768 11.4587L11.6671 11.4899L11.5854 11.505V11.5899L11.7983 11.5845L11.966 11.5899V11.505L11.9402 11.4985L11.9036 11.4899L11.9079 11.491ZM11.4585 11.034H11.3284L11.4542 10.4996L11.5843 11.033H11.4585V11.034Z" fill="#C10230"/>
<path d="M12.8057 10.2846L12.7326 10.1803L12.6068 10.1427L12.3337 10.1362L12.1563 10.1201L12.1466 10.2051L12.2165 10.2158L12.237 10.2276L12.2445 10.2448L12.2477 10.2889C12.2477 10.3094 12.2445 10.362 12.2423 10.4438L12.2327 10.6373L12.2101 11.0007C12.2036 11.1373 12.1929 11.2598 12.1843 11.3684L12.1714 11.4448L12.1617 11.4577L12.0757 11.4695L12.0703 11.562C12.1219 11.5609 12.1778 11.562 12.2348 11.5652C12.2875 11.5695 12.367 11.5749 12.4692 11.5856L12.4746 11.4932L12.3918 11.4813L12.3724 11.4663L12.366 11.4502C12.3638 11.434 12.3638 11.3953 12.366 11.3362C12.3681 11.234 12.3724 11.133 12.3799 11.0351L12.4025 10.647L12.4165 10.4438C12.4197 10.3631 12.4283 10.3018 12.4316 10.2577L12.5079 10.2481L12.6154 10.3255C12.639 10.3739 12.6487 10.4448 12.6412 10.5405C12.6369 10.6319 12.6186 10.6975 12.5907 10.7437L12.4907 10.8093L12.4692 10.8029L12.4455 10.7921L12.4305 10.8126L12.4477 10.8867L12.4842 10.9007L12.5219 10.9061L12.6713 10.8513C12.7175 10.8115 12.7552 10.7577 12.7799 10.6932C12.8057 10.6255 12.8207 10.5545 12.824 10.4782C12.8272 10.4029 12.824 10.3341 12.8025 10.2857L12.8057 10.2846Z" fill="#C10230"/>
<path d="M13.3935 11.6897L13.4042 11.6757C13.4171 11.5897 13.4376 11.4789 13.4666 11.3435L13.4161 11.337C13.3946 11.4273 13.3795 11.4897 13.3655 11.5209L13.3569 11.5392L13.287 11.5499L13.1645 11.5392L13.0494 11.5166L13.0666 11.3897L13.129 10.9585L13.2268 10.965L13.3322 10.9919L13.3548 11.0231C13.358 11.0413 13.3548 11.0908 13.3429 11.1714L13.3946 11.179L13.4247 10.9553L13.4601 10.7295L13.4107 10.7231C13.4021 10.7844 13.3913 10.8252 13.3849 10.8521L13.372 10.8725H13.3322C13.2741 10.8693 13.2408 10.8618 13.2322 10.8607L13.1473 10.8456L13.1774 10.6381C13.1957 10.5156 13.2107 10.4199 13.2301 10.3446L13.3397 10.3532L13.4558 10.3822L13.5021 10.4048V10.4274C13.5031 10.4457 13.501 10.493 13.4902 10.5747L13.5365 10.5833C13.5515 10.4951 13.5612 10.4457 13.5644 10.436L13.5967 10.2898L13.5945 10.2758L13.5762 10.2672L13.487 10.25L13.3634 10.2381C13.2956 10.2306 13.2344 10.222 13.1795 10.2134L13.1 10.2027L12.9624 10.1758L12.9484 10.2639L13.0322 10.2951L13.0408 10.3123C13.0408 10.3285 13.0387 10.3747 13.0279 10.451C13.014 10.5682 13.0032 10.6349 13 10.65L12.9333 11.1091C12.9247 11.1639 12.9118 11.2488 12.8914 11.365C12.8806 11.4273 12.872 11.4746 12.8645 11.5026L12.7968 11.5531L12.7871 11.608C12.9129 11.622 12.9817 11.6306 12.9903 11.6306C13.0279 11.6359 13.0924 11.6499 13.1881 11.665L13.2849 11.6811L13.3946 11.6918L13.3935 11.6897Z" fill="#C10230"/>
</svg>
