<svg xmlns="http://www.w3.org/2000/svg" width="24" height="24" viewBox="0 0 24 24" fill="none">
  <g clip-path="url(#clip0_63_9983)">
    <path d="M12.0006 24C18.6184 24 24 18.6146 24 12.0006C24 5.38656 18.6184 0 12.0006 0C5.3827 0 0 5.38432 0 12.0006C0 18.6168 5.3827 24 12.0006 24ZM0.502594 12.0006C0.502594 5.66032 5.66092 0.503763 12.0006 0.503763C18.3402 0.503763 23.4952 5.66032 23.4952 12.0006C23.4952 18.3408 18.3402 23.4962 12.0006 23.4962C5.66092 23.4962 0.502594 18.3386 0.502594 12.0006Z" fill="#C10230"/>
    <path d="M20.2699 10.8046C19.6967 6.72292 16.1538 3.64648 12.0287 3.64648C7.90366 3.64648 4.36082 6.71955 3.78418 10.7945L4.23517 10.8574C4.77927 7.00341 8.13028 4.09976 12.0287 4.09976C15.9272 4.09976 19.2793 7.0079 19.8212 10.8675L20.2699 10.8035V10.8046Z" fill="#C10230"/>
    <path d="M9.82934 17.543V17.4487L10.0447 17.424L10.0963 17.4061L10.1188 17.3455C10.1266 17.2849 10.1311 17.1548 10.1311 16.9506V16.6791C10.1311 16.5859 10.1311 16.4827 10.1278 16.375L10.1255 16.2774L10.1177 16.2325L10.0997 16.2202L10.0503 16.2392C9.90338 16.3043 9.81027 16.3447 9.76876 16.3694L9.75529 16.3615L9.74408 16.2886L9.72949 16.2168L9.73174 16.209C9.86748 16.1719 9.97518 16.136 10.056 16.1113C10.1356 16.0833 10.2601 16.0384 10.4295 15.9756L10.4553 15.9924C10.4553 16.0048 10.452 16.0384 10.4475 16.1001C10.443 16.1585 10.4396 16.1966 10.4396 16.2146C10.4396 16.2785 10.4351 16.4468 10.4307 16.7172V16.8866C10.4307 17.0493 10.4329 17.1649 10.4396 17.2277C10.4396 17.3264 10.4441 17.3803 10.452 17.3971L10.4755 17.4207C10.4935 17.4285 10.5462 17.4364 10.636 17.4409L10.7089 17.4465V17.5407C10.5428 17.5351 10.4093 17.5329 10.3073 17.5329C10.2377 17.5329 10.0761 17.5351 9.82597 17.5407L9.82934 17.543Z" fill="#C10230"/>
    <path d="M11.6179 16.6816L11.5461 16.7635L11.4429 16.7938L11.3296 16.7534L11.2455 16.6457C11.2253 16.5941 11.2141 16.5257 11.2141 16.4426C11.2141 16.3282 11.232 16.2497 11.2713 16.2025C11.3094 16.1543 11.3554 16.1296 11.4138 16.1296C11.4878 16.1296 11.5461 16.1644 11.582 16.2351C11.6202 16.3058 11.6392 16.4045 11.6392 16.5324C11.6392 16.5975 11.6336 16.6457 11.6191 16.6816H11.6179ZM11.4138 17.5186C11.5091 17.4793 11.5955 17.4199 11.6774 17.3413C11.7559 17.2628 11.8199 17.1674 11.8659 17.0564C11.913 16.9453 11.9365 16.8095 11.9365 16.6502C11.9365 16.5111 11.9186 16.3989 11.8838 16.3103C11.849 16.2183 11.7952 16.1453 11.72 16.0904C11.6482 16.0343 11.5551 16.0073 11.4407 16.0073C11.2937 16.0073 11.1737 16.0556 11.0783 16.1577C10.9818 16.2598 10.9336 16.3922 10.9336 16.5638C10.9336 16.7041 10.9695 16.8107 11.0357 16.8881C11.1008 16.9599 11.1838 16.9991 11.2814 16.9991L11.444 16.9722L11.4833 16.9464C11.5102 16.9251 11.5573 16.8813 11.6314 16.8163C11.6191 16.9329 11.6067 17.0205 11.5888 17.0777C11.5652 17.1517 11.5327 17.219 11.4945 17.2796C11.4519 17.3413 11.398 17.3862 11.3319 17.4255C11.2679 17.4614 11.1972 17.4816 11.1221 17.4816L11.0402 17.467L11.0132 17.5108L11.1008 17.5826C11.2118 17.5826 11.315 17.5635 11.4104 17.5209L11.4138 17.5186Z" fill="#C10230"/>
    <path d="M12.4529 16.5692C12.4989 16.4861 12.5741 16.3594 12.6806 16.1888L12.675 16.3986L12.6728 16.5456L12.6683 16.9574H12.2599C12.3418 16.7812 12.4058 16.6522 12.454 16.5703L12.4529 16.5692ZM12.785 17.5352L13.0755 17.5408H13.1664V17.4477L13.0194 17.4342L12.9734 17.414L12.9544 17.3781C12.9488 17.3377 12.9476 17.2614 12.9476 17.1481H13.1608L13.1529 17.0639L13.1608 16.9618L13.1529 16.9495L12.9903 16.9562H12.9476V16.7004C12.9488 16.4592 12.951 16.3055 12.9544 16.2359C12.9589 16.1305 12.9611 16.0486 12.9656 15.997L12.9454 15.979C12.9319 15.979 12.8837 15.9869 12.7973 16.0071L12.6627 16.034C12.6313 16.0755 12.5774 16.1518 12.5045 16.2696C12.4316 16.3852 12.3429 16.5456 12.2375 16.7487C12.1612 16.8979 12.1118 16.9989 12.0928 17.0572L12.1062 17.1526C12.2442 17.147 12.3788 17.147 12.5157 17.147H12.6672C12.6627 17.2659 12.6627 17.331 12.6593 17.3433L12.6402 17.4118L12.6043 17.4275C12.5864 17.4342 12.5168 17.4376 12.3934 17.4454V17.5397L12.785 17.5318V17.5352Z" fill="#C10230"/>
    <path d="M13.6875 16.2901C13.7032 16.2328 13.729 16.1913 13.7593 16.1655L13.8658 16.1285L13.9601 16.1588L14.0285 16.2508C14.0476 16.2934 14.0622 16.3574 14.0723 16.4404C14.0925 16.5975 14.1037 16.7523 14.1037 16.9105C14.1037 17.1551 14.0812 17.3054 14.0431 17.3694C14.0016 17.43 13.9522 17.4625 13.8916 17.4625L13.7593 17.3974C13.7211 17.3526 13.6942 17.2617 13.6774 17.1259C13.6605 16.9879 13.6516 16.8308 13.6516 16.6637C13.6516 16.4965 13.6628 16.3731 13.6875 16.2901ZM13.3947 17.1439C13.4115 17.2404 13.4373 17.3234 13.4788 17.384C13.5203 17.4479 13.5719 17.4984 13.6359 17.5321C13.702 17.5646 13.775 17.5803 13.8625 17.5803C13.9354 17.5803 13.9971 17.5702 14.0476 17.5489L14.1867 17.4625C14.2271 17.4232 14.2652 17.3694 14.2966 17.3021C14.3303 17.237 14.355 17.1551 14.3651 17.062C14.3763 16.9677 14.3841 16.8589 14.3841 16.7332C14.3841 16.556 14.3673 16.418 14.337 16.3192C14.3056 16.2194 14.2551 16.142 14.1844 16.0859C14.1138 16.0343 14.0184 16.0073 13.8916 16.0073C13.8311 16.0073 13.7727 16.0163 13.7177 16.0343L13.5753 16.1218C13.5338 16.1565 13.4967 16.2059 13.4653 16.2654C13.4339 16.3248 13.4092 16.3888 13.3991 16.4617C13.3801 16.5683 13.3711 16.6872 13.3711 16.8196C13.3711 16.9397 13.3789 17.0474 13.3913 17.1439H13.3947Z" fill="#C10230"/>
    <path d="M8.75922 1.82191L8.79624 1.84884L8.8299 1.92401C8.85907 2.01938 8.88487 2.1226 8.91292 2.24265L8.98808 2.56241L9.04417 2.80364C9.07559 2.93827 9.09466 3.01681 9.10812 3.04822L9.19114 3.19071C9.2304 3.23559 9.28089 3.27262 9.34147 3.30291C9.40205 3.33545 9.47721 3.35228 9.5636 3.36013C9.68251 3.36799 9.80592 3.35789 9.93269 3.32647C10.0426 3.30067 10.1346 3.26813 10.2143 3.22437C10.2917 3.17949 10.3556 3.12901 10.4061 3.07179C10.4544 3.01008 10.4891 2.94613 10.5082 2.8833C10.5295 2.8171 10.5351 2.74305 10.5273 2.66002C10.5194 2.577 10.5082 2.49622 10.488 2.42104L10.4196 2.1226C10.3994 2.03845 10.3758 1.91728 10.3455 1.76582C10.3164 1.61323 10.3018 1.52571 10.304 1.5044L10.3186 1.46064C10.3366 1.44269 10.3837 1.42474 10.4622 1.40903L10.4386 1.30469L10.1604 1.37762L10.1268 1.38884C10.0987 1.39444 10.0056 1.4124 9.85304 1.44045L9.8766 1.54591C9.97083 1.52459 10.0337 1.52011 10.0662 1.52908L10.1021 1.55152C10.1167 1.57172 10.138 1.63455 10.1649 1.73889C10.1773 1.78713 10.2087 1.92401 10.2603 2.14392L10.3186 2.40197C10.3624 2.57924 10.3758 2.70602 10.3601 2.77671C10.3467 2.84739 10.3096 2.9091 10.2479 2.96744C10.1896 3.0213 10.0998 3.06618 9.98317 3.0931C9.87996 3.11666 9.79582 3.12115 9.72178 3.10544C9.64886 3.0931 9.59164 3.06505 9.55013 3.02242C9.50526 2.98315 9.47048 2.92256 9.4458 2.84515C9.43234 2.81037 9.40878 2.71612 9.374 2.56241L9.33698 2.41544L9.26855 2.1226C9.22816 1.94421 9.20684 1.82977 9.20684 1.77479L9.22031 1.72318C9.24274 1.70074 9.29772 1.68167 9.38859 1.65923L9.36278 1.55376L9.31679 1.56611L9.14851 1.60874L8.97798 1.65362L8.56738 1.74001L8.59319 1.84435L8.76146 1.82191H8.75922Z" fill="#C10230"/>
    <path d="M11.51 3.0202V2.91586H11.4842L11.3642 2.90576L11.3193 2.89118L11.3025 2.86762C11.2957 2.8463 11.2901 2.78796 11.2867 2.6881C11.2823 2.54561 11.28 2.40649 11.28 2.27297V1.63682C11.7871 2.25278 12.1764 2.71503 12.4535 3.02581C12.5264 3.03255 12.6004 3.04489 12.6722 3.05723L12.688 3.04601C12.6756 2.92484 12.6722 2.58039 12.6722 2.01268C12.6722 1.93975 12.6722 1.82755 12.6756 1.67721C12.6812 1.5235 12.6891 1.42477 12.7014 1.38325L12.716 1.36418C12.7351 1.35296 12.7979 1.34398 12.9022 1.34062V1.23291C12.7676 1.2374 12.6588 1.23964 12.5746 1.23964C12.4905 1.23964 12.3929 1.2374 12.2874 1.23291V1.34062C12.4008 1.34286 12.4692 1.35296 12.4871 1.36642L12.5118 1.42813C12.5186 1.51004 12.5253 1.77931 12.5253 2.23819V2.53439C12.4064 2.41546 12.2594 2.2438 12.0788 2.02614C11.8275 1.72882 11.6166 1.4674 11.4404 1.23403L11.3226 1.23852L11.1364 1.24076C11.0859 1.24076 11.0063 1.23852 10.8975 1.23403V1.34174C10.9861 1.34847 11.0433 1.35408 11.0601 1.35745L11.1016 1.37989L11.1207 1.4214C11.1252 1.44047 11.1274 1.48199 11.1274 1.54594L11.1342 1.91619V2.32795C11.1342 2.44127 11.1319 2.53439 11.1274 2.60508C11.123 2.72961 11.1151 2.80591 11.1106 2.83957L11.0938 2.88669L11.0691 2.9024C11.0556 2.90689 10.9973 2.90913 10.8975 2.91698V3.02694C11.0399 3.02133 11.151 3.01684 11.2351 3.01684C11.2553 3.01684 11.3484 3.01684 11.5111 3.0202H11.51Z" fill="#C10230"/>
    <path d="M3.64403 5.37413L3.68666 5.3573L3.72929 5.37076L3.82577 5.44369L4.1096 5.68491L4.41811 5.95755C4.5045 6.0316 4.57293 6.09106 4.62341 6.14267C4.71204 6.23019 4.76926 6.28741 4.78833 6.31097L4.81413 6.35472L4.81076 6.3839C4.80403 6.39736 4.76926 6.44448 4.70755 6.5219L4.78945 6.59595C4.88032 6.486 4.95212 6.40073 5.00709 6.33565C5.02167 6.32219 5.08338 6.25263 5.19108 6.13033L5.11367 6.06414L5.09796 6.08321L5.01046 6.16848L4.97343 6.19204L4.94314 6.18867C4.92183 6.1797 4.87247 6.1438 4.79618 6.08209C4.68624 5.98896 4.58078 5.90145 4.48094 5.81506L4.0019 5.3932C4.79842 5.42125 5.40423 5.43359 5.8182 5.42798C5.87541 5.37861 5.93038 5.33261 5.98648 5.28661L5.98872 5.26417C5.89112 5.19237 5.6286 4.97246 5.20229 4.5966C5.14844 4.54948 5.06431 4.47319 4.95324 4.36997C4.83993 4.26562 4.77262 4.19494 4.75018 4.15791L4.74457 4.13435C4.74682 4.11191 4.78384 4.06142 4.84891 3.97952L4.76813 3.90771C4.68399 4.01206 4.61556 4.09621 4.56059 4.16016C4.50113 4.22411 4.43718 4.29704 4.36202 4.36997L4.44167 4.43953C4.5202 4.3565 4.56956 4.3105 4.59424 4.30713L4.65483 4.3307C4.72214 4.37557 4.92968 4.5506 5.27522 4.85241L5.49734 5.04763C5.32682 5.05661 5.10133 5.05773 4.82086 5.04988C4.43045 5.0409 4.09165 5.02632 3.80445 5.005L3.72929 5.09812L3.60925 5.23837C3.57784 5.27876 3.52062 5.33598 3.44434 5.41339L3.52735 5.4852C3.5913 5.42125 3.63056 5.38422 3.64627 5.37413H3.64403Z" fill="#C10230"/>
    <path d="M13.849 3.21128L13.867 3.10358C13.7862 3.08899 13.7368 3.07889 13.72 3.07104L13.6875 3.05421L13.674 3.02616C13.6707 2.99811 13.674 2.90611 13.6875 2.82308L13.7167 2.59645L13.7896 2.10166C13.7941 2.0882 13.8098 1.97712 13.8445 1.77629C13.8535 1.7157 13.8636 1.67756 13.867 1.65624L13.8905 1.57994L13.9062 1.56312L13.941 1.5519C13.9579 1.54965 14.0061 1.55302 14.088 1.56536L14.1071 1.45653C13.9713 1.4397 13.83 1.42175 13.6808 1.40043C13.5484 1.37911 13.4295 1.36116 13.3262 1.33984L13.3105 1.44867C13.3992 1.4655 13.4508 1.47672 13.4654 1.48233L13.4923 1.50029L13.499 1.52721C13.499 1.55302 13.4945 1.61921 13.4855 1.72243C13.4799 1.7718 13.4654 1.87727 13.4407 2.03995L13.3644 2.55269C13.352 2.63684 13.3352 2.72772 13.3128 2.82308C13.2971 2.89152 13.2892 2.96333 13.2859 2.97231L13.2735 2.99026L13.2342 2.99923C13.2208 2.99923 13.1692 2.99587 13.0873 2.98577L13.0693 3.09348C13.1725 3.1047 13.2915 3.12041 13.4227 3.1406C13.5753 3.16416 13.7167 3.18548 13.8502 3.21241L13.849 3.21128Z" fill="#C10230"/>
    <path d="M20.7854 6.4368C20.7484 6.46485 20.6564 6.52095 20.5173 6.6051L20.0752 6.8811C20.0012 6.92598 19.9227 6.9731 19.8363 7.01798C19.7757 7.05052 19.7151 7.08979 19.7039 7.09427L19.6815 7.09652L19.6523 7.07071C19.6422 7.06061 19.613 7.02022 19.5637 6.95178L19.4717 7.00676C19.5311 7.09315 19.5973 7.19188 19.6669 7.30408C19.7477 7.43647 19.8206 7.56101 19.889 7.6777L19.9821 7.61711C19.9406 7.54867 19.9159 7.50716 19.9114 7.48921L19.9047 7.45106L19.9171 7.42189C19.9361 7.40169 20.0068 7.34559 20.0775 7.30072L20.2693 7.17842L20.6956 6.91364C20.7091 6.9069 20.8022 6.85081 20.9772 6.74534L21.0816 6.68476L21.1567 6.6511L21.1825 6.65334L21.2128 6.67129C21.2229 6.68363 21.2521 6.72402 21.2992 6.79583L21.3912 6.73637C21.3171 6.62529 21.2375 6.503 21.1567 6.37621C21.0872 6.26065 21.0277 6.15967 20.9761 6.06543L20.8819 6.12602C20.9256 6.20343 20.9525 6.25168 20.9548 6.26402L20.9593 6.29768L20.9458 6.32124C20.9267 6.33919 20.8729 6.37621 20.7865 6.43568L20.7854 6.4368Z" fill="#C10230"/>
    <path d="M14.6542 1.84205C14.6632 1.91385 14.6823 2.13039 14.7114 2.48718L14.7462 2.94943C14.7585 3.11884 14.772 3.29948 14.7843 3.48685L14.9661 3.54744C15.0592 3.42626 15.2264 3.22319 15.4698 2.94494L15.7581 2.61508L15.9085 2.44566C16.0296 2.3043 16.1059 2.23137 16.1339 2.21903C16.1497 2.21454 16.1968 2.21903 16.2742 2.24147L16.309 2.136L16.0498 2.05859L15.7514 1.952L15.7166 2.0541L15.8434 2.10683L15.8849 2.12478L15.8972 2.1461L15.8939 2.17751L15.8827 2.20781C15.8636 2.23586 15.8198 2.2942 15.7548 2.3761C15.6583 2.49391 15.6078 2.5601 15.5966 2.57469L15.1142 3.14016L15.057 2.30878V2.2841C15.057 2.27737 15.0536 2.23137 15.048 2.14946C15.0368 2.00473 15.0356 1.91946 15.0446 1.89702L15.0648 1.87009L15.1063 1.86561C15.14 1.86897 15.1905 1.88019 15.2533 1.90151L15.2892 1.79829L14.8595 1.66477C14.818 1.65243 14.7047 1.61092 14.5151 1.54248L14.4814 1.64346C14.5555 1.67038 14.6004 1.69507 14.6206 1.71526C14.634 1.72873 14.6464 1.77248 14.6565 1.84205H14.6542Z" fill="#C10230"/>
    <path d="M16.5894 2.91617L16.3067 3.40423C16.273 3.46032 16.218 3.54896 16.1406 3.66901C16.1002 3.73296 16.0666 3.78233 16.0453 3.80926L15.9039 3.81262L15.8691 3.86984C16.0969 3.99438 16.2169 4.06394 16.2326 4.07404C16.2988 4.10994 16.4177 4.17951 16.5849 4.2816L16.7588 4.38819C16.844 4.43756 16.9102 4.47122 16.9607 4.49141L16.9809 4.48692C17.037 4.39268 17.1122 4.2816 17.212 4.14809L17.1234 4.09536C17.0505 4.18512 17 4.24234 16.9663 4.27039L16.9405 4.27936C16.9214 4.2816 16.8755 4.2659 16.807 4.23112C16.7375 4.19746 16.6634 4.15931 16.5838 4.11331C16.5052 4.06731 16.4368 4.02692 16.3818 3.98653L16.4548 3.85189L16.7195 3.39188C16.7678 3.41545 16.8272 3.44798 16.8979 3.48725C16.9742 3.53213 17.037 3.57477 17.0819 3.60955L17.1144 3.6634C17.1144 3.69033 17.0897 3.74755 17.0381 3.82945L17.1312 3.88331L17.2659 3.64096L17.4095 3.40647L17.3208 3.3571C17.2838 3.41881 17.2502 3.46481 17.2244 3.48613L17.1985 3.49847L17.1245 3.46818C17.0202 3.41096 16.9607 3.3773 16.9428 3.36608L16.7913 3.2752L16.9214 3.05081C16.9932 2.92402 17.0606 2.82193 17.1167 2.749C17.1851 2.78266 17.2546 2.81519 17.3197 2.85558C17.3859 2.89485 17.4555 2.93861 17.5205 2.99022L17.5991 3.05754V3.08671C17.5912 3.10915 17.5632 3.163 17.5172 3.24939L17.6013 3.29764C17.6619 3.209 17.6955 3.15739 17.7034 3.15066L17.8144 3.00481V2.98573L17.7808 2.95881C17.7045 2.90944 17.654 2.87802 17.626 2.86456L17.4038 2.74114C17.2793 2.6727 17.1705 2.60987 17.0718 2.55265L16.9282 2.47075L16.6814 2.31592L16.6264 2.41016C16.7094 2.46514 16.7577 2.4988 16.7711 2.51899L16.779 2.54704C16.7778 2.56612 16.752 2.61997 16.7083 2.703C16.6387 2.82529 16.5995 2.89934 16.5871 2.91617H16.5894Z" fill="#C10230"/>
    <path d="M1.46862 10.2572L1.49218 10.2437C1.51238 10.2393 1.57071 10.2471 1.66383 10.2651C1.8007 10.2931 1.88035 10.3111 1.90166 10.3144L2.45025 10.4435C2.51532 10.4592 2.61629 10.4883 2.75316 10.5254C2.83057 10.5456 2.88441 10.5624 2.91695 10.5758L2.95734 10.7116L3.02465 10.7273C3.07738 10.4749 3.10767 10.3369 3.11327 10.3156C3.12786 10.2449 3.16264 10.1114 3.21088 9.9195L3.25912 9.72315C3.28043 9.62779 3.29502 9.55262 3.30175 9.49876L3.28941 9.47969C3.18507 9.45613 3.05494 9.41686 2.899 9.36188L2.87432 9.46174C2.9809 9.50325 3.05157 9.53466 3.08635 9.55935L3.1043 9.57842C3.11215 9.59974 3.10879 9.64462 3.09757 9.72315C3.08635 9.79945 3.0684 9.88023 3.05045 9.96886C3.03026 10.0586 3.00782 10.1349 2.98875 10.2022C2.94612 10.1921 2.89563 10.1843 2.83842 10.1697L2.32236 10.0508C2.33022 9.99804 2.34256 9.93184 2.35938 9.8533C2.3807 9.76579 2.40201 9.69623 2.42445 9.64125L2.46596 9.59637C2.49176 9.58964 2.5501 9.59637 2.64434 9.61769L2.6679 9.5111L2.40089 9.45613L2.13501 9.38881L2.11033 9.48866C2.18325 9.50774 2.23373 9.52344 2.26178 9.54252L2.28197 9.56608L2.27412 9.64462C2.24944 9.76018 2.23598 9.82862 2.23261 9.84769C2.21578 9.9094 2.2012 9.96662 2.18325 10.0182L1.93532 9.96213C1.79172 9.92847 1.67841 9.89594 1.58866 9.86452C1.601 9.78711 1.61447 9.71193 1.63129 9.64125C1.64924 9.56383 1.67168 9.48417 1.69973 9.40676L1.74348 9.31476L1.76928 9.30242C1.79172 9.30242 1.8523 9.31476 1.94878 9.33383L1.9701 9.23959C1.86801 9.20817 1.80967 9.1891 1.79845 9.18685L1.62905 9.12402L1.60998 9.12739L1.59427 9.16554C1.56735 9.25417 1.55613 9.31476 1.54828 9.34505L1.49779 9.59301C1.4675 9.72989 1.44058 9.8533 1.41478 9.96438L1.37663 10.1248L1.30371 10.4064L1.40917 10.4277C1.43721 10.3335 1.45628 10.2796 1.47087 10.2583L1.46862 10.2572Z" fill="#C10230"/>
    <path d="M18.0761 3.87749L17.7799 4.2354L17.5376 4.51365L17.4344 4.61462L17.4063 4.63706L17.3805 4.63258C17.3648 4.62809 17.3166 4.59443 17.2414 4.53721L17.1719 4.62136C17.2594 4.68867 17.3559 4.76272 17.4546 4.84575C17.5679 4.93887 17.6778 5.03424 17.7867 5.12624L17.8551 5.04322C17.7934 4.99048 17.7597 4.95795 17.7485 4.94224L17.7272 4.9097V4.88838L17.7743 4.80985C17.7889 4.78853 17.8472 4.71336 17.9549 4.57648C18.0436 4.46765 18.1255 4.36443 18.2051 4.26794C18.2578 4.20623 18.361 4.08842 18.5114 3.90891C18.5798 3.82925 18.6269 3.77988 18.646 3.75408L18.7447 3.82476C18.8154 3.87974 18.8603 3.92461 18.8782 3.96052C18.9074 4.00876 18.9197 4.06598 18.9175 4.12881C18.913 4.1894 18.885 4.25335 18.8367 4.30945C18.7885 4.36555 18.7313 4.40818 18.6651 4.43287C18.5989 4.46204 18.5372 4.46652 18.4856 4.45082C18.4306 4.4396 18.3633 4.39808 18.2915 4.33189L18.2534 4.35321L18.2623 4.46765C18.2556 4.5574 18.2433 4.67633 18.2231 4.82219L18.1468 5.33381L18.1255 5.40786L18.2825 5.53127C18.3285 5.56717 18.3969 5.62888 18.4968 5.71079L18.5619 5.63L18.5058 5.57391L18.4945 5.52342C18.4945 5.5021 18.4979 5.44151 18.5013 5.33605C18.5013 5.33044 18.5069 5.28107 18.517 5.18795L18.5529 4.83677L18.5551 4.80985L18.5641 4.7257L18.5832 4.59106C18.7156 4.63594 18.8311 4.64716 18.9298 4.62248C19.0319 4.60004 19.1127 4.54843 19.1766 4.46989C19.2327 4.40369 19.2608 4.33525 19.2641 4.26008C19.2675 4.18267 19.2473 4.11759 19.2103 4.06374C19.1722 4.00652 19.1015 3.93696 19.0016 3.85281C18.9489 3.80905 18.8816 3.75744 18.7997 3.69461C18.7481 3.65871 18.6886 3.61046 18.6224 3.55437C18.5428 3.48929 18.4811 3.4388 18.4407 3.40066C18.3543 3.32548 18.305 3.28173 18.2892 3.27051L18.2253 3.34905C18.2982 3.42197 18.3397 3.46797 18.351 3.48705V3.5151C18.3453 3.53529 18.3072 3.58578 18.2433 3.66768L18.0806 3.87637L18.0761 3.87749Z" fill="#C10230"/>
    <path d="M18.9642 6.18854C18.9081 6.11561 18.8722 6.03595 18.8576 5.95292C18.8419 5.86317 18.8431 5.79361 18.8666 5.73638C18.9306 5.67355 18.9878 5.62419 19.0371 5.58716L18.9709 5.50302C18.8173 5.62419 18.6916 5.70048 18.5996 5.73863C18.6209 5.84634 18.649 5.93722 18.6826 6.01127C18.7174 6.08644 18.7645 6.16722 18.8273 6.248C18.9137 6.3602 19.0035 6.44659 19.0977 6.50044C19.1561 6.53523 19.2245 6.56103 19.3008 6.57674C19.3771 6.59357 19.4522 6.59693 19.5184 6.58796C19.6127 6.57337 19.7013 6.53074 19.7854 6.46679L19.9043 6.34561L19.9638 6.22332L19.9705 6.0898C19.966 6.0438 19.9492 5.98546 19.9223 5.92263C19.9099 5.8957 19.8819 5.84746 19.8404 5.76668C19.8011 5.69038 19.7697 5.62643 19.7484 5.5838C19.7226 5.52097 19.7069 5.4716 19.7035 5.43458L19.7226 5.32462L19.8135 5.21916C19.8752 5.17316 19.9481 5.15745 20.0334 5.16979C20.1164 5.18662 20.1927 5.23935 20.2633 5.33135C20.3093 5.39306 20.3419 5.45814 20.3609 5.5277C20.3778 5.59614 20.3789 5.65224 20.3654 5.69375C20.3363 5.72629 20.2835 5.77004 20.2095 5.83287L20.2712 5.91478C20.3419 5.86429 20.4013 5.82614 20.4451 5.79697L20.5898 5.72068L20.6066 5.69375C20.5932 5.62755 20.5674 5.55575 20.5281 5.47833C20.4899 5.40092 20.4428 5.33023 20.389 5.25843C20.3363 5.18886 20.279 5.12828 20.2128 5.0733C20.15 5.01945 20.0793 4.98467 20.0064 4.95998C19.9313 4.93193 19.8527 4.93081 19.7652 4.94989C19.6744 4.96447 19.5969 5.00037 19.5207 5.05984L19.3905 5.19896C19.3569 5.25282 19.3389 5.31004 19.3322 5.37062C19.3277 5.43009 19.3378 5.49628 19.3636 5.56697C19.3815 5.61409 19.4242 5.70721 19.4926 5.8497C19.5375 5.95068 19.5644 6.02136 19.5723 6.06961L19.5554 6.19639L19.4668 6.3041L19.3053 6.37815C19.248 6.38264 19.1908 6.3703 19.1291 6.33664C19.0685 6.3041 19.0147 6.2581 18.9642 6.19415V6.18854Z" fill="#C10230"/>
    <path d="M1.92848 12.1419C1.9857 12.1205 2.03618 12.0914 2.07881 12.0476C2.12032 12.0039 2.1551 11.9466 2.17866 11.8737C2.19549 11.8266 2.21905 11.7256 2.25382 11.5741C2.28187 11.4687 2.30767 11.3946 2.33123 11.3542L2.42435 11.2622L2.56009 11.2342C2.62404 11.2387 2.68013 11.2521 2.72949 11.2813C2.77886 11.3116 2.817 11.3587 2.84168 11.4227C2.86973 11.4855 2.88207 11.5562 2.88095 11.6381C2.87758 11.729 2.85739 11.8142 2.81588 11.8894C2.77325 11.9657 2.72613 12.0207 2.67228 12.051C2.58253 12.06 2.50624 12.0611 2.44454 12.0577V12.1632C2.64087 12.1688 2.78559 12.1867 2.88207 12.2148C2.93143 12.1183 2.96509 12.0319 2.98864 11.95C3.00772 11.8703 3.02006 11.7772 3.02118 11.6729C3.02679 11.5338 3.00884 11.4103 2.97069 11.3082C2.94601 11.2454 2.91124 11.1815 2.86075 11.122C2.81139 11.0614 2.75642 11.0132 2.69696 10.9761C2.61506 10.9313 2.51971 10.9077 2.41313 10.9032C2.35143 10.901 2.29646 10.9088 2.24709 10.9245L2.12257 10.9806L2.03394 11.0794C2.00702 11.122 1.98458 11.1758 1.96551 11.2443C1.9599 11.2701 1.94643 11.3273 1.92848 11.4137C1.91278 11.5001 1.89932 11.5685 1.88922 11.6179C1.87015 11.6796 1.84995 11.7279 1.82864 11.7615L1.7445 11.8333L1.60763 11.8591C1.53247 11.8591 1.46403 11.8255 1.40682 11.7615C1.35185 11.6976 1.3238 11.6067 1.32717 11.4945C1.32941 11.4137 1.34512 11.343 1.37653 11.2791C1.4057 11.2129 1.43823 11.1702 1.4775 11.1444C1.51901 11.1388 1.58856 11.1366 1.68616 11.1366L1.68953 11.0311C1.60202 11.0277 1.53359 11.0199 1.48198 11.012L1.32044 10.9829L1.29015 10.993C1.25537 11.0536 1.23405 11.1265 1.21498 11.2095C1.19815 11.2925 1.18693 11.3778 1.18469 11.4676C1.18357 11.5517 1.1903 11.6381 1.20601 11.72C1.22508 11.8008 1.25312 11.8771 1.29575 11.941C1.33839 12.0072 1.39897 12.06 1.4775 12.1026C1.5549 12.1441 1.64241 12.1654 1.73552 12.1688C1.80284 12.1688 1.8679 12.1598 1.92736 12.1407L1.92848 12.1419Z" fill="#C10230"/>
    <path d="M22.7599 11.4069C22.7386 11.3261 22.7027 11.2554 22.6578 11.1926C22.6107 11.1275 22.5478 11.0793 22.4671 11.0434C22.3852 11.0064 22.2977 10.9873 22.2034 10.994C22.1372 10.9963 22.0744 11.0075 22.0161 11.031C21.9577 11.0568 21.9095 11.0939 21.8691 11.1387C21.831 11.1803 21.8018 11.2431 21.7827 11.3171C21.7693 11.3643 21.7513 11.4664 21.7233 11.6201C21.7031 11.7267 21.6829 11.7996 21.6604 11.8456L21.5729 11.9421L21.4394 11.9757C21.3755 11.978 21.3183 11.9645 21.2667 11.9387C21.2173 11.914 21.178 11.8669 21.1455 11.8063C21.1152 11.7446 21.0984 11.6728 21.095 11.5954C21.0905 11.5023 21.1107 11.4192 21.1455 11.3396C21.1837 11.2599 21.2274 11.2027 21.279 11.169C21.3665 11.1556 21.4417 11.1455 21.5023 11.1455L21.4989 11.0411C21.3026 11.0456 21.1556 11.0411 21.0602 11.0176C21.0154 11.1141 20.9862 11.2049 20.9694 11.2857C20.9548 11.3676 20.9481 11.4596 20.9525 11.5662C20.957 11.7065 20.9828 11.8265 21.0255 11.9241C21.0535 11.9892 21.0928 12.0498 21.1466 12.1059C21.2005 12.162 21.2577 12.208 21.3216 12.2416C21.4035 12.282 21.4989 12.3 21.6077 12.2977C21.6694 12.2955 21.7244 12.2843 21.7737 12.2663L21.8938 12.2012L21.9757 12.0958C22.0004 12.0531 22.0172 11.9993 22.034 11.9297C22.0374 11.9017 22.0486 11.8445 22.0565 11.7558C22.0688 11.6694 22.08 11.6021 22.0879 11.5528C22.1036 11.4888 22.1204 11.4372 22.1384 11.4069L22.218 11.3272L22.3526 11.2936C22.4289 11.2902 22.4974 11.3183 22.5579 11.3788C22.6185 11.4406 22.6499 11.5292 22.6555 11.6414C22.6578 11.721 22.6443 11.7951 22.6185 11.8602C22.5927 11.9241 22.5624 11.9735 22.5265 12.0004C22.4861 12.0083 22.4166 12.015 22.3201 12.0206L22.3235 12.1261C22.4087 12.1261 22.4805 12.1294 22.531 12.1294L22.6937 12.1496L22.724 12.1395C22.752 12.0767 22.7722 12.0027 22.7845 11.9196C22.798 11.8332 22.8025 11.7491 22.7991 11.6593C22.7958 11.5707 22.7834 11.4888 22.7621 11.4069H22.7599Z" fill="#C10230"/>
    <path d="M21.2387 7.31185C21.3071 7.2838 21.3688 7.26248 21.4294 7.25014L21.4765 7.24677L21.5045 7.28828C21.5371 7.34887 21.5707 7.4218 21.6066 7.5037L21.6795 7.67088C21.6582 7.68322 21.5528 7.73034 21.3632 7.80888L20.6665 8.10844C20.4993 8.18137 20.3973 8.22064 20.3602 8.22849L20.2997 8.20942C20.2817 8.19708 20.2503 8.14547 20.2088 8.05347L20.1123 8.09498C20.1807 8.23298 20.2391 8.36089 20.2862 8.46972C20.3322 8.57181 20.3816 8.70084 20.4399 8.85455L20.5352 8.81192C20.4982 8.71879 20.4814 8.65933 20.4825 8.63689L20.5117 8.58416C20.5431 8.55947 20.6418 8.51347 20.809 8.44167L21.5045 8.14322C21.6896 8.06244 21.7951 8.01868 21.8254 8.00859L21.8961 8.17464C21.9353 8.26552 21.9645 8.34406 21.9847 8.40689L21.9925 8.4484L21.951 8.48655C21.8972 8.51572 21.8433 8.54825 21.7828 8.57742L21.8243 8.67167C21.9881 8.60547 22.0756 8.57182 22.0812 8.56733L22.2102 8.52806L22.2169 8.50898L22.1619 8.40689C22.1317 8.34293 22.0756 8.21054 21.9914 8.01644L21.7895 7.54746C21.7065 7.35785 21.6537 7.22882 21.6268 7.1615L21.5853 7.04257L21.5707 7.03809L21.4641 7.09531C21.444 7.10428 21.3553 7.14579 21.1994 7.21536L21.2398 7.31297L21.2387 7.31185Z" fill="#C10230"/>
    <path d="M21.2952 9.28194C21.1291 9.25838 21.0203 9.24267 20.9653 9.23369C20.8453 9.2135 20.7757 9.20116 20.7578 9.19555L20.7129 9.17759L20.6894 9.1473C20.6826 9.1372 20.6669 9.09793 20.6467 9.03174L20.5469 9.05754L20.6209 9.33804L20.6826 9.62189L20.7847 9.59833C20.7634 9.4996 20.7555 9.43901 20.7634 9.41657L20.8015 9.38516C20.8285 9.37843 20.9025 9.38067 21.0259 9.39862L21.1875 9.41657L21.3389 10.0482L21.0932 10.2199L21.0001 10.2693L20.9597 10.2603C20.9507 10.2502 20.9306 10.193 20.9014 10.0976L20.8004 10.1223L20.9104 10.5498L20.9866 10.8942L21.0865 10.8695L21.0809 10.8157L21.073 10.7394L21.0809 10.7124L21.1089 10.681L21.2088 10.6059L21.3591 10.4881L22.5068 9.63311L22.4675 9.45584L22.1612 9.41545L21.2952 9.28194ZM21.4634 9.95287C21.4432 9.88107 21.4219 9.7958 21.3984 9.7038C21.3759 9.60506 21.3546 9.51867 21.3412 9.44013L22.0333 9.53999L21.4646 9.95287H21.4634Z" fill="#C10230"/>
    <path d="M22.1255 13.2031C21.863 13.2031 21.6543 13.4174 21.6543 13.6766C21.6543 13.9358 21.863 14.1489 22.1255 14.1489C22.388 14.1489 22.5978 13.9369 22.5978 13.6766C22.5978 13.4163 22.3891 13.2031 22.1255 13.2031Z" fill="#C10230"/>
    <path d="M22.3571 15.2148L22.3358 15.2294L22.31 15.2317C22.2921 15.2283 22.2438 15.2148 22.1664 15.1879C22.1541 15.1845 22.1092 15.1666 22.0318 15.1374L21.7188 15.0106L21.4664 14.9063L21.3542 14.8569L21.2801 14.8019C21.2723 14.7795 21.2801 14.7402 21.3059 14.6763L21.3104 14.6662L21.2341 14.6348L21.1343 14.904C21.1242 14.9265 21.1029 14.977 21.067 15.0521L21.168 15.1509C21.1938 15.1778 21.2633 15.2518 21.3755 15.3753L21.5763 15.5918C21.629 15.6501 21.702 15.7298 21.7951 15.8398L21.0928 15.888L20.9335 15.8947L20.7248 15.9037C20.7046 15.9665 20.6811 16.0305 20.6564 16.0911C20.6396 16.1382 20.6014 16.219 20.5498 16.3435L20.625 16.3738L20.6811 16.2728L20.7024 16.2459L20.7248 16.2437C20.7461 16.2437 20.8022 16.2627 20.8976 16.2986C20.9896 16.3345 21.0984 16.3783 21.2184 16.4254C21.3531 16.4782 21.4495 16.5185 21.5045 16.5432C21.6178 16.5915 21.6896 16.6263 21.7233 16.6431L21.7536 16.6678L21.7581 16.688C21.7581 16.7037 21.748 16.7486 21.7255 16.8159L21.8018 16.8462C21.8186 16.7889 21.8456 16.7171 21.8837 16.6263C21.9106 16.5567 21.9409 16.4894 21.9712 16.4221L21.896 16.3906C21.868 16.4512 21.85 16.4883 21.8411 16.4972L21.8153 16.5174H21.7816C21.767 16.5141 21.7087 16.4927 21.6077 16.4535C21.5056 16.4176 21.4181 16.3828 21.3452 16.3514L20.9043 16.1763L21.4787 16.1337C21.5662 16.127 21.6997 16.1203 21.8781 16.1113C21.9802 16.1057 22.0621 16.1023 22.1204 16.1023L22.144 16.0395L22.0183 15.9104C21.9342 15.8196 21.868 15.7489 21.8242 15.7018L21.6571 15.5189L21.3205 15.143L21.9712 15.4044C22.0957 15.4527 22.1687 15.4852 22.1911 15.5009L22.2236 15.5391C22.2259 15.5525 22.2124 15.5963 22.1855 15.6715L22.2629 15.7006L22.3706 15.4201L22.4884 15.1397L22.4132 15.1082C22.3818 15.1722 22.365 15.2081 22.3605 15.2159L22.3571 15.2148Z" fill="#C10230"/>
    <path d="M21.2625 17.0357L21.1156 16.9258L20.9215 16.808C20.862 16.7709 20.7835 16.7193 20.6893 16.6531C20.5928 16.5881 20.5389 16.5499 20.5288 16.5364L20.5143 16.5062L20.5636 16.4018L20.4941 16.3569L20.3841 16.5443L20.3707 16.5667C20.3583 16.5869 20.3224 16.6442 20.254 16.7418L20.3235 16.7844C20.3628 16.7238 20.3953 16.6857 20.4155 16.6767L20.4458 16.6688C20.4626 16.6722 20.5075 16.6946 20.5793 16.7362C20.6107 16.7552 20.6994 16.8102 20.8463 16.9022L21.0146 17.0066C21.1313 17.0795 21.2053 17.1389 21.2367 17.1849C21.267 17.2298 21.2794 17.2826 21.2794 17.3431C21.276 17.406 21.2502 17.4755 21.2008 17.5518C21.1582 17.6214 21.1167 17.6674 21.0707 17.6988L20.9327 17.7493L20.7824 17.7089C20.7588 17.6966 20.6938 17.6584 20.5928 17.5956L20.4963 17.5361L20.3056 17.4183C20.1867 17.3443 20.1137 17.2938 20.0846 17.2646L20.0666 17.2298C20.0655 17.2074 20.0846 17.1659 20.1216 17.1053L20.0532 17.0638L20.0341 17.0952L19.9668 17.2074L19.8984 17.3218L19.7256 17.5889L19.7951 17.6304L19.8725 17.5283L19.9073 17.5238L19.9668 17.544C20.0307 17.5799 20.1014 17.6214 20.1799 17.6685L20.3886 17.8009L20.5479 17.903C20.6343 17.9546 20.6881 17.9894 20.7106 17.9973L20.8295 18.0287L20.9709 18.0107L21.1178 17.9221C21.1863 17.8626 21.2468 17.7908 21.2996 17.7078C21.3467 17.6382 21.3758 17.5687 21.3949 17.5036C21.4129 17.4396 21.4207 17.3802 21.414 17.3185C21.4095 17.2624 21.3949 17.2085 21.3691 17.1648L21.2625 17.0357Z" fill="#C10230"/>
    <path d="M20.6182 18.4889L20.5924 18.5057L20.5666 18.5023L20.4578 18.4305L20.3153 18.3251L20.0023 18.0838C19.9922 18.0782 19.9272 18.0232 19.8015 17.9234L19.7264 17.8628L19.6837 17.8157L19.6792 17.7989L19.686 17.7697L19.751 17.6743L19.6826 17.6216C19.622 17.708 19.5547 17.8 19.4818 17.8909C19.4179 17.9772 19.3584 18.0479 19.3057 18.113L19.3719 18.1646L19.4549 18.0726L19.4784 18.0614L19.5009 18.0659C19.5177 18.0737 19.5614 18.1018 19.6288 18.15C19.6579 18.1713 19.7264 18.223 19.8285 18.3004L20.1515 18.5506C20.202 18.591 20.2604 18.6358 20.3176 18.6886L20.386 18.7503L20.395 18.7682L20.3849 18.7974L20.3176 18.8916L20.3871 18.9455C20.4331 18.8771 20.487 18.803 20.5532 18.7189C20.6272 18.6235 20.6968 18.5349 20.7641 18.453L20.6968 18.4025L20.6194 18.49L20.6182 18.4889Z" fill="#C10230"/>
    <path d="M19.1116 20.1055L19.0813 20.1156L19.0577 20.1055L18.9668 20.0158L18.8479 19.8778L18.5933 19.5793C18.5854 19.5726 18.5304 19.5042 18.4284 19.3807L18.3689 19.3067L18.3341 19.2506V19.2326L18.3465 19.2068L18.4306 19.1249L18.3745 19.0576C18.2971 19.1305 18.2118 19.2068 18.1221 19.2809C18.0424 19.3482 17.9673 19.4088 17.9033 19.4593L17.9594 19.5255L18.0581 19.4503L18.0851 19.4469L18.1019 19.4548C18.1198 19.4671 18.1557 19.503 18.213 19.5647C18.2376 19.5939 18.2915 19.6567 18.3756 19.7532L18.6404 20.0651C18.683 20.1179 18.7268 20.1751 18.7739 20.2357L18.8266 20.3131L18.8311 20.3299L18.8154 20.3569L18.7301 20.4354L18.7851 20.5038C18.8457 20.4466 18.9152 20.3849 18.9949 20.3153C19.0869 20.2357 19.1733 20.1661 19.2585 20.101L19.2047 20.036L19.1104 20.1055H19.1116Z" fill="#C10230"/>
    <path d="M8.49018 20.8562C8.39033 20.8147 8.30395 20.7811 8.22879 20.7485L8.19737 20.8293C8.26356 20.8585 8.29946 20.8742 8.30956 20.8798L8.32863 20.9V20.9224C8.32863 20.9426 8.31293 20.9942 8.286 21.0717C8.27366 21.1064 8.24449 21.185 8.1985 21.3062L8.05377 21.6854C8.03022 21.7482 8.00329 21.8155 7.96851 21.8862L7.93037 21.9715L7.91466 21.9793H7.88774C7.87428 21.9793 7.8395 21.9681 7.77443 21.9479L7.74414 22.0253C7.82267 22.0534 7.91018 22.0837 8.0089 22.1207C8.12109 22.1622 8.22878 22.2048 8.32414 22.2486L8.35443 22.1667C8.2961 22.142 8.2602 22.1252 8.24786 22.1196L8.2243 22.0983L8.21981 22.0747C8.22093 22.0534 8.23327 22.0107 8.25795 21.9479L8.31741 21.7807L8.45652 21.4127C8.46213 21.4004 8.49355 21.323 8.55188 21.1738L8.59002 21.084L8.62144 21.0257L8.63602 21.0156H8.66519C8.67641 21.0156 8.71567 21.0268 8.77738 21.0492L8.80767 20.9696C8.70558 20.9359 8.60237 20.8966 8.49018 20.8574V20.8562Z" fill="#C10230"/>
    <path d="M6.55635 19.8306C6.46772 19.7733 6.39143 19.7195 6.32524 19.6724L6.27813 19.743C6.33646 19.7834 6.369 19.8092 6.37685 19.8182L6.39143 19.8384L6.38695 19.862C6.38022 19.8822 6.35554 19.9259 6.31515 19.9966C6.29383 20.0314 6.2512 20.1021 6.18165 20.2087L5.96064 20.5509C5.9225 20.6058 5.88099 20.6653 5.83499 20.7293L5.78002 20.8011L5.76319 20.81L5.7329 20.8011C5.72393 20.8011 5.68915 20.7797 5.63193 20.7472L5.58594 20.819C5.65661 20.8616 5.73627 20.9076 5.82377 20.9682C5.92474 21.0322 6.0201 21.0961 6.10536 21.1578L6.15248 21.086L6.05712 21.0154L6.04029 20.9896V20.966L6.10312 20.8504L6.19847 20.6978L6.41163 20.3691C6.41724 20.3579 6.46548 20.2872 6.5541 20.1559L6.6102 20.0774L6.65283 20.028L6.66966 20.0179L6.6977 20.0235L6.80091 20.0808L6.84915 20.009C6.75604 19.9551 6.66068 19.8956 6.55971 19.8306H6.55635Z" fill="#C10230"/>
    <path d="M19.8893 19.3407L19.841 19.3362C19.8163 19.3205 19.7546 19.2655 19.6537 19.1668L19.233 18.7606C19.1208 18.6507 19.058 18.5901 19.0434 18.5733L19.1399 18.47L19.279 18.3388L19.3059 18.3231L19.3452 18.3399L19.4585 18.4319L19.5168 18.3736C19.4181 18.2759 19.3676 18.2288 19.3631 18.2221L19.2969 18.1436H19.2835L19.224 18.2154C19.187 18.2535 19.1107 18.3343 18.9963 18.451L18.7203 18.7348C18.6103 18.847 18.5341 18.9244 18.4937 18.9626L18.4219 19.0288V19.0422L18.4948 19.0995C18.5083 19.1084 18.5621 19.1612 18.6597 19.2521L18.718 19.1948L18.6171 19.077L18.6014 19.0456L18.6216 19.0153L18.745 18.8751L18.8426 18.773C18.8594 18.7842 18.9233 18.8482 19.0378 18.957L19.4562 19.3654C19.5572 19.463 19.6155 19.5258 19.629 19.5494L19.6369 19.5976L19.5516 19.7076L19.6066 19.7637C19.6873 19.6728 19.7603 19.5954 19.8242 19.5281C19.8837 19.4675 19.9611 19.3957 20.0519 19.3082L19.9947 19.2521L19.8859 19.3407H19.8893Z" fill="#C10230"/>
    <path d="M9.89746 21.4206L9.92775 21.4374V21.4823L9.89971 21.6225L9.97487 21.6483C10.0141 21.5159 10.0355 21.4475 10.0377 21.4419L10.0781 21.3465L10.0702 21.3353L9.9816 21.3174C9.92663 21.3028 9.82118 21.2725 9.66299 21.2287L9.28493 21.1165C9.13235 21.0717 9.02914 21.0414 8.97529 21.0234L8.8833 20.9897L8.87208 20.9965L8.85637 21.0885C8.85077 21.1042 8.83169 21.176 8.79804 21.3061L8.87545 21.3275L8.93266 21.1861L8.95398 21.158H8.99324C9.04373 21.1726 9.10543 21.1838 9.17162 21.2052L9.30512 21.2433C9.30063 21.2635 9.27819 21.3488 9.2322 21.5002L9.06841 22.0623C9.03139 22.197 9.00446 22.2778 8.98988 22.3024L8.94949 22.3327C8.93603 22.335 8.88891 22.3271 8.8115 22.3081L8.78906 22.3844C8.90798 22.4135 9.01007 22.4393 9.0987 22.464C9.18396 22.4876 9.2838 22.5212 9.40272 22.5639L9.42404 22.4853C9.35112 22.4618 9.30736 22.4438 9.29502 22.4326L9.27707 22.3877C9.2782 22.3563 9.29727 22.2766 9.33653 22.142L9.50145 21.5799C9.54408 21.4307 9.56988 21.3432 9.57885 21.323L9.71123 21.3634C9.78415 21.3858 9.84474 21.4038 9.89522 21.4217L9.89746 21.4206Z" fill="#C10230"/>
    <path d="M5.31113 20.0923L5.68135 19.639C5.77783 19.5189 5.83392 19.4494 5.85075 19.4326L5.95845 19.5201C6.01679 19.5672 6.06503 19.6098 6.10205 19.6468L6.12224 19.6727L6.10541 19.713L6.02352 19.8353L6.08858 19.8858C6.17497 19.7804 6.21872 19.7231 6.22433 19.7209L6.29949 19.648L6.29613 19.6356L6.22209 19.584C6.17833 19.5492 6.09307 19.4786 5.96518 19.3809L5.66003 19.1307C5.53438 19.0309 5.45137 18.9602 5.41098 18.9254L5.33918 18.8604H5.32572L5.27523 18.9389C5.26514 18.9512 5.2169 19.0129 5.13612 19.1184L5.20007 19.1689L5.30777 19.0612L5.33806 19.0387L5.37059 19.0567L5.5198 19.1689L5.62862 19.2553C5.61852 19.2721 5.56243 19.3428 5.46146 19.4662L5.09461 19.9195C5.00599 20.0306 4.94989 20.0945 4.92633 20.1091L4.87922 20.1237C4.86239 20.1192 4.82312 20.0945 4.76142 20.0463L4.71094 20.1091C4.80854 20.1798 4.89268 20.2426 4.96336 20.3032C5.03067 20.3593 5.11256 20.4266 5.20792 20.5085L5.25728 20.4502C5.19783 20.3974 5.16417 20.3638 5.15968 20.3492V20.2998C5.17202 20.274 5.22138 20.2067 5.31113 20.0968V20.0923Z" fill="#C10230"/>
    <path d="M17.9072 20.0718L17.8758 19.8956C17.8477 19.7554 17.841 19.6723 17.8466 19.6533L17.9274 19.5736L17.8802 19.5029L17.7075 19.6219L17.4977 19.7554L17.5437 19.8238L17.6368 19.7722L17.6693 19.7599H17.6873L17.7052 19.7801L17.7176 19.798C17.7243 19.8238 17.7378 19.8777 17.7591 19.9584C17.7849 20.0774 17.7995 20.1391 17.8006 20.1548L17.9139 20.7214L17.3776 20.3545L17.3619 20.341L17.2767 20.2827C17.1836 20.2187 17.1308 20.1784 17.1207 20.1615L17.114 20.1357L17.132 20.1099L17.2262 20.037L17.1791 19.9674L16.8896 20.1626C16.8616 20.1828 16.7808 20.2322 16.6484 20.3141L16.6944 20.3859L16.8066 20.3321L16.9009 20.3725C16.9491 20.4005 17.0893 20.4936 17.3216 20.6507L17.6188 20.8527C17.7288 20.9289 17.8455 21.0075 17.9644 21.0916L18.0889 21.0109C18.0597 20.8964 18.0205 20.6945 17.9677 20.4106L17.906 20.0751L17.9072 20.0718Z" fill="#C10230"/>
    <path d="M8.03677 20.7731C8.04911 20.7731 8.08725 20.7809 8.14334 20.8045L8.18261 20.7293L7.99077 20.6385L7.77313 20.5195L7.73498 20.5936L7.82698 20.6497L7.85951 20.6699L7.864 20.6878L7.85951 20.7114L7.84605 20.7327C7.82698 20.7529 7.78771 20.7922 7.72601 20.8483C7.63963 20.9268 7.59251 20.9694 7.57905 20.9784L7.14264 21.3599L7.19873 20.7103V20.6923C7.2021 20.6856 7.20434 20.6508 7.20883 20.5868C7.21893 20.4746 7.2279 20.4096 7.23912 20.3927L7.25595 20.3748H7.28848L7.39843 20.4197L7.43657 20.3434L7.12133 20.193C7.09104 20.1762 7.00914 20.1313 6.87003 20.0562L6.83301 20.1313L6.93173 20.2009C6.93958 20.2144 6.94519 20.2469 6.94519 20.3041C6.94183 20.3602 6.93285 20.5274 6.91154 20.809L6.88349 21.168C6.87227 21.297 6.86218 21.4362 6.84759 21.5831L6.98109 21.6493C7.06523 21.5697 7.21893 21.4351 7.44106 21.2488L7.70245 21.0278L7.83707 20.9167C7.94814 20.8213 8.01433 20.772 8.03677 20.7686V20.7731Z" fill="#C10230"/>
    <path d="M17.3 21.3946L17.2596 21.3901C17.2461 21.3833 17.2024 21.3632 17.1294 21.325C17.1249 21.3228 17.0902 21.3048 17.0273 21.2689L16.7906 21.1309L16.7716 21.1208L16.7155 21.0849L16.6246 21.0288C16.6998 20.9514 16.7435 20.8706 16.7603 20.7943C16.7738 20.7135 16.7648 20.6395 16.7301 20.5677C16.6998 20.5082 16.6594 20.4689 16.6066 20.4398L16.4507 20.4185C16.3957 20.4252 16.3251 20.4544 16.2342 20.4981C16.1871 20.5217 16.1276 20.552 16.0569 20.5935C16.0154 20.617 15.9627 20.644 15.9021 20.6743C15.8292 20.7079 15.7765 20.7371 15.735 20.7562C15.6553 20.7909 15.6082 20.8156 15.5947 20.8224L15.6284 20.893C15.7058 20.8616 15.7495 20.8448 15.7686 20.8448L15.7877 20.8538C15.8 20.8684 15.8258 20.9076 15.8629 20.9817L15.9571 21.1657L16.1198 21.4866L16.2364 21.7457L16.2802 21.8535L16.2847 21.8826L16.2723 21.8972C16.2634 21.9073 16.2252 21.9309 16.1613 21.9656L16.1994 22.0442C16.2735 22.0016 16.3576 21.9556 16.4473 21.9118C16.5506 21.8613 16.6526 21.8119 16.7536 21.7659L16.7166 21.6896C16.6583 21.7155 16.6235 21.7323 16.6123 21.7356H16.5808L16.5629 21.7312L16.5225 21.6706C16.5147 21.656 16.4754 21.5875 16.4171 21.4686C16.3666 21.3744 16.3183 21.2812 16.2757 21.1915C16.2488 21.1376 16.1949 21.0254 16.1186 20.8594C16.0816 20.7842 16.0603 20.7349 16.0502 20.7158L16.1321 20.6664C16.1949 20.6328 16.2398 20.617 16.269 20.6137L16.3991 20.6406L16.5057 20.7562L16.5393 20.9189L16.4945 21.0524C16.4675 21.0871 16.4182 21.1208 16.3475 21.1522L16.3509 21.1836L16.4339 21.2162C16.5001 21.2476 16.5775 21.2958 16.6751 21.3564L17.0139 21.573L17.0621 21.61L17.1979 21.5404C17.236 21.518 17.3033 21.4899 17.3942 21.4462L17.3583 21.3721L17.3 21.3923V21.3946Z" fill="#C10230"/>
    <path d="M2.75175 17.3793C2.75175 17.3793 2.77195 17.3412 2.8056 17.2761L2.93686 17.036L2.94583 17.0169L2.97837 16.9575L3.0311 16.8677C3.11411 16.9395 3.19377 16.9799 3.27566 16.9945C3.35195 17.0057 3.42824 16.9945 3.49779 16.9575C3.55501 16.9272 3.59652 16.8857 3.62232 16.8296L3.63915 16.6736C3.62793 16.622 3.59876 16.5502 3.55052 16.4615C3.52696 16.4144 3.49443 16.3561 3.45404 16.2854C3.42824 16.245 3.40131 16.1934 3.36766 16.1328C3.33063 16.0621 3.30147 16.0083 3.28127 15.9679C3.24201 15.8882 3.21845 15.8411 3.21059 15.8276L3.13992 15.8669C3.17469 15.9387 3.1904 15.9836 3.19264 16.0038L3.18255 16.0229C3.17357 16.0352 3.12982 16.0644 3.06026 16.1025L2.88077 16.2035L2.55991 16.3763L2.30525 16.5019L2.1998 16.5457L2.17175 16.5524L2.1538 16.5412C2.14258 16.5311 2.1179 16.4952 2.08312 16.429L2.00684 16.4705C2.04947 16.5446 2.09659 16.6276 2.1437 16.7162C2.19755 16.8161 2.25028 16.9159 2.2974 17.0158L2.37481 16.9765L2.32769 16.8744L2.32208 16.8464L2.32881 16.8273L2.38715 16.7847C2.40285 16.7757 2.46904 16.7376 2.5846 16.6725C2.67995 16.6153 2.77082 16.567 2.85833 16.5244C2.91218 16.493 3.021 16.4369 3.18704 16.3527C3.25996 16.3179 3.30595 16.2966 3.32951 16.2843L3.37775 16.3628C3.41141 16.4245 3.42824 16.4705 3.43497 16.4986L3.41141 16.631L3.30034 16.7409L3.1388 16.7791L3.00417 16.7376C2.96715 16.7106 2.93237 16.6613 2.89759 16.5939L2.86618 16.5984L2.83701 16.6837C2.80897 16.7476 2.76297 16.8296 2.70239 16.9272L2.49821 17.2727L2.46007 17.3187L2.53636 17.4534C2.55767 17.4949 2.59133 17.5588 2.63508 17.6486L2.70576 17.6104L2.68556 17.5521L2.69229 17.514C2.69678 17.5005 2.71697 17.4522 2.75175 17.3804V17.3793Z" fill="#C10230"/>
    <path d="M15.7701 21.827C15.7835 21.9134 15.7914 21.974 15.7902 22.0076L15.7835 22.0256L15.6859 22.0817C15.6309 22.1041 15.5715 22.1243 15.5031 22.1479C15.4346 22.1703 15.3729 22.1883 15.3224 22.2028L15.282 22.0873L15.153 21.6957C15.1912 21.6789 15.2383 21.6621 15.2989 21.6419C15.3662 21.6217 15.4234 21.6082 15.4671 21.5992L15.5165 21.6104C15.5311 21.6217 15.5513 21.6654 15.5726 21.7384L15.6511 21.7114L15.5816 21.5117L15.5188 21.3053L15.4436 21.3288C15.4615 21.3872 15.4683 21.4231 15.4683 21.4522L15.4638 21.4747L15.4054 21.5016C15.3191 21.5319 15.2686 21.551 15.2529 21.5555L15.1194 21.5959L15.0577 21.404C15.0206 21.2963 14.996 21.2077 14.9825 21.1325C15.0397 21.1123 15.0936 21.0899 15.1508 21.0708C15.2058 21.0506 15.2686 21.0349 15.3325 21.0237L15.4111 21.0158L15.429 21.0281C15.4391 21.0439 15.4571 21.0887 15.4817 21.1605L15.5547 21.1347C15.5356 21.0517 15.521 21.0113 15.5188 20.9979L15.4941 20.861L15.484 20.8486L15.4514 20.8531C15.383 20.8733 15.3348 20.8879 15.3123 20.8946L15.1261 20.962C15.0229 20.999 14.9287 21.0293 14.8445 21.0584L14.7222 21.0977L14.5068 21.1617L14.5315 21.2413C14.6056 21.2234 14.6538 21.2122 14.6717 21.2166L14.6897 21.2256C14.7009 21.238 14.72 21.2795 14.7447 21.3502C14.7817 21.4511 14.8041 21.5151 14.8086 21.5285L14.9421 21.947C14.9589 21.9942 14.9814 22.0716 15.0106 22.1804C15.0274 22.2387 15.0386 22.2825 15.0442 22.3094L14.9702 22.3936L14.9881 22.4441C15.1777 22.3801 15.2809 22.342 15.2944 22.3375C15.3516 22.3195 15.4537 22.2881 15.5995 22.2399L15.751 22.1961C15.8239 22.1703 15.8789 22.149 15.9181 22.1322L15.9249 22.1153C15.9002 22.0368 15.8744 21.9336 15.8486 21.809L15.7701 21.8315V21.827Z" fill="#C10230"/>
    <path d="M3.57677 18.3882C3.49712 18.4297 3.44103 18.4544 3.40849 18.4644H3.38606L3.30865 18.3859L3.18973 18.2322C3.14934 18.1739 3.11456 18.1211 3.08652 18.0774L3.18188 18.0033L3.51731 17.7643L3.61379 17.8878L3.70466 18.0347L3.70915 18.0841C3.7013 18.1021 3.66652 18.1335 3.6037 18.1761L3.65418 18.2434L3.82583 18.1178L4.00308 17.9955L3.95484 17.9304L3.84602 17.9921H3.82134L3.77983 17.9472C3.72486 17.8743 3.6912 17.8294 3.68447 17.8171L3.60706 17.7004L3.76861 17.5837C3.86285 17.5186 3.94026 17.4693 4.00532 17.4322L4.11414 17.5747C4.15117 17.6263 4.1837 17.6791 4.21511 17.7363L4.24877 17.807L4.23867 17.8294C4.22857 17.8429 4.19155 17.8743 4.12985 17.9169L4.1736 17.9809C4.2454 17.9371 4.28467 17.9113 4.29476 17.9068L4.41817 17.8384L4.4249 17.826L4.41144 17.798C4.37217 17.7385 4.34637 17.6993 4.33179 17.6791L4.21287 17.5198C4.14668 17.4334 4.08946 17.3526 4.03674 17.2796L3.96381 17.1742L3.83592 16.9868L3.76861 17.0351C3.809 17.099 3.83256 17.1405 3.83592 17.1585L3.83256 17.1787C3.82246 17.1944 3.79105 17.2247 3.73047 17.2718C3.64184 17.3357 3.59136 17.375 3.57677 17.3817L3.2189 17.6376C3.17627 17.6645 3.10783 17.7116 3.01584 17.7733L2.90141 17.8418L2.79932 17.7969L2.75781 17.8283C2.87673 17.9887 2.94068 18.0774 2.95189 18.0886C2.98667 18.1368 3.04613 18.2221 3.13476 18.35L3.22339 18.4802C3.26826 18.543 3.30416 18.5901 3.33108 18.6215L3.34903 18.6238C3.41522 18.5755 3.50609 18.5194 3.62052 18.4555L3.57565 18.3893L3.57677 18.3882Z" fill="#C10230"/>
    <path d="M14.5392 21.9635L14.4775 21.8771L14.3866 21.8266L14.2509 21.8041C14.2318 21.8041 14.1858 21.8041 14.1185 21.8041C14.0512 21.8041 13.9973 21.8075 13.9581 21.8041L13.838 21.7851L13.7685 21.7346L13.7281 21.6347C13.7157 21.5764 13.7314 21.5203 13.7696 21.4675C13.8089 21.4137 13.8706 21.3789 13.9592 21.3632C14.0175 21.3509 14.0747 21.3509 14.1286 21.3632L14.2464 21.4193C14.2598 21.4462 14.2722 21.5001 14.2901 21.5741L14.3675 21.5584C14.3563 21.4934 14.3518 21.4395 14.3462 21.3991L14.3417 21.2723L14.3294 21.2521C14.2812 21.2375 14.2217 21.2319 14.1544 21.2319C14.0871 21.2319 14.022 21.2375 13.9536 21.2499C13.8885 21.2645 13.8268 21.2824 13.7685 21.3082C13.709 21.3363 13.6585 21.3699 13.6159 21.4137C13.5733 21.4563 13.543 21.5113 13.525 21.5764C13.5048 21.6403 13.5037 21.7121 13.5149 21.7828L13.5699 21.9186L13.6686 22.0184C13.7056 22.0454 13.755 22.0599 13.8145 22.0667C13.8537 22.0689 13.9323 22.0723 14.0523 22.0757C14.1376 22.0768 14.1959 22.0835 14.2307 22.0958L14.3171 22.1508L14.3574 22.2507L14.3496 22.3842L14.2655 22.4919C14.2217 22.5233 14.1678 22.5446 14.1084 22.557C14.04 22.5693 13.9704 22.5693 13.9076 22.548C13.8425 22.53 13.7954 22.5031 13.7617 22.4672C13.7404 22.401 13.7247 22.3449 13.718 22.2989L13.6406 22.3135C13.6653 22.4627 13.6776 22.5749 13.672 22.6535C13.7528 22.6737 13.8257 22.6871 13.8896 22.6905C13.9525 22.6927 14.0242 22.6871 14.1039 22.6725C14.2094 22.6512 14.2991 22.6164 14.3709 22.5727L14.4943 22.4571L14.5751 22.3113C14.5975 22.2417 14.6009 22.1677 14.5841 22.0835L14.5403 21.9635H14.5392Z" fill="#C10230"/>
    <path d="M12.3048 22.1725L12.2308 22.1063L12.1006 22.0558C12.0816 22.0491 12.0378 22.0446 11.9716 22.0323C11.9066 22.0188 11.8516 22.0076 11.8146 21.9986L11.7024 21.9537L11.6452 21.8898L11.625 21.7832C11.625 21.7226 11.6496 21.6721 11.7013 21.6284C11.7495 21.5857 11.8168 21.5633 11.9066 21.5644C11.9683 21.5666 12.0243 21.5767 12.0715 21.5992L12.1769 21.6766C12.1814 21.7091 12.1837 21.7619 12.1848 21.8359L12.2655 21.8404C12.2689 21.7742 12.2723 21.7215 12.2768 21.6777L12.2992 21.5554L12.2914 21.5319C12.2454 21.5072 12.1893 21.487 12.1253 21.4735C12.0602 21.4623 11.9929 21.4567 11.9245 21.4556C11.8572 21.4556 11.791 21.4578 11.7282 21.4735C11.6665 21.4859 11.6104 21.5139 11.5588 21.5442C11.5105 21.5779 11.4668 21.6227 11.4365 21.6856C11.404 21.7484 11.3894 21.8135 11.3871 21.8864L11.4107 22.0323L11.4859 22.1478C11.5184 22.1826 11.5633 22.2084 11.6205 22.223C11.6586 22.2342 11.7327 22.2533 11.8516 22.2825C11.9346 22.3004 11.9907 22.3172 12.0232 22.3363L12.0939 22.407L12.113 22.5158L12.0804 22.6449L11.9761 22.7335C11.9256 22.7559 11.8707 22.7649 11.809 22.7638C11.7372 22.7638 11.6721 22.7458 11.6126 22.7133C11.552 22.6841 11.5128 22.6482 11.4881 22.6056C11.4814 22.5394 11.4769 22.4788 11.478 22.4294H11.3972C11.395 22.582 11.3826 22.6931 11.3613 22.7671C11.4354 22.8042 11.5038 22.8345 11.5655 22.8468C11.6272 22.8625 11.7001 22.8726 11.7787 22.8726C11.8875 22.8726 11.9828 22.8603 12.0591 22.8277L12.2038 22.7402L12.3149 22.6134C12.3508 22.5506 12.3676 22.4788 12.3688 22.3935L12.3531 22.2667L12.3048 22.1691V22.1725Z" fill="#C10230"/>
    <path d="M11.0204 22.7212L11.0024 22.7077L10.9879 22.6785L10.9654 22.5843L10.9273 22.4429L10.6659 21.367L10.5279 21.3423L10.409 21.5476L10.0533 22.1243C9.98716 22.2342 9.94004 22.3083 9.9176 22.3453C9.86712 22.4227 9.83683 22.4676 9.82898 22.4811L9.80093 22.5069L9.77176 22.5159L9.67865 22.508L9.66406 22.5899L9.88843 22.6191L10.1094 22.664L10.1218 22.5843C10.0466 22.5708 10.0017 22.5563 9.98716 22.5462L9.97706 22.508C9.98267 22.4867 10.0051 22.4317 10.0522 22.3521L10.1139 22.241L10.6098 22.3218L10.658 22.5484L10.6648 22.6314L10.6446 22.6572C10.6345 22.6595 10.5885 22.6572 10.5122 22.6483L10.4987 22.729L10.8375 22.7795L11.1034 22.83L11.118 22.7481L11.0754 22.7358L11.0193 22.7201L11.0204 22.7212ZM10.3809 22.1759C10.3046 22.1636 10.2373 22.1523 10.1768 22.1411L10.4572 21.6755L10.5806 22.2084C10.5212 22.1983 10.455 22.1905 10.3821 22.1759H10.3809Z" fill="#C10230"/>
    <path d="M4.49609 19.6207L4.55554 19.4861L5.01439 18.4774L4.92015 18.3765L4.69802 18.4606L4.06192 18.6962C3.94189 18.7422 3.86111 18.7714 3.82072 18.7849C3.7321 18.8163 3.68049 18.8342 3.66703 18.8365L3.63001 18.841L3.60196 18.8297L3.53128 18.7669L3.4707 18.8219L3.62889 18.9857L3.77473 19.1562L3.83419 19.1001C3.7837 19.0429 3.7579 19.0025 3.75341 18.9868L3.768 18.952C3.7837 18.9374 3.83643 18.9105 3.92506 18.8769L4.04061 18.8297L4.37717 19.1989L4.27732 19.4053L4.23245 19.4738L4.20216 19.485C4.18982 19.4794 4.1584 19.4491 4.10007 19.3963L4.04061 19.4491L4.27732 19.6993L4.45458 19.899L4.51404 19.8485L4.48935 19.8126L4.45458 19.7643L4.45121 19.7419L4.45682 19.7116L4.49609 19.6218V19.6207ZM4.42653 19.0855C4.38726 19.0452 4.33902 18.998 4.28966 18.9386L4.15167 18.7837L4.65763 18.5941L4.42541 19.0855H4.42653Z" fill="#C10230"/>
    <path d="M2.09705 16.1595C2.03871 16.1102 1.98935 16.0619 1.95345 16.0114C1.91755 15.9621 1.88838 15.906 1.8637 15.8465C1.82668 15.7512 1.80761 15.6659 1.80873 15.5873C1.81322 15.5324 1.82668 15.4695 1.85697 15.4011C1.88389 15.3371 1.92989 15.2743 1.98935 15.216C2.04993 15.1588 2.12958 15.1128 2.22831 15.0701C2.38761 15.0039 2.52784 15.0006 2.65237 15.0466C2.77914 15.097 2.86777 15.189 2.9261 15.3349C2.95639 15.4123 2.9721 15.4819 2.96986 15.5391C2.96986 15.5986 2.95639 15.6558 2.93059 15.7141C2.89245 15.7366 2.84084 15.7601 2.77577 15.7882L2.8027 15.8577C2.86216 15.8387 2.92723 15.8196 3.00015 15.7994L3.11682 15.7792L3.12692 15.768C3.12467 15.6715 3.11345 15.5873 3.09999 15.5189C3.08541 15.4482 3.06185 15.3742 3.03044 15.2911C2.93396 15.0522 2.80045 14.8951 2.62881 14.8132C2.45604 14.7313 2.27542 14.7302 2.08471 14.8031C1.97476 14.8502 1.87828 14.9108 1.802 14.9961C1.75039 15.0499 1.71113 15.115 1.67747 15.189C1.64606 15.2665 1.62699 15.3484 1.62699 15.4381C1.62586 15.5514 1.65279 15.676 1.70103 15.8016C1.73805 15.8914 1.77732 15.9654 1.81546 16.0171C1.8536 16.0732 1.90857 16.1281 1.97813 16.1876L2.08695 16.1943L2.09817 16.1607L2.09705 16.1595Z" fill="#C10230"/>
    <path d="M1.92333 14.0819C2.18248 14.0819 2.39563 13.8721 2.39563 13.6107C2.39563 13.3493 2.1836 13.1372 1.92333 13.1372C1.66306 13.1372 1.45215 13.3493 1.45215 13.6107C1.45215 13.8721 1.66194 14.0819 1.92333 14.0819Z" fill="#C10230"/>
    <path d="M1.90529 8.56048L1.93558 8.51897L1.96251 8.51111C1.97821 8.50775 2.0287 8.52233 2.11172 8.54702C2.19698 8.57507 2.28673 8.60648 2.38882 8.64126L3.32333 8.97112C3.3424 8.97673 3.43327 9.01151 3.59931 9.07659C3.68345 9.108 3.73617 9.13268 3.75973 9.14727L3.80573 9.20673L3.799 9.28191L3.75637 9.35147L3.6554 9.4244L3.65876 9.45693C3.75076 9.48947 3.82256 9.51527 3.87641 9.53996L3.92577 9.4502C3.9426 9.40757 3.94933 9.3582 3.94372 9.29761C3.94147 9.24039 3.92689 9.17756 3.90782 9.11137C3.88314 9.04293 3.85621 8.98122 3.82368 8.92849C3.77544 8.85219 3.7171 8.786 3.64867 8.73663C3.58136 8.68614 3.48263 8.64014 3.35474 8.59302L2.84317 8.41799L2.41238 8.26428C2.29458 8.22165 2.20595 8.18687 2.14201 8.15882L2.08816 8.11955L2.08143 8.06569C2.08479 8.04886 2.09938 7.9995 2.1263 7.91984L2.02197 7.88281C1.99504 7.97818 1.9569 8.09038 1.9109 8.22052C1.85705 8.3776 1.79872 8.53355 1.73926 8.68165L1.84359 8.7198L1.90529 8.55824V8.56048Z" fill="#C10230"/>
    <path d="M2.59664 7.63372C2.66844 7.73582 2.76717 7.82558 2.8973 7.9086C3.06446 8.01856 3.22601 8.0769 3.38083 8.08363C3.5334 8.09036 3.677 8.0567 3.80938 7.98041C3.93951 7.90412 4.05843 7.78519 4.1594 7.62138C4.25588 7.47777 4.31534 7.33416 4.34226 7.18606C4.36021 7.08059 4.35685 6.97288 4.33441 6.86293C4.31085 6.75522 4.26934 6.65761 4.20539 6.57122C4.12013 6.45005 4.01243 6.34907 3.87893 6.26156C3.8004 6.21107 3.72187 6.17292 3.64783 6.14824C3.57266 6.12019 3.4975 6.1056 3.42233 6.10224C3.34829 6.09887 3.26527 6.10785 3.1744 6.13477C3.08353 6.16058 2.99939 6.20434 2.92086 6.2638C2.81989 6.34683 2.72566 6.45117 2.64152 6.5802C2.5585 6.70922 2.49904 6.84049 2.46651 6.97401C2.4407 7.07947 2.43846 7.1883 2.45978 7.30499C2.47997 7.42279 2.52597 7.53387 2.59664 7.63372ZM2.74585 6.68566C2.80419 6.59366 2.86701 6.53083 2.93208 6.49605C2.99827 6.46015 3.07344 6.43995 3.15645 6.43658C3.24059 6.43658 3.32922 6.4478 3.42682 6.4781C3.5233 6.51063 3.62203 6.56112 3.71851 6.62171C3.86435 6.71932 3.97317 6.81581 4.04946 6.91903C4.12462 7.02337 4.1594 7.12547 4.1594 7.2242C4.15603 7.32182 4.12574 7.41606 4.0674 7.50582C4.0057 7.59782 3.93166 7.67075 3.84079 7.71226C3.7488 7.75377 3.63437 7.76387 3.49862 7.73919C3.36175 7.71675 3.2103 7.65055 3.04539 7.54621C2.93096 7.46992 2.83672 7.38577 2.7638 7.29152C2.68976 7.1984 2.65162 7.09854 2.64937 6.99757C2.64937 6.89098 2.68078 6.78776 2.74585 6.68678V6.68566Z" fill="#C10230"/>
    <path d="M5.65674 4.30608C5.73975 4.43848 5.84072 4.54506 5.95852 4.62023C6.03368 4.67072 6.12231 4.7055 6.21991 4.72682C6.32088 4.75038 6.42521 4.75263 6.53628 4.73916C6.69446 4.71448 6.85152 4.65502 7.01195 4.55067C7.11179 4.49009 7.20379 4.41828 7.28905 4.3375C7.37543 4.25672 7.46967 4.14901 7.57288 4.01549L7.45733 3.85617C7.43601 3.82027 7.40235 3.76081 7.35187 3.67554L7.32719 3.61046L7.38665 3.52407L7.34177 3.45339L7.02317 3.65983L6.70119 3.85617L6.75392 3.94032C6.86947 3.87861 6.94127 3.84271 6.97044 3.8371H7.01195C7.02429 3.84496 7.05346 3.88422 7.09496 3.95266L7.15667 4.05252L7.22061 4.16472L7.11404 4.29711L6.98614 4.39809C6.82235 4.50018 6.6451 4.52375 6.45214 4.47214C6.26254 4.41828 6.10099 4.28589 5.96749 4.07496C5.84633 3.87861 5.80482 3.69573 5.84184 3.51734C5.87999 3.34007 5.98769 3.19534 6.16718 3.08314C6.24347 3.0349 6.31639 3.00236 6.38931 2.98328C6.46111 2.96197 6.52955 2.95187 6.59574 2.95411L6.68773 2.97206L6.74831 3.04611L6.81786 3.14373L6.902 3.09099C6.81786 2.9227 6.76289 2.8004 6.73933 2.72635L6.72026 2.71289C6.6451 2.72074 6.54637 2.75216 6.42858 2.79367C6.3119 2.83743 6.19074 2.89689 6.06958 2.97431C5.96974 3.03377 5.8856 3.10109 5.8138 3.16841C5.73976 3.23685 5.68142 3.31202 5.62981 3.40066C5.57933 3.4848 5.54567 3.58017 5.52436 3.67778C5.50416 3.77988 5.50304 3.87974 5.52436 3.98408C5.54343 4.08842 5.58718 4.19613 5.65786 4.30833L5.65674 4.30608Z" fill="#C10230"/>
    <path d="M3.99707 11.5441C3.99707 11.5441 4.20237 12.1287 4.3426 12.5954L4.06214 11.4409C4.03746 11.4544 4.01614 11.4824 3.99819 11.5453L3.99707 11.5441Z" fill="#C10230"/>
    <path d="M20.0591 11.5438C20.0423 11.481 20.0198 11.4529 19.9963 11.4395L19.7158 12.594C19.8538 12.1272 20.0591 11.5427 20.0591 11.5427V11.5438Z" fill="#C10230"/>
    <path d="M19.3676 11.4698C19.0434 12.1452 19.1253 12.8913 19.1253 12.8913C18.4343 12.2675 17.346 12.7735 17.346 12.7735C17.3808 12.8913 17.7432 13.1673 17.7432 13.1673C17.76 14.4767 18.5375 14.7414 18.5375 14.7414C18.2615 14.9479 18.1919 15.1745 18.1919 15.1745C17.7925 14.6708 16.913 14.7773 16.913 14.7773C16.913 15.6906 17.8812 16.1416 17.8812 16.1416C17.7937 16.5388 17.8464 16.7318 17.8464 16.7318C17.5188 16.8866 17.1565 17.3365 17.1565 17.3365C17.2585 16.3649 16.913 16.0384 16.913 16.0384C16.3252 16.3851 16.0851 17.0415 16.0851 17.0415C15.099 17.1447 14.5627 17.8538 14.5627 17.8538L14.6311 17.5419C12.7991 17.9402 12.816 19.2338 12.816 19.2338L12.7307 19.2013C12.6331 18.6122 12.0856 18.6257 12.0273 18.6313C11.969 18.6257 11.4237 18.6122 11.3239 19.2013L11.2375 19.2338C11.2375 19.2338 11.2532 17.939 9.42346 17.5419L9.49189 17.8538C9.49189 17.8538 8.95564 17.1447 7.97177 17.0415C7.97177 17.0415 7.72944 16.3862 7.14159 16.0384C7.14159 16.0384 6.79605 16.366 6.90039 17.3365C6.90039 17.3365 6.53803 16.8866 6.21044 16.7318C6.21044 16.7318 6.26093 16.5388 6.17454 16.1416C6.17454 16.1416 7.14159 15.6917 7.14159 14.7773C7.14159 14.7773 6.26093 14.6708 5.86379 15.1745C5.86379 15.1745 5.79311 14.9479 5.51825 14.7414C5.51825 14.7414 6.2957 14.4755 6.31365 13.1673C6.31365 13.1673 6.67489 12.8913 6.71191 12.7735C6.71191 12.7735 5.62146 12.2686 4.93264 12.8913C4.93264 12.8913 5.12224 11.196 3.82648 10.6104C3.82648 10.6104 3.39232 11.6134 3.87697 12.6669C3.87697 12.6669 3.48095 12.4605 3.30706 12.4414C3.30706 12.4414 3.18814 13.1684 3.63465 13.6879C3.63465 13.6879 3.27228 13.6206 2.87402 13.8427C2.87402 13.8427 3.28799 14.7246 4.2225 15.0186C4.2225 15.0186 4.29094 15.1902 4.35937 15.3125C4.35937 15.3125 3.73898 15.2071 3.13317 15.4685C3.13317 15.4685 3.63465 16.0216 3.82536 16.1091C3.82536 16.1091 4.29094 16.4019 4.53326 16.4367L4.34142 16.504C4.34142 16.504 5.2075 17.6619 5.98495 17.801C5.98495 17.801 5.43411 17.9525 5.22432 18.2162C5.22432 18.2162 6.20932 19.1317 7.50619 18.8557C7.50619 18.8557 7.22797 19.1496 7.08998 19.4436C7.08998 19.4436 7.95269 19.6848 8.81765 19.3718L8.73014 19.5827C8.73014 19.5827 9.30005 19.7005 10.1314 19.1496L10.4769 19.3931C10.4769 19.3931 9.47506 19.5636 8.81877 19.8071L9.50984 20.3086C9.50984 20.3086 9.57939 20.2368 10.045 20.0169C10.045 20.0169 11.343 20.2817 12.0273 20.257C12.7128 20.2817 14.0085 20.0169 14.0085 20.0169C14.4763 20.2368 14.5448 20.3086 14.5448 20.3086L15.2336 19.8071C14.5784 19.5648 13.5766 19.3931 13.5766 19.3931L13.9221 19.1496C14.7523 19.7005 15.3222 19.5827 15.3222 19.5827L15.2347 19.3718C16.1019 19.6848 16.9646 19.4436 16.9646 19.4436C16.8266 19.1485 16.5484 18.8557 16.5484 18.8557C17.8442 19.1317 18.8303 18.2162 18.8303 18.2162C18.6182 17.9525 18.0685 17.801 18.0685 17.801C18.846 17.6619 19.7121 16.504 19.7121 16.504L19.5202 16.4367C19.7625 16.4008 20.2304 16.1091 20.2304 16.1091C20.4188 16.0216 20.9203 15.4685 20.9203 15.4685C20.3179 15.2071 19.6941 15.3125 19.6941 15.3125C19.7625 15.1902 19.8321 15.0186 19.8321 15.0186C20.7644 14.7246 21.1795 13.8427 21.1795 13.8427C20.7801 13.6206 20.4188 13.6879 20.4188 13.6879C20.8687 13.1684 20.7475 12.4414 20.7475 12.4414C20.5748 12.4605 20.1765 12.6669 20.1765 12.6669C20.6623 11.6134 20.2304 10.6104 20.2304 10.6104C19.9263 10.7472 19.7076 10.9436 19.546 11.1646L19.3643 11.4698H19.3676ZM20.9035 13.928L20.8283 14.0234C20.8283 14.0234 20.7666 13.9033 20.6802 13.928C20.6802 13.928 19.7143 14.25 19.141 14.5855C19.141 14.5855 19.5741 13.6531 20.9024 13.928H20.9035ZM19.0995 15.0006C19.2196 15.0702 19.5931 15.0455 19.5931 15.0455L19.4372 15.3473L19.1096 15.5717C19.1421 15.3619 19.1006 14.9995 19.1006 14.9995L19.0995 15.0006ZM18.9974 13.6621L19.334 13.6711C19.2891 13.7575 19.2039 14.1625 19.2039 14.1625L18.9974 14.4048C19.049 14.1973 18.9974 13.6621 18.9974 13.6621ZM20.1283 13.7047H20.0419C20.0419 13.7047 20.3201 13.4209 20.5086 13.0024C20.5086 13.0024 20.4985 13.3491 20.1283 13.7047ZM20.3885 12.8038C20.3885 12.8038 20.1709 13.2739 19.7322 13.8091L19.454 13.9639C19.454 13.9639 19.6369 13.0731 20.3885 12.8038ZM20.1238 10.9099C20.1238 10.9099 20.5198 12.2967 19.5931 13.1C19.601 13.0035 19.6526 12.8117 19.7154 12.5951L19.9959 11.4406C19.9364 11.4092 19.8691 11.4945 19.8691 11.4945C19.721 11.7088 19.3845 13.0551 19.3845 13.0551C19.3845 13.0551 18.9784 11.7682 20.1238 10.9099ZM19.187 13.3423C18.7989 13.0394 17.9922 12.7971 17.9922 12.7971C19.0042 12.6658 19.187 13.3423 19.187 13.3423ZM18.9245 13.4209C18.3299 13.3906 17.8543 12.9788 17.8543 12.9788C18.3726 13.0899 18.9245 13.4209 18.9245 13.4209ZM18.883 14.9838C19.0401 15.8567 18.6418 16.4513 18.6418 16.4513L18.4073 16.4883C18.5027 16.4008 18.7013 15.7265 18.7013 15.7265C18.6743 15.5818 18.883 14.9838 18.883 14.9838ZM18.4859 13.5409L18.763 13.6105C18.8583 13.9202 18.7989 14.4306 18.7989 14.4306C18.6508 14.25 18.4859 13.5409 18.4859 13.5409ZM17.9687 13.2986L18.2536 13.4736C18.358 14.0122 18.6081 14.5305 18.6081 14.5305C17.9238 14.1905 17.9676 13.2975 17.9676 13.2975L17.9687 13.2986ZM18.6844 14.94C18.616 15.0186 18.5307 15.5201 18.5307 15.5201C18.496 15.9778 18.1235 16.6005 18.1235 16.6005L18.0371 16.6263C18.0966 15.1229 18.6844 14.9411 18.6844 14.9411V14.94ZM18.0629 15.354L18.0192 15.4831C18.0192 15.4831 17.6131 15.1218 17.4145 15.0006C17.4145 15.0006 17.8206 14.9849 18.0629 15.354ZM17.1901 15.0971C17.1901 15.0971 17.7522 15.4584 17.9339 15.6917L17.8969 15.9004C17.8969 15.9004 17.2843 15.6076 17.1901 15.0971ZM16.8535 16.3414C16.8535 16.3414 16.8861 16.4098 16.8951 16.504C16.8951 16.504 16.7492 16.4614 16.7313 16.5927C16.7313 16.5927 16.3005 17.9536 15.9628 18.1006C15.9628 18.1006 16.0222 17.0056 16.8535 16.3402V16.3414ZM15.9538 18.3721C15.9538 18.3721 16.351 18.3441 16.9388 16.642C16.9388 16.642 17.2081 17.9547 15.9538 18.4394V18.3732V18.3721ZM15.8775 17.2827C15.1607 18.7513 14.4606 18.8097 14.4606 18.8097C15.0227 18.1376 15.7048 17.525 15.7048 17.525C15.7833 17.396 15.679 17.3354 15.679 17.3354C15.7923 17.2917 15.8775 17.2816 15.8775 17.2816V17.2827ZM15.6161 18.4473L15.3929 18.4237C15.4692 18.3351 15.7541 17.9132 15.7541 17.9132L15.7474 18.2756C15.6004 18.3115 15.6161 18.4473 15.6161 18.4473ZM15.4972 17.4207C15.4972 17.4207 14.4786 18.4058 14.4449 18.5101C14.4449 18.5101 14.7725 17.6193 15.4972 17.4207ZM9.61417 18.5101C9.58052 18.4058 8.56074 17.4207 8.56074 17.4207C9.28659 17.6193 9.61417 18.5101 9.61417 18.5101ZM8.37676 17.3365C8.37676 17.3365 8.27242 17.396 8.35208 17.5262C8.35208 17.5262 9.03641 18.1388 9.59734 18.8108C9.59734 18.8108 8.89842 18.7525 8.18043 17.2838C8.18043 17.2838 8.26682 17.2928 8.37788 17.3377L8.37676 17.3365ZM8.30945 18.2756L8.30159 17.9132C8.30159 17.9132 8.58655 18.3351 8.66395 18.4237L8.43958 18.4473C8.43958 18.4473 8.45529 18.3115 8.30945 18.2756ZM7.20441 16.3414C8.03459 17.0067 8.0918 18.1017 8.0918 18.1017C7.75749 17.9547 7.32445 16.5938 7.32445 16.5938C7.3065 16.4625 7.15954 16.5052 7.15954 16.5052C7.16851 16.4109 7.20329 16.3425 7.20329 16.3425L7.20441 16.3414ZM7.11691 16.642C7.70364 18.3441 8.10302 18.3721 8.10302 18.3721V18.4383C6.84878 17.9536 7.11691 16.6409 7.11691 16.6409V16.642ZM6.15884 15.8993L6.12406 15.6906C6.3058 15.4573 6.86561 15.096 6.86561 15.096C6.77137 15.6065 6.15771 15.8993 6.15771 15.8993H6.15884ZM6.64236 15.0006C6.44267 15.1229 6.03655 15.4831 6.03655 15.4831L5.99392 15.354C6.23624 14.9849 6.64236 15.0006 6.64236 15.0006ZM6.01973 16.6252L5.93334 16.5994C5.93334 16.5994 5.56313 15.9767 5.52947 15.519C5.52947 15.519 5.44197 15.0174 5.37241 14.9389C5.37241 14.9389 5.96027 15.1207 6.01973 16.6241V16.6252ZM5.35446 15.7265C5.35446 15.7265 5.55191 16.4008 5.64727 16.4883L5.41616 16.4513C5.41616 16.4513 5.0179 15.8567 5.1716 14.9838C5.1716 14.9838 5.38026 15.5807 5.35446 15.7265ZM5.295 13.6105L5.56761 13.5409C5.56761 13.5409 5.40382 14.25 5.2591 14.4306C5.2591 14.4306 5.1974 13.9202 5.29388 13.6105H5.295ZM5.44982 14.5316C5.44982 14.5316 5.69999 14.0133 5.80433 13.4747L6.0904 13.2997C6.0904 13.2997 6.13191 14.1917 5.44982 14.5327V14.5316ZM5.13121 13.4209C5.13121 13.4209 5.68429 13.0899 6.20035 12.9788C6.20035 12.9788 5.7258 13.3906 5.13121 13.4209ZM6.06236 12.7982C6.06236 12.7982 5.26022 13.0405 4.86982 13.3435C4.86982 13.3435 5.05268 12.668 6.06236 12.7982ZM5.06053 14.4048L4.85187 14.1625C4.85187 14.1625 4.76773 13.7575 4.72285 13.6711L5.05941 13.6621C5.05941 13.6621 5.00668 14.1962 5.05941 14.4048H5.06053ZM4.95059 15.5717L4.61964 15.3473L4.46707 15.0455C4.46707 15.0455 4.83616 15.0702 4.95732 15.0006C4.95732 15.0006 4.91581 15.363 4.95171 15.5728L4.95059 15.5717ZM3.93306 10.9099C5.07736 11.7682 4.67125 13.0551 4.67125 13.0551C4.67125 13.0551 4.33469 11.7088 4.1866 11.4945C4.1866 11.4945 4.12153 11.4092 4.06095 11.4406L4.34142 12.5951C4.40312 12.8117 4.45361 13.0035 4.46482 13.1C3.53256 12.2978 3.93194 10.9099 3.93194 10.9099H3.93306ZM4.60281 13.9639L4.32571 13.8091C3.88707 13.2739 3.67055 12.8038 3.67055 12.8038C4.42107 13.0731 4.60281 13.9639 4.60281 13.9639ZM3.55051 13.0024C3.7401 13.4209 4.01608 13.7047 4.01608 13.7047H3.92857C3.55724 13.3491 3.55163 13.0024 3.55163 13.0024H3.55051ZM3.22853 14.0245L3.15112 13.9291C4.48053 13.6542 4.91357 14.5866 4.91357 14.5866C4.34142 14.25 3.37437 13.9291 3.37437 13.9291C3.28687 13.9056 3.22741 14.0245 3.22741 14.0245H3.22853ZM3.32389 14.1367C4.04076 14.3263 4.88777 14.8166 4.88777 14.8166C3.94652 15.0253 3.32389 14.1367 3.32389 14.1367ZM3.49666 15.5717C4.95508 15.2003 5.09531 16.2381 5.09531 16.2381C4.55009 15.6839 3.74795 15.538 3.74795 15.538C3.54938 15.538 3.66942 15.7007 3.66942 15.7007C4.53326 15.9419 4.86196 16.3245 4.86196 16.3245C4.20567 16.2538 3.49666 15.5717 3.49666 15.5717ZM4.86982 16.7991C4.78343 16.752 4.69817 16.6252 4.69817 16.6252C6.2957 16.504 6.78932 17.5486 6.78932 17.5486C5.82901 16.9046 5.01678 16.6858 5.01678 16.6858C4.86084 16.6252 4.86869 16.7991 4.86869 16.7991H4.86982ZM4.93264 16.8575C4.93264 16.8575 5.50928 16.9887 6.66031 17.7046C6.66031 17.7046 5.64839 17.7494 4.93264 16.8575ZM5.57883 18.1982C6.28 17.6529 7.25602 18.0613 7.25602 18.0613C7.27397 18.1219 7.60267 18.3968 7.60267 18.3968C7.08213 18.2409 6.0904 18.0782 6.0904 18.0782C5.90642 18.1287 6.0545 18.2577 6.0545 18.2577C6.83981 18.4058 7.64306 18.6313 7.64306 18.6313C6.44267 18.9701 5.57771 18.1993 5.57771 18.1993L5.57883 18.1982ZM7.53985 19.3112L7.41981 19.3056C7.41981 19.3056 8.00879 18.3441 9.00163 18.7513C9.00163 18.7513 7.73954 19.1306 7.60267 19.2001C7.60267 19.2001 7.52414 19.2271 7.53985 19.3112ZM7.8865 19.3112C7.8865 19.3112 9.02856 18.932 9.26079 18.8983L9.35614 18.9488C9.35614 18.9488 8.76043 19.3561 7.88763 19.3112H7.8865ZM9.13738 19.3639C9.29444 19.2439 9.56257 19.0442 9.56257 19.0442L9.78694 19.0879C9.54574 19.3056 9.13626 19.3639 9.13626 19.3639H9.13738ZM9.69158 17.8078C11.0748 18.2745 11.0569 19.2686 11.0569 19.2686C10.8751 19.2091 9.98439 18.0782 9.98439 18.0782C9.75104 17.9738 9.83854 18.2162 9.83854 18.2162C10.1751 18.6313 10.6687 19.2192 10.6687 19.2192C9.86322 19.0633 9.69158 17.8078 9.69158 17.8078ZM12.034 19.9619H12.0228C11.9297 19.9664 11.2409 19.9664 10.5812 19.8239C10.5812 19.8239 11.2521 19.5827 12.0284 19.5636C12.8036 19.5827 13.4745 19.8239 13.4745 19.8239C12.8137 19.9664 12.126 19.9653 12.034 19.9619ZM13.387 19.2192C13.387 19.2192 13.8784 18.6302 14.2183 18.2162C14.2183 18.2162 14.3036 17.9738 14.0702 18.0782C14.0702 18.0782 13.1806 19.2091 12.9988 19.2686C12.9988 19.2686 12.9809 18.2745 14.3641 17.8078C14.3641 17.8078 14.1914 19.0633 13.387 19.2192ZM14.2688 19.0891L14.4943 19.0453C14.4943 19.0453 14.7624 19.2439 14.9183 19.3651C14.9183 19.3651 14.5111 19.3067 14.2688 19.0891ZM14.7007 18.9488L14.7972 18.8983C15.0305 18.932 16.1715 19.3112 16.1715 19.3112C15.2986 19.3561 14.7007 18.9488 14.7007 18.9488ZM16.637 19.3056L16.517 19.3112C16.5338 19.2271 16.4575 19.2001 16.4575 19.2001C16.3173 19.1306 15.0563 18.7513 15.0563 18.7513C16.0503 18.3441 16.637 19.3056 16.637 19.3056ZM18.4769 18.1982C18.4769 18.1982 17.6131 18.969 16.4127 18.6302C16.4127 18.6302 17.2159 18.4047 18.0023 18.2566C18.0023 18.2566 18.1493 18.1275 17.9676 18.077C17.9676 18.077 16.9725 18.2397 16.4564 18.3957C16.4564 18.3957 16.7817 18.1197 16.8008 18.0602C16.8008 18.0602 17.7791 17.6529 18.4758 18.1971L18.4769 18.1982ZM17.3977 17.7046C18.5464 16.9887 19.1253 16.8575 19.1253 16.8575C18.4073 17.7494 17.3977 17.7046 17.3977 17.7046ZM19.187 16.7991C19.187 16.7991 19.1938 16.6252 19.0401 16.6858C19.0401 16.6858 18.2267 16.9046 17.2686 17.5486C17.2686 17.5486 17.7611 16.504 19.3598 16.6252C19.3598 16.6252 19.2734 16.752 19.1881 16.7991H19.187ZM20.5602 15.5717C20.5602 15.5717 19.8523 16.2538 19.1949 16.3245C19.1949 16.3245 19.5236 15.9419 20.3885 15.7007C20.3885 15.7007 20.5086 15.538 20.3089 15.538C20.3089 15.538 19.5045 15.685 18.9627 16.2381C18.9627 16.2381 19.1006 15.1992 20.5602 15.5717ZM19.1691 14.8166C19.1691 14.8166 20.0172 14.3263 20.7318 14.1367C20.7318 14.1367 20.1126 15.0264 19.1691 14.8166Z" fill="#C10230"/>
    <path d="M12.5249 13.3638C11.8955 13.7643 11.5186 13.3638 11.5186 13.3638V15.4372C12.1053 15.73 12.5249 15.4372 12.5249 15.4372V13.3638Z" fill="#C10230"/>
    <path d="M6.83577 12.696C6.83577 12.696 6.66749 15.3427 9.50244 15.4885C9.50244 15.4885 11.7271 15.5828 11.2671 13.6092H10.3225C10.3225 13.6092 10.9721 14.6269 9.81656 14.794C9.81656 14.794 8.47145 15.0252 8.55783 12.8833C8.55783 12.8833 8.70479 10.4071 10.594 8.93737C10.594 8.93737 9.96352 8.22267 10.3001 7.36212C10.3001 7.36212 10.5772 6.39499 11.6441 6.15152L11.5498 9.53762L12.0019 9.81362V9.82148L12.0064 9.81587L12.0132 9.82148V9.81362L12.463 9.53762L12.3699 6.15601C13.4278 6.40172 13.7038 7.36325 13.7038 7.36325C14.0404 8.22379 13.4088 8.93849 13.4088 8.93849C15.3002 10.4083 15.4472 12.8844 15.4472 12.8844C15.5313 15.0263 14.1862 14.7952 14.1862 14.7952C13.0318 14.628 13.6814 13.6104 13.6814 13.6104H12.7356C12.2746 15.5828 14.5015 15.4897 14.5015 15.4897C17.3353 15.3438 17.1692 12.6971 17.1692 12.6971C17.3353 10.2411 14.396 8.89473 14.396 8.89473C15.1488 6.40845 13.1889 5.79137 12.3553 5.64439L12.3374 5.03404L12.0143 4.69521V4.68848L12.0076 4.69072L12.0031 4.68848V4.69521L11.6777 5.03404L11.6598 5.64103C10.833 5.78688 8.854 6.39723 9.60901 8.89473C9.60901 8.89473 6.66973 10.2411 6.83801 12.6971L6.83577 12.696Z" fill="#C10230"/>
    <path d="M15.1286 13.0341L14.267 10.1113C12.9656 9.43143 12.03 10.3133 12.0008 10.3413C11.975 10.3133 11.0394 9.43143 9.73688 10.1113L8.87305 13.0341C8.87305 13.0341 10.3225 12.233 11.7304 13.2012H11.7316C11.791 13.2405 11.8886 13.2674 11.9997 13.2674C12.1107 13.2674 12.2061 13.2405 12.2656 13.2012H12.2723C13.6802 12.233 15.1274 13.0341 15.1274 13.0341H15.1286ZM12.0008 13.0531C11.975 13.0341 10.6635 12.178 9.25336 12.6324L9.8816 10.2404C9.8816 10.2404 10.7432 9.69509 12.0019 10.4255C13.2618 9.69397 14.1211 10.2404 14.1211 10.2404L14.7516 12.6324C13.3381 12.178 12.0311 13.0341 12.0008 13.0531Z" fill="#C10230"/>
    <path d="M10.6084 12.0927L10.5714 12.0882L10.5557 12.0759L10.5422 12.0501L10.5074 11.9513L10.457 11.8089L10.0845 10.7104L9.99587 10.7194L9.95884 10.9674L9.84666 11.6697C9.82871 11.8055 9.81076 11.893 9.80515 11.9379C9.79169 12.0332 9.77823 12.0927 9.77598 12.1051L9.76476 12.1398L9.75018 12.1555L9.68848 12.1701L9.69521 12.2599L9.83993 12.2408L9.98801 12.2363L9.98016 12.1466L9.88817 12.132L9.87471 12.0983C9.87246 12.0736 9.87695 12.0108 9.89266 11.911L9.9106 11.7786L10.2371 11.7528L10.31 11.985L10.3313 12.0714L10.3235 12.1028L10.2393 12.1252L10.246 12.2128L10.467 12.1881L10.6443 12.1802L10.6387 12.0916L10.6095 12.0893L10.6084 12.0927ZM10.0654 11.6518L9.92968 11.6596L10.0149 11.0942L10.1944 11.6383L10.0654 11.6518Z" fill="#C10230"/>
    <path d="M11.0647 11.4878V11.5731C11.1298 11.5798 11.1702 11.5843 11.1859 11.5944L11.2027 11.6134C11.2061 11.6247 11.2095 11.6673 11.2095 11.7357L11.2061 11.8333C11.2061 11.8917 11.205 11.9287 11.2027 11.9455L11.1264 11.9893L11.0423 12.005C10.9436 12.005 10.8606 11.9433 10.7944 11.8176C10.7282 11.6942 10.6934 11.5248 10.6934 11.3116C10.6934 11.1187 10.7271 10.9672 10.7899 10.8539C10.8538 10.7417 10.9368 10.6867 11.0434 10.6867L11.1657 10.7136L11.2611 10.7854L11.2947 10.8393L11.3003 10.9212L11.3048 11.0233H11.3553C11.3631 10.8617 11.3732 10.7506 11.3845 10.6856L11.3777 10.6676C11.343 10.6418 11.2936 10.6183 11.2308 10.5925C11.1702 10.5711 11.1018 10.561 11.03 10.561C10.9716 10.561 10.92 10.5689 10.8684 10.5868L10.7282 10.671C10.6844 10.7103 10.644 10.7607 10.607 10.8236C10.5734 10.8864 10.5442 10.9593 10.5251 11.0435C10.506 11.1265 10.4971 11.2252 10.4971 11.3386C10.4971 11.4721 10.5105 11.5944 10.5419 11.7032C10.561 11.7739 10.5879 11.839 10.6238 11.9007C10.662 11.9613 10.7046 12.0106 10.7562 12.051C10.8303 12.1037 10.9144 12.1329 11.0098 12.1329C11.0681 12.1329 11.1264 12.1217 11.1859 12.1037C11.2431 12.0791 11.3127 12.0488 11.3934 11.9994L11.3867 11.83C11.3867 11.7963 11.3867 11.7357 11.3901 11.6527L11.3957 11.5955L11.445 11.5573V11.4889L11.2532 11.4911L11.0636 11.4889L11.0647 11.4878Z" fill="#C10230"/>
    <path d="M12.4244 11.9906L12.4109 11.9794L12.3997 11.9502L12.3728 11.8515L12.3335 11.7056L12.0508 10.5825H11.9599L11.9038 10.8249L11.7367 11.5182C11.7052 11.6506 11.6828 11.737 11.675 11.7808C11.6492 11.8784 11.6334 11.9322 11.6278 11.9468L11.6155 11.9794L11.5964 11.9917L11.5381 12.0052V12.0938L11.6839 12.0882L11.8298 12.0938V12.0052L11.7389 11.9839L11.7288 11.9491C11.7288 11.9221 11.7389 11.8616 11.7591 11.7628L11.7871 11.6304H12.1147L12.1708 11.8705L12.1832 11.9569L12.1731 11.9895L12.0878 12.0052V12.0938L12.3099 12.0882L12.4849 12.0938V12.0052L12.458 11.9984L12.4199 11.9895L12.4244 11.9906ZM11.9554 11.5138H11.8197L11.9509 10.9561L12.0867 11.5126H11.9554V11.5138Z" fill="#C10230"/>
    <path d="M13.3611 10.7317L13.2848 10.6229L13.1536 10.5836L12.8686 10.5769L12.6835 10.5601L12.6734 10.6487L12.7463 10.6599L12.7676 10.6723L12.7755 10.6902L12.7789 10.7362C12.7789 10.7575 12.7755 10.8125 12.7732 10.8978L12.7632 11.0997L12.7396 11.4789C12.7329 11.6214 12.7216 11.7493 12.7127 11.8627L12.6992 11.9423L12.6891 11.9558L12.5994 11.9681L12.5938 12.0646C12.6476 12.0635 12.7059 12.0646 12.7654 12.068C12.8204 12.0725 12.9034 12.0781 13.01 12.0893L13.0156 11.9928L12.9292 11.9805L12.909 11.9648L12.9023 11.9479C12.9 11.9311 12.9 11.8907 12.9023 11.829C12.9045 11.7224 12.909 11.617 12.9168 11.5149L12.9404 11.1098L12.955 10.8978C12.9584 10.8136 12.9673 10.7497 12.9707 10.7037L13.0503 10.6936L13.1625 10.7744C13.1872 10.8248 13.1973 10.8989 13.1895 10.9987C13.185 11.0941 13.1659 11.1626 13.1367 11.2108L13.0324 11.2792L13.01 11.2725L12.9853 11.2613L12.9696 11.2826L12.9875 11.36L13.0257 11.3746L13.0649 11.3802L13.2209 11.323C13.2691 11.2815 13.3084 11.2254 13.3342 11.1581C13.3611 11.0874 13.3768 11.0133 13.3802 10.9337C13.3835 10.8551 13.3802 10.7833 13.3577 10.7328L13.3611 10.7317Z" fill="#C10230"/>
    <path d="M13.9765 12.1979L13.9877 12.1833C14.0012 12.0936 14.0225 11.978 14.0528 11.8366L14 11.8299C13.9776 11.9241 13.9619 11.9892 13.9473 12.0217L13.9383 12.0408L13.8654 12.052L13.7375 12.0408L13.6175 12.0173L13.6354 11.8849L13.7005 11.435L13.8026 11.4417L13.9125 11.4697L13.9361 11.5023C13.9395 11.5213 13.9361 11.573 13.9238 11.6571L13.9776 11.665L14.009 11.4316L14.046 11.196L13.9944 11.1892C13.9855 11.2532 13.9742 11.2958 13.9675 11.3239L13.954 11.3452H13.9125C13.852 11.3418 13.8172 11.334 13.8082 11.3329L13.7196 11.3171L13.751 11.1006C13.7701 10.9727 13.7858 10.8729 13.806 10.7943L13.9204 10.8033L14.0415 10.8336L14.0898 10.8571V10.8807C14.0909 10.8998 14.0887 10.9491 14.0774 11.0344L14.1257 11.0434C14.1414 10.9514 14.1515 10.8998 14.1549 10.8897L14.1885 10.7371L14.1863 10.7225L14.1672 10.7135L14.0741 10.6956L13.9451 10.6832C13.8744 10.6754 13.8104 10.6664 13.7532 10.6574L13.6702 10.6462L13.5266 10.6182L13.512 10.7102L13.5995 10.7427L13.6085 10.7607C13.6085 10.7775 13.6063 10.8257 13.595 10.9054C13.5805 11.0277 13.5692 11.0972 13.5659 11.113L13.4963 11.592C13.4873 11.6493 13.4739 11.7379 13.4526 11.8591C13.4414 11.9241 13.4324 11.9735 13.4245 12.0027L13.3538 12.0554L13.3438 12.1126C13.475 12.1272 13.5468 12.1362 13.5558 12.1362C13.595 12.1418 13.6624 12.1564 13.7622 12.1721L13.8632 12.1889L13.9776 12.2001L13.9765 12.1979Z" fill="#C10230"/>
  </g>
  <defs>
    <clipPath id="clip0_63_9983">
      <rect width="24" height="24" fill="white"/>
    </clipPath>
  </defs>
</svg>