<svg width="23" height="23" viewBox="0 0 23 23" fill="none" xmlns="http://www.w3.org/2000/svg">
<g clip-path="url(#clip0_4956_56234)">
<path d="M8.01361 14.9678C8.38304 14.3856 8.62537 13.6637 8.85753 12.9665C9.1202 12.1804 9.39473 11.3681 9.85228 10.7087C11.5469 8.09402 13.7906 7.4198 15.8903 7.01855C13.6923 7.3754 11.2148 8.05126 9.47777 10.7317C8.62198 11.965 8.43557 13.7328 7.64079 14.9891C7.2883 15.545 6.5325 16.7043 4.74805 16.826C5.85295 16.8523 7.07308 16.4543 8.01361 14.9694V14.9678Z" fill="#6FBA2C"/>
<path d="M18.8852 6.64445C16.1653 7.42226 12.5811 7.05391 10.1409 10.8164C9.28676 12.0497 9.10035 13.8175 8.30387 15.0755C7.78531 15.8944 6.23133 18.1292 2.22522 16.3351C2.15066 16.2989 1.75242 16.0967 1.5694 15.878C1.42705 15.7069 1.38129 15.605 1.38129 15.605L1 15.8566L1.40502 16.0654C1.57448 16.1641 1.84562 16.3154 2.19302 16.4716C3.3996 17.0143 5.50434 17.6211 7.32607 16.4025L7.33962 16.3927C9.5257 15.9306 13.3217 17.0718 15.2671 15.6083C17.9955 13.7895 21.2983 7.99288 21.4 5.88965C20.2544 6.35502 19.3359 6.52933 18.8852 6.64445Z" fill="#6FBA2C"/>
<path d="M12.4551 13.2522C11.7756 13.7669 11.2197 14.1632 10.7486 14.4757C12.0806 14.4625 15.2157 15.1713 15.4292 15.2206C15.4377 15.2206 15.4292 15.2354 15.4292 15.2354C15.4292 15.2354 11.1113 14.5398 10.5063 14.7832C10.0758 14.9559 9.83181 15.5413 10.5114 16.2829C10.5148 16.2862 10.4893 16.2829 10.4927 16.2862C10.4927 16.2862 9.67252 15.6005 9.78098 15.0792C8.98619 15.5396 8.47441 15.7386 7.8457 16.084C10.4165 14.5793 14.9513 10.9846 17.1408 9.40918C15.214 11.0997 14.2514 11.9498 12.4517 13.2506L12.4551 13.2522Z" fill="white"/>
</g>
<defs>
<clipPath id="clip0_4956_56234">
<rect width="20.4" height="11.22" fill="white" transform="translate(1 5.88965)"/>
</clipPath>
</defs>
</svg>
