<svg width="23" height="23" viewBox="0 0 23 23" fill="none" xmlns="http://www.w3.org/2000/svg">
<g clip-path="url(#clip0_4393_55061)">
<path d="M6.56199 2.40194L5.66384 2.91998C5.66384 2.91998 5.66149 2.92312 5.66227 2.92547L5.77356 3.11748C5.77356 3.11748 5.77669 3.11983 5.77904 3.11905L6.44051 2.73738C6.45148 2.73111 6.46167 2.72797 6.46716 2.73032C6.47107 2.73111 6.47734 2.73581 6.48675 2.75227L6.87861 3.43254C6.87861 3.43254 6.88253 3.43568 6.88566 3.43411L7.11059 3.30401C7.11059 3.30401 7.11451 3.29931 7.11295 3.29696L6.60509 2.41605C6.59177 2.39254 6.57061 2.39802 6.56355 2.40194H6.56199Z" fill="#615F5F"/>
<path d="M7.48139 3.4933C7.48766 3.50427 7.74315 3.94708 7.74315 3.94708C7.74394 3.94864 7.74629 3.94943 7.74864 3.94864L7.97435 3.81854C7.97435 3.81854 7.9767 3.81541 7.97592 3.81384C7.97592 3.81384 7.41634 2.84437 7.41321 2.83732C7.41948 2.8334 7.64519 2.70409 7.64519 2.70409C7.64676 2.7033 7.64832 2.70017 7.64754 2.6986L7.53703 2.50659C7.53703 2.50659 7.53547 2.50502 7.5339 2.50502C7.5339 2.50502 7.53233 2.50502 7.53155 2.50502C7.53155 2.50502 7.30505 2.63512 7.29878 2.63904C7.29486 2.63277 6.92651 1.99325 6.92651 1.99325C6.92494 1.9909 6.92259 1.9909 6.92103 1.99168L6.69531 2.12178C6.69531 2.12178 6.69296 2.12491 6.69375 2.12726C6.69375 2.12726 7.36462 3.2911 7.36697 3.29502C7.36697 3.29502 6.74626 3.65318 6.73999 3.6571C6.73607 3.65083 6.42885 3.11789 6.42885 3.11789C6.42806 3.11633 6.42493 3.11554 6.42336 3.11711L6.19765 3.24721C6.19765 3.24721 6.1953 3.25113 6.19608 3.25269C6.19608 3.25269 6.5033 3.78484 6.50722 3.7919C6.50095 3.79582 6.1757 3.98313 6.1757 3.98313C6.17414 3.98391 6.17335 3.98705 6.17414 3.98861L6.28542 4.18063C6.28542 4.18063 6.28856 4.18298 6.29091 4.18219L7.48217 3.49487L7.48139 3.4933Z" fill="#615F5F"/>
<path d="M17.5482 2.81919C17.5482 2.81919 17.5475 2.81684 17.5459 2.81684L17.3335 2.68909C17.3335 2.68909 17.3288 2.68909 17.3272 2.69066C17.3272 2.69066 16.9847 3.26199 16.9808 3.26905L16.8593 3.19616C16.8633 3.18911 17.2065 2.61777 17.2065 2.61777C17.2065 2.61699 17.2065 2.6162 17.2065 2.61464C17.2065 2.61385 17.2058 2.61307 17.205 2.61228L16.9918 2.48454C16.9918 2.48454 16.9871 2.48454 16.9863 2.4861L16.2935 3.64053L15.7026 3.28629C15.6955 3.28159 15.6908 3.2761 15.6885 3.26748C15.6869 3.25886 15.6885 3.25024 15.6955 3.23848C15.6955 3.23848 16.1595 2.46494 16.1634 2.45789C16.1697 2.46181 16.618 2.73063 16.618 2.73063C16.6195 2.73141 16.6219 2.73063 16.6234 2.72906L16.7371 2.5394C16.7371 2.5394 16.7371 2.5347 16.7363 2.53391L16.0513 2.12402C16.0513 2.12402 16.0466 2.12402 16.0458 2.12481L15.4784 3.06998C15.4259 3.15776 15.4055 3.23456 15.4173 3.29804C15.4298 3.36231 15.4729 3.41717 15.5466 3.46106L15.8907 3.66718C15.9008 3.67345 16.056 3.76671 16.1736 3.83646L15.9048 4.28397C15.9048 4.28397 15.9048 4.28789 15.9063 4.28946L16.1187 4.41799C16.1187 4.41799 16.1211 4.41956 16.1219 4.41799C16.1226 4.41799 16.1234 4.4172 16.1242 4.41564C16.1242 4.41564 16.7363 3.39758 16.7402 3.39052C16.7465 3.39444 16.8554 3.45949 16.8617 3.46341C16.8578 3.46968 16.2457 4.48774 16.2457 4.48774C16.2449 4.48931 16.2457 4.49244 16.2473 4.49323L16.4596 4.62176C16.4596 4.62176 16.4612 4.62176 16.4628 4.62176C16.4636 4.62176 16.4651 4.62097 16.4651 4.62019L17.5451 2.81997C17.5451 2.81997 17.5459 2.8184 17.5459 2.81762L17.5482 2.81919Z" fill="#615F5F"/>
<path d="M20.7666 6.73991L20.0385 5.53298C20.0385 5.53298 20.0354 5.53063 20.033 5.53141L19.8442 5.64583C19.8442 5.64583 19.8418 5.64975 19.8426 5.65132L20.4265 6.62079C20.4312 6.62863 20.4351 6.63725 20.4343 6.64508C20.4327 6.65449 20.4233 6.66154 20.4139 6.66703L19.5064 7.21485C19.5064 7.21485 19.5032 7.21877 19.504 7.22112L19.642 7.4484C19.642 7.4484 19.6459 7.45154 19.6482 7.44997L20.7541 6.78302C20.7784 6.76264 20.7666 6.7407 20.7666 6.73991Z" fill="#615F5F"/>
<path d="M19.5678 7.70956C19.5678 7.70956 19.5678 7.70721 19.5678 7.70642C19.5678 7.70642 19.2167 7.1249 19.2128 7.11785C19.2191 7.11393 19.9143 6.69464 19.9143 6.69464C19.9166 6.69307 19.9174 6.69072 19.9158 6.68915L19.7842 6.47127C19.7842 6.47127 19.7802 6.46892 19.7787 6.46971C19.7787 6.46971 19.0835 6.889 19.0772 6.89292L18.984 6.73774C18.9902 6.73382 19.6854 6.31453 19.6854 6.31453C19.6878 6.31296 19.6878 6.31061 19.687 6.30904L19.5553 6.09117C19.5553 6.09117 19.5522 6.08882 19.5498 6.09038C19.5498 6.09038 18.8547 6.50968 18.8484 6.51359C18.8445 6.50732 18.6141 6.12487 18.6141 6.12487C18.6125 6.1233 18.6109 6.12252 18.6086 6.1233L18.4173 6.23851C18.4173 6.23851 18.415 6.24243 18.4166 6.24399L19.3703 7.82477C19.3703 7.82477 19.3743 7.8279 19.3766 7.82634L19.5678 7.71113C19.5678 7.71113 19.5694 7.70956 19.5694 7.70878L19.5678 7.70956Z" fill="#615F5F"/>
<path d="M14.9631 2.46036L13.2076 1.96191H13.2052C13.2044 1.96191 13.2037 1.96348 13.2029 1.96427L13.1441 2.17352C13.1441 2.17352 13.1441 2.17744 13.1472 2.17822C13.1472 2.17822 13.8737 2.38434 13.8816 2.38669L13.8502 2.4972C13.8424 2.49485 13.3055 2.34202 13.3055 2.34202C13.3032 2.34202 13.3008 2.3428 13.3001 2.34516L13.2428 2.54892C13.2428 2.54892 13.2428 2.55284 13.2452 2.55363C13.2452 2.55363 14.3338 2.86242 14.3408 2.86477C14.3385 2.87182 14.3126 2.9643 14.3103 2.97057C14.3032 2.96822 13.2146 2.66021 13.2146 2.66021C13.2139 2.66021 13.2123 2.66021 13.2115 2.66021C13.2115 2.66021 13.2099 2.66178 13.2099 2.66256L13.1229 2.96979C13.1057 3.03013 13.0924 3.09832 13.1276 3.14769C13.1488 3.17826 13.1833 3.19942 13.2366 3.21509L14.4255 3.55209C14.4255 3.55209 14.4294 3.55209 14.431 3.54896L14.4898 3.34049C14.4898 3.34049 14.4898 3.33579 14.4874 3.335L13.4051 3.02778C13.3996 3.02621 13.3949 3.02151 13.3965 3.01524C13.3965 3.01524 13.4192 2.93687 13.4208 2.92982C13.4286 2.93217 14.4694 3.22685 14.4694 3.22685C14.4874 3.23233 14.5015 3.23155 14.5125 3.22293C14.5227 3.21431 14.5297 3.20334 14.5336 3.19001L14.6551 2.7621C14.6598 2.74642 14.6551 2.72605 14.6363 2.72056C14.6363 2.72056 14.1449 2.58106 14.1379 2.57949L14.1692 2.4682C14.1763 2.47055 14.9028 2.67746 14.9028 2.67746C14.9036 2.67746 14.9051 2.67746 14.9059 2.67746C14.9067 2.67746 14.9075 2.67667 14.9083 2.6751L14.967 2.46742C14.967 2.46742 14.9663 2.46271 14.9639 2.46193L14.9631 2.46036Z" fill="#615F5F"/>
<path d="M14.9281 2.15096C14.8865 2.13763 14.8458 2.12117 14.8058 2.1008C14.5801 1.98951 14.3536 1.79358 14.4304 1.51614L14.4696 1.37663C14.4696 1.37663 14.4696 1.37193 14.4672 1.37193L14.1859 1.29199C14.1859 1.29199 14.182 1.29278 14.1804 1.29513L14.1412 1.43463C14.0613 1.7105 13.7642 1.75831 13.515 1.7348C13.4703 1.73088 13.4272 1.72304 13.3841 1.71285C13.3669 1.71129 13.3692 1.73088 13.3692 1.73088L13.4163 1.91114C13.4163 1.91114 13.4202 1.91741 13.4257 1.91897C13.5707 1.95973 13.7227 1.97462 13.8685 1.94875C13.95 1.93386 14.0299 1.90565 14.106 1.86568C14.1342 1.85 14.1647 1.83511 14.1898 1.81395C14.2 1.84452 14.218 1.8743 14.2345 1.90251C14.2768 1.97618 14.3309 2.0428 14.392 2.09766C14.5025 2.19641 14.6389 2.26381 14.7839 2.30535C14.7886 2.30692 14.7941 2.30378 14.7956 2.30378L14.9304 2.17525C14.9304 2.17525 14.9438 2.15958 14.9265 2.15174L14.9281 2.15096Z" fill="#615F5F"/>
<path d="M2.51891 8.72372C2.51813 8.90555 2.36844 9.05289 2.18504 9.05289C2.00165 9.05289 1.85196 8.90398 1.85353 8.72215C1.85353 8.53719 2.00322 8.38672 2.18661 8.38672C2.37079 8.38829 2.52048 8.53798 2.51969 8.72372H2.51891Z" fill="#615F5F"/>
<path d="M21.1548 8.73426C21.1548 8.92 21.0051 9.06734 20.821 9.06656C20.636 9.06656 20.4902 8.91843 20.4902 8.73347C20.4902 8.55008 20.6376 8.40039 20.8218 8.40039C21.0075 8.40039 21.1564 8.55087 21.1556 8.73426H21.1548Z" fill="#615F5F"/>
<path d="M19.6465 3.38257C17.4779 1.20695 14.5914 0.00549995 11.52 1.38684e-05C8.4478 -0.00468849 5.55742 1.18657 3.38258 3.35436C1.20696 5.52293 0.00550494 8.40782 1.88644e-05 11.4769C-0.00546722 14.5499 1.1858 17.4403 3.35437 19.6175C5.52215 21.7931 8.40783 22.9945 11.48 23.0008C14.5507 23.0063 17.4418 21.8142 19.6182 19.6457C21.7931 17.4771 22.9945 14.5914 23 11.5184V11.4957C23 8.43447 21.8095 5.55506 19.6472 3.38336L19.6465 3.38257ZM19.4051 19.4301C17.2851 21.5423 14.4715 22.7022 11.48 22.6967C8.49012 22.692 5.68046 21.5211 3.56832 19.4019C1.4554 17.2827 0.296267 14.4684 0.30097 11.4769C0.305672 8.48855 1.47577 5.67967 3.59575 3.5691C5.71416 1.45696 8.52852 0.297046 11.52 0.302532C14.5115 0.308018 17.3219 1.47812 19.4325 3.59653C21.5439 5.71416 22.7038 8.52773 22.6983 11.5169C22.6928 14.5083 21.5227 17.3188 19.4043 19.4301H19.4051Z" fill="#3B3B3B"/>
<path d="M13.8707 5.38281H9.08367C9.06957 5.38281 9.05859 5.39457 9.05859 5.40789V10.2208H10.3165L11.478 8.60706L12.6394 10.2208H13.8973V5.40789C13.8973 5.39457 13.8856 5.38281 13.8707 5.38281Z" fill="#BA000C"/>
<path d="M9.05864 10.2207H4.24578C4.23246 10.2207 4.2207 10.2317 4.2207 10.2466V13.4457H5.83361V15.0586H9.0367C9.05002 15.0586 9.05864 15.05 9.05864 15.0383V10.2215V10.2207Z" fill="#00387F"/>
<path d="M18.7344 13.4455H17.1215V11.8326H18.7344V10.2401C18.7344 10.2291 18.7258 10.2197 18.714 10.2197H13.8965V15.0342C13.8965 15.0475 13.9059 15.0569 13.9192 15.0569H18.7109C18.7242 15.0569 18.7336 15.0475 18.7336 15.0342V13.4448L18.7344 13.4455Z" fill="#ACADAE"/>
<path d="M5.48164 18.3322L5.48086 18.3314L5.45891 18.3087C5.45108 18.3008 5.44089 18.2914 5.4307 18.2836C5.41973 18.275 5.41032 18.2679 5.40092 18.2616L5.39308 18.2569C5.39308 18.2569 4.84447 18.8306 4.78726 18.891C4.81312 18.811 5.08508 17.9615 5.08508 17.9615L5.08273 17.9568C5.07646 17.9474 5.06783 17.9372 5.06078 17.9293C5.05373 17.9199 5.04589 17.9121 5.03649 17.9043C5.02943 17.8972 5.02081 17.8894 5.01062 17.8815L4.9926 17.8682L4.97535 17.8564L4.96908 17.8635L4.12109 18.7499L4.12658 18.7569C4.13207 18.7648 4.13755 18.7742 4.14617 18.7836L4.14931 18.7867L4.17204 18.8102L4.19555 18.8306L4.19868 18.8338C4.20887 18.8416 4.21828 18.8479 4.22768 18.8549L4.23552 18.8596C4.23552 18.8596 4.78177 18.2883 4.8382 18.2287C4.81312 18.3087 4.54431 19.1566 4.54431 19.1566L4.56468 19.1825L4.5686 19.188C4.57644 19.1974 4.58428 19.2052 4.5929 19.2131C4.60152 19.2225 4.61014 19.2295 4.61954 19.2358C4.62895 19.2436 4.63835 19.2507 4.64854 19.2562L4.65559 19.2601L5.50986 18.3667L5.48321 18.3329L5.48164 18.3322Z" fill="#615F5F"/>
<path d="M8.81387 20.2202L8.77704 20.2115C8.7645 20.2092 8.75196 20.2076 8.74099 20.2061H8.73237L8.73002 20.2139L8.37891 21.391L8.42044 21.4091L8.44552 21.4177L8.45728 21.4216L8.4902 21.4294L8.4949 21.431L8.50822 21.4326L8.54035 21.4365L8.54192 21.4271L8.89303 20.2507L8.85149 20.2327C8.84052 20.228 8.82798 20.2233 8.81466 20.2194L8.81387 20.2202Z" fill="#615F5F"/>
<path d="M5.97284 18.7418C5.96265 18.7308 5.95246 18.7198 5.94306 18.7112C5.93365 18.7026 5.92268 18.6924 5.91171 18.6838C5.89917 18.6736 5.88663 18.6649 5.87487 18.6571C5.86468 18.6493 5.85214 18.6422 5.8396 18.6359L5.83412 18.6328L5.82863 18.6367L4.80273 19.393L4.80979 19.4016C4.81684 19.4103 4.82468 19.4189 4.83565 19.4275C4.84506 19.4369 4.85446 19.4455 4.86543 19.4542C4.87562 19.4628 4.88659 19.4698 4.89678 19.4761C4.90854 19.4839 4.91951 19.4902 4.9297 19.4957L4.93597 19.4988C4.93597 19.4988 5.15149 19.3327 5.16403 19.3225C5.17657 19.3327 5.44382 19.5435 5.45636 19.5537C5.45009 19.5686 5.33802 19.817 5.33802 19.817L5.34272 19.8225C5.35056 19.8319 5.35996 19.8413 5.36937 19.8499L5.39837 19.875L5.43207 19.9001L5.46577 19.9197L5.47674 19.926L5.48144 19.915L5.97911 18.7465L5.9744 18.7418H5.97284ZM5.5269 19.3907C5.50809 19.3758 5.32234 19.2292 5.30354 19.2143C5.32313 19.1994 5.70951 18.9008 5.76593 18.857C5.73615 18.9228 5.5363 19.3679 5.5269 19.3899V19.3907Z" fill="#615F5F"/>
<path d="M7.66611 19.8096C7.6473 19.7963 7.62535 19.7838 7.60106 19.7712C7.57754 19.7595 7.55403 19.7501 7.53209 19.743L7.52347 19.7399L7.20998 20.3661C7.17784 20.4296 7.14885 20.4805 7.11985 20.5205C7.09163 20.5604 7.06342 20.591 7.03521 20.6098C7.00699 20.6294 6.97878 20.6396 6.95056 20.6396C6.92157 20.6404 6.89022 20.6325 6.85338 20.6153C6.81811 20.5973 6.79303 20.5761 6.77501 20.5534C6.75777 20.5291 6.74836 20.5009 6.74758 20.4672C6.74523 20.4343 6.75228 20.3943 6.76796 20.3457C6.78285 20.2995 6.80636 20.2446 6.83771 20.1811L7.1512 19.5549L7.14336 19.5502C7.12533 19.5369 7.10339 19.5244 7.08066 19.5126C7.0548 19.5001 7.03207 19.4907 7.01091 19.4836L7.00229 19.4805L6.99759 19.4891L6.67548 20.1349C6.63786 20.2101 6.61043 20.2775 6.59318 20.341C6.57594 20.4076 6.57046 20.4656 6.57673 20.5189C6.583 20.5714 6.60337 20.6208 6.63472 20.6647C6.66685 20.7078 6.71466 20.7446 6.77501 20.7752C6.83536 20.805 6.89335 20.8199 6.94664 20.8199C6.99994 20.8199 7.05245 20.8065 7.0979 20.7791C7.14414 20.7525 7.18803 20.7133 7.23035 20.6592C7.26954 20.609 7.30794 20.5471 7.34635 20.4703L7.67394 19.8167L7.66611 19.8112V19.8096Z" fill="#615F5F"/>
<path d="M8.51409 20.1407L8.48901 20.1266L8.48431 20.125C8.47412 20.1187 8.46315 20.114 8.45296 20.1101L8.44747 20.1077C8.43728 20.1046 8.42788 20.1007 8.41691 20.0976L8.37302 20.0881L8.36988 20.096C8.36988 20.096 8.09166 20.8311 8.06188 20.9087C8.05483 20.8249 7.97254 19.9361 7.97254 19.9361L7.96783 19.933C7.95764 19.9259 7.94667 19.9204 7.93727 19.9149C7.93648 19.9149 7.9263 19.9102 7.9263 19.9102L7.90592 19.9008L7.87222 19.8914C7.86203 19.8883 7.85027 19.8852 7.83773 19.8828H7.8299L7.82676 19.8899L7.39258 21.0372L7.39963 21.0419C7.40668 21.0466 7.41687 21.0537 7.42941 21.0592C7.44039 21.0639 7.45214 21.0694 7.4639 21.0733C7.47409 21.078 7.48506 21.0811 7.49916 21.0835C7.4976 21.0835 7.52895 21.0913 7.52895 21.0913L7.53992 21.0937C7.53992 21.0937 7.81971 20.3538 7.84949 20.277C7.85654 20.3601 7.94119 21.2465 7.94119 21.2465L7.97645 21.2661H7.9788C7.98821 21.2716 7.9984 21.2763 8.00859 21.2794C8.01799 21.2833 8.0274 21.2865 8.0415 21.2912L8.06972 21.2967L8.08461 21.2998L8.08774 21.292L8.52193 20.1438L8.51487 20.1391L8.51409 20.1407Z" fill="#615F5F"/>
<path d="M6.44867 19.0878C6.43848 19.0784 6.42986 19.0705 6.42124 19.0635C6.41027 19.0548 6.40086 19.047 6.38989 19.0407C6.37657 19.0313 6.36638 19.0259 6.35697 19.0204C6.34679 19.0149 6.3366 19.0102 6.32563 19.0063L6.31779 19.0039L6.31309 19.011L5.63281 20.0337L6.10383 20.348L6.1101 20.3409C6.12891 20.319 6.14302 20.2986 6.15634 20.2782C6.16339 20.2688 6.17045 20.2579 6.1775 20.2469C6.18456 20.2351 6.19082 20.2234 6.19631 20.2116L6.20023 20.2038C6.20023 20.2038 5.88439 19.9938 5.86793 19.982C5.87969 19.964 6.45651 19.0956 6.45651 19.0956L6.45024 19.0901L6.44867 19.0878Z" fill="#615F5F"/>
<path d="M4.19915 16.9246C4.19445 16.9129 4.18818 16.9011 4.18191 16.8909C4.17564 16.8799 4.16859 16.8698 4.16153 16.8596L4.14116 16.8337L4.1388 16.8298L4.11686 16.8078L4.1051 16.7969L4.09805 16.8024L3.10742 17.5265L3.10977 17.5336C3.11369 17.5438 3.11996 17.554 3.12702 17.5665L3.14896 17.5986C3.1568 17.6088 3.16463 17.6198 3.17247 17.6284C3.18031 17.637 3.18893 17.6457 3.19833 17.6543L3.2046 17.6605L4.20307 16.9317L4.19915 16.9246Z" fill="#615F5F"/>
<path d="M21.8761 12.4597C21.8761 12.404 21.8659 12.3523 21.8448 12.3053C21.8181 12.2473 21.7774 12.1963 21.7241 12.154C21.6708 12.1133 21.605 12.0796 21.5305 12.0553C21.4521 12.031 21.3675 12.0137 21.2789 12.0067C21.1888 11.9973 21.1026 11.9981 21.0226 12.0075C20.9443 12.0176 20.8745 12.038 20.8126 12.0686C20.7523 12.0999 20.7029 12.1415 20.6653 12.194C20.6276 12.2457 20.6049 12.3108 20.5979 12.386C20.5908 12.462 20.601 12.5302 20.6284 12.5874C20.6551 12.6454 20.6966 12.6964 20.7499 12.7379C20.8016 12.7794 20.8651 12.8116 20.9435 12.8374C21.0179 12.8625 21.1002 12.879 21.1951 12.8884C21.286 12.897 21.3698 12.8962 21.4513 12.886C21.5297 12.8758 21.6003 12.8547 21.6606 12.8241C21.7202 12.7943 21.7703 12.7512 21.8072 12.6995C21.844 12.6478 21.8659 12.5835 21.873 12.5075C21.8746 12.491 21.8753 12.4753 21.8753 12.4605L21.8761 12.4597ZM21.7037 12.491C21.6998 12.5365 21.6865 12.5741 21.6622 12.6054C21.6379 12.6368 21.605 12.6603 21.5626 12.6783C21.5203 12.6964 21.4694 12.7089 21.4106 12.7144C21.3526 12.7199 21.2868 12.7199 21.2115 12.7128C21.1394 12.7058 21.0744 12.6948 21.0172 12.6775C20.9568 12.6595 20.9098 12.6384 20.8745 12.6133C20.8361 12.5866 20.8095 12.5576 20.7914 12.5224C20.7734 12.4871 20.7672 12.4479 20.7711 12.4025C20.775 12.3578 20.7891 12.3202 20.8142 12.288C20.8377 12.2575 20.8698 12.2324 20.9121 12.2144C20.9537 12.1956 21.0038 12.1846 21.0634 12.1783C21.123 12.1728 21.1896 12.1736 21.2609 12.1807C21.3314 12.1861 21.3973 12.1979 21.4576 12.2151C21.514 12.2324 21.5603 12.2535 21.6003 12.2794C21.6371 12.3061 21.6653 12.3358 21.6833 12.3695C21.7014 12.4048 21.7076 12.444 21.7029 12.4902L21.7037 12.491Z" fill="#615F5F"/>
<path d="M1.18969 11.7382H1.19988C1.22966 11.7382 1.25395 11.7374 1.2759 11.7343H1.2853C1.2853 11.7343 1.28922 11.326 1.29001 11.3056C1.3096 11.3056 1.66541 11.3087 1.685 11.3087C1.685 11.3291 1.68265 11.641 1.68265 11.641H1.69127L1.72732 11.6465H1.72968L1.73438 11.6481H1.76965H1.79472H1.80726C1.82059 11.6465 1.83391 11.6457 1.84567 11.6442L1.85429 11.6426C1.85429 11.6426 1.85742 11.3307 1.85821 11.3103C1.8778 11.3103 2.16699 11.3127 2.18659 11.3134C2.18659 11.333 2.18267 11.7296 2.18267 11.7296L2.19129 11.7312C2.20148 11.7327 2.21323 11.7343 2.23048 11.7351L2.26966 11.7367C2.29631 11.7367 2.32217 11.7351 2.34568 11.7327H2.35509L2.35979 11.1489L1.11994 11.1387V11.1489L1.11523 11.7327H1.12386C1.13561 11.7359 1.14893 11.7374 1.16226 11.7374H1.19204L1.18969 11.7382Z" fill="#615F5F"/>
<path d="M2.40429 12.2689C2.39724 12.1936 2.37608 12.1286 2.33924 12.0753C2.30162 12.0228 2.25225 11.9797 2.19268 11.9483C2.13391 11.917 2.06415 11.8958 1.985 11.8849C1.90506 11.8731 1.81885 11.8708 1.72872 11.8786C1.63859 11.8864 1.55395 11.9021 1.47714 11.9264C1.40034 11.9507 1.3345 11.9836 1.282 12.0236C1.22792 12.0651 1.18716 12.1153 1.16052 12.1733C1.13309 12.2305 1.1229 12.2987 1.12838 12.3739C1.13544 12.4507 1.15582 12.5134 1.19265 12.5667C1.22949 12.6192 1.27651 12.66 1.33764 12.6937C1.39564 12.7242 1.46617 12.7454 1.54611 12.7571C1.62605 12.7681 1.71226 12.7697 1.80239 12.7618C1.89487 12.7532 1.97951 12.7376 2.05397 12.7148C2.13077 12.6913 2.1966 12.6584 2.24911 12.6176C2.30319 12.5769 2.34473 12.5267 2.37216 12.4695C2.40037 12.41 2.41056 12.3449 2.40507 12.2681L2.40429 12.2689ZM2.20993 12.4037C2.1919 12.4374 2.16369 12.468 2.12528 12.493C2.08688 12.5181 2.03907 12.5393 1.98265 12.5549C1.92543 12.5714 1.86117 12.5824 1.78671 12.5894C1.71304 12.5949 1.64643 12.5949 1.58922 12.5886C1.52965 12.5832 1.48028 12.5706 1.43796 12.551C1.39485 12.5322 1.36272 12.5079 1.33921 12.4766C1.3157 12.446 1.30237 12.4084 1.29845 12.3621C1.29453 12.3167 1.3008 12.2775 1.3204 12.2415C1.33842 12.2062 1.36585 12.1772 1.40504 12.1513C1.44344 12.1262 1.49047 12.1059 1.54846 12.0894C1.60567 12.0737 1.67151 12.062 1.74439 12.0565C1.81571 12.0502 1.88233 12.0502 1.94189 12.0565C1.99989 12.0628 2.05161 12.0753 2.09315 12.0941C2.13469 12.1129 2.16682 12.1372 2.19112 12.1686C2.21463 12.1999 2.22795 12.2375 2.23187 12.2846C2.23579 12.3292 2.22795 12.3692 2.21071 12.4037H2.20993Z" fill="#615F5F"/>
<path d="M3.84693 16.7607L3.85947 16.7545C3.86887 16.7505 3.87906 16.7458 3.88925 16.7388C3.89866 16.7341 3.90728 16.7294 3.91511 16.7247L3.92373 16.7192L3.93 16.7153L3.95587 16.6973L3.98408 16.6737L3.99114 16.6675L3.98565 16.6604L3.61416 16.082L3.60633 16.0852C3.59692 16.0891 3.58595 16.0946 3.57341 16.1016L3.54833 16.1157L3.53893 16.1204L3.50679 16.1439L3.48015 16.1643L3.46996 16.1737L3.47544 16.1816C3.47544 16.1816 3.60241 16.3798 3.61338 16.3963C3.59535 16.4081 2.7168 16.9723 2.7168 16.9723L2.72072 16.9802C2.73012 17.0021 2.74266 17.0249 2.75677 17.0468C2.76931 17.0664 2.78341 17.086 2.80144 17.1056L2.80693 17.1126C2.80693 17.1126 3.68705 16.5476 3.70429 16.5366C3.71526 16.5531 3.84771 16.7592 3.84771 16.7592L3.84693 16.7607Z" fill="#615F5F"/>
<path d="M1.6395 13.7632C1.7069 13.7632 1.78057 13.757 1.86051 13.7413L2.5784 13.6033V13.5939C2.57684 13.5696 2.5737 13.5438 2.569 13.5179C2.56508 13.4944 2.5596 13.4709 2.55097 13.445L2.54784 13.4364L1.85894 13.5689C1.79311 13.5814 1.73355 13.5892 1.68182 13.5908C1.63088 13.5924 1.59169 13.5877 1.55956 13.5767C1.52821 13.5665 1.50235 13.5501 1.48432 13.5265C1.46551 13.5022 1.45297 13.4717 1.44592 13.4325C1.43887 13.3925 1.43965 13.3588 1.44827 13.3306C1.45611 13.3024 1.47335 13.2773 1.49921 13.2546C1.52743 13.2319 1.56426 13.2131 1.60815 13.1966C1.65518 13.1801 1.71317 13.1652 1.78057 13.1519L2.46947 13.0195V13.0101C2.46947 12.9897 2.46633 12.9646 2.46163 12.9364C2.45771 12.9137 2.45144 12.8894 2.44282 12.8619L2.43968 12.8525L2.43106 12.8549L1.72101 12.9905C1.64264 13.0054 1.57288 13.025 1.50784 13.0524C1.4467 13.0767 1.39576 13.1088 1.35658 13.1472C1.31661 13.1856 1.28996 13.2319 1.27585 13.2844C1.26018 13.3377 1.26018 13.3988 1.27272 13.4662C1.28604 13.5344 1.3072 13.5892 1.34012 13.6339C1.37225 13.677 1.41379 13.7099 1.46473 13.7319C1.5141 13.753 1.57053 13.764 1.64028 13.764L1.6395 13.7632Z" fill="#615F5F"/>
<path d="M1.4895 10.9141C1.53652 10.9188 1.58119 10.9172 1.62038 10.9094C1.66035 10.9008 1.69405 10.8875 1.72226 10.8679C1.75126 10.8483 1.77791 10.8248 1.80063 10.7965C1.82258 10.7691 1.84452 10.7378 1.86725 10.6994L1.91114 10.6226C1.92368 10.603 1.93465 10.5842 1.94562 10.5701C1.95738 10.5544 1.9707 10.5403 1.98638 10.5285C2.00048 10.5168 2.01616 10.5089 2.03497 10.5027C2.05378 10.4964 2.07415 10.494 2.09453 10.4972C2.15018 10.5019 2.1878 10.5199 2.21209 10.552C2.2356 10.5842 2.24501 10.628 2.2403 10.686C2.23639 10.7291 2.22855 10.7652 2.21679 10.7973C2.20504 10.8287 2.1925 10.8569 2.17996 10.8812L2.17447 10.8914L2.18466 10.8961C2.22777 10.9165 2.274 10.9306 2.32495 10.9408L2.33278 10.9423L2.3367 10.9353C2.35394 10.9031 2.36805 10.8671 2.38059 10.8287C2.39313 10.7871 2.40175 10.7448 2.40567 10.6986C2.41508 10.5904 2.39235 10.5019 2.33827 10.436C2.28341 10.3702 2.20269 10.3326 2.09767 10.3232C2.05378 10.3193 2.01616 10.3208 1.98246 10.3279C1.94876 10.3349 1.91976 10.3459 1.8939 10.3608C1.86803 10.3757 1.84531 10.3945 1.82571 10.4164C1.80847 10.4353 1.7928 10.4588 1.77399 10.4893L1.72775 10.5669C1.71129 10.5936 1.69483 10.621 1.67681 10.6469C1.66113 10.6696 1.64467 10.6876 1.629 10.7009C1.61254 10.7143 1.59295 10.7244 1.57179 10.7299C1.54827 10.7362 1.52163 10.737 1.49341 10.7346C1.43072 10.7291 1.38448 10.7072 1.35313 10.668C1.32021 10.6288 1.30767 10.5732 1.31394 10.4972C1.31864 10.4478 1.32726 10.407 1.33902 10.3765C1.35156 10.3451 1.36567 10.3146 1.38369 10.2824L1.38918 10.2722L1.37821 10.2683C1.35469 10.2589 1.32962 10.2487 1.30375 10.2401C1.27319 10.2291 1.24889 10.2229 1.22616 10.2197H1.21833L1.21519 10.226L1.18776 10.2824C1.17992 10.2989 1.17209 10.3185 1.16582 10.3412C1.15955 10.3592 1.15406 10.3796 1.14936 10.4078C1.14466 10.4305 1.1423 10.4572 1.13917 10.4854V10.4878C1.1282 10.6116 1.15406 10.7127 1.21676 10.7871C1.27946 10.8624 1.37194 10.9055 1.4895 10.9157V10.9141Z" fill="#615F5F"/>
<path d="M21.9096 11.3089C21.9072 11.2862 21.9049 11.2611 21.8994 11.2329C21.8955 11.2102 21.8908 11.1835 21.8822 11.1584C21.8751 11.138 21.8673 11.1153 21.8555 11.0934L21.8524 11.0879H21.8461L21.2426 11.0895L21.2403 11.0996C21.2387 11.1098 21.2364 11.1208 21.2356 11.1326C21.2348 11.1451 21.2332 11.1576 21.2332 11.1694C21.2332 11.1812 21.234 11.1945 21.2356 11.2062C21.2364 11.218 21.2387 11.2313 21.2411 11.2431L21.2434 11.2509C21.2434 11.2509 21.7043 11.2501 21.7199 11.2501C21.7254 11.265 21.7285 11.2807 21.7317 11.2987C21.7356 11.3191 21.738 11.3426 21.738 11.3747V11.3794C21.738 11.4249 21.7293 11.4672 21.7121 11.5048C21.6941 11.544 21.6658 11.5785 21.629 11.6067C21.5898 11.6357 21.5412 11.6584 21.4864 11.6741C21.4292 11.6898 21.3625 11.6984 21.2818 11.6984C21.2058 11.6984 21.1368 11.6906 21.0773 11.6757C21.0177 11.6608 20.9683 11.6396 20.9284 11.6114C20.8884 11.5848 20.8578 11.5511 20.8375 11.5127C20.8163 11.4735 20.8061 11.4312 20.8061 11.3834C20.8061 11.3403 20.8092 11.3026 20.8171 11.2721C20.8241 11.2423 20.8335 11.2149 20.8437 11.189L20.8476 11.1788L20.8375 11.1749C20.8132 11.1663 20.7904 11.1592 20.7685 11.1537H20.7661C20.7473 11.149 20.7207 11.1435 20.6909 11.142H20.6838L20.6807 11.1482C20.665 11.1812 20.6533 11.2172 20.6454 11.2556C20.6368 11.2964 20.6321 11.3442 20.6329 11.3959C20.6329 11.4672 20.6494 11.5323 20.6799 11.5903C20.7097 11.649 20.7536 11.6992 20.8108 11.7415C20.8664 11.7838 20.9362 11.816 21.0161 11.8379C21.0937 11.8606 21.1807 11.8708 21.2826 11.8708C21.3845 11.8708 21.4684 11.8599 21.5459 11.8371C21.6243 11.8152 21.6909 11.7823 21.7458 11.7407C21.8006 11.6984 21.843 11.6475 21.8712 11.5863C21.8994 11.5268 21.9143 11.4578 21.9143 11.3818C21.9143 11.3575 21.9127 11.3316 21.9104 11.3097L21.9096 11.3089Z" fill="#615F5F"/>
<path d="M2.69609 13.9743V13.9649C2.69531 13.954 2.69295 13.9414 2.6906 13.9297C2.68904 13.9156 2.6859 13.903 2.68198 13.8913C2.67885 13.8787 2.67493 13.867 2.67101 13.8544L2.66866 13.8482L2.6522 13.8145L2.64436 13.8176L1.46094 14.1499L1.61376 14.6946L1.62317 14.693C1.64982 14.6883 1.67489 14.6828 1.69919 14.6758L1.71016 14.6726L1.73603 14.664C1.74778 14.6609 1.75954 14.6562 1.77286 14.6507L1.7807 14.6476C1.7807 14.6476 1.67803 14.2816 1.67254 14.262C1.69292 14.2565 2.69766 13.9751 2.69766 13.9751L2.69609 13.9743Z" fill="#615F5F"/>
<path d="M3.4776 15.7898L3.46192 15.7561L3.45957 15.7514L3.43606 15.713C3.42744 15.6989 3.4196 15.6879 3.41177 15.6785L3.40785 15.6738L3.40158 15.6754L2.16016 15.963L2.16251 15.9732C2.16486 15.9842 2.16956 15.9952 2.17505 16.0077C2.17975 16.0187 2.18602 16.0312 2.19307 16.0437C2.19856 16.0532 2.20404 16.0657 2.21188 16.0767L2.23304 16.1057L2.23853 16.1127C2.23853 16.1127 2.50264 16.0453 2.51754 16.0414C2.52459 16.0547 2.68682 16.3557 2.69466 16.369C2.6829 16.38 2.48227 16.5641 2.48227 16.5641L2.48384 16.5704C2.48697 16.5822 2.49089 16.5939 2.49716 16.6065C2.50108 16.6166 2.50656 16.6284 2.51283 16.6402C2.51989 16.6543 2.52694 16.666 2.53478 16.677C2.5434 16.6903 2.55202 16.7021 2.55751 16.7091L2.56456 16.7178L3.49327 15.8345L3.47525 15.789L3.4776 15.7898ZM2.82632 16.2491C2.81535 16.2279 2.70249 16.0195 2.69074 15.9983C2.71425 15.9928 3.18684 15.8721 3.25737 15.8541C3.2033 15.9027 2.84357 16.2326 2.82554 16.2499L2.82632 16.2491Z" fill="#615F5F"/>
<path d="M3.20528 15.3078C3.2045 15.2976 3.20136 15.2866 3.19744 15.2733C3.19352 15.26 3.18961 15.2498 3.18569 15.2412C3.18177 15.2302 3.17628 15.2192 3.16923 15.2067C3.16374 15.1949 3.15591 15.184 3.14885 15.1746L3.14415 15.1683C3.14415 15.1683 2.41293 15.4747 2.33534 15.5076C2.39099 15.4442 2.98035 14.7733 2.98035 14.7733V14.7678C2.978 14.7568 2.97486 14.7459 2.97095 14.7341L2.95841 14.702L2.95606 14.6965C2.95214 14.6887 2.949 14.6792 2.94352 14.6706C2.93803 14.6604 2.93176 14.6502 2.92471 14.6408L2.92 14.6338L2.91217 14.6369L1.78125 15.1111V15.1197C1.7836 15.1291 1.78595 15.1393 1.78909 15.1495V15.1526C1.79301 15.1636 1.79771 15.1738 1.80398 15.1887C1.80711 15.1973 1.8126 15.209 1.81965 15.22L1.83689 15.2498L1.8416 15.2576L1.85022 15.2537C1.85022 15.2537 2.57125 14.9512 2.64727 14.9191C2.59241 14.9825 2.00853 15.6534 2.00853 15.6534V15.6581C2.01088 15.6691 2.01402 15.6801 2.01715 15.6926L2.02891 15.7255V15.7271L2.04301 15.7569C2.0485 15.7678 2.05477 15.7765 2.06182 15.7867L2.06653 15.7937L3.20528 15.3156V15.3078Z" fill="#615F5F"/>
<path d="M4.69288 17.5774C4.68113 17.5132 4.65056 17.452 4.60197 17.3948C4.5526 17.3368 4.49774 17.2976 4.43661 17.2757C4.37626 17.2553 4.31121 17.249 4.24459 17.2577C4.17563 17.2679 4.10587 17.2922 4.03769 17.3282C3.96794 17.3643 3.89897 17.4113 3.82608 17.4732C3.75398 17.5343 3.69677 17.5947 3.64975 17.6589C3.60194 17.7224 3.56745 17.7875 3.54786 17.8509C3.52827 17.9144 3.52435 17.9795 3.53532 18.043C3.54708 18.1049 3.57843 18.1668 3.62702 18.2256C3.67561 18.2828 3.73125 18.3228 3.7916 18.3447C3.85195 18.3666 3.91465 18.3729 3.98361 18.3635C4.04945 18.3541 4.1192 18.3306 4.18973 18.293C4.26027 18.2561 4.33159 18.2075 4.39977 18.148C4.47109 18.0876 4.53065 18.0249 4.57689 17.9622C4.62627 17.8972 4.66075 17.8329 4.68035 17.7702C4.69994 17.7052 4.70386 17.6401 4.69288 17.5766V17.5774ZM4.50557 17.7397C4.48912 17.7828 4.46247 17.8282 4.42485 17.8737C4.3888 17.9191 4.34334 17.9654 4.28613 18.0147C4.22814 18.0633 4.17484 18.101 4.1239 18.13C4.07296 18.1582 4.02437 18.177 3.97891 18.1872C3.93424 18.1958 3.89427 18.1958 3.85508 18.184C3.81825 18.1723 3.78455 18.1495 3.75555 18.1151C3.72577 18.0798 3.70931 18.0437 3.70304 18.0046C3.70226 17.9952 3.70069 17.985 3.70069 17.9748C3.70069 17.945 3.70696 17.9144 3.71871 17.8815C3.73596 17.8376 3.76182 17.7937 3.79865 17.7483C3.83471 17.7036 3.88016 17.6574 3.93816 17.6072C3.9938 17.5602 4.04788 17.5218 4.0996 17.4928C4.14976 17.4638 4.19835 17.4442 4.24459 17.4348C4.29005 17.4262 4.33002 17.4277 4.36764 17.4387C4.40447 17.4497 4.43817 17.4732 4.46717 17.5077C4.49695 17.5422 4.51498 17.5798 4.51968 17.6182C4.52595 17.6566 4.51968 17.6966 4.50401 17.7397H4.50557Z" fill="#615F5F"/>
<path d="M21.573 14.0554C21.5612 13.9943 21.5338 13.9355 21.4907 13.8814C21.4468 13.8297 21.392 13.7835 21.3222 13.7419C21.2572 13.7027 21.1804 13.6683 21.0879 13.6385C21.0017 13.6095 20.9178 13.5907 20.8379 13.5828C20.7579 13.575 20.6843 13.5797 20.62 13.5954C20.5549 13.6118 20.4969 13.6416 20.4484 13.6847C20.4005 13.7278 20.3637 13.7858 20.3402 13.8571C20.3175 13.93 20.312 13.9982 20.3261 14.0601C20.3394 14.1236 20.3668 14.1808 20.4107 14.2341C20.4531 14.2866 20.5087 14.3321 20.5785 14.3744C20.6451 14.4144 20.7234 14.4496 20.812 14.4794C20.9037 14.5092 20.9852 14.5264 21.0628 14.5327C21.1443 14.5405 21.2156 14.5366 21.2807 14.5194C21.3449 14.5037 21.4029 14.4731 21.4507 14.43C21.4985 14.3861 21.5346 14.3297 21.5581 14.2568C21.5714 14.2153 21.5801 14.1753 21.5816 14.1369C21.5824 14.1079 21.5808 14.0805 21.5746 14.0546L21.573 14.0554ZM21.3959 14.2051C21.381 14.2482 21.359 14.2819 21.3285 14.3062C21.2987 14.3313 21.2619 14.3477 21.2156 14.3564C21.1694 14.365 21.1169 14.365 21.0589 14.3579C20.9985 14.3501 20.9335 14.3344 20.8653 14.3117C20.7963 14.2897 20.7352 14.2631 20.6835 14.2349C20.6294 14.2043 20.5886 14.1738 20.5596 14.1408C20.5283 14.1079 20.5079 14.0734 20.4977 14.0343C20.4883 13.9958 20.4899 13.9559 20.5048 13.9128C20.5189 13.8697 20.5416 13.8352 20.5706 13.8109C20.602 13.7858 20.6396 13.7686 20.6827 13.7615C20.7289 13.7529 20.7814 13.7521 20.8394 13.7592C20.8982 13.767 20.9609 13.7819 21.0314 13.8046C21.1012 13.8281 21.1631 13.854 21.2133 13.8822C21.265 13.9104 21.3073 13.9426 21.3387 13.9755C21.37 14.01 21.392 14.046 21.3998 14.0828C21.4045 14.1001 21.4061 14.1189 21.4053 14.1385C21.4053 14.1596 21.4006 14.1816 21.3935 14.2043L21.3959 14.2051Z" fill="#615F5F"/>
<path d="M18.5997 18.8901C18.5997 18.8901 18.4861 18.8728 18.4728 18.8705C18.4626 18.7498 18.4069 18.6134 18.2988 18.4426L18.2917 18.4324L18.1797 18.5303L18.1851 18.5382C18.2643 18.6573 18.3121 18.7592 18.3317 18.847C18.2392 18.8313 18.0997 18.8046 17.9422 18.7741C17.9673 18.702 17.9806 18.6393 17.9806 18.5828C17.9806 18.5037 17.9555 18.4379 17.9038 18.3799C17.8521 18.3211 17.7886 18.2874 17.7212 18.2827C17.6593 18.2788 17.5966 18.3007 17.5456 18.3454C17.4782 18.4049 17.4492 18.4778 17.4492 18.5491C17.4492 18.6259 17.4806 18.7012 17.5323 18.7592C17.5848 18.8187 17.6647 18.8634 17.7635 18.8877C17.7486 18.9387 17.7408 18.9865 17.7408 19.0327C17.7408 19.1291 17.7737 19.2153 17.8395 19.289C17.9006 19.3587 17.9806 19.4018 18.0652 19.4105C18.1569 19.4206 18.2455 19.3901 18.3215 19.3235C18.4124 19.2435 18.461 19.144 18.4696 19.0209C18.4853 19.0225 18.537 19.0296 18.537 19.0296L18.6138 19.0398L18.6178 19.0366L18.7588 18.9128L18.6005 18.8893L18.5997 18.8901ZM17.8207 18.7521C17.7447 18.7325 17.6836 18.7067 17.6342 18.6518C17.6005 18.6134 17.5817 18.5695 17.5817 18.5311C17.5817 18.528 17.5817 18.5256 17.5817 18.5225C17.584 18.4935 17.5966 18.4692 17.6193 18.4488C17.6193 18.4488 17.6193 18.448 17.6201 18.4473C17.6781 18.3955 17.7517 18.4269 17.7988 18.4802C17.8317 18.5178 17.8442 18.5593 17.8442 18.6087C17.8442 18.6502 17.8348 18.698 17.8191 18.7521H17.8207ZM18.2478 19.2043L18.2471 19.2051C18.1569 19.2835 18.0284 19.2686 17.9414 19.1691C17.8983 19.1197 17.8763 19.0617 17.8763 18.9951C17.8763 18.97 17.8803 18.9441 17.8858 18.9167C18.0535 18.9488 18.2314 18.9794 18.338 18.9959C18.338 18.9966 18.338 18.9974 18.338 18.9982C18.338 19.0507 18.3239 19.1369 18.2478 19.2043Z" fill="#615F5F"/>
<path d="M17.6963 19.7966L17.6743 19.7637C17.6586 19.7402 17.6438 19.7206 17.6281 19.7034L17.6218 19.6963C17.6218 19.6963 17.2848 19.9252 17.2676 19.9361C17.2566 19.9205 17.0567 19.6258 17.0458 19.6093C17.0622 19.5976 17.3201 19.4236 17.3201 19.4236L17.3162 19.415C17.3115 19.404 17.3052 19.393 17.2981 19.3805C17.2919 19.3695 17.2856 19.3585 17.2778 19.3476L17.2738 19.3421L17.2542 19.3154L17.2378 19.2958L17.2237 19.2802L17.2166 19.2857C17.2166 19.2857 16.9658 19.4557 16.9494 19.4667C16.9384 19.451 16.7762 19.2112 16.7652 19.1955C16.7817 19.1846 17.1093 18.962 17.1093 18.962L17.1053 18.9534C17.0998 18.9432 17.0944 18.933 17.0865 18.9197C17.0779 18.9063 17.0709 18.8961 17.0646 18.8867C17.0505 18.8648 17.0356 18.8452 17.0183 18.8264L17.0121 18.8193L17.005 18.8248L16.5293 19.1469L17.226 20.1728L17.7174 19.8382L17.7135 19.8303C17.708 19.817 17.701 19.806 17.6947 19.7959L17.6963 19.7966Z" fill="#615F5F"/>
<path d="M18.6199 17.5213L18.6144 17.5142C18.6073 17.5056 18.5987 17.497 18.5893 17.4868V17.4852L18.5595 17.457L18.5305 17.4319C18.5188 17.4225 18.5086 17.4155 18.4992 17.41L18.4913 17.4053L18.4858 17.4115L18.0195 17.917L18.0501 17.9531L18.0564 17.9594L18.0783 17.9805C18.0869 17.9891 18.0971 17.997 18.1081 18.0056C18.1175 18.0127 18.1285 18.0213 18.1394 18.0283L18.1473 18.033C18.1473 18.033 18.3126 17.8536 18.326 17.8395C18.3416 17.8536 19.1097 18.5628 19.1097 18.5628L19.1167 18.5574C19.1348 18.5425 19.1536 18.5252 19.1724 18.5056C19.1888 18.4868 19.2037 18.4688 19.2178 18.4476L19.2233 18.4398C19.2233 18.4398 18.4561 17.7305 18.4404 17.7164C18.4545 17.7023 18.6199 17.5213 18.6199 17.5213Z" fill="#615F5F"/>
<path d="M21.7301 12.9739L21.694 12.9668C21.6784 12.9652 21.665 12.9637 21.6541 12.9629H21.6447L21.6431 12.9715C21.6431 12.9715 21.5749 13.3359 21.571 13.3563C21.5506 13.3524 20.5247 13.1612 20.5247 13.1612L20.5216 13.1698C20.5177 13.1808 20.5137 13.1933 20.5098 13.2043C20.5067 13.2168 20.5035 13.2294 20.5012 13.2419L20.4965 13.274V13.2795L20.4957 13.2811L20.4941 13.3242L20.5028 13.3258L21.7113 13.5515L21.8147 12.995L21.8061 12.9927C21.7834 12.9856 21.7583 12.9786 21.7301 12.9746V12.9739Z" fill="#615F5F"/>
<path d="M19.9041 17.5265L19.8743 17.5014C19.8508 17.4826 19.8305 17.4685 19.8116 17.4575L19.8038 17.4528C19.8038 17.4528 19.5522 17.7718 19.5397 17.7875C19.524 17.7757 19.245 17.5555 19.2293 17.5438C19.2419 17.5273 19.4347 17.2836 19.4347 17.2836L19.4292 17.2765C19.4221 17.2694 19.4151 17.2624 19.4072 17.2553L19.401 17.2499L19.3712 17.2232C19.3626 17.2162 19.3524 17.2091 19.3398 17.2013C19.3297 17.1942 19.3179 17.1864 19.3069 17.1817L19.2999 17.1785C19.2999 17.1785 19.1063 17.4223 19.0938 17.438C19.0781 17.4254 18.8524 17.2467 18.8375 17.235C18.85 17.2193 19.0938 16.9089 19.0938 16.9089L19.0883 16.9019C19.0812 16.8933 19.0726 16.8846 19.0601 16.8745L19.0303 16.8502C19.0052 16.8306 18.9856 16.8172 18.9676 16.8055L18.959 16.8008L18.9535 16.8078L18.5977 17.2585L19.571 18.0265L19.9386 17.5602L19.9331 17.5532C19.9253 17.5438 19.9151 17.5351 19.9049 17.5265H19.9041Z" fill="#615F5F"/>
<path d="M16.8847 20.1648L16.8753 20.1577L16.869 20.1671C16.851 20.1938 16.8314 20.2181 16.8071 20.2392C16.7844 20.2612 16.7569 20.2808 16.7209 20.3011C16.6762 20.3254 16.6331 20.3395 16.59 20.3419C16.5469 20.3458 16.503 20.338 16.4591 20.3199C16.416 20.3011 16.3729 20.2698 16.3329 20.2275C16.2898 20.1851 16.2491 20.1279 16.2115 20.0597C16.1441 19.9406 16.1096 19.8332 16.1096 19.74C16.1096 19.729 16.1096 19.7188 16.1104 19.7086C16.1198 19.6107 16.1668 19.5386 16.2546 19.4892C16.2765 19.4774 16.2938 19.468 16.3102 19.461C16.3251 19.4539 16.3392 19.4492 16.3565 19.4437C16.3713 19.439 16.3878 19.4367 16.3988 19.4335L16.4082 19.432L16.4529 19.4241L16.4513 19.414L16.4356 19.3411C16.4301 19.3183 16.4215 19.2948 16.4097 19.2697L16.4066 19.2627H16.398C16.3612 19.269 16.3259 19.2768 16.2898 19.2878C16.2506 19.2995 16.2068 19.3183 16.1597 19.3442C16.0947 19.3803 16.0437 19.4265 16.0053 19.4837C15.9677 19.5394 15.9442 19.6028 15.9356 19.6726C15.927 19.7416 15.9325 19.8176 15.952 19.8975C15.9716 19.9775 16.0053 20.0613 16.0532 20.146C16.1017 20.2314 16.1543 20.3027 16.2099 20.3583C16.2695 20.4179 16.3282 20.4594 16.3917 20.4861C16.456 20.5127 16.5218 20.5253 16.5877 20.5206C16.6558 20.5167 16.7232 20.4963 16.7883 20.4594C16.833 20.4344 16.8698 20.4085 16.9019 20.3803C16.9356 20.3497 16.9646 20.3168 16.9889 20.28L16.9936 20.2737L16.9889 20.2682C16.9599 20.2298 16.9247 20.1945 16.8831 20.1624L16.8847 20.1648Z" fill="#615F5F"/>
<path d="M20.197 14.4291L20.179 14.4573L20.1782 14.4589L20.1641 14.4879C20.1594 14.4981 20.1547 14.5106 20.1515 14.5232C20.1468 14.5365 20.1437 14.5483 20.1414 14.5592L20.1398 14.5679C20.1398 14.5679 20.8694 14.8821 20.9455 14.915C20.8616 14.919 19.9705 14.9613 19.9705 14.9613L19.9674 14.9644C19.9611 14.973 19.9548 14.9824 19.9493 14.9942C19.9423 15.0067 19.9368 15.0161 19.9337 15.0255L19.9211 15.0577L19.9133 15.0851L19.9102 15.1L19.918 15.1039L21.0458 15.589L21.0583 15.5702L21.0693 15.553L21.0748 15.5405L21.085 15.5193C21.0904 15.5083 21.0936 15.4974 21.0975 15.4856C21.1014 15.4746 21.1046 15.4644 21.1069 15.4511L21.1085 15.4425C21.1085 15.4425 20.3827 15.1306 20.3059 15.0977C20.3898 15.0929 21.2785 15.0483 21.2785 15.0483L21.2817 15.0444C21.2879 15.035 21.2942 15.0255 21.3005 15.0138C21.3068 15.0044 21.3107 14.9942 21.3162 14.9824L21.3193 14.9738L21.3279 14.9503C21.3318 14.9378 21.3358 14.926 21.3373 14.915V14.9064L20.2033 14.4189L20.1986 14.426L20.197 14.4291Z" fill="#615F5F"/>
<path d="M19.8265 15.3053C19.8187 15.3147 19.8116 15.3241 19.8053 15.3343V15.3359L19.792 15.3554L19.7842 15.3696L19.7677 15.404C19.7622 15.4166 19.7583 15.4276 19.7552 15.437L19.7528 15.4456C19.7528 15.4456 20.1737 15.6744 20.1925 15.6846C20.1823 15.7019 20.0028 16.0318 19.9934 16.049C19.9754 16.0389 19.5545 15.81 19.5545 15.81L19.5491 15.8171C19.5428 15.8241 19.5342 15.8351 19.5271 15.8476L19.5075 15.8798L19.5067 15.8813C19.5013 15.8923 19.495 15.9033 19.4911 15.9142L19.4777 15.9487L19.4746 15.9574L19.4832 15.9613L20.5609 16.5483L20.5663 16.5412C20.5734 16.5326 20.5804 16.5232 20.5883 16.5122L20.6087 16.4793L20.6259 16.4448L20.6298 16.4331L20.6408 16.4017L20.6322 16.3978C20.6322 16.3978 20.1643 16.1431 20.1455 16.1329C20.1557 16.1157 20.3344 15.7865 20.3445 15.7693C20.3626 15.7794 20.8383 16.0373 20.8383 16.0373L20.8438 16.031C20.8508 16.0232 20.8571 16.0146 20.8657 16.0012L20.8845 15.9707L20.8861 15.9683C20.8924 15.9558 20.8986 15.9432 20.9033 15.9323L20.9143 15.9017L20.9182 15.8915L19.832 15.2998L19.8265 15.3069V15.3053Z" fill="#615F5F"/>
<path d="M20.2576 16.6943L20.2466 16.6927V16.7037C20.2427 16.7382 20.2372 16.7687 20.2286 16.7977C20.2184 16.8314 20.2035 16.8643 20.1847 16.8957C20.1604 16.938 20.129 16.9717 20.093 16.9968C20.0554 17.0227 20.0154 17.0375 19.9692 17.0422C19.9221 17.0493 19.8712 17.0438 19.8132 17.0281C19.7568 17.0132 19.6949 16.9858 19.6235 16.9451C19.4903 16.8667 19.4017 16.7813 19.361 16.6919C19.3437 16.6559 19.3343 16.6198 19.3328 16.5846C19.3304 16.5328 19.3437 16.4811 19.3743 16.4294L19.379 16.4215C19.3892 16.4051 19.3986 16.3902 19.408 16.3784C19.4198 16.3612 19.43 16.3486 19.4394 16.3385C19.4503 16.3275 19.4605 16.3173 19.4707 16.3087L19.4927 16.2907L19.5138 16.2742L19.5068 16.2664C19.4887 16.2452 19.4723 16.2272 19.4566 16.2115C19.4425 16.1958 19.4237 16.1801 19.3994 16.1629L19.3931 16.1582L19.3869 16.1637C19.3618 16.1833 19.3336 16.2084 19.3046 16.2381C19.2756 16.2695 19.2473 16.3079 19.2207 16.3534C19.1831 16.4168 19.1619 16.4827 19.1572 16.5516C19.1525 16.619 19.1651 16.6857 19.1925 16.7499C19.2191 16.8142 19.2615 16.8753 19.3202 16.9357C19.3767 16.996 19.4488 17.0509 19.5326 17.1002C19.6173 17.1504 19.6964 17.1849 19.7756 17.2045C19.854 17.2256 19.9276 17.2311 19.9966 17.2233C20.0648 17.2147 20.1275 17.1919 20.1831 17.1543C20.2403 17.1175 20.2866 17.0665 20.325 17.0007C20.3493 16.9607 20.3681 16.9184 20.3837 16.8753C20.3971 16.8346 20.4049 16.7922 20.408 16.7452V16.7374L20.4018 16.7342C20.3602 16.7162 20.3116 16.7029 20.2576 16.6958V16.6943Z" fill="#615F5F"/>
<path d="M14.0083 20.2859H13.9997L13.9723 20.2906L13.9629 20.2922C13.9495 20.2946 13.937 20.2969 13.926 20.3C13.9127 20.3032 13.9009 20.3071 13.8892 20.311C13.8782 20.3149 13.8672 20.3196 13.8555 20.3251L13.8477 20.329L14.1651 21.5242H14.1737C14.1854 21.5227 14.1972 21.5219 14.2097 21.5195L14.2207 21.5172L14.2481 21.5101C14.2615 21.507 14.274 21.5038 14.285 21.4991L14.2983 21.4937L14.3265 21.4819L14.3242 21.4725L14.0083 20.2852V20.2859Z" fill="#615F5F"/>
<path d="M11.0702 21.0238C11.06 20.9455 11.0396 20.8757 11.0082 20.8154C10.9769 20.7542 10.9346 20.7049 10.8828 20.668C10.8311 20.6312 10.7669 20.6077 10.6908 20.6014C10.6156 20.5951 10.5482 20.6053 10.4902 20.632C10.4314 20.6594 10.3813 20.7002 10.3397 20.7534C10.299 20.8067 10.2661 20.8726 10.2402 20.9478C10.2151 21.023 10.1994 21.1053 10.1908 21.1986C10.183 21.2895 10.1838 21.3757 10.194 21.4549C10.2041 21.5348 10.2253 21.6046 10.2567 21.6641C10.2864 21.7237 10.3288 21.7731 10.382 21.8107C10.4346 21.8467 10.4996 21.8695 10.5748 21.8765C10.6493 21.8828 10.7167 21.8734 10.7763 21.8475C10.8335 21.8209 10.8836 21.7801 10.926 21.726C10.9675 21.6728 10.9996 21.6069 11.0239 21.5309C11.0482 21.4557 11.0655 21.371 11.0733 21.2793C11.0819 21.1868 11.0803 21.1006 11.0709 21.0238H11.0702ZM10.8993 21.2644C10.8915 21.342 10.8797 21.4055 10.864 21.4611C10.8476 21.5168 10.8256 21.5646 10.8006 21.603C10.7755 21.6406 10.7449 21.6681 10.7104 21.6876C10.6744 21.7057 10.6352 21.7119 10.5905 21.7072C10.5451 21.7033 10.5059 21.69 10.4761 21.6657C10.4455 21.6422 10.4212 21.6093 10.4024 21.567C10.3844 21.527 10.3726 21.4768 10.3648 21.4149C10.3593 21.3561 10.3593 21.2895 10.3664 21.2166C10.3734 21.1445 10.3852 21.0795 10.4016 21.0223C10.4181 20.965 10.4393 20.9172 10.4643 20.8804C10.4902 20.842 10.5208 20.8138 10.5553 20.7973C10.5897 20.7785 10.6289 20.7715 10.6752 20.7754C10.7214 20.7801 10.759 20.7942 10.7896 20.8185C10.8209 20.842 10.8452 20.8734 10.864 20.9165C10.8821 20.9603 10.8954 21.0113 10.9009 21.0677C10.9064 21.1257 10.9056 21.1923 10.8993 21.2652V21.2644Z" fill="#615F5F"/>
<path d="M9.81462 20.4826L9.80835 20.481L9.77543 20.4724C9.75192 20.4669 9.72762 20.463 9.69706 20.4606H9.68922C9.68922 20.4606 9.25974 21.318 9.22369 21.3893C9.22212 21.3102 9.20096 20.3509 9.20096 20.3509L9.19469 20.3478C9.18136 20.3423 9.16882 20.3376 9.15472 20.3337L9.11475 20.3227L9.08418 20.3172L9.07243 20.3156C9.05597 20.3133 9.04343 20.3125 9.03246 20.3125H9.02148L9.07791 21.5931L9.11005 21.6041L9.12415 21.6088L9.15472 21.6174L9.16569 21.6198L9.20879 21.6276C9.2229 21.6299 9.23623 21.6315 9.25112 21.6323H9.25817L9.86007 20.5014L9.84988 20.4967C9.83813 20.4912 9.82559 20.4873 9.81305 20.4834L9.81462 20.4826Z" fill="#615F5F"/>
<path d="M11.8393 20.6974L11.8346 20.6582H11.8252H11.2789V20.6692L11.2773 21.8965L11.286 21.8981C11.2954 21.8996 11.3063 21.9012 11.322 21.9028C11.3353 21.9043 11.3479 21.9043 11.3604 21.9043C11.3722 21.9043 11.3839 21.9043 11.3996 21.9028L11.4349 21.8981L11.4435 21.8965V21.8871C11.4435 21.8871 11.4435 21.3612 11.4435 21.3408H11.7695L11.7734 21.293L11.775 21.2538V21.2256L11.7742 21.2146L11.7703 21.1786L11.7687 21.1661C11.7687 21.1661 11.4639 21.1661 11.4435 21.1661C11.4435 21.1465 11.4435 20.8502 11.4435 20.8306C11.4639 20.8306 11.8322 20.8314 11.8322 20.8314L11.8377 20.7836C11.8393 20.7679 11.8393 20.7554 11.8393 20.7436C11.8393 20.7303 11.8393 20.7178 11.8377 20.7037V20.6958L11.8393 20.6974Z" fill="#615F5F"/>
<path d="M12.9119 21.2857C12.8978 21.2504 12.8775 21.2199 12.8516 21.194C12.8273 21.1682 12.7983 21.147 12.767 21.1298C12.7348 21.1125 12.698 21.0976 12.6588 21.0843L12.5757 21.0553C12.553 21.0482 12.5342 21.0404 12.5162 21.0318C12.4981 21.0232 12.4825 21.013 12.4676 21.0004C12.4542 20.9887 12.4425 20.9738 12.4323 20.9573C12.4237 20.9417 12.4182 20.9236 12.4151 20.9001C12.4088 20.846 12.4198 20.8037 12.4472 20.7739C12.4731 20.7442 12.5154 20.7261 12.5726 20.7199C12.6133 20.7144 12.651 20.7152 12.6854 20.7207C12.7199 20.7261 12.7505 20.7332 12.7764 20.7402L12.7873 20.7442L12.7897 20.7332C12.8007 20.6846 12.8069 20.6352 12.8061 20.5874V20.5796L12.7983 20.578C12.7623 20.567 12.7238 20.5592 12.6854 20.5553C12.6423 20.5506 12.5977 20.5506 12.553 20.5553C12.4425 20.5678 12.3626 20.6054 12.3093 20.6721C12.2552 20.7379 12.234 20.8241 12.245 20.9291C12.2497 20.9738 12.2583 21.0106 12.2716 21.0404C12.285 21.0718 12.3014 21.0984 12.321 21.1211C12.3414 21.1439 12.3641 21.1627 12.3892 21.1768C12.4135 21.1909 12.4409 21.2034 12.4707 21.2152L12.5561 21.245C12.589 21.2575 12.6196 21.2693 12.6447 21.2794C12.6698 21.2904 12.6901 21.3022 12.7074 21.3163C12.7238 21.3288 12.7372 21.3453 12.7466 21.3664C12.7568 21.3868 12.763 21.4111 12.767 21.4425C12.774 21.5044 12.7615 21.5538 12.7278 21.5929C12.6956 21.6321 12.6423 21.6564 12.5679 21.6643C12.5201 21.669 12.4785 21.6682 12.4441 21.6619C12.4104 21.6556 12.3759 21.6478 12.3437 21.6368L12.332 21.6337L12.3171 21.7246C12.3124 21.7536 12.3116 21.7802 12.3124 21.8045V21.8124L12.3555 21.8241L12.3798 21.8304C12.3994 21.8343 12.4198 21.8382 12.4417 21.8414C12.4652 21.8437 12.4872 21.8445 12.5107 21.8437C12.5358 21.8437 12.5624 21.8422 12.5922 21.8382C12.716 21.8249 12.8101 21.7795 12.8696 21.7034C12.9315 21.6282 12.9558 21.5295 12.9433 21.4111C12.9378 21.361 12.9276 21.3186 12.9127 21.2841L12.9119 21.2857Z" fill="#615F5F"/>
<path d="M15.162 21.1328L15.1549 21.1109C15.1471 21.0881 15.1384 21.0654 15.1275 21.0403L15.1236 21.0309C15.1236 21.0309 14.7356 21.1595 14.7168 21.1665C14.7105 21.1477 14.5977 20.8107 14.5914 20.7919C14.6102 20.7856 14.9072 20.6861 14.9072 20.6861L14.8963 20.6398L14.8869 20.6038V20.6022C14.8814 20.5889 14.8775 20.5771 14.872 20.5654C14.8673 20.5529 14.8626 20.5419 14.8563 20.5309L14.8524 20.5231C14.8524 20.5231 14.5561 20.621 14.5373 20.6273C14.5318 20.6093 14.4401 20.335 14.4339 20.3169C14.4535 20.3099 14.8281 20.1853 14.8281 20.1853V20.1759C14.8242 20.1618 14.8218 20.1492 14.8179 20.1383L14.8061 20.1006C14.7975 20.0748 14.7881 20.0505 14.7779 20.0301L14.774 20.0215L14.7654 20.0246L14.2207 20.2057L14.6133 21.3812L15.1776 21.1947L15.1674 21.1485L15.1627 21.1328H15.162Z" fill="#615F5F"/>
<path d="M9.68793 21.5049C9.62367 21.4932 9.56881 21.5339 9.55705 21.6006C9.55078 21.6343 9.55705 21.6672 9.57508 21.6923C9.59075 21.7142 9.61505 21.7299 9.64326 21.7346H9.64561C9.67618 21.7401 9.70518 21.7346 9.72869 21.7173C9.75298 21.7001 9.76944 21.6719 9.77571 21.6382C9.7812 21.6037 9.77571 21.5716 9.75769 21.5465C9.74123 21.523 9.71693 21.5089 9.68715 21.5034L9.68793 21.5049Z" fill="#615F5F"/>
<path d="M13.8393 21.4238L13.833 21.4144L13.8236 21.4215C13.7977 21.4411 13.7703 21.4575 13.7429 21.4708C13.7139 21.4842 13.6794 21.4951 13.641 21.503C13.5932 21.5124 13.5469 21.5124 13.5038 21.5014C13.4615 21.4904 13.4231 21.4701 13.3878 21.4395C13.3526 21.4081 13.322 21.365 13.2954 21.3125C13.2687 21.2592 13.2476 21.1942 13.2327 21.115C13.2193 21.0508 13.2131 20.9912 13.2131 20.9371C13.2131 20.8658 13.224 20.8031 13.2476 20.7506C13.286 20.662 13.3557 20.6072 13.4521 20.5876C13.4772 20.5821 13.4991 20.5797 13.514 20.5782C13.5321 20.5766 13.5493 20.5758 13.5634 20.5758H13.5658C13.5799 20.5766 13.5932 20.5782 13.6057 20.5797L13.6426 20.5844L13.6598 20.5876L13.6614 20.5766C13.6653 20.5507 13.6676 20.5264 13.67 20.5037C13.6716 20.4802 13.6708 20.4551 13.6676 20.4277L13.6661 20.4199L13.659 20.4183C13.6269 20.412 13.5916 20.4089 13.5493 20.4073C13.5085 20.4065 13.4599 20.4105 13.4074 20.4206C13.3346 20.4348 13.2695 20.463 13.217 20.5053C13.1629 20.5476 13.1222 20.6001 13.0916 20.6628C13.0618 20.7255 13.0438 20.7992 13.0375 20.8823C13.0313 20.9653 13.0375 21.0555 13.0555 21.1495C13.0744 21.2443 13.1026 21.3298 13.1386 21.4003C13.1755 21.4724 13.2201 21.532 13.2703 21.5766C13.3228 21.6237 13.3816 21.655 13.4466 21.6723C13.5125 21.6895 13.583 21.6903 13.6559 21.6754C13.7068 21.666 13.7499 21.6534 13.7883 21.6362C13.8259 21.6205 13.8628 21.5986 13.902 21.568L13.9082 21.5633L13.9059 21.5563C13.8918 21.5116 13.8698 21.4677 13.8393 21.423V21.4238Z" fill="#615F5F"/>
<path d="M15.6353 19.6488L15.6032 19.6582C15.5907 19.6622 15.5805 19.6653 15.5703 19.67C15.5585 19.6747 15.5468 19.681 15.5358 19.6865L15.5044 19.706L15.4966 19.7107L15.5005 19.7194C15.5005 19.7194 15.8187 20.4396 15.8524 20.5156C15.7874 20.4616 15.1016 19.8816 15.1016 19.8816L15.0906 19.8847C15.082 19.8863 15.0726 19.8887 15.0624 19.8926L15.0475 19.8981L15.0311 19.9043L15.0279 19.9059L14.9989 19.92C14.988 19.9271 14.9778 19.9325 14.9699 19.938L14.9629 19.9435L15.4621 21.0768L15.4762 21.0736C15.4849 21.0721 15.4935 21.0697 15.5037 21.0666C15.5162 21.0627 15.528 21.058 15.5389 21.0525C15.5491 21.0478 15.5585 21.0431 15.5711 21.0368C15.5805 21.0321 15.5907 21.0258 15.6008 21.018L15.6079 21.0125C15.6079 21.0125 15.2881 20.2891 15.256 20.2131C15.3203 20.2672 16.0052 20.8417 16.0052 20.8417L16.0099 20.8401L16.0382 20.833L16.0436 20.8315C16.0546 20.8283 16.064 20.8244 16.0766 20.8189L16.1079 20.804C16.1181 20.7986 16.1283 20.7923 16.1377 20.7852L16.1447 20.7805L15.6447 19.6465L15.6369 19.6488H15.6353Z" fill="#615F5F"/>
<path d="M20.568 10.2551C20.568 10.2692 20.5688 10.2825 20.5703 10.2942C20.5719 10.3076 20.5735 10.3209 20.575 10.3334L20.5766 10.3389L20.5852 10.3773H20.5907C20.5907 10.3773 21.1417 10.5364 21.1895 10.5497C21.1448 10.5725 20.6275 10.8358 20.6275 10.8358L20.626 10.8813L20.6283 10.922L20.633 10.9643V10.9659L20.6424 11.0059L20.6456 11.02L20.6573 11.0129C20.6573 11.0129 21.3909 10.6203 21.3948 10.6179C21.3987 10.6179 21.8454 10.5756 21.8454 10.5756V10.567C21.847 10.5544 21.8478 10.5427 21.8478 10.5309L21.8462 10.4925L21.8454 10.4839L21.8407 10.4549L21.8353 10.4298L21.8306 10.4095H21.8211C21.8211 10.4095 21.383 10.451 21.3791 10.451C21.3744 10.4502 20.5688 10.2002 20.5688 10.2002V10.2135C20.5672 10.2237 20.5664 10.2339 20.5664 10.2433C20.5664 10.2472 20.5664 10.2504 20.5664 10.2543L20.568 10.2551Z" fill="#615F5F"/>
<path d="M4.40412 3.78023C4.27324 3.78807 4.15646 3.84136 4.0585 3.93854C3.96053 4.03573 3.90724 4.1525 3.8994 4.2826C3.89156 4.41348 3.93153 4.52634 4.02009 4.61412C4.10866 4.70346 4.21994 4.74343 4.35161 4.73559C4.48171 4.72854 4.59848 4.67603 4.69567 4.57806C4.79442 4.4801 4.84693 4.36332 4.85555 4.23322C4.8626 4.10156 4.82263 3.99027 4.73485 3.90171C4.64708 3.81393 4.535 3.77239 4.4049 3.78023H4.40412ZM4.60554 4.26536C4.60711 4.32884 4.58594 4.38213 4.54362 4.42524C4.49973 4.46834 4.44644 4.4895 4.38374 4.48794C4.32026 4.4848 4.26618 4.45972 4.22073 4.41583C4.17449 4.37116 4.15098 4.31552 4.14863 4.25203C4.14706 4.18855 4.16822 4.13448 4.21054 4.09215C4.25364 4.04983 4.30772 4.02867 4.37042 4.03024C4.4339 4.03259 4.48876 4.05767 4.53422 4.10391C4.57967 4.14937 4.60319 4.20344 4.60554 4.26693V4.26536Z" fill="#615F5F"/>
<path d="M5.38598 3.98214L4.09675 5.26902C4.09675 5.26902 4.0944 5.27294 4.09675 5.27451L4.25271 5.43125C4.25271 5.43125 4.25741 5.43282 4.2582 5.43125C4.2582 5.43125 4.79348 4.89832 4.79818 4.89205L4.87891 4.97355C4.87342 4.97904 4.47842 5.37404 4.47842 5.37404C4.47686 5.37561 4.47685 5.37874 4.47921 5.37952L4.6289 5.52922C4.6289 5.52922 4.63203 5.53078 4.6336 5.52922C4.6336 5.52922 5.433 4.73138 5.43927 4.72433C5.44319 4.73138 5.50432 4.79095 5.50981 4.79643C5.50432 4.80192 4.70414 5.59897 4.70414 5.59897C4.70335 5.60132 4.70335 5.60289 4.70414 5.60524L4.93925 5.84114C4.98863 5.89051 5.02546 5.91951 5.07484 5.92186C5.12656 5.92343 5.16261 5.89835 5.20415 5.85681L6.07801 4.98531C6.07801 4.98531 6.08036 4.98139 6.07801 4.98061L5.92832 4.83013C5.92832 4.83013 5.9244 4.82778 5.92283 4.83013L5.12656 5.62405C5.12656 5.62405 5.11638 5.62953 5.11167 5.62483C5.11167 5.62483 5.04819 5.56135 5.04349 5.55508C5.04819 5.54959 5.81311 4.78703 5.81311 4.78703C5.82565 4.77449 5.83192 4.76117 5.83035 4.74784C5.82957 4.73217 5.82016 4.7212 5.81154 4.71179L5.50197 4.40144C5.47767 4.38027 5.45808 4.39595 5.45573 4.3983C5.45573 4.3983 5.09521 4.75803 5.08894 4.7643L5.00822 4.68201C5.01371 4.67652 5.54821 4.14359 5.54821 4.14359C5.54899 4.14202 5.54978 4.14045 5.54821 4.13889L5.39225 3.98214C5.39225 3.98214 5.38833 3.98057 5.38598 3.98214Z" fill="#615F5F"/>
<path d="M2.79338 5.54844L2.66406 5.77494C2.66406 5.77494 2.66406 5.77886 2.66563 5.78121C2.66563 5.78121 3.11392 6.03514 3.12019 6.03905C3.11706 6.04532 2.89526 6.43562 2.89526 6.43562C2.89369 6.43797 2.89448 6.44111 2.89605 6.44189L3.09433 6.55475C3.09433 6.55475 3.09668 6.55631 3.09668 6.55553C3.09746 6.55553 3.09903 6.55475 3.09903 6.55396C3.09903 6.55396 3.32161 6.1621 3.32553 6.15583C3.3318 6.15975 4.49014 6.81651 4.49014 6.81651C4.49171 6.81651 4.49406 6.81651 4.49563 6.81573L4.62416 6.58923C4.62416 6.58923 4.62416 6.58531 4.62181 6.58374L2.7973 5.54688C2.7973 5.54688 2.79338 5.54688 2.79259 5.54844H2.79338Z" fill="#615F5F"/>
<path d="M3.56932 6.51589L3.55913 6.52451C3.48076 6.5974 3.36163 6.64991 3.20724 6.67969C3.04344 6.71182 2.86789 6.67342 2.68214 6.56918L2.33103 6.37012C2.33103 6.37012 2.32633 6.37012 2.32477 6.37168L2.19153 6.6068C2.19153 6.6068 2.19075 6.61229 2.1931 6.61229L2.54421 6.81214C2.72917 6.91716 2.85143 7.05039 2.90786 7.20635C2.96115 7.35448 2.97682 7.48301 2.95488 7.58881L2.95253 7.60135C2.95096 7.60684 2.95253 7.60997 2.95331 7.61154C2.95723 7.61546 2.9635 7.61703 2.96429 7.61703L2.97918 7.61467L3.18059 7.58646C3.18059 7.58646 3.19235 7.58332 3.19392 7.57235C3.21508 7.48379 3.21194 7.37799 3.18373 7.25259C3.15316 7.11466 3.11163 7.01277 3.05755 6.9438C3.14454 6.95478 3.25348 6.93989 3.3875 6.89521C3.51054 6.85368 3.60224 6.80273 3.66729 6.73925C3.67591 6.73298 3.67356 6.72515 3.67199 6.72123L3.59283 6.53313L3.58735 6.51903C3.58735 6.51903 3.58343 6.51432 3.57716 6.51276C3.57481 6.51276 3.57089 6.51432 3.56697 6.51667L3.56932 6.51589Z" fill="#615F5F"/>
<path d="M11.7319 1.15137H10.7984C10.7984 1.15137 10.7945 1.15293 10.7945 1.1545V1.3763C10.7945 1.3763 10.7969 1.38022 10.7984 1.38022H11.4764C11.4764 1.70781 11.3941 1.92647 11.2334 2.07616C11.0712 2.22742 10.8901 2.32774 10.6966 2.37633L10.6848 2.37868C10.6848 2.37868 10.677 2.38182 10.6754 2.38809C10.6746 2.38965 10.6738 2.39122 10.6738 2.39279C10.6738 2.39514 10.6754 2.39827 10.677 2.40063L10.6856 2.41003L10.7969 2.54953C10.7969 2.54953 10.8016 2.5558 10.8094 2.55424C11.0171 2.52132 11.2303 2.40454 11.4419 2.21332C11.6535 2.01974 11.7616 1.74543 11.7616 1.352V1.1835C11.7616 1.1835 11.7632 1.16626 11.7562 1.15842C11.7491 1.15137 11.735 1.15137 11.7326 1.15137H11.7319Z" fill="#615F5F"/>
<path d="M12.3516 0.975586H12.093C12.093 0.975586 12.0898 0.977937 12.0898 0.979505V3.07754C12.0898 3.07754 12.0914 3.08067 12.093 3.08067H12.3516C12.3516 3.08067 12.3555 3.07911 12.3555 3.07754V0.979505C12.3555 0.979505 12.354 0.975586 12.3516 0.975586Z" fill="#615F5F"/>
<path d="M9.88091 2.42897L8.62381 2.75029C8.62381 2.75029 8.6199 2.75186 8.62146 2.75421L8.67632 2.96895C8.67632 2.96895 8.67868 2.97209 8.68103 2.97209L9.70614 2.71032C9.71319 2.70954 9.72103 2.71424 9.72103 2.7213L9.84643 3.21269C9.84643 3.21269 9.84878 3.21583 9.85035 3.21583L10.1137 3.14921C10.1137 3.14921 10.1168 3.14529 10.116 3.14451L9.94439 2.47129C9.93969 2.45483 9.93264 2.44307 9.92088 2.43524C9.90912 2.4274 9.8958 2.42426 9.88013 2.42897H9.88091Z" fill="#615F5F"/>
<path d="M9.18286 1.39481C9.18286 1.39481 8.74946 1.50688 8.74084 1.50845C8.73927 1.50061 8.69774 1.34151 8.69774 1.34151C8.69774 1.33916 8.69538 1.33838 8.69382 1.33916L8.42578 1.40735C8.42578 1.40735 8.42265 1.4097 8.42265 1.41205C8.42265 1.41205 8.46419 1.57193 8.46575 1.5782C8.45713 1.58055 8.02608 1.69027 8.02608 1.69027C8.02373 1.69027 8.02295 1.69262 8.02373 1.69497L8.07859 1.90971C8.07859 1.90971 8.08094 1.91285 8.08251 1.91206C8.08251 1.91206 8.1891 1.8862 8.2518 1.86974C8.22123 1.94733 8.21888 2.03746 8.24004 2.1221C8.27061 2.24045 8.34428 2.33136 8.45948 2.39014C8.57391 2.4497 8.69852 2.46224 8.83175 2.42932C8.96342 2.39484 9.06765 2.3243 9.13976 2.21693C9.21264 2.11035 9.2338 1.99514 9.20324 1.87601C9.18129 1.79372 9.13584 1.71535 9.07236 1.66049C9.13505 1.64325 9.24007 1.6166 9.24007 1.6166C9.24243 1.6166 9.24399 1.61503 9.24399 1.61268L9.18835 1.39716C9.18835 1.39716 9.186 1.39402 9.18365 1.39481H9.18286ZM8.91091 2.11975C8.88113 2.17305 8.83724 2.2091 8.77924 2.2232C8.72125 2.23731 8.6656 2.22947 8.61309 2.19577C8.56058 2.16207 8.52532 2.11427 8.50964 2.05314C8.49475 1.992 8.49945 1.92382 8.52923 1.86896C8.5598 1.81488 8.60447 1.77883 8.66168 1.76472C8.71968 1.74983 8.77611 1.75924 8.82783 1.79294C8.88113 1.82585 8.91796 1.88228 8.93364 1.9442C8.94853 2.00533 8.94226 2.06411 8.91169 2.11897L8.91091 2.11975Z" fill="#615F5F"/>
<path d="M9.96566 1.47252C9.96566 1.47252 9.71408 1.536 9.70703 1.53757C9.70546 1.53052 9.59887 1.11279 9.59887 1.11279C9.59809 1.10966 9.59574 1.10887 9.59339 1.10966L9.34103 1.17471C9.34103 1.17471 9.33789 1.17706 9.33789 1.17863L9.64041 2.36127C9.64041 2.36127 9.64198 2.3644 9.64511 2.3644L9.89669 2.30014C9.89669 2.30014 9.90061 2.29779 9.89982 2.29543C9.89982 2.29543 9.77129 1.78993 9.76972 1.78209C9.77678 1.78053 10.0284 1.71626 10.0284 1.71626C10.0299 1.71626 10.0315 1.71469 10.0307 1.71234L9.97036 1.47409C9.97036 1.47409 9.96644 1.47252 9.96487 1.47252H9.96566Z" fill="#615F5F"/>
<path d="M18.3842 5.38867L17.4899 4.44664C17.4899 4.44664 17.4868 4.44428 17.4852 4.44585L17.3246 4.59946C17.3246 4.59946 17.3238 4.6026 17.3246 4.60416L18.0542 5.37222C18.0574 5.37692 18.055 5.38475 18.0511 5.38946L17.6827 5.74057C17.6827 5.74057 17.6812 5.74448 17.6827 5.74605L17.8693 5.94277C17.8693 5.94277 17.8732 5.94355 17.8747 5.94277L18.3795 5.46391C18.3912 5.45216 18.3983 5.43962 18.3998 5.42551C18.3998 5.4114 18.3967 5.39886 18.3849 5.38789L18.3842 5.38867Z" fill="#615F5F"/>
<path d="M18.9471 4.27357C18.9471 4.27357 18.6391 3.94754 18.6336 3.94127C18.6391 3.93656 18.7582 3.82371 18.7582 3.82371C18.7605 3.82136 18.7598 3.81979 18.7582 3.81822L18.5677 3.61837C18.5677 3.61837 18.563 3.61524 18.5623 3.61759C18.5623 3.61759 18.4424 3.73044 18.4384 3.73515C18.4322 3.72966 18.1265 3.40755 18.1265 3.40755C18.1249 3.40598 18.1226 3.40598 18.121 3.40676L17.9604 3.55881C17.9604 3.55881 17.9588 3.56429 17.9604 3.56508C17.9604 3.56508 18.0356 3.64345 18.0795 3.69047C17.9972 3.70301 17.9173 3.74455 17.8553 3.80411C17.7652 3.88954 17.7229 3.99769 17.7268 4.12623C17.7307 4.25476 17.7801 4.37153 17.8742 4.47028C17.9682 4.56903 18.0803 4.62546 18.2104 4.63486C18.3389 4.64662 18.4486 4.60822 18.5388 4.52436C18.6007 4.46401 18.6477 4.38642 18.6641 4.30413C18.7073 4.35194 18.7833 4.42953 18.7833 4.42953C18.7848 4.43188 18.7872 4.43188 18.7888 4.43031L18.9486 4.27827C18.9486 4.27827 18.951 4.27357 18.9486 4.272L18.9471 4.27357ZM18.1829 4.38956C18.121 4.39034 18.0685 4.3684 18.0262 4.32451C17.9854 4.28062 17.9658 4.22733 17.9698 4.16619C17.9737 4.1035 17.9988 4.0502 18.045 4.00631C18.0905 3.96243 18.1516 3.93421 18.2143 3.93421C18.2762 3.93421 18.3287 3.95537 18.3695 3.99926C18.4102 4.04237 18.429 4.09566 18.4267 4.15757C18.4228 4.21949 18.3914 4.27905 18.3452 4.32294C18.2997 4.36683 18.2441 4.38799 18.1829 4.38956Z" fill="#615F5F"/>
<path d="M19.2615 4.99424C19.2615 4.99424 19.0828 4.80615 19.0773 4.80145C19.0828 4.79518 19.3971 4.49814 19.3971 4.49814C19.3979 4.49579 19.3987 4.49422 19.3971 4.49344L19.2176 4.30378C19.2176 4.30378 19.2137 4.30143 19.2129 4.30378L18.3265 5.14393C18.3265 5.14393 18.3257 5.14785 18.3265 5.14942L18.506 5.3383C18.506 5.3383 18.5091 5.34065 18.5115 5.3383C18.5115 5.3383 18.8892 4.97935 18.8947 4.97465C18.9002 4.98092 19.0789 5.16901 19.0789 5.16901C19.0805 5.16901 19.0828 5.17058 19.0844 5.16901L19.2615 5.0013C19.2615 5.0013 19.2631 4.99738 19.2615 4.99581V4.99424Z" fill="#615F5F"/>
<path d="M10.4087 17.604C10.5514 17.6016 10.6533 17.5515 10.7136 17.4566C10.7708 17.3641 10.8014 17.2591 10.8045 17.14L10.799 17.1369C10.7238 17.238 10.6164 17.2897 10.4777 17.2866C10.1564 17.2779 9.99571 17.1259 9.99414 16.8273C9.99492 16.6611 10.0404 16.5295 10.1305 16.4339C10.2214 16.3382 10.3594 16.2904 10.5467 16.2881C10.6619 16.2904 10.7567 16.3108 10.8304 16.3469C10.9048 16.3845 10.962 16.4386 11.0012 16.5036C11.0757 16.6423 11.1109 16.8046 11.107 16.988C11.1094 17.2011 11.0624 17.3931 10.9691 17.5663C10.868 17.7435 10.6877 17.8352 10.426 17.8406C10.3053 17.8406 10.1885 17.8203 10.0764 17.7803L10.1195 17.5428C10.205 17.582 10.3021 17.6024 10.4103 17.6032L10.4087 17.604ZM10.7269 16.9754C10.7606 16.9229 10.7763 16.8563 10.7763 16.7787C10.7763 16.7074 10.7591 16.6439 10.7254 16.5937C10.6885 16.542 10.629 16.5154 10.5467 16.5146C10.4691 16.5154 10.4142 16.542 10.379 16.5945C10.3445 16.6502 10.3264 16.7113 10.3264 16.7818C10.3264 16.8524 10.3445 16.9198 10.3805 16.9738C10.4181 17.0311 10.4746 17.0601 10.5529 17.0624C10.6344 17.0616 10.6917 17.0326 10.7269 16.9754Z" fill="#ACADAE"/>
<path d="M12.2965 16.3184H12.588V17.8161H12.2573V16.6593L11.9767 16.8646L11.8105 16.6695L12.2957 16.3191L12.2965 16.3184Z" fill="#ACADAE"/>
<path d="M8.92067 16.3172H9.21222V17.8149H8.88149V16.6581L8.6017 16.8627L8.43555 16.6667L8.92067 16.3164V16.3172Z" fill="#ACADAE"/>
<path d="M13.6048 17.7652C13.5264 17.7166 13.4684 17.6531 13.4284 17.5747C13.3885 17.4964 13.3634 17.4117 13.3501 17.3224C13.3367 17.2362 13.332 17.1523 13.332 17.0739C13.332 16.9775 13.3414 16.8835 13.3602 16.791C13.3806 16.6985 13.4112 16.6147 13.4543 16.5418C13.4982 16.4666 13.5577 16.4078 13.6322 16.3608C13.7059 16.3169 13.7968 16.2949 13.9081 16.2949C14.028 16.2973 14.1267 16.32 14.2051 16.367C14.2803 16.4148 14.3383 16.4783 14.3799 16.5536C14.4206 16.6296 14.4488 16.7134 14.4645 16.8051C14.4778 16.8968 14.4857 16.9877 14.4857 17.0763C14.4857 17.1633 14.4778 17.2511 14.4637 17.3404C14.4481 17.4298 14.4183 17.5128 14.376 17.5904C14.3344 17.6664 14.2756 17.7268 14.2004 17.7738C14.1236 17.8216 14.0248 17.8459 13.9057 17.8475C13.7811 17.8451 13.6808 17.8177 13.6056 17.766L13.6048 17.7652ZM14.0531 17.563C14.0868 17.5238 14.1103 17.476 14.1244 17.4188C14.1408 17.36 14.1502 17.2997 14.1534 17.2377V17.0763C14.1534 17.0238 14.1534 16.9674 14.1518 16.9039C14.1479 16.842 14.1393 16.7824 14.1228 16.7244C14.1079 16.6641 14.0844 16.6139 14.0531 16.5771C14.017 16.5402 13.9692 16.5206 13.9081 16.5206C13.8469 16.5206 13.8031 16.5402 13.7694 16.5771C13.7364 16.6131 13.7114 16.6625 13.6957 16.7236C13.6824 16.7816 13.6737 16.8412 13.669 16.9023C13.6659 16.9666 13.6643 17.023 13.6643 17.0755C13.6643 17.1218 13.6667 17.1766 13.669 17.2377C13.673 17.3004 13.6824 17.36 13.6949 17.4188C13.7106 17.4768 13.7357 17.523 13.767 17.5622C13.8015 17.6022 13.8477 17.621 13.9057 17.621C13.9708 17.621 14.0186 17.603 14.0538 17.5638L14.0531 17.563Z" fill="#ACADAE"/>
</g>
<defs>
<clipPath id="clip0_4393_55061">
<rect width="22.9992" height="23" fill="white"/>
</clipPath>
</defs>
</svg>
