<svg width="23" height="23" viewBox="0 0 23 23" fill="none" xmlns="http://www.w3.org/2000/svg">
<g clip-path="url(#clip0_4393_55366)">
<g clip-path="url(#clip1_4393_55366)">
<path d="M12.9768 2.79355C12.6153 1.98481 11.3961 2.53929 11.3961 2.53929C12.4193 3.19179 12.9768 2.79355 12.9768 2.79355ZM10.9642 2.67408C11.0898 2.67408 11.1939 2.56992 11.1939 2.44432C11.1939 2.31873 11.0898 2.21457 10.9642 2.21457C10.8386 2.21457 10.7344 2.31873 10.7344 2.44432C10.7344 2.56992 10.8386 2.67408 10.9642 2.67408ZM13.7518 2.8732C13.7518 2.8732 13.3107 2.86401 12.9094 3.10602L14.2052 3.1244C14.2195 3.11215 14.2348 3.10091 14.2512 3.0907C14.2512 3.0907 13.6048 1.3415 11.8862 1.12706C11.8862 1.12706 12.2998 2.41982 13.7518 2.8732ZM14.6617 3.21324C14.6617 3.11827 14.5851 3.04169 14.4901 3.04169C14.3952 3.04169 14.3186 3.11827 14.3186 3.21324C14.3186 3.3082 14.3952 3.38479 14.4901 3.38479C14.5851 3.38479 14.6617 3.3082 14.6617 3.21324ZM7.7384 3.12746L9.03421 3.10908C8.62984 2.86707 8.18871 2.87626 8.18871 2.87626C9.64077 2.42288 10.0543 1.13013 10.0543 1.13013C8.33576 1.34456 7.68938 3.09377 7.68938 3.09377C7.71082 3.10908 7.71389 3.10908 7.73533 3.12746M7.32177 3.3082C7.32177 3.40317 7.39836 3.47975 7.49332 3.47975C7.58829 3.47975 7.66487 3.40317 7.66487 3.3082C7.66487 3.21324 7.58829 3.13665 7.49332 3.13665C7.39836 3.13665 7.32177 3.21324 7.32177 3.3082ZM7.42899 4.6898C6.49466 4.02504 5.13144 4.53969 5.13144 4.53969C6.34149 3.61761 6.33229 2.14718 6.33229 2.14718C4.79141 2.93753 4.78222 4.80008 4.78222 4.80008C6.66621 5.35762 7.42899 4.6898 7.42899 4.6898ZM7.94977 4.32525L7.96202 3.69419C7.2605 3.48894 6.5498 3.62067 6.5498 3.62067C7.90075 2.92528 8.14889 1.47323 8.14889 1.47323C6.49466 1.98175 6.16074 3.81673 6.16074 3.81673C6.92353 4.19659 7.51783 4.313 7.94671 4.32219M15.4153 3.51958C15.4153 3.51958 14.8516 3.34803 14.144 3.59004V4.23641C14.5728 4.22722 15.014 4.12307 15.8074 3.70338C15.8074 3.70338 15.4306 1.8776 13.7672 1.40583C13.7672 1.40583 14.049 2.85176 15.4153 3.51651M8.96375 2.87014C8.96375 2.87014 9.53355 3.24694 10.5322 2.55767C10.5322 2.55767 9.2946 2.04915 8.96375 2.87014ZM17.6301 11.6192H16.9041V12.5352H17.6301V11.6192ZM15.6757 5.33924L15.3019 5.78649L17.3268 7.8114L17.7373 7.4009L15.6757 5.33924ZM19.6183 5.27797L17.7618 3.42155L16.0984 5.22895L17.8844 6.99041L19.6183 5.27797ZM4.48813 5.06966C4.48813 5.16462 4.56471 5.24121 4.65968 5.24121C4.75464 5.24121 4.83123 5.16462 4.83123 5.06966C4.83123 4.97469 4.75464 4.89811 4.65968 4.89811C4.56471 4.89811 4.48813 4.97469 4.48813 5.06966ZM18.2305 7.02717C18.5491 7.11907 18.9412 7.18647 19.4222 7.20485C19.4222 7.20485 19.6397 6.55541 19.5447 5.76811L18.9198 6.36854C18.9872 6.52784 19.073 6.68713 19.1802 6.84643C19.1802 6.84643 19.0086 6.70245 18.7299 6.54928L18.2336 7.02717H18.2305ZM17.6669 16.104H16.9439V17.02H17.6669V16.104ZM16.6131 4.2211L17.0327 3.79528C16.8551 3.19486 16.4936 2.46883 15.5991 2.03689C15.5991 2.03689 15.5623 3.32352 16.6131 4.2211ZM20.381 10.6389C20.381 10.7339 20.4576 10.8105 20.5526 10.8105C20.6476 10.8105 20.7241 10.7339 20.7241 10.6389C20.7241 10.544 20.6476 10.4674 20.5526 10.4674C20.4576 10.4674 20.381 10.544 20.381 10.6389ZM18.1233 2.12573C18.6655 2.39531 19.1005 2.11348 19.1005 2.11348C19.704 1.81633 20.139 2.22989 20.139 2.22989C20.5587 2.55767 20.4913 2.99267 20.4913 2.99267C20.4913 3.32352 20.3964 3.34803 20.3964 3.34803C20.1942 3.48588 20.2463 3.25306 20.2463 3.25306C20.2524 3.25306 20.2922 3.0907 20.2922 3.0907C20.3719 2.34017 19.6979 2.23295 19.6979 2.23295C18.9872 2.11041 18.8065 2.76905 18.8065 2.76905C18.7605 2.94979 18.7574 3.11215 18.7789 3.25306L17.8874 2.36161L17.9303 3.11521L19.9185 5.10335H20.6292L19.9062 4.38039C20.2891 4.49987 20.6231 4.51212 20.6231 4.51212C21.6401 4.45085 21.7443 3.47975 21.7443 3.47975C22.0108 2.46577 21.0489 1.64478 21.0489 1.64478C20.4086 1.09337 19.4375 1.04742 19.4375 1.04742C18.0559 0.888118 17.5658 0.00585938 17.5658 0.00585938C17.4034 0.407165 17.4463 1.00146 17.4463 1.00146C17.5382 1.91742 18.1203 2.13186 18.1203 2.13186M20.6261 10.3571C20.6261 10.3571 21.7841 8.89584 21.0734 7.31513C21.0734 7.31513 20.1482 8.46084 20.5158 9.9374C20.5158 9.9374 19.7745 8.68447 18.6288 8.62014C18.6288 8.62014 18.8034 9.61574 20.6261 10.3601M19.4498 7.67661C19.5447 7.67661 19.6213 7.60003 19.6213 7.50506C19.6213 7.41009 19.5447 7.33351 19.4498 7.33351C19.3548 7.33351 19.2782 7.41009 19.2782 7.50506C19.2782 7.60003 19.3548 7.67661 19.4498 7.67661ZM15.9912 4.89198L16.512 4.35282C16.0708 4.25173 15.2376 4.10469 14.5636 4.60402C14.5636 4.60402 14.9098 4.99614 15.9912 4.89198ZM20.1605 8.72736C20.1605 8.72736 21.0489 7.08537 20.0747 5.65477C20.0747 5.65477 19.3609 6.94139 19.9828 8.33218C19.9828 8.33218 19.0331 7.22629 17.8936 7.36108C17.8936 7.36108 18.2397 8.3138 20.1605 8.72736ZM14.0858 21.2567C14.0858 21.3516 14.1623 21.4282 14.2573 21.4282C14.3523 21.4282 14.4289 21.3516 14.4289 21.2567C14.4289 21.1617 14.3523 21.0851 14.2573 21.0851C14.1623 21.0851 14.0858 21.1617 14.0858 21.2567ZM14.9466 21.0912C14.9466 21.0912 15.9207 20.2549 15.9299 19.2134L15.5838 19.2287C15.2682 19.5044 14.8087 20.0895 14.5545 21.275C14.5545 21.275 16.1964 22.1604 17.627 21.1862C17.627 21.1862 16.3374 20.4724 14.9496 21.0943M13.3444 21.6273C13.3444 21.6273 14.5973 20.8829 14.6617 19.7403C14.6617 19.7403 13.663 19.9149 12.9217 21.7376C12.9217 21.7376 14.3829 22.8956 15.9636 22.1849C15.9636 22.1849 14.8179 21.2597 13.3444 21.6273ZM11.6626 21.9857C12.9646 21.3823 13.2525 20.3713 13.2525 20.3713C12.2416 20.4418 11.3716 21.9612 11.3716 21.9612C12.505 23.1192 13.9755 22.9722 13.9755 22.9722C13.3015 22.0807 11.6626 21.9857 11.6626 21.9857ZM10.9396 21.4558V21.8847C10.7405 21.5722 9.96855 20.4418 9.09548 20.3867C9.09548 20.3867 9.39263 21.3945 10.6976 21.9888C10.6976 21.9888 9.05872 22.096 8.3909 22.9967C8.3909 22.9967 9.81844 23.1253 10.9396 22.0133V22.7118H11.3747V21.4558H10.9396ZM16.9439 17.5009V18.4169L21.0427 21.8173H21.8637L17.6914 17.5009H16.9439ZM16.4354 20.2856C16.4354 20.2856 16.8091 19.8383 16.9929 19.2134L16.2945 19.2011C16.1842 19.5442 16.1015 19.9792 16.08 20.5337C16.08 20.5337 17.5903 21.0361 18.7973 20.16L18.3316 19.7862C17.817 19.7587 17.1063 19.8322 16.4354 20.2856ZM8.30206 21.3241C8.30206 21.2291 8.22548 21.1525 8.13051 21.1525C8.03555 21.1525 7.95896 21.2291 7.95896 21.3241C7.95896 21.419 8.03555 21.4956 8.13051 21.4956C8.22548 21.4956 8.30206 21.419 8.30206 21.3241ZM19.7622 16.5268C19.7622 16.5268 19.9981 15.09 19.1649 14.3058C19.1649 14.3058 18.6594 15.1819 19.5754 16.9189C19.5754 16.9189 21.4012 16.5452 21.8729 14.8756C21.8729 14.8756 20.427 15.1574 19.7622 16.5268ZM18.0712 19.5687L17.4678 19.0755C17.48 19.2287 17.4984 19.391 17.529 19.5657C17.529 19.5657 17.7465 19.5902 18.0712 19.5657M17.1583 19.7924C17.2533 19.7924 17.3299 19.7158 17.3299 19.6208C17.3299 19.5258 17.2533 19.4493 17.1583 19.4493C17.0634 19.4493 16.9868 19.5258 16.9868 19.6208C16.9868 19.7158 17.0634 19.7924 17.1583 19.7924ZM2.77875 17.2834C2.77875 17.3784 2.85534 17.455 2.9503 17.455C3.04527 17.455 3.12185 17.3784 3.12185 17.2834C3.12185 17.1885 3.04527 17.1119 2.9503 17.1119C2.85534 17.1119 2.77875 17.1885 2.77875 17.2834ZM1.52582 13.9566C2.95337 12.6026 2.75118 11.61 2.75118 11.61C1.70963 12.0879 1.47374 13.5246 1.47374 13.5246C1.28381 12.0144 0.00331296 11.2853 0.00331296 11.2853C-0.0824622 13.0161 1.52582 13.9566 1.52582 13.9566ZM1.53195 14.1955C1.53195 14.2905 1.60853 14.3671 1.7035 14.3671C1.79846 14.3671 1.87505 14.2905 1.87505 14.1955C1.87505 14.1006 1.79846 14.024 1.7035 14.024C1.60853 14.024 1.53195 14.1006 1.53195 14.1955ZM3.9796 3.45525L2.65009 2.11348C1.82604 1.28942 0.851874 1.83471 0.851874 1.83471L3.47108 4.44166C3.64569 3.77384 3.9796 3.45525 3.9796 3.45525ZM2.95949 4.27624L0.698704 2.01545C0.698704 2.01545 -0.247886 2.69246 0.48733 4.27624H2.95643H2.95949ZM1.97921 15.5863C3.14942 14.0056 2.77875 13.0621 2.77875 13.0621C1.83523 13.7115 1.85361 15.1697 1.85361 15.1697C1.40022 13.7207 0.0125032 13.2244 0.0125032 13.2244C0.226941 14.943 1.97614 15.5894 1.97614 15.5894M3.02689 20.0681C3.02689 20.0681 3.2934 19.9088 3.68246 19.8506L3.25358 19.7495L3.21069 19.8015C3.2352 19.7678 3.25358 19.7495 3.25358 19.7495L1.34508 21.7591C1.34508 21.7591 1.12758 22.0715 1.33283 22.2768C1.33283 22.2768 1.52582 22.433 1.78927 22.2523L3.64876 20.6256C3.46189 20.5276 3.05139 20.1875 3.02689 20.0681ZM6.64783 19.2501H6.40582C6.39356 20.3284 7.43206 21.1801 7.43206 21.1801C6.02902 20.5919 4.75771 21.3363 4.75771 21.3363C6.21282 22.2768 7.8303 21.3516 7.8303 21.3516C7.51477 20.0374 6.96336 19.4738 6.64783 19.2501ZM2.70523 17.118C3.58136 15.3596 3.05752 14.4927 3.05752 14.4927C2.23959 15.2983 2.50917 16.729 2.50917 16.729C1.81072 15.378 0.361731 15.1299 0.361731 15.1299C0.873318 16.7841 2.70523 17.1149 2.70523 17.1149M7.68325 19.823C7.77516 20.9656 9.0434 21.6794 9.0434 21.6794C7.56072 21.3455 6.43645 22.2982 6.43645 22.2982C8.03248 22.9691 9.46615 21.7805 9.46615 21.7805C8.68192 19.9792 7.68019 19.8261 7.68019 19.8261M3.59362 6.00706C5.54806 6.22762 6.17913 5.43727 6.17913 5.43727C5.1437 4.94712 3.89077 5.68846 3.89077 5.68846C4.92313 4.57032 4.65968 3.12134 4.65968 3.12134C3.27809 4.16596 3.59362 6.00399 3.59362 6.00399M3.68858 18.4965C4.24612 16.6125 3.5783 15.8528 3.5783 15.8528C2.91354 16.7872 3.42819 18.1504 3.42819 18.1504C2.50611 16.9403 1.03568 16.9495 1.03568 16.9495C1.82604 18.4904 3.68858 18.4996 3.68858 18.4996M17.9671 16.9556C17.9671 16.9556 17.8445 17.0843 17.8047 17.2773L18.1693 17.6541C18.1478 17.4182 18.0896 17.1793 17.9671 16.9526M5.81764 9.41356L6.48853 10.0048H7.99878C7.92526 9.88532 7.94977 9.42887 7.94977 9.42887L5.81764 9.41662V9.41356ZM9.56418 4.99001V4.14451H12.1926V5.35149H13.0595V6.21843H12.2171V6.60442H13.0595V7.54488H12.2171V10.3663H11.4941L10.4924 9.36454L9.57643 10.2805L8.91474 9.6188L10.4342 8.09936L11.2184 8.88359V4.99001H9.56724H9.56418ZM8.21322 9.0337C8.21322 11.0341 9.46615 11.9592 11.0162 11.9592C12.5663 11.9592 13.8223 11.0372 13.8223 9.0337V3.32965H8.21629C8.21629 3.32965 8.21629 7.03636 8.21629 9.0337M6.14849 5.74054C6.14849 5.74054 5.98 5.98868 5.33363 6.12653L6.14849 6.88013V5.74054ZM13.3138 14.0699C13.4976 14.0699 13.4976 13.9321 13.4976 13.7912V12.4892H13.8713V13.8677C13.8713 14.0699 13.8499 14.41 13.3107 14.41C12.9615 14.41 12.7532 14.2476 12.7532 13.8922V12.4892H13.1269V13.7115C13.1269 13.8555 13.1085 14.0699 13.3138 14.0699ZM14.2757 14.7929V15.1421H13.8958V15.5526H14.2297V15.9049H13.8958V16.3307H14.2818V16.683H13.5252V14.7929H14.2757ZM14.1746 12.4892H14.5943L14.7015 12.7527C14.7321 12.8446 14.772 12.9426 14.7903 13.0406H14.7934C14.8148 12.9426 14.8455 12.8476 14.8792 12.7527L14.9925 12.4892H15.3969L14.9925 13.4052L15.4245 14.3793H14.9925L14.8731 14.0791C14.8363 13.9841 14.8148 13.8892 14.7903 13.7973H14.7842C14.7566 13.8922 14.7352 13.9841 14.7015 14.0791L14.5912 14.3793H14.1715L14.5728 13.4052L14.1715 12.4892H14.1746ZM15.3111 16.683L15.2407 16.3644H14.8608L14.7934 16.683H14.4227L14.8608 14.7929H15.256L15.7094 16.683H15.3111ZM12.9186 16.683L12.8298 15.3198H12.8236L12.7624 15.7854L12.6031 16.683H12.3151L12.1313 15.7762L12.07 15.3535V15.3167H12.0639L12.0088 16.6799H11.6075L11.7729 14.7898H12.2661L12.4499 15.9049H12.453L12.6031 14.7898H13.1055L13.3046 16.6799H12.9217L12.9186 16.683ZM11.7086 12.4892H12.0823V14.0301H12.4713V14.3793H11.7055V12.4892H11.7086ZM11.2276 12.1982V18.6099C11.2276 18.6099 11.5891 18.2515 12.0945 18.2515H16.0739V10.2958H13.9265C13.9265 10.2958 13.3168 12.1737 11.2245 12.2013M9.61932 13.0222C9.61932 12.8875 9.55499 12.7772 9.36506 12.7864H9.31605V13.2888H9.38038C9.55193 13.2888 9.61626 13.1754 9.61626 13.0222M15.0507 15.2769H15.0446L15.0048 15.5618L14.9251 16.0642H15.1886L15.0936 15.5618L15.0507 15.2769ZM4.9844 6.85256C4.91701 6.90463 4.43911 7.3427 3.71003 7.42847L3.95816 7.66129L6.56205 7.64904L5.75331 6.84337L5.34282 6.43287C5.34282 6.43287 5.05486 6.80354 4.98134 6.85256M19.5049 17.0874C19.5049 16.9924 19.4283 16.9158 19.3334 16.9158C19.2384 16.9158 19.1618 16.9924 19.1618 17.0874C19.1618 17.1823 19.2384 17.2589 19.3334 17.2589C19.4283 17.2589 19.5049 17.1823 19.5049 17.0874ZM20.5097 14.1496C20.6047 14.1496 20.6813 14.073 20.6813 13.978C20.6813 13.8831 20.6047 13.8065 20.5097 13.8065C20.4147 13.8065 20.3382 13.8831 20.3382 13.978C20.3382 14.073 20.4147 14.1496 20.5097 14.1496ZM19.4069 12.8691C19.4069 12.8691 19.0607 13.8218 20.2677 15.3749C20.2677 15.3749 22.0016 14.6887 22.1762 12.964C22.1762 12.964 20.8038 13.494 20.3872 14.9552C20.3872 14.9552 20.3688 13.4971 19.4099 12.8691M20.7211 13.2979C20.7211 13.2979 20.4515 11.8643 19.4008 11.414C19.4008 11.414 19.2231 12.4096 20.6813 13.7299C20.6813 13.7299 22.2712 12.7527 22.1425 11.0249C22.1425 11.0249 20.8804 11.7846 20.7241 13.2979M18.6747 15.6751C18.6747 15.6751 18.0253 16.4532 18.6257 18.3219C18.6257 18.3219 20.4883 18.2698 21.2419 16.7106C21.2419 16.7106 19.7684 16.7381 18.8769 17.9696C18.8769 17.9696 19.3579 16.5942 18.6747 15.6751ZM20.767 11.61C20.767 11.61 20.2524 10.2468 19.1373 9.98335C19.1373 9.98335 19.1373 10.9973 20.8007 12.042C20.8007 12.042 22.1946 10.8013 21.7688 9.1256C21.7688 9.1256 20.6598 10.0936 20.767 11.61ZM19.5692 19.1092C19.8541 18.9315 20.1268 18.6895 20.3535 18.3587C20.3535 18.3587 19.7316 18.279 19.0056 18.5241L19.5692 19.1092ZM8.71868 15.5526L8.6758 15.2646H8.66967L8.62984 15.5526L8.5502 16.055H8.81365L8.71868 15.5526ZM3.18312 4.37733C2.00371 5.64558 2.63477 7.4009 2.63477 7.4009C4.59535 7.28143 5.08243 6.39305 5.08243 6.39305C3.97654 6.08977 2.87372 7.03636 2.87372 7.03636C3.69471 5.75586 3.18618 4.37427 3.18618 4.37427M10.5414 19.5626H11.6718C11.6718 19.5626 11.7453 19.0725 12.067 19.0725H16.7632V10.8074L16.2975 10.3173V18.5057H12.0915C12.0915 18.5057 11.5248 18.5547 11.0836 19.097C11.0836 19.097 10.7405 18.5792 10.0022 18.5333H5.89423V10.3938L5.38877 10.8993V19.0755H9.97468C9.97468 19.0755 10.5414 19.1 10.5414 19.5657M1.75251 10.8656C1.75251 10.7706 1.67593 10.6941 1.58096 10.6941C1.486 10.6941 1.40941 10.7706 1.40941 10.8656C1.40941 10.9606 1.486 11.0372 1.58096 11.0372C1.67593 11.0372 1.75251 10.9606 1.75251 10.8656ZM1.60241 10.158C1.93632 8.67528 0.983601 7.55407 0.983601 7.55407C0.309653 9.1501 1.50131 10.5838 1.50131 10.5838C3.30566 9.79955 3.45576 8.79781 3.45576 8.79781C2.31312 8.88972 1.59934 10.158 1.59934 10.158M0.331097 9.3768C-0.0548916 11.0647 1.36653 12.2717 1.36653 12.2717C3.00544 11.1873 2.98094 10.1733 2.98094 10.1733C1.87199 10.4612 1.38797 11.8367 1.38797 11.8367C1.46149 10.3173 0.328033 9.3768 0.328033 9.3768M2.19977 6.01012C2.19977 6.01012 2.10174 5.39744 2.73893 4.48148H0.582295C0.582295 4.48148 0.674197 4.73268 2.19977 6.01012ZM7.90076 9.19912V8.9663L6.77955 7.8451H4.15115L5.63384 9.19912H7.89769H7.90076ZM5.19271 18.6895C5.19884 18.7692 5.21415 18.6711 5.21415 18.6711V17.553L5.03035 17.7583C5.13451 18.0401 5.17127 18.4475 5.19271 18.6895ZM2.43259 7.70112C2.43259 7.79608 2.50917 7.87267 2.60414 7.87267C2.6991 7.87267 2.77569 7.79608 2.77569 7.70112C2.77569 7.60615 2.6991 7.52957 2.60414 7.52957C2.50917 7.52957 2.43259 7.60615 2.43259 7.70112ZM5.18352 19.9425C5.27849 19.9425 5.35507 19.8659 5.35507 19.7709C5.35507 19.6759 5.27849 19.5994 5.18352 19.5994C5.08855 19.5994 5.01197 19.6759 5.01197 19.7709C5.01197 19.8659 5.08855 19.9425 5.18352 19.9425ZM6.38131 7.13439L7.90076 8.62626V7.47136L6.38131 5.95192V7.13439ZM5.2019 16.0182H4.47894V16.9342H5.2019V16.0182ZM15.2682 6.18167L14.0858 7.46524L14.098 9.51771C14.098 9.51771 14.0613 9.85775 13.9877 10.0262H14.7475L16.9163 7.85429L15.2652 6.17861L15.2682 6.18167ZM8.86879 12.477V12.8292H8.48893V13.2397H8.82284V13.592H8.48893V14.0178H8.87185V14.3701H8.11519V12.4831L7.59135 14.3701H7.28501L6.73973 12.48H7.13797L7.36466 13.3898C7.39836 13.4971 7.41061 13.6043 7.43206 13.7115H7.43512C7.45656 13.6012 7.46269 13.494 7.49332 13.3837L7.72002 12.48H8.86266L8.86879 12.477ZM9.33749 16.6707H8.93925L8.86879 16.3522H8.48893L8.42153 16.6707H8.05086L8.48893 14.7806H8.88104L9.33443 16.6707H9.33749ZM8.94537 12.477H9.32217C9.56112 12.477 9.98693 12.5015 9.98693 13.0192C9.98693 13.2275 9.90422 13.4052 9.71735 13.5063L10.0451 14.3671H9.64996L9.32217 13.494H9.31605V14.3671H8.94231V12.477H8.94537ZM10.1187 12.477H10.4924V14.3671H10.1187V12.477ZM9.84295 16.6983C9.73573 16.6983 9.60707 16.6677 9.52129 16.6034V16.248C9.61013 16.3093 9.69284 16.3491 9.80619 16.3491C9.92566 16.3491 10.0206 16.2694 10.0206 16.1438C10.0206 15.9999 9.90422 15.9447 9.80006 15.8681C9.58256 15.7242 9.45084 15.5832 9.45084 15.3075C9.45084 15.0104 9.62239 14.7531 9.94404 14.7531C10.0635 14.7531 10.1738 14.7868 10.2749 14.845V15.2095C10.1983 15.1452 10.1064 15.09 10.0053 15.09C9.8889 15.09 9.81538 15.1605 9.81538 15.2738C9.81538 15.5863 10.3852 15.6016 10.3852 16.1132C10.3852 16.4502 10.1922 16.7014 9.84295 16.7014M7.98347 15.1299H7.68632V16.6677H7.31258V15.1299H7.0185V14.7776H7.9804V15.1299H7.98347ZM6.11786 10.2928V18.2484H10.0605C10.5077 18.2576 10.9642 18.6068 10.9642 18.6068V12.2411C8.57777 12.189 8.09375 10.2897 8.09375 10.2897H6.11786V10.2928ZM6.28941 20.647C6.25265 20.0405 6.14236 19.5994 6.00758 19.244H5.30912C5.49905 19.9088 5.92793 20.4081 5.92793 20.4081C4.65049 19.5871 3.2689 20.0956 3.2689 20.0956C4.53714 21.275 6.29247 20.644 6.29247 20.644M3.91834 7.9033L3.56911 7.57552C2.72055 7.78996 2.10174 8.54355 2.10174 8.54355C2.49998 7.59083 2.28555 6.69632 2.1048 6.2215L1.85054 6.01318C1.11226 7.41009 1.93019 8.94179 1.93019 8.94179C3.06365 8.66915 3.63957 8.2219 3.91834 7.90024M2.0129 18.6221C3.05752 20.0007 4.89556 19.6882 4.89556 19.6882C5.11919 17.7337 4.32883 17.0996 4.32883 17.0996C3.83869 18.1351 4.58003 19.388 4.58003 19.388C3.46495 18.3556 2.01597 18.6221 2.01597 18.6221M5.17739 11.6897H4.45443V12.6056H5.17739V11.6897Z" fill="#032E86"/>
</g>
</g>
<defs>
<clipPath id="clip0_4393_55366">
<rect width="23" height="23" fill="white"/>
</clipPath>
<clipPath id="clip1_4393_55366">
<rect width="22.1729" height="23" fill="white"/>
</clipPath>
</defs>
</svg>
