<svg width="23" height="23" viewBox="0 0 23 23" fill="none" xmlns="http://www.w3.org/2000/svg">
<g clip-path="url(#clip0_4393_55015)">
<path d="M11.4997 23C5.1589 23 0 17.8411 0 11.4997C0 5.15822 5.1589 0 11.4997 0C17.8404 0 23 5.1589 23 11.4997C23 17.8404 17.8411 22.9993 11.4997 22.9993V23Z" fill="white"/>
<path d="M11.4977 23.001C5.15695 23.001 -0.00195312 17.8421 -0.00195312 11.5006C-0.00195312 5.1592 5.15695 0.000976562 11.4977 0.000976562C17.8385 0.000976562 22.998 5.15988 22.998 11.5006C22.998 17.8414 17.8391 23.0003 11.4977 23.0003V23.001ZM11.4977 0.250182C5.29418 0.250182 0.247253 5.29711 0.247253 11.5006C0.247253 17.7042 5.29418 22.7518 11.4984 22.7518C17.7026 22.7518 22.7495 17.7048 22.7495 11.5006C22.7495 5.29643 17.7019 0.250182 11.4977 0.250182Z" fill="#084D9B"/>
<path d="M19.483 18.1339L18.5415 17.1924L17.7598 17.9741L17.925 18.138L18.5285 17.5344L19.3055 18.3114L19.186 18.4309L18.788 18.0335L18.6159 18.2049L19.014 18.603L18.9293 18.6876L18.5313 18.2903L18.3599 18.4616L18.7573 18.8597L18.6473 18.9696L18.8078 19.1294L19.7241 18.2124L19.5643 18.0527L19.483 18.1339Z" fill="#084D9B"/>
<path d="M11.9018 20.4929V21.1872H11.1467V21.0561H11.7093V20.5134H10.9043V20.725H11.4683V20.8424H10.9043V21.3989H11.9018V21.5989H11.3099V21.4829H11.0682V22.1329H12.1442V20.4922H11.9018V20.4929ZM11.9018 21.9253H11.3099V21.8031H11.9018V21.9253Z" fill="#084D9B"/>
<path d="M6.97304 19.8937L7.07272 19.7209L5.87448 19.0293L5.77548 19.202L6.2657 19.4854L6.21518 19.5741L5.83625 19.3557L5.73656 19.5277L6.51559 19.9776L6.47326 20.0514L5.69423 19.6014L5.45117 20.0227L6.42478 20.5846L6.52446 20.4119L5.74407 19.9619L5.78777 19.8855L6.56816 20.3361L6.80986 19.9169L6.43161 19.6984L6.48213 19.6103L6.97304 19.8937Z" fill="#084D9B"/>
<path d="M6.76011 18.8822C6.56962 18.7723 6.33338 18.8262 6.23165 19.0017C6.12992 19.1785 6.20229 19.4093 6.3921 19.5192C6.58259 19.6291 6.81882 19.5759 6.92055 19.3997C7.02228 19.2236 6.9506 18.9921 6.76011 18.8822ZM6.49247 19.3451C6.40849 19.2966 6.37708 19.1922 6.42351 19.113C6.46925 19.0331 6.57508 19.0085 6.65974 19.0563C6.74372 19.1055 6.77513 19.2093 6.72938 19.2891C6.68364 19.369 6.57781 19.3936 6.49315 19.3451" fill="#084D9B"/>
<path d="M6.67294 18.8209L6.57812 18.9854L6.77035 19.0962L6.86517 18.9318L6.67294 18.8209Z" fill="#084D9B"/>
<path d="M4.97122 17.6562L4.69948 17.928L4.5363 17.7648L4.37517 17.9253L4.53835 18.0891L3.79688 18.8306L3.97507 19.0095L5.1501 17.8345L4.97122 17.6562Z" fill="#084D9B"/>
<path d="M4.1607 17.6184L3.91149 18.1912L4.09242 18.3728L4.44745 17.5153L4.46725 17.488L4.61336 17.3412L4.43789 17.165L4.2911 17.3118L4.26379 17.3309L3.40625 17.6867L3.58718 17.8676L4.1607 17.6184Z" fill="#084D9B"/>
<path d="M9.27983 20.128L8.84961 21.7324L9.09361 21.7978L9.52382 20.1934L9.27983 20.128Z" fill="#084D9B"/>
<path d="M8.56124 20.5011L8.63293 21.1347L8.88623 21.2016L8.76265 20.2635L8.76538 20.2287L8.82 20.0245L8.57489 19.959L8.52027 20.1631L8.50525 20.1945L7.92969 20.9456L8.18231 21.0132L8.56124 20.5011Z" fill="#084D9B"/>
<path d="M16.8587 19.1707L16.6839 18.8662L16.4736 18.9877L16.9795 19.8644L16.2852 20.2645L16.3992 20.4611L17.0929 20.0604L17.3045 20.4263L17.5141 20.3055L16.9734 19.3687L17.1407 19.2718L17.0266 19.0738L16.8587 19.1707Z" fill="#084D9B"/>
<path d="M16.1573 19.248L16.0965 19.1421L15.8753 19.2698L15.9368 19.3756L15.6719 19.5286L15.7716 19.7013L16.5212 19.2684L16.4215 19.0957L16.1573 19.248Z" fill="#084D9B"/>
<path d="M16.0967 19.397C15.9034 19.5083 15.8304 19.7439 15.9335 19.9227C16.0373 20.1016 16.2776 20.1562 16.4708 20.045C16.664 19.9337 16.7371 19.6974 16.634 19.5192C16.5309 19.3404 16.2906 19.2864 16.0973 19.3977M16.3664 19.8647C16.2824 19.9132 16.1772 19.8886 16.1315 19.8087C16.0857 19.7295 16.1165 19.6264 16.2011 19.5773C16.2851 19.5288 16.3902 19.5541 16.4353 19.6333C16.4817 19.7125 16.4503 19.8162 16.3664 19.8647Z" fill="#084D9B"/>
<path d="M14.4396 20.0513L14.5372 20.4138L14.4219 20.4446L14.3249 20.082L14.0996 20.1421L14.3345 21.0215L13.9296 21.1307L13.7548 20.4766L14.0443 20.3995L13.9869 20.1858L13.4551 20.3285L13.7446 21.4107L14.3925 21.2366L14.5291 21.7466L14.7544 21.6865L14.4854 20.6828L14.6007 20.6514L14.8697 21.6558L15.0944 21.5957L14.6649 19.9912L14.4396 20.0513Z" fill="#084D9B"/>
<path d="M21.1221 14.314L20.9071 14.0996L20.6934 14.314L20.9071 14.5284L21.1221 14.314Z" fill="#084D9B"/>
<path d="M2.30377 14.314L2.08939 14.0996L1.875 14.314L2.08939 14.5284L2.30377 14.314Z" fill="#084D9B"/>
<path d="M1.01795 10.0098L1.65155 10.0692C1.7963 10.0828 1.93967 10.1019 2.03799 10.2242C2.12197 10.3272 2.14109 10.4781 2.1288 10.6099C2.11651 10.7417 2.07008 10.8864 1.96835 10.9718C1.84887 11.0735 1.70481 11.066 1.55938 11.0523L0.925781 10.9929L0.953091 10.7L1.54641 10.7553C1.69252 10.769 1.85365 10.7738 1.8714 10.5853C1.88915 10.3969 1.73007 10.3716 1.58396 10.358L0.990643 10.3027L1.01795 10.0098Z" fill="#084D9B"/>
<path d="M1.2168 8.96498L1.30214 8.683L2.12145 8.36825V8.36552L1.45986 8.16411L1.5452 7.88281L2.62874 8.2119L2.54339 8.49388L1.72272 8.80795V8.81068L2.38568 9.01209L2.30033 9.29339L1.2168 8.9643V8.96498Z" fill="#084D9B"/>
<path d="M3.10006 7.18249L2.96965 7.44603L1.95508 6.94421L2.08548 6.68066L3.10006 7.18249Z" fill="#084D9B"/>
<path d="M3.41569 5.80888L3.01218 5.18825L3.19652 4.92676L3.84309 5.97411L3.71132 6.1605L2.51172 5.89695L2.69606 5.63546L3.41569 5.8082V5.80888Z" fill="#084D9B"/>
<path d="M4.18908 4.21178L4.3229 4.3456L4.55777 4.11142L4.73392 4.28757L4.49905 4.52175L4.63697 4.65967L4.88481 4.41251L5.06096 4.58866L4.60488 5.04406L3.80469 4.24251L4.26077 3.78711L4.43692 3.96326L4.18976 4.21042L4.18908 4.21178Z" fill="#084D9B"/>
<path d="M6.4503 3.5038L6.15194 3.71682L5.67264 3.5236L5.66991 3.52565L5.92321 3.88L5.68357 4.05069L5.02539 3.12897L5.38315 2.87294C5.56545 2.74321 5.7655 2.73092 5.90615 2.92756C5.99695 3.05523 6.00446 3.21568 5.89044 3.33243L6.44962 3.50312L6.4503 3.5038ZM5.55999 3.37135L5.5832 3.35496C5.66172 3.29898 5.73887 3.22182 5.66718 3.12146C5.59549 3.02109 5.49718 3.06957 5.41934 3.12487L5.39613 3.14126L5.55999 3.37066V3.37135Z" fill="#084D9B"/>
<path d="M7.27691 2.11984C7.20863 2.10277 7.13353 2.1055 7.06867 2.13691C7.02019 2.16012 6.9683 2.22021 6.99629 2.27687C7.02497 2.33627 7.10758 2.32467 7.16084 2.31784L7.23867 2.30555C7.40049 2.27892 7.54523 2.29804 7.62443 2.46327C7.67359 2.565 7.69885 2.68107 7.65106 2.78894C7.60395 2.89477 7.51041 2.97465 7.408 3.02449C7.27964 3.08662 7.13284 3.10369 6.99356 3.08048L7.00449 2.81216C7.09871 2.8381 7.20044 2.84834 7.29056 2.80465C7.35269 2.7746 7.40458 2.71179 7.36976 2.6401C7.33426 2.56568 7.21751 2.59026 7.15264 2.60118C6.96352 2.63396 6.83311 2.64351 6.73753 2.44552C6.63785 2.23864 6.72046 2.03245 6.9246 1.93413C7.0277 1.88497 7.16903 1.85698 7.28442 1.86449L7.27759 2.12121L7.27691 2.11984Z" fill="#084D9B"/>
<path d="M8.80354 2.45024L8.52292 2.53831L8.18359 1.45819L8.46421 1.37012L8.80354 2.45024Z" fill="#084D9B"/>
<path d="M10.0549 2.16899L9.76471 2.21815L9.61723 1.34763L9.37759 1.38792L9.33594 1.14213L10.1061 1.01172L10.1477 1.25751L9.90809 1.29779L10.0556 2.16899H10.0549Z" fill="#084D9B"/>
<path d="M10.8906 0.93865L11.2436 0.933188L11.46 1.2377L11.6669 0.92636L12.0199 0.920898L11.6123 1.51626L11.6212 2.05974L11.3269 2.06451L11.318 1.52104L10.8913 0.939333L10.8906 0.93865Z" fill="#084D9B"/>
<path d="M15.2166 2.16465C15.1033 2.51286 14.7728 2.67603 14.428 2.56338C14.0826 2.45073 13.9139 2.12369 14.0273 1.77548C14.1338 1.45049 14.4936 1.3153 14.8029 1.41703C15.1128 1.51808 15.3231 1.83966 15.2166 2.16465ZM14.3181 1.87243C14.2573 2.05746 14.3495 2.23771 14.5168 2.29233C14.6834 2.34695 14.865 2.25614 14.9258 2.07111C14.9742 1.92227 14.8814 1.74271 14.7148 1.6874C14.5475 1.63278 14.3666 1.72359 14.3181 1.87175V1.87243Z" fill="#084D9B"/>
<path d="M16.4216 2.42651L16.3308 2.5931L16.6142 2.74741L16.4947 2.96657L16.2113 2.81159L15.9983 3.20212L15.7402 3.06148L16.2823 2.06738L16.8531 2.37872L16.7336 2.59788L16.4209 2.4272L16.4216 2.42651Z" fill="#084D9B"/>
<path d="M18.9195 4.38091C18.9126 4.31059 18.8847 4.24095 18.8341 4.19042C18.7959 4.15219 18.7222 4.1242 18.6778 4.16857C18.6314 4.21569 18.6696 4.28942 18.6942 4.33722L18.7317 4.40617C18.8109 4.55024 18.841 4.69225 18.7119 4.82197C18.6327 4.90185 18.5324 4.96535 18.4142 4.95579C18.2982 4.94692 18.1923 4.88547 18.1111 4.80559C18.01 4.70522 17.9445 4.57277 17.9199 4.43348L18.1766 4.35428C18.1835 4.45192 18.208 4.55024 18.2797 4.62124C18.3289 4.66972 18.4054 4.69703 18.4613 4.64036C18.5194 4.58164 18.4573 4.47991 18.4258 4.42324C18.3316 4.25597 18.2791 4.13649 18.4334 3.98082C18.5945 3.81764 18.8164 3.82651 18.9775 3.9856C19.0581 4.06616 19.1318 4.18974 19.1639 4.30103L18.9202 4.38091H18.9195Z" fill="#084D9B"/>
<path d="M19.8335 5.41174L19.6805 5.52302L19.8758 5.79135L19.6744 5.93814L19.4791 5.66982L19.3214 5.78452L19.5276 6.06718L19.3262 6.21397L18.9473 5.69371L19.8622 5.02734L20.2411 5.5476L20.0397 5.6944L19.8335 5.41174Z" fill="#084D9B"/>
<path d="M20.8169 7.73764C20.4864 7.89604 20.1402 7.77041 19.9825 7.44269C19.8255 7.11497 19.945 6.76608 20.2754 6.60768C20.584 6.45952 20.9309 6.6268 21.0715 6.92038C21.2129 7.21465 21.1255 7.58948 20.8169 7.73764ZM20.4065 6.88488C20.2304 6.96954 20.1641 7.16071 20.2399 7.31979C20.3157 7.47819 20.5069 7.54647 20.683 7.46249C20.8244 7.3949 20.8899 7.20304 20.8141 7.04464C20.7383 6.88624 20.5472 6.81797 20.4058 6.88556L20.4065 6.88488Z" fill="#084D9B"/>
<path d="M21.8744 9.41035L21.2565 9.56465C21.1151 9.60015 20.9738 9.62883 20.8407 9.54622C20.7273 9.47726 20.6591 9.34071 20.6276 9.21303C20.5956 9.08467 20.5921 8.93242 20.6591 8.8184C20.7383 8.68253 20.8769 8.64157 21.0175 8.60675L21.6354 8.45312L21.7064 8.73852L21.1281 8.88258C20.9854 8.91808 20.8318 8.96724 20.8775 9.1509C20.9233 9.33456 21.0817 9.30589 21.2244 9.2697L21.8027 9.12564L21.8737 9.41103L21.8744 9.41035Z" fill="#084D9B"/>
<path d="M21.161 10.782L21.1876 11.1336L20.9391 11.1527L20.8906 10.5075L22.0199 10.4229L22.0418 10.7164L21.161 10.7827V10.782Z" fill="#084D9B"/>
<path d="M9.60742 16.3142V16.0664H10.0615V17.193H9.76855V16.3142H9.60742Z" fill="#084D9B"/>
<path d="M10.6467 17.1931L10.9683 16.8135L10.9656 16.8108C10.915 16.8333 10.8666 16.8449 10.8072 16.8449C10.586 16.8449 10.4453 16.6551 10.4453 16.4475C10.4453 16.171 10.6727 16.0215 10.9294 16.0215C11.0386 16.0215 11.1643 16.0481 11.251 16.1184C11.3418 16.1915 11.4019 16.311 11.4019 16.4291C11.4019 16.5923 11.3179 16.7493 11.2209 16.8777L10.9806 17.1931H10.6474H10.6467ZM10.7498 16.438C10.7498 16.5411 10.8277 16.623 10.9308 16.623C11.0338 16.623 11.1178 16.5411 11.1178 16.438C11.1178 16.3349 11.0338 16.2529 10.9308 16.2529C10.8277 16.2529 10.7498 16.3349 10.7498 16.438Z" fill="#084D9B"/>
<path d="M11.7168 16.3142V16.0664H12.1715V17.193H11.8786V16.3142H11.7175H11.7168Z" fill="#084D9B"/>
<path d="M13.4102 16.3421C13.4102 16.4616 13.3351 16.5633 13.232 16.5981V16.6009C13.3665 16.6459 13.4567 16.749 13.4567 16.8972C13.4567 17.13 13.2204 17.2379 13.0265 17.2379C12.8326 17.2379 12.5957 17.13 12.5957 16.8972C12.5957 16.749 12.6858 16.6459 12.8196 16.6009V16.5981C12.7166 16.564 12.6414 16.4616 12.6414 16.3421C12.6414 16.127 12.8326 16.0205 13.0258 16.0205C13.2191 16.0205 13.4095 16.127 13.4095 16.3421H13.4102ZM12.8913 16.8596C12.8913 16.9354 12.9514 16.9968 13.0258 16.9968C13.1003 16.9968 13.1603 16.9354 13.1603 16.8596C13.1603 16.7838 13.1003 16.719 13.0258 16.719C12.9514 16.719 12.8913 16.7818 12.8913 16.8596ZM12.9023 16.3516C12.9023 16.422 12.9576 16.4786 13.0265 16.4786C13.0955 16.4786 13.1501 16.422 13.1501 16.3516C13.1501 16.2813 13.0948 16.2247 13.0265 16.2247C12.9582 16.2247 12.9023 16.2813 12.9023 16.3516Z" fill="#084D9B"/>
<path d="M15.2256 7.25684H14.5162V11.1417L14.011 11.0338V7.25684H13.0858V10.8365L12.6018 10.7348V7.25684H11.4308V10.4856L11.0519 10.4043V7.25684H9.60309V10.0964L9.29721 10.0316V7.25684H7.66406V9.68472L7.81563 9.71749V13.7526H8.52433V9.86906L9.03026 9.97557V13.7526H9.95471V10.1715L10.4388 10.2753V13.7526H11.6104V10.5238L11.9893 10.6051V13.7526H13.4381V10.9116L13.744 10.9785V13.7526H15.3778V11.3247L15.2256 11.2919V7.25684Z" fill="#084D9B"/>
<path d="M5.02607 8.27346V13.7519H5.27187V8.90433C5.40978 9.04907 5.59822 9.16036 5.81466 9.24639V13.7519H6.18403V9.36519C6.24684 9.38089 6.30965 9.39728 6.37383 9.40957L6.7432 9.49081V13.7526H7.26824V9.60074L7.40002 9.62805V7.25684H6.64898C5.4924 7.25684 5.02539 7.69585 5.02539 8.27414L5.02607 8.27346Z" fill="#084D9B"/>
<path d="M17.7688 7.25654V12.1055C17.6315 11.9607 17.4445 11.8494 17.2273 11.762V7.25654H16.8573V11.6439C16.7945 11.6275 16.7324 11.6125 16.6682 11.5982L16.2968 11.5197V7.25586H15.7731V11.4077L15.6406 11.3797V13.7509H16.3903C17.5482 13.7509 18.0153 13.3112 18.0153 12.7343V7.25586H17.7681L17.7688 7.25654Z" fill="#084D9B"/>
</g>
<defs>
<clipPath id="clip0_4393_55015">
<rect width="23" height="23" fill="white"/>
</clipPath>
</defs>
</svg>
