<svg width="23" height="23" viewBox="0 0 23 23" fill="none" xmlns="http://www.w3.org/2000/svg">
<g clip-path="url(#clip0_4393_53139)">
<path d="M11.5426 3.6543H11.4453V19.284H11.5426V3.6543Z" fill="#6F7271"/>
<path d="M11.8555 19.2761L11.0391 3.66759L11.1363 3.66211L11.9535 19.2713L11.8555 19.2761Z" fill="#6F7271"/>
<path d="M12.264 19.2485L10.627 3.70305L10.7263 3.69141L12.3592 19.2369L12.264 19.2485Z" fill="#6F7271"/>
<path d="M12.6681 19.1961L10.2207 3.75755L10.3207 3.74316L12.7647 19.1818L12.6681 19.1961Z" fill="#6F7271"/>
<path d="M13.0691 19.1239L9.82031 3.83529L9.91621 3.81543L13.1657 19.104L13.0691 19.1239Z" fill="#6F7271"/>
<path d="M13.4686 19.0313L9.42383 3.93452L9.52041 3.90918L13.5624 19.006L13.4686 19.0313Z" fill="#6F7271"/>
<path d="M13.8602 18.9176L9.0332 4.05231L9.1243 4.02148L13.9554 18.8874L13.8602 18.9176Z" fill="#6F7271"/>
<path d="M14.2495 18.7831L8.64844 4.19118L8.74159 4.15625L14.3419 18.7475L14.2495 18.7831Z" fill="#6F7271"/>
<path d="M14.6267 18.6293L8.27148 4.34969L8.35916 4.30859L14.7178 18.5882L14.6267 18.6293Z" fill="#6F7271"/>
<path d="M14.998 18.4551L7.90234 4.52753L7.98865 4.48438L15.0856 18.4099L14.998 18.4551Z" fill="#6F7271"/>
<path d="M15.3597 18.2618L7.54688 4.72608L7.62907 4.67676L15.4439 18.2125L15.3597 18.2618Z" fill="#6F7271"/>
<path d="M15.7094 18.0497L7.19727 4.94278L7.27946 4.88867L15.7916 17.997L15.7094 18.0497Z" fill="#6F7271"/>
<path d="M16.0482 17.8221L6.86133 5.17541L6.94147 5.11719L16.1276 17.7625L16.0482 17.8221Z" fill="#6F7271"/>
<path d="M16.3746 17.5725L6.53906 5.42728L6.61509 5.36426L16.4506 17.5129L16.3746 17.5725Z" fill="#6F7271"/>
<path d="M6.30131 5.62782L6.22852 5.69336L16.6873 17.309L16.7601 17.2435L6.30131 5.62782Z" fill="#6F7271"/>
<path d="M16.9856 17.0301L5.93359 5.97876L6.00141 5.9082L17.0534 16.9609L16.9856 17.0301Z" fill="#6F7271"/>
<path d="M17.2701 16.7353L5.6543 6.27573L5.72074 6.20312L17.3358 16.6613L17.2701 16.7353Z" fill="#6F7271"/>
<path d="M17.5371 16.4249L5.39258 6.58941L5.4508 6.5127L17.5995 16.3496L17.5371 16.4249Z" fill="#6F7271"/>
<path d="M17.7879 16.1025L5.14258 6.915L5.20012 6.83691L17.844 16.0224L17.7879 16.1025Z" fill="#6F7271"/>
<path d="M18.0218 15.7665L4.91211 7.25368L4.96485 7.17285L18.0739 15.685L18.0218 15.7665Z" fill="#6F7271"/>
<path d="M18.2355 15.4179L4.70117 7.6031L4.75049 7.51953L18.2855 15.333L18.2355 15.4179Z" fill="#6F7271"/>
<path d="M18.4347 15.0603L4.50781 7.96531L4.55302 7.87695L18.4785 14.9746L18.4347 15.0603Z" fill="#6F7271"/>
<path d="M18.6135 14.6934L4.33594 8.33416L4.3743 8.24512L18.6553 14.6037L18.6135 14.6934Z" fill="#6F7271"/>
<path d="M18.7716 14.3159L4.18164 8.71483L4.21452 8.62305L18.8065 14.2248L18.7716 14.3159Z" fill="#6F7271"/>
<path d="M18.9102 13.9307L4.04492 9.10028L4.07506 9.00781L18.9403 13.8369L18.9102 13.9307Z" fill="#6F7271"/>
<path d="M19.0298 13.5391L3.93164 9.49296L3.95698 9.39844L19.0545 13.4446L19.0298 13.5391Z" fill="#6F7271"/>
<path d="M19.1272 13.1416L3.83789 9.8914L3.85638 9.79688L19.1477 13.0464L19.1272 13.1416Z" fill="#6F7271"/>
<path d="M19.2028 12.7395L3.76562 10.2962L3.78138 10.1982L19.2179 12.6429L19.2028 12.7395Z" fill="#6F7271"/>
<path d="M19.2582 12.3348L3.71484 10.7012L3.72649 10.6025L19.2692 12.2389L19.2582 12.3348Z" fill="#6F7271"/>
<path d="M19.2926 11.9289L3.68555 11.1097L3.69103 11.0117L19.2981 11.8296L19.2926 11.9289Z" fill="#6F7271"/>
<path d="M19.3074 11.4199H3.67773V11.5179H19.3074V11.4199Z" fill="#6F7271"/>
<path d="M3.69103 11.9289L3.68555 11.8296L19.294 11.0117L19.2981 11.1097L3.69103 11.9289Z" fill="#6F7271"/>
<path d="M3.72649 12.3351L3.71484 12.2392L19.2582 10.6035L19.2692 10.7015L3.72649 12.3351Z" fill="#6F7271"/>
<path d="M3.78138 12.7395L3.76562 12.6429L19.2042 10.1982L19.2186 10.2962L3.78138 12.7395Z" fill="#6F7271"/>
<path d="M3.85638 13.1423L3.83789 13.0464L19.1272 9.79688L19.1477 9.8914L3.85638 13.1423Z" fill="#6F7271"/>
<path d="M3.95698 13.5391L3.93164 13.4446L19.0298 9.39844L19.0565 9.49296L3.95698 13.5391Z" fill="#6F7271"/>
<path d="M4.07506 13.9314L4.04492 13.8369L18.9102 9.00781L18.9403 9.10028L4.07506 13.9314Z" fill="#6F7271"/>
<path d="M4.21452 14.3159L4.18164 14.2248L18.7716 8.62305L18.8065 8.71483L4.21452 14.3159Z" fill="#6F7271"/>
<path d="M4.37371 14.6947L4.33398 14.605L18.6136 8.24707L18.654 8.33475L4.37371 14.6947Z" fill="#6F7271"/>
<path d="M4.55165 15.0616L4.50781 14.9746L18.4347 7.87695L18.4785 7.96531L4.55165 15.0616Z" fill="#6F7271"/>
<path d="M4.75049 15.42L4.70117 15.333L18.2355 7.51953L18.2842 7.6031L4.75049 15.42Z" fill="#6F7271"/>
<path d="M4.96622 15.7679L4.91211 15.6864L18.0197 7.17285L18.0745 7.25368L4.96622 15.7679Z" fill="#6F7271"/>
<path d="M5.19953 16.1032L5.14062 16.0238L17.7873 6.83691L17.8434 6.915L5.19953 16.1032Z" fill="#6F7271"/>
<path d="M5.451 16.4263L5.38867 16.351L17.5373 6.5127L17.5976 6.58941L5.451 16.4263Z" fill="#6F7271"/>
<path d="M5.71937 16.7366L5.6543 16.664L17.268 6.20312L17.3331 6.27573L5.71937 16.7366Z" fill="#6F7271"/>
<path d="M6.00082 17.0308L5.93164 16.9609L16.985 5.9082L17.0528 5.97876L6.00082 17.0308Z" fill="#6F7271"/>
<path d="M6.30044 17.3108L6.22852 17.2437L16.6867 5.62793L16.7593 5.69369L6.30044 17.3108Z" fill="#6F7271"/>
<path d="M6.61314 17.5739L6.53711 17.5129L16.3733 5.36426L16.45 5.42728L6.61314 17.5739Z" fill="#6F7271"/>
<path d="M6.9402 17.8221L6.85938 17.7652L16.0469 5.11719L16.127 5.17541L6.9402 17.8221Z" fill="#6F7271"/>
<path d="M7.27751 18.0518L7.19531 17.997L15.7088 4.88867L15.7917 4.94278L7.27751 18.0518Z" fill="#6F7271"/>
<path d="M7.62664 18.2642L7.54102 18.2142L15.3579 4.67773L15.4435 4.72637L7.62664 18.2642Z" fill="#6F7271"/>
<path d="M7.98738 18.4551L7.90039 18.4099L14.9981 4.48438L15.083 4.52753L7.98738 18.4551Z" fill="#6F7271"/>
<path d="M8.35926 18.6293L8.26953 18.5896L14.6281 4.30859L14.7179 4.34969L8.35926 18.6293Z" fill="#6F7271"/>
<path d="M8.7369 18.7852L8.64648 18.7489L14.2489 4.15625L14.3393 4.19187L8.7369 18.7852Z" fill="#6F7271"/>
<path d="M9.12509 18.9176L9.03125 18.8874L13.861 4.02148L13.9541 4.05231L9.12509 18.9176Z" fill="#6F7271"/>
<path d="M9.51698 19.0327L9.42383 19.0067L13.4686 3.90918L13.5624 3.93452L9.51698 19.0327Z" fill="#6F7271"/>
<path d="M9.91552 19.1252L9.82031 19.1061L13.0691 3.81543L13.165 3.83529L9.91552 19.1252Z" fill="#6F7271"/>
<path d="M10.32 19.1961L10.2207 19.1818L12.6667 3.74316L12.7647 3.75755L10.32 19.1961Z" fill="#6F7271"/>
<path d="M10.7242 19.2488L10.627 19.2385L12.2592 3.69238L12.3572 3.70334L10.7242 19.2488Z" fill="#6F7271"/>
<path d="M11.1352 19.2774L11.0352 19.2719L11.853 3.66211L11.9516 3.66759L11.1352 19.2774Z" fill="#6F7271"/>
<path d="M11.4959 6.13887e-07C5.1551 0.00137056 -0.0027388 5.1599 1.09108e-06 11.5014C1.09108e-06 17.8435 5.16195 23.0021 11.5 22.9993C17.8428 22.9993 22.9979 17.8387 22.9979 11.4952C22.9973 5.1551 17.8381 -0.0020543 11.4959 6.13887e-07ZM11.4959 22.5815C5.37429 22.5815 0.412354 17.6209 0.412354 11.4993C0.412354 5.37772 5.37361 0.418519 11.4959 0.418519C17.6182 0.418519 22.5774 5.37909 22.5774 11.4993C22.5774 17.6195 17.6147 22.5815 11.4959 22.5815Z" fill="#6F7271"/>
<path d="M10.634 4.02051L10.3182 4.16093C10.2401 4.19449 10.1538 4.21846 10.0647 4.23353L9.98049 4.24586L9.86747 4.55342C9.86747 4.55342 9.96063 4.55342 10.0147 4.55479C9.96816 4.68356 9.82637 5.06646 9.82637 5.06646C9.82432 5.06646 9.80856 5.11167 9.79966 5.12879C9.78459 5.13085 9.66883 5.14934 9.66883 5.14934L9.63184 5.22606L9.5332 5.46169H10.2421L10.3634 5.16304C10.3634 5.16304 10.2682 5.14934 10.2182 5.14181C10.2634 5.0192 10.634 4.02051 10.634 4.02051Z" fill="white"/>
<path d="M11.4688 4.26156C11.425 4.2095 11.349 4.14648 11.2106 4.14648H11.2092C10.9647 4.14648 10.7215 4.36842 10.6667 4.6424C10.6626 4.67117 10.6599 4.70268 10.6599 4.73145C10.6599 4.8205 10.6887 4.90064 10.7407 4.96229C10.7674 4.99654 10.801 5.01982 10.838 5.039C10.7606 5.09791 10.675 5.13969 10.59 5.15339L10.4825 5.176L10.4551 5.48766H10.6119C10.6688 5.48492 10.7791 5.46095 10.864 5.43081C11.125 5.33354 11.4613 5.07188 11.5394 4.64172C11.5551 4.55336 11.5723 4.38417 11.4675 4.26156H11.4688ZM11.1469 4.52048C11.1462 4.53555 11.1462 4.54925 11.1394 4.57596C11.1394 4.57596 11.1188 4.64035 11.1024 4.68693C11.0928 4.69104 11.0853 4.69515 11.0791 4.69652V4.69515C11.0791 4.68624 11.0791 4.67186 11.0825 4.65679C11.0942 4.58829 11.1229 4.54582 11.1469 4.52048Z" fill="white"/>
<path d="M12.2029 4.57604C12.233 4.55755 12.2611 4.53152 12.2933 4.52056L12.5515 4.44248L12.5735 4.33699L12.5885 4.10547L12.407 4.14109L12.3721 4.14725L12.1789 4.19383C11.8022 4.31233 11.5364 4.61098 11.4672 4.98908C11.4611 5.01922 11.4583 5.04731 11.4576 5.07607C11.4576 5.07744 11.4453 5.09251 11.4453 5.09251C11.4453 5.09251 11.4563 5.08977 11.4563 5.0884C11.4563 5.09251 11.4515 5.09868 11.4515 5.10005C11.4515 5.20416 11.4809 5.29595 11.5392 5.36171C11.6022 5.43911 11.6994 5.48158 11.8042 5.48158C12.0597 5.48158 12.307 5.25691 12.3591 4.97196C12.3632 4.93908 12.368 4.90552 12.368 4.87743C12.368 4.78496 12.3413 4.70345 12.2913 4.6418C12.2673 4.61303 12.233 4.59591 12.2029 4.57741V4.57604ZM11.9522 4.90346C11.9522 4.91374 11.9515 4.92949 11.9474 4.9473C11.9268 5.05005 11.8912 5.09799 11.8631 5.11923C11.8631 5.10005 11.8659 5.07744 11.8727 5.04731C11.883 4.99045 11.8967 4.94935 11.9125 4.91922C11.9255 4.91305 11.946 4.90141 11.9522 4.90141V4.90415V4.90346Z" fill="white"/>
<path d="M13.3199 4.25403C13.2781 4.20539 13.2048 4.14648 13.0788 4.14648H13.0761C12.6897 4.14648 12.4555 4.68624 12.4068 4.94653C12.3767 5.07462 12.363 5.25271 12.463 5.37395C12.5048 5.42259 12.5774 5.48081 12.7014 5.48081C13.0891 5.48081 13.3247 4.93489 13.3788 4.6698C13.4055 4.54582 13.4172 4.3739 13.3192 4.25403H13.3199ZM12.9719 4.61158C12.9391 4.74584 12.874 4.8979 12.8151 5.00749C12.8493 4.87598 12.9117 4.72186 12.9719 4.61158Z" fill="white"/>
<path d="M9.75 5.31573L9.76575 5.28012C9.89932 5.26436 9.91097 5.25614 9.96166 5.11709L10.1822 4.5198C10.2192 4.4239 10.2137 4.41637 10.1336 4.41431L10.0726 4.41226L10.0856 4.37321C10.1863 4.36088 10.285 4.33417 10.3761 4.29102L10.0719 5.11709C10.0199 5.25614 10.0302 5.26436 10.1596 5.28012L10.1452 5.31573H9.75Z" fill="#6F7271"/>
<path d="M11.1784 4.34337C11.3284 4.34337 11.2962 4.53447 11.2825 4.60365C11.2661 4.68243 11.2421 4.74476 11.2188 4.79682C11.1818 4.82285 11.1147 4.84545 11.0688 4.84545C10.953 4.84545 10.9167 4.75229 10.94 4.63037C10.9667 4.48515 11.0626 4.34337 11.1784 4.34337ZM11.2085 4.29199C11.0386 4.29199 10.8503 4.46461 10.8133 4.67078C10.7804 4.82285 10.8606 4.93244 10.9825 4.93244C11.0078 4.93244 11.0345 4.92422 11.0708 4.90847L11.1948 4.85024C11.0537 5.10231 10.8236 5.26191 10.6174 5.29822L10.6133 5.34274C10.6448 5.34274 10.7359 5.3263 10.8167 5.29616C11.0722 5.20164 11.3352 4.96258 11.3983 4.61735C11.4263 4.4694 11.3969 4.29268 11.2106 4.29268H11.2092L11.2085 4.29199Z" fill="#6F7271"/>
<path d="M11.9553 4.75476C12.0991 4.75476 12.108 4.87805 12.0909 4.97326C12.0553 5.15615 11.9553 5.28492 11.8443 5.28492C11.7189 5.28492 11.7059 5.14861 11.7299 5.01915C11.7457 4.926 11.7772 4.84654 11.7984 4.8075C11.8402 4.78421 11.9018 4.75544 11.9553 4.75544V4.75476ZM12.4341 4.28418C12.3799 4.29308 12.3032 4.30541 12.2245 4.33213C11.9306 4.4246 11.6751 4.66365 11.608 5.01642C11.573 5.20204 11.6491 5.3363 11.8059 5.3363C11.984 5.3363 12.1758 5.17053 12.2183 4.94244C12.2464 4.79517 12.1827 4.6705 12.0375 4.6705C12.008 4.6705 11.9744 4.68489 11.9395 4.6979L11.8313 4.74996L11.8292 4.74859C11.9655 4.5294 12.1203 4.43145 12.2429 4.38556C12.3108 4.35816 12.382 4.33692 12.4313 4.33007L12.4347 4.28418H12.4341Z" fill="#6F7271"/>
<path d="M13.0619 4.34337C13.1688 4.34337 13.1517 4.48721 13.1304 4.58653C13.0996 4.73996 12.9195 5.2852 12.7222 5.2852C12.6222 5.2852 12.6345 5.1441 12.6571 5.03519C12.6914 4.87353 12.8653 4.34268 13.0626 4.34268L13.0619 4.34337ZM13.077 4.29199C12.7975 4.29199 12.5948 4.73928 12.5455 4.97696C12.5085 5.14958 12.5249 5.33794 12.7023 5.33794C12.9797 5.33794 13.188 4.88723 13.2359 4.64133C13.2708 4.4783 13.2571 4.29199 13.0791 4.29199H13.0763H13.077Z" fill="#6F7271"/>
<path d="M15.596 12.6428C14.4685 9.73163 15.5213 7.32464 15.5213 7.32464L14.2226 5.90332H8.78188L7.4818 7.32464C7.4818 7.32464 8.53323 9.73163 7.40577 12.6428C7.21261 13.1421 6.80505 14.5621 7.55852 15.7868C8.41816 17.1862 10.4875 18.0828 11.5033 18.6123V18.5993L11.5053 18.6123C12.517 18.0828 14.5856 17.1862 15.4473 15.7868C16.2008 14.5621 15.7891 13.1421 15.5967 12.6428H15.596Z" fill="white"/>
<path d="M1.80149 10.6229C1.60422 10.677 1.20146 10.8462 1.18844 11.1688C1.18433 11.3675 1.32749 11.4949 1.53709 11.5038C1.7556 11.5113 1.89944 11.3825 2.0337 11.1366C2.20494 10.8236 2.42002 10.5989 2.74812 10.6126C3.13171 10.6277 3.42419 10.9051 3.40501 11.3654C3.39679 11.5634 3.3235 11.738 3.29542 11.8086C3.16527 11.8168 3.00636 11.8319 2.76867 11.8538L2.74607 11.7237C2.96046 11.6661 3.23308 11.5757 3.24267 11.3141C3.25089 11.1154 3.10362 11.0031 2.918 10.9969C2.7399 10.9907 2.60702 11.1017 2.46865 11.3682C2.30084 11.697 2.07891 11.9148 1.72477 11.9004C1.30831 11.8839 1.00966 11.5661 1.02816 11.0928C1.03227 10.9688 1.06035 10.851 1.09734 10.7633C1.1309 10.6722 1.16173 10.6126 1.1857 10.5722C1.27886 10.5489 1.52339 10.5188 1.76176 10.4941L1.80218 10.6229H1.80149Z" fill="#6F7271"/>
<path d="M3.00346 13.2075C3.06443 13.5233 2.75756 13.7617 2.20479 13.8678C1.6801 13.9678 1.40131 13.8439 1.35405 13.5904C1.28966 13.2555 1.6479 13.0061 2.14108 12.9116C2.6144 12.8205 2.95483 12.9363 3.00278 13.202V13.2075H3.00346ZM3.14457 13.2219C3.03223 12.6239 2.45343 12.4362 1.99176 12.5246C1.46091 12.6246 1.11089 13.0411 1.21021 13.5644C1.30405 14.0589 1.76983 14.3637 2.37055 14.2487C2.92332 14.1446 3.23567 13.6993 3.14457 13.2246V13.2219Z" fill="#6F7271"/>
<path d="M2.61964 16.4613C2.52305 16.5051 2.43949 16.5456 2.38469 16.586C2.27441 16.4613 2.12235 16.2908 2.03672 16.0976C1.78945 15.5517 1.97028 15.0468 2.50456 14.803C3.10734 14.529 3.61559 14.8249 3.83889 15.3154C3.9293 15.5113 3.96424 15.7099 3.97999 15.8044C3.89505 15.8517 3.76285 15.927 3.5464 16.0469L3.48955 15.9544C3.77587 15.7325 3.78135 15.514 3.69436 15.3277C3.56284 15.0366 3.18953 14.9386 2.72101 15.1489C2.30866 15.3393 1.99289 15.6798 2.17509 16.0716C2.19358 16.1168 2.2203 16.1572 2.25866 16.1729C2.2929 16.1928 2.34565 16.1914 2.42305 16.1551L2.66005 16.0483C2.83335 15.9688 2.84568 15.9476 2.75868 15.6914L2.85938 15.6455L3.18474 16.364L3.0861 16.4106C3.0039 16.3051 2.99089 16.2921 2.82581 16.3682L2.62032 16.462L2.61964 16.4613Z" fill="#6F7271"/>
<path d="M3.65554 17.2618C3.85487 17.1899 4.05146 17.1159 4.25969 17.0433L4.26311 17.0502L3.89391 17.5714L3.65554 17.2618ZM3.79733 17.7016C3.74527 17.7872 3.66239 17.9153 3.61307 17.9886C3.54115 18.103 3.51033 18.1105 3.39114 17.9934L3.30552 18.0605L3.75897 18.6475L3.84391 18.5811C3.77541 18.4571 3.75897 18.4092 3.91035 18.177C4.07543 17.929 4.28229 17.6262 4.4871 17.329L4.80767 16.8611L4.68437 16.7666L3.18634 17.2557C2.93769 17.3365 2.89317 17.3132 2.78289 17.2022L2.69727 17.2673L3.06304 17.7441L3.14866 17.6769C3.04455 17.5146 3.07263 17.4961 3.20962 17.4365C3.31854 17.3906 3.43567 17.3454 3.50622 17.3228L3.79665 17.7016H3.79733Z" fill="#6F7271"/>
<path d="M5.23812 18.2198C5.35388 18.0739 5.39977 18.0191 5.40525 17.9356C5.41005 17.8506 5.37032 17.7938 5.29703 17.7171L5.36347 17.6328L5.73952 17.9363L5.69499 19.5425L5.70047 19.5473L6.02036 19.1535C6.18407 18.9541 6.26284 18.8315 6.31078 18.7623C6.36627 18.6685 6.34435 18.5877 6.21557 18.4637L6.28133 18.3801L6.80191 18.8027L6.73136 18.887C6.62998 18.8144 6.55121 18.8075 6.47038 18.8856C6.40531 18.9493 6.3012 19.0521 6.13749 19.25L5.42238 20.1302L5.28675 20.0193L5.37717 18.2938L5.371 18.2911L4.98947 18.7651C4.82576 18.9644 4.75179 19.0767 4.70315 19.1548C4.64082 19.2507 4.66411 19.3281 4.79426 19.448L4.72439 19.5329L4.20312 19.1076L4.27162 19.0233C4.38122 19.1 4.45862 19.1089 4.54013 19.0302C4.61 18.9623 4.70863 18.8678 4.8696 18.6699L5.2388 18.2198H5.23812Z" fill="#6F7271"/>
<path d="M7.70998 20.9847C7.66272 21.0786 7.62573 21.1608 7.60792 21.2279C7.44353 21.1991 7.22023 21.1656 7.02912 21.0724C6.48868 20.8094 6.31059 20.3004 6.57156 19.7751C6.86267 19.1798 7.44148 19.088 7.92918 19.325C8.12028 19.4189 8.2744 19.5504 8.34564 19.6114C8.31002 19.7052 8.25317 19.8463 8.16686 20.0744L8.06001 20.0415C8.14357 19.6881 8.00726 19.5148 7.82232 19.4223C7.536 19.2839 7.18461 19.4435 6.9572 19.9052C6.75856 20.3114 6.73116 20.7744 7.11748 20.9649C7.16201 20.9888 7.20585 21.0025 7.24763 20.9902C7.28599 20.982 7.32503 20.9505 7.36339 20.8731L7.47846 20.6381C7.56203 20.4662 7.55998 20.4422 7.32914 20.3004L7.37777 20.2025L8.08535 20.5498L8.03672 20.6491C7.90726 20.6176 7.89013 20.6176 7.80999 20.7799L7.71067 20.9861L7.70998 20.9847Z" fill="#6F7271"/>
<path d="M9.63198 20.114C9.67034 19.7934 9.64568 19.7646 9.41211 19.7126L9.42923 19.5811L10.3957 19.6982L10.3772 19.8324C10.1416 19.8263 10.1053 19.8489 10.0656 20.1674L9.97516 20.9168C9.91214 21.4428 10.0354 21.751 10.3772 21.7935C10.7444 21.838 10.9458 21.5483 11.0163 20.9722L11.0595 20.6304C11.0862 20.3927 11.0917 20.2126 11.0869 20.1016C11.0855 19.979 11.0156 19.9229 10.806 19.8818L10.8211 19.7496L11.6287 19.8489L11.6122 19.9811C11.4499 19.9708 11.3698 20.0126 11.3348 20.1345C11.3122 20.2379 11.2704 20.4154 11.2417 20.6524L11.1978 21.0085C11.1554 21.3586 11.0656 21.6634 10.8649 21.8469C10.706 21.9942 10.4718 22.0607 10.2334 22.0305C10.0169 22.0031 9.8183 21.9332 9.67445 21.7709C9.52787 21.6024 9.48266 21.3421 9.53266 20.9332L9.6313 20.1133L9.63198 20.114Z" fill="#6F7271"/>
<path d="M12.1475 20.6804C12.1214 20.4962 12.1105 20.4284 12.0523 20.3667C11.9906 20.3051 11.9255 20.2948 11.8173 20.2975L11.7988 20.1907L12.2769 20.1208L13.4318 21.2387H13.4387L13.3647 20.7387C13.3304 20.4825 13.2921 20.34 13.2722 20.2571C13.2434 20.1544 13.1681 20.1133 12.99 20.129L12.9729 20.0194L13.6352 19.9229L13.651 20.0324C13.525 20.0592 13.4688 20.1119 13.4722 20.2236C13.4756 20.3133 13.4797 20.4585 13.5174 20.7161L13.6791 21.836L13.5058 21.862L12.2989 20.6304H12.2927L12.3811 21.2353C12.4187 21.4914 12.4537 21.6236 12.4742 21.7099C12.5071 21.8175 12.5797 21.8545 12.7516 21.8401L12.7681 21.9476L12.105 22.0463L12.0872 21.9374C12.216 21.9106 12.2749 21.8586 12.2735 21.7476C12.2721 21.649 12.2694 21.5127 12.2324 21.2572L12.1482 20.6818L12.1475 20.6804Z" fill="#6F7271"/>
<path d="M14.1935 20.1176C14.1168 19.8916 14.086 19.8779 13.8963 19.9224L13.8613 19.821L14.6175 19.5635L14.6525 19.6676C14.4737 19.7484 14.4573 19.7758 14.5353 20.0032L14.8888 21.0451C14.9655 21.2718 14.9956 21.2848 15.1833 21.2389L15.2203 21.343L14.4648 21.6006L14.4299 21.4958C14.6073 21.4143 14.6251 21.3882 14.547 21.1601L14.1935 20.1183V20.1176Z" fill="#6F7271"/>
<path d="M16.4883 20.7786C16.0828 20.408 15.517 19.9011 15.2917 19.7018C15.1122 19.5429 15.0656 19.5429 14.9266 19.5983L14.8711 19.5018L15.5499 19.1223L15.6054 19.2196C15.4458 19.3319 15.4547 19.3531 15.5431 19.4401C15.6526 19.5477 16.0903 19.9436 16.4013 20.2169L16.4089 20.2128C16.3438 19.8223 16.2643 19.4216 16.2054 19.1613C16.1636 18.9716 16.1362 18.9415 15.9451 19.0291L15.8903 18.9312L16.4431 18.625L16.4972 18.7188C16.3664 18.8175 16.3383 18.8538 16.3773 19.1401C16.4082 19.3593 16.5246 20.0854 16.6328 20.6977L16.4883 20.7792V20.7786Z" fill="#6F7271"/>
<path d="M17.0416 18.6149C16.8847 18.4355 16.8498 18.4355 16.695 18.5499L16.623 18.4656L17.5539 17.6484C17.5895 17.6827 17.7389 17.8334 17.8718 17.9656L17.7964 18.0478C17.6964 17.9745 17.6183 17.9361 17.556 17.93C17.4902 17.9217 17.4149 17.9587 17.3073 18.0539L17.2272 18.1211C17.1601 18.1834 17.1546 18.1964 17.2183 18.2677L17.5984 18.6992L17.7293 18.5827C17.9005 18.4334 17.8978 18.4149 17.7772 18.2307L17.8574 18.1574L18.2779 18.6341L18.1951 18.706C18.0231 18.5581 18.0053 18.5519 17.8341 18.7026L17.7005 18.8191L18.0368 19.1992C18.1272 19.3047 18.1786 19.3458 18.2362 19.3287C18.2848 19.3157 18.341 19.2705 18.4184 19.2047C18.504 19.1266 18.578 19.0328 18.5718 18.9417C18.5718 18.8732 18.5437 18.7663 18.4903 18.6369L18.5875 18.5855C18.656 18.6875 18.8095 18.9417 18.8444 19.0163L17.8334 19.9047L17.7628 19.8232C17.9231 19.654 17.9272 19.6239 17.7711 19.4444L17.0416 18.6163V18.6149Z" fill="#6F7271"/>
<path d="M18.3794 17.0906C18.3335 17.0563 18.3137 17.0351 18.3096 17.0091C18.3061 16.9878 18.3164 16.955 18.35 16.9077C18.4322 16.8002 18.6246 16.7228 18.8548 16.8981C18.9644 16.9824 19.0411 17.083 19.0507 17.2077C19.0582 17.2851 19.0274 17.3618 18.9617 17.4475L18.9206 17.5009L18.3794 17.0913V17.0906ZM19.1466 18.1098C19.3356 18.2537 19.3391 18.2872 19.2302 18.4598L19.3199 18.5249L19.8007 17.8906L19.7138 17.8242C19.5788 17.9701 19.5459 17.9769 19.3548 17.8317L19.0206 17.5783L19.0548 17.5331C19.1062 17.4673 19.1534 17.457 19.2445 17.4769C19.4062 17.5125 19.5857 17.557 19.7343 17.568C19.9418 17.5831 20.0576 17.5605 20.272 17.3036C20.2946 17.2776 20.311 17.2563 20.3323 17.2351L20.2583 17.1625C20.2069 17.1968 20.1583 17.2084 20.072 17.2146C19.9994 17.2221 19.8768 17.2111 19.6884 17.192C19.535 17.1796 19.3247 17.1344 19.2377 17.118C19.2863 16.9193 19.2507 16.7214 19.0425 16.5638C18.9089 16.4625 18.7651 16.4378 18.6383 16.4789C18.5198 16.5173 18.4089 16.6152 18.2719 16.796L17.8301 17.3783L17.9171 17.4454C18.05 17.3057 18.0787 17.2974 18.2657 17.4399L19.1459 18.1105L19.1466 18.1098Z" fill="#6F7271"/>
<path d="M20.1174 16.3651C20.2839 16.3918 20.6428 16.3973 20.7613 16.1589C20.8326 16.013 20.7668 15.8664 20.6099 15.7918C20.4462 15.7103 20.2962 15.7603 20.114 15.898C19.8798 16.0822 19.6448 16.1761 19.3996 16.0582C19.1174 15.9185 18.9907 15.6109 19.1551 15.2712C19.2283 15.1232 19.34 15.0178 19.3873 14.9746C19.4873 15.0123 19.6133 15.052 19.7989 15.1164L19.7729 15.2205C19.5914 15.1917 19.3564 15.1705 19.2605 15.3644C19.19 15.5096 19.2653 15.6431 19.3996 15.7089C19.5325 15.7747 19.6688 15.7342 19.8633 15.5794C20.0969 15.3883 20.3346 15.2972 20.5976 15.4267C20.9079 15.5794 21.0271 15.9171 20.8538 16.2644C20.8086 16.3596 20.7483 16.4398 20.6914 16.4925C20.6373 16.548 20.5935 16.5822 20.5613 16.6069C20.4825 16.5939 20.2907 16.5336 20.1024 16.4754L20.114 16.363L20.1174 16.3651Z" fill="#6F7271"/>
<path d="M19.9437 14.4968C19.7142 14.4235 19.6868 14.4413 19.608 14.6194L19.5039 14.5865L19.7491 13.8262L19.8512 13.8604C19.8094 14.0495 19.8224 14.0824 20.0505 14.1529L21.0985 14.4892C21.3266 14.5611 21.3533 14.5447 21.4328 14.3639L21.5355 14.3995L21.2924 15.1591L21.1889 15.1262C21.2293 14.9358 21.2177 14.905 20.9889 14.8338L19.9423 14.4974L19.9437 14.4968Z" fill="#6F7271"/>
<path d="M20.0624 13.0004L20.0528 13.0669C20.0247 13.2648 20.0549 13.3347 20.0939 13.3778C20.1384 13.421 20.2145 13.4648 20.3583 13.5231L20.3432 13.6285C20.1158 13.5861 19.9199 13.5415 19.7754 13.5162L19.7836 13.4546C19.8535 13.4203 19.8651 13.3984 19.8733 13.3271L20.022 12.2743C20.0329 12.2052 20.0192 12.1743 19.972 12.1257L19.9781 12.0654C20.1008 12.0819 20.3412 12.1004 20.5474 12.1154L20.5398 12.2223C20.3782 12.2319 20.283 12.2517 20.2323 12.286C20.1775 12.3223 20.1473 12.4052 20.1282 12.5463L20.1131 12.6463L21.4467 12.834C21.6858 12.8682 21.7104 12.8442 21.7639 12.6141L21.8707 12.6298L21.7522 13.4909L21.644 13.4737C21.6522 13.2532 21.6392 13.2217 21.4008 13.1888L20.0638 12.9997L20.0624 13.0004Z" fill="#6F7271"/>
<path d="M21.1938 11.1064C21.1144 11.1125 21.0931 11.1242 21.0315 11.1571C20.8719 11.2399 20.6924 11.3495 20.3835 11.5372C20.2027 11.6475 20.1896 11.6804 20.1753 11.8181L20.0663 11.8263L20.0157 11.0838L20.1246 11.0755C20.1622 11.2495 20.189 11.2434 20.2773 11.1975C20.4705 11.0913 20.6849 10.9659 20.8678 10.8543C20.7143 10.7899 20.4273 10.6796 20.2458 10.6276C20.1403 10.5974 20.1136 10.6036 20.1047 10.8009L19.9944 10.8098L19.9492 10.1817L20.0616 10.1748C20.0903 10.3371 20.13 10.3776 20.3136 10.4625C20.4814 10.5433 20.6356 10.6173 20.9 10.7139C21.0041 10.7543 21.0226 10.7598 21.1349 10.7522L21.4671 10.7269C21.724 10.7091 21.7397 10.6878 21.7452 10.4536L21.8541 10.4447L21.9158 11.3009L21.8041 11.3084C21.7699 11.0879 21.7507 11.0673 21.4945 11.0865L21.1952 11.1064H21.1938Z" fill="#6F7271"/>
<path d="M12.6565 2.67029C12.5524 2.69495 12.5496 2.70933 12.464 2.697C12.3797 2.68399 12.4243 2.69769 12.353 2.67097C12.3106 2.65179 12.2976 2.64768 12.2517 2.62782C12.1873 2.59905 12.0263 2.54905 12.0592 2.31068C12.0914 2.0545 12.1147 1.8038 12.1647 1.7627C12.2133 1.72023 12.203 1.67365 12.2133 1.63735C12.2222 1.60036 12.2729 1.59351 12.2982 1.60105C12.325 1.60995 12.3688 1.63393 12.4414 1.64488C12.4414 1.64488 12.5154 1.63735 12.5592 1.63941C12.5866 1.64351 12.64 1.67091 12.7236 1.62023C12.7236 1.62023 12.8681 1.54008 12.8839 1.46748C12.9003 1.39282 12.8942 1.29555 12.7305 1.26952C12.5859 1.24692 12.4441 1.21678 12.3606 1.19006C12.2921 1.16951 12.2373 1.15444 12.1866 1.14143C12.1866 1.14143 12.0763 1.07978 11.9708 1.15718C11.8914 1.21472 11.8989 1.2613 11.916 1.30308C11.9427 1.37021 12.0667 1.44008 12.0523 1.46885C12.0386 1.49967 11.9688 1.53186 11.9516 1.55378C11.9304 1.57433 11.8927 1.60721 11.9023 1.65105C11.9126 1.69215 11.8886 1.73667 11.8441 1.77229C11.7968 1.80517 11.7838 1.89216 11.777 1.93394L11.6996 2.4874C11.6996 2.4874 11.5722 2.87784 12.2215 2.98606C12.2215 2.98606 12.5393 3.03332 12.6654 3.01551C12.714 3.00798 12.7339 2.96894 12.7722 2.93948C12.7976 2.91893 12.8133 2.84016 12.8092 2.8018C12.8051 2.72577 12.7339 2.64974 12.6558 2.67029H12.6565Z" fill="#6F7271"/>
<path d="M14.2188 2.2609C14.253 1.96705 14.2613 1.60264 14.2558 1.56771C14.2558 1.55401 14.2969 1.37181 14.2188 1.35057C14.1359 1.32523 14.14 1.34167 14.0914 1.3403C14.0914 1.3403 13.9907 1.31701 13.979 1.42866C13.9681 1.54168 13.914 1.64511 13.901 1.72936C13.8948 1.77457 13.8318 2.26981 13.8174 2.45338C13.7427 2.44516 13.6455 2.43146 13.5838 2.42324C13.6366 2.04377 13.6989 1.49305 13.5996 1.39989C13.5242 1.32934 13.503 1.29235 13.4304 1.29852C13.392 1.29989 13.3646 1.31016 13.3509 1.33276C13.3509 1.33276 13.3139 1.37318 13.3256 1.48414C13.3345 1.5773 13.1989 2.35817 13.1817 2.52667C13.1646 2.69586 13.0995 3.07259 13.1358 3.10273C13.1687 3.13219 13.2146 3.15068 13.2776 3.11232C13.342 3.07328 13.4379 3.12671 13.4934 3.08835C13.5174 3.07191 13.529 2.86573 13.5359 2.77463C13.5359 2.76847 13.5366 2.7534 13.54 2.73079C13.555 2.726 13.5783 2.72189 13.6057 2.71435C13.6681 2.69997 13.7352 2.71298 13.7886 2.73148C13.7742 2.8945 13.7551 3.06917 13.7564 3.07807C13.7592 3.09588 13.7441 3.23082 13.8873 3.25C14.0612 3.27946 14.0948 3.23493 14.1517 3.08081C14.2092 2.92738 14.1886 2.5027 14.2181 2.26159L14.2188 2.2609Z" fill="#6F7271"/>
<path d="M8.54901 2.48114C8.7182 2.40922 8.78053 2.21332 8.79628 2.05852C8.81341 1.90508 8.7908 1.53383 8.64217 1.45985C8.5312 1.403 8.48325 1.42355 8.46613 1.42903C8.42845 1.44204 8.37229 1.48382 8.33941 1.49067C8.29625 1.49752 8.22228 1.5078 8.08939 1.55232C7.95925 1.59685 7.74074 1.6352 7.69005 1.63931C7.64074 1.64342 7.58046 1.62767 7.53594 1.6215C7.48867 1.61876 7.4462 1.69274 7.4462 1.69274C7.4462 1.69274 7.35373 1.86741 7.3825 1.96125C7.40922 2.05441 7.46812 2.10715 7.6517 2.06468C7.8339 2.02153 7.85719 1.96468 7.92226 1.92015C7.98733 1.87289 8.19762 1.68589 8.30721 1.72151C8.41886 1.75576 8.40311 2.14688 8.2805 2.58115C8.27639 2.58115 8.29214 2.5654 8.42777 2.50786C8.48736 2.48114 8.50928 2.49827 8.54832 2.48114H8.54901Z" fill="#6F7271"/>
<path d="M10.2533 1.42571C10.2361 1.40995 10.2176 1.37228 10.2094 1.35104C10.2005 1.32707 10.1656 1.28871 10.1704 1.29488C10.1272 1.24556 10.0074 1.29488 9.96558 1.29967C9.92243 1.30789 9.85324 1.31953 9.7916 1.3483C9.74981 1.36954 9.69912 1.39899 9.61282 1.41338C9.54706 1.42365 9.48267 1.44625 9.42514 1.45721C9.39089 1.46201 9.36212 1.47091 9.34499 1.47571C9.31965 1.41612 9.29294 1.35926 9.27787 1.33186C9.25595 1.29967 9.16553 1.0065 8.99634 1.05651C8.94702 1.07089 8.93743 1.12911 8.92237 1.14829C8.92237 1.14829 8.87579 1.29145 8.91826 1.47571C8.9573 1.65654 9.08676 2.00588 9.11142 2.06684C9.13402 2.12643 9.19293 2.16822 9.23608 2.17301C9.28335 2.17575 9.32992 2.16411 9.36623 2.16411C9.4087 2.16411 9.45048 2.13739 9.47445 2.09081C9.51898 2.01615 9.50596 2.00725 9.49295 1.93943C9.47993 1.87779 9.42993 1.70243 9.42034 1.67161C9.43541 1.66613 9.46075 1.66271 9.50528 1.65586C9.60049 1.63942 9.69981 1.69421 9.76968 1.71134C9.84365 1.72983 10.0197 1.68668 10.0491 1.67298C10.1026 1.64558 10.1313 1.60037 10.1779 1.5716C10.306 1.49626 10.2697 1.44557 10.254 1.42639L10.2533 1.42571Z" fill="#6F7271"/>
<path d="M9.44235 2.30676L9.24165 2.33073C9.22248 2.28416 9.1848 2.26635 9.1848 2.26635C9.1848 2.26635 9.13069 2.25676 9.09096 2.30745C9.07658 2.328 8.91903 2.38074 8.86081 2.43896C8.84095 2.4554 8.76423 2.49102 8.71217 2.55815C8.64984 2.63281 8.45942 2.89995 8.64093 3.31504C8.79163 3.65273 9.18617 3.64109 9.27727 3.62876C9.42591 3.60958 9.78826 3.50135 9.94033 3.29723C10.1054 3.06777 10.0486 2.84789 9.97457 2.66158C9.90265 2.46704 9.65606 2.29238 9.44235 2.30676ZM9.68209 3.03831C9.5951 3.22325 9.34646 3.28764 9.17042 3.25613C8.97657 3.22325 8.89095 3.02941 8.92588 2.84515C8.9615 2.65815 9.11082 2.60541 9.11082 2.60541C9.28207 2.54308 9.28755 2.55472 9.28755 2.55472C9.49167 2.54034 9.52729 2.59856 9.5725 2.63349C9.60058 2.65267 9.78278 2.82186 9.68141 3.03831H9.68209Z" fill="#6F7271"/>
<path d="M16.8963 2.50246C16.9196 2.53808 17.0148 2.62165 17.1217 2.53945C17.2258 2.45451 17.2005 2.34834 17.1929 2.28464C17.1868 2.22505 17.0854 2.11614 16.9669 2.10449C16.9669 2.10449 16.8326 2.10723 16.834 2.22779C16.8388 2.33327 16.8676 2.46547 16.8963 2.50178V2.50246Z" fill="#6F7271"/>
<path d="M16.0046 3.88507C16.0046 3.88507 16.1416 3.94124 16.2066 3.93918C16.2573 3.93918 16.334 3.93987 16.3683 3.95699C16.4025 3.9748 16.5587 3.96658 16.6772 3.85425C16.7984 3.74191 16.9259 3.44669 16.8245 3.16448C16.8245 3.16448 16.7608 3.01858 16.7053 2.94871C16.6471 2.87884 16.8046 2.96515 16.8327 2.98228C16.8574 3.00008 16.9416 3.07475 17.0204 3.02543C17.1019 2.97269 17.0711 2.98228 17.1238 2.96515C17.1642 2.95008 17.1834 2.90967 17.1553 2.83227C17.1396 2.77404 17.1026 2.71171 17.0286 2.65486C16.9546 2.59938 16.7663 2.47197 16.7012 2.42402C16.6368 2.3747 16.4231 2.21922 16.4231 2.21922C16.4231 2.21922 16.2566 2.08633 16.1744 2.21922C16.0922 2.35073 16.0573 2.43156 16.1518 2.548C16.2484 2.66171 16.3025 2.6987 16.334 2.7261C16.334 2.7261 16.1361 2.69733 15.884 2.84391C15.7121 2.94186 15.5367 3.18777 15.6148 3.43778C15.6888 3.68163 15.8607 3.8015 16.0046 3.88438V3.88507ZM16.0703 3.17133C16.2066 2.97817 16.3957 3.08845 16.3957 3.08845C16.6334 3.21585 16.6279 3.42545 16.5806 3.5282C16.519 3.65766 16.4519 3.67478 16.4231 3.66793C16.3943 3.66314 16.3354 3.63642 16.2923 3.63368C16.2498 3.62957 16.2457 3.66108 16.1909 3.63642C16.1361 3.61519 16.0827 3.57683 16.0532 3.49943C16.0217 3.4186 15.9642 3.32408 16.071 3.17201L16.0703 3.17133Z" fill="#6F7271"/>
<path d="M17.9934 4.14719C17.9249 4.00608 17.8221 3.9595 17.6406 3.81361C17.5029 3.70264 17.457 3.60811 17.4399 3.55811C17.5132 3.44783 17.5762 3.34919 17.6016 3.30399C17.6728 3.17864 17.8283 2.98616 17.8235 2.79026C17.8221 2.61079 17.7023 2.66833 17.6988 2.67107C17.6707 2.69505 17.616 2.74642 17.5803 2.76149C17.5454 2.77382 17.4728 2.81492 17.4659 2.84917C17.4659 2.84917 17.1077 3.39988 16.9303 3.6999C16.7077 4.07938 16.6659 4.16294 16.7364 4.20199C16.7823 4.23075 16.8447 4.2424 16.9166 4.21911C16.9913 4.19788 17.0693 4.1787 17.1221 4.06157C17.1447 4.01293 17.2221 3.89101 17.3105 3.75812C17.3796 3.81429 17.3858 3.82594 17.4125 3.93896C17.4379 4.05677 17.4906 4.1876 17.6392 4.29651C17.8153 4.42186 17.9043 4.38487 17.9379 4.35542C17.9605 4.3335 18.0523 4.26637 17.9947 4.14787L17.9934 4.14719Z" fill="#6F7271"/>
<path d="M17.036 4.60124C17.036 4.60124 16.9956 4.58 16.9511 4.55397C16.8983 4.52521 16.8387 4.48068 16.8113 4.44301C16.7846 4.40602 16.5661 4.25122 16.3935 4.14231C16.1866 4.01079 15.9976 3.93955 15.8661 3.89024C15.7298 3.83955 15.7024 3.90394 15.6866 3.91832C15.6866 3.91832 15.5887 4.01559 15.7565 4.11422C15.8832 4.18957 15.9544 4.13272 16.1271 4.25053C16.301 4.36561 16.5908 4.48479 16.6819 4.56493C16.7764 4.64782 16.7922 4.69165 16.7339 4.78755C16.6757 4.88619 16.5401 5.07866 16.5401 5.07866C16.5401 5.07866 16.486 5.18963 16.5695 5.23552C16.6586 5.28005 16.7148 5.27046 16.7764 5.2547C16.8634 5.2321 16.9744 5.04373 17.0045 4.99921C17.0353 4.95605 17.1751 4.7718 17.0353 4.59987L17.036 4.60124Z" fill="#6F7271"/>
<path d="M5.25299 3.95606C5.25299 3.95606 5.17011 3.99237 5.15641 3.92045C5.15641 3.92045 5.1249 3.67934 5.00229 3.56357C5.00229 3.56357 4.9153 3.44644 4.81392 3.44644C4.7509 3.4437 4.7509 3.47795 4.74542 3.4848C4.74268 3.51631 4.75296 3.5122 4.76186 3.56563C4.77556 3.65399 4.78173 3.68276 4.70707 4.03073C4.63994 4.33965 4.65569 4.30266 4.62829 4.4013C4.60706 4.47116 4.54815 4.75748 4.64884 4.87941C4.73583 4.98558 4.84612 5.01229 4.94338 4.91366C5.03311 4.8205 5.02626 4.71433 5.04955 4.63761C5.04955 4.63761 5.07832 4.49719 5.11188 4.45198C5.17011 4.36842 5.27491 4.29102 5.41807 4.32869C5.5489 4.36225 5.58657 4.43212 5.5852 4.62391C5.5852 4.62391 5.60506 4.68213 5.60438 4.71638C5.60027 4.75132 5.54342 4.93968 5.45711 5.0527C5.37697 5.15203 5.35916 5.11093 5.31738 5.14655C5.28039 5.18353 5.20641 5.36163 5.21874 5.44108C5.2297 5.5178 5.25641 5.55342 5.39204 5.55958C5.48656 5.56369 5.55301 5.51643 5.66055 5.36368C5.74891 5.23902 5.89138 4.89653 5.88864 4.68556C5.88727 4.49925 5.84892 4.27115 5.6674 4.07456C5.51054 3.90675 5.32697 3.92935 5.25162 3.95538L5.25299 3.95606Z" fill="#6F7271"/>
<path d="M6.85334 3.85695C6.68758 3.65899 6.27933 3.10211 6.27933 3.10211C6.07315 2.83429 5.83821 2.7562 5.76355 2.75004C5.73546 2.74867 5.67176 2.78702 5.6519 2.86306C5.6245 2.96717 5.70806 3.06581 5.74711 3.1165C5.78615 3.16855 5.79985 3.16718 5.82246 3.22815C5.8478 3.28774 5.85533 3.29596 5.99575 3.47748C6.02384 3.5172 6.00808 3.58844 5.93479 3.63913C5.86287 3.69187 5.693 3.83914 5.693 3.83914C5.693 3.83914 5.70669 3.81996 5.66286 3.87202C5.61902 3.92202 5.69437 3.94874 5.73067 3.97203C5.74711 3.9823 5.80259 4.02203 5.87931 4.00353C5.93411 3.99121 6.01014 3.98984 6.07247 3.95079C6.13754 3.90901 6.23344 3.83161 6.23344 3.83161C6.28139 3.81722 6.29372 3.80489 6.32522 3.83229C6.35468 3.85969 6.75744 4.38575 6.8369 4.43712C6.91362 4.48918 6.96088 4.45562 6.99924 4.43918C7.03691 4.42137 7.08623 4.45082 7.11089 4.30629C7.14171 4.12135 7.01636 4.05559 6.85265 3.85695H6.85334Z" fill="#6F7271"/>
<path d="M19.7044 5.63484C19.7517 5.69922 19.7339 5.7095 19.7586 5.74854C19.7976 5.80539 19.8894 5.90266 19.936 5.94992C20.0065 6.02322 20.1531 6.22734 20.1415 6.28488C20.1271 6.33762 20.123 6.43146 19.8565 6.64449C19.5633 6.88354 19.5236 6.91505 19.5079 6.99245C19.4921 7.07328 19.4948 7.063 19.5195 7.11575C19.549 7.17602 19.5853 7.22055 19.7277 7.15684C19.7277 7.15684 19.8956 7.05958 20.0004 7.01917C20.101 6.97807 20.1928 6.92395 20.3189 6.78559C20.4244 6.6664 20.5182 6.47187 20.3833 6.18007C20.3038 6.01226 20.2908 6.0287 20.2565 5.95403C20.2209 5.87937 20.049 5.6684 19.9921 5.57593C19.9373 5.48346 19.875 5.36222 19.8435 5.31769C19.8229 5.2903 19.7682 5.30057 19.7346 5.31769C19.7346 5.31769 19.6613 5.33139 19.651 5.41701C19.6449 5.50606 19.6579 5.56908 19.7038 5.63415L19.7044 5.63484Z" fill="#6F7271"/>
<path d="M18.5879 5.67237C18.5879 5.70045 18.5941 5.7484 18.6187 5.77991C18.6489 5.81553 18.718 5.80594 18.7468 5.81758C18.7749 5.82991 18.8495 5.84841 18.8893 5.84841C18.927 5.84704 18.9379 5.83197 18.942 5.80251C18.9448 5.77101 19.0194 5.69771 19.0516 5.65251C19.0859 5.60935 19.0783 5.50181 19.0571 5.46414C19.0359 5.42647 18.9934 5.41551 18.9187 5.45797C18.9187 5.45797 18.8543 5.49839 18.7845 5.49291C18.7084 5.484 18.6283 5.54428 18.6057 5.58675C18.5845 5.63127 18.5886 5.64566 18.5879 5.67237Z" fill="#6F7271"/>
<path d="M19.9089 7.84893C19.8877 7.8003 19.8898 7.77153 19.8665 7.72358C19.8445 7.67084 19.563 7.31945 19.4945 7.22835C19.4582 7.17697 19.2808 6.89203 19.0315 6.54885C19.0527 6.55502 19.074 6.56255 19.1007 6.56255C19.189 6.56735 19.2301 6.5879 19.2555 6.59543C19.2808 6.60365 19.5075 6.50091 19.5349 6.39816C19.5582 6.28103 19.574 6.18102 19.5671 6.14677C19.5541 6.07759 19.4753 6.02279 19.3904 6.07006C19.3486 6.09403 19.2911 6.08924 19.2719 6.08992C19.2719 6.08992 19.1534 6.11047 19.0883 6.1913C19.024 6.27281 18.9986 6.30432 18.9664 6.33446C18.95 6.35158 18.9301 6.37487 18.9157 6.39268C18.7609 6.18582 18.5842 5.96937 18.3979 5.77347C18.3979 5.77347 18.3191 5.70428 18.2931 5.63784C18.265 5.57414 18.3068 5.50907 18.2143 5.45838C18.2143 5.45838 18.1595 5.44536 18.1027 5.44536C18.0506 5.44399 18.0417 5.47071 18.0205 5.47345C17.9958 5.47619 17.9205 5.48372 17.941 5.56386C17.9588 5.64332 17.9602 5.69538 17.9917 5.73305C18.0184 5.77073 18.0355 5.84196 18.0712 5.88512C18.1123 5.92964 18.2321 6.02143 18.2979 6.09129C18.3636 6.16184 18.9404 6.83791 19.0424 6.99683C19.1438 7.15368 19.5548 7.75577 19.6123 7.86948C19.6685 7.98113 19.6939 7.97291 19.7596 7.99826C19.8247 8.02497 19.9103 7.99552 19.9329 7.97223C19.9562 7.94894 19.9329 7.89825 19.9096 7.84756L19.9089 7.84893Z" fill="#6F7271"/>
<path d="M15.4326 13.6452C15.421 13.5678 15.4087 13.5253 15.4087 13.5253C15.3545 13.3116 15.2881 13.091 15.2155 12.8575C14.9689 12.0307 14.6381 11.0937 14.6381 9.73193C14.6381 8.9449 14.799 8.31404 14.9922 7.39686C14.773 7.16054 14.1778 6.54338 13.9873 6.33789H9.0117C8.82059 6.5427 8.22398 7.16054 8.00616 7.39686C8.20001 8.31335 8.36303 8.9449 8.36303 9.73193C8.36303 11.0937 8.03219 12.0314 7.78217 12.8575C7.7123 13.091 7.64518 13.3109 7.5897 13.5253C7.5897 13.5253 7.57942 13.5678 7.56641 13.6417L11.4975 9.82097L15.4326 13.6452Z" fill="#B60005"/>
<path d="M7.79883 15.2936C7.88102 15.4703 7.98514 15.647 8.12076 15.8237C8.72491 16.6258 9.79484 17.2457 10.6538 17.6978C10.9983 17.8773 11.2764 17.9684 11.4977 18.115V18.1163H11.5038V18.115C11.7223 17.9684 12.0011 17.8773 12.347 17.6978C13.2053 17.2464 14.2739 16.6258 14.8773 15.8237C15.0143 15.6504 15.1164 15.4716 15.1993 15.2949L11.4977 11.7988L7.79883 15.2936Z" fill="#B60005"/>
<path d="M9.0166 7.56655C9.0166 7.47202 9.00702 7.43914 8.91797 7.43161V7.39941H9.36252V7.43435C9.2721 7.44188 9.26251 7.47271 9.26251 7.57134V8.77826C9.26251 8.87347 9.26936 8.90498 9.35909 8.9132V8.94951H8.91797V8.91389C9.00702 8.90772 9.0166 8.87758 9.0166 8.77895V7.56518V7.56655Z" fill="white"/>
<path d="M10.6001 8.07656V7.57379C10.6001 7.47721 10.607 7.44502 10.5268 7.43817V7.39912H10.9405V7.43817C10.8501 7.44502 10.8412 7.47721 10.8412 7.57379V8.77523C10.8412 8.87387 10.8501 8.90401 10.9399 8.91291V8.94922H10.5022V8.9136C10.5939 8.90743 10.6008 8.87729 10.6008 8.77866V8.18479H10.0097V8.77866C10.0097 8.87661 10.0145 8.90743 10.1001 8.9136V8.94922H9.67061V8.91771C9.76034 8.91017 9.76924 8.87798 9.76924 8.78345V7.57037C9.76924 7.47173 9.76376 7.44091 9.66992 7.43337V7.39844H10.0823V7.43063C10.0049 7.43817 10.0104 7.47104 10.0104 7.56557V8.07588H10.6015L10.6001 8.07656Z" fill="white"/>
<path d="M11.1393 8.66335C11.1633 8.72636 11.3188 8.88939 11.5647 8.88939C11.7305 8.88939 11.8291 8.77842 11.8291 8.61471C11.8291 8.451 11.7161 8.35442 11.5428 8.26675C11.362 8.17291 11.1304 8.04002 11.1304 7.80302C11.1304 7.56602 11.3174 7.37012 11.6483 7.37012C11.7812 7.37012 11.886 7.40163 11.9599 7.42149C11.9682 7.51465 11.9777 7.56602 11.9866 7.63657L11.9455 7.64274C11.9188 7.5715 11.8373 7.46053 11.6065 7.46053C11.4572 7.46053 11.3688 7.57492 11.3688 7.70781C11.3688 7.85028 11.4777 7.93864 11.6503 8.0229C11.8572 8.1229 12.073 8.25168 12.073 8.51608C12.073 8.78048 11.8469 8.98391 11.5209 8.98391C11.4394 8.98391 11.3592 8.97158 11.3017 8.95377C11.2366 8.93939 11.1839 8.91952 11.1387 8.90103C11.1181 8.83322 11.1113 8.74897 11.0996 8.67499L11.1387 8.66472L11.1393 8.66335Z" fill="white"/>
<path d="M12.649 14.5722L12.536 14.9023C12.536 14.9023 12.6558 14.9181 12.7661 14.9475L12.573 15.4674C12.573 15.4674 12.1949 15.4037 11.8311 15.3852L11.8517 14.8229C11.8517 14.8229 11.9332 14.8215 12.0421 14.8345L12.0805 14.505C11.89 14.49 11.6989 14.4824 11.5024 14.4824C11.3058 14.4824 11.1188 14.49 10.9297 14.505L10.9674 14.8345C11.077 14.8215 11.1537 14.8229 11.1537 14.8229L11.1763 15.3852C10.8146 15.4044 10.4379 15.4674 10.4379 15.4674L10.2406 14.9468C10.3585 14.9194 10.4728 14.9016 10.4728 14.9016L10.3605 14.5722C9.95021 14.6372 9.55224 14.7352 9.16797 14.866C9.65361 15.5366 10.1235 16.4675 10.1235 16.4675C11.6174 16.1709 12.8826 16.4675 12.8826 16.4675C13.1086 15.988 13.647 15.114 13.8402 14.866C13.4552 14.7338 13.0566 14.6352 12.649 14.5715V14.5722Z" fill="white"/>
<path d="M3.72293 7.87385L3.64895 8.01084C3.4373 8.02591 3.11193 8.04783 2.78315 7.87042C2.45368 7.69438 2.28449 7.41286 2.17969 7.22792L2.25298 7.08887C2.44546 7.38957 2.65917 7.57451 2.87836 7.68959C3.09824 7.80672 3.36811 7.88001 3.72293 7.87385Z" fill="#6F7271"/>
<path d="M3.23598 5.37675C3.4497 5.36305 3.7778 5.34318 4.1059 5.51785C4.43469 5.69457 4.60113 5.97678 4.70731 6.16035L4.63333 6.29803C4.44085 6.00007 4.22782 5.81444 4.01 5.69868C3.79081 5.58155 3.51819 5.50689 3.16406 5.51579L3.23598 5.37675Z" fill="#6F7271"/>
<path d="M20.9609 8.90513C20.9527 9.05719 20.826 9.16816 20.6726 9.16199C20.5246 9.15377 20.4095 9.02569 20.4185 8.87568C20.4274 8.72498 20.5561 8.61196 20.7041 8.6195C20.8548 8.62772 20.9692 8.75718 20.9609 8.90581V8.90513Z" fill="#6F7271"/>
<path d="M2.75152 8.90513C2.7433 9.05719 2.61589 9.16816 2.46451 9.16199C2.3145 9.15377 2.19874 9.02569 2.2097 8.87568C2.21792 8.72498 2.34533 8.61196 2.49534 8.6195C2.6474 8.62772 2.76042 8.75718 2.75152 8.90581V8.90513Z" fill="#6F7271"/>
<path d="M2.78881 6.4939L2.96827 6.17676L3.1354 6.27266L3.04773 6.42678C3.12855 6.40897 3.21281 6.41787 3.28404 6.45966C3.46488 6.56377 3.52789 6.80077 3.41487 6.99804C3.30048 7.19669 3.06691 7.26176 2.88539 7.16038C2.81347 7.11723 2.76278 7.05216 2.73607 6.97475L2.64702 7.13024L2.47852 7.03572L2.66483 6.71104L2.50797 6.62131L2.63195 6.40486L2.78812 6.49322L2.78881 6.4939ZM3.16417 6.65487C3.07513 6.60418 2.95457 6.63706 2.9121 6.71173C2.86963 6.7857 2.90388 6.90694 2.99224 6.95832C3.08061 7.00832 3.20185 6.97544 3.245 6.90078C3.2861 6.82612 3.2539 6.70625 3.16486 6.65487H3.16417ZM3.37514 6.04114L3.48679 5.84798L3.65872 5.9473L3.54913 6.14046L3.84778 6.3117L3.73338 6.51582L2.89772 6.03908L3.01485 5.83496L3.37583 6.04182L3.37514 6.04114ZM3.61214 7.24806L3.44501 7.15285L3.906 6.34458L4.44028 6.64871L4.32246 6.8542L3.956 6.64528L3.61146 7.24874L3.61214 7.24806Z" fill="#6F7271"/>
</g>
<defs>
<clipPath id="clip0_4393_53139">
<rect width="22.9979" height="23" fill="white"/>
</clipPath>
</defs>
</svg>
