<svg width="23" height="23" viewBox="0 0 23 23" fill="none" xmlns="http://www.w3.org/2000/svg">
<g clip-path="url(#clip0_4393_55248)">
<path d="M0 11.5005C0 17.8414 5.15905 23.0005 11.4995 23.0005C17.84 23.0005 23 17.8414 23 11.5005C23 5.15954 17.8409 0 11.4995 0C5.15809 0 0 5.15857 0 11.5005Z" fill="#0C2D83"/>
<path d="M2.75781 11.4993C2.75781 16.3196 6.67989 20.2422 11.5002 20.2422C16.3206 20.2422 20.2431 16.3196 20.2431 11.4993C20.2431 6.67892 16.321 2.75684 11.5002 2.75684C6.67941 2.75684 2.75781 6.67843 2.75781 11.4993Z" fill="white"/>
<path d="M5.66558 13.9004L5.3457 14.4536L5.78831 14.703L6.42612 14.3343L5.66558 13.9004Z" fill="#1F60A9"/>
<path d="M5.86719 15.3585L6.50645 15.358L6.5108 14.4834L5.87299 14.8516L5.86719 15.3585Z" fill="#1F60A9"/>
<path d="M17.1153 7.6582H16.4765L16.4727 8.53423L17.11 8.16604L17.1153 7.6582Z" fill="#1F60A9"/>
<path d="M17.3182 9.11655L17.638 8.5633L17.1964 8.31445L16.5586 8.68313L17.3182 9.11655Z" fill="#1F60A9"/>
<path d="M16.5586 14.3255L17.1964 14.6937L17.6385 14.4449L17.3187 13.8916L16.5586 14.3255Z" fill="#1F60A9"/>
<path d="M16.4727 14.4746L16.4765 15.3497H17.1153L17.11 14.8423L16.4727 14.4746Z" fill="#1F60A9"/>
<path d="M6.42612 8.67386L5.78831 8.30566L5.3457 8.55451L5.66558 9.10776L6.42612 8.67386Z" fill="#1F60A9"/>
<path d="M6.5108 8.52496L6.50645 7.64941H5.86719L5.87299 8.15677L6.5108 8.52496Z" fill="#1F60A9"/>
<path d="M12.0218 4.7002L11.5859 4.95822V5.69461L12.3407 5.25393L12.0218 4.7002Z" fill="#1F60A9"/>
<path d="M11.4129 4.95919L10.9761 4.7002L10.6562 5.25393L11.4129 5.69509V4.95919Z" fill="#1F60A9"/>
<path d="M11.4133 6.07433L10.4942 5.52832L10.1777 6.07723L11.4133 6.80927V6.07433Z" fill="#1F60A9"/>
<path d="M12.503 5.52832L11.5859 6.07336V6.80878L12.82 6.07723L12.503 5.52832Z" fill="#1F60A9"/>
<path d="M11.5859 18.0318L12.0218 18.2903L12.3407 17.7361L11.5859 17.2959V18.0318Z" fill="#1F60A9"/>
<path d="M10.9761 18.2908L11.4129 18.0323V17.2959L10.6562 17.7366L10.9761 18.2908Z" fill="#1F60A9"/>
<path d="M11.7716 4.25162C11.7716 4.47388 11.6494 4.65412 11.4986 4.65412C11.3478 4.65412 11.2266 4.47388 11.2266 4.25162C11.2266 4.02935 11.3483 3.84863 11.4986 3.84863C11.6489 3.84863 11.7716 4.02886 11.7716 4.25162Z" fill="#1F60A9"/>
<path d="M11.7716 18.7477C11.7716 18.97 11.6494 19.1497 11.4986 19.1497C11.3478 19.1497 11.2266 18.9695 11.2266 18.7477C11.2266 18.5259 11.3483 18.3447 11.4986 18.3447C11.6489 18.3447 11.7716 18.525 11.7716 18.7477Z" fill="#1F60A9"/>
<path d="M17.9134 8.11213C17.7206 8.22327 17.5036 8.2078 17.4282 8.07734C17.3529 7.9464 17.4476 7.7507 17.6408 7.63957C17.8332 7.52843 18.0506 7.5439 18.126 7.67484C18.2009 7.8053 18.1052 8.001 17.9134 8.11213Z" fill="#1F60A9"/>
<path d="M5.35862 15.3601C5.16631 15.4712 4.94887 15.4553 4.87349 15.3253C4.79812 15.1948 4.89331 14.9991 5.08562 14.8875C5.27841 14.7764 5.49536 14.7923 5.57074 14.9223C5.6466 15.0532 5.55093 15.2489 5.35862 15.3601Z" fill="#1F60A9"/>
<path d="M5.35888 7.63899C5.55119 7.75013 5.64638 7.94582 5.571 8.07628C5.49562 8.20675 5.27819 8.22221 5.08588 8.11107C4.89308 7.99994 4.79789 7.80473 4.87375 7.67378C4.94913 7.54284 5.16609 7.52738 5.35888 7.63899Z" fill="#1F60A9"/>
<path d="M17.9132 14.8875C18.105 14.9986 18.2007 15.1943 18.1253 15.3253C18.0494 15.4553 17.833 15.4712 17.6402 15.3601C17.4474 15.2489 17.3531 15.0532 17.428 14.9223C17.5034 14.7923 17.7199 14.7764 17.9132 14.8875Z" fill="#1F60A9"/>
<path d="M15.4805 13.4568L16.6808 12.7808L16.3667 12.2314L15.1621 12.9094L15.4805 13.4568Z" fill="#1F60A9"/>
<path d="M14.5469 13.9619L14.5609 15.3554L15.1948 15.353L15.1799 13.9619H14.5469Z" fill="#1F60A9"/>
<path d="M7.83687 12.9264L6.61729 12.2402L6.30273 12.7896L7.5199 13.4753L7.83687 12.9264Z" fill="#1F60A9"/>
<path d="M7.80161 13.9619L7.78711 15.3617L8.42009 15.3641L8.43507 13.9619H7.80161Z" fill="#1F60A9"/>
<path d="M15.5233 7.6543L15.5078 9.03333H15.6074L16.1437 8.72312L16.1572 7.65478L15.5233 7.6543Z" fill="#1F60A9"/>
<path d="M16.2295 8.87305L15.6676 9.19679L15.6309 9.26153L16.8437 9.94429L17.1606 9.3949L16.2295 8.87305Z" fill="#1F60A9"/>
<path d="M16.8438 13.0645L15.6445 13.739L15.6962 13.8284L16.2292 14.1357L17.1608 13.6134L16.8438 13.0645Z" fill="#1F60A9"/>
<path d="M16.1442 14.2852L15.5856 13.9619H15.5078L15.5238 15.353H16.1577L16.1442 14.2852Z" fill="#1F60A9"/>
<path d="M11.3683 16.208L10.1777 16.9135L10.4942 17.4624L11.4133 16.9164V16.2873L11.3683 16.208Z" fill="#1F60A9"/>
<path d="M11.5859 16.2839V16.9173L12.503 17.4624L12.82 16.9135L11.6299 16.208L11.5859 16.2839Z" fill="#1F60A9"/>
<path d="M7.4147 13.9619L6.83922 14.2939L6.82617 15.3617H7.45964L7.47558 13.9619H7.4147Z" fill="#1F60A9"/>
<path d="M7.35689 13.7574L6.13924 13.0732L5.82227 13.6226L6.75435 14.1454L7.3221 13.8169L7.35689 13.7574Z" fill="#1F60A9"/>
<path d="M7.33273 9.19765L6.75386 8.86328L5.82227 9.3861L6.13924 9.93549L7.36172 9.24839L7.33273 9.19765Z" fill="#1F60A9"/>
<path d="M7.47558 9.03422L7.45964 7.64648L6.82617 7.64697L6.83922 8.71482L7.39199 9.03422H7.47558Z" fill="#1F60A9"/>
<path d="M10.8912 15.375L9.69531 16.0824L10.0142 16.6294L11.2058 15.9244L10.8912 15.375Z" fill="#1F60A9"/>
<path d="M11.7949 15.9254L12.985 16.6294L13.3035 16.0824L12.1129 15.3779L11.7949 15.9254Z" fill="#1F60A9"/>
<path d="M15.4679 9.54492L15.1523 10.0938L16.3656 10.7771L16.6797 10.2277L15.4679 9.54492Z" fill="#1F60A9"/>
<path d="M15.1803 9.03379L15.1944 7.65524L14.5609 7.65234L14.5469 9.03379H15.1803Z" fill="#1F60A9"/>
<path d="M12.1021 7.61811L13.3024 6.9083L12.984 6.36133L11.7852 7.07017L12.1021 7.61811Z" fill="#1F60A9"/>
<path d="M11.2121 7.07017L10.0142 6.36133L9.69531 6.9083L10.896 7.6186L11.2121 7.07017Z" fill="#1F60A9"/>
<path d="M7.52425 9.53125L6.30273 10.2188L6.61729 10.7687L7.84026 10.0802L7.52425 9.53125Z" fill="#1F60A9"/>
<path d="M8.43507 9.0337L8.42009 7.64355L7.78711 7.64645L7.80161 9.0337H8.43507Z" fill="#1F60A9"/>
<path d="M14.6777 12.0791L14.9971 12.627L16.2032 11.9477L15.9843 11.5693H15.5808L14.6777 12.0791Z" fill="#1F60A9"/>
<path d="M13.4495 7.92633L13.6703 7.54364L13.4673 7.19043L12.2676 7.90072L12.5749 8.43127L13.4495 7.92633Z" fill="#1F60A9"/>
<path d="M13.5898 9.03378H14.2209L14.2354 7.65137L13.7986 7.65185L13.5898 8.01376V9.03378Z" fill="#1F60A9"/>
<path d="M14.9895 10.377L14.6875 10.9027L15.5563 11.4037H16.0042L16.2033 11.0602L14.9895 10.377Z" fill="#1F60A9"/>
<path d="M13.5898 13.9619V14.9529L13.8208 15.353L14.2354 15.3564L14.2204 13.9619H13.5898Z" fill="#1F60A9"/>
<path d="M12.5943 14.5508L12.2773 15.0958L13.4674 15.8003L13.6791 15.4384L13.4534 15.0475L12.5943 14.5508Z" fill="#1F60A9"/>
<path d="M9.52313 15.0449L9.30859 15.4175L9.53135 15.8006L10.7277 15.0923L10.4083 14.5352L9.52313 15.0449Z" fill="#1F60A9"/>
<path d="M9.37908 13.9619H8.76107L8.74609 15.3651L9.14569 15.3646L9.37908 14.9607V13.9619Z" fill="#1F60A9"/>
<path d="M7.42194 11.5693H7.0006L6.7793 11.9559L7.99984 12.6435L8.32117 12.0878L7.42194 11.5693Z" fill="#1F60A9"/>
<path d="M8.30715 10.8914L8.00274 10.3623L6.7793 11.0513L6.98369 11.4036H7.42388L8.30715 10.8914Z" fill="#1F60A9"/>
<path d="M9.75754 8.06211L10.4195 8.44287L10.7321 7.90121L9.53044 7.19043L9.31445 7.5649L9.52126 7.92295L9.75754 8.06211Z" fill="#1F60A9"/>
<path d="M9.37908 9.03369V8.00836L9.1684 7.64354L8.74609 7.64258L8.76107 9.03369H9.37908Z" fill="#1F60A9"/>
<path d="M9.63095 8.7537C9.69328 8.72374 9.77156 8.71697 9.84694 8.74113L10.1871 8.84792L10.3383 8.58554L9.54688 8.13086V8.82569C9.56765 8.79525 9.59664 8.77061 9.63143 8.7537H9.63095Z" fill="#1F60A9"/>
<path d="M13.0848 8.78365L13.1791 8.79042C13.1791 8.79042 13.3187 8.79622 13.4236 8.89575V8.13086L12.6562 8.57395L12.778 8.78317H13.0848V8.78365Z" fill="#1F60A9"/>
<path d="M9.82904 14.3356C9.79763 14.3404 9.76188 14.3418 9.73578 14.3418C9.7266 14.3418 9.71742 14.3418 9.70776 14.3404C9.69809 14.3418 9.6778 14.3356 9.6778 14.3356C9.63528 14.3254 9.59662 14.3051 9.56522 14.2761C9.55797 14.2694 9.5512 14.2612 9.54492 14.2539V14.8405L10.3248 14.3916L10.2499 14.2607C10.0943 14.2993 9.94935 14.323 9.82856 14.3356H9.82904Z" fill="#1F60A9"/>
<path d="M13.2701 14.3421C13.2701 14.3421 13.2513 14.3484 13.2412 14.3469C13.231 14.3479 13.2136 14.3469 13.2015 14.3455C13.1759 14.3431 13.1484 14.3411 13.1295 14.3373C13.0411 14.3286 12.944 14.3126 12.8348 14.289C12.8097 14.2841 12.7831 14.2759 12.758 14.2706L12.6797 14.4054L13.4257 14.8379V14.2324C13.3905 14.2865 13.3359 14.3266 13.2701 14.3416V14.3421Z" fill="#1F60A9"/>
<path d="M12.4348 14.1757C12.3667 14.1506 12.301 14.1226 12.2386 14.0931C12.1932 14.0713 12.1497 14.0491 12.1082 14.0254C12.1053 14.023 12.1009 14.0211 12.0975 14.0187C12.0671 14.0013 12.0386 13.9844 12.0106 13.966C11.9753 13.9428 11.941 13.9196 11.9081 13.8945C11.9038 13.8921 11.9004 13.8892 11.897 13.8868C11.8617 13.8597 11.8274 13.8317 11.7946 13.8037C11.6694 13.693 11.566 13.5669 11.4824 13.4277C11.3988 13.5683 11.2935 13.694 11.1679 13.8056C11.1311 13.837 11.0939 13.8684 11.0533 13.8979C11.0514 13.8988 11.05 13.9003 11.0485 13.9017C10.9857 13.9481 10.9185 13.9911 10.847 14.0308C10.8277 14.0419 10.8079 14.0525 10.7881 14.0627C10.7668 14.0747 10.7456 14.0844 10.7233 14.095C10.662 14.124 10.5972 14.1506 10.53 14.1757C10.4924 14.1897 10.4542 14.2023 10.416 14.2149L11.4984 16.1027L12.5812 14.2236C12.5324 14.2086 12.4846 14.1946 12.4348 14.1762V14.1757Z" fill="#0C2D83"/>
<path d="M14.5926 11.9326L15.37 11.4866L14.6051 11.0459L14.3418 11.503L14.5926 11.9326Z" fill="#1F60A9"/>
<path d="M8.38877 11.0361L7.60938 11.487L8.40278 11.9445L8.6579 11.5034L8.38877 11.0361Z" fill="#1F60A9"/>
<path d="M15.4744 9.20044H13.5363C13.5363 9.20527 13.5373 9.20962 13.5363 9.21542V9.22315C13.532 9.4749 13.5184 9.48553 13.4909 9.69233C13.4836 9.74162 13.4764 9.78945 13.4687 9.83487C13.4677 9.83922 13.4667 9.84406 13.4667 9.84792C13.4537 9.92475 13.4387 9.99771 13.4232 10.0683C13.4232 10.0721 13.4218 10.076 13.4203 10.0803C13.4102 10.1248 13.3991 10.1688 13.3885 10.2103C13.3358 10.4142 13.2725 10.5896 13.2063 10.7384C13.3063 10.8921 13.4266 11.0516 13.5716 11.2086C13.5759 11.212 13.5793 11.2158 13.5827 11.2192C13.6214 11.2579 13.645 11.3096 13.645 11.3661C13.645 11.384 13.6426 11.4024 13.6373 11.4202C13.6281 11.4565 13.6078 11.4888 13.5808 11.5149C13.5788 11.5169 13.5764 11.5188 13.5745 11.5212C13.5329 11.5584 13.4759 11.5821 13.4141 11.5821C13.3522 11.5821 13.2981 11.5599 13.2565 11.5241L13.2541 11.527C13.2541 11.527 13.1222 11.397 12.955 11.183C12.797 11.4038 12.6695 11.4917 12.6695 11.4917L12.6656 11.4893C12.625 11.5246 12.5694 11.5468 12.5095 11.5468C12.4076 11.5468 12.3211 11.485 12.2911 11.4004C12.2505 11.4599 12.18 11.499 12.0978 11.499C12.0457 11.499 11.9978 11.483 11.9597 11.4565C11.9597 11.4565 11.9587 11.4555 11.9568 11.4541C11.9336 11.4371 11.9142 11.4164 11.8997 11.3922C11.806 11.2719 11.6403 10.9593 11.6987 10.2958V10.2949C11.6987 10.2949 11.6987 10.2929 11.6987 10.2915C11.7016 10.262 11.7127 10.234 11.7282 10.2103C11.7678 10.1475 11.8408 10.1059 11.9249 10.1059C12.0089 10.1059 12.0819 10.1475 12.122 10.2103C12.1418 10.2412 12.1529 10.2784 12.1529 10.3171C12.1529 10.3321 12.1505 10.3471 12.1471 10.3611C12.1428 10.4099 12.1085 10.8346 12.2935 11.1801C12.3013 11.1917 12.3071 11.2052 12.3124 11.2178C12.3249 11.198 12.3419 11.1811 12.3593 11.1661C12.482 11.0385 12.5844 10.9027 12.6675 10.7641C12.5665 10.5969 12.4718 10.4089 12.4013 10.2098C12.3849 10.1673 12.3704 10.1243 12.3583 10.0799C12.3568 10.0755 12.3564 10.0716 12.3544 10.0678C12.3336 9.99529 12.3163 9.92185 12.3032 9.84744C12.3018 9.84357 12.3013 9.83874 12.3008 9.83439C12.2921 9.78752 12.2858 9.74017 12.2805 9.69185C12.2776 9.65368 12.2747 9.61695 12.2737 9.57926H12.2747C12.2747 9.57588 12.2737 9.57347 12.2737 9.57008C12.2737 9.45364 12.3762 9.35845 12.5028 9.35845C12.6226 9.35845 12.7207 9.44349 12.7299 9.55317C12.7299 9.55317 12.7352 9.60391 12.755 9.69137C12.7642 9.73195 12.7763 9.77979 12.7917 9.83391C12.7917 9.83826 12.7946 9.84309 12.7951 9.84695C12.8144 9.9117 12.8371 9.9866 12.8676 10.0673C12.8695 10.0712 12.8705 10.075 12.8724 10.0794C12.8864 10.118 12.9024 10.1576 12.9202 10.1987C12.9328 10.1586 12.9444 10.1195 12.9545 10.0794C12.955 10.075 12.9565 10.0712 12.9575 10.0673C12.9773 9.99095 12.9937 9.9175 13.0072 9.84695C13.0072 9.84309 13.0087 9.83826 13.0087 9.83391C13.0178 9.78511 13.0251 9.73727 13.0314 9.69137C13.057 9.5005 13.0633 9.43189 13.0599 9.31351C13.0444 9.21397 12.9618 9.22315 12.9618 9.22315H12.4781L12.4486 9.22412C12.3274 9.22219 12.2302 9.12458 12.2302 9.00716C12.2302 8.97817 12.2302 8.94387 12.2375 8.91777C12.2592 8.83998 12.3216 8.782 12.4153 8.78055L12.4578 8.78248H12.5859L11.4982 6.90527L10.3468 8.90231C10.4526 8.95643 10.5077 9.0666 10.47 9.1642C10.4284 9.27679 10.2835 9.33187 10.1501 9.28838L9.86501 9.19948H7.52539L8.85079 11.5024L7.52539 13.7951H9.96793C10.0477 13.7777 10.1279 13.7608 10.2192 13.7323C10.4366 13.6618 10.684 13.5671 10.8589 13.3868C10.901 13.3438 10.9392 13.3047 10.9744 13.254C10.9773 13.2496 10.9797 13.2453 10.9822 13.2419C11.0256 13.1766 11.0624 13.1061 11.0918 13.0278C11.0938 13.024 11.0947 13.0196 11.0962 13.0157C11.1102 12.9751 11.1228 12.9331 11.1319 12.8901C11.1382 12.8645 11.1435 12.837 11.1479 12.8094H9.82491C9.67753 12.8094 9.55625 12.6973 9.55625 12.5601V12.5374C9.55625 12.4001 9.67705 12.2885 9.82491 12.2885H11.1991V11.9638C11.1991 11.8276 11.3252 11.7155 11.4808 11.7155H11.5064C11.662 11.7155 11.7886 11.8276 11.7886 11.9638V12.2885H13.1531C13.3005 12.2885 13.4218 12.4001 13.4218 12.5374V12.5601C13.4218 12.6968 13.3 12.8094 13.1531 12.8094H11.8166C11.821 12.837 11.8258 12.8645 11.8321 12.8901C11.8418 12.9331 11.8543 12.9747 11.8683 13.0157C11.8693 13.0196 11.8712 13.024 11.8727 13.0278C11.9031 13.1061 11.9389 13.1766 11.9814 13.2419C11.9853 13.2457 11.9877 13.2496 11.9906 13.254C12.0254 13.3047 12.0616 13.3525 12.1056 13.3926C12.3235 13.5907 12.5554 13.6753 12.8062 13.7458C12.8739 13.7647 12.9241 13.7811 12.9715 13.7951H15.4749L14.1514 11.5024L15.4749 9.19948L15.4744 9.20044ZM9.46686 9.51452C9.48232 9.47393 9.5118 9.44011 9.54949 9.41643C9.61375 9.37632 9.70266 9.36424 9.78818 9.39082L10.3163 9.56187C10.3917 9.587 10.4492 9.63822 10.4772 9.69765C10.4975 9.74355 10.5014 9.79284 10.4845 9.84019C10.4845 9.84116 10.4845 9.84261 10.483 9.84309C10.483 9.84695 10.4811 9.84985 10.4801 9.85324C10.4332 9.95761 10.2931 10.0083 10.1631 9.9663L9.81331 9.85324L9.77466 9.84019L9.63453 9.79574C9.57558 9.77689 9.52823 9.74065 9.49634 9.69765C9.49005 9.68943 9.48474 9.68074 9.47894 9.67156C9.45333 9.62227 9.44705 9.5667 9.46686 9.51452ZM10.3269 10.3722C10.354 10.9467 9.8597 11.455 9.82394 11.4908C9.78045 11.5401 9.71426 11.572 9.63888 11.572C9.59153 11.572 9.54804 11.5594 9.51035 11.5367C9.46396 11.5096 9.42772 11.4676 9.41081 11.4193C9.41081 11.4183 9.41081 11.4178 9.41033 11.4173C9.40356 11.397 9.40066 11.3753 9.40066 11.3526C9.40066 11.2859 9.43255 11.2265 9.48377 11.1859C9.4886 11.1811 9.49295 11.1772 9.49827 11.1724C9.87709 10.7848 9.85728 10.32 9.85728 10.32H9.8626C9.86791 10.2784 9.88724 10.2408 9.91575 10.2103C9.95875 10.1654 10.023 10.1359 10.095 10.1359C10.167 10.1359 10.2313 10.1654 10.2748 10.2103C10.3081 10.2461 10.3289 10.2925 10.3289 10.3432C10.3289 10.3533 10.3284 10.363 10.3265 10.3727L10.3269 10.3722ZM10.7671 11.3922C10.7526 11.4159 10.7338 11.4371 10.7106 11.4541C10.7092 11.4555 10.7077 11.4565 10.7077 11.4565C10.669 11.483 10.6212 11.499 10.5695 11.499C10.4439 11.499 10.341 11.4043 10.341 11.2878C10.341 11.2492 10.3535 11.212 10.3728 11.1801C10.5579 10.8346 10.5231 10.4099 10.5183 10.3611C10.5149 10.3471 10.5135 10.3321 10.5135 10.3171C10.5135 10.2784 10.5251 10.2412 10.5449 10.2103C10.585 10.1475 10.6584 10.1059 10.7415 10.1059C10.8246 10.1059 10.899 10.1475 10.9387 10.2103C10.9541 10.2345 10.9643 10.262 10.9681 10.2915C10.9681 10.2915 10.9681 10.2944 10.9681 10.2949V10.2958C11.0261 10.9588 10.8614 11.2719 10.7667 11.3922H10.7671ZM11.6084 10.0683V11.3738C11.6084 11.5145 11.4837 11.6309 11.3301 11.6309H11.3262C11.1735 11.6309 11.0488 11.5149 11.0488 11.3738V9.91605H10.8512C10.7715 9.91605 10.7005 9.88948 10.6492 9.84792C10.6444 9.84406 10.6396 9.83922 10.6352 9.83487C10.5966 9.79767 10.5739 9.75032 10.5739 9.6991V9.69233C10.5782 9.57637 10.7019 9.48214 10.8517 9.48214H11.0493V8.78151C11.0493 8.72643 11.0682 8.67521 11.101 8.63269C11.1508 8.56794 11.2339 8.52494 11.3267 8.52494H11.3305C11.4837 8.52494 11.6089 8.6409 11.6089 8.78151V8.85496H11.8765C12.0288 8.85496 12.1539 8.95208 12.1539 9.07191C12.1539 9.19174 12.0288 9.28838 11.8765 9.28838H11.6089V9.48214H11.8968C12.0471 9.48214 12.1694 9.57637 12.1737 9.69233C12.1737 9.69475 12.1747 9.69668 12.1747 9.6991C12.1747 9.75032 12.151 9.79767 12.1123 9.83487C12.108 9.83922 12.1027 9.84406 12.0978 9.84792C12.0476 9.88996 11.9761 9.91605 11.8964 9.91605H11.6084V10.0683Z" fill="#0C2D83"/>
<path d="M4.58694 3.81727L3.66211 4.80733L3.76696 4.90542C3.76696 4.90542 4.14289 4.50244 4.16076 4.48359C4.17623 4.49761 4.2289 4.54689 4.24387 4.56139C4.22648 4.58023 3.88583 4.94504 3.88583 4.94504L3.99068 5.04313C3.99068 5.04313 4.68648 4.29805 4.70484 4.27824C4.72369 4.2966 4.92663 4.48553 4.92663 4.48553L5.0769 4.32462L4.75026 4.01925C4.75026 4.01925 4.41154 4.38164 4.39463 4.4C4.37917 4.38599 4.32602 4.33622 4.31104 4.32221C4.32892 4.30288 4.70097 3.90425 4.70097 3.90425L4.59612 3.80664L4.58694 3.81679V3.81727Z" fill="white"/>
<path d="M3.83258 3.91299L3.70792 4.04683L3.71033 4.05456C3.78426 4.29519 3.58518 4.54984 3.52237 4.62232L3.51367 4.63246L3.52285 4.64358L3.61659 4.73055L3.62529 4.72089C3.87365 4.44208 3.9239 4.24011 3.92052 4.11593C4.0447 4.11061 4.24281 4.04683 4.50373 3.78011L4.51292 3.76996L4.40806 3.67188L4.39647 3.68299C4.30997 3.76948 4.08191 3.96469 3.84514 3.91009L3.83645 3.90767L3.83161 3.91347L3.83258 3.91299Z" fill="white"/>
<path d="M6.54225 1.88811L6.37603 1.98861C6.37603 1.98861 6.42242 2.06544 6.43353 2.08428C6.41372 2.09636 6.22382 2.21185 6.20353 2.22441C6.19242 2.20701 6.15859 2.15048 6.15859 2.15048L5.5 2.55057L5.78267 3.01588L6.44174 2.6158C6.44174 2.6158 6.40744 2.55926 6.39681 2.54235C6.41758 2.53027 6.60748 2.41479 6.62826 2.40222C6.63937 2.42107 6.7017 2.52302 6.71716 2.54912C6.62681 2.56071 6.53307 2.59357 6.44513 2.6472C6.21319 2.78781 6.09771 3.02168 6.18662 3.16809C6.27553 3.31449 6.53597 3.31933 6.76742 3.17872C6.99887 3.03859 7.11435 2.80521 7.02689 2.6588L6.55481 1.88086L6.54321 1.88811H6.54225ZM6.05471 2.38338C6.06727 2.40464 6.17357 2.57956 6.18662 2.60082C6.16536 2.61338 5.90733 2.77042 5.88607 2.78298C5.87351 2.76172 5.76721 2.58729 5.75416 2.56554C5.77494 2.55298 6.03345 2.39546 6.05471 2.38338ZM6.50794 2.20508C6.51761 2.22151 6.5437 2.26403 6.55336 2.28046C6.53307 2.29302 6.34317 2.40802 6.32239 2.42107C6.31273 2.40416 6.28664 2.36212 6.27697 2.34521C6.29727 2.33313 6.48716 2.21765 6.50794 2.20508ZM6.37555 3.05212C6.32916 2.97674 6.39536 2.85208 6.52244 2.77477C6.64952 2.69746 6.79013 2.69697 6.83651 2.77283C6.8829 2.8487 6.8167 2.97336 6.68962 3.05019C6.56254 3.1275 6.42193 3.12846 6.37603 3.05212H6.37555Z" fill="white"/>
<path d="M8.06596 1.6214C8.12346 1.81902 8.35298 1.92532 8.57766 1.85961C8.71151 1.82047 8.8183 1.72673 8.86565 1.60787C8.87531 1.60497 9.13479 1.52959 9.15846 1.52234C9.16619 1.54892 9.32372 2.08816 9.32372 2.08816L9.52811 2.02776L9.20098 0.908203L8.99611 0.968119C8.99611 0.968119 9.03187 1.08988 9.03863 1.11259C9.01496 1.11936 8.75306 1.19619 8.74388 1.1986C8.64 1.12661 8.50035 1.10535 8.36796 1.144C8.14376 1.20972 8.00846 1.42377 8.06596 1.62091V1.6214ZM8.2718 1.561C8.23798 1.44503 8.30031 1.32472 8.41096 1.29234C8.52161 1.25997 8.63951 1.32761 8.67334 1.4431C8.70764 1.55858 8.64435 1.67938 8.53418 1.71175C8.42304 1.74413 8.30514 1.67648 8.2718 1.56051V1.561ZM9.07825 1.24982C9.08453 1.27108 9.11208 1.36482 9.11836 1.38656C9.09613 1.39333 8.91542 1.446 8.88932 1.45373C8.88787 1.42957 8.88546 1.40541 8.87918 1.38415C8.8729 1.36144 8.8613 1.33921 8.84874 1.31698C8.87386 1.30974 9.05603 1.2561 9.07825 1.24982Z" fill="white"/>
<path d="M14.263 1.14795L13.7991 1.00445L13.6648 0.962891L13.457 1.63695L14.0678 1.82587L14.1098 1.69058C14.1098 1.69058 13.7291 1.57268 13.7044 1.56495C13.7126 1.53982 13.8214 1.18758 13.8291 1.16245C13.8537 1.17018 14.2345 1.2876 14.2345 1.2876L14.276 1.15182L14.263 1.14795Z" fill="white"/>
<path d="M14.8635 1.29973L14.6721 1.24078C14.6721 1.24078 14.5967 1.48431 14.589 1.50992C14.5716 1.5046 14.5276 1.49059 14.5102 1.48527C14.5185 1.46063 14.5938 1.21614 14.5938 1.21614L14.3899 1.15332L14.0449 2.26853L14.2488 2.33183C14.2488 2.33183 14.46 1.64859 14.4682 1.62153C14.4856 1.62685 14.5296 1.64038 14.547 1.64569C14.5383 1.67275 14.3271 2.35599 14.3271 2.35599L14.531 2.4188L14.8755 1.30408L14.8625 1.29973H14.8635Z" fill="white"/>
<path d="M11.6279 0.727539H10.8717V0.869598H11.1447C11.1109 1.20155 10.9263 1.27451 10.8471 1.28949L10.8359 1.29191V1.43687L10.8509 1.43542C11.0297 1.41464 11.1631 1.3267 11.2491 1.17788C11.3365 1.32767 11.4709 1.41561 11.6516 1.4359L11.667 1.43783V1.29288L11.6554 1.29094C11.5752 1.27693 11.3882 1.2059 11.3539 0.870081H11.6419V0.728022H11.6284L11.6279 0.727539Z" fill="white"/>
<path d="M12.0409 0.698242H11.8438V1.86419H12.0544V1.12007H12.2139V0.978011H12.0544V0.698242H12.0409Z" fill="white"/>
<path d="M17.4464 2.52869L17.2787 2.4248L16.9473 2.95922L17.1265 3.06987C17.1265 3.06987 17.2444 2.87949 17.258 2.85726C17.2778 2.86934 17.3884 2.93844 17.3884 2.93844L17.4657 2.81378C17.4657 2.81378 17.3546 2.74468 17.3358 2.73308C17.3488 2.71134 17.4575 2.53594 17.4575 2.53594L17.4464 2.52869Z" fill="white"/>
<path d="M17.07 3.12531L16.1452 2.55176L16.0684 2.67594C16.0684 2.67594 16.7999 3.13014 16.8226 3.14415C16.8086 3.16686 16.6564 3.41184 16.6564 3.41184L16.8386 3.52443L17.0821 3.13207L17.0705 3.12483L17.07 3.12531Z" fill="white"/>
<path d="M16.8661 2.14187L16.6965 2.03605C16.6965 2.03605 16.6569 2.09983 16.6462 2.11771C16.6245 2.10418 16.3524 1.93555 16.3524 1.93555L16.2814 2.05006C16.2814 2.05006 16.336 2.08389 16.3655 2.10225C16.3065 2.11868 16.2602 2.15008 16.2316 2.19599C16.1485 2.32983 16.2413 2.53857 16.4385 2.66082C16.6361 2.78307 16.8641 2.77437 16.9473 2.64004C16.9758 2.59414 16.983 2.53857 16.9714 2.47817C16.999 2.49508 17.0468 2.52456 17.0468 2.52456L17.1178 2.41004C17.1178 2.41004 16.8496 2.24382 16.8279 2.22981C16.8395 2.21193 16.8786 2.14864 16.8786 2.14864L16.8666 2.14139L16.8661 2.14187ZM16.4167 2.30712C16.4592 2.23851 16.5699 2.23029 16.6631 2.28779C16.7564 2.34578 16.7979 2.4487 16.7554 2.51683C16.7129 2.58544 16.6027 2.59414 16.509 2.53616C16.4157 2.47817 16.3742 2.37525 16.4162 2.30712H16.4167Z" fill="white"/>
<path d="M19.501 4.37057L18.7748 3.5791L18.6699 3.67526C18.6699 3.67526 19.2415 4.29809 19.2599 4.31742C19.2391 4.33627 18.7762 4.76196 18.7762 4.76196L18.9217 4.92093L19.5102 4.38072L19.501 4.37106V4.37057Z" fill="white"/>
<path d="M18.9561 4.32757L18.8194 4.17875C18.8194 4.17875 18.4638 4.50539 18.4435 4.52375C18.429 4.50829 18.3521 4.4247 18.3376 4.40875C18.3579 4.38991 18.7141 4.06327 18.7141 4.06327L18.5676 3.9043C18.5676 3.9043 18.2115 4.23142 18.1917 4.24978C18.1758 4.23238 18.0482 4.09323 18.0482 4.09323L17.9434 4.1889L18.8233 5.14707L18.9281 5.05091C18.9281 5.05091 18.6078 4.70157 18.5894 4.68272C18.6102 4.66388 18.9658 4.33724 18.9658 4.33724L18.9566 4.32709L18.9561 4.32757Z" fill="white"/>
<path d="M2.59367 6.40963C2.41102 6.56521 2.32018 6.48065 2.3168 6.47679C2.21629 6.40093 2.29022 6.26998 2.2936 6.26467C2.36318 6.14 2.4719 6.12841 2.47287 6.12841H2.47625L2.49364 6.097L2.29843 5.98828L2.2965 5.99698C2.28491 6.0453 2.21001 6.12213 2.20953 6.12261C2.04572 6.31105 2.11337 6.50143 2.11385 6.50337C2.16266 6.65654 2.34434 6.69374 2.34627 6.69374C2.51636 6.72177 2.67919 6.57826 2.68644 6.57246C2.84154 6.44973 2.94301 6.51448 2.94398 6.51496C3.10682 6.6058 3.01646 6.78362 3.01259 6.79086C2.9348 6.93002 2.78839 6.94307 2.78743 6.94307H2.78066L2.78211 6.96578C2.78598 6.97158 2.96379 7.05566 2.96379 7.05566C3.0556 7.03053 3.1532 6.8561 3.15755 6.84885C3.21843 6.7237 3.231 6.61257 3.19524 6.51834C3.14644 6.3903 3.02806 6.34005 3.02322 6.33811C2.81255 6.2207 2.59608 6.40769 2.59415 6.40914L2.59367 6.40963Z" fill="white"/>
<path d="M1.37508 7.81933C1.23737 8.1537 1.36445 8.45908 1.69882 8.59727C2.02305 8.73112 2.3434 8.59872 2.47676 8.2745C2.61496 7.94013 2.48739 7.63475 2.15302 7.49656C1.81817 7.35836 1.51279 7.48496 1.37508 7.81933ZM2.07716 7.68114C2.31151 7.77923 2.41878 8.00343 2.33181 8.21458C2.23807 8.44168 2.03029 8.51465 1.77662 8.40979C1.53019 8.30832 1.43017 8.10007 1.52101 7.87973C1.56353 7.77633 1.63408 7.70191 1.7254 7.66422C1.82784 7.6217 1.9496 7.6275 2.07765 7.68114H2.07716Z" fill="white"/>
<path d="M2.09643 9.82084C2.16601 9.46617 1.98143 9.19172 1.62628 9.12166C1.28176 9.05449 0.993782 9.24729 0.926618 9.59132C0.857038 9.94647 1.04162 10.2209 1.39676 10.2905C1.75191 10.3606 2.02685 10.176 2.09643 9.82132V9.82084ZM1.43494 10.0948C1.18561 10.0446 1.03679 9.84548 1.08076 9.62176C1.12811 9.38065 1.31704 9.26855 1.58714 9.32122C1.84855 9.37292 1.98771 9.55701 1.94181 9.7904C1.92006 9.90008 1.86595 9.98706 1.7838 10.0421C1.69151 10.1035 1.5712 10.1219 1.43542 10.0948H1.43494Z" fill="white"/>
<path d="M0.99207 11.8265C0.99207 11.8265 1.46318 11.3844 1.47236 11.3752C1.48154 11.3849 1.88308 11.8062 1.88308 11.8062C1.93961 11.8739 1.94734 11.9319 1.94783 11.9323V11.9381H1.98262V11.5646H1.94686L1.94541 11.5695C1.94106 11.584 1.9343 11.5926 1.92608 11.5946C1.92463 11.5946 1.92318 11.5946 1.92173 11.5946C1.90917 11.5946 1.89516 11.583 1.89033 11.5782C1.89033 11.5782 1.58833 11.2646 1.5347 11.209H1.85844C1.92705 11.209 1.94734 11.2718 1.94783 11.2747L1.94928 11.2795H1.98213V10.9316H1.94734V10.9384C1.94734 11.0075 1.86133 11.0119 1.85795 11.0123H0.973226C0.890116 11.0123 0.87852 10.9408 0.878036 10.9374L0.87707 10.9316H0.841797V11.2795H0.876104L0.877553 11.2747C0.894465 11.2114 0.96936 11.2095 0.972742 11.2095H1.38104C1.35736 11.2317 0.958247 11.6013 0.958247 11.6013C0.853394 11.6932 0.84228 11.755 0.841797 11.7574V11.9768H0.890599L0.892049 11.972C0.907028 11.914 0.99062 11.8265 0.99207 11.8255V11.8265Z" fill="white"/>
<path d="M1.20016 13.9061L2.18201 13.4881L2.18105 13.4828L2.17718 13.4596C2.17283 13.4548 1.37653 13.2509 1.26298 13.2219C1.28714 13.2055 2.0414 12.6947 2.0414 12.6947L2.03995 12.6643L2.03899 12.6594L0.976445 12.6077C0.879806 12.6034 0.857096 12.5531 0.85613 12.5512L0.854197 12.5459L0.826172 12.5507L0.87884 12.8551L0.906865 12.8503V12.8455C0.911214 12.8025 0.943588 12.7904 0.963882 12.787C0.972579 12.7856 0.979344 12.7856 0.979827 12.7856C0.979827 12.7856 1.49781 12.7962 1.59735 12.7986C1.56449 12.8208 0.917979 13.2663 0.917979 13.2663L0.919911 13.2992C0.92426 13.304 1.5959 13.4722 1.71815 13.5026C1.68046 13.5166 1.15184 13.7196 1.15184 13.7196C1.14073 13.7239 1.13058 13.7268 1.12092 13.7283C1.10256 13.7317 1.08758 13.7297 1.07695 13.7234C1.06149 13.7138 1.05955 13.6964 1.05955 13.6959V13.6887L1.0238 13.6944L1.07743 14.0071L1.10546 14.0022C1.133 13.9312 1.19968 13.9061 1.20016 13.9056V13.9061Z" fill="white"/>
<path d="M2.47589 14.8038L2.45221 14.8125V14.8173C2.45221 14.8173 2.45269 14.8366 2.44013 14.8492C2.43626 14.8531 2.43143 14.856 2.42612 14.8579C2.41984 14.8603 2.41211 14.8613 2.40341 14.8608C2.40341 14.8608 2.06179 14.7936 2.00526 14.7825C2.01975 14.7656 2.27101 14.4791 2.27101 14.4791C2.27101 14.4791 2.29034 14.4622 2.31015 14.4641L2.33818 14.482H2.34301L2.36234 14.4762L2.25313 14.1611L2.22801 14.1698L2.22994 14.1756C2.22994 14.1756 2.24009 14.222 2.15698 14.323L1.81536 14.7332L1.42542 14.8676C1.42542 14.8676 1.36648 14.8792 1.33797 14.8197L1.33507 14.8144L1.29883 14.827L1.41479 15.1609L1.45055 15.1488V15.1435C1.45055 15.1435 1.44427 15.0662 1.495 15.0488L1.88156 14.9144L2.40292 15.0338C2.40437 15.0338 2.51406 15.0502 2.55223 15.1053L2.55513 15.1092L2.57929 15.1009L2.57687 15.0947L2.47589 14.8038Z" fill="white"/>
<path d="M3.09807 16.1596L3.07439 16.1721V16.1765C3.08357 16.2562 3.01157 16.2891 3.00819 16.29L2.45832 16.5737C2.3955 16.606 2.33559 16.6133 2.2805 16.5949C2.18435 16.563 2.13458 16.462 2.1341 16.4611C2.13313 16.4596 2.07998 16.3615 2.10945 16.2644C2.12636 16.2089 2.16695 16.1644 2.22977 16.132L2.77916 15.8489C2.78254 15.8469 2.85067 15.8073 2.91059 15.861L2.91397 15.8638L2.93716 15.8518L2.78012 15.5469L2.75645 15.5594L2.75741 15.5643C2.7579 15.5672 2.77046 15.6396 2.6801 15.686L2.11912 15.9755C2.11573 15.9769 1.79683 16.1499 1.99397 16.5321C2.06307 16.6669 2.15197 16.7505 2.25828 16.7819C2.39889 16.823 2.51678 16.7563 2.52162 16.7534L3.08212 16.464C3.17248 16.4176 3.22418 16.4698 3.2266 16.4722L3.22998 16.4761L3.25414 16.4635L3.25124 16.4577L3.09758 16.1591L3.09807 16.1596Z" fill="white"/>
<path d="M3.97136 17.4591L3.97571 17.4644C4.01581 17.5156 3.96411 17.5693 3.9617 17.5712C3.9617 17.5712 3.48237 17.9447 3.45628 17.9655C3.46207 17.9321 3.64472 16.8938 3.64472 16.8938L3.63071 16.8715L3.62636 16.8662L2.84552 17.475C2.72665 17.5678 2.67833 17.5113 2.6764 17.5089L2.67205 17.5035L2.64258 17.5263L2.84745 17.7891L2.87693 17.7664L2.87258 17.7611C2.86291 17.7485 2.85905 17.735 2.86146 17.7205C2.86726 17.6804 2.91268 17.6427 2.92573 17.6326C2.92815 17.6306 3.3722 17.2847 3.39829 17.2639C3.39249 17.2977 3.20985 18.3337 3.20985 18.3337L3.22434 18.3559L3.22869 18.3612L4.04577 17.7244C4.12405 17.6635 4.17285 17.7181 4.17527 17.7205L4.17962 17.7253L4.20281 17.7075L3.99552 17.4412L3.97184 17.4596L3.97136 17.4591Z" fill="white"/>
<path d="M4.68327 19.0524L4.68713 19.0572C4.68713 19.0572 4.72386 19.1027 4.67457 19.1737L4.47018 19.3704C4.47163 19.3675 4.36291 19.3414 4.25564 19.209C4.25371 19.2066 4.05657 18.9524 4.30638 18.6697C4.30783 18.6683 4.43587 18.5257 4.61466 18.5161C4.72047 18.5108 4.82339 18.5528 4.92003 18.6407C4.921 18.6417 5.02779 18.7408 5.04663 18.9142L5.05919 18.9292L5.06354 18.934L5.22155 18.7823L5.21333 18.7775C5.21333 18.7775 5.16694 18.7499 5.11476 18.6572C5.11379 18.6552 4.99058 18.4064 4.6997 18.3436C4.69728 18.3426 4.42331 18.2841 4.16577 18.5325C4.1619 18.5359 3.80047 18.8872 4.13823 19.3143C4.14016 19.3167 4.31218 19.5153 4.51802 19.5776L4.89152 19.2225L4.70598 19.0297L4.6823 19.0524H4.68327Z" fill="white"/>
<path d="M16.3911 20.2847C16.1582 20.3383 16.1176 20.2219 16.1157 20.217C16.062 20.1045 16.1872 20.0228 16.192 20.0194C16.3104 19.9411 16.4119 19.9808 16.4128 19.9813L16.4162 19.9822L16.4462 19.9629L16.3239 19.7773L16.3181 19.7841C16.2857 19.8213 16.1843 19.8551 16.1838 19.8551C15.9533 19.9465 15.9253 20.1451 15.9253 20.1475C15.8982 20.3045 16.0412 20.421 16.0432 20.4219C16.1804 20.5244 16.3906 20.4722 16.3993 20.4707C16.5926 20.4335 16.6525 20.5369 16.653 20.5379C16.7554 20.6925 16.594 20.808 16.5868 20.8133C16.4549 20.9003 16.3196 20.8452 16.3181 20.8447L16.3123 20.8418L16.3036 20.8621C16.3046 20.8689 16.423 21.0245 16.423 21.0245C16.5153 21.0443 16.6815 20.9351 16.6887 20.9307C16.7999 20.8481 16.8617 20.7563 16.8733 20.6558C16.8893 20.521 16.8071 20.4224 16.8042 20.4181C16.6718 20.218 16.3954 20.2842 16.3925 20.2847H16.3911Z" fill="white"/>
<path d="M8.9095 20.6915C8.57465 20.5649 8.27652 20.6992 8.14944 21.0341C8.02671 21.3588 8.16732 21.6714 8.49106 21.7946C8.82543 21.9212 9.12404 21.7869 9.25112 21.452C9.3782 21.1172 9.24387 20.8186 8.9095 20.6915ZM9.06654 21.382C8.97618 21.6163 8.75778 21.7284 8.54663 21.6487C8.31953 21.5627 8.24125 21.3593 8.3374 21.1056C8.43066 20.8592 8.6336 20.7538 8.85442 20.8374C8.95782 20.8766 9.0332 20.9442 9.07331 21.0331C9.11776 21.1331 9.11583 21.2539 9.06654 21.3825V21.382Z" fill="white"/>
<path d="M11.1014 22.0489L10.9714 20.9902L10.9661 20.9893L10.9424 20.9869C10.9366 20.9902 10.5211 21.6981 10.4612 21.7996C10.452 21.7716 10.1698 20.9057 10.1698 20.9057L10.1403 20.8984H10.135L9.79147 21.9044C9.76103 21.9963 9.70594 22.004 9.70401 22.0045H9.69869L9.69531 22.0335L10.0026 22.0673L10.006 22.0388L10.0012 22.0368C9.96155 22.0214 9.95865 21.9871 9.96059 21.9668C9.96155 21.9576 9.96348 21.9518 9.96397 21.9513C9.96397 21.9513 10.1176 21.4565 10.1471 21.3613C10.1597 21.399 10.4085 22.1431 10.4085 22.1431L10.4404 22.1504C10.4462 22.1475 10.7936 21.5488 10.8564 21.4401C10.8598 21.4802 10.9081 22.0441 10.9081 22.0441C10.9091 22.0557 10.9091 22.0663 10.9081 22.076C10.9062 22.0943 10.9004 22.1084 10.8912 22.1166C10.8777 22.1286 10.8608 22.1257 10.8603 22.1257L10.8535 22.1243L10.8497 22.1601L11.1647 22.1948L11.1676 22.1663C11.1077 22.1204 11.1014 22.0494 11.1014 22.0484V22.0489Z" fill="white"/>
<path d="M13.9053 20.785L13.9116 20.7835C13.9754 20.7681 14.003 20.8376 14.0044 20.8405C14.0044 20.8405 14.1489 21.4363 14.1561 21.4687C14.1281 21.4494 13.2497 20.8502 13.2497 20.8502L13.2236 20.8541L13.2168 20.8555L13.4516 21.8253C13.4874 21.9727 13.4154 21.9939 13.4125 21.9949L13.4062 21.9963L13.4149 22.0326L13.7415 21.9533L13.7328 21.9171L13.7261 21.9185C13.7106 21.9224 13.6966 21.92 13.6836 21.9113C13.6493 21.8896 13.6333 21.8325 13.6294 21.8161C13.6294 21.8137 13.4951 21.2614 13.4874 21.2285C13.5159 21.2479 14.3919 21.8465 14.3919 21.8465L14.4185 21.8422L14.4253 21.8408L14.1793 20.8256C14.1556 20.728 14.2267 20.7057 14.2296 20.7052L14.2354 20.7033L14.2286 20.6748L13.8981 20.755L13.9053 20.784V20.785Z" fill="white"/>
<path d="M7.93455 20.4902L7.95098 20.4602L7.68716 20.3152L7.67363 20.3399L7.67846 20.3437C7.67846 20.3437 7.6973 20.3582 7.69875 20.38C7.69923 20.3892 7.6973 20.3983 7.69199 20.408C7.6886 20.4143 7.68329 20.4211 7.67701 20.4278C7.67701 20.4278 7.24358 20.8095 7.17497 20.8695C7.18029 20.8347 7.29432 20.0654 7.29432 20.0654L7.28997 20.063L7.26629 20.05C7.26629 20.05 6.6739 20.5573 6.64732 20.58C6.65264 20.5457 6.74783 19.9388 6.74783 19.9388C6.74783 19.9383 6.74976 19.9118 6.76136 19.891C6.76571 19.8833 6.77102 19.8765 6.77827 19.8722C6.78938 19.8654 6.80388 19.8659 6.82079 19.8736L6.82659 19.876L6.8406 19.8509L6.55503 19.6943L6.54102 19.7199L6.54682 19.7233C6.54682 19.7233 6.58402 19.7465 6.56035 19.8949L6.40234 20.9511L6.4381 20.9709C6.4381 20.9709 7.03436 20.4616 7.06045 20.4394C7.05562 20.4737 6.93966 21.2464 6.93966 21.2464L6.96961 21.2628L7.80554 20.5433C7.8297 20.5216 7.89928 20.4689 7.92972 20.4858L7.93552 20.4892L7.93455 20.4902Z" fill="white"/>
<path d="M12.3706 22.0004L12.1121 22.0202C12.1121 22.0202 12.0618 22.0231 12.0584 21.9781C12.0584 21.9781 12.0348 21.6636 12.0333 21.6505C12.0464 21.6496 12.2865 21.6312 12.2865 21.6312C12.2865 21.6312 12.3778 21.6312 12.4034 21.6989L12.4054 21.7037L12.4406 21.7008L12.417 21.394L12.3865 21.3964C12.3798 21.4046 12.3556 21.4814 12.2672 21.4882C12.2672 21.4882 12.0348 21.5061 12.0217 21.507C12.0207 21.4945 11.998 21.2147 11.9971 21.2021C12.0101 21.2012 12.3121 21.178 12.3121 21.178C12.3145 21.178 12.3696 21.1746 12.3962 21.236L12.3981 21.2403L12.429 21.2384L12.4121 21.0156H12.4054L11.7188 21.0688L11.7207 21.0973H11.7265C11.7265 21.0973 11.8009 21.1036 11.813 21.2567L11.87 22.0047C11.87 22.0047 11.8869 22.1405 11.8077 22.1622L11.8023 22.1637L11.8048 22.1946L12.4894 22.1424L12.5039 21.911L12.4754 21.9134C12.4687 21.9211 12.444 21.9955 12.3706 22.0009V22.0004Z" fill="white"/>
<path d="M14.8945 20.5633L15.0907 20.9905L15.197 20.9465L15.0438 20.502L15.0376 20.5049L14.8945 20.5633Z" fill="white"/>
<path d="M21.5071 10.4138C21.4462 10.6462 21.3235 10.6283 21.3182 10.6274C21.1926 10.6225 21.1781 10.4727 21.1776 10.4664C21.1636 10.3239 21.2462 10.2524 21.2467 10.2519L21.2496 10.2495L21.2462 10.2137L21.0234 10.236L21.0268 10.2447C21.0447 10.291 21.0278 10.3969 21.0268 10.3983C21.0007 10.6462 21.1645 10.7641 21.1665 10.7655C21.2945 10.8632 21.4651 10.7897 21.467 10.7887C21.6226 10.7143 21.6743 10.5032 21.6762 10.494C21.7337 10.3041 21.8536 10.2997 21.855 10.2997C22.0406 10.2809 22.0686 10.479 22.0696 10.4872C22.0855 10.6457 21.9729 10.7404 21.9719 10.7414L21.9666 10.7457L21.9806 10.7631C21.9869 10.7655 22.1812 10.7332 22.1812 10.7332C22.2421 10.6597 22.2227 10.4607 22.2218 10.4524C22.2 10.3147 22.1464 10.2162 22.0628 10.1591C21.9497 10.0818 21.8241 10.1089 21.8183 10.1099C21.5781 10.1345 21.5071 10.4118 21.5066 10.4147L21.5071 10.4138Z" fill="white"/>
<path d="M18.214 18.3344L18.2329 18.3532L18.2372 18.3513C18.3116 18.3184 18.3653 18.3783 18.3667 18.3803L18.8069 18.8229C18.8572 18.8736 18.8823 18.9287 18.8813 18.9876C18.8799 19.0901 18.7982 19.1688 18.7973 19.1698C18.7963 19.1708 18.7175 19.2519 18.6151 19.2534C18.5566 19.2534 18.5015 19.2288 18.4508 19.178L18.0116 18.7354C18.0087 18.733 17.9493 18.6789 17.9826 18.6054L17.9845 18.6011L17.9657 18.5827L17.7207 18.8263L17.74 18.8456L17.7444 18.8432C17.7473 18.8417 17.8135 18.8074 17.8855 18.8799L18.3344 19.3317C18.3368 19.3346 18.6001 19.5887 18.9084 19.2829C19.0171 19.1756 19.0707 19.0645 19.0683 18.9533C19.0649 18.8055 18.9654 18.7122 18.9606 18.7084L18.5122 18.2566C18.4402 18.1836 18.4745 18.1184 18.4764 18.1155L18.4788 18.1111L18.4595 18.0918L18.4552 18.0961L18.2145 18.3348L18.214 18.3344Z" fill="white"/>
<path d="M19.3167 17.0106L19.3206 17.0053C19.3597 16.9526 19.4259 16.9884 19.4283 16.9898C19.4283 16.9898 19.9212 17.3546 19.9477 17.374C19.9134 17.3773 18.8557 17.4807 18.8557 17.4807L18.8383 17.5006L18.834 17.5059L19.6361 18.0997C19.7583 18.1901 19.7187 18.2543 19.7168 18.2568L19.7134 18.2621L19.7405 18.2819L19.9405 18.0118L19.913 17.9915L19.9086 17.9968C19.8994 18.0094 19.8873 18.0161 19.8728 18.0185C19.8318 18.0239 19.781 17.9886 19.767 17.9784C19.7646 17.9765 19.3085 17.6388 19.2814 17.6189C19.3157 17.6156 20.371 17.5126 20.371 17.5126L20.3889 17.4928L20.3928 17.4875L19.5535 16.8661C19.4732 16.8067 19.5129 16.7444 19.5148 16.7419L19.5182 16.7366L19.4945 16.7188L19.2921 16.9922L19.3162 17.0101L19.3167 17.0106Z" fill="white"/>
<path d="M21.9081 13.4196L21.8555 13.6728C21.8555 13.6728 21.8444 13.7221 21.8004 13.7129C21.8004 13.7129 21.4931 13.6486 21.48 13.6462C21.4829 13.6336 21.5317 13.3988 21.5317 13.3988C21.5317 13.3988 21.5569 13.3123 21.6289 13.306H21.6337L21.6409 13.2708L21.3409 13.2084L21.3346 13.2384C21.3404 13.2476 21.408 13.292 21.3902 13.3775C21.3902 13.3775 21.3428 13.6051 21.3404 13.6177C21.3278 13.6148 21.0543 13.5597 21.0418 13.5573C21.0442 13.5442 21.1056 13.2495 21.1056 13.2495C21.1056 13.2471 21.1181 13.1934 21.1838 13.1847H21.1887L21.1949 13.1538L20.9765 13.1084L20.9756 13.1152L20.8359 13.7873L20.864 13.7931L20.8659 13.7878C20.8659 13.7878 20.892 13.7182 21.0418 13.7491L21.7733 13.9013C21.7733 13.9013 21.9077 13.9226 21.9067 14.0042V14.0096L21.9376 14.0158L22.0768 13.3461L21.8589 13.2683L21.8535 13.2959C21.8589 13.3051 21.9231 13.3485 21.9086 13.4205L21.9081 13.4196Z" fill="white"/>
<path d="M19.8325 16.1774L19.8586 16.1915L19.862 16.1861C19.8639 16.1837 19.9021 16.1267 20.0065 16.1832L20.709 16.5635C20.709 16.5635 20.8105 16.6123 20.7999 16.6964L20.8158 16.7099L20.8216 16.7133L20.9869 16.4074L20.9632 16.3944L20.9598 16.3987C20.9574 16.4012 20.9129 16.4567 20.7999 16.3949L20.0881 16.0093C20.0881 16.0093 20.0292 15.9788 20.0161 15.9368C20.0113 15.9213 20.0127 15.9059 20.021 15.8914L20.0243 15.8856L19.9978 15.8711L19.9944 15.8769L19.832 16.177L19.8325 16.1774Z" fill="white"/>
<path d="M20.9331 9.41761L20.9621 9.40939L20.9606 9.40311C20.9606 9.40069 20.9481 9.33256 21.0626 9.30067L21.8318 9.08613C21.8318 9.08613 21.9386 9.05038 21.9894 9.11851L22.0106 9.11706L22.0174 9.11513L21.9236 8.78027L21.8976 8.78752V8.79332C21.898 8.79622 21.9048 8.86725 21.7801 8.90204L21.0007 9.11996C21.0007 9.11996 20.9374 9.1388 20.8983 9.11754C20.8848 9.10981 20.8751 9.09773 20.8703 9.08179L20.8688 9.07502L20.8398 9.08324L20.8413 9.09L20.9331 9.41809V9.41761Z" fill="white"/>
<path d="M20.5659 14.678L20.5939 14.6877L20.5963 14.6819C20.5963 14.6819 20.604 14.6626 20.621 14.6582C20.6268 14.6568 20.6335 14.6572 20.6403 14.6597C20.648 14.6621 20.6562 14.6669 20.6649 14.6742C20.6649 14.6742 21.1578 15.124 21.237 15.1965C21.2061 15.1984 20.5035 15.2385 20.5035 15.2385C20.5035 15.2385 20.4731 15.2405 20.4494 15.2318C20.4398 15.2284 20.4306 15.2231 20.4248 15.2163C20.4175 15.2062 20.417 15.1941 20.4224 15.1776L20.4248 15.1714L20.3963 15.1617L20.2832 15.484L20.3117 15.4941L20.3141 15.4874C20.3141 15.4874 20.3286 15.4458 20.4832 15.4337L21.5772 15.339L21.5931 15.3052C21.5912 15.298 20.7248 14.4804 20.7248 14.4804C20.7248 14.4804 20.6838 14.4311 20.6954 14.3968L20.6978 14.3905L20.6693 14.3809L20.6673 14.3871L20.5654 14.6775L20.5659 14.678Z" fill="white"/>
<path d="M22.154 11.5911C22.154 11.5911 21.7321 11.8583 21.6887 11.8859C21.679 11.8409 21.6234 11.6385 21.4065 11.6303C21.4065 11.6303 21.4041 11.6303 21.4007 11.6303C21.3746 11.6293 21.2663 11.6303 21.1803 11.7061C21.1151 11.7641 21.0794 11.8521 21.075 11.9666L21.0566 12.443V12.4493L21.0876 12.4507V12.443C21.0876 12.443 21.0856 12.4232 21.1025 12.4053C21.1233 12.3845 21.162 12.3744 21.2146 12.3763L22.0216 12.4072C22.0216 12.4072 22.1419 12.4072 22.153 12.4821V12.4875L22.1805 12.4884L22.1936 12.1434L22.1665 12.1425L22.1656 12.1478C22.1646 12.1507 22.1477 12.2164 22.0453 12.2125C22.0453 12.2125 21.2175 12.1811 21.2171 12.1811C21.2185 12.1811 21.1929 12.157 21.1963 12.0729C21.1963 12.0709 21.2035 11.8666 21.3495 11.8332C21.3504 11.8332 21.449 11.8144 21.5147 11.8661C21.5152 11.8661 21.5862 11.9241 21.5819 12.0415L21.5775 12.1526L21.6065 12.1536C21.6104 12.1531 22.1366 11.8371 22.1366 11.8371C22.1395 11.8347 22.2071 11.7897 22.2236 11.7414L22.2294 11.5931C22.2294 11.5882 22.2289 11.5467 22.2139 11.5312L22.1931 11.5283H22.183L22.1868 11.5375C22.1868 11.5385 22.1955 11.5631 22.1535 11.5916L22.154 11.5911Z" fill="white"/>
<path d="M20.4004 7.70806L20.4023 7.71338L20.6686 8.3971L20.7507 8.38502L20.8821 8.3338L20.8749 8.31592C20.8691 8.31157 20.7811 8.29563 20.756 8.23136C20.756 8.23136 20.7053 8.10042 20.7005 8.0893C20.713 8.08447 21.4576 7.79455 21.4576 7.79455C21.4576 7.79455 21.4596 7.79359 21.4629 7.79262C21.4847 7.78441 21.5678 7.75687 21.6176 7.81098L21.6388 7.8076L21.6451 7.80518L21.519 7.48145L21.4939 7.49159L21.4948 7.49691C21.4948 7.49981 21.5088 7.56987 21.3885 7.61674C21.3885 7.61674 20.6434 7.90666 20.6314 7.91149C20.627 7.89989 20.5772 7.77233 20.5772 7.77233C20.5521 7.70806 20.6062 7.63703 20.6067 7.63655L20.6028 7.61819L20.6004 7.61191L20.4709 7.66264L20.4047 7.7071L20.4004 7.71V7.70806Z" fill="white"/>
<path d="M19.6303 6.30696L19.7772 6.57754L19.8028 6.56353L19.8009 6.55822C19.797 6.54855 19.7975 6.54034 19.8019 6.53406C19.8048 6.53019 19.8086 6.52729 19.813 6.52488C19.8299 6.51569 19.856 6.51376 19.8671 6.51376C19.8671 6.51376 20.2271 6.52101 20.2493 6.52198C20.2377 6.54082 20.0299 6.88727 20.0299 6.88727C20.0246 6.89548 20.0193 6.9008 20.014 6.9037C20.0106 6.90563 20.0077 6.90611 20.0048 6.90611C19.9908 6.90515 19.9778 6.88534 19.9739 6.87761L19.9705 6.87132L19.9439 6.88582L20.1039 7.1796L20.1304 7.16559L20.1271 7.15979C20.1063 7.1221 20.1348 7.07088 20.1353 7.0704L20.4518 6.54034L20.7538 6.37702C20.7538 6.37702 20.8494 6.31903 20.9142 6.37364L20.935 6.36735L20.9408 6.36397L20.775 6.05859L20.7513 6.07164L20.7533 6.07696C20.7542 6.07985 20.7765 6.1475 20.6629 6.20935L20.3585 6.3746L19.7748 6.34319C19.6878 6.33933 19.6569 6.29343 19.6564 6.29294L19.653 6.28763L19.627 6.30164L19.6303 6.30744V6.30696Z" fill="white"/>
</g>
<defs>
<clipPath id="clip0_4393_55248">
<rect width="23" height="23" fill="white"/>
</clipPath>
</defs>
</svg>
