<svg width="23" height="23" viewBox="0 0 23 23" fill="none" xmlns="http://www.w3.org/2000/svg">
<g clip-path="url(#clip0_4946_55395)">
<g clip-path="url(#clip1_4946_55395)">
<path d="M19.3717 3.62919L14.3822 0.75H8.62174L3.63334 3.62919L0.751953 8.61786V14.3798L3.63334 19.3679L8.62174 22.2494H14.3822L19.3717 19.3679L22.252 14.3798V8.61786L19.3717 3.62919Z" stroke="#5C5A5A" stroke-width="0.561791"/>
<path d="M17.13 18.5833L17.3544 18.4095L16.5618 17.3701L15.3027 18.3324L15.4382 18.5114L16.4705 17.7229L17.13 18.5833Z" fill="#231815"/>
<path d="M17.0231 18.9038L16.5678 18.3096L16.3447 18.4815L16.7993 19.0734L16.6049 19.2242L16.1503 18.6288L15.9277 18.7995L16.3829 19.3926L16.1085 19.6016L16.2451 19.7801L17.738 18.6388L17.6013 18.4592L17.0231 18.9038Z" fill="#231815"/>
<path d="M14.7418 18.6318L14.4727 18.7231L14.7883 19.6542L15.0574 19.5611L14.9096 19.123L15.1799 19.0311L15.1081 18.8185L14.8366 18.9122L14.7418 18.6318Z" fill="#231815"/>
<path d="M13.5771 20.396L14.8885 19.9472L15.0581 20.4466L15.3284 20.3542L15.0864 19.6445L13.5059 20.1834L13.5771 20.396Z" fill="#231815"/>
<path d="M13.2457 19.6732C13.2887 19.7998 13.3782 19.8823 13.5131 19.9259C13.6421 19.9683 13.7769 19.9653 13.9194 19.9159C14.0607 19.8676 14.1685 19.7886 14.2404 19.6779C14.3193 19.5613 14.3381 19.4418 14.2945 19.3175C14.2822 19.2769 14.261 19.2421 14.2327 19.2145C14.2044 19.185 14.1732 19.1615 14.1349 19.1426L14.3481 19.0708L14.2786 18.8652L13.771 19.0396L13.7145 18.8758L13.4248 18.973L13.4813 19.1385L12.9648 19.3146L13.0343 19.5172L13.2681 19.4388C13.2481 19.4783 13.2334 19.5172 13.2298 19.5566C13.2275 19.5973 13.2322 19.6355 13.2457 19.6744V19.6732ZM13.5402 19.4112C13.5773 19.354 13.6326 19.3134 13.7009 19.2898C13.7669 19.2686 13.8346 19.2651 13.9 19.2898C13.9695 19.3146 14.0131 19.3546 14.0337 19.4147C14.0525 19.4695 14.0413 19.5278 14.0025 19.5884C13.9654 19.6491 13.9112 19.6909 13.8464 19.7133C13.7769 19.7368 13.7092 19.7356 13.6432 19.7109C13.5773 19.685 13.5331 19.6473 13.5154 19.5908C13.4937 19.5325 13.5043 19.4718 13.5414 19.4112H13.5402Z" fill="#231815"/>
<path d="M12.3262 19.8582L12.0848 19.8635L12.0701 19.2846L11.8086 19.2899L11.8545 21.1126L12.1172 21.1038L12.0913 20.0873L12.3327 20.0826L12.3586 21.1014L12.6295 21.0908L12.5812 19.2705L12.3115 19.2788L12.3262 19.8582Z" fill="#231815"/>
<path d="M11.0083 19.5372L11.5913 19.5218L11.5866 19.2969L10.7168 19.3204L10.7492 20.5277C10.7504 20.5783 10.7692 20.616 10.8051 20.6384C10.8322 20.6543 10.8764 20.662 10.9329 20.6608L11.6619 20.6414L11.6561 20.417L11.033 20.4323L11.0083 19.536V19.5372Z" fill="#231815"/>
<path d="M6.05494 18.0486L6.7457 18.5639L6.6344 18.7111C6.37176 18.5615 6.05141 18.5591 5.91596 18.7399C5.76168 18.9455 5.89889 19.3047 6.17566 19.5114L6.24162 19.5609C6.5178 19.7676 6.90057 19.7953 7.05368 19.5921C7.18736 19.4125 7.10079 19.1151 6.89174 18.9048L7.00421 18.7564L7.69792 19.2753L7.82806 19.0998L6.18744 17.8701L6.05494 18.0474V18.0486ZM6.804 19.4036C6.71979 19.5185 6.49542 19.4702 6.34231 19.3577C6.18979 19.2411 6.08085 19.0403 6.16624 18.9266C6.25045 18.8141 6.47481 18.8601 6.62674 18.9755C6.78044 19.0892 6.88938 19.29 6.804 19.4031V19.4036Z" fill="#231815"/>
<path d="M6.78083 18.0737C6.96868 18.1532 7.12885 18.1756 7.25252 18.1532C7.26371 18.2786 7.32966 18.4259 7.46098 18.5802C7.5552 18.6956 7.6665 18.8157 7.80253 18.9265L7.9792 18.771C7.7884 18.6173 7.68005 18.4824 7.60879 18.3699C7.5181 18.2286 7.48866 18.0843 7.53989 18.016L7.30316 17.8387C7.25841 17.9017 7.10648 17.9171 6.94336 17.8711C6.81204 17.8352 6.65245 17.771 6.45282 17.6338L6.45164 17.635L6.35742 17.8452C6.49699 17.9441 6.64303 18.016 6.78083 18.0731V18.0737Z" fill="#231815"/>
<path d="M9.7207 19.8934L9.99512 19.9723L10.2218 19.2008L9.95037 19.1201L9.7207 19.8934Z" fill="#231815"/>
<path d="M8.35796 19.814L9.63347 20.1891L9.59637 20.3163L8.32086 19.9388L8.20838 20.324C8.19189 20.3787 8.19366 20.4211 8.21427 20.4553C8.23311 20.4865 8.27021 20.5101 8.32439 20.5271L9.71003 20.9358L9.77186 20.7274L8.50812 20.3522L8.5464 20.2244L9.80955 20.5972L9.96795 20.0607L8.42097 19.6025L8.35796 19.8145V19.814Z" fill="#231815"/>
<path d="M8.9727 19.284C9.0151 19.4017 9.084 19.5054 9.17587 19.5908C9.2536 19.6626 9.4073 19.7592 9.51153 19.8022L9.6293 19.6014C9.45382 19.5272 9.2854 19.3699 9.23652 19.2427C9.19942 19.1438 9.19707 19.0443 9.23652 18.9129L8.94208 18.8252C8.90263 18.9589 8.8455 19.0443 8.75894 19.1055C8.65117 19.1844 8.4221 19.2251 8.23189 19.1933V19.1944L8.2207 19.4212C8.32199 19.4412 8.50042 19.4412 8.60877 19.4259C8.75187 19.4041 8.87142 19.3582 8.97152 19.2845L8.9727 19.284Z" fill="#231815"/>
<path d="M4.73622 5.45095C4.78804 5.42857 4.85988 5.38145 4.91229 5.31962C4.96058 5.26014 4.96411 5.21538 4.93114 5.18829C4.90051 5.16238 4.85929 5.1771 4.77508 5.2301C4.64906 5.30548 4.53011 5.32669 4.43471 5.24836C4.32341 5.15708 4.31458 4.98983 4.44826 4.82964C4.51127 4.75367 4.57074 4.71068 4.62374 4.68359L4.72915 4.832C4.69441 4.84849 4.63846 4.88265 4.58429 4.94684C4.5413 4.99866 4.53718 5.04106 4.56485 5.0658C4.59724 5.09112 4.63787 5.06815 4.73445 5.01456C4.87166 4.93329 4.97471 4.93329 5.06481 5.00632C5.17376 5.09937 5.19731 5.25896 5.04361 5.44741C4.97942 5.52279 4.89757 5.57992 4.84928 5.60112L4.73563 5.45153L4.73622 5.45095Z" fill="#231815"/>
<path d="M5.9699 4.47412C5.7791 4.64491 5.54649 4.59426 5.39397 4.4223C5.23438 4.24268 5.22555 3.99534 5.41399 3.82691C5.61303 3.652 5.84505 3.70795 5.99227 3.87402C6.16717 4.07307 6.16069 4.30393 5.97166 4.47353H5.96931L5.9699 4.47412ZM5.86154 4.33691C5.94222 4.26506 5.91984 4.14728 5.82091 4.03597C5.72669 3.9282 5.60656 3.88992 5.52647 3.96177C5.44756 4.03362 5.47053 4.15729 5.56475 4.26388C5.6625 4.3746 5.78145 4.40934 5.86095 4.33808V4.33691H5.86154Z" fill="#231815"/>
<path d="M7.08948 3.65069C6.87041 3.78202 6.65017 3.68897 6.53357 3.4911C6.40991 3.28674 6.44583 3.04117 6.66254 2.91161C6.89044 2.77439 7.10714 2.87333 7.22197 3.06296C7.35801 3.29146 7.30854 3.51819 7.09065 3.64834L7.08948 3.65069ZM7.00762 3.49463C7.09949 3.43986 7.09949 3.31855 7.02352 3.19134C6.9505 3.06885 6.84038 3.01113 6.74852 3.06472C6.65783 3.11949 6.65665 3.2467 6.72967 3.36684C6.80564 3.49581 6.91576 3.55117 7.00703 3.49581L7.00821 3.49463H7.00762Z" fill="#231815"/>
<path d="M7.99949 3.16102L7.71094 2.38601L7.95591 2.29473L8.16791 2.48672C8.23798 2.54973 8.32219 2.6363 8.38933 2.71463L8.39286 2.71168C8.34339 2.6151 8.29982 2.50733 8.25565 2.39249L8.18734 2.20934L8.37814 2.13867L8.66551 2.91368L8.44645 2.99436L8.21973 2.78648C8.14553 2.71993 8.05779 2.63454 7.98536 2.55385L7.98182 2.55621C8.02658 2.65986 8.07192 2.77411 8.11785 2.89955L8.18852 3.09094L7.99949 3.16043V3.16102Z" fill="#231815"/>
<path d="M9.99686 2.5629C9.93856 2.59529 9.83079 2.6424 9.72538 2.66419C9.5658 2.69599 9.4492 2.67538 9.36263 2.62061C9.27371 2.5629 9.21188 2.46631 9.19068 2.34971C9.13827 2.0688 9.31964 1.88329 9.58228 1.83323C9.69123 1.81203 9.77897 1.81674 9.8249 1.82734L9.81489 2.00814C9.76543 1.99931 9.70831 1.99577 9.61585 2.01285C9.481 2.03759 9.38442 2.12946 9.4174 2.29376C9.44684 2.44688 9.56167 2.51402 9.69358 2.48928C9.7242 2.48221 9.7507 2.47574 9.76072 2.46867L9.73422 2.32969L9.62527 2.34971L9.59289 2.18128L9.91147 2.11944L9.99686 2.56348V2.5629Z" fill="#231815"/>
<path d="M10.6585 2.30804C10.7115 2.33042 10.7933 2.35221 10.8763 2.34632C10.9523 2.3422 10.987 2.31511 10.9841 2.27212C10.9829 2.23266 10.9446 2.21146 10.8492 2.18437C10.7079 2.14432 10.6102 2.07189 10.6019 1.95116C10.5943 1.80511 10.7103 1.68615 10.9187 1.67261C11.0165 1.66554 11.0883 1.68144 11.1443 1.70146L11.1072 1.88108C11.0718 1.86812 11.0082 1.84751 10.9264 1.85458C10.8593 1.85693 10.8233 1.88108 10.8251 1.91936C10.8286 1.96235 10.8734 1.97531 10.9794 2.0077C11.1319 2.05245 11.2014 2.13019 11.2091 2.24385C11.2173 2.38637 11.1148 2.51298 10.8734 2.52771C10.7733 2.53418 10.6767 2.51298 10.6272 2.49414L10.6573 2.30745L10.6585 2.30804Z" fill="#231815"/>
<path d="M12.1194 1.67797L12.0894 2.50303L11.8691 2.49655L11.8974 1.6709L12.1194 1.67738V1.67797Z" fill="#231815"/>
<path d="M12.8895 1.73926L13.1074 1.77224L13.0131 2.40591L13.3276 2.45302L13.3005 2.63676L12.7676 2.5549L12.8895 1.73985V1.73926Z" fill="#231815"/>
<path d="M15.0589 2.55885L15.0565 2.55767L14.884 2.55532L14.9211 2.3916L15.169 2.39514L15.3339 2.47287L15.0029 3.19606L14.8086 3.10654L15.0589 2.55944V2.55885Z" fill="#231815"/>
<path d="M16.384 3.079C16.5466 3.19443 16.5442 3.33282 16.4895 3.40997C16.45 3.46592 16.3805 3.49654 16.3004 3.48535L16.2992 3.48888C16.3387 3.54954 16.3611 3.64259 16.2992 3.72916C16.215 3.84812 16.0566 3.85695 15.8947 3.74212C15.7174 3.61432 15.7127 3.46592 15.7734 3.38052C15.8281 3.30279 15.9076 3.28276 15.9966 3.30161L15.9989 3.29749C15.963 3.22328 15.9683 3.14908 16.0089 3.09313C16.0914 2.98065 16.2468 2.98065 16.3829 3.07841L16.384 3.079ZM15.9907 3.62787C16.0325 3.65437 16.0831 3.6473 16.1096 3.6102C16.1432 3.56426 16.1273 3.50478 16.0902 3.46003C16.0431 3.44177 15.9989 3.45649 15.9701 3.49477C15.9424 3.53423 15.9459 3.59489 15.9907 3.6261V3.62846V3.62787ZM16.2928 3.19443C16.2498 3.16439 16.2091 3.17912 16.185 3.21268C16.1603 3.24625 16.1768 3.29572 16.2091 3.34283C16.2398 3.3552 16.2857 3.34401 16.3081 3.31398C16.334 3.27629 16.3393 3.22623 16.2939 3.19443H16.2928Z" fill="#231815"/>
<path d="M16.7658 4.23511C16.7812 4.25277 16.7953 4.2675 16.8194 4.29223C16.8601 4.33051 16.9095 4.36113 16.9543 4.37291C17.0114 4.39117 17.0679 4.38057 17.108 4.35937L17.1068 4.35465C17.0644 4.35348 17.0191 4.33051 16.9719 4.28281C16.8777 4.18976 16.8554 4.04253 16.9696 3.92652C17.0815 3.81403 17.2682 3.81757 17.3954 3.94595C17.5514 4.10319 17.4996 4.29105 17.373 4.41531C17.2576 4.52897 17.1374 4.57844 17.0143 4.57137C16.9042 4.56313 16.7988 4.50718 16.6987 4.4106C16.6769 4.39117 16.6575 4.36879 16.6445 4.35289L16.7647 4.23393L16.7658 4.23511ZM17.2776 4.05549C17.2428 4.01839 17.1834 4.02428 17.1351 4.07374C17.0956 4.1132 17.0768 4.17033 17.1239 4.21862C17.1533 4.24865 17.1857 4.25336 17.2081 4.24865C17.2205 4.24571 17.2316 4.23746 17.2481 4.21979C17.2947 4.17857 17.3288 4.1079 17.2793 4.05608H17.277L17.2776 4.05549Z" fill="#231815"/>
<path d="M18.4328 5.19355L18.3238 5.27895L17.6066 5.425L17.4629 5.23772L18.1448 5.1223L18.1472 5.11994L17.9316 4.83844L18.0753 4.72949L18.4334 5.19414L18.4328 5.19355Z" fill="#231815"/>
<path d="M8.89804 16.3405H6.80458C6.82872 16.3405 6.90469 16.238 6.92412 16.2186C6.96416 16.1726 7.00303 16.1255 7.03954 16.076C7.12964 15.953 7.19971 15.8151 7.25154 15.6726C7.4335 15.1827 7.42054 14.6102 7.21738 14.1733C7.00538 13.7139 6.67443 13.3135 6.44241 12.9342C6.06612 12.3182 5.80112 11.628 5.85707 10.893C5.8924 10.4272 6.10499 9.9172 6.42122 9.56738H8.43577C7.86574 10.1092 7.69732 10.8701 7.90048 11.6533C8.01119 12.0867 8.29209 12.4925 8.50703 12.8223C8.73375 13.1703 8.9693 13.5243 9.13831 13.9041C9.34324 14.3664 9.40801 14.8959 9.30908 15.3953C9.26315 15.6361 9.18071 15.874 9.0647 16.089C9.04526 16.1237 8.9428 16.3405 8.89804 16.3405Z" fill="#009BCB"/>
<path d="M10.0595 14.3617H13.5333V8.63574H8.96065C8.61556 8.93962 8.40357 9.54797 8.55609 10.1716C8.67445 10.6604 9.02837 11.1003 9.34283 11.5185C9.84279 12.1822 10.3893 12.9289 10.2367 13.8135C10.2061 13.9948 10.1478 14.201 10.0595 14.3617Z" fill="#60C1C3"/>
<path d="M2.26562 8.63574V14.3617H5.68466C5.84837 13.9954 5.7883 13.5649 5.67877 13.3011C5.34841 12.4943 4.81135 12.0585 4.51279 11.3542C4.23013 10.6875 4.19774 10.0786 4.44271 9.20286C4.45626 9.15281 4.5917 8.80417 4.68298 8.63633H2.26562V8.63574Z" fill="#006694"/>
<path d="M20.5528 8.63633H17.7138V13.178C17.715 13.2004 17.7097 13.3111 17.7044 13.4242C17.6726 14.1356 17.5054 14.2775 17.3281 14.3617H20.5528V8.63574V8.63633Z" fill="#009BCB"/>
<path d="M14.3072 9.57227V15.2482L14.3096 15.3407C14.3261 15.8454 14.7377 16.2482 15.2471 16.2482C15.7565 16.2482 16.1569 15.8542 16.1858 15.3589L16.1875 15.2488V9.57285H14.3066L14.3072 9.57227Z" fill="#006694"/>
</g>
</g>
<defs>
<clipPath id="clip0_4946_55395">
<rect width="23" height="23" fill="white"/>
</clipPath>
<clipPath id="clip1_4946_55395">
<rect width="23" height="23" fill="white"/>
</clipPath>
</defs>
</svg>
