<svg width="23" height="23" viewBox="0 0 23 23" fill="none" xmlns="http://www.w3.org/2000/svg">
<g clip-path="url(#clip0_4393_53595)">
<path d="M18.8538 18.143C18.8538 18.143 18.6683 18.338 18.6451 18.3625C18.6697 18.3857 19.0897 18.7853 19.0897 18.7853L18.8524 19.0335C18.8524 19.0335 18.4324 18.6339 18.4078 18.6107C18.386 18.6339 18.2074 18.8221 18.1855 18.8453C18.2101 18.8685 18.6288 19.2681 18.6288 19.2681C18.6288 19.2681 18.3383 19.5736 18.3137 19.5981C18.3356 19.6199 18.4992 19.774 18.521 19.7959C18.5456 19.7699 20.0335 18.2071 20.0594 18.1811C20.0362 18.1593 19.8739 18.0052 19.8521 17.9834C19.8275 18.0093 19.312 18.5507 19.312 18.5507C19.312 18.5507 18.892 18.1511 18.8674 18.128C18.8606 18.1361 18.8524 18.143 18.8524 18.143H18.8538Z" fill="#76777A"/>
<path d="M19.4819 17.907C19.456 17.8824 18.5927 17.0601 18.5668 17.0342C18.56 17.0424 18.5518 17.0492 18.5518 17.0492C18.5518 17.0492 17.2603 18.4061 17.2344 18.432C17.2562 18.4539 17.4185 18.608 17.4417 18.6284C17.4676 18.6025 18.5518 17.4638 18.5518 17.4638C18.5518 17.4638 19.235 18.1143 19.2609 18.1388L19.4832 17.9056L19.4819 17.907Z" fill="#76777A"/>
<path d="M3.66284 18.5864C3.43646 18.7978 3.44464 19.1742 3.67921 19.4265C3.91514 19.6788 4.29018 19.7115 4.51657 19.5001C4.74295 19.2887 4.73477 18.9109 4.49884 18.66C4.2629 18.4077 3.88787 18.375 3.66148 18.5877L3.66284 18.5864ZM3.87014 18.8032C3.99015 18.6914 4.19062 18.7077 4.31473 18.84C4.43883 18.9737 4.44292 19.1728 4.32291 19.286C4.2029 19.3992 4.00379 19.3828 3.87696 19.2492C3.75285 19.1155 3.75013 18.915 3.87014 18.8032Z" fill="#76777A"/>
<path d="M5.73324 18.3471C5.73324 18.3471 5.55595 18.1575 5.53413 18.1357C5.51095 18.1575 5.27638 18.3771 5.27638 18.3771C5.27638 18.3771 5.04727 18.1316 5.02545 18.1084C5.00363 18.1289 4.84679 18.2761 4.82497 18.2966C4.84679 18.3198 5.07591 18.5653 5.07591 18.5653C5.07591 18.5653 4.76088 18.8598 4.73633 18.883C4.75678 18.9048 4.92726 19.0876 4.94908 19.1094C4.97499 19.0862 5.72233 18.3852 5.74825 18.3621C5.74143 18.3539 5.73461 18.3471 5.73461 18.3471H5.73324Z" fill="#76777A"/>
<path d="M4.7824 17.3223C4.7824 17.3223 3.64093 17.37 3.60547 17.3714C3.6082 17.4027 3.62456 17.6523 3.62729 17.6837C3.66138 17.6809 4.4701 17.6359 4.4701 17.6359C4.4701 17.6359 4.37191 18.3956 4.36645 18.4296C4.39646 18.4337 4.64466 18.4678 4.67603 18.4719C4.68012 18.4365 4.80286 17.3632 4.80695 17.3236C4.79468 17.3236 4.7824 17.3236 4.7824 17.3236V17.3223Z" fill="#76777A"/>
<path d="M14.1326 22.1436L14.4408 22.0904L14.0903 20.0557C14.0807 20.0584 14.0698 20.0598 14.0698 20.0598C14.0698 20.0598 13.8134 20.1034 13.7821 20.1089C13.7875 20.1429 13.8898 20.7348 13.8898 20.7348L13.7071 20.7662C13.7071 20.7662 13.6048 20.1757 13.5993 20.1402L13.287 20.1934L13.5093 21.4849C13.2625 21.5272 12.5301 21.6526 12.5301 21.6526L12.3583 20.6585C12.3583 20.6585 13.047 20.5398 13.0811 20.5343L13.0375 20.2766C13.0375 20.2766 13.0361 20.2766 13.0334 20.2766L12.0078 20.4525C12.0705 20.8194 12.2656 21.9486 12.271 21.9772L13.5557 21.7563L13.6362 22.2254L13.9485 22.1722C13.943 22.1381 13.7521 21.0349 13.7521 21.0349L13.9335 21.0035C13.9335 21.0035 14.123 22.1054 14.1285 22.1395L14.1326 22.1436Z" fill="#76777A"/>
<path d="M7.8434 20.5765C7.8434 20.5765 7.8093 20.5574 7.74793 20.5261L8.13115 19.806C8.12161 19.8005 8.11206 19.7964 8.11206 19.7964C8.11206 19.7964 6.49872 18.9373 6.46735 18.9209L6.33507 19.1677C6.36643 19.1841 7.71929 19.9042 7.71929 19.9042C7.71929 19.9042 7.56519 20.1919 7.46836 20.376L5.96003 19.5728L5.82911 19.8196C5.85911 19.836 6.42235 20.1347 6.42235 20.1347C6.42235 20.1347 6.26415 20.4306 6.24915 20.4592L6.53145 20.6106C6.54645 20.582 6.70465 20.286 6.70465 20.286L6.95695 20.4197C6.95695 20.4197 6.80011 20.7156 6.78375 20.7443L7.06741 20.8956C7.08241 20.867 7.24061 20.5711 7.24061 20.5711C7.24061 20.5711 7.70157 20.8165 7.73157 20.8329L7.86249 20.5861C7.85431 20.582 7.84476 20.5765 7.84476 20.5765H7.8434ZM6.14277 20.2069L5.86457 20.0583L5.51953 20.7074L7.21606 21.6116L7.34835 21.3648C7.31698 21.3484 5.93003 20.6092 5.93003 20.6092C5.93003 20.6092 6.12777 20.2369 6.14414 20.2069H6.14277Z" fill="#76777A"/>
<path d="M9.18269 21.4599C9.17178 21.4586 9.16223 21.4572 9.16223 21.4572C9.16223 21.4572 8.90175 21.4163 8.87038 21.4122L8.75583 22.1391L10.6692 22.4391L10.7128 22.1623C10.6787 22.1568 9.11177 21.9114 9.11177 21.9114C9.11177 21.9114 9.17723 21.4954 9.18269 21.4613V21.4599ZM10.9174 20.7562C10.9174 20.7562 10.9679 20.4317 10.9733 20.3989C10.9638 20.3989 10.9542 20.3962 10.9542 20.3962C10.9542 20.3962 10.6951 20.3553 10.6624 20.3498L10.5301 21.1926L10.2137 21.1436L10.3392 20.3376C10.3296 20.3362 10.3187 20.3348 10.3187 20.3348C10.3187 20.3348 9.04631 20.1357 9.01085 20.1289L8.96721 20.4058C9.0013 20.4112 9.98322 20.5653 9.98322 20.5653C9.98322 20.5653 9.92594 20.9294 9.90003 21.0945C9.72274 21.0672 9.58636 21.0454 9.58636 21.0454C9.58636 21.0454 9.62864 20.7822 9.63273 20.7508C9.62318 20.7508 9.61227 20.7481 9.61227 20.7481C9.61227 20.7481 9.34634 20.7058 9.31497 20.7017C9.30952 20.7331 9.2686 20.9963 9.2686 20.9963C9.2686 20.9963 8.81856 20.9253 8.78583 20.9213L8.74219 21.1981L10.4837 21.4709L10.4333 21.7941L10.7442 21.8432C10.7497 21.8091 10.871 21.0304 10.871 21.0304C10.871 21.0304 11.1588 21.0754 11.1915 21.0808L11.2338 20.8053C11.2024 20.7999 10.9147 20.7549 10.9147 20.7549L10.9174 20.7562Z" fill="#76777A"/>
<path d="M16.5636 18.8332C16.5636 18.8332 16.3372 18.9586 16.3086 18.975C16.3263 19.005 16.8814 20.0074 16.8991 20.0374C16.9264 20.0224 17.1446 19.901 17.1719 19.886C17.1555 19.856 16.8882 19.3732 16.8882 19.3732C16.8882 19.3732 17.1364 19.2355 17.165 19.2191C17.1514 19.1932 17.0464 19.005 17.0328 18.9791C17.0041 18.9941 16.7559 19.1318 16.7559 19.1318C16.7559 19.1318 16.6004 18.8509 16.5841 18.8223C16.5759 18.8277 16.5663 18.8332 16.5663 18.8332H16.5636Z" fill="#76777A"/>
<path d="M17.2207 20.0222C17.2207 20.0222 15.5515 20.9482 15.5215 20.9646C15.5365 20.9919 15.6415 21.1814 15.6565 21.2074C15.6865 21.1896 17.1021 20.4055 17.1021 20.4055C17.1021 20.4055 17.2917 20.7464 17.308 20.7764C17.3353 20.7614 17.5535 20.64 17.5808 20.625C17.5644 20.595 17.2576 20.0413 17.2398 20.0127C17.2303 20.0168 17.2221 20.0222 17.2221 20.0222H17.2207Z" fill="#76777A"/>
<path d="M16.0458 19.1631L15.5398 19.444C15.5398 19.444 15.5398 19.444 15.5384 19.444L15.4457 19.2776L15.1689 19.4304L15.2616 19.5981L14.7461 19.8832L14.8757 20.115L15.0611 20.0127C15.0529 20.1218 15.0734 20.2336 15.1307 20.3359C15.2916 20.625 15.6707 20.7232 15.9762 20.5528C16.2817 20.3837 16.4003 20.01 16.2394 19.7209C16.1821 19.6186 16.099 19.5422 16.0021 19.4918L16.174 19.3949L16.0458 19.1644V19.1631ZM15.8344 20.2827C15.6871 20.3646 15.5057 20.3168 15.4293 20.1777C15.3516 20.0386 15.4089 19.8613 15.5548 19.7795C15.7007 19.6977 15.8821 19.7454 15.9598 19.8845C16.0362 20.0236 15.9803 20.2009 15.8344 20.2827Z" fill="#76777A"/>
<path d="M22.213 12.3316L21.9744 12.1816C22.2253 12.0671 22.2335 11.8161 22.2335 11.8161C22.243 11.6197 22.1285 11.4793 21.9607 11.4806C21.7398 11.482 21.658 11.6784 21.5653 11.9048C21.4643 12.1475 21.3089 12.4039 20.9993 12.4216C20.6242 12.4448 20.3706 12.1134 20.3897 11.6579C20.4088 11.2147 20.7143 11.002 20.7143 11.002L20.9952 11.1315C20.9952 11.1315 20.5997 11.2624 20.5738 11.7398C20.5629 11.9511 20.717 12.1148 20.9243 12.1134C21.1452 12.1121 21.2243 11.9225 21.3157 11.7029C21.418 11.4561 21.5325 11.1779 21.8857 11.1752C22.2308 11.1724 22.4394 11.4452 22.419 11.8707C22.419 11.8707 22.4135 12.1421 22.2117 12.3344L22.213 12.3316Z" fill="#76777A"/>
<path d="M1.50715 15.4367L1.78673 15.4667C1.6108 15.6808 1.71445 15.9099 1.71445 15.9099C1.79218 16.0899 1.95583 16.1677 2.10585 16.0927C2.30496 15.9945 2.29132 15.7831 2.27632 15.539C2.26132 15.2758 2.28859 14.9785 2.55862 14.8257C2.88593 14.6416 3.25824 14.8285 3.44098 15.2458C3.61827 15.6522 3.43689 15.9768 3.43689 15.9768L3.12595 15.9836C3.12595 15.9836 3.42598 15.6931 3.23914 15.2526C3.15732 15.0576 2.94593 14.9785 2.76046 15.0698C2.56135 15.168 2.57362 15.3726 2.58862 15.6099C2.60499 15.8758 2.62272 16.1772 2.30769 16.3341C1.99948 16.4868 1.69126 16.3341 1.52488 15.9427C1.52488 15.9427 1.41033 15.6958 1.50852 15.4353L1.50715 15.4367Z" fill="#76777A"/>
<path d="M1.20317 8.43105L1.18272 8.45014C1.14726 8.48697 0.942692 8.69971 0.854047 9.12385C0.719033 9.773 1.02179 10.2544 1.61776 10.3785C2.22736 10.5053 2.67059 10.2026 2.80288 9.56707C2.8547 9.31887 2.86425 9.06384 2.83152 8.80745L2.82879 8.7829L2.0869 8.6288L2.02416 8.93155L2.65013 9.05975C2.68559 9.20567 2.67195 9.35569 2.65013 9.45797C2.54785 9.94893 2.20145 10.1589 1.67231 10.0485C1.17862 9.9462 0.926327 9.62026 1.01906 9.16885C1.0668 8.9411 1.21545 8.71881 1.39956 8.6138L1.41319 8.60561L1.20181 8.42969L1.20317 8.43105Z" fill="#76777A"/>
<path d="M3.0757 4.56582L2.9025 4.81266L3.34163 5.72911L2.32835 5.62956L2.10742 5.94323L3.42619 6.01823C3.44255 6.02914 4.08625 6.48055 4.08625 6.48055L4.26354 6.22825C4.26354 6.22825 3.59802 5.76184 3.58302 5.7523L3.07434 4.56445L3.0757 4.56582Z" fill="#76777A"/>
<path d="M21.1142 16.66L21.2356 16.3846L20.626 15.5718L21.6393 15.4722L21.7948 15.1203L20.4869 15.3045C20.4692 15.2963 19.7491 14.9785 19.7491 14.9785L19.625 15.2608C19.625 15.2608 20.3696 15.5881 20.3846 15.5949L21.1156 16.66H21.1142Z" fill="#76777A"/>
<path d="M2.46885 7.26068L2.05972 6.06738L1.92061 6.34832L2.30656 7.4707C2.25473 7.44479 1.55239 7.09976 1.55239 7.09976L1.41602 7.3766L3.148 8.2276L3.28438 7.95075L2.44566 7.53889L3.63078 7.24841L3.80262 6.89656L2.46885 7.26205V7.26068Z" fill="#76777A"/>
<path d="M8.24463 2.06886L8.81469 0.942383L8.51602 1.03921L7.98143 2.0975C7.96233 2.04158 7.72231 1.29696 7.72231 1.29696L7.42773 1.39243L8.02507 3.22806L8.31828 3.1326L8.02916 2.24342L9.06426 2.88985L9.43657 2.76847L8.24463 2.06749V2.06886Z" fill="#76777A"/>
<path d="M9.85618 2.67747L10.0867 2.65429L10.4494 1.12959L11.0727 2.5561L11.3372 2.53019L11.7859 0.545898L11.52 0.57181L11.1572 2.14151L10.5149 0.672729L10.339 0.690458L9.98028 2.25607L9.37341 0.787286L9.04883 0.818653L9.85618 2.67747Z" fill="#76777A"/>
<path d="M12.8515 0.689217L12.7151 0.672852L11.6582 2.51394L11.9214 2.54667L12.3101 1.85524L12.902 1.92616L13.1065 2.68851L13.4666 2.73215L12.8515 0.687853V0.689217ZM12.6988 1.11199C12.7315 1.22518 12.831 1.66159 12.8542 1.73796L12.3837 1.68068L12.6988 1.11199Z" fill="#76777A"/>
<path d="M20.4152 5.27825L18.8184 6.35938L18.9904 6.61346L20.5872 5.53234L20.4152 5.27825Z" fill="#76777A"/>
<path d="M20.3552 12.7605L20.3066 13.0635L22.2107 13.3688L22.2593 13.0658L20.3552 12.7605Z" fill="#76777A"/>
<path d="M17.5319 3.7561C17.2632 4.14887 16.9795 4.21297 16.6768 4.00567C16.3358 3.77247 16.3236 3.53653 16.6086 3.12058L17.2168 2.23141L16.9645 2.05957L16.3413 2.97057C16.2104 3.16832 16.0876 3.39334 16.1422 3.62382C16.1899 3.82429 16.3263 3.99749 16.55 4.15023C16.9768 4.44344 17.3764 4.3698 17.6751 3.93476L18.3229 2.9883L18.1415 2.8642L17.5319 3.7561Z" fill="#76777A"/>
<path d="M5.06587 4.09027C5.4 4.42984 5.40818 4.72033 5.14633 4.97808C4.85176 5.2672 4.61855 5.23311 4.26534 4.87307L3.51117 4.10527L3.29297 4.31938L4.06623 5.10627C4.23533 5.27402 4.43172 5.43767 4.66901 5.42812C4.87358 5.41994 5.07133 5.32039 5.26498 5.13082C5.63456 4.76806 5.64002 4.36166 5.27044 3.98525L4.46581 3.16699L4.30898 3.3211L5.06587 4.09163V4.09027Z" fill="#76777A"/>
<path d="M1.83689 13.1918C2.30057 13.0813 2.55424 13.2245 2.63879 13.5805C2.73425 13.9828 2.5856 14.1642 2.09601 14.2814L1.04863 14.531L1.11955 14.8283L2.19284 14.5719C2.42331 14.5133 2.6647 14.4301 2.77789 14.2214C2.87745 14.0414 2.90336 13.8191 2.84063 13.5559C2.72062 13.0527 2.36603 12.8399 1.85326 12.9627L0.736328 13.2286L0.786788 13.4427L1.83689 13.1918Z" fill="#76777A"/>
<path d="M19.4258 7.33573L19.5049 7.4912L21.5915 7.32754L21.4633 7.07934L19.8213 7.24163L20.9068 5.99923L20.7486 5.69238L19.4258 7.33573Z" fill="#76777A"/>
<path d="M20.1694 8.51829C20.2266 8.50056 20.7858 8.32327 20.8417 8.30418L21.0449 8.94242L21.2317 8.88242L21.0299 8.24417C21.0844 8.22644 21.5836 8.06825 21.6381 8.05188L21.8577 8.7474L22.0159 8.69694L21.7036 7.71094L19.8652 8.29327L20.183 9.29564L20.3971 9.22745L20.1721 8.51556L20.1694 8.51829Z" fill="#76777A"/>
<path d="M22.1719 13.7253L22.0178 13.6816L21.8555 14.2585C21.7928 14.2408 20.1535 13.7812 20.1535 13.7812L20.0703 14.0758L21.7723 14.5531L21.6196 15.1054L21.775 15.1477L22.1732 13.7253H22.1719Z" fill="#76777A"/>
<path d="M20.2676 9.59877L20.3058 9.9029L21.2359 9.77879L20.4149 10.7239L20.4585 11.0485L21.2795 10.1088C21.334 10.4225 21.5891 10.6707 21.8659 10.6339C22.1823 10.5916 22.3173 10.3734 22.2614 9.9479L22.1809 9.34375L20.2676 9.59741V9.59877ZM21.4172 9.75561C21.4732 9.74879 21.9996 9.67787 22.0555 9.67106L22.0937 9.96154C22.125 10.2016 21.9982 10.3229 21.825 10.3379C21.6436 10.3543 21.495 10.2793 21.4513 10.0079L21.4172 9.75561Z" fill="#76777A"/>
<path d="M6.40967 1.86074L6.22283 1.97939L6.95927 3.13723C6.28147 2.96267 5.09908 2.69264 5.09908 2.69264L4.9668 2.77583L6.00054 4.40417L6.18737 4.28552C6.18737 4.28552 5.75778 3.60773 5.41275 3.06631L7.33294 3.55863L7.44477 3.48772L6.40967 1.85938V1.86074Z" fill="#76777A"/>
<path d="M0.610739 10.8495L0.61483 11.0704L1.98678 11.0418C1.48628 11.5314 0.643469 12.4028 0.643469 12.4028L0.646197 12.5583L2.57457 12.5174L2.56911 12.2965C2.56911 12.2965 1.76722 12.3142 1.12488 12.3278L2.54048 10.9409L2.53775 10.8086L0.609375 10.8509L0.610739 10.8495Z" fill="#76777A"/>
<path d="M15.7561 1.46055L15.5461 1.38963L15.1083 2.69067C14.8178 2.05379 14.2832 0.965499 14.2832 0.965499L14.1346 0.915039L13.5195 2.74386L13.7282 2.81477C13.7282 2.81477 13.9846 2.05379 14.1891 1.44555L15.0142 3.24709L15.1397 3.28936L15.7534 1.46055H15.7561Z" fill="#76777A"/>
<path d="M20.0312 4.7119L19.8812 4.55098L18.8761 5.48516C18.9252 4.78691 18.9743 3.57452 18.9743 3.57452L18.8679 3.45996L17.4551 4.77327L17.6051 4.9342C17.6051 4.9342 18.1929 4.38733 18.6634 3.94955L18.5297 5.92702L18.6197 6.02385L20.0312 4.70918V4.7119Z" fill="#76777A"/>
<path d="M12.1944 9.09013C12.193 7.51361 13.4654 6.23439 15.0365 6.23303C15.4169 6.23303 15.7797 6.30804 16.1111 6.44305C13.5909 4.12328 9.66729 4.18737 7.22614 6.63534C4.86136 9.00694 4.73725 12.7655 6.84837 15.283C7.39388 14.567 8.14123 13.7392 9.06041 13.0914C9.77639 12.5855 10.7719 12.0809 11.5725 12.0031C12.3294 11.9309 13.4586 12.0031 14.1418 12.3291C13.6072 11.7822 13.044 11.1685 12.7671 10.8017C12.4085 10.3257 12.1957 9.73247 12.1944 9.08877V9.09013Z" fill="url(#paint0_linear_4393_53595)"/>
<path d="M11.9958 11.1763L8.98048 5.38574C8.42543 5.65441 7.90037 6.00626 7.42578 6.44539L11.9767 11.1695L11.9958 11.1763Z" fill="url(#paint1_linear_4393_53595)"/>
<path d="M12.0107 11.182L12.3994 4.78181C11.8798 4.73136 11.3548 4.74227 10.8379 4.81864L12.0053 11.1806L12.0107 11.1834V11.182Z" fill="url(#paint2_linear_4393_53595)"/>
<path d="M11.9766 11.1689L5.77694 8.875C5.56692 9.4246 5.436 9.99875 5.38281 10.577L11.993 11.1852L11.9766 11.1689Z" fill="url(#paint3_linear_4393_53595)"/>
<path d="M5.42383 12.0958C5.48929 12.5431 5.60248 12.9836 5.76204 13.4118L11.9754 11.2012L5.42519 12.0958H5.42383Z" fill="url(#paint4_linear_4393_53595)"/>
<path d="M6.7321 16.85C6.54527 16.6877 6.22615 16.3863 5.93975 16.018C4.62781 14.5506 3.12629 10.6966 5.61245 7.19718C6.638 5.75431 8.11088 4.78194 9.57557 4.38644C12.9905 3.46454 15.6171 5.07515 16.8199 6.37482C16.9536 6.51938 16.9345 6.70486 16.8336 6.78941C16.6849 6.91488 16.5499 6.84942 16.2499 6.7635C15.7821 6.62848 15.3784 6.59712 14.9461 6.65303C13.9424 6.78259 13.075 7.71405 13.1964 9.01372C13.3082 10.2002 14.2247 11.0566 14.867 11.6213C17.1268 13.6055 16.374 15.7371 16.1912 16.2049C15.5693 17.795 13.971 18.9174 11.8981 18.9202C11.0375 18.9202 9.79241 18.6992 8.54046 17.9082C8.49273 17.8864 8.44364 17.8223 8.50364 17.7159C8.59911 17.4746 8.99733 16.7695 9.16916 16.5649C9.79104 17.2823 10.8411 17.9573 12.0072 17.9982C13.6001 18.0542 14.6256 17.1909 15.0006 16.0971C15.4221 14.8684 14.9706 13.6151 13.7787 12.4872C12.7518 11.5135 11.8353 10.6134 11.7794 9.06827C11.7085 7.08807 13.4309 5.91114 15.0334 5.98751C15.0811 5.99024 12.8173 4.36053 9.91378 5.33699C8.49273 5.81568 7.6431 6.65576 7.23534 7.13308C7.17397 7.20672 7.21352 7.26264 7.23534 7.29264C7.28034 7.35674 8.26907 8.73278 8.26907 8.73278L6.48799 8.32502C6.48799 8.32502 6.41435 8.30729 6.37752 8.36866C5.81292 9.34512 4.98239 12.1681 6.84802 14.7361C6.84802 14.7361 8.43136 12.2213 11.5803 12.0031C11.7903 11.9895 11.7631 12.0645 11.6253 12.1136C8.81322 13.1514 7.70584 15.2162 6.98986 16.809C6.94622 16.9072 6.82893 16.9372 6.73347 16.8527L6.7321 16.85Z" fill="#003B71"/>
<path d="M9.62991 14.9071C9.62991 14.9071 9.80584 14.828 9.85494 14.8008V16.0213H10.0772L10.0745 14.5867L10.039 14.5635L10.0281 14.5689C9.86721 14.6494 9.70356 14.7244 9.56445 14.7817L9.62991 14.9085V14.9071Z" fill="#76777A"/>
<path d="M10.803 15.303C10.9816 15.303 11.0689 15.3944 11.0689 15.584C11.0689 15.7776 10.9489 15.9031 10.7634 15.9031C10.6284 15.9031 10.537 15.8131 10.5043 15.7749L10.477 15.7435L10.4238 15.9331L10.4402 15.9413C10.5166 15.9781 10.6148 16.0149 10.7593 16.0149C11.0743 16.0149 11.3021 15.8226 11.3021 15.5581C11.3021 15.3167 11.1153 15.2471 11.0021 15.2267C11.1262 15.1735 11.238 15.0603 11.2366 14.8884C11.2366 14.6866 11.0771 14.5639 10.8234 14.5625C10.6079 14.5625 10.4975 14.703 10.4975 14.703L10.5916 14.8666L10.6079 14.8203C10.6338 14.7466 10.7129 14.6716 10.8152 14.6716C10.9066 14.6716 11.0116 14.7316 11.013 14.9007C11.013 15.033 10.9762 15.1898 10.8043 15.1898L10.6898 15.1817V15.3167C10.6898 15.3167 10.7539 15.3003 10.8043 15.3003L10.803 15.303Z" fill="#76777A"/>
<path d="M11.6026 15.728L11.6613 15.9598C11.6613 15.9598 11.7526 16.013 11.8822 16.0116C12.2504 16.0103 12.5068 15.6652 12.5068 15.1702C12.5068 14.6192 12.1699 14.5592 12.0254 14.5606C11.7458 14.5606 11.5494 14.7501 11.5508 15.0215C11.5508 15.2861 11.7117 15.4497 11.9708 15.4497C12.1018 15.4497 12.204 15.3979 12.2804 15.3011C12.2654 15.6093 12.144 15.8902 11.8931 15.893C11.6913 15.8943 11.604 15.728 11.604 15.728H11.6026ZM12.0036 15.3284C11.8495 15.3284 11.7744 15.2275 11.7744 15.0202C11.7744 14.8101 11.874 14.6697 12.024 14.6697C12.1727 14.6697 12.2736 14.7883 12.2736 14.9656C12.2736 15.1456 12.1809 15.327 12.0036 15.327V15.3284Z" fill="#76777A"/>
<path d="M13.3825 15.1855C13.5079 15.1296 13.5884 15.0164 13.5884 14.8814C13.5884 14.7328 13.4807 14.5596 13.1752 14.5596C12.9433 14.5596 12.7701 14.7096 12.7701 14.906C12.7701 15.0533 12.8697 15.1569 12.9774 15.1965C12.7988 15.2674 12.6979 15.4037 12.6992 15.5892C12.6992 15.8415 12.8915 16.0106 13.1779 16.0106C13.4561 16.0106 13.6566 15.8129 13.6566 15.5415C13.6566 15.2906 13.4711 15.2101 13.3838 15.1855H13.3825ZM12.9815 14.9087C12.9815 14.8528 12.9952 14.6687 13.1779 14.6687C13.3579 14.6687 13.377 14.8364 13.377 14.9073C13.377 14.9632 13.3634 15.1474 13.1779 15.1474C12.9965 15.1474 12.9815 14.9646 12.9815 14.9087ZM13.1779 15.9002C13.0265 15.9002 12.9229 15.772 12.9229 15.5797C12.9229 15.3874 13.0252 15.2592 13.1766 15.2578C13.3279 15.2578 13.4302 15.386 13.4302 15.5783C13.4302 15.7733 13.332 15.9002 13.1766 15.9002H13.1779Z" fill="#76777A"/>
</g>
<defs>
<linearGradient id="paint0_linear_4393_53595" x1="12.9654" y1="11.6031" x2="7.6949" y2="8.6311" gradientUnits="userSpaceOnUse">
<stop stop-color="white"/>
<stop offset="0.2" stop-color="#E7EB8E"/>
<stop offset="0.76" stop-color="#AACC03"/>
<stop offset="1" stop-color="#8DC21F"/>
</linearGradient>
<linearGradient id="paint1_linear_4393_53595" x1="12.5258" y1="9.64355" x2="7.61084" y2="6.36559" gradientUnits="userSpaceOnUse">
<stop stop-color="#E5EA90"/>
<stop offset="0.02" stop-color="#E1E889"/>
<stop offset="0.09" stop-color="#D2E06E"/>
<stop offset="0.15" stop-color="#CADB5D"/>
<stop offset="0.2" stop-color="#C7DA58"/>
<stop offset="0.4" stop-color="#A1C710"/>
<stop offset="0.74" stop-color="#7CB923"/>
<stop offset="1" stop-color="#65B12F"/>
</linearGradient>
<linearGradient id="paint2_linear_4393_53595" x1="13.1928" y1="8.64331" x2="8.27782" y2="5.36398" gradientUnits="userSpaceOnUse">
<stop stop-color="#E5EA90"/>
<stop offset="0.02" stop-color="#E1E889"/>
<stop offset="0.09" stop-color="#D2E06E"/>
<stop offset="0.15" stop-color="#CADB5D"/>
<stop offset="0.2" stop-color="#C7DA58"/>
<stop offset="0.4" stop-color="#A1C710"/>
<stop offset="0.74" stop-color="#7CB923"/>
<stop offset="1" stop-color="#65B12F"/>
</linearGradient>
<linearGradient id="paint3_linear_4393_53595" x1="10.7738" y1="12.2717" x2="5.85747" y2="8.99236" gradientUnits="userSpaceOnUse">
<stop stop-color="#E5EA90"/>
<stop offset="0.02" stop-color="#E1E889"/>
<stop offset="0.09" stop-color="#D2E06E"/>
<stop offset="0.15" stop-color="#CADB5D"/>
<stop offset="0.2" stop-color="#C7DA58"/>
<stop offset="0.4" stop-color="#A1C710"/>
<stop offset="0.74" stop-color="#7CB923"/>
<stop offset="1" stop-color="#65B12F"/>
</linearGradient>
<linearGradient id="paint4_linear_4393_53595" x1="10.1695" y1="13.1762" x2="5.25453" y2="9.89822" gradientUnits="userSpaceOnUse">
<stop stop-color="#E5EA90"/>
<stop offset="0.02" stop-color="#E1E889"/>
<stop offset="0.09" stop-color="#D2E06E"/>
<stop offset="0.15" stop-color="#CADB5D"/>
<stop offset="0.2" stop-color="#C7DA58"/>
<stop offset="0.4" stop-color="#A1C710"/>
<stop offset="0.74" stop-color="#7CB923"/>
<stop offset="1" stop-color="#65B12F"/>
</linearGradient>
<clipPath id="clip0_4393_53595">
<rect width="23" height="23" fill="white"/>
</clipPath>
</defs>
</svg>
