<svg width="23" height="23" viewBox="0 0 23 23" fill="none" xmlns="http://www.w3.org/2000/svg">
<g clip-path="url(#clip0_4393_53090)">
<path d="M0 11.4982C0 17.84 5.15762 22.9988 11.4982 22.9988C17.8389 22.9988 23.0006 17.84 23.0006 11.4982C23.0006 5.15645 17.8412 0 11.4982 0C5.15527 0 0 5.15762 0 11.4982Z" fill="white"/>
<path d="M0.339844 11.4967C0.339844 5.34426 5.34739 0.337891 11.4987 0.337891C17.6499 0.337891 22.6598 5.34426 22.6598 11.4967C22.6598 17.6492 17.654 22.6596 11.4987 22.6596C5.34328 22.6596 0.339844 17.6521 0.339844 11.4967Z" fill="#003378"/>
<path d="M11.4993 19.6328C7.00941 19.6328 3.36719 15.9924 3.36719 11.5007C3.36719 7.00902 7.00941 3.36621 11.4993 3.36621C15.9892 3.36621 19.6344 7.00726 19.6344 11.5001C19.6344 15.9929 15.9916 19.6322 11.4993 19.6322" fill="white"/>
<path d="M2.09375 14.1396C2.09375 14.3125 2.23386 14.4544 2.40679 14.4544C2.57973 14.4544 2.71984 14.3125 2.71984 14.1396C2.71984 13.9667 2.57973 13.8271 2.40679 13.8271C2.23386 13.8271 2.09375 13.9667 2.09375 14.1396Z" fill="white"/>
<path d="M21.023 14.1841C21.023 14.3612 20.8811 14.503 20.7058 14.503C20.5305 14.503 20.3887 14.3606 20.3887 14.1841C20.3887 14.0077 20.5294 13.8652 20.7058 13.8652C20.8823 13.8652 21.023 14.0077 21.023 14.1841Z" fill="white"/>
<path d="M3.00131 8.7343C2.88934 9.08721 2.5124 9.23728 2.08563 9.10128C1.55568 8.93362 1.57268 8.61061 1.62778 8.43357C1.6741 8.29287 1.76555 8.18032 1.89745 8.1129C2.06628 8.02614 2.28553 8.01676 2.51474 8.09004C2.75041 8.16332 2.90341 8.27353 2.9761 8.41246C3.04411 8.54612 3.02124 8.67158 3.00073 8.7343M2.54054 7.75648C2.3207 7.68671 2.11318 7.69668 1.93672 7.7893C1.74503 7.89014 1.59906 8.07949 1.51757 8.33625C1.44019 8.58774 1.45074 8.82341 1.55275 9.01862C1.65182 9.2109 1.83355 9.35922 2.04987 9.42839C2.43384 9.54974 2.92862 9.42312 3.10507 8.86151C3.18246 8.61823 3.16839 8.38374 3.06404 8.1809C2.9591 7.98159 2.77327 7.83034 2.54054 7.75706" fill="white"/>
<path d="M4.74963 5.71587L4.45886 5.438L4.51631 5.37879L4.6488 5.46438C4.80825 5.54586 4.92784 5.45793 4.98412 5.39755C5.10195 5.27444 5.08319 5.13023 5.00815 5.05695C4.93487 4.98778 4.84401 4.94791 4.63883 4.97957L4.51807 4.99716C4.23902 5.03819 4.06316 5.00126 3.9295 4.87288C3.75304 4.70522 3.77063 4.43966 3.97639 4.22334C4.14992 4.04219 4.24665 4.0293 4.24665 4.0293L4.49814 4.27082L4.43658 4.33589C4.43658 4.33589 4.37679 4.25851 4.27185 4.24796C4.21909 4.24327 4.13995 4.24796 4.05436 4.33589C3.95881 4.43731 3.95177 4.55573 4.03912 4.63897C4.09833 4.69408 4.16868 4.71635 4.39379 4.68059L4.46589 4.66887C4.7889 4.6208 4.95657 4.65363 5.10488 4.79374C5.17054 4.85763 5.27723 4.99598 5.23678 5.20527C5.21685 5.31548 5.15999 5.41631 5.06502 5.51421C4.97826 5.60449 4.83991 5.71352 4.74904 5.7147" fill="white"/>
<path d="M18.5398 6.0892L18.8722 5.86115L18.9185 5.93092L18.8054 6.0423C18.6922 6.18006 18.755 6.31548 18.8013 6.38348C18.8968 6.52476 19.0422 6.53707 19.1296 6.47728C19.2128 6.42041 19.2703 6.34069 19.282 6.13316L19.289 6.01299C19.3078 5.73043 19.3805 5.56628 19.5323 5.46252C19.7345 5.32476 19.9901 5.39745 20.1584 5.64425C20.2997 5.85119 20.292 5.9485 20.292 5.9485L20.0042 6.14489L19.9532 6.07102C19.9532 6.07102 20.0417 6.0294 20.074 5.92681C20.0898 5.87757 20.1021 5.80019 20.0329 5.6976C19.9538 5.58152 19.8389 5.55104 19.7416 5.61728C19.6736 5.66477 19.6366 5.72984 19.6255 5.95671L19.622 6.02999C19.6021 6.35652 19.5358 6.51362 19.3658 6.62911C19.2902 6.68011 19.1325 6.75515 18.9361 6.67308C18.8335 6.63087 18.7468 6.55407 18.6694 6.43976C18.5984 6.33658 18.5216 6.17889 18.5398 6.08978" fill="white"/>
<path d="M5.97518 3.61172C6.06018 3.54841 6.08422 3.57479 6.15105 3.66448L6.21025 3.61875L5.94997 3.26936L5.89018 3.3145C5.95583 3.40361 5.97576 3.43351 5.89018 3.49741L5.6422 3.68265L5.31626 3.24943C5.31626 3.24943 5.51089 3.10522 5.56189 3.06712C5.6762 2.98211 5.72779 3.03956 5.79169 3.12808L5.85324 3.08294L5.6551 2.81738L4.82031 3.44171L4.86545 3.50268C4.92114 3.46047 5.02608 3.36961 5.11636 3.4892C5.20722 3.61055 5.81279 4.4213 5.81279 4.4213C5.91714 4.56023 5.86555 4.58368 5.76707 4.65637L5.8169 4.72086L6.66927 4.08422L6.45295 3.79697L6.39198 3.84211C6.48695 3.9699 6.46937 4.05139 6.38202 4.11705C6.32457 4.16043 6.11411 4.31636 6.11411 4.31636L5.72779 3.7999L5.72662 3.79814L5.97576 3.61172H5.97518Z" fill="white"/>
<path d="M17.0697 3.70076C17.1588 3.75997 17.1406 3.79045 17.0779 3.88249L17.1406 3.92704L17.3833 3.56182L17.32 3.5202C17.2584 3.61283 17.2368 3.64096 17.1482 3.58293L16.8903 3.40882L17.1916 2.95918C17.1916 2.95918 17.3921 3.09402 17.4455 3.12919C17.5639 3.2095 17.5258 3.27633 17.4648 3.36661L17.5269 3.40882L17.711 3.13447L16.8463 2.55469L16.8041 2.61741C16.8627 2.65669 16.9823 2.72469 16.8991 2.85015C16.8147 2.97501 16.2519 3.81683 16.2519 3.81683C16.1552 3.96104 16.1171 3.92001 16.0151 3.85201L15.9688 3.92001L16.854 4.5121L17.0533 4.21371L16.99 4.16974C16.9008 4.30223 16.8182 4.31278 16.7285 4.25299C16.6699 4.21312 16.4512 4.06657 16.4512 4.06657L16.8112 3.53017V3.52782L17.0703 3.70193L17.0697 3.70076Z" fill="white"/>
<path d="M6.87174 2.35344C6.82542 2.26082 6.86939 2.23444 6.98312 2.1764L6.94795 2.1084L6.35938 2.41031L6.39455 2.47772C6.39455 2.47772 6.54345 2.37161 6.60618 2.4912C6.63607 2.55041 7.17716 3.60738 7.17716 3.60738C7.22582 3.69883 7.17951 3.72756 7.06578 3.78559L7.10095 3.85242L7.73407 3.52648L7.70066 3.45965C7.60628 3.50889 7.50252 3.57865 7.44682 3.46786C7.38937 3.35941 6.87174 2.35344 6.87174 2.35344Z" fill="white"/>
<path d="M10.2811 1.96077L10.1521 1.31593C10.1328 1.21334 10.1808 1.20161 10.3063 1.17582L10.291 1.10254L9.72768 1.21568L9.74292 1.28837C9.74292 1.28837 9.91586 1.22565 9.94224 1.35813L10.0788 2.0405C10.124 2.25916 10.1486 2.43503 10.0642 2.56283C9.98797 2.67949 9.86193 2.71525 9.81269 2.72639C9.73765 2.73987 9.64913 2.7469 9.54771 2.69297C9.45567 2.6449 9.35953 2.55345 9.29505 2.22927L9.15142 1.517C9.13149 1.41617 9.18015 1.40269 9.30736 1.37689L9.29094 1.30303L8.64258 1.43258L8.65665 1.50586C8.65665 1.50586 8.83076 1.44548 8.85772 1.57621L9.00369 2.30079C9.05528 2.56576 9.15084 2.7299 9.30267 2.82077C9.49436 2.93508 9.70834 2.8917 9.79979 2.87411C9.92114 2.84949 10.0777 2.80025 10.2072 2.63318C10.3538 2.44617 10.3297 2.19995 10.2823 1.96136" fill="white"/>
<path d="M14.0359 1.56284C14.06 1.46025 14.1098 1.46904 14.2347 1.49777L14.2517 1.42449L13.6068 1.27441L13.5916 1.34769C13.5916 1.34769 13.7733 1.36293 13.7434 1.49425C13.7282 1.55932 13.4609 2.71653 13.4609 2.71653C13.4374 2.81736 13.3846 2.80798 13.2598 2.77984L13.2422 2.85312L13.9369 3.01375L13.9545 2.94164C13.8495 2.91761 13.727 2.90354 13.7545 2.78453C13.7833 2.66436 14.0365 1.56225 14.0365 1.56225" fill="white"/>
<path d="M20.7804 7.15533C20.8742 7.10961 20.8988 7.1524 20.9551 7.2673L21.0231 7.23447L20.7324 6.64062L20.6644 6.67404C20.6644 6.67404 20.7693 6.8247 20.6468 6.8845C20.5881 6.91381 19.5224 7.43848 19.5224 7.43848C19.4286 7.48362 19.4022 7.43672 19.3453 7.32123L19.2773 7.35523L19.5916 7.99481L19.6584 7.96198C19.6115 7.86642 19.5441 7.76266 19.6549 7.70814C19.7651 7.65362 20.7804 7.15475 20.7804 7.15475" fill="white"/>
<path d="M21.3202 7.91895L20.9896 7.96643L21.0137 8.04967C21.1227 8.03326 21.2018 8.02681 21.2429 8.16457C21.2505 8.19037 21.2657 8.24078 21.3337 8.47058C21.1485 8.52452 20.0915 8.83698 20.0915 8.83698C19.9919 8.86687 19.9743 8.81529 19.9385 8.69276L19.8652 8.71328L20.0681 9.39799L20.1396 9.37806C20.1097 9.27489 20.0593 9.15999 20.1771 9.12598C20.2867 9.09316 21.2581 8.80591 21.4187 8.75842C21.4867 8.98764 21.502 9.03864 21.5096 9.06267C21.5495 9.20102 21.4803 9.23971 21.3789 9.28427L21.4047 9.36751L21.7077 9.22975L21.3202 7.91895Z" fill="white"/>
<path d="M18.678 4.62314C18.5467 4.7568 18.4353 4.76325 18.3826 4.75504C18.341 4.74918 18.3187 4.73687 18.2612 4.68L18.1545 4.57507L18.647 4.07678L18.7191 4.14888C18.7988 4.22802 18.8838 4.4162 18.6786 4.62373M19.0544 4.4291C19.0263 4.28606 18.9295 4.17409 18.8375 4.08322L18.3937 3.64355L18.3421 3.69807C18.3421 3.69807 18.4899 3.80594 18.3955 3.90267C18.3486 3.95015 17.5126 4.79314 17.5126 4.79314C17.4399 4.86701 17.3995 4.83125 17.308 4.74156L17.2559 4.79608L17.7629 5.29613L17.8145 5.24571C17.7383 5.1695 17.6404 5.09329 17.7278 5.00594L18.0619 4.66711L18.1979 4.80135L18.1381 5.16364C18.1071 5.37116 18.0965 5.49486 18.127 5.59276C18.1463 5.65607 18.1792 5.70355 18.2618 5.7868L18.4154 5.93687L18.4635 5.88763L18.4277 5.84366C18.4084 5.81552 18.3627 5.74693 18.3638 5.58631C18.3673 5.43096 18.3884 5.23633 18.4148 4.98894L18.4271 4.88811C18.6698 4.9098 18.8293 4.86701 18.9518 4.74332C19.0626 4.63193 19.0667 4.48831 19.0544 4.42851" fill="white"/>
<path d="M2.17166 10.4516C2.10366 10.4457 2.0421 10.4398 1.97234 10.4052C1.88968 10.3601 1.42891 10.0265 1.35094 9.94857C1.29935 9.89933 1.27883 9.87646 1.26242 9.83543L1.24718 9.74984L1.25245 9.69121L1.178 9.68359L1.12759 10.2147L1.20556 10.2217L1.21083 10.1672L1.24776 10.1426L1.34566 10.1795L1.85861 10.5242C1.85861 10.5242 1.28997 10.7886 1.23721 10.8068L1.17331 10.8238L1.15573 10.808L1.15338 10.7963L1.15573 10.7494L1.08186 10.7406L1.02734 11.3409L1.10121 11.3473C1.10121 11.3473 1.10531 11.2646 1.13873 11.2154C1.16511 11.1773 1.22373 11.1322 1.29701 11.0911C1.41425 11.0272 1.89613 10.7916 1.92779 10.781C1.99169 10.7599 2.03565 10.7447 2.14352 10.7535C2.14352 10.7535 2.35984 10.7734 2.49467 10.7869C2.6295 10.798 2.6254 10.8725 2.6166 10.9751L2.68695 10.9815L2.75085 10.2751L2.68285 10.2692C2.67171 10.3865 2.67171 10.4984 2.51694 10.4844C2.36159 10.4691 2.17224 10.4516 2.17224 10.4516" fill="white"/>
<path d="M20.845 10.7808C20.9101 10.7744 20.9734 10.7673 21.0479 10.7919C21.137 10.8189 21.654 11.0604 21.7443 11.1208C21.8041 11.1613 21.8293 11.1794 21.8522 11.2175L21.8832 11.299L21.8891 11.3565L21.9641 11.3483L21.9125 10.8189L21.8346 10.8259L21.841 10.8805L21.81 10.9121C21.783 10.9151 21.749 10.9098 21.7062 10.8963L21.137 10.6524C21.137 10.6524 21.647 10.286 21.6951 10.2585L21.7548 10.2298L21.7754 10.2421L21.7783 10.252L21.7859 10.3024L21.8592 10.2942L21.8 9.69629L21.7261 9.70332C21.7261 9.70332 21.7367 9.78598 21.7126 9.8405C21.6951 9.88271 21.6458 9.93781 21.5807 9.99175C21.4782 10.0762 21.049 10.398 21.0215 10.4144C20.9629 10.4472 20.9224 10.4701 20.8145 10.4812C20.8145 10.4812 20.5988 10.5024 20.4646 10.5152C20.3297 10.5299 20.3186 10.4555 20.3092 10.3523L20.2383 10.3593L20.308 11.0651L20.376 11.0575C20.3643 10.9397 20.3432 10.8301 20.4992 10.8172C20.6533 10.8013 20.845 10.782 20.845 10.782" fill="white"/>
<path d="M4.34186 6.29756L4.28617 6.39019L2.73091 6.74016L3.49066 7.20973C3.65128 7.3088 3.7058 7.18335 3.76149 7.09424L3.82657 7.13469L3.51235 7.64354L3.44669 7.60367C3.49593 7.52277 3.55573 7.44598 3.40331 7.35218C3.25031 7.25839 2.23438 6.62995 2.23438 6.62995L2.28714 6.54436C2.5527 6.48633 3.82246 6.20787 3.8635 6.19908C3.8635 6.19908 3.2163 5.79868 3.07502 5.71134C2.9355 5.62575 2.87336 5.73947 2.82998 5.80982L2.76608 5.76996L3.05744 5.2998L3.12192 5.34084C3.0762 5.41588 3.02344 5.48388 3.16296 5.57064C3.30307 5.65623 4.34244 6.29873 4.34244 6.29873" fill="white"/>
<path d="M12.5312 2.7442L12.424 2.73775L11.3811 1.53305L11.3266 2.42412C11.3148 2.6123 11.4497 2.60233 11.5564 2.60761L11.5511 2.68382L10.9531 2.64864L10.9566 2.57067C11.0522 2.57712 11.1478 2.59295 11.1589 2.41415C11.1694 2.23301 11.2421 1.04297 11.2421 1.04297L11.3412 1.04942C11.5188 1.25401 12.3648 2.24122 12.3929 2.27346C12.3929 2.27346 12.4392 1.51429 12.448 1.34898C12.4586 1.18484 12.3278 1.18425 12.2475 1.17897L12.251 1.10394L12.8033 1.13676L12.7974 1.21415C12.7095 1.20828 12.6245 1.19422 12.6139 1.35836C12.6057 1.5225 12.5307 2.74302 12.5307 2.74302" fill="white"/>
<path d="M16.3922 2.3412L16.4104 2.26616L15.9279 2.05453L15.8974 2.12547L15.9537 2.1495L15.983 2.19112L15.9232 2.28375L15.4736 2.73631L15.1834 3.02415C15.1852 2.98253 15.2121 2.40392 15.2256 2.15185L15.2373 1.93084L15.2526 1.8728L15.3042 1.86694L15.3604 1.89215L15.3903 1.82121L14.8287 1.57617L14.7988 1.64359C14.7988 1.64359 14.8762 1.67583 14.9055 1.71862C14.9272 1.75263 14.9384 1.81711 14.9348 1.89215L14.9102 3.39816L14.9741 3.42689L15.8288 2.63841L16.136 2.35996C16.136 2.35996 16.238 2.27144 16.3394 2.31775L16.3922 2.3412Z" fill="white"/>
<path d="M12.0265 20.2672V20.762H11.8958V20.2672H11.5604V20.3071C11.5933 20.3071 11.6249 20.3651 11.6249 20.4255V21.4924H10.9314V20.5369H11.3922V20.3129H10.5762V20.3516C10.6096 20.3516 10.643 20.4073 10.643 20.47V21.7181H11.6255V22.0751H11.8964V20.9865H12.0271V22.0751H12.3173V20.2666H12.0271L12.0265 20.2672Z" fill="white"/>
<path d="M19.8442 17.5391C19.6126 17.3457 18.7444 16.6252 18.7321 16.6152H18.7303L17.8223 17.7097L17.9946 17.8539L18.7192 16.9805C18.7192 16.9805 19.4485 17.5866 19.6572 17.7607C19.5792 17.8574 19.517 17.9331 19.517 17.9331L19.0275 17.5268L18.8499 17.7396L19.3394 18.1453L19.2445 18.2596L18.7538 17.8539L18.548 18.1019L18.5803 18.1271C18.6019 18.1013 18.6664 18.1136 18.7127 18.1517L19.0809 18.4566L18.8734 18.7063L19.0475 18.8505L20.1302 17.5462L19.9555 17.4008C19.952 17.4072 19.9063 17.4641 19.8442 17.5385" fill="white"/>
<path d="M8.07537 19.5859L7.32031 21.2303L7.58411 21.3511L8.34035 19.7073H8.33859L8.07537 19.5859Z" fill="white"/>
<path d="M7.67573 19.4014L7.65932 19.4383H7.66108C7.69098 19.4524 7.69625 19.5174 7.67046 19.5731L7.53035 19.878L7.25482 19.7513L7.16044 19.9571L7.43597 20.0826L6.98047 21.0721L7.21261 21.1794L7.97002 19.5362L7.96885 19.535L7.67573 19.4014Z" fill="white"/>
<path d="M6.91892 19.907L6.91072 19.8894L6.91658 19.8836C7.11941 19.7312 7.26832 19.5436 7.37442 19.3126L6.9922 19.1367L6.97696 19.1725C6.97989 19.176 7.05083 19.2311 6.98927 19.3642V19.3653C6.98517 19.3736 6.78116 19.8191 6.16797 20.0196L6.23597 20.1925H6.23714C6.23714 20.1925 6.44291 20.1679 6.71961 20.0108L6.72781 20.0055L6.73368 20.0149C6.77471 20.0999 6.83685 20.2283 6.89723 20.5589L7.13407 20.4252C7.10124 20.2869 7.02562 20.1028 6.91892 19.9064" fill="white"/>
<path d="M15.2417 21.0006L16.3344 20.4771L16.5009 20.8277L16.7641 20.7022L16.4979 20.1465L15.1426 20.7972L15.2417 21.0006Z" fill="white"/>
<path d="M15.9828 19.0713L15.6621 19.2255L15.6785 19.2612C15.7102 19.246 15.7635 19.2853 15.7893 19.3398L16.171 20.1329L16.4318 20.0075L16.2894 19.7109L16.5456 19.5872L16.4582 19.4031L16.202 19.5274L15.9822 19.0719" fill="white"/>
<path d="M15.3719 20.3327C15.2465 20.3925 15.0929 20.3362 15.0295 20.2055C14.9668 20.0736 15.0178 19.9188 15.1444 19.8579C15.2705 19.7969 15.4235 19.8555 15.4874 19.9863C15.5495 20.1158 15.4985 20.2729 15.3719 20.3327ZM14.7939 20.3192C14.9029 20.5449 15.1984 20.6288 15.4551 20.5068C15.7119 20.3831 15.8309 20.0994 15.7231 19.8725C15.6685 19.7588 15.5642 19.6802 15.4423 19.6474C15.5542 19.5941 15.6322 19.556 15.6363 19.553L15.5396 19.3496L15.1732 19.5266L15.1075 19.3889L14.7863 19.5431L14.8039 19.58V19.5788C14.8308 19.5671 14.876 19.5952 14.9041 19.6439L14.9105 19.6527L14.5195 19.8409L14.6168 20.0437C14.6233 20.0419 14.6931 20.0079 14.7939 19.9593C14.7435 20.0748 14.7394 20.2055 14.7939 20.3204" fill="white"/>
<path d="M3.67805 17.6638L3.44356 17.3965L3.41424 17.4223C3.43593 17.4481 3.41424 17.5096 3.3691 17.5495L3.04492 17.8315L3.95475 18.8755L4.12534 18.7278L3.40545 17.9024L3.67805 17.6638Z" fill="white"/>
<path d="M3.97087 17.001C4.09164 16.8972 4.26868 16.9013 4.36716 17.0133C4.46448 17.1247 4.4463 17.3017 4.32496 17.4078C4.20419 17.5116 4.02539 17.5075 3.92925 17.3961C3.83194 17.2841 3.85128 17.1082 3.97146 17.001M4.76228 17.7578L4.64386 17.861C4.64386 17.861 4.54303 17.7455 4.45979 17.6499L4.50434 17.6147L4.57293 17.5409C4.65383 17.6359 4.76228 17.7578 4.76228 17.7578ZM4.2294 17.7285C4.31264 17.8234 4.47327 18.0093 4.47327 18.0093L4.12036 18.3188L4.3103 18.5363L5.29399 17.6775L5.0595 17.409L5.0296 17.4354C5.05246 17.4606 5.0296 17.5233 4.98387 17.5632L4.93346 17.6089C4.93346 17.6089 4.71304 17.3586 4.66438 17.3011C4.67962 17.1551 4.63272 16.9998 4.52544 16.8743C4.3273 16.6492 3.99901 16.6129 3.7909 16.794C3.58338 16.9752 3.57341 17.3064 3.77156 17.5315C3.89291 17.6728 4.06702 17.7408 4.2294 17.7273" fill="white"/>
<path d="M11.498 7.59277C10.8385 7.59277 10.3027 8.12741 10.3027 8.7875C10.3027 9.44759 10.8385 9.98282 11.498 9.98282C12.1576 9.98282 12.6945 9.44701 12.6945 8.7875C12.6945 8.128 12.1581 7.59277 11.498 7.59277Z" fill="#003378"/>
<path d="M8.61133 17.3655C9.3617 18.0168 10.3055 18.637 11.5003 19.1881C12.695 18.637 13.6394 18.0168 14.3886 17.3643L11.5003 14.4707L8.61133 17.3655Z" fill="#003378"/>
<path d="M11.5005 11.1205C10.2091 11.1205 9.16323 10.0759 9.16323 8.7862C9.16323 7.4965 10.2091 6.45243 11.5005 6.45243C12.792 6.45243 13.8372 7.49826 13.8372 8.7862C13.8372 10.0741 12.7914 11.1205 11.5005 11.1205ZM17.3792 10.4769V6.48702C17.3792 6.48702 13.9767 6.59606 11.5005 4.69141C9.02371 6.59606 5.62242 6.48702 5.62242 6.48702V10.4769C5.62242 10.4769 5.59897 11.3328 5.74905 12.2696C7.60914 11.9278 9.53197 11.7466 11.5005 11.7466C13.4691 11.7466 15.3907 11.9278 17.2526 12.2696C17.4021 11.3328 17.3792 10.4769 17.3792 10.4769Z" fill="#003378"/>
<path d="M5.80918 12.6046C5.83497 12.7277 5.8637 12.8525 5.89594 12.975C6.17147 14.0285 6.6639 15.2443 7.67162 16.4197L11.5003 12.584L15.3283 16.4197C16.3355 15.2443 16.8285 14.0285 17.1052 12.975C17.138 12.8525 17.1661 12.7277 17.1908 12.6046C15.3494 12.2657 13.4459 12.0869 11.4997 12.0869C9.55341 12.0869 7.6511 12.2651 5.80859 12.6046" fill="#003378"/>
<path d="M7.50978 9.7209H8.05966L8.09249 9.6869V8.559L8.05966 8.52441H7.61354C7.53675 8.52441 7.47461 8.58597 7.47461 8.66218V9.6869L7.50978 9.7209Z" fill="white"/>
<path d="M6.74826 9.7209H7.29814L7.33214 9.6869V8.66218C7.33214 8.58597 7.27 8.52441 7.19438 8.52441H6.74767L6.71484 8.559V9.6869L6.74767 9.7209" fill="white"/>
<path d="M8.3488 8.71973H8.23273V9.84H7.53746L7.53629 9.85232C7.53043 9.9209 7.47239 9.97425 7.40322 9.97425C7.33404 9.97425 7.27601 9.9209 7.26956 9.85232L7.2678 9.84H6.57312V8.71973H6.45763L6.42188 8.75373V9.94201L6.45763 9.9766H7.15407C7.20273 10.0639 7.29594 10.1237 7.40322 10.1237C7.5105 10.1237 7.60371 10.0639 7.65119 9.9766H8.3488L8.38397 9.94201V8.75373L8.3488 8.71973Z" fill="white"/>
<path d="M15.7665 9.59766H15.3127L15.2734 9.63752L15.4218 10.5866C15.4276 10.6247 15.4587 10.6564 15.5009 10.6564H15.5783L15.6562 10.5866L15.8046 9.63752L15.7665 9.59766Z" fill="white"/>
<path d="M15.8296 9.18141C15.9468 9.07883 16.2194 8.78102 16.1895 8.61336C16.1596 8.43105 15.6526 8.17018 15.6227 7.97203C15.6057 7.88292 15.6414 7.75982 15.6895 7.66368L15.659 7.65723C15.6484 7.66426 15.2357 7.97379 15.2322 8.18776C15.2311 8.27276 15.2903 8.36597 15.3923 8.44922C15.4755 8.51839 15.584 8.57995 15.6672 8.66319C15.7059 8.70247 15.7405 8.73647 15.7616 8.79802C15.8026 8.91234 15.6854 9.09524 15.6133 9.182H15.4491C15.5165 9.10169 15.5881 8.99558 15.6156 8.89065C15.683 8.63447 15.0446 8.57057 15.1402 8.18483L15.1132 8.17662C15.1068 8.18073 14.86 8.42049 14.8594 8.58698C14.857 8.73061 15.1502 8.86485 15.2873 9.05948L15.2862 9.182H15.0265C15.0265 9.182 14.9643 9.17438 14.9901 9.23359L15.0605 9.45342C15.0605 9.45342 15.0716 9.48274 15.115 9.48274H15.9539C15.9978 9.48274 16.0096 9.45342 16.0096 9.45342L16.0834 9.23124C16.1022 9.1779 16.0424 9.182 16.0424 9.182H15.8284L15.8296 9.18141Z" fill="white"/>
<path d="M10.3605 16.7211C10.3183 16.751 10.1031 16.894 10.0955 16.8981L10.0762 16.928L10.1002 16.9562L10.1213 16.9503L10.1571 16.9351L10.2468 16.8981L10.2497 16.9222V17.2569L10.2468 17.5143L10.2133 17.5606L10.1254 17.567L10.1002 17.5963L10.1354 17.6215L10.2755 17.6198H10.381L10.524 17.6215L10.5586 17.5963L10.5328 17.567L10.4601 17.5606L10.4285 17.5143L10.4226 17.2569V17.0441L10.4285 16.7598V16.7434L10.4004 16.7041L10.3605 16.7217V16.7211Z" fill="white"/>
<path d="M10.9005 16.9046C10.9005 16.8489 10.9321 16.7844 11.0242 16.7844C11.0781 16.7844 11.135 16.8231 11.135 16.9087C11.135 16.9943 11.0846 17.0435 11.0394 17.0635C10.9368 17.0054 10.9011 16.965 10.9011 16.9052M10.7463 16.9275C10.7463 17.0359 10.8272 17.0992 10.8976 17.1397C10.7744 17.1959 10.7012 17.2897 10.7012 17.3953C10.7012 17.5471 10.8219 17.6385 11.0072 17.6385C11.22 17.6385 11.3308 17.5037 11.3308 17.3677C11.3308 17.2317 11.2194 17.1555 11.1397 17.1098C11.1913 17.0857 11.2909 17.0201 11.2909 16.8976C11.2909 16.775 11.1901 16.7041 11.0388 16.7041C10.8237 16.7041 10.7463 16.8378 10.7463 16.928M10.8647 17.3894C10.8647 17.278 10.9368 17.2153 10.9849 17.1854C11.0805 17.2423 11.1631 17.2927 11.1631 17.3953C11.1631 17.4891 11.1039 17.553 11.016 17.553C10.928 17.553 10.8653 17.4826 10.8653 17.3894" fill="white"/>
<path d="M11.6981 16.9046C11.6981 16.8489 11.7321 16.7844 11.823 16.7844C11.8781 16.7844 11.932 16.8231 11.932 16.9087C11.932 16.9943 11.8828 17.0435 11.8377 17.0635C11.7368 17.0054 11.6987 16.965 11.6987 16.9052M11.5457 16.9275C11.5457 17.0359 11.6255 17.0992 11.6964 17.1397C11.5739 17.1959 11.5 17.2897 11.5 17.3953C11.5 17.5471 11.6213 17.6385 11.8084 17.6385C12.0194 17.6385 12.1302 17.5037 12.1302 17.3677C12.1302 17.2317 12.0182 17.1555 11.9391 17.1098C11.993 17.0857 12.0897 17.0201 12.0897 16.8976C12.0897 16.775 11.9901 16.7041 11.8377 16.7041C11.6243 16.7041 11.5469 16.8378 11.5469 16.928M11.6647 17.3894C11.6647 17.278 11.7368 17.2153 11.7831 17.1854C11.8805 17.2423 11.9614 17.2927 11.9614 17.3953C11.9614 17.4891 11.9022 17.553 11.8154 17.553C11.7286 17.553 11.6647 17.4826 11.6647 17.3894Z" fill="white"/>
<path d="M12.7735 16.7172L12.6996 16.7231H12.4165L12.3795 16.7518L12.3514 17.0566L12.3872 17.0982C12.4657 17.1088 12.665 17.1744 12.665 17.3556C12.665 17.4986 12.5712 17.5502 12.4909 17.5502C12.396 17.5502 12.3502 17.5045 12.3502 17.4125L12.3244 17.3767L12.2945 17.4095L12.291 17.5414V17.5567L12.3203 17.6176H12.3221C12.3502 17.6299 12.3954 17.6382 12.4382 17.6382C12.7096 17.6382 12.8339 17.4617 12.8339 17.2976C12.8339 17.1012 12.6398 16.998 12.4534 16.9634L12.4669 16.8508H12.6621C12.7448 16.8508 12.7448 16.8761 12.7448 16.8983L12.7723 16.9294L12.7999 16.9048L12.8157 16.7541L12.7887 16.7148L12.7747 16.7172H12.7735Z" fill="white"/>
<path d="M7.67188 16.4191C7.94447 16.738 8.25634 17.0545 8.6116 17.3647L11.5005 14.4699L14.3883 17.3641C14.7441 17.0551 15.056 16.7386 15.3286 16.4197L11.5005 12.584L7.67188 16.4197V16.4191Z" fill="white"/>
<path d="M11.5015 11.7471C9.53292 11.7471 7.61068 11.9282 5.75 12.2694C5.76759 12.3796 5.78752 12.491 5.80979 12.6041C7.65289 12.2653 9.55402 12.0865 11.5009 12.0865C13.4477 12.0865 15.35 12.2647 17.192 12.6041C17.2142 12.491 17.2342 12.379 17.2523 12.2694C15.3905 11.9282 13.4694 11.7471 11.5003 11.7471" fill="white"/>
<path d="M11.4996 9.98279C10.8401 9.98279 10.3043 9.44698 10.3043 8.78748C10.3043 8.12797 10.8401 7.59275 11.4996 7.59275C12.1591 7.59275 12.6961 8.12739 12.6961 8.78748C12.6961 9.44757 12.1597 9.98279 11.4996 9.98279ZM13.838 8.78631C13.838 7.49837 12.7928 6.45312 11.5013 6.45312C10.2099 6.45312 9.16406 7.49837 9.16406 8.78631C9.16406 10.0742 10.2105 11.1207 11.5013 11.1207C12.7922 11.1207 13.838 10.076 13.838 8.78631Z" fill="white"/>
</g>
<defs>
<clipPath id="clip0_4393_53090">
<rect width="23" height="22.9988" fill="white"/>
</clipPath>
</defs>
</svg>
