<svg width="23" height="23" viewBox="0 0 23 23" fill="none" xmlns="http://www.w3.org/2000/svg">
<g clip-path="url(#clip0_4956_56300)">
<path d="M22.5412 8.16585C22.0231 6.48748 21.112 5.05947 19.9506 3.94673H19.9715C19.349 3.35907 18.4785 3.12725 17.6289 3.4008C17.5466 3.42166 17.4632 3.46339 17.4006 3.48425L17.338 3.54684C17.3588 3.46339 17.3588 3.37877 17.3588 3.31618C17.3588 2.41324 16.8616 1.63665 16.1569 1.23792L16.1151 1.21705C14.7497 0.46248 13.1536 0 11.4335 0C9.71343 0 8.07678 0.46248 6.70788 1.23908H6.66616C5.96142 1.63781 5.46417 2.4144 5.46417 3.31734L5.44331 3.42166H5.42244C4.57398 3.14927 3.7035 3.37993 3.10193 3.94673L3.08106 3.9676C1.9208 5.05947 1.03062 6.46545 0.490476 8.10326C-0.0473456 9.7828 -0.130801 11.4832 0.180997 13.0573V13.0781C0.325884 13.8964 0.906593 14.5896 1.75621 14.884C1.83851 14.9049 1.92196 14.9257 2.00426 14.9477L1.85937 15.0938C1.34126 15.8078 1.32155 16.7316 1.67276 17.4862L1.69362 17.507C2.37749 18.935 3.45545 20.2367 4.84405 21.2231C6.27322 22.2304 7.84844 22.8192 9.42365 22.9861C10.2524 23.0707 11.0823 22.7137 11.6004 21.9997C11.6213 21.958 11.6213 21.9371 11.663 21.8942L11.7036 22.0206C12.2217 22.7346 13.0713 23.0487 13.8792 22.9444H13.921C15.4753 22.7334 17.0297 22.126 18.3974 21.0968C19.8057 20.0466 20.8419 18.7032 21.4852 17.2335L21.5061 17.2543C21.8364 16.4998 21.775 15.5783 21.2592 14.8643C22.0845 14.5803 22.649 13.8814 22.8112 13.0978V13.0549C23.123 11.5017 23.0604 9.80134 22.5423 8.16353L22.5412 8.16585ZM6.33581 3.08552C6.72991 1.63665 9.15474 2.0574 9.15474 2.0574C10.7091 2.2672 11.4347 2.24633 11.4347 2.24633C11.4347 2.24633 12.1811 2.2672 13.7355 2.0574C13.7355 2.0574 16.1395 1.63781 16.5336 3.08552C16.5336 3.08552 16.7283 3.70216 16.2786 4.00585C16.2809 4.00585 16.2832 4.00816 16.2844 4.00932L16.2426 4.03019C16.2565 4.02323 16.267 4.01396 16.2786 4.00585C14.8911 3.12609 13.2568 2.62304 11.4973 2.62304C9.73777 2.62304 8.05707 3.14811 6.66847 4.05105L6.62675 4.03019C6.12949 3.73694 6.33697 3.08552 6.33697 3.08552H6.33581ZM1.81764 13.9811C0.573932 13.1407 1.71448 10.9581 1.71448 10.9581C2.39835 9.50925 2.58497 8.79524 2.58497 8.79524C2.58497 8.79524 2.85388 8.10326 3.12279 6.52805C3.12279 6.52805 3.47516 4.07191 4.96808 4.13451C4.96808 4.13451 5.63108 4.15537 5.7551 4.72217V4.74303C3.78695 6.4017 2.5641 8.8787 2.5641 11.671C2.5641 12.4905 2.62554 13.2033 2.83302 13.9382L2.81215 13.9799C2.39835 14.3578 1.81764 13.9799 1.81764 13.9799V13.9811ZM10.7705 21.6867C9.61027 22.6314 7.8693 20.8893 7.8693 20.8893C6.72991 19.7974 6.10747 19.3987 6.10747 19.3987C6.10747 19.3987 5.52676 18.9374 4.11846 18.2234C4.11846 18.2234 1.9011 17.1523 2.39835 15.7464C2.39835 15.7464 2.60583 15.0949 3.18538 15.1367L3.26884 15.2004C4.55428 18.3068 7.51693 20.5334 10.9989 20.7212H11.0406C11.2898 21.2463 10.7717 21.6867 10.7717 21.6867H10.7705ZM11.488 20.4291C6.71947 20.4291 2.85388 16.5125 2.85388 11.6814C2.85388 6.85027 6.71947 2.93368 11.488 2.93368C16.2565 2.93368 20.1233 6.85027 20.1233 11.6814C20.1233 16.5125 16.2577 20.4291 11.488 20.4291ZM19.0395 18.075C17.6509 18.8307 17.0714 19.3141 17.0714 19.3141C17.0714 19.3141 16.4698 19.7337 15.3513 20.8255C15.3513 20.8255 13.652 22.6302 12.4918 21.7076C12.4918 21.7076 11.9528 21.3089 12.1811 20.7838L12.202 20.7212C15.6839 20.4268 18.606 18.1387 19.8289 15.0103C20.4084 14.9269 20.6994 15.5563 20.6994 15.5563C21.2163 16.9426 19.0407 18.0761 19.0407 18.0761L19.0395 18.075ZM21.1734 14.0239C21.1734 14.0239 20.573 14.4227 20.1372 14.0239C20.3447 13.2682 20.4478 12.4916 20.4478 11.6721C20.4478 8.92274 19.225 6.48632 17.3183 4.80678C17.4435 4.23998 18.1053 4.15653 18.1053 4.15653C19.5971 4.1148 19.9297 6.56977 19.9297 6.56977C20.1986 8.12412 20.4478 8.83697 20.4478 8.83697C20.4478 8.83697 20.6345 9.55098 21.2975 10.9987C21.2975 10.9987 22.416 13.2033 21.1734 14.0228V14.0239Z" fill="#981A45"/>
<path d="M8.15109 17.567V17.2158H7.22266V18.5418H8.14182V18.1906H7.56343V17.567H8.15109Z" fill="#981A45"/>
<path d="M9.03719 17.2373V17.7044H8.58398V18.0556H9.03719V18.5216H9.3826V17.2373H9.03719Z" fill="#981A45"/>
<path d="M11.1289 18.5137H10.8148V17.5679H9.88867V17.2422H11.1289V18.5137Z" fill="#981A45"/>
<path d="M13.1025 18.3594L12.8475 18.5588L12.3827 17.795L11.9167 18.5588L11.6641 18.3594L12.3839 17.2305L13.1025 18.3594Z" fill="#981A45"/>
<path d="M13.8772 17.2451V17.7227H13.3672V18.0739H13.8772V18.512H14.2238V17.2451H13.8772Z" fill="#981A45"/>
<path d="M14.6953 17.8793C14.6953 18.2305 14.977 18.5145 15.3224 18.5145C15.6678 18.5145 15.9495 18.2305 15.9495 17.8793C15.9495 17.5281 15.669 17.2441 15.3224 17.2441C14.9758 17.2441 14.6953 17.5293 14.6953 17.8793ZM15.0419 17.8793C15.0419 17.7217 15.1671 17.5942 15.3235 17.5942C15.48 17.5942 15.6052 17.7217 15.6052 17.8793C15.6052 18.037 15.4789 18.1633 15.3235 18.1633C15.1682 18.1633 15.0419 18.0358 15.0419 17.8793Z" fill="#981A45"/>
<path d="M10.9492 6.89844V7.13605H11.4986H12.0492V6.89844H11.4986H10.9492Z" fill="#981A45"/>
<path d="M6.32427 12.0439H5.93945V13.0535H6.32427V12.0439Z" fill="#981A45"/>
<path d="M7.88677 12.0439H7.50195V13.0535H7.88677V12.0439Z" fill="#981A45"/>
<path d="M7.08412 7.01855H6.74219V7.25733H7.08412V7.01855Z" fill="#981A45"/>
<path d="M17.0606 12.0439H16.6758V13.0535H17.0606V12.0439Z" fill="#981A45"/>
<path d="M15.4981 12.0439H15.1133V13.0535H15.4981V12.0439Z" fill="#981A45"/>
<path d="M16.2579 7.01855H15.916V7.25733H16.2579V7.01855Z" fill="#981A45"/>
<path d="M16.5784 6.4818V5.98919H16.2167V5.40732H15.9548V5.98919H15.6001V6.47601C15.1782 6.88169 14.6218 7.4172 14.536 7.49949C14.4213 7.33722 12.8484 5.11523 12.8484 5.11523V4.81966H12.4786V4.59711H11.9269V4.81966H11.629V4.10449H11.3717V4.81966H11.0738V4.59711H10.5221V4.81966H10.1523V5.11523C10.1523 5.11523 8.57942 7.33722 8.46467 7.49949C8.38006 7.4172 7.82369 6.88285 7.40062 6.47601V5.98919H7.04594V5.40732H6.78398V5.98919H6.4235V6.4818L5.25977 7.60033V16.2588H17.7433V7.60033L16.5807 6.4818H16.5784ZM15.7345 6.60583H16.437C16.7522 6.90951 17.1938 7.33374 17.4164 7.54818H14.7539C15.0159 7.29665 15.4343 6.89444 15.7334 6.60583H15.7345ZM14.616 7.73479H17.5566V8.24132H14.616V7.73479ZM17.5566 8.43257V9.45837C17.4222 9.34246 17.202 9.22191 16.8681 9.22191C16.4393 9.22191 16.1993 9.42012 16.0869 9.5511C15.9745 9.42012 15.7357 9.22191 15.3057 9.22191C14.9719 9.22191 14.7516 9.34362 14.6172 9.45837V8.43141H17.5578L17.5566 8.43257ZM17.4512 9.61369H16.284C16.3894 9.51864 16.5749 9.40969 16.8681 9.40969C17.1614 9.40969 17.3457 9.51864 17.4512 9.61369ZM15.8887 9.61369H14.7215C14.827 9.51864 15.0113 9.40969 15.3045 9.40969C15.5978 9.40969 15.7821 9.51864 15.8887 9.61369ZM13.5299 7.73479V9.24857H12.4636V7.73479H13.5299ZM12.4636 7.54702V6.26505C12.7116 6.59308 13.2228 7.26651 13.4349 7.54702H12.4636ZM11.4992 11.2457H11.0657V10.0286H11.9327V11.2457H11.4992ZM12.2793 7.54702H10.7203V6.08307H12.2793V7.54702ZM11.4992 7.73479H12.2781V9.24857H11.9315V8.59716C11.9315 8.35491 11.738 8.15786 11.498 8.15786C11.2581 8.15786 11.0645 8.35491 11.0645 8.59716V9.24857H10.7191V7.73479H11.498H11.4992ZM10.5348 7.54702H9.5635C9.77562 7.26651 10.2868 6.59308 10.5348 6.26505V7.54702ZM10.5348 7.73479V9.24857H9.46845V7.73479H10.5348ZM10.1964 10.0298V11.2469H9.46845V10.0298H10.1964ZM12.8032 11.2457V10.0286H13.5311V11.2457H12.8032ZM14.4306 9.41201C14.3506 9.31232 14.23 9.24973 14.0944 9.24973H13.7154V7.73595H14.4317V9.41317L14.4306 9.41201ZM10.245 5.30184H12.7533C12.7962 5.36327 13.9124 6.93965 14.3425 7.54702H13.6679L12.416 5.8953H10.5812L9.33052 7.54702H8.65593C9.08595 6.93965 10.2022 5.36211 10.245 5.30184ZM9.28416 7.73479V9.24857H8.90513C8.76952 9.24857 8.64781 9.31232 8.56899 9.41085V7.73363H9.28532L9.28416 7.73479ZM6.56143 6.60583H7.26385C7.56289 6.89328 7.98133 7.29549 8.24329 7.54818H5.58084C5.80338 7.33374 6.245 6.90951 6.56027 6.60583H6.56143ZM5.4429 7.73479H8.38354V8.24132H5.4429V7.73479ZM8.38238 8.43257V9.45953C8.24792 9.34362 8.02769 9.22307 7.69387 9.22307C7.26501 9.22307 7.02507 9.42128 6.91264 9.55226C6.80021 9.42128 6.56027 9.22307 6.13141 9.22307C5.79759 9.22307 5.57736 9.34362 5.4429 9.45953V8.43373H8.38354L8.38238 8.43257ZM8.27806 9.61369H7.11085C7.21632 9.51864 7.40178 9.40969 7.69387 9.40969C7.98597 9.40969 8.17142 9.51864 8.27806 9.61369ZM6.71559 9.61369H5.54838C5.65386 9.51864 5.83816 9.40969 6.13141 9.40969C6.42466 9.40969 6.60896 9.51864 6.71443 9.61369H6.71559ZM6.04216 16.0722H5.44174V13.8908H6.04216V16.0722ZM5.54838 13.703C5.65386 13.6079 5.83816 13.499 6.13141 13.499C6.42466 13.499 6.60896 13.6079 6.71443 13.703H5.54722H5.54838ZM6.81991 16.0722H6.22761V13.8908H6.81991V16.0722ZM7.59883 16.0722H7.00537V13.8908H7.59883V16.0722ZM7.11085 13.703C7.21632 13.6079 7.40178 13.499 7.69387 13.499C7.98597 13.499 8.17142 13.6079 8.27806 13.703H7.11085ZM8.38238 16.0722H7.78312V13.8908H8.38238V16.0722ZM8.38238 13.5488C8.24792 13.4329 8.02769 13.3124 7.69387 13.3124C7.26501 13.3124 7.02507 13.5106 6.91264 13.6416C6.80021 13.5106 6.56027 13.3124 6.13141 13.3124C5.79759 13.3124 5.57736 13.4329 5.4429 13.5488V11.4416H8.38354V13.5488H8.38238ZM8.38238 11.2782L5.44174 11.2538V10.8354H8.38238V11.277V11.2782ZM8.38238 10.6488H7.88628V10.2454H7.50146V10.6488H6.32266V10.2454H5.93784V10.6488H5.44174V9.80146H8.38238V10.6488ZM8.56783 12.7108C8.64781 12.8105 8.76836 12.8731 8.90397 12.8731C9.13927 12.8731 9.33052 12.6841 9.33748 12.4465V11.4404H9.64348V13.1258H9.31545V16.071H8.56668V12.7096L8.56783 12.7108ZM13.1695 16.0722H9.83009V11.4416H10.1964V12.4025C10.1952 12.4175 10.194 12.4326 10.194 12.4488C10.194 12.6911 10.3888 12.8881 10.6276 12.8881C10.8663 12.8881 11.0611 12.6911 11.0611 12.4488H11.0657V11.4427H11.9327V12.4488H11.9373C11.9373 12.6911 12.1309 12.8881 12.3708 12.8881C12.6108 12.8881 12.8043 12.6911 12.8043 12.4488C12.8043 12.4338 12.8043 12.4175 12.802 12.4025V11.4416H13.1683V16.0722H13.1695ZM13.6829 16.0722V13.1269H13.3549V11.4416H13.6609V12.4477C13.6679 12.6841 13.8591 12.8742 14.0944 12.8742C14.23 12.8742 14.3517 12.8105 14.4306 12.712V16.0733H13.6818L13.6829 16.0722ZM15.2153 16.0722H14.616V13.8908H15.2153V16.0722ZM14.7215 13.703C14.827 13.6079 15.0124 13.499 15.3057 13.499C15.5989 13.499 15.7832 13.6079 15.8899 13.703H14.7226H14.7215ZM15.9942 16.0722H15.4007V13.8908H15.9942V16.0722ZM16.7719 16.0722H16.1796V13.8908H16.7719V16.0722ZM16.284 13.703C16.3894 13.6079 16.5749 13.499 16.8681 13.499C17.1614 13.499 17.3457 13.6079 17.4512 13.703H16.284ZM17.5566 16.0722H16.9574V13.8908H17.5566V16.0722ZM17.5566 13.5488C17.4222 13.4329 17.202 13.3124 16.8681 13.3124C16.4393 13.3124 16.1993 13.5106 16.0869 13.6416C15.9745 13.5106 15.7357 13.3124 15.3057 13.3124C14.9719 13.3124 14.7516 13.4329 14.6172 13.5488V11.4416H17.5578V13.5488H17.5566ZM17.5566 11.255H14.616V10.8354H17.5566V11.255ZM17.5566 10.6488H17.0606V10.2454H16.6757V10.6488H15.4969V10.2454H15.1121V10.6488H14.616V9.80146H17.5566V10.6488Z" fill="#981A45"/>
<path d="M11.4995 12.8917C11.43 12.8905 10.5931 12.8882 10.5352 13.7912V15.7396H11.4995H12.4639V13.7969C12.4059 12.8894 11.5691 12.8905 11.4995 12.8917ZM12.2796 15.5518H10.7206V13.7969C10.7681 13.054 11.4659 13.0783 11.4949 13.0795L11.4995 12.9879L11.5042 13.0795C11.5343 13.0783 12.2309 13.054 12.2796 13.8027V15.5518Z" fill="#981A45"/>
</g>
<defs>
<clipPath id="clip0_4956_56300">
<rect width="23" height="23" fill="white"/>
</clipPath>
</defs>
</svg>
