<svg width="23" height="23" viewBox="0 0 23 23" fill="none" xmlns="http://www.w3.org/2000/svg">
<g clip-path="url(#clip0_4956_56298)">
<path d="M9.76228 6.93164V7.02788C10.062 7.02788 10.0712 7.36083 10.0712 7.36083V8.27897H9.06789L8.70022 7.52769L8.84311 7.07212H7.84207V7.17612C8.02513 7.17612 8.21206 7.28477 8.13095 7.58513L7.25195 10.6422H7.72003L8.47931 8.22852L9.76769 10.6422H10.079V10.8355H10.6135V6.93164H9.76228ZM9.26948 8.69031H10.079V10.3426L9.26948 8.69031Z" fill="#0C3388"/>
<path d="M12.8256 8.81237V9.2012H13.9178V10.1512H11.8223V10.3879H14.2778L14.0684 10.772H11.2808V10.1333C11.2808 10.1333 11.2298 9.87952 11.0391 9.87952V9.8089H13.3756V9.57296H11.2885L11.1217 9.19965H12.2741V8.81082H10.8375L10.6289 8.44372H11.7342C11.4932 8.27841 11.3411 8.04092 11.3411 7.77782C11.3411 7.35406 11.7342 6.9986 12.2656 6.90159V6.86822C12.2656 6.86822 12.2239 6.78983 12.1405 6.78983V6.72852H12.7075C12.7075 6.72852 12.8249 6.78983 12.8326 6.86822C12.8341 6.87908 12.8341 6.88917 12.8349 6.89926C13.3725 6.99317 13.7734 7.35018 13.7734 7.77782C13.7734 8.04092 13.6212 8.27841 13.3795 8.44372H14.4693L14.277 8.81082H12.8241L12.8256 8.81237ZM12.5584 8.38706C12.9237 8.38706 13.2188 8.11542 13.2188 7.77937C13.2188 7.44331 12.9237 7.17323 12.5584 7.17323C12.193 7.17323 11.8964 7.44564 11.8964 7.77937C11.8964 8.1131 12.1938 8.38706 12.5584 8.38706Z" fill="#0C3388"/>
<path d="M9.77807 11.3701V11.4865C9.77807 11.4865 10.1102 11.5331 10.1102 11.7434H8.66734C8.64185 11.7349 8.61559 11.7264 8.58856 11.7201C8.56461 11.6262 8.52522 11.4415 8.48737 11.3709H7.86404V11.4633C7.86404 11.4633 8.07568 11.4633 8.07568 11.6852V11.7007C7.48942 11.8047 7.04297 12.3325 7.04297 12.9689C7.04297 13.6806 7.59987 14.2572 8.28655 14.2572C8.77548 14.2572 9.19799 13.9647 9.40113 13.5409H10.1102V15.492H10.6571V11.3709H9.77807V11.3701ZM10.1102 13.1699H9.51468C9.52549 13.1039 9.53012 13.0364 9.53012 12.9681C9.53012 12.6414 9.41272 12.3441 9.21884 12.116H10.1102V13.1699ZM7.63154 12.9565C7.63154 12.4916 7.93433 12.1144 8.30895 12.1144C8.68356 12.1144 8.98557 12.4916 8.98557 12.9565C8.98557 13.4214 8.68202 13.7986 8.30895 13.7986C7.93587 13.7986 7.63154 13.4214 7.63154 12.9565Z" fill="#0C3388"/>
<path d="M10.8145 11.6662V11.7656C10.8145 11.7656 11.1041 11.7532 11.1041 12.1272V14.298L12.7169 13.8424V15.0283H13.2676V13.2021H13.779V15.0283H14.325V11.4334H13.5017V11.5087C13.5017 11.5087 13.779 11.5902 13.779 11.8354V12.8032H13.2568V11.4326H12.4666V11.5079C12.4666 11.5079 12.7177 11.5428 12.7177 11.9045V13.3985L11.6502 13.7252V12.0675H12.3191L12.5524 11.6647H10.816L10.8145 11.6662Z" fill="#0C3388"/>
<path d="M8.52613 1.09483C8.71537 1.09483 8.86908 0.940389 8.86908 0.748689C8.86908 0.55699 8.71537 0.40332 8.52613 0.40332C8.33689 0.40332 8.18164 0.557766 8.18164 0.748689C8.18164 0.939612 8.33689 1.09483 8.52613 1.09483Z" fill="#0C3388"/>
<path d="M9.1535 3.29425C9.34274 3.29425 9.49799 3.13981 9.49799 2.94888C9.49799 2.75796 9.34274 2.60352 9.1535 2.60352C8.96426 2.60352 8.81055 2.75719 8.81055 2.94888C8.81055 3.14058 8.96426 3.29425 9.1535 3.29425Z" fill="#0C3388"/>
<path d="M14.9028 1.91892C13.3657 1.91892 13.5843 2.38226 12.5856 2.47229C11.4602 2.57396 9.71763 1.14747 9.32139 0.850993C9.62881 0.87738 13.1618 1.61003 14.0586 1.8157V1.67445C13.0475 1.41678 10.4097 0.941798 9.25728 0.684129C10.6268 0.0547037 11.7035 -0.013594 12.4968 0.337208C13.0204 0.568489 13.558 1.17308 13.8531 1.40436C14.0176 1.53397 14.4417 1.64883 14.8001 1.66203L14.7113 1.50758C14.4679 1.50758 14.1852 1.44316 14.0454 1.35391C13.7264 1.14824 13.1881 0.466042 12.5346 0.195956C11.2694 -0.327919 9.41099 0.32479 8.9375 0.684905C9.18004 0.954991 9.69292 1.37952 9.94858 1.55958C9.80723 1.77844 9.28277 2.3062 8.98771 2.45987C9.71763 2.42106 11.0624 3.57902 12.5091 2.8324C13.9558 2.08734 14.1482 2.04775 14.9661 2.07414L14.9028 1.91892ZM10.1023 1.67445C10.1023 1.67445 10.5248 1.94453 10.7542 2.07414C10.5248 2.11217 9.47432 2.29223 9.47432 2.29223C9.72999 2.03456 10.0374 1.79009 10.1023 1.67445ZM9.57705 2.44668C9.78251 2.42029 10.704 2.27981 10.9728 2.20142C11.3567 2.34345 11.8935 2.67796 12.4968 2.65234C11.4069 3.23132 10.5881 2.79437 9.57705 2.44668Z" fill="#0C3388"/>
<path d="M13.8908 1.02897C14.0546 1.12366 14.2662 1.067 14.3604 0.901691C14.4562 0.737156 14.399 0.525278 14.2345 0.429816C14.07 0.335131 13.8599 0.391011 13.7649 0.556322C13.6699 0.72241 13.7263 0.933512 13.8908 1.02897Z" fill="#0C3388"/>
<path d="M13.3404 3.24925C13.5057 3.34471 13.7158 3.28805 13.8108 3.12196C13.905 2.95743 13.8494 2.74555 13.6841 2.65086C13.5188 2.5554 13.3087 2.61206 13.2145 2.77737C13.1187 2.94268 13.1758 3.15301 13.3404 3.24925Z" fill="#0C3388"/>
<path d="M14.6981 1.21622C14.9522 1.39239 17.6487 3.80144 18.323 4.42931L18.3933 4.30669C17.6441 3.57637 15.5964 1.84021 14.7267 1.03926C16.2259 1.17974 17.1922 1.66248 17.7051 2.36331C18.0434 2.82742 18.2095 3.6206 18.3493 3.96985C18.4281 4.16466 18.7386 4.47743 19.0429 4.66835V4.48985C18.8313 4.368 18.6188 4.17009 18.5416 4.02341C18.367 3.68425 18.2396 2.82354 17.8086 2.26086C16.9721 1.17198 15.0395 0.804877 14.4494 0.879383C14.5259 1.23484 14.7584 1.85961 14.8912 2.14444C14.6603 2.26396 13.9435 2.45644 13.6113 2.44247C14.2632 2.77542 14.8518 4.45337 16.477 4.53253C18.1006 4.61247 18.2867 4.67611 18.9834 5.10918L19.0043 4.9431C17.6742 4.17242 17.6317 4.6831 16.7218 4.25934C15.6984 3.78359 14.8966 1.67334 14.6989 1.21699L14.6981 1.21622ZM14.9654 2.3214C14.9654 2.3214 15.1979 2.76766 15.3338 2.99428C15.1152 2.91202 14.1165 2.54104 14.1165 2.54104C14.4656 2.44713 14.8534 2.38892 14.9654 2.3214ZM14.1281 2.72653C14.3189 2.80724 15.187 3.14718 15.4589 3.21547C15.7215 3.53135 16.0197 4.09015 16.5542 4.37033C15.3238 4.32609 14.8317 3.53523 14.1281 2.7273V2.72653Z" fill="#0C3388"/>
<path d="M18.5682 3.66395C18.6632 3.82926 18.8733 3.88592 19.0378 3.78968C19.2023 3.695 19.2587 3.48312 19.1637 3.31781C19.0679 3.1525 18.8578 3.09662 18.6933 3.19208C18.5288 3.28676 18.4724 3.49864 18.5682 3.66473V3.66395Z" fill="#0C3388"/>
<path d="M16.9874 5.31038C17.0832 5.47569 17.2925 5.53235 17.4578 5.43688C17.6216 5.34142 17.6779 5.12955 17.5829 4.96423C17.4887 4.7997 17.2778 4.74227 17.1125 4.83928C16.948 4.93474 16.8932 5.14584 16.9874 5.31038Z" fill="#0C3388"/>
<path d="M21.3484 6.6977C21.1653 5.33408 19.6738 4.04496 19.1262 3.81445C19.0157 4.16137 18.906 4.81952 18.8798 5.13306C18.6202 5.11987 17.9027 4.92817 17.623 4.74811C18.0201 5.36357 17.6972 7.11292 19.0651 7.99769C19.6877 8.39971 20.0546 8.65039 20.3056 8.87159L20.5119 8.85762C20.1017 8.42222 19.8337 8.4812 19.4143 7.8836C18.7639 6.95615 19.1184 4.72561 19.1748 4.232C19.3069 4.51218 20.5064 7.82306 20.7791 8.70628L20.9004 8.63487C20.6154 7.62593 19.6437 5.22309 19.2868 4.0923C20.5157 4.96698 21.112 5.86959 21.2093 6.73496C21.2719 7.30695 21.0216 8.0784 20.9691 8.45016C20.9552 8.54795 20.9738 8.69696 21.0147 8.85995L21.1452 8.84675C21.1205 8.75129 21.1074 8.66204 21.1105 8.59141C21.1275 8.21034 21.4449 7.40086 21.3499 6.6977H21.3484ZM18.8566 5.32399C18.8566 5.32399 18.8357 5.82768 18.8404 6.09156C18.6921 5.90995 18.0108 5.08727 18.0108 5.08727C18.3615 5.18118 18.7245 5.32476 18.8566 5.32321V5.32399ZM19.2142 7.89524C18.1699 7.23865 18.1367 6.30732 17.9281 5.25414C18.0533 5.41945 18.6364 6.15054 18.838 6.34535C18.9083 6.7497 18.8906 7.38534 19.2142 7.89524Z" fill="#0C3388"/>
<path d="M3.92766 3.82873C4.09296 3.73326 4.14934 3.52294 4.05434 3.35608C3.9601 3.19076 3.74924 3.13333 3.58549 3.22879C3.42019 3.32348 3.36303 3.53536 3.45804 3.70067C3.55227 3.86598 3.76237 3.92341 3.92766 3.82873Z" fill="#0C3388"/>
<path d="M5.5609 5.42308C5.72465 5.32839 5.78181 5.11652 5.68758 4.95121C5.59257 4.78512 5.38248 4.72846 5.21795 4.82315C5.05266 4.91861 4.99627 5.12971 5.09051 5.29502C5.18551 5.46111 5.39484 5.51777 5.56013 5.42308H5.5609Z" fill="#0C3388"/>
<path d="M9.86578 1.35537C8.53338 2.12372 8.95125 2.41554 8.13018 2.99374C7.20483 3.64412 4.9857 3.27935 4.49523 3.22114C4.77484 3.0892 8.20279 1.95841 9.08179 1.68832L9.0115 1.5657C8.00659 1.8482 5.48391 2.75392 4.35619 3.10705C5.2321 1.87614 6.13196 1.27931 6.99319 1.18618C7.564 1.12409 8.32946 1.37943 8.69944 1.43376C8.90568 1.46325 9.33127 1.35072 9.64873 1.18308L9.49425 1.09382C9.28338 1.2149 9.00609 1.30105 8.84002 1.29328C8.46077 1.27466 7.65592 0.952572 6.95612 1.04493C5.59822 1.22343 4.31062 2.71822 4.07812 3.26849C4.42339 3.38102 5.07762 3.49278 5.38967 3.52072C5.37577 3.78149 5.1819 4.50172 5.00192 4.78268C5.61522 4.38376 7.35468 4.71593 8.24141 3.34454C9.12659 1.97393 9.27257 1.8451 9.99709 1.45704L9.86501 1.35537H9.86578ZM5.58046 3.54478C5.58046 3.54478 6.08098 3.56729 6.34437 3.56341C6.16363 3.71242 5.34178 4.39307 5.34178 4.39307C5.43679 4.04227 5.582 3.67672 5.57969 3.54478H5.58046ZM5.50785 4.47611C5.67238 4.35116 6.4023 3.76752 6.59618 3.56651C6.99937 3.49666 7.63198 3.51762 8.14099 3.19398C7.48367 4.24173 6.55678 4.27122 5.50785 4.47611Z" fill="#0C3388"/>
<path d="M1.29399 8.49946C1.38899 8.33415 1.33415 8.12304 1.1704 8.02681C1.00588 7.93057 0.795011 7.98567 0.699233 8.15098C0.603454 8.3163 0.659068 8.5274 0.823591 8.62364C0.988113 8.72065 1.19821 8.66477 1.29476 8.49946H1.29399Z" fill="#0C3388"/>
<path d="M3.50065 9.06589C3.5972 8.90136 3.54158 8.6887 3.37706 8.59324C3.21254 8.497 3.00244 8.55211 2.90666 8.71664C2.81089 8.88195 2.86495 9.09383 3.02948 9.18929C3.194 9.28553 3.40409 9.23043 3.49987 9.06512L3.50065 9.06589Z" fill="#0C3388"/>
<path d="M5.21863 3.38411C4.44391 4.71669 4.95138 4.7617 4.52501 5.67363C4.04457 6.70043 1.94053 7.49361 1.48481 7.68919C1.66169 7.4354 4.07469 4.73997 4.70344 4.06553L4.58217 3.99335C3.8507 4.7423 2.11123 6.79046 1.3087 7.66047C1.45932 6.15405 1.94362 5.18624 2.64419 4.67478C3.10764 4.3364 3.89936 4.17419 4.24617 4.03604C4.44004 3.95921 4.75364 3.64876 4.94597 3.34375H4.76832C4.6455 3.55485 4.44777 3.76751 4.30024 3.84356C3.9627 4.01664 3.10455 4.14004 2.54301 4.57C1.45391 5.40432 1.07852 7.34537 1.14881 7.93755C1.50412 7.86304 2.12745 7.63253 2.41093 7.50215C2.52679 7.73421 2.71603 8.45599 2.70135 8.78894C3.03581 8.13701 4.70884 7.55415 4.7969 5.92276C4.88572 4.2906 4.94906 4.10434 5.3847 3.40662L5.2194 3.38411H5.21863ZM2.80177 8.28214C2.70908 7.93056 2.65424 7.54018 2.58626 7.42687C2.58626 7.42687 3.03194 7.19636 3.25826 7.06132C3.17484 7.28096 2.80099 8.28214 2.80099 8.28214H2.80177ZM2.9856 8.27127C3.0667 8.08035 3.40965 7.20955 3.47994 6.93714C3.79586 6.67481 4.35353 6.37834 4.63469 5.84282C4.58371 7.07917 3.79431 7.56889 2.9856 8.27127Z" fill="#0C3388"/>
<path d="M1.69927 7.70472C1.69927 7.70472 1.99665 8.42805 0.825677 9.16148C-0.22866 9.82117 0.133599 10.4537 0.651885 10.9077C0.892876 10.1751 1.35323 9.3555 1.8244 8.03301L1.94876 8.0431C1.74793 8.70978 1.20029 9.64499 0.749208 10.9954C1.9588 10.4941 2.30484 9.56816 2.38208 9.16225C2.05612 8.49713 2.08393 8.0237 2.11251 7.55105L2.25618 7.50293C2.00669 9.0179 3.15912 9.79013 3.19774 10.3489C3.21242 10.5779 2.95675 10.8705 2.61148 11.1243C2.41993 11.0179 2.0932 10.6966 1.87229 10.3885C1.59422 10.7067 1.11456 11.0443 0.691278 11.1243C-0.258784 10.4196 -0.220164 9.62559 0.749208 9.0761C1.71935 8.52584 1.58418 7.93755 1.57414 7.7637L1.69927 7.70549V7.70472ZM2.55355 10.9372C2.53502 10.7339 2.362 10.1557 2.24691 9.9143C2.19902 10.0105 1.9588 10.3093 1.9588 10.3093C2.19979 10.6182 2.35273 10.782 2.55433 10.9364L2.55355 10.9372ZM3.04403 10.3676C3.04403 10.1456 2.68873 9.64422 2.48635 9.35473C2.48635 9.47891 2.34191 9.83669 2.34191 9.83669C2.48635 10.0975 2.64006 10.8107 2.64856 10.9465C2.70726 10.8883 3.04326 10.5895 3.04326 10.3676H3.04403Z" fill="#0C3388"/>
<path d="M8.52613 21.1631C8.71537 21.1631 8.86908 21.3175 8.86908 21.5085C8.86908 21.6994 8.71537 21.853 8.52613 21.853C8.33689 21.853 8.18164 21.6986 8.18164 21.5085C8.18164 21.3183 8.33689 21.1631 8.52613 21.1631Z" fill="#0C3388"/>
<path d="M9.1535 18.9629C9.34274 18.9629 9.49799 19.1173 9.49799 19.3083C9.49799 19.4992 9.34274 19.6536 9.1535 19.6536C8.96426 19.6536 8.81055 19.4984 8.81055 19.3083C8.81055 19.1181 8.96426 18.9629 9.1535 18.9629Z" fill="#0C3388"/>
<path d="M12.5856 19.7848C13.5843 19.8741 13.3657 20.3374 14.9028 20.3374L14.9661 20.183C14.1474 20.2086 13.9558 20.1698 12.5091 19.4239C11.0624 18.6781 9.71763 19.8353 8.98771 19.7972C9.28277 19.9517 9.80723 20.4794 9.94858 20.6975C9.69214 20.8768 9.17926 21.3013 8.9375 21.5722C9.41099 21.9323 11.2694 22.5858 12.5346 22.0619C13.1881 21.7903 13.7257 21.1096 14.0454 20.9032C14.186 20.8124 14.4679 20.7487 14.7113 20.7487L14.8001 20.5935C14.4417 20.6075 14.0176 20.7231 13.8531 20.8512C13.558 21.0832 13.0204 21.6878 12.4968 21.9191C11.7035 22.2691 10.6268 22.2024 9.25728 21.5714C10.4097 21.3145 13.0475 20.8388 14.0586 20.5811V20.4406C13.1626 20.6463 9.62881 21.3789 9.32139 21.4053C9.71763 21.1096 11.461 19.6824 12.5856 19.7848ZM10.1023 20.5811C10.0374 20.4662 9.72999 20.221 9.47432 19.9641C9.47432 19.9641 10.5248 20.1442 10.7542 20.183C10.5248 20.3118 10.1023 20.5811 10.1023 20.5811ZM9.57705 19.8096C10.5881 19.462 11.4069 19.025 12.4968 19.604C11.8935 19.5791 11.3559 19.9129 10.9728 20.0541C10.7048 19.9765 9.78251 19.8345 9.57705 19.8089V19.8096Z" fill="#0C3388"/>
<path d="M13.8908 21.2278C14.0546 21.1324 14.2662 21.1898 14.3604 21.3551C14.4562 21.5196 14.399 21.7315 14.2345 21.827C14.07 21.9224 13.8599 21.8666 13.7649 21.6997C13.6699 21.5344 13.7263 21.3233 13.8908 21.2278Z" fill="#0C3388"/>
<path d="M13.3404 19.0083C13.5057 18.9128 13.7158 18.9695 13.8108 19.1348C13.905 19.3001 13.8494 19.5112 13.6841 19.6067C13.5188 19.7029 13.3087 19.6462 13.2145 19.4802C13.1187 19.3156 13.1758 19.1037 13.3404 19.0091V19.0083Z" fill="#0C3388"/>
<path d="M18.3501 18.2868C18.2102 18.6353 18.045 19.4284 17.7059 19.8926C17.193 20.5942 16.2267 21.0754 14.7275 21.2182C15.5972 20.4157 17.6456 18.6803 18.3941 17.9492L18.3238 17.8266C17.6487 18.4544 14.9522 20.8635 14.6989 21.0389C14.8966 20.5841 15.6984 18.4738 16.7218 17.9965C17.6317 17.5735 17.6742 18.0842 19.0043 17.3128L18.9834 17.1475C18.2867 17.5813 18.1006 17.6442 16.477 17.7241C14.8526 17.804 14.2632 19.4804 13.6113 19.8142C13.9435 19.8002 14.6603 19.9935 14.8912 20.1114C14.7591 20.3955 14.5259 21.021 14.4494 21.3773C15.0395 21.4525 16.9728 21.0847 17.8086 19.995C18.2396 19.4331 18.367 18.5724 18.5416 18.2332C18.6188 18.0842 18.832 17.8871 19.0421 17.7652V17.5867C18.7393 17.7777 18.4288 18.0912 18.3493 18.2852L18.3501 18.2868ZM16.5542 17.8871C16.0197 18.1665 15.7215 18.7261 15.4589 19.0419C15.187 19.1095 14.3189 19.4502 14.1281 19.5301C14.8317 18.7214 15.3238 17.9313 16.5542 17.8871ZM14.1165 19.7156C14.1165 19.7156 15.1152 19.3439 15.3338 19.2624C15.1979 19.4898 14.9654 19.9352 14.9654 19.9352C14.8526 19.8677 14.4656 19.8103 14.1165 19.7156Z" fill="#0C3388"/>
<path d="M18.5682 18.5942C18.6632 18.4297 18.8733 18.373 19.0378 18.4677C19.2023 18.564 19.2587 18.7758 19.1637 18.9412C19.0679 19.1057 18.8578 19.1631 18.6933 19.0669C18.5288 18.9714 18.4724 18.7603 18.5682 18.5942Z" fill="#0C3388"/>
<path d="M16.9874 16.9461C17.0832 16.7808 17.2925 16.7241 17.4578 16.8204C17.6216 16.9158 17.6779 17.1277 17.5829 17.2922C17.4887 17.4583 17.2778 17.515 17.1125 17.4187C16.948 17.3225 16.8932 17.1122 16.9874 16.9469V16.9461Z" fill="#0C3388"/>
<path d="M21.1105 13.6657C21.1074 13.5966 21.1205 13.5074 21.1452 13.4119L21.0147 13.398C20.9738 13.5609 20.9552 13.7092 20.9691 13.8077C21.0216 14.1795 21.2719 14.9502 21.2093 15.5222C21.1128 16.3875 20.5157 17.2894 19.2868 18.1648C19.6429 17.034 20.6146 14.6312 20.9004 13.623L20.7791 13.5516C20.5064 14.4348 19.3069 17.745 19.1748 18.0251C19.1184 17.5323 18.7647 15.301 19.4143 14.3735C19.8337 13.7751 20.1017 13.8341 20.5119 13.3987L20.3056 13.3848C20.0554 13.6067 19.6885 13.8566 19.0651 14.2602C17.6972 15.1442 18.0201 16.8936 17.623 17.5082C17.9027 17.3305 18.6195 17.1373 18.8798 17.1248C18.906 17.4376 19.0157 18.0958 19.1262 18.4427C19.6738 18.2114 21.1653 16.9231 21.3484 15.5587C21.4434 14.8555 21.1259 14.0468 21.1089 13.6649L21.1105 13.6657ZM18.0123 17.1706C18.0123 17.1706 18.6936 16.348 18.8419 16.1671C18.8373 16.431 18.8581 16.9339 18.8581 16.9339C18.726 16.9324 18.363 17.0767 18.0123 17.1706ZM18.8396 15.9133C18.638 16.1081 18.0548 16.8392 17.9297 17.0045C18.1382 15.9514 18.1715 15.0193 19.2158 14.3627C18.8929 14.8733 18.9107 15.5082 18.8396 15.9133Z" fill="#0C3388"/>
<path d="M3.92766 18.4286C4.09296 18.5233 4.14934 18.7344 4.05434 18.9005C3.9601 19.0658 3.74924 19.1232 3.58549 19.0278C3.42019 18.9323 3.36303 18.7204 3.45804 18.5551C3.55227 18.3906 3.76237 18.3324 3.92766 18.4278V18.4286Z" fill="#0C3388"/>
<path d="M5.5609 16.8349C5.72465 16.9296 5.78181 17.1407 5.68758 17.3068C5.59257 17.4721 5.38248 17.5295 5.21795 17.4341C5.05266 17.3386 4.99627 17.1283 5.09051 16.9622C5.18551 16.7969 5.39484 16.7402 5.56013 16.8349H5.5609Z" fill="#0C3388"/>
<path d="M8.13136 19.2637C8.95243 19.8419 8.53456 20.1338 9.86696 20.9029L9.99904 20.8004C9.27452 20.4132 9.12777 20.2836 8.24336 18.9129C7.35741 17.5423 5.61794 17.8737 5.00388 17.4756C5.18308 17.7565 5.37772 18.476 5.39163 18.7375C5.07957 18.7655 4.42534 18.8772 4.08008 18.9906C4.31257 19.5393 5.60095 21.0348 6.95807 21.2133C7.65787 21.3057 8.46272 20.9828 8.84198 20.9658C9.00804 20.9572 9.28534 21.0434 9.4962 21.1644L9.65069 21.076C9.33245 20.9075 8.90763 20.795 8.7014 20.8245C8.33141 20.8773 7.56596 21.1334 6.99515 21.0713C6.13391 20.9782 5.23406 20.3821 4.35814 19.1497C5.48586 19.5036 8.00855 20.4101 9.01345 20.6918L9.08374 20.5692C8.20474 20.2999 4.77679 19.1683 4.49718 19.0371C4.98766 18.9789 7.20679 18.6141 8.13213 19.2637H8.13136ZM8.14217 19.0627C7.63238 18.7399 7.00055 18.76 6.59736 18.691C6.40348 18.49 5.67356 17.9063 5.50903 17.7806C6.55796 17.9863 7.48563 18.0165 8.14217 19.0627ZM5.58164 18.7127C5.58318 18.5808 5.43797 18.2144 5.34374 17.8636C5.34374 17.8636 6.16481 18.5451 6.34632 18.6933C6.08216 18.6902 5.58241 18.7127 5.58241 18.7127H5.58164Z" fill="#0C3388"/>
<path d="M1.29399 13.7567C1.38899 13.922 1.33415 14.1338 1.1704 14.2301C1.00588 14.3263 0.795011 14.2704 0.699233 14.1059C0.603454 13.9406 0.659068 13.7295 0.823591 13.6333C0.988113 13.537 1.19821 13.5921 1.29476 13.7574L1.29399 13.7567Z" fill="#0C3388"/>
<path d="M3.50065 13.1917C3.5972 13.357 3.54158 13.5688 3.37706 13.6651C3.21254 13.7621 3.00244 13.7054 2.90666 13.5409C2.81089 13.3764 2.86495 13.1653 3.02948 13.069C3.194 12.9728 3.40409 13.0271 3.49987 13.1917H3.50065Z" fill="#0C3388"/>
<path d="M4.52578 16.5833C4.95215 17.4952 4.44391 17.5394 5.2194 18.8728L5.3847 18.8511C4.94906 18.1534 4.88572 17.9671 4.7969 16.3349C4.70807 14.7035 3.03503 14.1222 2.70135 13.4688C2.7168 13.8025 2.52756 14.5235 2.41093 14.7563C2.12745 14.6252 1.50412 14.3939 1.14881 14.3194C1.07852 14.9123 1.45391 16.8518 2.54301 17.6869C3.10455 18.1184 3.9627 18.2403 4.30024 18.4141C4.44777 18.4902 4.64628 18.7028 4.76832 18.9139H4.94597C4.75364 18.6089 4.44004 18.2985 4.24617 18.2209C3.89936 18.082 3.10764 17.9205 2.64419 17.5814C1.94362 17.0699 1.45932 16.1021 1.3087 14.5964C2.11123 15.4665 3.8507 17.5138 4.58217 18.262L4.70344 18.1898C4.07469 17.5162 1.66169 14.8207 1.48481 14.5677C1.93976 14.7625 4.0438 15.5549 4.52501 16.5817L4.52578 16.5833ZM2.58626 14.8308C2.65424 14.7167 2.70908 14.3271 2.80177 13.9748C2.80177 13.9748 3.17561 14.976 3.25903 15.1971C3.03194 15.0613 2.58704 14.8308 2.58704 14.8308H2.58626ZM2.9856 13.9856C3.79354 14.6888 4.58371 15.1785 4.63469 16.4149C4.35353 15.8793 3.79586 15.5813 3.47994 15.3198C3.41042 15.0481 3.0667 14.1766 2.9856 13.9856Z" fill="#0C3388"/>
<path d="M1.57472 14.4936C1.58476 14.3213 1.71916 13.7322 0.749788 13.1819C-0.220357 12.6325 -0.258978 11.8385 0.691857 11.1338C1.11591 11.213 1.5948 11.5521 1.87287 11.8695C2.09378 11.5614 2.42051 11.2401 2.61206 11.1338C2.95733 11.3884 3.21377 11.6794 3.19832 11.9083C3.1597 12.4679 2.00727 13.2402 2.25676 14.7551L2.11309 14.707C2.08451 14.2336 2.05593 13.7617 2.38266 13.095C2.30619 12.6907 1.95938 11.764 0.749788 11.2626C1.20087 12.6131 1.74851 13.5498 1.94934 14.2157L1.82498 14.225C1.35381 12.9033 0.893455 12.0837 0.652464 11.3495C0.134178 11.8036 -0.228081 12.4361 0.826256 13.095C1.99723 13.8292 1.69985 14.5518 1.69985 14.5518L1.57472 14.4936ZM1.95861 11.9472C1.95861 11.9472 2.1996 12.246 2.24671 12.343C2.3618 12.1024 2.53482 11.5226 2.55336 11.3201C2.35176 11.4745 2.19883 11.6383 1.95783 11.9472H1.95861ZM2.64991 11.31C2.64142 11.4458 2.48771 12.159 2.34327 12.419C2.34327 12.419 2.48771 12.7776 2.48771 12.9018C2.69008 12.6115 3.04539 12.1109 3.04539 11.8889C3.04539 11.667 2.70862 11.3682 2.65068 11.31H2.64991Z" fill="#0C3388"/>
<path d="M21.4993 8.43188C21.5951 8.59796 21.8044 8.65384 21.9697 8.55761C22.135 8.46214 22.1898 8.25104 22.0956 8.08573C22.0006 7.92042 21.7897 7.86376 21.6244 7.96C21.4607 8.05546 21.4043 8.26734 21.4993 8.4311V8.43188Z" fill="#0C3388"/>
<path d="M21.5946 14.1054C21.6896 14.2707 21.8997 14.3273 22.065 14.2311C22.2296 14.1349 22.2852 13.9245 22.1909 13.7592C22.0944 13.5931 21.8835 13.5373 21.7205 13.6319C21.556 13.7282 21.5004 13.9393 21.5946 14.1046V14.1054Z" fill="#0C3388"/>
<path d="M17.7826 11.8539H18.5504L18.5411 11.7196L18.4168 11.6428L17.3987 9.40527L17.1392 9.59775L17.2157 9.86784L16.4665 11.6343C16.4186 11.7592 16.2656 11.7592 16.2656 11.7592V11.8547H16.8897V11.7592C16.8225 11.7592 16.6781 11.6622 16.6781 11.6622L16.8619 11.2478H17.7378L17.9448 11.7584H17.7819V11.8539H17.7826ZM16.9654 11.0149L17.3223 10.214L17.6459 11.0149H16.9662H16.9654Z" fill="#0C3388"/>
<path d="M22.6935 8.95639L22.4371 8.71191H19.4633C19.3034 8.71191 19.0315 9.16206 19.0315 9.16206C19.0315 8.98821 18.7921 8.71191 18.7056 8.71191H18.6608C18.6917 8.80738 18.721 8.90439 18.7488 9.00218H18.7481C18.8601 9.07979 18.9612 9.20474 18.9612 9.34289V13.0853C18.9265 13.038 18.8825 12.986 18.8299 12.9371C18.8299 12.9371 18.8299 12.9365 18.8299 12.9355C18.8299 12.9355 18.8284 12.9355 18.8284 12.934C18.8052 12.9122 18.7805 12.8913 18.7558 12.8703C18.7473 12.8633 18.7396 12.8579 18.7311 12.8509C18.711 12.8362 18.6917 12.8206 18.67 12.8059C18.6615 12.8005 18.6515 12.7943 18.6438 12.788C18.6152 12.7702 18.5851 12.7523 18.5526 12.7353C18.5526 12.7353 18.5526 12.7353 18.5503 12.7353C18.521 12.7197 18.4893 12.7066 18.4584 12.6941C18.4484 12.691 18.4383 12.6879 18.4283 12.6848C18.4036 12.6778 18.3788 12.6701 18.3549 12.6646C18.3433 12.6615 18.3333 12.66 18.3248 12.6584C18.29 12.653 18.2545 12.6491 18.2205 12.6491H15.7751V8.91836H16.6811C16.6517 8.84851 16.6193 8.78099 16.5876 8.71269H15.66L15.4043 8.95717H15.0977V13.2917H16.6958C16.7197 13.232 16.7467 13.1722 16.7691 13.1117H15.3155V9.14964L15.6353 8.93078V12.764H18.1185C18.1185 12.764 18.5125 12.7795 18.7705 13.1753C18.7782 13.1893 18.789 13.2002 18.7975 13.2141H19.3034C19.5583 12.7772 19.9808 12.764 19.9808 12.764H22.4649V8.93078L22.7854 9.14964V13.1117H20.1986C19.6749 13.1117 19.7893 13.5618 19.4695 13.5618H18.6554C18.633 13.6301 18.6075 13.6992 18.5828 13.7675H19.6626C19.892 13.7675 19.7653 13.2917 20.4311 13.2917H23.004V8.95717H22.6974L22.6935 8.95639ZM22.322 12.6491H19.8773C19.5699 12.6491 19.2756 12.8928 19.135 13.0853V9.34289C19.135 9.11083 19.4154 8.91836 19.5568 8.91836H22.3228V12.6491H22.322Z" fill="#0C3388"/>
<path d="M20.1053 11.6126C20.1053 11.6126 19.981 11.7096 19.7794 11.7096V11.8439H20.5193V11.6902C20.5193 11.6902 20.0868 11.2944 20.0868 10.6293C20.0868 9.96412 20.3849 9.59625 20.8175 9.59625C21.25 9.59625 21.5466 9.96257 21.5466 10.6293C21.5466 11.2959 21.1149 11.6902 21.1149 11.6902V11.8439H21.8533V11.7096C21.6525 11.7096 21.5273 11.6126 21.5273 11.6126C21.6525 11.5063 21.9491 11.1492 21.9491 10.6293C21.9491 9.63583 21.172 9.41309 20.8175 9.41309C20.463 9.41309 19.6836 9.63583 19.6836 10.6293C19.6836 11.1492 19.981 11.507 20.1053 11.6126Z" fill="#0C3388"/>
<path d="M18.7479 9.0018H18.7471C18.7324 8.99016 18.7178 8.98162 18.7031 8.97308C18.6969 8.9692 18.69 8.96687 18.6838 8.96299C18.6722 8.95678 18.6591 8.95058 18.6459 8.94514C18.6367 8.94049 18.6266 8.93661 18.6174 8.9335C18.6081 8.9304 18.5988 8.92729 18.5903 8.92496C18.5718 8.92031 18.5548 8.91798 18.5378 8.91798H16.6786C16.6493 8.84813 16.6168 8.78061 16.5851 8.71231C15.6729 6.71072 13.6654 5.31838 11.3297 5.31838C8.13578 5.31838 5.54744 7.9199 5.54744 11.1291C5.54744 14.3383 8.13578 16.9406 11.3297 16.9406C13.762 16.9406 15.8375 15.4288 16.6925 13.2921C16.7165 13.2324 16.7435 13.1726 16.7659 13.1121H17.8982C18.4219 13.1121 18.3076 13.5622 18.6274 13.5622H18.6513C18.6289 13.6305 18.6035 13.6996 18.5787 13.7679C17.5028 16.7458 14.6649 18.8747 11.3297 18.8747C7.07063 18.8747 3.61719 15.4055 3.61719 11.1245C3.61719 6.84344 7.06985 3.375 11.3297 3.375C14.7515 3.375 17.6495 5.6133 18.6598 8.71309C18.6907 8.80855 18.7201 8.90556 18.7479 9.00335V9.0018ZM5.63472 14.7279C5.46865 14.8544 5.40377 15.1183 5.58451 15.3574C5.76217 15.5925 6.03405 15.6034 6.20089 15.4761C6.35692 15.3558 6.43802 15.0935 6.25187 14.8475C6.06495 14.6014 5.79074 14.6076 5.63472 14.7279ZM6.1167 14.9507C6.20939 15.0733 6.19394 15.2161 6.07422 15.3085C5.95449 15.3985 5.81392 15.3775 5.71968 15.2526C5.62545 15.1292 5.64244 14.9864 5.76217 14.8948C5.88034 14.8032 6.02169 14.8265 6.1167 14.9507ZM4.10535 10.7884C4.0984 11.0833 4.30386 11.2626 4.51318 11.2673C4.71014 11.2711 4.93492 11.1167 4.94187 10.8078C4.94882 10.4981 4.73177 10.3321 4.53326 10.3289C4.32549 10.3227 4.11076 10.488 4.10458 10.7884H4.10535ZM4.27528 10.7923C4.27837 10.6355 4.3811 10.5354 4.5294 10.5393C4.67848 10.5424 4.77657 10.6479 4.77271 10.8039C4.76962 10.9591 4.66766 11.0608 4.51859 11.0569C4.36951 11.0531 4.27296 10.9483 4.27528 10.7923ZM5.85563 7.86014L5.74054 7.58617C5.69342 7.47519 5.62313 7.36265 5.51731 7.30134C5.44084 7.25788 5.3412 7.25167 5.2601 7.28349C5.18286 7.31376 5.11798 7.38516 5.07781 7.45579C4.98281 7.62343 4.99516 7.82677 5.17359 7.92999C5.30799 8.00838 5.48333 7.98742 5.56597 7.84307C5.5876 7.80426 5.59764 7.76934 5.60228 7.72743H5.60459L5.73204 8.07745L5.85563 7.86014ZM5.28095 7.72898C5.34815 7.76778 5.4308 7.74683 5.46865 7.68086C5.5065 7.61411 5.48487 7.52874 5.41767 7.49071C5.35124 7.45191 5.26782 7.47519 5.22843 7.54271C5.18981 7.60946 5.21376 7.69172 5.28095 7.72975V7.72898ZM8.04077 5.85312L7.27377 4.88143L7.05286 5.05838L7.07217 5.08089C7.15018 5.01958 7.21738 5.10029 7.21738 5.10029L7.39735 5.32847L7.13782 5.53491L6.89452 5.42471L6.84276 5.28113L6.58246 5.48835L6.60332 5.51474C6.65121 5.47593 6.72072 5.46506 6.75857 5.55665L7.13087 6.49884L7.25137 6.40261L6.97485 5.64512L7.78278 5.97963L7.86389 5.91521L7.90251 5.96333L8.04077 5.85234V5.85312ZM7.80518 5.8407L7.27068 5.597L7.48077 5.42936L7.80518 5.8407ZM9.33533 5.07313L8.60077 5.42626L8.5691 5.35796L9.19552 5.05683L9.06575 4.78597L8.7398 4.94274L8.68573 4.83098L9.1206 4.62221L9.12755 4.48949L8.80236 4.64549C8.8518 4.564 8.86493 4.47397 8.82863 4.39869C8.7707 4.27606 8.60231 4.23105 8.42852 4.28227C8.42775 4.27917 8.42543 4.27606 8.42388 4.27451C8.40998 4.25278 8.3675 4.25123 8.3675 4.25123L8.19757 4.33272L8.20606 4.35057C8.23078 4.33893 8.25395 4.35523 8.25395 4.35523L8.25859 4.36454C8.1126 4.46854 8.04309 4.62687 8.10102 4.74871C8.13809 4.824 8.21533 4.86979 8.31034 4.88298L7.97975 5.04208L8.09175 5.11659L8.52121 4.91092L8.57373 5.02191L8.23078 5.18722L8.3312 5.26948L8.9553 4.96991L8.98774 5.03743L8.28871 5.37348L8.29798 5.39444C8.35591 5.3665 8.40535 5.43169 8.40535 5.43169L8.49263 5.61485L9.32528 5.21361L9.3361 5.07313H9.33533ZM8.26709 4.66878C8.22074 4.57331 8.27326 4.45302 8.38217 4.40024C8.49186 4.34747 8.61621 4.38317 8.66256 4.47863C8.70813 4.57409 8.65715 4.69439 8.54824 4.74716C8.43856 4.79994 8.31343 4.76424 8.26786 4.66878H8.26709ZM13.9736 16.8095L14.3475 17.539L14.529 17.4459L14.3768 17.1494L14.4301 17.1222C14.5275 17.0726 14.6279 17.1975 14.7854 17.3132L14.9847 17.2123C14.7739 17.0501 14.7051 16.9725 14.6116 16.9732C14.6742 16.8917 14.6858 16.811 14.6441 16.7311C14.5892 16.6216 14.4487 16.5665 14.2996 16.6442L13.9744 16.8118L13.9736 16.8095ZM14.461 16.8312C14.4919 16.8941 14.4541 16.9399 14.4039 16.9662L14.3089 17.0159L14.2239 16.8498L14.315 16.8033C14.3838 16.7683 14.4332 16.7776 14.461 16.8312ZM14.4479 5.30674C14.6209 5.42315 14.8387 5.39987 14.9345 5.25551C14.9855 5.1779 14.9917 5.08244 14.96 4.99241L15.0921 5.08011L15.2172 5.01259L14.8943 4.79683L14.9577 4.7006L14.7252 4.5446L14.7012 4.57331C14.7924 4.63463 14.7406 4.69284 14.7406 4.69284L14.4224 4.47863L14.4046 4.6191L14.5421 4.71146C14.4471 4.71534 14.3614 4.7588 14.3096 4.83564C14.2139 4.97922 14.2756 5.1911 14.4479 5.30596V5.30674ZM14.5197 5.20584C14.4363 5.14996 14.417 5.032 14.4757 4.94274C14.5352 4.85427 14.6503 4.82788 14.7345 4.88376C14.8179 4.94041 14.8387 5.05761 14.7785 5.14764C14.7198 5.23611 14.6039 5.2625 14.5197 5.20584ZM10.7056 4.97456L10.46 3.77159L10.1757 3.8298L10.1834 3.8655C10.1834 3.8655 10.2939 3.85774 10.307 3.92293L9.83894 4.01995C9.83044 4.0184 9.82117 4.0184 9.8119 4.01684C9.79723 3.99046 9.77328 3.93613 9.75706 3.91517L9.55469 3.95786L9.56087 3.98657C9.56087 3.98657 9.62884 3.9726 9.64274 4.04168C9.64274 4.04323 9.64352 4.04401 9.64352 4.04634C9.45968 4.11696 9.34846 4.31099 9.39017 4.50967C9.43497 4.73086 9.65279 4.87289 9.87447 4.8271C10.0336 4.79451 10.151 4.67498 10.1904 4.52985L10.4206 4.48251L10.5287 5.01026L10.7056 4.97379V4.97456ZM9.57941 4.46776C9.55006 4.32263 9.62343 4.18526 9.74547 4.16042C9.86674 4.13481 9.98956 4.23183 10.0181 4.37618C10.0483 4.52054 9.97334 4.65869 9.85207 4.68275C9.73157 4.70758 9.60876 4.61057 9.57941 4.46699V4.46776ZM10.1966 4.34359C10.2004 4.36532 10.2027 4.3855 10.2035 4.40645L10.3966 4.36687L10.331 4.03935L10.0413 4.09911C10.1193 4.15732 10.1765 4.24269 10.1966 4.34359ZM6.20475 6.80541C6.07885 6.71693 5.90274 6.72236 5.80774 6.85818C5.78379 6.89388 5.77066 6.92881 5.76371 6.96994H5.76062L5.6633 6.6106L5.52195 6.81472L5.61232 7.09878C5.64785 7.21364 5.70964 7.33316 5.80928 7.40301C5.88034 7.45346 5.97844 7.46665 6.06263 7.44337C6.14219 7.41931 6.21325 7.35489 6.2596 7.28737C6.37005 7.12982 6.37546 6.9257 6.20553 6.80696L6.20475 6.80541ZM5.9236 7.22218C5.86181 7.17872 5.84713 7.09179 5.89116 7.02893C5.93518 6.96606 6.0186 6.95364 6.0804 6.99711C6.14451 7.04212 6.16227 7.12516 6.11747 7.18881C6.07422 7.25089 5.98694 7.26719 5.9236 7.22218ZM4.52013 9.39296C4.79511 9.46902 4.87235 9.05768 4.9913 9.09105C5.02992 9.10192 5.04305 9.15392 5.02297 9.22454C5.00443 9.29206 4.96658 9.3557 4.88394 9.45582L5.03687 9.49773C5.10716 9.41081 5.1481 9.33553 5.17205 9.24705C5.22225 9.06389 5.16509 8.92031 5.02915 8.88228C4.74568 8.80311 4.68234 9.21911 4.55335 9.18186C4.507 9.16944 4.49155 9.12132 4.51241 9.04604C4.53635 8.95834 4.58193 8.89702 4.68929 8.80389L4.51936 8.75732C4.45757 8.82407 4.40273 8.88305 4.36411 9.0212C4.31622 9.19738 4.36797 9.3495 4.51936 9.39141L4.52013 9.39296ZM4.15556 10.1241L4.30386 10.1473L4.36565 9.7523L4.5603 9.78257L4.5016 10.1528L4.64912 10.1768L4.7086 9.8074L4.87776 9.83457L4.81597 10.2218L4.96349 10.2459L5.0585 9.65606L4.25133 9.52567L4.1571 10.1233L4.15556 10.1241ZM4.57884 12.2506L5.03842 12.1893L5.01216 11.9875L4.56107 12.0465C4.41663 12.0651 4.34711 11.9735 4.33321 11.8664C4.31776 11.75 4.37646 11.6553 4.4931 11.6406L4.95809 11.5785L4.93105 11.3759L4.4707 11.4365C4.21967 11.4691 4.13316 11.6538 4.16405 11.8905C4.19263 12.1132 4.31004 12.2847 4.57806 12.2498L4.57884 12.2506ZM4.5881 13.1043L4.48151 12.6976L5.12493 12.5261L5.07318 12.329L4.283 12.5393L4.44212 13.1439L4.58733 13.1051L4.5881 13.1043ZM15.4791 15.8874L15.5787 15.9992L15.7996 15.8021L16.2445 16.3011L16.3959 16.1645L15.9518 15.6663L16.1711 15.4676L16.0831 15.3675L16.6168 15.3962L16.9119 15.6399L17.0409 15.4823L16.7458 15.2386L16.6168 14.7116L16.46 14.9018L16.5434 15.2029L16.2337 15.1773L16.0808 15.3644L16.0723 15.3558L15.4798 15.8882L15.4791 15.8874ZM15.2481 16.0776L15.7131 16.7528L15.8792 16.6372L15.4157 15.9612L15.2481 16.0776ZM14.7545 16.6504C14.9175 16.8956 15.2358 16.6224 15.3091 16.7326C15.3362 16.773 15.3161 16.8203 15.252 16.8622C15.1778 16.9135 15.1021 16.9305 14.9608 16.9313L15.0589 17.078C15.15 17.0671 15.2296 17.0586 15.3485 16.9794C15.4991 16.8778 15.5578 16.728 15.4713 16.5976C15.313 16.3593 14.987 16.6209 14.9183 16.5177C14.8951 16.4835 14.9198 16.4362 14.9801 16.395C15.038 16.3562 15.1083 16.3337 15.2365 16.3112L15.1477 16.1777C15.038 16.1979 14.9585 16.2289 14.8828 16.2794C14.726 16.3857 14.6758 16.5316 14.7545 16.6504ZM13.2955 17.0718L13.582 17.8401L14.1474 17.629L14.0941 17.4878L13.7211 17.629L13.6523 17.4435L13.9999 17.3116L13.9489 17.1711L13.599 17.3015L13.5388 17.1401L13.9049 17.0035L13.8524 16.8615L13.2955 17.071V17.0718ZM12.4033 17.3023L12.9811 18.0163L13.0676 17.9954L13.2406 17.0982L13.0274 17.1502L12.9378 17.6539L12.6181 17.2495L12.4033 17.3023ZM12.1276 17.3295L12.2434 18.1413L12.4458 18.1133L12.33 17.3007L12.1284 17.3302L12.1276 17.3295ZM11.1428 17.3916L11.1721 18.2119L11.376 18.2034L11.3575 17.6787L11.8263 18.1878L11.9978 18.1816L11.9685 17.3605L11.7653 17.3675L11.7831 17.8689L11.3297 17.3838L11.1428 17.39V17.3916ZM10.5063 18.1653C10.728 18.1909 10.9226 18.1188 10.9527 17.8487L11.0053 17.3853L10.8029 17.3628L10.7504 17.8169C10.7342 17.9628 10.6291 18.0062 10.5217 17.9954C10.4051 17.9822 10.3286 17.9022 10.3418 17.7843L10.3958 17.3163L10.1927 17.293L10.1402 17.7563C10.1124 18.0093 10.2692 18.1382 10.5048 18.1653H10.5063ZM9.126 17.2332C9.04104 17.5165 9.45273 17.5895 9.41334 17.7183C9.40021 17.7649 9.35155 17.7781 9.2774 17.7555C9.19166 17.7299 9.12987 17.6834 9.04104 17.5739L8.9916 17.7424C9.05649 17.8068 9.11364 17.8634 9.25036 17.9038C9.42415 17.9558 9.57709 17.9084 9.62189 17.7563C9.70454 17.4831 9.29671 17.3947 9.33224 17.2767C9.34382 17.2379 9.39557 17.2262 9.46586 17.2464C9.53229 17.2666 9.59408 17.307 9.69218 17.3923L9.73775 17.2394C9.65201 17.1673 9.57863 17.1238 9.49058 17.0982C9.30984 17.0431 9.1654 17.0982 9.126 17.2332ZM8.88424 17.1789L8.98156 17.2169L9.06498 17.0772L9.11828 16.9399L8.96689 16.8824L8.91436 17.0182L8.88424 17.1789ZM8.08634 16.5107L7.72177 17.2441L7.90328 17.3357L8.13732 16.8661L8.30648 17.5398L8.46019 17.6158L8.82554 16.8824L8.64479 16.7908L8.42079 17.2402L8.25473 16.5945L8.08711 16.5114L8.08634 16.5107ZM6.937 16.7179L7.42671 17.0687L7.51321 16.9453L7.1888 16.714L7.30312 16.5526L7.60668 16.7691L7.69319 16.6465L7.3904 16.4292L7.4885 16.2895L7.8075 16.5169L7.89401 16.3942L7.40894 16.0481L6.93623 16.7171L6.937 16.7179ZM6.59637 15.3046L6.03328 15.8983L6.18081 16.0396L6.53303 15.6686L6.51604 16.007L6.53844 16.0295L6.87521 15.9946L6.52376 16.3655L6.67052 16.5068L7.2336 15.9115L7.10461 15.7889L6.70528 15.8277L6.72459 15.4257L6.59637 15.303V15.3046ZM5.08708 13.8005L5.40377 13.4233L5.30567 13.23L4.72946 13.9285L4.76885 14.0062L5.35897 13.9914L4.99671 14.461L5.03687 14.5393L5.93673 14.4842L5.83941 14.2918L5.35047 14.3244L5.65866 13.9317L5.58451 13.785L5.08631 13.8013L5.08708 13.8005ZM5.58142 8.36539L4.82137 8.00295L4.72405 8.19852L5.48719 8.5633L5.58142 8.36539ZM6.69137 6.68977L6.05491 6.13795L5.90892 6.29628L6.54848 6.85663L6.69137 6.69054V6.68977ZM12.2496 4.20156H12.0295V3.76461H11.7522V3.7941C11.7522 3.7941 11.8511 3.82359 11.8511 3.87171V4.8077L11.4533 4.02693L11.4788 3.96252H11.7113L11.77 3.83989H10.9759L11.0439 3.96252H11.288L10.9697 4.93653H11.1219L11.3791 4.23881L11.7337 4.93653H11.8511V4.98077H12.0295V4.32418H12.1677L12.2496 4.20078V4.20156ZM13.9953 4.26597L13.7381 4.17517L13.7311 4.19768C13.7311 4.19768 13.8099 4.25278 13.7836 4.32574C13.7581 4.39947 13.6824 4.616 13.6824 4.616L13.5179 4.55857L13.6624 4.14723L13.4152 4.06108L13.4075 4.08359C13.4075 4.08359 13.4808 4.12162 13.4438 4.23027C13.4059 4.3397 13.287 4.67809 13.287 4.67809L12.849 4.63307L13.0213 4.13714L13.2306 4.21009L13.3457 4.11541L12.8027 3.92449L12.7926 3.9532C12.7926 3.9532 12.8838 3.98269 12.8451 4.09445C12.8065 4.20621 12.6181 4.74406 12.6181 4.74406L13.2406 4.81158L13.0954 5.22913L13.2677 5.28889L13.4801 4.67964L13.6407 4.73552L13.4283 5.34554L13.5975 5.40608L13.9953 4.26597ZM15.0079 5.74679L14.091 5.12823L14.0802 5.27492L14.787 5.75067L14.6472 5.96178L14.7978 6.06189L15.0079 5.74679ZM15.1593 5.51474L15.2744 5.59235L15.4095 5.53569L15.2265 5.41307L15.469 5.04985L15.2381 4.89385L15.2203 4.91868C15.2203 4.91868 15.2867 4.9994 15.2612 5.03976C15.2404 5.07002 15.0372 5.37504 14.8743 5.61796L15.0241 5.71808L15.1585 5.51551L15.1593 5.51474ZM16.0136 6.80153L16.7111 6.15503L15.9448 5.42704L15.9093 5.55354L16.4925 6.10846L15.8884 6.68433L15.7826 6.58266L16.2059 6.13407L16.0182 5.95634L15.9997 5.97652C16.0599 6.03395 16.0259 6.07819 16.0259 6.07819L15.6598 6.46625L15.5416 6.35449L15.9665 5.90279L15.7842 5.72972L15.7625 5.75145C15.8259 5.81043 15.7873 5.85545 15.7873 5.85545L15.4234 6.24117L15.2396 6.06577L15.1971 6.20392L16.0267 6.99167L16.1588 6.94045L16.0143 6.8023L16.0136 6.80153ZM17.044 7.21752C16.9127 7.21752 16.8068 7.32463 16.8068 7.45656C16.8068 7.5885 16.9127 7.69638 17.044 7.69638C17.1753 7.69638 17.2819 7.58928 17.2819 7.45656C17.2819 7.32385 17.1753 7.21752 17.044 7.21752ZM17.3004 14.0791C17.1691 14.0791 17.0633 14.1862 17.0633 14.3182C17.0633 14.4501 17.1691 14.5564 17.3004 14.5564C17.4317 14.5564 17.5383 14.4493 17.5383 14.3182C17.5383 14.187 17.4317 14.0791 17.3004 14.0791Z" fill="#0C3388"/>
</g>
<defs>
<clipPath id="clip0_4956_56298">
<rect width="23" height="22.2581" fill="white"/>
</clipPath>
</defs>
</svg>
