<svg width="22" height="22" viewBox="0 0 22 22" fill="none" xmlns="http://www.w3.org/2000/svg">
<g clip-path="url(#clip0_4956_56229)">
<path d="M7.9692 2.63574L5.59961 3.84635L5.74674 4.13545L6.75085 3.62178L7.09932 4.30581L7.46327 4.11996L7.1148 3.43593L8.11633 2.92484L7.9692 2.63574Z" fill="#005CA9"/>
<path d="M6.52313 2.73096C6.85353 2.9452 7.21748 2.75935 7.21748 2.75935L7.75696 2.48316L7.6279 2.23278L7.21232 2.44444C7.21232 2.44444 6.89483 2.62255 6.64703 2.36184L7.47561 1.93851L7.32589 1.64941L5.16797 2.75161L5.3151 3.04071L6.14368 2.61738C6.21079 2.97101 5.88039 3.12331 5.88039 3.12331L5.46481 3.33497L5.59388 3.58535L6.13336 3.30916C6.13336 3.30916 6.49989 3.12589 6.51796 2.73096H6.52313Z" fill="#005CA9"/>
<path d="M3.93733 4.29004L3.66113 4.64883L3.36171 4.4191L3.11133 4.74176L4.90272 6.12273L5.1531 5.79749L3.91668 4.84501L4.19287 4.48879L3.93733 4.29004Z" fill="#005CA9"/>
<path d="M2.77788 5.25782C2.55847 5.36881 2.35197 5.64501 2.35197 5.64501C2.35197 5.64501 2.13515 5.91346 2.0861 6.15351C2.0861 6.15351 1.97253 6.56909 2.35455 6.87626C2.75207 7.16794 3.12377 6.95112 3.12377 6.95112C3.34317 6.84012 3.54967 6.56393 3.54967 6.56393C3.54967 6.56393 3.7665 6.29548 3.81554 6.05542C3.81554 6.05542 3.92912 5.63984 3.54451 5.33009C3.14958 5.03841 2.7753 5.25524 2.7753 5.25524L2.77788 5.25782ZM3.43352 6.06575C3.40254 6.20256 3.27606 6.36001 3.27606 6.36001C3.27606 6.36001 3.15474 6.52263 3.03084 6.58716C3.03084 6.58716 2.81918 6.71622 2.60235 6.55619C2.39327 6.38582 2.46297 6.14835 2.46297 6.14835C2.49394 6.01154 2.62042 5.85409 2.62042 5.85409C2.62042 5.85409 2.73916 5.69405 2.86306 5.62694C2.86306 5.62694 3.07472 5.49787 3.29155 5.65791C3.50063 5.82827 3.43094 6.06575 3.43094 6.06575H3.43352Z" fill="#005CA9"/>
<path d="M11.701 1.07157V1.44843H11.4197V1.07157H11.0092V2.22281H10.0335L10.018 2.20474V1.38906H10.7847V1.06641H9.63086V2.31057C9.63086 2.44221 9.73669 2.54804 9.86833 2.54804C9.87092 2.54804 9.87608 2.54804 9.87866 2.54804H11.0092V3.33016H11.4197V1.77367H11.701V3.33016H12.1114V1.07157H11.701Z" fill="#005CA9"/>
<path d="M18.4945 7.10081L19.6999 6.14833C19.6999 6.14833 19.7025 6.14575 19.7051 6.14575C19.8032 6.06831 19.8213 5.9315 19.7567 5.83083L18.5487 4.30273L18.2957 4.50407L19.4057 5.90827L18.2648 6.81171L18.0221 6.50454L18.8817 5.82309L18.6494 5.52883L17.7872 6.21286L17.5782 5.94699L18.4403 5.26554L18.208 4.97128L17.3458 5.65273L17.0309 5.25263L16.7754 5.45397L18.4351 7.54995L18.6881 7.34861L18.4971 7.10597L18.4945 7.10081Z" fill="#005CA9"/>
<path d="M16.7116 3.05652L16.3244 2.86809L16.5 2.51188L16.1644 2.34668L15.6895 3.31207L16.025 3.47727L16.198 3.12364L16.5851 3.31465L16.7116 3.05652Z" fill="#005CA9"/>
<path d="M15.8417 3.84921C15.8984 3.73306 15.852 3.59109 15.7358 3.5343L13.8309 2.59473L13.6992 2.86318L15.4777 3.73822L15.1628 4.38095L15.4984 4.54615L15.8417 3.8518V3.84921Z" fill="#005CA9"/>
<path d="M14.1402 1.98026C14.1402 1.98026 14.0628 2.13514 14.0809 2.26162C14.0809 2.26162 14.0938 2.44231 14.2538 2.5946C14.3338 2.67204 14.4603 2.73915 14.6307 2.82433C14.8036 2.90951 14.9327 2.9663 15.0411 2.98437C15.2631 3.01793 15.4128 2.91984 15.4128 2.91984C15.5238 2.85273 15.5986 2.70043 15.5986 2.70043C15.5986 2.70043 15.658 2.57911 15.6606 2.46296L15.8413 2.55072L15.9832 2.25904L15.2863 1.91573L15.3637 1.7557L15.0282 1.5905L14.9482 1.75053L14.2512 1.40723L14.1067 1.69633L14.2874 1.78667C14.197 1.85895 14.1376 1.98026 14.1376 1.98026H14.1402ZM15.1985 2.64623C15.1985 2.64623 15.1288 2.69269 15.0256 2.6772C14.974 2.66946 14.8397 2.60493 14.7597 2.56621C14.6797 2.52749 14.5584 2.46554 14.5223 2.4294C14.4474 2.35713 14.4422 2.27453 14.4422 2.27453C14.4345 2.21516 14.4706 2.14288 14.4706 2.14288C14.4706 2.14288 14.5068 2.07061 14.5584 2.03963C14.5584 2.03963 14.6281 1.99317 14.7313 2.00866C14.783 2.0164 14.9069 2.07319 14.9869 2.11449C15.0669 2.15321 15.1985 2.2229 15.2373 2.25904C15.3121 2.33131 15.3173 2.41391 15.3173 2.41391C15.325 2.47328 15.2889 2.54556 15.2889 2.54556C15.2889 2.54556 15.2527 2.61783 15.2011 2.64881L15.1985 2.64623Z" fill="#005CA9"/>
<path d="M1.89163 12.4625L1.81678 11.8094L1.15081 11.6468L1.125 11.4248L2.64536 11.8378C2.74344 11.8636 2.85702 11.8998 2.88025 11.7707H2.89058L2.93704 12.1785L1.67223 12.8703C1.53026 12.9477 1.39345 13.0097 1.32634 13.1671L1.28246 12.7774L1.89163 12.4599V12.4625ZM2.69698 12.0366L2.01553 11.8559L2.0749 12.3644L2.69698 12.0366Z" fill="#005CA9"/>
<path d="M2.8313 13.3786C2.94488 13.345 3.13073 13.3011 3.13847 13.1592H3.1488L3.29851 13.6315H3.28818C3.203 13.5257 3.02748 13.598 2.9139 13.6315L1.50454 14.0729C1.24125 14.1555 1.03733 14.0368 0.916016 13.7296V13.7167C1.1664 13.869 1.31095 13.8535 1.5794 13.7684L2.83388 13.3734L2.8313 13.3786Z" fill="#005CA9"/>
<path d="M3.48132 16.229C2.99088 16.4303 2.46689 16.1722 2.26813 15.6921C2.07196 15.2146 2.24748 14.6725 2.7405 14.4686C3.19738 14.2801 3.74461 14.5176 3.94078 15.0287C4.15244 15.5346 3.91497 16.0483 3.48132 16.229ZM2.87473 14.7344C2.53658 14.8738 2.29136 15.2559 2.44624 15.6327C2.59853 15.9993 2.95991 16.1206 3.3187 15.9734C3.66975 15.8289 3.91755 15.4624 3.76009 15.0829C3.6078 14.7086 3.23868 14.5847 2.87473 14.7344Z" fill="#005CA9"/>
<path d="M4.31742 18.2113L4.43874 18.09C4.25031 18.1158 4.05672 18.01 3.92765 17.8809C3.80634 17.7596 3.71341 17.5918 3.72115 17.4189C3.73148 17.215 3.85796 17.0962 3.9896 16.962L4.48004 16.469C4.56264 16.3864 4.70977 16.2651 4.66073 16.1309L4.93434 16.4019L4.66847 16.66L4.17804 17.153C3.93282 17.3983 3.92249 17.6151 4.1135 17.8061C4.21675 17.9093 4.36389 17.9713 4.51102 17.9455C4.60652 17.93 4.6504 17.8835 4.71752 17.8164L5.2699 17.2614C5.3525 17.1788 5.49705 17.0549 5.45059 16.9181L5.7242 17.1918L5.45834 17.4499L4.50844 18.4024L4.32 18.2165L4.31742 18.2113Z" fill="#005CA9"/>
<path d="M7.65336 20.2194L7.71531 20.0671C7.55269 20.1626 7.3307 20.1394 7.16292 20.0697C7.00288 20.0026 6.85575 19.8839 6.79638 19.7213C6.72669 19.5277 6.79638 19.3676 6.86866 19.1973L7.13453 18.5545C7.17841 18.4461 7.26875 18.2783 7.17066 18.1699L7.52429 18.3171L7.37716 18.6552L7.11129 19.2979C6.97965 19.618 7.05193 19.8219 7.29973 19.9252C7.43395 19.982 7.59399 19.982 7.72047 19.9019C7.80307 19.8503 7.8263 19.7884 7.86244 19.7032L8.16186 18.9779C8.20574 18.8694 8.29351 18.6991 8.198 18.5907L8.55421 18.7404L8.40708 19.0811L7.89599 20.3175L7.65078 20.2169L7.65336 20.2194Z" fill="#005CA9"/>
<path d="M10.6843 19.4166L10.5165 20.8673C10.3384 20.7847 10.2687 20.6892 10.1732 20.5292L9.4169 19.3005L9.26202 20.6324L9.07617 20.6118L9.23363 19.2489C9.2517 19.1043 9.26202 19.0011 9.13812 18.9107V18.9004L9.51498 18.9443C9.52015 18.9804 9.53047 18.9933 9.54596 19.0165L9.57693 19.0733L10.3849 20.3769L10.4984 19.396C10.5139 19.2514 10.5294 19.1379 10.4029 19.0449L10.7256 19.0811L10.6843 19.4166Z" fill="#005CA9"/>
<path d="M11.5484 20.7871L11.4813 19.4397C11.4761 19.321 11.4838 19.13 11.3496 19.0835L11.7291 19.0654L11.7471 19.4242L11.8142 20.7716L11.5509 20.7845L11.5484 20.7871Z" fill="#005CA9"/>
<path d="M19.3725 16.141L18.2109 15.4569C18.1077 15.395 17.9528 15.284 17.8418 15.3718L18.0354 15.0439L18.3451 15.2272L19.5067 15.9112L19.3725 16.141Z" fill="#005CA9"/>
<path d="M13.443 19.2197C13.4688 19.0236 13.5049 18.7964 13.3346 18.7706V18.7603L13.7088 18.6699L13.4533 20.5749C13.2494 20.5 13.1848 20.4923 13.0661 20.3116L12.4363 19.3643C12.3588 19.2455 12.284 19.1087 12.1523 19.0494V19.039L12.5189 18.9513L12.524 18.9823C12.5369 19.039 12.6144 19.15 12.6479 19.2017L13.3113 20.2083L13.4404 19.2171L13.443 19.2197Z" fill="#005CA9"/>
<path d="M14.8083 19.6825L14.3772 18.7997C14.3256 18.6939 14.2559 18.5157 14.1165 18.5287L14.1113 18.5209L14.8599 18.1544C14.8986 18.1363 14.9425 18.1234 14.9657 18.0898H14.9735L15.1077 18.3609H15.0999C14.9864 18.317 14.8857 18.3531 14.7773 18.4073C14.6947 18.4461 14.6147 18.4899 14.5476 18.539L14.7592 18.9752L15.038 18.8384C15.0767 18.8203 15.1129 18.8023 15.1335 18.7739H15.1412L15.2626 19.0191H15.2574C15.1877 18.9726 15.0896 19.0243 15.0173 19.0578L14.8444 19.143L15.1154 19.698L15.4278 19.5792C15.5878 19.5173 15.7272 19.3908 15.7917 19.2308L15.7995 19.2256L15.8433 19.5844L14.9709 20.0103L14.8134 19.6799L14.8083 19.6825Z" fill="#005CA9"/>
<path d="M16.7054 18.9857L15.8794 17.9274C15.8045 17.8319 15.7038 17.6719 15.5696 17.7158L15.5645 17.708L16.0523 17.326C16.3285 17.1092 16.5892 17.1376 16.7363 17.326C16.8783 17.5067 16.8293 17.7725 16.6925 17.9429L17.2784 18.0823C17.4488 18.121 17.6604 18.1262 17.8334 18.1107L17.6449 18.2578C17.5339 18.343 17.4488 18.3688 17.3274 18.3404L16.8344 18.2268L16.4214 18.0849C16.566 17.9326 16.6976 17.708 16.5479 17.5144C16.4318 17.3673 16.2382 17.3802 16.1039 17.4938C16.0575 17.5325 16.0188 17.5738 15.9775 17.6177L16.9196 18.8231L16.7105 18.9857H16.7054Z" fill="#005CA9"/>
<path d="M17.7864 16.0501C17.6418 16.063 17.4921 16.1482 17.4018 16.2618C17.3062 16.3753 17.2314 16.556 17.3708 16.6722C17.647 16.8993 18.2123 16.2024 18.584 16.5096C18.8008 16.6851 18.8163 17.0774 18.5582 17.3898C18.4575 17.5137 18.3387 17.6195 18.2019 17.6995L17.9025 17.5524C18.1039 17.5163 18.3026 17.4053 18.4317 17.2504C18.5272 17.1342 18.5995 16.9045 18.4575 16.7909C18.1426 16.5328 17.6315 17.271 17.203 16.92C16.95 16.7109 17.0662 16.3728 17.2701 16.1275C17.3527 16.0269 17.4508 15.9365 17.5592 15.8643L17.7864 16.0527V16.0501Z" fill="#005CA9"/>
<path d="M20.6879 12.6402L19.9496 12.5344L19.1985 12.8622C19.0746 12.9138 18.9842 12.9525 18.8965 13.0661L18.9533 12.6815L19.7664 12.333L19.3327 11.9433C19.2759 11.8891 19.1598 11.8142 19.0694 11.9459H19.0591L19.1236 11.4941L19.9884 12.2659L20.7266 12.3718L20.6879 12.6351V12.6402Z" fill="#005CA9"/>
<path d="M18.3053 14.6148L18.5454 14.8007V14.7929C18.5067 14.6923 18.5247 14.5709 18.5634 14.4677L18.6486 14.2535L20.0709 14.8136L20.1664 14.5658L18.7441 14.0057L18.8293 13.7888C18.8603 13.7088 18.9119 13.6159 19.0074 13.6185V13.6107L18.7674 13.4326L18.3027 14.6148H18.3053Z" fill="#005CA9"/>
<path d="M10.9961 0C4.92503 0 0 4.92503 0 10.9935C0 17.0621 4.92503 22 10.9961 22C17.0672 22 22.0026 17.075 22.0026 10.9935C22.0026 4.91212 17.075 0 10.9961 0ZM10.9961 21.6748C5.10571 21.6748 0.325238 16.8943 0.325238 10.9935C0.325238 5.09281 5.10571 0.325238 10.9961 0.325238C16.8865 0.325238 21.6748 5.10571 21.6748 10.9935C21.6748 16.8814 16.8943 21.6748 10.9961 21.6748Z" fill="#005CA9"/>
<path d="M18.1491 10.9965C18.1491 14.9484 14.9484 18.1491 10.9965 18.1491C7.04457 18.1491 3.85156 14.9484 3.85156 10.9965C3.85156 7.04457 7.04973 3.85156 10.9965 3.85156C14.9432 3.85156 18.1491 7.05231 18.1491 10.9965Z" fill="#005CA9"/>
<path d="M2.65033 9.18454C2.65033 9.34716 2.51868 9.48138 2.35348 9.48138C2.18828 9.48138 2.05664 9.34974 2.05664 9.18454C2.05664 9.01934 2.18828 8.8877 2.35348 8.8877C2.51868 8.8877 2.65033 9.02192 2.65033 9.18454Z" fill="#005CA9"/>
<path d="M19.9902 9.18454C19.9902 9.34716 19.8585 9.48138 19.6933 9.48138C19.5281 9.48138 19.3965 9.34974 19.3965 9.18454C19.3965 9.01934 19.5281 8.8877 19.6933 8.8877C19.8585 8.8877 19.9902 9.02192 19.9902 9.18454Z" fill="#005CA9"/>
<path d="M9.72526 4.89453L6.72585 9.29298C6.72585 9.29298 5.99794 10.199 6.59937 11.3838L8.1636 13.7947C8.1636 13.7947 8.43205 14.2696 8.98186 14.2696H10.1563C10.1563 14.2696 9.97048 14.1974 9.85432 14.0296L8.1094 11.3451C8.1094 11.3451 7.82546 10.8882 7.84611 10.4262C7.84611 10.4262 7.86418 10.0209 8.10165 9.63629L9.73559 7.1841L11.6715 10.1835C11.6715 10.1835 11.8909 10.5113 11.6586 10.7746C11.6586 10.7746 11.5166 10.9218 11.163 10.8082L11.8393 11.851C11.8393 11.851 11.9606 12.0188 12.162 12.0188C12.162 12.0188 12.3039 12.0188 12.4382 11.8587L12.9389 11.0457C12.9389 11.0457 13.3055 10.563 12.9208 9.81181L9.72526 4.89453Z" fill="#C59600"/>
<path d="M13.6743 13.8723L15.1611 11.6317C15.1611 11.6317 15.889 10.7257 15.2876 9.54092L12.5927 5.38769C12.5927 5.38769 12.3243 4.91016 11.7745 4.91016H10.6C10.6 4.91016 10.7859 4.98243 10.902 5.15021L13.7182 9.43767C13.7182 9.43767 14.095 10.0107 14.0408 10.496C14.0408 10.496 14.0227 10.9012 13.7827 11.2858L12.8096 12.8036C12.6469 13.0127 12.4766 13.0179 12.4766 13.0179H11.888C11.6945 12.9972 11.5525 12.7701 11.5525 12.7701L10.2102 10.7386C10.2102 10.7386 9.99082 10.4108 10.2231 10.1475C10.2231 10.1475 10.3651 10.0004 10.7187 10.1165L10.0424 9.07371C10.0424 9.07371 9.92113 8.90593 9.72237 8.90593C9.72237 8.90593 9.58041 8.90593 9.44618 9.06597L8.94284 9.87648C8.94284 9.87648 8.5763 10.3592 8.96091 11.1129L10.7678 13.8877C10.7678 13.8877 11.0156 14.2698 11.377 14.2698H13.0006C13.0006 14.2698 13.4058 14.2801 13.6691 13.8723H13.6743Z" fill="#C59600"/>
<path d="M9.1771 16.8899H8.93705V15.3463L8.66602 15.5296V15.2998C8.72538 15.274 8.89833 15.1424 8.9706 15.083H9.1771V16.8925V16.8899Z" fill="white"/>
<path d="M10.7512 15.9943C10.7512 16.4666 10.7512 16.9313 10.2633 16.9313C9.99228 16.9313 9.8116 16.7454 9.81934 16.4589H10.0594C10.0594 16.5931 10.111 16.7299 10.2659 16.7299C10.4982 16.7299 10.5137 16.4744 10.5137 16.0098H10.5085C10.4517 16.1362 10.3382 16.1801 10.1988 16.1801C10.0594 16.1801 9.7832 16.1053 9.7832 15.6097C9.7832 15.2044 10.0258 15.0547 10.2659 15.0547C10.7615 15.0547 10.7538 15.509 10.7538 15.9943H10.7512ZM10.0207 15.6019C10.0207 15.7826 10.0542 15.9762 10.2633 15.9762C10.4724 15.9762 10.506 15.78 10.506 15.6019C10.506 15.4393 10.4698 15.2276 10.2633 15.2276C10.0568 15.2276 10.0207 15.4393 10.0207 15.6019Z" fill="white"/>
<path d="M11.0312 15.083H11.9682V15.2921L11.4856 16.8925H11.2145L11.7204 15.2921H11.0312V15.083Z" fill="white"/>
<path d="M12.6549 15.8365C12.8717 15.8545 13.024 15.7693 13.024 15.537C13.024 15.3718 12.9517 15.2531 12.7736 15.2531C12.5749 15.2531 12.5439 15.4028 12.5465 15.5474H12.3064C12.2884 15.2402 12.4355 15.0518 12.7736 15.0518C13.0808 15.0518 13.2641 15.2041 13.2641 15.5215C13.2641 15.8623 13.0111 15.9139 12.9079 15.9423V15.9475C13.1918 15.9862 13.2821 16.1359 13.2821 16.4095C13.2821 16.7605 13.0937 16.9309 12.7452 16.9309C12.2393 16.9309 12.278 16.4973 12.278 16.394H12.5181C12.5207 16.5721 12.5491 16.7296 12.7659 16.7296C12.9827 16.7296 13.0421 16.5953 13.0421 16.4043C13.0421 16.1127 12.9337 16.0507 12.6523 16.0507V15.839L12.6549 15.8365Z" fill="white"/>
</g>
<defs>
<clipPath id="clip0_4956_56229">
<rect width="22" height="22" fill="white"/>
</clipPath>
</defs>
</svg>
