<svg width="23" height="23" viewBox="0 0 23 23" fill="none" xmlns="http://www.w3.org/2000/svg">
<mask id="mask0_4951_55361" style="mask-type:luminance" maskUnits="userSpaceOnUse" x="0" y="0" width="23" height="23">
<path d="M0.0449219 11.5003C0.0449219 17.8267 5.17545 22.956 11.5012 22.956C17.827 22.956 22.9557 17.8267 22.9557 11.5003C22.9557 5.17385 17.8264 0.0439453 11.5012 0.0439453C5.17607 0.0439453 0.0449219 5.17323 0.0449219 11.5003Z" fill="white"/>
</mask>
<g mask="url(#mask0_4951_55361)">
<path d="M22.9557 0.0439453H0.0449219V22.956H22.9557V0.0439453Z" fill="url(#paint0_radial_4951_55361)"/>
</g>
<mask id="mask1_4951_55361" style="mask-type:luminance" maskUnits="userSpaceOnUse" x="0" y="0" width="23" height="23">
<path d="M0.0879872 11.5003C0.0879872 5.20798 5.20736 0.0879872 11.5003 0.0879872C17.7933 0.0879872 22.9108 5.20736 22.9108 11.5003C22.9108 17.7933 17.792 22.912 11.5003 22.912C5.2086 22.912 0.0879872 17.7926 0.0879872 11.5003ZM0 11.5003C0 17.841 5.15903 23 11.5009 23C17.8428 23 23 17.841 23 11.5003C23 5.15965 17.8416 0 11.5009 0C5.16027 0 0 5.15903 0 11.5003Z" fill="white"/>
</mask>
<g mask="url(#mask1_4951_55361)">
<path d="M23 0H0V23H23V0Z" fill="url(#paint1_radial_4951_55361)"/>
</g>
<mask id="mask2_4951_55361" style="mask-type:luminance" maskUnits="userSpaceOnUse" x="0" y="0" width="23" height="23">
<path d="M0.5 11.5004C0.5 17.5771 5.42729 22.5032 11.5027 22.5032C17.5782 22.5032 22.5055 17.5765 22.5055 11.5004C22.5055 5.42436 17.5782 0.49707 11.5027 0.49707C5.42729 0.49707 0.5 5.42312 0.5 11.5004Z" fill="white"/>
</mask>
<g mask="url(#mask2_4951_55361)">
<path d="M11.4999 -10.5058L-10.5059 11.5L11.4999 33.5058L33.5057 11.5L11.4999 -10.5058Z" fill="url(#paint2_linear_4951_55361)"/>
</g>
<mask id="mask3_4951_55361" style="mask-type:luminance" maskUnits="userSpaceOnUse" x="0" y="0" width="23" height="23">
<path d="M0.632812 11.5011C0.632812 17.5028 5.49938 22.3682 11.4999 22.3682C17.5003 22.3682 22.3669 17.5028 22.3669 11.5011C22.3669 5.49938 17.5016 0.632812 11.4999 0.632812C5.49814 0.632812 0.632812 5.49814 0.632812 11.5011Z" fill="white"/>
</mask>
<g mask="url(#mask3_4951_55361)">
<path d="M22.3675 0.632812H0.632812V22.3682H22.3675V0.632812Z" fill="url(#paint3_radial_4951_55361)"/>
</g>
<mask id="mask4_4951_55361" style="mask-type:luminance" maskUnits="userSpaceOnUse" x="3" y="3" width="17" height="17">
<path d="M3.91797 11.4989C3.91797 15.687 7.31353 19.0838 11.5022 19.0838C15.6909 19.0838 19.0846 15.6876 19.0846 11.4989C19.0846 7.31025 15.6897 3.91406 11.5022 3.91406C7.31477 3.91406 3.91797 7.31025 3.91797 11.4989Z" fill="white"/>
</mask>
<g mask="url(#mask4_4951_55361)">
<path d="M11.5021 -3.66907L-3.66602 11.499L11.5021 26.6671L26.6702 11.499L11.5021 -3.66907Z" fill="url(#paint4_linear_4951_55361)"/>
</g>
<mask id="mask5_4951_55361" style="mask-type:luminance" maskUnits="userSpaceOnUse" x="4" y="4" width="15" height="15">
<path d="M4.10352 11.4921C4.10352 15.5773 7.41605 18.8905 11.5019 18.8905C15.5877 18.8905 18.8978 15.5773 18.8978 11.4921C18.8978 7.40691 15.5865 4.09375 11.5019 4.09375C7.41729 4.09375 4.10352 7.40629 4.10352 11.4921Z" fill="white"/>
</mask>
<g mask="url(#mask5_4951_55361)">
<path d="M18.8978 4.09375H4.10352V18.8905H18.8978V4.09375Z" fill="url(#paint5_radial_4951_55361)"/>
</g>
<mask id="mask6_4951_55361" style="mask-type:luminance" maskUnits="userSpaceOnUse" x="6" y="8" width="11" height="5">
<path d="M14.7764 8.14258V8.50754H10.3423V8.14258H9.28525V8.50754H6.50249V9.44628H7.33961C6.75902 9.70033 6.38477 10.2537 6.38477 11.0629C6.38477 12.1479 7.40591 12.7662 8.22754 12.7662H11.2972V12.4366H12.1665V12.7662H16.556V11.8281H15.8329V9.4469H16.556V8.50816H15.8329V8.1432H14.7764V8.14258Z" fill="white"/>
</mask>
<g mask="url(#mask6_4951_55361)">
<path d="M16.5566 8.14258H6.38477V12.7656H16.5566V8.14258Z" fill="url(#paint6_radial_4951_55361)"/>
</g>
<mask id="mask7_4951_55361" style="mask-type:luminance" maskUnits="userSpaceOnUse" x="5" y="7" width="12" height="7">
<path d="M14.5336 8.25588V7.87481C14.6179 7.87481 16.0752 7.87233 16.1589 7.87172V8.25588H16.8739C16.8739 8.33891 16.8708 9.6265 16.8708 9.71015H16.1347V11.6242H16.8683C16.8683 11.7072 16.8708 13.0134 16.8708 13.097C16.7822 13.097 12.0445 13.089 11.9565 13.089V12.7525H11.5792V13.097H8.22142C7.56524 13.097 6.93384 12.8071 6.57383 12.3411C6.26402 11.9786 6.07999 11.5108 6.07999 11.0876C6.07999 10.525 6.22312 10.098 6.53046 9.74485L6.59614 9.66926C6.59614 9.66926 6.29128 9.66988 6.22436 9.6705V8.25527H9.04429V7.87419C9.12794 7.87419 10.5599 7.87667 10.6436 7.87729V8.25527H14.5342L14.5336 8.25588ZM14.4425 7.78373V8.1648H10.734V7.78683L8.95258 7.78373V8.1648H6.13327V9.7622C6.13327 9.7622 6.31421 9.76158 6.40653 9.76158C6.12584 10.1172 5.98828 10.5392 5.98828 11.0882C5.98828 11.5325 6.18037 12.022 6.50257 12.3987C6.87807 12.8851 7.53735 13.1881 8.2208 13.1881H11.6697V12.843H11.8655V13.1795L16.9619 13.1881L16.9588 11.5337H16.2252V9.80124H16.9619L16.965 8.16542H16.2506V7.78125L14.4431 7.78435L14.4425 7.78373Z" fill="white"/>
</mask>
<g mask="url(#mask7_4951_55361)">
<path d="M16.965 7.78125H5.98828V13.1881H16.965V7.78125Z" fill="url(#paint7_radial_4951_55361)"/>
</g>
<mask id="mask8_4951_55361" style="mask-type:luminance" maskUnits="userSpaceOnUse" x="8" y="9" width="7" height="4">
<path d="M8.55788 11.015V11.5888C8.55788 11.8769 8.74562 12.0523 9.04986 12.0523L10.5233 12.0541V11.8063H9.02508V11.015H8.5585H8.55788ZM8.63223 10.1841C8.63223 9.93748 8.80263 9.74973 9.01268 9.74973C9.22274 9.74973 9.39314 9.93686 9.39314 10.1841C9.39314 10.4313 9.22336 10.6185 9.01268 10.6185C8.80201 10.6185 8.63223 10.4357 8.63223 10.1841ZM8.22266 9.46594V9.7138H8.5207C8.34101 9.82409 8.22947 9.99263 8.22947 10.1835C8.22947 10.515 8.56655 10.7845 9.01268 10.7845C9.45882 10.7845 9.79589 10.515 9.79589 10.1835C9.79589 9.99263 9.68436 9.82347 9.50529 9.7138H9.80395V9.46594H8.22266ZM12.6053 9.86003C12.6053 9.57128 12.7912 9.37672 13.0204 9.37672C13.2497 9.37672 13.4362 9.57066 13.4362 9.86003C13.4362 10.1494 13.2497 10.3452 13.0204 10.3452C12.7912 10.3452 12.6053 10.1568 12.6053 9.86003ZM12.1666 9.86003C12.1666 10.2461 12.5353 10.5571 13.0204 10.5571C13.5056 10.5571 13.8749 10.2454 13.8749 9.86003C13.8749 9.47462 13.5075 9.16357 13.0204 9.16357C12.5334 9.16357 12.1666 9.47648 12.1666 9.86003ZM8.59319 9.36309H9.43403V9.11585H8.59319V9.36309ZM10.0648 9.11585V11.1365H10.4942V10.0831H10.8449V9.83524H10.4942V9.11523H10.0648V9.11585ZM13.0012 11.4481C13.0012 11.1674 13.2361 10.9989 13.4976 10.9989C13.759 10.9989 13.9939 11.1674 13.9939 11.4481C13.9939 11.7288 13.7597 11.8967 13.4976 11.8967C13.2355 11.8967 13.0012 11.7257 13.0012 11.4481ZM13.9939 9.11585V10.8694C13.8514 10.8012 13.681 10.7616 13.4976 10.7616C12.9839 10.7616 12.5749 11.0702 12.5718 11.4488C12.5749 11.8273 12.9839 12.1365 13.4976 12.1365C14.0112 12.1365 14.4196 11.8273 14.4233 11.4488H14.4239V10.3309H14.7882V10.0837H14.4239V9.72681H14.7882V9.47896H14.4239V9.11585H13.9939Z" fill="white"/>
</mask>
<g mask="url(#mask8_4951_55361)">
<path d="M14.7876 9.11523H8.22266V12.1353H14.7876V9.11523Z" fill="url(#paint8_radial_4951_55361)"/>
</g>
<mask id="mask9_4951_55361" style="mask-type:luminance" maskUnits="userSpaceOnUse" x="20" y="12" width="1" height="2">
<path d="M20.3008 13.112C20.2977 13.4075 20.4824 13.6486 20.4824 13.6486C20.4824 13.6486 20.672 13.4113 20.6745 13.1157C20.6776 12.8208 20.4941 12.5791 20.4941 12.5791C20.4941 12.5791 20.3045 12.817 20.3008 13.1126" fill="white"/>
</mask>
<g mask="url(#mask9_4951_55361)">
<path d="M20.6736 12.529L20.1699 12.5908L20.305 13.6911L20.8087 13.6292L20.6736 12.529Z" fill="url(#paint9_radial_4951_55361)"/>
</g>
<mask id="mask10_4951_55361" style="mask-type:luminance" maskUnits="userSpaceOnUse" x="20" y="13" width="2" height="2">
<path d="M20.7224 13.8102C20.3661 14.2142 20.293 14.7309 20.293 14.7309C20.293 14.7309 20.7973 14.5946 21.1543 14.1919C21.5105 13.7885 21.5632 13.3213 21.5632 13.3213C21.5632 13.3213 21.0793 13.4074 20.7224 13.8102Z" fill="white"/>
</mask>
<g mask="url(#mask10_4951_55361)">
<path d="M21.545 13.168L20.123 13.3418L20.3116 14.8837L21.7335 14.7099L21.545 13.168Z" fill="url(#paint10_radial_4951_55361)"/>
</g>
<mask id="mask11_4951_55361" style="mask-type:luminance" maskUnits="userSpaceOnUse" x="19" y="13" width="2" height="2">
<path d="M19.7383 13.923C19.8412 14.3685 20.1547 14.6753 20.1547 14.6753C20.1547 14.6753 20.283 14.3035 20.1789 13.8598C20.076 13.4143 19.7569 13.1689 19.7569 13.1689C19.7569 13.1689 19.6361 13.4788 19.7383 13.923Z" fill="white"/>
</mask>
<g mask="url(#mask11_4951_55361)">
<path d="M20.2718 13.0923L19.4531 13.1924L19.6441 14.7546L20.4627 14.6545L20.2718 13.0923Z" fill="url(#paint11_radial_4951_55361)"/>
</g>
<mask id="mask12_4951_55361" style="mask-type:luminance" maskUnits="userSpaceOnUse" x="19" y="14" width="3" height="3">
<path d="M20.2159 15.2434C19.7952 15.5786 19.6328 16.0762 19.6328 16.0762C19.6328 16.0762 20.1533 16.0285 20.574 15.6933C20.996 15.3581 21.1292 14.9082 21.1292 14.9082C21.1292 14.9082 20.6379 14.9082 20.2159 15.2434Z" fill="white"/>
</mask>
<g mask="url(#mask12_4951_55361)">
<path d="M21.1069 14.7285L21.2699 16.0595L19.6545 16.2571L19.4922 14.9256L21.1069 14.7285Z" fill="url(#paint12_radial_4951_55361)"/>
</g>
<mask id="mask13_4951_55361" style="mask-type:luminance" maskUnits="userSpaceOnUse" x="19" y="14" width="1" height="2">
<path d="M19.2244 15.1744C19.2479 15.6305 19.5044 15.988 19.5044 15.988C19.5044 15.988 19.6947 15.6441 19.6705 15.1868C19.6463 14.7314 19.3731 14.4346 19.3731 14.4346C19.3731 14.4346 19.2008 14.719 19.225 15.1744" fill="white"/>
</mask>
<g mask="url(#mask13_4951_55361)">
<path d="M19.6852 14.3756L19.0117 14.458L19.2064 16.0479L19.8798 15.9654L19.6852 14.3756Z" fill="url(#paint13_radial_4951_55361)"/>
</g>
<mask id="mask14_4951_55361" style="mask-type:luminance" maskUnits="userSpaceOnUse" x="16" y="18" width="3" height="2">
<path d="M17.5806 18.8095C17.0856 18.9235 16.7441 19.2798 16.7441 19.2798C16.7441 19.2798 17.207 19.452 17.7008 19.3393C18.1966 19.2252 18.4934 18.8975 18.4934 18.8975C18.4934 18.8975 18.2381 18.7754 17.8905 18.7754C17.7932 18.7754 17.6891 18.7847 17.5813 18.8095" fill="white"/>
</mask>
<g mask="url(#mask14_4951_55361)">
<path d="M18.4647 18.5685L16.6602 18.7891L16.7675 19.6674L18.5721 19.4467L18.4647 18.5685Z" fill="url(#paint14_radial_4951_55361)"/>
</g>
<mask id="mask15_4951_55361" style="mask-type:luminance" maskUnits="userSpaceOnUse" x="16" y="17" width="2" height="3">
<path d="M16.7212 18.297C16.5428 18.7277 16.6202 19.1688 16.6202 19.1688C16.6202 19.1688 16.9455 18.9359 17.1259 18.5065C17.3043 18.0777 17.1841 17.6836 17.1841 17.6836C17.1841 17.6836 16.9003 17.8695 16.7219 18.297" fill="white"/>
</mask>
<g mask="url(#mask15_4951_55361)">
<path d="M17.2901 17.5925L16.3613 17.7061L16.5514 19.2609L17.4801 19.1474L17.2901 17.5925Z" fill="url(#paint15_radial_4951_55361)"/>
</g>
<mask id="mask16_4951_55361" style="mask-type:luminance" maskUnits="userSpaceOnUse" x="15" y="19" width="3" height="2">
<path d="M15.4355 19.9265C15.4355 19.9265 15.8278 20.1868 16.3111 20.188C16.7956 20.1893 17.142 19.9482 17.142 19.9482C17.142 19.9482 16.7969 19.6725 16.3136 19.6719H16.3055C15.8247 19.6719 15.4355 19.9272 15.4355 19.9272" fill="white"/>
</mask>
<g mask="url(#mask16_4951_55361)">
<path d="M17.1187 19.4662L15.375 19.6787L15.4623 20.3947L17.206 20.1821L17.1187 19.4662Z" fill="url(#paint16_radial_4951_55361)"/>
</g>
<mask id="mask17_4951_55361" style="mask-type:luminance" maskUnits="userSpaceOnUse" x="15" y="18" width="2" height="2">
<path d="M15.6406 18.945C15.3699 19.323 15.3457 19.7697 15.3457 19.7697C15.3457 19.7697 15.7169 19.6167 15.9864 19.2381C16.2584 18.8614 16.2312 18.4512 16.2312 18.4512C16.2312 18.4512 15.912 18.567 15.6413 18.945" fill="white"/>
</mask>
<g mask="url(#mask17_4951_55361)">
<path d="M16.2421 18.3411L15.1836 18.4707L15.3561 19.8798L16.4146 19.7502L16.2421 18.3411Z" fill="url(#paint17_radial_4951_55361)"/>
</g>
<mask id="mask18_4951_55361" style="mask-type:luminance" maskUnits="userSpaceOnUse" x="13" y="19" width="3" height="3">
<path d="M14.1874 20.6186C14.0356 20.5449 13.973 20.3609 14.0474 20.2103C14.1224 20.0585 14.3058 19.9959 14.4576 20.0709C14.6094 20.1459 14.672 20.3286 14.5976 20.4811C14.5443 20.5889 14.4359 20.6509 14.3231 20.6509C14.2773 20.6509 14.2308 20.6403 14.1874 20.6186ZM14.3033 19.6997C14.2426 19.8205 14.2159 19.9451 14.2215 20.0486C14.1614 19.9643 14.066 19.88 13.9439 19.8205C13.6899 19.696 13.3292 19.67 13.2561 19.8193C13.1811 19.9699 13.4216 20.2394 13.6756 20.364C13.7977 20.4241 13.921 20.4507 14.0257 20.4458C13.9402 20.5046 13.8572 20.6013 13.7983 20.7227C13.6731 20.9774 13.6459 21.3368 13.7964 21.4093C13.9458 21.4849 14.2153 21.2438 14.3398 20.991C14.3993 20.869 14.4266 20.745 14.4216 20.6409C14.4817 20.7264 14.5778 20.8089 14.6998 20.8683C14.952 20.9935 15.3127 21.0195 15.387 20.8702C15.4607 20.7209 15.2216 20.4507 14.9669 20.3255C14.8455 20.2654 14.7222 20.2407 14.6174 20.245C14.7036 20.1843 14.7854 20.0888 14.8448 19.9674C14.9694 19.714 14.9966 19.3533 14.8467 19.2796C14.8281 19.2703 14.807 19.2666 14.7854 19.2666C14.6323 19.2666 14.4123 19.4779 14.3027 19.7003" fill="white"/>
</mask>
<g mask="url(#mask18_4951_55361)">
<path d="M15.4272 18.9935L12.9141 19.3008L13.2149 21.7616L15.728 21.4544L15.4272 18.9935Z" fill="url(#paint18_radial_4951_55361)"/>
</g>
<mask id="mask19_4951_55361" style="mask-type:luminance" maskUnits="userSpaceOnUse" x="17" y="15" width="4" height="4">
<path d="M18.5435 17.1005C18.5187 16.9295 18.6376 16.7714 18.808 16.7454C18.9791 16.7213 19.1377 16.8408 19.1612 17.0119C19.1866 17.1829 19.0683 17.3409 18.8966 17.3663C18.8818 17.3682 18.8669 17.3694 18.8527 17.3694C18.6996 17.3694 18.5664 17.2566 18.5435 17.1011M18.681 15.8544C18.5119 15.8786 18.4226 16.2361 18.4641 16.523C18.484 16.6599 18.5329 16.7789 18.598 16.8638C18.4976 16.8254 18.3693 16.8123 18.2324 16.8328C17.9461 16.8731 17.6264 17.059 17.6518 17.2275C17.6754 17.3967 18.0335 17.4859 18.3198 17.4437C18.4573 17.4252 18.5763 17.3756 18.6618 17.3105C18.624 17.4109 18.6104 17.5398 18.6302 17.6773C18.6705 17.963 18.8558 18.2809 19.0255 18.2567C19.1941 18.2325 19.2827 17.875 19.2418 17.5887C19.222 17.4518 19.173 17.3322 19.1086 17.2467C19.2083 17.2851 19.3372 17.2988 19.4729 17.2795C19.7598 17.2386 20.0789 17.0521 20.0541 16.883C20.0299 16.7151 19.6718 16.6265 19.3862 16.6667C19.2486 16.6859 19.1296 16.7355 19.0447 16.8C19.0819 16.7008 19.0962 16.5713 19.077 16.435C19.0361 16.1586 18.8638 15.8525 18.6996 15.8525C18.6934 15.8525 18.6872 15.8525 18.681 15.8538" fill="white"/>
</mask>
<g mask="url(#mask19_4951_55361)">
<path d="M20.0443 15.5576L20.3734 18.2449L17.6643 18.5771L17.3359 15.8891L20.0443 15.5576Z" fill="url(#paint19_radial_4951_55361)"/>
</g>
<mask id="mask20_4951_55361" style="mask-type:luminance" maskUnits="userSpaceOnUse" x="2" y="12" width="1" height="2">
<path d="M2.39651 13.1144C2.40085 13.4099 2.58921 13.6472 2.58921 13.6472C2.58921 13.6472 2.77386 13.4062 2.77077 13.1106C2.76705 12.8157 2.57744 12.5771 2.57744 12.5771C2.57744 12.5771 2.39403 12.8194 2.39651 13.1137" fill="white"/>
</mask>
<g mask="url(#mask20_4951_55361)">
<path d="M2.39819 12.5325L2.26367 13.6328L2.7674 13.6944L2.90192 12.5941L2.39819 12.5325Z" fill="url(#paint20_radial_4951_55361)"/>
</g>
<mask id="mask21_4951_55361" style="mask-type:luminance" maskUnits="userSpaceOnUse" x="1" y="13" width="2" height="2">
<path d="M1.91872 14.1919C2.27501 14.5946 2.78 14.7309 2.78 14.7309C2.78 14.7309 2.70627 14.2142 2.34936 13.8102C1.99308 13.4074 1.50977 13.3213 1.50977 13.3213C1.50977 13.3213 1.56181 13.7885 1.91934 14.1919" fill="white"/>
</mask>
<g mask="url(#mask21_4951_55361)">
<path d="M1.52835 13.169L1.33984 14.7109L2.76122 14.8847L2.94973 13.3428L1.52835 13.169Z" fill="url(#paint21_radial_4951_55361)"/>
</g>
<mask id="mask22_4951_55361" style="mask-type:luminance" maskUnits="userSpaceOnUse" x="2" y="13" width="2" height="2">
<path d="M2.89411 13.8598C2.79063 14.3035 2.91765 14.6753 2.91765 14.6753C2.91765 14.6753 3.2318 14.3685 3.33466 13.923C3.4369 13.4788 3.31669 13.1689 3.31669 13.1689C3.31669 13.1689 2.99634 13.4143 2.89411 13.8598Z" fill="white"/>
</mask>
<g mask="url(#mask22_4951_55361)">
<path d="M2.79868 13.0902L2.60742 14.6523L3.42665 14.7526L3.61791 13.1904L2.79868 13.0902Z" fill="url(#paint22_radial_4951_55361)"/>
</g>
<mask id="mask23_4951_55361" style="mask-type:luminance" maskUnits="userSpaceOnUse" x="1" y="14" width="3" height="3">
<path d="M1.94336 14.9082C1.94336 14.9082 2.07658 15.3581 2.49731 15.6933C2.91927 16.0285 3.43976 16.0762 3.43976 16.0762C3.43976 16.0762 3.27742 15.5793 2.85669 15.2434C2.43534 14.9088 1.9446 14.9082 1.94336 14.9082Z" fill="white"/>
</mask>
<g mask="url(#mask23_4951_55361)">
<path d="M1.9657 14.7285L1.80273 16.0595L3.41811 16.2571L3.58045 14.9262L1.9657 14.7285Z" fill="url(#paint23_radial_4951_55361)"/>
</g>
<mask id="mask24_4951_55361" style="mask-type:luminance" maskUnits="userSpaceOnUse" x="3" y="14" width="1" height="2">
<path d="M3.40046 15.1868C3.37691 15.6441 3.56714 15.988 3.56714 15.988C3.56714 15.988 3.82304 15.6305 3.84721 15.1744C3.87075 14.719 3.69912 14.4346 3.69912 14.4346C3.69912 14.4346 3.42586 14.7314 3.40046 15.1868Z" fill="white"/>
</mask>
<g mask="url(#mask24_4951_55361)">
<path d="M3.38403 14.3736L3.18945 15.9629L3.8623 16.0453L4.05688 14.456L3.38403 14.3736Z" fill="url(#paint24_radial_4951_55361)"/>
</g>
<mask id="mask25_4951_55361" style="mask-type:luminance" maskUnits="userSpaceOnUse" x="4" y="18" width="3" height="2">
<path d="M4.57617 18.8994C4.57617 18.8994 4.87235 19.2272 5.36806 19.3412C5.86252 19.454 6.32476 19.2817 6.32476 19.2817C6.32476 19.2817 5.98335 18.9254 5.48827 18.8114C5.38045 18.7866 5.27573 18.7773 5.17845 18.7773C4.83084 18.7773 4.57617 18.8994 4.57617 18.8994Z" fill="white"/>
</mask>
<g mask="url(#mask25_4951_55361)">
<path d="M4.60329 18.5654L4.49609 19.4434L6.30045 19.6647L6.40765 18.786L4.60329 18.5654Z" fill="url(#paint25_radial_4951_55361)"/>
</g>
<mask id="mask26_4951_55361" style="mask-type:luminance" maskUnits="userSpaceOnUse" x="5" y="17" width="2" height="3">
<path d="M5.94903 18.5065C6.12872 18.9359 6.45403 19.1688 6.45403 19.1688C6.45403 19.1688 6.53148 18.7283 6.35303 18.297C6.17458 17.8695 5.89079 17.6836 5.89079 17.6836C5.89079 17.6836 5.7712 18.0777 5.94965 18.5065" fill="white"/>
</mask>
<g mask="url(#mask26_4951_55361)">
<path d="M5.7802 17.5917L5.58984 19.1465L6.51793 19.2601L6.70829 17.7053L5.7802 17.5917Z" fill="url(#paint26_radial_4951_55361)"/>
</g>
<mask id="mask27_4951_55361" style="mask-type:luminance" maskUnits="userSpaceOnUse" x="5" y="19" width="3" height="2">
<path d="M6.75813 19.6725C6.27358 19.6725 5.92969 19.9488 5.92969 19.9488C5.92969 19.9488 6.27544 20.1899 6.75999 20.1886C7.2433 20.1874 7.63615 19.9272 7.63615 19.9272C7.63615 19.9272 7.24702 19.6719 6.76619 19.6719H6.75875" fill="white"/>
</mask>
<g mask="url(#mask27_4951_55361)">
<path d="M5.95301 19.4667L5.86523 20.1826L7.60883 20.3964L7.6966 19.6805L5.95301 19.4667Z" fill="url(#paint27_radial_4951_55361)"/>
</g>
<mask id="mask28_4951_55361" style="mask-type:luminance" maskUnits="userSpaceOnUse" x="6" y="18" width="2" height="2">
<path d="M7.08478 19.2381C7.35556 19.6167 7.72548 19.7697 7.72548 19.7697C7.72548 19.7697 7.70131 19.323 7.43054 18.945C7.15914 18.5677 6.84065 18.4512 6.84065 18.4512C6.84065 18.4512 6.81277 18.8614 7.08478 19.2381Z" fill="white"/>
</mask>
<g mask="url(#mask28_4951_55361)">
<path d="M6.82681 18.341L6.6543 19.75L7.71216 19.8795L7.88467 18.4705L6.82681 18.341Z" fill="url(#paint28_radial_4951_55361)"/>
</g>
<mask id="mask29_4951_55361" style="mask-type:luminance" maskUnits="userSpaceOnUse" x="7" y="19" width="3" height="3">
<path d="M8.47198 20.4811C8.39824 20.3293 8.4602 20.1459 8.61139 20.0709C8.76444 19.9959 8.94661 20.0585 9.02221 20.2103C9.09656 20.3609 9.0346 20.5455 8.88279 20.6186C8.8388 20.6403 8.79232 20.6509 8.74647 20.6509C8.6337 20.6509 8.52588 20.5889 8.47198 20.4811ZM8.22227 19.2802C8.07232 19.354 8.09834 19.7146 8.2235 19.968C8.28361 20.0895 8.3654 20.1849 8.45091 20.2456C8.34619 20.2413 8.22227 20.2661 8.10144 20.3262C7.84739 20.4513 7.60821 20.7215 7.68133 20.8708C7.75569 21.0202 8.11507 20.9941 8.3685 20.869C8.49118 20.8089 8.58661 20.7271 8.64671 20.6416C8.64176 20.7457 8.66778 20.8696 8.7285 20.9916C8.85367 21.2445 9.12259 21.4855 9.27316 21.4099C9.42249 21.3374 9.39584 20.9774 9.27068 20.7233C9.21119 20.6025 9.12878 20.5059 9.04327 20.4464C9.14799 20.4507 9.2713 20.4241 9.39336 20.3646C9.64679 20.24 9.88721 19.9705 9.81347 19.8199C9.73974 19.6706 9.37973 19.6966 9.12568 19.8212C9.003 19.8807 8.90758 19.9649 8.84809 20.0492C8.85305 19.9451 8.82702 19.8212 8.76692 19.7003C8.65663 19.4779 8.4379 19.2666 8.28423 19.2666C8.26254 19.2666 8.24148 19.2709 8.22289 19.2796" fill="white"/>
</mask>
<g mask="url(#mask29_4951_55361)">
<path d="M7.64307 18.9914L7.3418 21.4521L9.85484 21.7598L10.1561 19.2991L7.64307 18.9914Z" fill="url(#paint29_radial_4951_55361)"/>
</g>
<mask id="mask30_4951_55361" style="mask-type:luminance" maskUnits="userSpaceOnUse" x="3" y="15" width="3" height="4">
<path d="M4.17383 17.3651C4.00281 17.3396 3.88446 17.1816 3.90987 17.0106C3.93341 16.8396 4.09204 16.7206 4.26368 16.7442C4.43407 16.7702 4.55242 16.9282 4.52764 17.0992C4.50533 17.2554 4.37149 17.3675 4.21844 17.3675C4.20357 17.3675 4.18932 17.3669 4.17383 17.3644M3.99476 16.4344C3.97431 16.5707 3.98918 16.7002 4.02636 16.7993C3.94209 16.7349 3.82312 16.6853 3.68494 16.6661C3.39929 16.6252 3.04177 16.7138 3.01698 16.8824C2.9922 17.0509 3.31131 17.2374 3.59757 17.2789C3.73327 17.2981 3.86278 17.2851 3.96254 17.2461C3.89748 17.3316 3.84914 17.4518 3.8287 17.5881C3.78842 17.8744 3.87703 18.2319 4.04681 18.2561C4.21534 18.2802 4.40123 17.9624 4.44213 17.6767C4.46134 17.5398 4.44833 17.4103 4.40991 17.3099C4.4948 17.375 4.61501 17.4239 4.75194 17.4431C5.03883 17.4853 5.39636 17.396 5.42114 17.2269C5.44469 17.0583 5.1262 16.8724 4.84055 16.8322C4.70361 16.8117 4.57535 16.8247 4.47435 16.8632C4.54003 16.7783 4.58836 16.6587 4.60819 16.5224C4.6497 16.2355 4.56048 15.8779 4.39132 15.8538C4.38512 15.8525 4.37893 15.8525 4.37335 15.8525C4.20977 15.8525 4.03565 16.1586 3.996 16.435" fill="white"/>
</mask>
<g mask="url(#mask30_4951_55361)">
<path d="M3.02957 15.5576L2.70117 18.2449L5.40895 18.5771L5.73797 15.8891L3.02957 15.5576Z" fill="url(#paint30_radial_4951_55361)"/>
</g>
<mask id="mask31_4951_55361" style="mask-type:luminance" maskUnits="userSpaceOnUse" x="11" y="20" width="1" height="2">
<path d="M11.1172 20.8455C11.1172 21.0586 11.2894 21.2296 11.502 21.2296C11.7145 21.2296 11.8855 21.058 11.8855 20.8455C11.8855 20.6329 11.7139 20.4619 11.502 20.4619C11.2901 20.4619 11.1172 20.6336 11.1172 20.8455Z" fill="white"/>
</mask>
<g mask="url(#mask31_4951_55361)">
<path d="M11.8855 20.4619H11.1172V21.2303H11.8855V20.4619Z" fill="url(#paint31_radial_4951_55361)"/>
</g>
<mask id="mask32_4951_55361" style="mask-type:luminance" maskUnits="userSpaceOnUse" x="1" y="9" width="3" height="2">
<path d="M1.46994 9.958L2.24385 10.0584L2.19366 10.4407L1.42594 10.3403L1.39062 10.7065L3.29288 10.9562L3.32201 10.59L2.53384 10.4859L2.58403 10.1036L3.3722 10.2077L3.44036 9.84089L1.5381 9.5918L1.46994 9.958Z" fill="white"/>
</mask>
<g mask="url(#mask32_4951_55361)">
<path d="M3.44036 9.5918H1.39062V10.9556H3.44036V9.5918Z" fill="url(#paint32_radial_4951_55361)"/>
</g>
<mask id="mask33_4951_55361" style="mask-type:luminance" maskUnits="userSpaceOnUse" x="1" y="8" width="3" height="2">
<path d="M2.63755 8.55878C2.53903 8.50549 2.36181 8.4144 2.2478 8.35554L2.2509 8.34748C2.37668 8.37227 2.56381 8.40883 2.67906 8.42742L3.07563 8.49558L2.98888 8.75148L2.63817 8.55878H2.63755ZM1.83203 8.4237L3.53229 9.44856L3.63391 9.09785L3.24974 8.87851L3.3588 8.55506L3.79563 8.61702L3.92452 8.28056L1.97145 8.0166L1.83203 8.42308V8.4237Z" fill="white"/>
</mask>
<g mask="url(#mask33_4951_55361)">
<path d="M3.92452 8.0166H1.83203V9.44856H3.92452V8.0166Z" fill="url(#paint33_radial_4951_55361)"/>
</g>
<mask id="mask34_4951_55361" style="mask-type:luminance" maskUnits="userSpaceOnUse" x="2" y="5" width="3" height="3">
<path d="M2.82777 6.23401L3.98772 6.85301L3.98462 6.85859L2.59169 6.638L2.43555 6.93481L4.10545 7.89089L4.2523 7.59905L3.11838 6.97632L3.13449 6.98437L4.48342 7.19567L4.66807 6.9094L3.00065 5.95703L2.82777 6.23401Z" fill="white"/>
</mask>
<g mask="url(#mask34_4951_55361)">
<path d="M4.66745 5.95703H2.43555V7.89089H4.66745V5.95703Z" fill="url(#paint34_radial_4951_55361)"/>
</g>
<mask id="mask35_4951_55361" style="mask-type:luminance" maskUnits="userSpaceOnUse" x="3" y="4" width="3" height="3">
<path d="M3.93151 4.74332L4.20476 5.12377C4.28593 5.23716 4.37144 5.35056 4.46129 5.45713L4.45819 5.46085C4.33241 5.39145 4.20166 5.32763 4.08641 5.27496L3.64586 5.07544L3.40234 5.38092L4.56601 5.82147L5.12429 6.29673L5.36471 6.01542L4.79465 5.53149L4.18989 4.46387L3.93213 4.74208L3.93151 4.74332Z" fill="white"/>
</mask>
<g mask="url(#mask35_4951_55361)">
<path d="M5.36471 4.46484H3.40234V6.29709H5.36471V4.46484Z" fill="url(#paint35_radial_4951_55361)"/>
</g>
<mask id="mask36_4951_55361" style="mask-type:luminance" maskUnits="userSpaceOnUse" x="4" y="3" width="3" height="3">
<path d="M5.4206 4.3905C5.36483 4.29446 5.25888 4.1253 5.19196 4.01562L5.19877 4.00943C5.29357 4.09618 5.43547 4.2232 5.52408 4.29879L5.8277 4.56214L5.62136 4.73625L5.4206 4.38926V4.3905ZM4.80531 3.87745L5.73723 5.6248L6.00181 5.37571L5.77936 4.98039L6.03961 4.7598L6.39094 5.04792L6.68154 4.8261L5.14238 3.5918L4.80469 3.87683L4.80531 3.87745Z" fill="white"/>
</mask>
<g mask="url(#mask36_4951_55361)">
<path d="M6.6835 3.59277H4.80664V5.62516H6.6835V3.59277Z" fill="url(#paint36_radial_4951_55361)"/>
</g>
<mask id="mask37_4951_55361" style="mask-type:luminance" maskUnits="userSpaceOnUse" x="6" y="2" width="3" height="3">
<path d="M6.79864 2.5088L7.00436 2.88182C7.17352 3.18729 7.35569 3.46365 7.46289 3.63281L7.45793 3.63528C7.3309 3.51632 7.13201 3.34964 7.0118 3.24802L6.38969 2.73434L6.10156 2.90908L7.03162 4.58765L7.30922 4.41788L7.0973 4.03556C6.91142 3.70035 6.75713 3.45064 6.65737 3.28705L6.66171 3.28396C6.78191 3.41408 6.97462 3.58138 7.1066 3.69167L7.72003 4.18923L8.02241 4.04176L7.08925 2.36133L6.79988 2.5088H6.79864Z" fill="white"/>
</mask>
<g mask="url(#mask37_4951_55361)">
<path d="M8.02046 2.36133H6.09961V4.58827H8.02046V2.36133Z" fill="url(#paint37_radial_4951_55361)"/>
</g>
<mask id="mask38_4951_55361" style="mask-type:luminance" maskUnits="userSpaceOnUse" x="8" y="1" width="2" height="3">
<path d="M8.60724 1.76017C8.22369 1.88348 7.93619 2.27756 8.13943 2.93809C8.23361 3.251 8.40339 3.49265 8.60663 3.59303C8.76587 3.67482 8.94061 3.68412 9.14756 3.61782C9.27892 3.57568 9.43507 3.49017 9.50199 3.43317L9.19279 2.46717L8.70701 2.62331L8.79933 2.91082L8.96043 2.85939L9.10109 3.29685C9.0887 3.30614 9.06577 3.31668 9.03355 3.32659C8.86997 3.37864 8.65062 3.27826 8.5112 2.84328C8.36001 2.37051 8.49819 2.1462 8.73613 2.06937C8.82536 2.04086 8.89723 2.03529 8.9561 2.04334L8.92078 1.7199C8.90467 1.71804 8.88608 1.7168 8.86439 1.7168C8.79933 1.7168 8.71134 1.72857 8.60787 1.76079" fill="white"/>
</mask>
<g mask="url(#mask38_4951_55361)">
<path d="M9.5033 1.7168H7.9375V3.68474H9.5033V1.7168Z" fill="url(#paint38_radial_4951_55361)"/>
</g>
<mask id="mask39_4951_55361" style="mask-type:luminance" maskUnits="userSpaceOnUse" x="10" y="1" width="2" height="3">
<path d="M11.3774 2.59127C11.388 2.87878 11.3136 2.95685 11.207 2.96119C11.111 2.96429 11.0236 2.8825 11.0137 2.60428L10.9728 1.36565L10.6035 1.39353L10.6432 2.55471C10.6593 3.03059 10.8235 3.29889 11.2207 3.28464C11.5862 3.27162 11.761 3.00085 11.7443 2.51444L11.7046 1.35697L11.3334 1.35449L11.3768 2.59127H11.3774Z" fill="white"/>
</mask>
<g mask="url(#mask39_4951_55361)">
<path d="M11.761 1.35449H10.6035V3.29889H11.761V1.35449Z" fill="url(#paint39_radial_4951_55361)"/>
</g>
<mask id="mask40_4951_55361" style="mask-type:luminance" maskUnits="userSpaceOnUse" x="12" y="1" width="2" height="3">
<path d="M12.3105 3.3065L12.634 3.3443L12.8298 2.05547L12.8348 2.05609L13.0944 3.42485L13.4222 3.49301L13.7444 1.6019L13.424 1.53499L13.2431 2.82877L13.2381 2.82815L12.963 1.45815L12.634 1.41602L12.3105 3.3065Z" fill="white"/>
</mask>
<g mask="url(#mask40_4951_55361)">
<path d="M13.7444 1.41602H12.3105V3.49301H13.7444V1.41602Z" fill="url(#paint40_radial_4951_55361)"/>
</g>
<mask id="mask41_4951_55361" style="mask-type:luminance" maskUnits="userSpaceOnUse" x="13" y="1" width="2" height="3">
<path d="M13.9531 3.64018L14.3026 3.75915L14.9191 1.9455L14.569 1.82715L13.9531 3.64018Z" fill="white"/>
</mask>
<g mask="url(#mask41_4951_55361)">
<path d="M14.9191 1.82715H13.9531V3.75977H14.9191V1.82715Z" fill="url(#paint41_radial_4951_55361)"/>
</g>
<mask id="mask42_4951_55361" style="mask-type:luminance" maskUnits="userSpaceOnUse" x="15" y="2" width="2" height="3">
<path d="M15.0586 4.07534L15.4229 4.26247L16.6789 2.77288L16.3295 2.57026L15.4477 3.79775L15.4434 3.79527L15.9168 2.35835L15.545 2.19043L15.0586 4.07534Z" fill="white"/>
</mask>
<g mask="url(#mask42_4951_55361)">
<path d="M16.6795 2.19043H15.0586V4.26247H16.6795V2.19043Z" fill="url(#paint42_radial_4951_55361)"/>
</g>
<mask id="mask43_4951_55361" style="mask-type:luminance" maskUnits="userSpaceOnUse" x="16" y="3" width="2" height="3">
<path d="M16.127 4.68993L16.8129 5.2067L17.0105 4.9415L16.6189 4.64655L16.9275 4.23698L17.2745 4.49846L17.4592 4.25309L17.1128 3.9916L17.3755 3.64337L17.7398 3.91787L17.94 3.65515L17.2807 3.1582L16.127 4.68993Z" fill="white"/>
</mask>
<g mask="url(#mask43_4951_55361)">
<path d="M17.94 3.1582H16.127V5.2067H17.94V3.1582Z" fill="url(#paint43_radial_4951_55361)"/>
</g>
<mask id="mask44_4951_55361" style="mask-type:luminance" maskUnits="userSpaceOnUse" x="17" y="4" width="3" height="3">
<path d="M18.2927 5.19382L18.248 5.1461L18.6632 4.75945C18.6824 4.76813 18.7097 4.79353 18.7307 4.81646C18.8398 4.94225 18.7995 5.06803 18.6818 5.1777C18.6161 5.23843 18.5399 5.27251 18.4662 5.27251C18.4036 5.27251 18.3429 5.24772 18.2927 5.19319M17.2207 5.59595L17.4847 5.8562L18.0399 5.34005L18.0764 5.3797C18.1601 5.47079 18.1514 5.5594 18.0008 5.7459C17.867 5.90887 17.7554 6.06997 17.7319 6.12264L17.9853 6.43121C18.0138 6.35872 18.1601 6.13627 18.2896 5.96587C18.4135 5.80043 18.4581 5.67031 18.4067 5.54081L18.4116 5.53771C18.6093 5.61764 18.8107 5.56559 18.9594 5.42741C19.0796 5.3165 19.1496 5.20497 19.1465 5.05006C19.1453 4.88214 19.0505 4.72476 18.9123 4.57605C18.8162 4.47319 18.7109 4.37219 18.6266 4.29102L17.2207 5.59595Z" fill="white"/>
</mask>
<g mask="url(#mask44_4951_55361)">
<path d="M19.149 4.29102H17.2207V6.43121H19.149V4.29102Z" fill="url(#paint44_radial_4951_55361)"/>
</g>
<mask id="mask45_4951_55361" style="mask-type:luminance" maskUnits="userSpaceOnUse" x="18" y="5" width="3" height="3">
<path d="M19.3307 5.96447C19.1864 6.05803 19.0711 6.24888 19.0792 6.5525C19.0786 6.74334 19.0674 6.85116 18.9515 6.92613C18.8474 6.99367 18.7254 6.97075 18.6312 6.82389C18.5729 6.73343 18.5289 6.60764 18.524 6.52152L18.2266 6.64854C18.229 6.72042 18.2774 6.86789 18.3592 6.99491C18.5605 7.30783 18.8908 7.40015 19.1826 7.21178C19.3506 7.10397 19.4615 6.9218 19.4534 6.62871C19.446 6.38892 19.4658 6.30898 19.5606 6.24826C19.6461 6.19311 19.7682 6.20551 19.8525 6.33811C19.9107 6.42857 19.9293 6.51408 19.9299 6.57666L20.2292 6.4546C20.2273 6.38892 20.1914 6.27057 20.1245 6.16647C19.9913 5.95951 19.8153 5.86719 19.6406 5.86719C19.534 5.86719 19.4268 5.90189 19.3301 5.96385" fill="white"/>
</mask>
<g mask="url(#mask45_4951_55361)">
<path d="M20.2279 5.86719H18.2246V7.39953H20.2279V5.86719Z" fill="url(#paint45_radial_4951_55361)"/>
</g>
<mask id="mask46_4951_55361" style="mask-type:luminance" maskUnits="userSpaceOnUse" x="18" y="7" width="3" height="2">
<path d="M18.9121 7.91392L19.0676 8.24914L20.797 7.443L20.6421 7.1084L18.9121 7.91392Z" fill="white"/>
</mask>
<g mask="url(#mask46_4951_55361)">
<path d="M20.797 7.1084H18.9121V8.24914H20.797V7.1084Z" fill="url(#paint46_radial_4951_55361)"/>
</g>
<mask id="mask47_4951_55361" style="mask-type:luminance" maskUnits="userSpaceOnUse" x="19" y="8" width="3" height="2">
<path d="M20.7351 8.20132L20.8423 8.51919L19.3359 8.98205L19.4438 9.33524L20.9501 8.87176L21.0381 9.19831L21.3646 9.09793L21.061 8.10156L20.7351 8.20132Z" fill="white"/>
</mask>
<g mask="url(#mask47_4951_55361)">
<path d="M21.3652 8.10156H19.3359V9.33524H21.3652V8.10156Z" fill="url(#paint47_radial_4951_55361)"/>
</g>
<mask id="mask48_4951_55361" style="mask-type:luminance" maskUnits="userSpaceOnUse" x="19" y="9" width="3" height="2">
<path d="M20.3619 10.17L19.6406 10.2592L19.689 10.6266L20.422 10.5343L21.6228 10.815L21.5925 10.4377L20.7014 10.341L20.7008 10.3354L21.5392 10.0039L21.4747 9.6123L20.3619 10.17Z" fill="white"/>
</mask>
<g mask="url(#mask48_4951_55361)">
<path d="M21.6228 9.6123H19.6406V10.815H21.6228V9.6123Z" fill="url(#paint48_radial_4951_55361)"/>
</g>
<mask id="mask49_4951_55361" style="mask-type:luminance" maskUnits="userSpaceOnUse" x="9" y="14" width="3" height="3">
<path d="M10.3288 15.5068C10.2891 15.4981 10.2538 15.4838 10.2228 15.464C10.1918 15.4436 10.1671 15.4175 10.1491 15.3841C10.1311 15.35 10.1218 15.3091 10.1218 15.2595C10.1218 15.21 10.1311 15.1691 10.1491 15.1356C10.1671 15.1021 10.1925 15.0755 10.2228 15.0563C10.2538 15.0365 10.2891 15.0216 10.3288 15.0135C10.3691 15.0055 10.4087 14.9999 10.4502 14.9999C10.4917 14.9999 10.5308 15.0049 10.5717 15.0135C10.6113 15.0216 10.6467 15.0365 10.6776 15.0563C10.7092 15.0755 10.7334 15.1021 10.7514 15.1356C10.7687 15.1691 10.7774 15.21 10.7774 15.2595C10.7774 15.3091 10.7687 15.3506 10.7514 15.3841C10.7328 15.4169 10.7086 15.4436 10.6776 15.464C10.6467 15.4838 10.6113 15.4981 10.5717 15.5068C10.5314 15.5154 10.4917 15.5198 10.4502 15.5198C10.4087 15.5198 10.3684 15.5154 10.3288 15.5068ZM10.2451 14.7843C10.1689 14.8053 10.1001 14.8382 10.0376 14.8828C9.9756 14.928 9.92417 14.9844 9.88699 15.0538C9.84733 15.122 9.82812 15.2062 9.82812 15.3029C9.82812 15.3841 9.84547 15.4528 9.87831 15.5099C9.91177 15.5669 9.95453 15.614 10.0072 15.6499C10.0592 15.6871 10.1194 15.7131 10.1844 15.7304C10.2501 15.7472 10.3133 15.7558 10.3759 15.7558C10.4552 15.7558 10.5302 15.7416 10.6033 15.7131C10.6752 15.6846 10.7477 15.6499 10.8202 15.6096C10.8028 15.9108 10.6597 16.0619 10.3914 16.0619C10.3641 16.0619 10.3325 16.0595 10.2984 16.0545C10.2643 16.0508 10.2296 16.0415 10.1962 16.0297C10.1627 16.0186 10.1317 16.0037 10.102 15.9851C10.0729 15.9671 10.0493 15.9461 10.032 15.9213C10.0252 15.9114 10.0208 15.8996 10.0184 15.8866C10.0153 15.873 10.014 15.8618 10.014 15.8525L9.98303 15.8352L9.82875 16.1499L9.84919 16.1704C9.86282 16.1586 9.87955 16.1524 9.89752 16.1524C9.91115 16.1524 9.92974 16.1605 9.95267 16.1741C9.97436 16.1883 10.0035 16.2045 10.04 16.2218C10.0754 16.241 10.1212 16.2553 10.1757 16.2683C10.229 16.2807 10.2953 16.2869 10.3728 16.2869C10.4843 16.2869 10.5859 16.2677 10.6758 16.2311C10.7662 16.1933 10.8437 16.1394 10.9094 16.0669C10.9744 15.9956 11.0246 15.9095 11.0593 15.8098C11.0946 15.71 11.1126 15.5978 11.1126 15.4733C11.1126 15.3673 11.0965 15.2713 11.0655 15.1827C11.0358 15.0953 10.9912 15.0185 10.9348 14.9553C10.8778 14.8915 10.8102 14.8413 10.7315 14.8066C10.6529 14.7706 10.5661 14.7539 10.4719 14.7539C10.3963 14.7539 10.3207 14.7632 10.2439 14.7849" fill="white"/>
</mask>
<g mask="url(#mask49_4951_55361)">
<path d="M11.1139 14.7529H9.82812V16.2859H11.1139V14.7529Z" fill="url(#paint49_radial_4951_55361)"/>
</g>
<mask id="mask50_4951_55361" style="mask-type:luminance" maskUnits="userSpaceOnUse" x="12" y="14" width="2" height="3">
<path d="M13.1263 15.5068C13.086 15.4981 13.0507 15.4838 13.0191 15.464C12.9893 15.4436 12.9639 15.4175 12.9453 15.3841C12.928 15.35 12.9187 15.3091 12.9187 15.2595C12.9187 15.21 12.928 15.1691 12.9453 15.1356C12.9633 15.1021 12.9893 15.0755 13.0191 15.0563C13.0507 15.0365 13.086 15.0216 13.1263 15.0135C13.1659 15.0055 13.2056 14.9999 13.2477 14.9999C13.2899 14.9999 13.3283 15.0049 13.3686 15.0135C13.4082 15.0216 13.4435 15.0365 13.4751 15.0563C13.5061 15.0755 13.5303 15.1021 13.5489 15.1356C13.5662 15.1691 13.5755 15.21 13.5755 15.2595C13.5755 15.3091 13.5662 15.3506 13.5489 15.3841C13.5303 15.4169 13.5061 15.4436 13.4751 15.464C13.4435 15.4838 13.4082 15.4981 13.3686 15.5068C13.3283 15.5154 13.2892 15.5198 13.2477 15.5198C13.2062 15.5198 13.1659 15.5154 13.1263 15.5068ZM13.0426 14.7843C12.9658 14.8053 12.897 14.8382 12.8344 14.8828C12.7725 14.928 12.7217 14.9844 12.6839 15.0538C12.6442 15.122 12.625 15.2062 12.625 15.3029C12.625 15.3841 12.6417 15.4528 12.6752 15.5099C12.7086 15.5669 12.7514 15.614 12.8041 15.6499C12.8561 15.6871 12.9162 15.7131 12.9813 15.7304C13.0476 15.7472 13.1108 15.7558 13.1734 15.7558C13.2521 15.7558 13.3277 15.7416 13.4008 15.7131C13.4727 15.6846 13.5458 15.6499 13.6176 15.6096C13.6003 15.9108 13.4578 16.0619 13.1895 16.0619C13.1622 16.0619 13.1306 16.0595 13.0965 16.0545C13.0625 16.0508 13.0284 16.0415 12.9943 16.0297C12.9602 16.0186 12.9299 16.0037 12.9001 15.9851C12.871 15.9671 12.8487 15.9461 12.8307 15.9213C12.8233 15.9114 12.8196 15.8996 12.8171 15.8866C12.8146 15.873 12.8121 15.8618 12.8121 15.8525L12.7811 15.8352L12.6262 16.1499L12.6467 16.1704C12.6609 16.1586 12.677 16.1524 12.6956 16.1524C12.7093 16.1524 12.7272 16.1605 12.7502 16.1741C12.7719 16.1883 12.801 16.2045 12.8369 16.2218C12.8729 16.241 12.9187 16.2553 12.9732 16.2683C13.0271 16.2807 13.0934 16.2869 13.1697 16.2869C13.2812 16.2869 13.3828 16.2677 13.4733 16.2311C13.5631 16.1933 13.6406 16.1394 13.7063 16.0669C13.7719 15.9956 13.8221 15.9095 13.8562 15.8098C13.8921 15.71 13.9095 15.5978 13.9095 15.4733C13.9095 15.3673 13.894 15.2713 13.863 15.1827C13.832 15.0953 13.7874 15.0185 13.7317 14.9553C13.6747 14.8915 13.6071 14.8413 13.5284 14.8066C13.4497 14.7706 13.363 14.7539 13.2688 14.7539C13.1938 14.7539 13.1176 14.7632 13.0408 14.7849" fill="white"/>
</mask>
<g mask="url(#mask50_4951_55361)">
<path d="M13.9107 14.7529H12.625V16.2859H13.9107V14.7529Z" fill="url(#paint50_radial_4951_55361)"/>
</g>
<mask id="mask51_4951_55361" style="mask-type:luminance" maskUnits="userSpaceOnUse" x="11" y="14" width="2" height="3">
<path d="M11.6177 14.7855C11.547 14.8072 11.4906 14.8307 11.446 14.8586C11.4008 14.8859 11.3673 14.9101 11.3438 14.9324C11.3202 14.954 11.3048 14.9652 11.2961 14.9652C11.2812 14.9652 11.2663 14.9602 11.2527 14.9509L11.2223 14.977L11.4293 15.2701L11.4516 15.2521C11.4485 15.2434 11.446 15.2329 11.4442 15.2217C11.4429 15.2124 11.4417 15.2031 11.4417 15.1945C11.4417 15.1722 11.4547 15.1486 11.4807 15.1257C11.5061 15.1034 11.5396 15.0811 11.578 15.0625C11.6177 15.0433 11.6623 15.0278 11.71 15.0172C11.7583 15.0055 11.8054 14.9993 11.8519 14.9993C11.8915 14.9993 11.9312 15.0024 11.969 15.0067C12.0074 15.0111 12.0427 15.0203 12.0743 15.0346C12.1066 15.0476 12.132 15.0656 12.1512 15.0897C12.171 15.1139 12.1809 15.1437 12.1809 15.1821C12.1809 15.2205 12.1691 15.2558 12.1475 15.2818C12.1251 15.3085 12.0985 15.3295 12.0669 15.345C12.0353 15.3599 12.0018 15.3711 11.9665 15.3766C11.93 15.3828 11.8977 15.3853 11.8711 15.3853C11.8296 15.3853 11.7918 15.3797 11.7583 15.3661C11.7249 15.3543 11.7069 15.3289 11.7032 15.2905H11.6722V15.6796H11.7032C11.7137 15.6449 11.7335 15.6239 11.7639 15.6158C11.7943 15.6065 11.8302 15.6028 11.8717 15.6028C11.9008 15.6028 11.9355 15.6053 11.9758 15.6102C12.0161 15.6152 12.0533 15.6251 12.0892 15.64C12.1251 15.6567 12.1543 15.6772 12.1797 15.7057C12.2032 15.7329 12.2162 15.7701 12.2162 15.8166C12.2162 15.863 12.2026 15.9027 12.1772 15.9331C12.1512 15.9628 12.1202 15.9851 12.0836 16.0031C12.0477 16.0204 12.0074 16.0322 11.9659 16.039C11.9238 16.0465 11.8866 16.0496 11.8556 16.0496C11.8166 16.0496 11.7682 16.0421 11.71 16.031C11.6536 16.0173 11.5978 15.9994 11.5452 15.9752C11.4925 15.9516 11.4479 15.9231 11.4101 15.8878C11.3717 15.8544 11.3531 15.8141 11.3531 15.7701V15.7509C11.3531 15.741 11.3543 15.7342 11.3562 15.7311L11.3277 15.7143L11.1777 16.127L11.2019 16.1351C11.2087 16.132 11.2149 16.1282 11.2205 16.1245C11.2273 16.1202 11.2347 16.1183 11.2428 16.1183C11.2558 16.1183 11.2806 16.1276 11.3141 16.145C11.3475 16.1629 11.3896 16.184 11.4411 16.2051C11.4925 16.2268 11.5508 16.2466 11.6183 16.2621C11.6858 16.2782 11.7583 16.2862 11.8358 16.2862C11.9039 16.2862 11.9777 16.2801 12.0551 16.267C12.1332 16.2546 12.2051 16.2305 12.2695 16.1927C12.334 16.1561 12.3885 16.1053 12.4331 16.0421C12.4765 15.9795 12.4982 15.899 12.4982 15.8017C12.4982 15.715 12.4746 15.6443 12.4275 15.5879C12.3811 15.5315 12.3203 15.4931 12.2472 15.4745V15.469C12.3092 15.4535 12.3581 15.4175 12.3947 15.358C12.4312 15.2998 12.4486 15.2372 12.4486 15.1678C12.4486 15.0941 12.4312 15.0303 12.3959 14.9776C12.3612 14.9249 12.3154 14.8828 12.2596 14.8493C12.2045 14.8153 12.1431 14.7905 12.0756 14.775C12.008 14.7601 11.9411 14.7539 11.8736 14.7539C11.7738 14.7539 11.6895 14.7644 11.6195 14.7867" fill="white"/>
</mask>
<g mask="url(#mask51_4951_55361)">
<path d="M12.4968 14.752H11.1758V16.2849H12.4968V14.752Z" fill="url(#paint51_radial_4951_55361)"/>
</g>
<mask id="mask52_4951_55361" style="mask-type:luminance" maskUnits="userSpaceOnUse" x="9" y="14" width="1" height="3">
<path d="M9.2416 14.7526V14.7854C9.26081 14.7897 9.27568 14.7953 9.28745 14.804C9.2986 14.8108 9.30356 14.8282 9.30356 14.8542C9.30356 14.8833 9.29427 14.9081 9.27382 14.9279C9.25399 14.9478 9.22921 14.9583 9.20008 14.9583C9.18583 14.9583 9.1722 14.9552 9.15609 14.9478C9.13998 14.9422 9.13192 14.9298 9.13192 14.9124H9.10156V15.2737H9.13192C9.1375 15.2582 9.14617 15.2464 9.15857 15.2377C9.1722 15.2291 9.18521 15.2229 9.20132 15.2173C9.21743 15.2123 9.23292 15.2092 9.25027 15.208C9.26638 15.2049 9.28001 15.2049 9.29241 15.2049V16.1622C9.29241 16.1951 9.28559 16.2161 9.27258 16.2267C9.25957 16.2372 9.24532 16.2422 9.22735 16.2422V16.2769H9.65303V16.2422C9.63568 16.2422 9.62019 16.2372 9.60594 16.2267C9.59231 16.2161 9.58549 16.1951 9.58549 16.1622V14.8486C9.58549 14.8288 9.59231 14.8152 9.60594 14.8052C9.61957 14.7966 9.63754 14.7891 9.65675 14.7848V14.752H9.24098L9.2416 14.7526Z" fill="white"/>
</mask>
<g mask="url(#mask52_4951_55361)">
<path d="M9.65932 14.752H9.10352V16.2775H9.65932V14.752Z" fill="url(#paint52_radial_4951_55361)"/>
</g>
<defs>
<radialGradient id="paint0_radial_4951_55361" cx="0" cy="0" r="1" gradientUnits="userSpaceOnUse" gradientTransform="translate(6.67251 5.61153) scale(18.9594)">
<stop stop-color="white"/>
<stop offset="0.26" stop-color="white"/>
<stop offset="0.36" stop-color="#F0F0F0"/>
<stop offset="0.9" stop-color="#A9AAAA"/>
<stop offset="1" stop-color="#A9AAAA"/>
</radialGradient>
<radialGradient id="paint1_radial_4951_55361" cx="0" cy="0" r="1" gradientUnits="userSpaceOnUse" gradientTransform="translate(6.38248 6.22161) scale(19.2044 19.2037)">
<stop stop-color="#94B2DD"/>
<stop offset="0.09" stop-color="#5B8BC1"/>
<stop offset="0.2" stop-color="#2365A6"/>
<stop offset="0.25" stop-color="#0E579C"/>
<stop offset="0.57" stop-color="#004988"/>
<stop offset="0.75" stop-color="#002560"/>
<stop offset="0.91" stop-color="#000A43"/>
<stop offset="1" stop-color="#000038"/>
</radialGradient>
<linearGradient id="paint2_linear_4951_55361" x1="3.90596" y1="3.6436" x2="19.5223" y2="19.26" gradientUnits="userSpaceOnUse">
<stop stop-color="#C8C9CA"/>
<stop offset="0.27" stop-color="#A2A2A2"/>
<stop offset="0.59" stop-color="#7A7979"/>
<stop offset="0.85" stop-color="#626060"/>
<stop offset="1" stop-color="#595757"/>
</linearGradient>
<radialGradient id="paint3_radial_4951_55361" cx="0" cy="0" r="1" gradientUnits="userSpaceOnUse" gradientTransform="translate(6.55364 5.37203) scale(20.5094 20.5094)">
<stop stop-color="#94B2DD"/>
<stop offset="0.09" stop-color="#5B8BC1"/>
<stop offset="0.2" stop-color="#2365A6"/>
<stop offset="0.25" stop-color="#0E579C"/>
<stop offset="0.57" stop-color="#004988"/>
<stop offset="0.75" stop-color="#002560"/>
<stop offset="0.91" stop-color="#000A43"/>
<stop offset="1" stop-color="#000038"/>
</radialGradient>
<linearGradient id="paint4_linear_4951_55361" x1="16.9969" y1="16.8882" x2="6.27199" y2="6.16331" gradientUnits="userSpaceOnUse">
<stop stop-color="white"/>
<stop offset="0.16" stop-color="#DCDCDC"/>
<stop offset="0.45" stop-color="#A4A3A3"/>
<stop offset="0.69" stop-color="#7B7979"/>
<stop offset="0.88" stop-color="#626060"/>
<stop offset="1" stop-color="#595757"/>
</linearGradient>
<radialGradient id="paint5_radial_4951_55361" cx="0" cy="0" r="1" gradientUnits="userSpaceOnUse" gradientTransform="translate(6.53649 5.76792) scale(18.7799)">
<stop stop-color="white"/>
<stop offset="0.26" stop-color="white"/>
<stop offset="0.36" stop-color="#F0F0F0"/>
<stop offset="0.9" stop-color="#A9AAAA"/>
<stop offset="1" stop-color="#A9AAAA"/>
</radialGradient>
<radialGradient id="paint6_radial_4951_55361" cx="0" cy="0" r="1" gradientUnits="userSpaceOnUse" gradientTransform="translate(7.26454 6.37098) scale(14.0609 14.0609)">
<stop stop-color="#94B2DD"/>
<stop offset="0.09" stop-color="#5B8BC1"/>
<stop offset="0.2" stop-color="#2365A6"/>
<stop offset="0.25" stop-color="#0E579C"/>
<stop offset="0.57" stop-color="#004988"/>
<stop offset="0.75" stop-color="#002560"/>
<stop offset="0.91" stop-color="#000A43"/>
<stop offset="1" stop-color="#000038"/>
</radialGradient>
<radialGradient id="paint7_radial_4951_55361" cx="0" cy="0" r="1" gradientUnits="userSpaceOnUse" gradientTransform="translate(6.06939 6.18066) scale(19.0086 19.0086)">
<stop stop-color="#94B2DD"/>
<stop offset="0.09" stop-color="#5B8BC1"/>
<stop offset="0.2" stop-color="#2365A6"/>
<stop offset="0.25" stop-color="#0E579C"/>
<stop offset="0.57" stop-color="#004988"/>
<stop offset="0.75" stop-color="#002560"/>
<stop offset="0.91" stop-color="#000A43"/>
<stop offset="1" stop-color="#000038"/>
</radialGradient>
<radialGradient id="paint8_radial_4951_55361" cx="0" cy="0" r="1" gradientUnits="userSpaceOnUse" gradientTransform="translate(6.58591 5.50831) scale(18.9587 18.9587)">
<stop stop-color="white"/>
<stop offset="0.1" stop-color="white"/>
<stop offset="0.25" stop-color="#F4F5F5"/>
<stop offset="0.51" stop-color="#D9DADB"/>
<stop offset="0.84" stop-color="#ACB0B2"/>
<stop offset="1" stop-color="#94999C"/>
</radialGradient>
<radialGradient id="paint9_radial_4951_55361" cx="0" cy="0" r="1" gradientUnits="userSpaceOnUse" gradientTransform="translate(6.56161 6.37742) rotate(83.02) scale(19.1303 19.1303)">
<stop stop-color="white"/>
<stop offset="0.26" stop-color="white"/>
<stop offset="0.36" stop-color="#F0F0F0"/>
<stop offset="0.9" stop-color="#A9AAAA"/>
<stop offset="1" stop-color="#A9AAAA"/>
</radialGradient>
<radialGradient id="paint10_radial_4951_55361" cx="0" cy="0" r="1" gradientUnits="userSpaceOnUse" gradientTransform="translate(6.37053 5.59186) rotate(83.02) scale(18.9548 18.9548)">
<stop stop-color="white"/>
<stop offset="0.26" stop-color="white"/>
<stop offset="0.36" stop-color="#F0F0F0"/>
<stop offset="0.9" stop-color="#A9AAAA"/>
<stop offset="1" stop-color="#A9AAAA"/>
</radialGradient>
<radialGradient id="paint11_radial_4951_55361" cx="0" cy="0" r="1" gradientUnits="userSpaceOnUse" gradientTransform="translate(6.67401 4.84999) rotate(83.02) scale(18.7786 18.7786)">
<stop stop-color="white"/>
<stop offset="0.26" stop-color="white"/>
<stop offset="0.36" stop-color="#F0F0F0"/>
<stop offset="0.9" stop-color="#A9AAAA"/>
<stop offset="1" stop-color="#A9AAAA"/>
</radialGradient>
<radialGradient id="paint12_radial_4951_55361" cx="0" cy="0" r="1" gradientUnits="userSpaceOnUse" gradientTransform="translate(6.78836 5.32252) rotate(83.02) scale(18.9581 18.9587)">
<stop stop-color="white"/>
<stop offset="0.26" stop-color="white"/>
<stop offset="0.36" stop-color="#F0F0F0"/>
<stop offset="0.9" stop-color="#A9AAAA"/>
<stop offset="1" stop-color="#A9AAAA"/>
</radialGradient>
<radialGradient id="paint13_radial_4951_55361" cx="0" cy="0" r="1" gradientUnits="userSpaceOnUse" gradientTransform="translate(6.87043 4.92158) rotate(83.02) scale(18.7812 18.7818)">
<stop stop-color="white"/>
<stop offset="0.26" stop-color="white"/>
<stop offset="0.36" stop-color="#F0F0F0"/>
<stop offset="0.9" stop-color="#A9AAAA"/>
<stop offset="1" stop-color="#A9AAAA"/>
</radialGradient>
<radialGradient id="paint14_radial_4951_55361" cx="0" cy="0" r="1" gradientUnits="userSpaceOnUse" gradientTransform="translate(6.89813 6.60553) rotate(83.03) scale(18.7877 18.7883)">
<stop stop-color="white"/>
<stop offset="0.26" stop-color="white"/>
<stop offset="0.36" stop-color="#F0F0F0"/>
<stop offset="0.9" stop-color="#A9AAAA"/>
<stop offset="1" stop-color="#A9AAAA"/>
</radialGradient>
<radialGradient id="paint15_radial_4951_55361" cx="0" cy="0" r="1" gradientUnits="userSpaceOnUse" gradientTransform="translate(6.66307 4.70675) rotate(83.02) scale(18.9627 18.9633)">
<stop stop-color="white"/>
<stop offset="0.26" stop-color="white"/>
<stop offset="0.36" stop-color="#F0F0F0"/>
<stop offset="0.9" stop-color="#A9AAAA"/>
<stop offset="1" stop-color="#A9AAAA"/>
</radialGradient>
<radialGradient id="paint16_radial_4951_55361" cx="0" cy="0" r="1" gradientUnits="userSpaceOnUse" gradientTransform="translate(6.72303 5.99348) rotate(83.02) scale(18.7798 18.7799)">
<stop stop-color="white"/>
<stop offset="0.26" stop-color="white"/>
<stop offset="0.36" stop-color="#F0F0F0"/>
<stop offset="0.9" stop-color="#A9AAAA"/>
<stop offset="1" stop-color="#A9AAAA"/>
</radialGradient>
<radialGradient id="paint17_radial_4951_55361" cx="0" cy="0" r="1" gradientUnits="userSpaceOnUse" gradientTransform="translate(6.62487 5.17041) rotate(83.02) scale(18.9554 18.9555)">
<stop stop-color="white"/>
<stop offset="0.26" stop-color="white"/>
<stop offset="0.36" stop-color="#F0F0F0"/>
<stop offset="0.9" stop-color="#A9AAAA"/>
<stop offset="1" stop-color="#A9AAAA"/>
</radialGradient>
<radialGradient id="paint18_radial_4951_55361" cx="0" cy="0" r="1" gradientUnits="userSpaceOnUse" gradientTransform="translate(6.83178 6.6263) rotate(83.03) scale(18.9561 18.9568)">
<stop stop-color="white"/>
<stop offset="0.26" stop-color="white"/>
<stop offset="0.36" stop-color="#F0F0F0"/>
<stop offset="0.9" stop-color="#A9AAAA"/>
<stop offset="1" stop-color="#A9AAAA"/>
</radialGradient>
<radialGradient id="paint19_radial_4951_55361" cx="0" cy="0" r="1" gradientUnits="userSpaceOnUse" gradientTransform="translate(6.48904 5.45143) rotate(83.02) scale(18.96 18.96)">
<stop stop-color="white"/>
<stop offset="0.26" stop-color="white"/>
<stop offset="0.36" stop-color="#F0F0F0"/>
<stop offset="0.9" stop-color="#A9AAAA"/>
<stop offset="1" stop-color="#A9AAAA"/>
</radialGradient>
<radialGradient id="paint20_radial_4951_55361" cx="0" cy="0" r="1" gradientUnits="userSpaceOnUse" gradientTransform="translate(6.83072 5.80083) rotate(96.98) scale(18.7857 18.7857)">
<stop stop-color="white"/>
<stop offset="0.26" stop-color="white"/>
<stop offset="0.36" stop-color="#F0F0F0"/>
<stop offset="0.9" stop-color="#A9AAAA"/>
<stop offset="1" stop-color="#A9AAAA"/>
</radialGradient>
<radialGradient id="paint21_radial_4951_55361" cx="0" cy="0" r="1" gradientUnits="userSpaceOnUse" gradientTransform="translate(6.82652 6.2159) rotate(96.98) scale(18.7805 18.7805)">
<stop stop-color="white"/>
<stop offset="0.26" stop-color="white"/>
<stop offset="0.36" stop-color="#F0F0F0"/>
<stop offset="0.9" stop-color="#A9AAAA"/>
<stop offset="1" stop-color="#A9AAAA"/>
</radialGradient>
<radialGradient id="paint22_radial_4951_55361" cx="0" cy="0" r="1" gradientUnits="userSpaceOnUse" gradientTransform="translate(6.55413 4.67295) rotate(96.98) scale(18.7792 18.7792)">
<stop stop-color="white"/>
<stop offset="0.26" stop-color="white"/>
<stop offset="0.36" stop-color="#F0F0F0"/>
<stop offset="0.9" stop-color="#A9AAAA"/>
<stop offset="1" stop-color="#A9AAAA"/>
</radialGradient>
<radialGradient id="paint23_radial_4951_55361" cx="0" cy="0" r="1" gradientUnits="userSpaceOnUse" gradientTransform="translate(6.82088 5.2468) rotate(96.98) scale(18.9594 18.9594)">
<stop stop-color="white"/>
<stop offset="0.26" stop-color="white"/>
<stop offset="0.36" stop-color="#F0F0F0"/>
<stop offset="0.9" stop-color="#A9AAAA"/>
<stop offset="1" stop-color="#A9AAAA"/>
</radialGradient>
<radialGradient id="paint24_radial_4951_55361" cx="0" cy="0" r="1" gradientUnits="userSpaceOnUse" gradientTransform="translate(6.74533 4.64161) rotate(96.98) scale(18.7844 18.7844)">
<stop stop-color="white"/>
<stop offset="0.26" stop-color="white"/>
<stop offset="0.36" stop-color="#F0F0F0"/>
<stop offset="0.9" stop-color="#A9AAAA"/>
<stop offset="1" stop-color="#A9AAAA"/>
</radialGradient>
<radialGradient id="paint25_radial_4951_55361" cx="0" cy="0" r="1" gradientUnits="userSpaceOnUse" gradientTransform="translate(6.53772 5.41894) rotate(96.98) scale(18.7896 18.7896)">
<stop stop-color="white"/>
<stop offset="0.26" stop-color="white"/>
<stop offset="0.36" stop-color="#F0F0F0"/>
<stop offset="0.9" stop-color="#A9AAAA"/>
<stop offset="1" stop-color="#A9AAAA"/>
</radialGradient>
<radialGradient id="paint26_radial_4951_55361" cx="0" cy="0" r="1" gradientUnits="userSpaceOnUse" gradientTransform="translate(6.46787 5.41518) rotate(96.98) scale(18.9653 18.9653)">
<stop stop-color="white"/>
<stop offset="0.26" stop-color="white"/>
<stop offset="0.36" stop-color="#F0F0F0"/>
<stop offset="0.9" stop-color="#A9AAAA"/>
<stop offset="1" stop-color="#A9AAAA"/>
</radialGradient>
<radialGradient id="paint27_radial_4951_55361" cx="0" cy="0" r="1" gradientUnits="userSpaceOnUse" gradientTransform="translate(6.48204 5.91912) rotate(96.98) scale(18.7792 18.7792)">
<stop stop-color="white"/>
<stop offset="0.26" stop-color="white"/>
<stop offset="0.36" stop-color="#F0F0F0"/>
<stop offset="0.9" stop-color="#A9AAAA"/>
<stop offset="1" stop-color="#A9AAAA"/>
</radialGradient>
<radialGradient id="paint28_radial_4951_55361" cx="0" cy="0" r="1" gradientUnits="userSpaceOnUse" gradientTransform="translate(6.83033 5.62495) rotate(96.98) scale(18.7753 18.7753)">
<stop stop-color="white"/>
<stop offset="0.26" stop-color="white"/>
<stop offset="0.36" stop-color="#F0F0F0"/>
<stop offset="0.9" stop-color="#A9AAAA"/>
<stop offset="1" stop-color="#A9AAAA"/>
</radialGradient>
<radialGradient id="paint29_radial_4951_55361" cx="0" cy="0" r="1" gradientUnits="userSpaceOnUse" gradientTransform="translate(6.77695 5.17391) rotate(96.98) scale(18.9568 18.9568)">
<stop stop-color="white"/>
<stop offset="0.26" stop-color="white"/>
<stop offset="0.36" stop-color="#F0F0F0"/>
<stop offset="0.9" stop-color="#A9AAAA"/>
<stop offset="1" stop-color="#A9AAAA"/>
</radialGradient>
<radialGradient id="paint30_radial_4951_55361" cx="0" cy="0" r="1" gradientUnits="userSpaceOnUse" gradientTransform="translate(6.55441 5.28155) rotate(96.98) scale(18.7805)">
<stop stop-color="white"/>
<stop offset="0.26" stop-color="white"/>
<stop offset="0.36" stop-color="#F0F0F0"/>
<stop offset="0.9" stop-color="#A9AAAA"/>
<stop offset="1" stop-color="#A9AAAA"/>
</radialGradient>
<radialGradient id="paint31_radial_4951_55361" cx="0" cy="0" r="1" gradientUnits="userSpaceOnUse" gradientTransform="translate(6.58014 6.08509) scale(18.7779 18.7773)">
<stop stop-color="white"/>
<stop offset="0.26" stop-color="white"/>
<stop offset="0.36" stop-color="#F0F0F0"/>
<stop offset="0.9" stop-color="#A9AAAA"/>
<stop offset="1" stop-color="#A9AAAA"/>
</radialGradient>
<radialGradient id="paint32_radial_4951_55361" cx="0" cy="0" r="1" gradientUnits="userSpaceOnUse" gradientTransform="translate(6.55548 5.58984) scale(18.9594 18.9594)">
<stop stop-color="white"/>
<stop offset="0.26" stop-color="white"/>
<stop offset="0.36" stop-color="#F0F0F0"/>
<stop offset="0.9" stop-color="#A9AAAA"/>
<stop offset="1" stop-color="#A9AAAA"/>
</radialGradient>
<radialGradient id="paint33_radial_4951_55361" cx="0" cy="0" r="1" gradientUnits="userSpaceOnUse" gradientTransform="translate(6.70252 5.6998) scale(18.9574 18.9574)">
<stop stop-color="white"/>
<stop offset="0.26" stop-color="white"/>
<stop offset="0.36" stop-color="#F0F0F0"/>
<stop offset="0.9" stop-color="#A9AAAA"/>
<stop offset="1" stop-color="#A9AAAA"/>
</radialGradient>
<radialGradient id="paint34_radial_4951_55361" cx="0" cy="0" r="1" gradientUnits="userSpaceOnUse" gradientTransform="translate(6.5562 5.93709) scale(18.9607 18.96)">
<stop stop-color="white"/>
<stop offset="0.26" stop-color="white"/>
<stop offset="0.36" stop-color="#F0F0F0"/>
<stop offset="0.9" stop-color="#A9AAAA"/>
<stop offset="1" stop-color="#A9AAAA"/>
</radialGradient>
<radialGradient id="paint35_radial_4951_55361" cx="0" cy="0" r="1" gradientUnits="userSpaceOnUse" gradientTransform="translate(6.56747 5.49699) scale(18.7825 18.7825)">
<stop stop-color="white"/>
<stop offset="0.26" stop-color="white"/>
<stop offset="0.36" stop-color="#F0F0F0"/>
<stop offset="0.9" stop-color="#A9AAAA"/>
<stop offset="1" stop-color="#A9AAAA"/>
</radialGradient>
<radialGradient id="paint36_radial_4951_55361" cx="0" cy="0" r="1" gradientUnits="userSpaceOnUse" gradientTransform="translate(6.56087 5.75846) scale(18.9548 18.9548)">
<stop stop-color="white"/>
<stop offset="0.26" stop-color="white"/>
<stop offset="0.36" stop-color="#F0F0F0"/>
<stop offset="0.9" stop-color="#A9AAAA"/>
<stop offset="1" stop-color="#A9AAAA"/>
</radialGradient>
<radialGradient id="paint37_radial_4951_55361" cx="0" cy="0" r="1" gradientUnits="userSpaceOnUse" gradientTransform="translate(6.68886 5.67623) scale(18.96)">
<stop stop-color="white"/>
<stop offset="0.26" stop-color="white"/>
<stop offset="0.36" stop-color="#F0F0F0"/>
<stop offset="0.9" stop-color="#A9AAAA"/>
<stop offset="1" stop-color="#A9AAAA"/>
</radialGradient>
<radialGradient id="paint38_radial_4951_55361" cx="0" cy="0" r="1" gradientUnits="userSpaceOnUse" gradientTransform="translate(6.58597 5.88756) scale(18.7779 18.7773)">
<stop stop-color="white"/>
<stop offset="0.26" stop-color="white"/>
<stop offset="0.36" stop-color="#F0F0F0"/>
<stop offset="0.9" stop-color="#A9AAAA"/>
<stop offset="1" stop-color="#A9AAAA"/>
</radialGradient>
<radialGradient id="paint39_radial_4951_55361" cx="0" cy="0" r="1" gradientUnits="userSpaceOnUse" gradientTransform="translate(6.58529 5.87671) scale(18.9613 18.9607)">
<stop stop-color="white"/>
<stop offset="0.26" stop-color="white"/>
<stop offset="0.36" stop-color="#F0F0F0"/>
<stop offset="0.9" stop-color="#A9AAAA"/>
<stop offset="1" stop-color="#A9AAAA"/>
</radialGradient>
<radialGradient id="paint40_radial_4951_55361" cx="0" cy="0" r="1" gradientUnits="userSpaceOnUse" gradientTransform="translate(6.59392 5.91742) scale(18.9548 18.9541)">
<stop stop-color="white"/>
<stop offset="0.26" stop-color="white"/>
<stop offset="0.36" stop-color="#F0F0F0"/>
<stop offset="0.9" stop-color="#A9AAAA"/>
<stop offset="1" stop-color="#A9AAAA"/>
</radialGradient>
<radialGradient id="paint41_radial_4951_55361" cx="0" cy="0" r="1" gradientUnits="userSpaceOnUse" gradientTransform="translate(6.54769 5.78995) scale(18.9581 18.9581)">
<stop stop-color="white"/>
<stop offset="0.26" stop-color="white"/>
<stop offset="0.36" stop-color="#F0F0F0"/>
<stop offset="0.9" stop-color="#A9AAAA"/>
<stop offset="1" stop-color="#A9AAAA"/>
</radialGradient>
<radialGradient id="paint42_radial_4951_55361" cx="0" cy="0" r="1" gradientUnits="userSpaceOnUse" gradientTransform="translate(6.53002 5.67844) scale(18.7831 18.7831)">
<stop stop-color="white"/>
<stop offset="0.26" stop-color="white"/>
<stop offset="0.36" stop-color="#F0F0F0"/>
<stop offset="0.9" stop-color="#A9AAAA"/>
<stop offset="1" stop-color="#A9AAAA"/>
</radialGradient>
<radialGradient id="paint43_radial_4951_55361" cx="0" cy="0" r="1" gradientUnits="userSpaceOnUse" gradientTransform="translate(6.58152 5.89056) scale(18.7772 18.7773)">
<stop stop-color="white"/>
<stop offset="0.26" stop-color="white"/>
<stop offset="0.36" stop-color="#F0F0F0"/>
<stop offset="0.9" stop-color="#A9AAAA"/>
<stop offset="1" stop-color="#A9AAAA"/>
</radialGradient>
<radialGradient id="paint44_radial_4951_55361" cx="0" cy="0" r="1" gradientUnits="userSpaceOnUse" gradientTransform="translate(6.70023 5.67649) scale(18.7786)">
<stop stop-color="white"/>
<stop offset="0.26" stop-color="white"/>
<stop offset="0.36" stop-color="#F0F0F0"/>
<stop offset="0.9" stop-color="#A9AAAA"/>
<stop offset="1" stop-color="#A9AAAA"/>
</radialGradient>
<radialGradient id="paint45_radial_4951_55361" cx="0" cy="0" r="1" gradientUnits="userSpaceOnUse" gradientTransform="translate(6.54932 5.75779) scale(18.9581 18.958)">
<stop stop-color="white"/>
<stop offset="0.26" stop-color="white"/>
<stop offset="0.36" stop-color="#F0F0F0"/>
<stop offset="0.9" stop-color="#A9AAAA"/>
<stop offset="1" stop-color="#A9AAAA"/>
</radialGradient>
<radialGradient id="paint46_radial_4951_55361" cx="0" cy="0" r="1" gradientUnits="userSpaceOnUse" gradientTransform="translate(6.57828 5.69411) scale(18.9567 18.9568)">
<stop stop-color="white"/>
<stop offset="0.26" stop-color="white"/>
<stop offset="0.36" stop-color="#F0F0F0"/>
<stop offset="0.9" stop-color="#A9AAAA"/>
<stop offset="1" stop-color="#A9AAAA"/>
</radialGradient>
<radialGradient id="paint47_radial_4951_55361" cx="0" cy="0" r="1" gradientUnits="userSpaceOnUse" gradientTransform="translate(6.54437 5.82736) scale(18.9614 18.9614)">
<stop stop-color="white"/>
<stop offset="0.26" stop-color="white"/>
<stop offset="0.36" stop-color="#F0F0F0"/>
<stop offset="0.9" stop-color="#A9AAAA"/>
<stop offset="1" stop-color="#A9AAAA"/>
</radialGradient>
<radialGradient id="paint48_radial_4951_55361" cx="0" cy="0" r="1" gradientUnits="userSpaceOnUse" gradientTransform="translate(6.52532 5.59986) scale(18.9581 18.9581)">
<stop stop-color="white"/>
<stop offset="0.26" stop-color="white"/>
<stop offset="0.36" stop-color="#F0F0F0"/>
<stop offset="0.9" stop-color="#A9AAAA"/>
<stop offset="1" stop-color="#A9AAAA"/>
</radialGradient>
<radialGradient id="paint49_radial_4951_55361" cx="0" cy="0" r="1" gradientUnits="userSpaceOnUse" gradientTransform="translate(6.6043 5.66713) scale(20.6329 20.6329)">
<stop stop-color="#94B2DD"/>
<stop offset="0.09" stop-color="#5B8BC1"/>
<stop offset="0.2" stop-color="#2365A6"/>
<stop offset="0.25" stop-color="#0E579C"/>
<stop offset="0.57" stop-color="#004988"/>
<stop offset="0.75" stop-color="#002560"/>
<stop offset="0.91" stop-color="#000A43"/>
<stop offset="1" stop-color="#000038"/>
</radialGradient>
<radialGradient id="paint50_radial_4951_55361" cx="0" cy="0" r="1" gradientUnits="userSpaceOnUse" gradientTransform="translate(6.65246 5.38426) scale(20.6336 20.6336)">
<stop stop-color="#94B2DD"/>
<stop offset="0.09" stop-color="#5B8BC1"/>
<stop offset="0.2" stop-color="#2365A6"/>
<stop offset="0.25" stop-color="#0E579C"/>
<stop offset="0.57" stop-color="#004988"/>
<stop offset="0.75" stop-color="#002560"/>
<stop offset="0.91" stop-color="#000A43"/>
<stop offset="1" stop-color="#000038"/>
</radialGradient>
<radialGradient id="paint51_radial_4951_55361" cx="0" cy="0" r="1" gradientUnits="userSpaceOnUse" gradientTransform="translate(6.6309 5.74246) scale(20.4383 20.4383)">
<stop stop-color="#94B2DD"/>
<stop offset="0.09" stop-color="#5B8BC1"/>
<stop offset="0.2" stop-color="#2365A6"/>
<stop offset="0.25" stop-color="#0E579C"/>
<stop offset="0.57" stop-color="#004988"/>
<stop offset="0.75" stop-color="#002560"/>
<stop offset="0.91" stop-color="#000A43"/>
<stop offset="1" stop-color="#000038"/>
</radialGradient>
<radialGradient id="paint52_radial_4951_55361" cx="0" cy="0" r="1" gradientUnits="userSpaceOnUse" gradientTransform="translate(6.58548 5.68755) scale(20.6323 20.6323)">
<stop stop-color="#94B2DD"/>
<stop offset="0.09" stop-color="#5B8BC1"/>
<stop offset="0.2" stop-color="#2365A6"/>
<stop offset="0.25" stop-color="#0E579C"/>
<stop offset="0.57" stop-color="#004988"/>
<stop offset="0.75" stop-color="#002560"/>
<stop offset="0.91" stop-color="#000A43"/>
<stop offset="1" stop-color="#000038"/>
</radialGradient>
</defs>
</svg>
