<svg width="203" height="202" viewBox="0 0 203 202" fill="none" xmlns="http://www.w3.org/2000/svg">
<path d="M132.576 0H70.4226C31.8302 0 0.544922 31.2853 0.544922 69.8777V132.031C0.544922 170.624 31.8302 201.909 70.4226 201.909H132.576C171.169 201.909 202.454 170.624 202.454 132.031V69.8777C202.454 31.2853 171.169 0 132.576 0Z" fill="#00C68D"/>
<path d="M97.7584 41.0537C98.104 39.1452 98.059 37.1315 97.548 35.1178C95.6245 27.6943 88.0507 23.2461 80.6271 25.1696C73.2035 27.0932 68.7554 34.667 70.6789 42.0906C71.2049 44.1042 72.1516 45.8775 73.3839 47.3802C77.0205 45.3816 80.9727 43.7887 85.1804 42.6917C89.3881 41.5947 93.6108 41.0687 97.7584 41.0386V41.0537Z" fill="#FFB717" stroke="#282828" stroke-width="1.29236" stroke-linecap="round" stroke-linejoin="round"/>
<path d="M146.583 74.6865C144.855 70.584 142.946 67.323 141.338 64.9036C138.558 60.5306 134.35 55.3462 128.189 50.868C128.189 50.868 114.529 40.9498 97.7736 41.055C95.7449 41.055 93.7012 41.2504 93.7012 41.2504C90.876 41.4908 88.0358 41.9717 85.1956 42.7081C80.9879 43.8051 77.0357 45.3829 73.3991 47.3966C60.791 54.3243 51.8196 66.196 48.3934 79.8259C43.9152 94.6129 48.7089 116.703 50.8128 124.983C52.2404 123.496 53.7882 122.038 55.4413 120.61C66.1859 111.369 81.6642 103.404 99.7422 98.7154C117.82 94.0268 135.222 93.4408 149.107 96.281C151.707 96.8069 154.187 97.4531 156.516 98.2195C155.269 94.8834 153.916 91.4722 152.474 88.0008C150.55 83.3573 148.581 78.9242 146.598 74.6865H146.583Z" fill="#FFDE3B" stroke="#282828" stroke-width="1.3675" stroke-linecap="round" stroke-linejoin="round"/>
<path d="M175.481 135.396C178.697 129.37 179.809 123.239 178.306 117.454C176.007 108.587 167.982 102.005 156.486 98.2184C154.157 97.452 151.677 96.8058 149.078 96.2799C135.207 93.4397 117.79 94.0107 99.7124 98.7143C81.6343 103.403 66.141 111.382 55.4114 120.609C53.7434 122.037 52.2106 123.51 50.783 124.982C41.9919 134.134 37.8142 144.157 40.1886 153.324C41.8116 159.56 46.2597 164.655 52.7516 168.457" fill="#FFDE3B"/>
<path d="M175.481 135.396C178.697 129.37 179.809 123.239 178.306 117.454C176.007 108.587 167.982 102.005 156.486 98.2184C154.157 97.452 151.677 96.8058 149.078 96.2799C135.207 93.4397 117.79 94.0107 99.7124 98.7143C81.6343 103.403 66.141 111.382 55.4114 120.609C53.7434 122.037 52.2106 123.51 50.783 124.982C41.9919 134.134 37.8142 144.157 40.1886 153.324C41.8116 159.56 46.2597 164.655 52.7516 168.457" stroke="#282828" stroke-width="1.3675" stroke-linecap="round" stroke-linejoin="round"/>
<path d="M164.165 132.181C164.165 132.181 163.94 129.116 158.846 127.252C152.594 125.284 145.696 124.082 138.408 123.721C128.806 123.255 118.527 124.262 108.113 126.967C97.1428 129.822 87.2247 134.225 78.7792 139.68C72.7532 143.572 67.4786 148.005 63.1206 152.769C60.07 156.361 60.9116 158.915 60.9116 158.915" fill="#FFDE3B"/>
<path d="M164.165 132.181C164.165 132.181 163.94 129.116 158.846 127.252C152.594 125.284 145.696 124.082 138.408 123.721C128.806 123.255 118.527 124.262 108.113 126.967C97.1428 129.822 87.2247 134.225 78.7792 139.68C72.7532 143.572 67.4786 148.005 63.1206 152.769C60.07 156.361 60.9116 158.915 60.9116 158.915" stroke="#282828" stroke-width="1.3675" stroke-linecap="round" stroke-linejoin="round"/>
<path d="M52.7676 168.457C67.3893 177.023 92.9359 177.849 118.783 172.079C146.268 165.947 167.412 150.484 175.482 135.396" fill="#FFDE3B"/>
<path d="M52.7676 168.457C67.3893 177.023 92.9359 177.849 118.783 172.079C146.268 165.947 167.412 150.484 175.482 135.396" stroke="#282828" stroke-width="1.3675" stroke-linecap="round" stroke-linejoin="round"/>
<path d="M67.1626 148.697C69.1011 152.89 79.1545 153.461 92.9347 152.77C118.827 151.477 147.98 135.383 151.812 125.405" fill="#FFDE3B"/>
<path d="M67.1626 148.697C69.1011 152.89 79.1545 153.461 92.9347 152.77C118.827 151.477 147.98 135.383 151.812 125.405" stroke="#282828" stroke-width="1.3675" stroke-linecap="round" stroke-linejoin="round"/>
<path d="M67.1626 148.696H67.1767H67.1626Z" fill="#FFDE3B" stroke="#282828" stroke-width="1.3675" stroke-linecap="round" stroke-linejoin="round"/>
<path d="M151.812 125.419L151.722 125.449C151.722 125.449 151.767 125.449 151.797 125.449C151.797 125.449 151.797 125.419 151.812 125.404V125.419Z" fill="#FFDE3B" stroke="#282828" stroke-width="1.3675" stroke-linecap="round" stroke-linejoin="round"/>
<path d="M151.722 125.449C147.484 124.562 143.036 123.961 138.423 123.736C128.82 123.27 118.541 124.277 108.127 126.982C97.1572 129.837 87.239 134.24 78.7936 139.695C74.5258 142.445 70.6487 145.48 67.1924 148.696C68.6651 151.882 74.8414 152.979 83.7527 153.009C86.5628 153.009 89.6585 152.934 92.9645 152.769C108.142 152.017 124.432 146.172 136.108 139.454C144.313 134.736 150.219 129.566 151.827 125.449C151.797 125.449 151.782 125.449 151.752 125.449H151.722Z" fill="#FFB717" stroke="#282828" stroke-width="1.29236" stroke-linecap="round" stroke-linejoin="round"/>
<path d="M129.903 139.363C124.854 134.539 117.521 132.36 110.278 134.239C103.034 136.117 97.3088 141.993 95.4154 148.966C94.4536 152.527 94.3935 156.404 95.5206 160.236C98.5261 170.56 109.196 176.992 119.73 174.798C131.481 172.363 138.664 160.627 135.689 149.161C134.682 145.269 132.623 141.948 129.918 139.363H129.903Z" fill="#FFDE3B" stroke="#282828" stroke-width="1.3675" stroke-linecap="round" stroke-linejoin="round"/>
</svg>
