<svg width="28" height="28" viewBox="0 0 28 28" fill="none" xmlns="http://www.w3.org/2000/svg">
<path d="M1 7.5C1 5.84315 2.34315 4.5 4 4.5H24C25.6569 4.5 27 5.84315 27 7.5V10.5H1V7.5Z" fill="#00C68D" stroke="#282828" stroke-width="0.7"/>
<rect x="5.65" y="1.15" width="3.7" height="5.7" rx="1.85" fill="#00C68D" stroke="#282828" stroke-width="0.7"/>
<rect x="18.65" y="1.15" width="3.7" height="5.7" rx="1.85" fill="#00C68D" stroke="#282828" stroke-width="0.7"/>
<path d="M1 10.5H27V24.5C27 26.1569 25.6569 27.5 24 27.5H4C2.34315 27.5 1 26.1569 1 24.5V10.5Z" fill="white" stroke="#282828" stroke-width="0.7"/>
<path d="M18.4645 13.4596C18.9873 12.9035 19.8996 12.8436 20.5021 13.3261C21.1046 13.8087 21.1694 14.6508 20.6467 15.207L13.7524 22.5404C13.4781 22.8322 13.0799 23 12.6613 23C12.295 23 11.9445 22.8715 11.6788 22.6439L11.5702 22.5404L8.35336 19.1185L8.26238 19.011C7.8407 18.4585 7.93305 17.6901 8.49795 17.2376C9.06288 16.7851 9.90006 16.8089 10.4333 17.2721L10.5356 17.3704L12.6613 19.6321L18.4645 13.4596Z" fill="#282828"/>
</svg>
