<svg width="48" height="48" viewBox="0 0 48 48" fill="none" xmlns="http://www.w3.org/2000/svg">
<rect x="0.214286" y="0.214286" width="47.5714" height="47.5714" rx="11.7857" fill="#E8E9EB"/>
<rect x="0.214286" y="0.214286" width="47.5714" height="47.5714" rx="11.7857" stroke="#CBCBCB" stroke-width="0.428571"/>
<ellipse cx="15.1544" cy="24" rx="7.44" ry="12" fill="white"/>
<mask id="mask0_4261_62815" style="mask-type:alpha" maskUnits="userSpaceOnUse" x="7" y="12" width="16" height="24">
<ellipse cx="15.1544" cy="24" rx="7.44" ry="12" fill="white"/>
</mask>
<g mask="url(#mask0_4261_62815)">
<ellipse cx="20.4346" cy="23.7598" rx="6.48" ry="7.92" fill="#797979"/>
</g>
<path d="M15.1548 12.2139C17.1077 12.2141 18.9088 13.4923 20.2329 15.6279C21.555 17.7605 22.3804 20.7198 22.3804 24C22.3804 27.2802 21.555 30.2395 20.2329 32.3721C18.9088 34.5077 17.1077 35.7859 15.1548 35.7861C13.2017 35.7861 11.3999 34.5079 10.0757 32.3721C8.75357 30.2395 7.92822 27.2802 7.92822 24C7.92822 20.7198 8.75357 17.7605 10.0757 15.6279C11.3999 13.4921 13.2017 12.2139 15.1548 12.2139Z" stroke="#797979" stroke-width="0.428571"/>
<ellipse cx="32.4344" cy="24" rx="7.44" ry="12" fill="white"/>
<mask id="mask1_4261_62815" style="mask-type:alpha" maskUnits="userSpaceOnUse" x="24" y="12" width="16" height="24">
<ellipse cx="32.4344" cy="24" rx="7.44" ry="12" fill="white"/>
</mask>
<g mask="url(#mask1_4261_62815)">
<ellipse cx="37.7144" cy="23.7598" rx="6.48" ry="7.92" fill="#797979"/>
</g>
<path d="M32.4348 12.2139C34.3878 12.2141 36.1888 13.4923 37.5129 15.6279C38.8351 17.7605 39.6604 20.7198 39.6604 24C39.6604 27.2802 38.8351 30.2395 37.5129 32.3721C36.1888 34.5077 34.3878 35.7859 32.4348 35.7861C30.4817 35.7861 28.6799 34.5079 27.3557 32.3721C26.0336 30.2395 25.2083 27.2802 25.2083 24C25.2083 20.7198 26.0336 17.7605 27.3557 15.6279C28.6799 13.4921 30.4817 12.2139 32.4348 12.2139Z" stroke="#797979" stroke-width="0.428571"/>
</svg>
