<svg width="344" height="156" viewBox="0 0 344 156" fill="none" xmlns="http://www.w3.org/2000/svg">
<rect y="0.110352" width="344" height="155" rx="12" fill="#00A176"/>
<path d="M71.1767 37.1354C69.9517 37.1604 68.9767 36.4104 68.9767 35.2854C68.9767 34.1104 69.6017 33.4854 70.6017 33.3354C72.9017 32.9854 74.3267 31.4854 74.3267 29.2854V28.9354H70.9267C69.7517 28.9354 69.1017 27.8604 69.1017 26.9604C69.1017 26.0604 69.6517 24.9354 70.9267 24.9354H74.2267V24.7104C74.2267 23.2104 75.1017 22.5104 76.6517 22.5104C78.2017 22.5104 79.1017 23.2354 79.1017 24.7104V24.9354H82.5017C83.7767 24.9354 84.3267 26.0604 84.3267 26.9604C84.3267 27.8604 83.6767 28.9354 82.5017 28.9354H79.0017V29.2854C79.0017 29.7104 78.9767 30.1104 78.9267 30.4854C82.7267 30.5854 84.6017 32.4854 84.5517 36.9604H79.8767C80.0017 34.9104 78.9767 33.8604 77.6017 33.9104C76.0767 36.0104 73.5767 37.0854 71.1767 37.1354ZM91.5017 25.0104V40.2604H86.5017V25.0104C86.5017 23.3854 87.6767 22.5354 89.0017 22.5354C90.3267 22.5354 91.5017 23.3854 91.5017 25.0104ZM76.3267 42.1854H90.1267C91.6017 42.1854 92.1767 43.0854 92.1767 44.0854C92.1767 45.1104 91.5767 46.0104 90.1267 46.0104H74.3017C71.5017 46.0104 70.7517 45.0354 70.7517 42.3604V40.4104C70.7517 38.8604 71.9267 38.0854 73.3267 38.0854C74.7267 38.0854 75.8267 38.8854 75.8267 40.4104V41.6854C75.8267 42.0854 75.9517 42.1854 76.3267 42.1854ZM115.459 35.1604H115.584C117.084 35.1604 117.684 36.1854 117.684 37.2104C117.684 38.2604 117.059 39.2604 115.584 39.2604H108.534V46.1354H103.434V39.2604H96.3841C94.9091 39.2604 94.2841 38.2604 94.2841 37.2104C94.2841 36.1854 94.8841 35.1604 96.3841 35.1604H110.309C111.109 33.7854 111.509 32.0104 111.509 29.4604V28.0854C111.509 27.7354 111.284 27.4604 110.884 27.4604H97.3091C95.8091 27.4604 95.1091 26.3354 95.1091 25.3104C95.1091 24.3104 95.7841 23.1604 97.3091 23.1604H112.584C115.534 23.1604 116.434 24.2854 116.434 26.7354V29.1104C116.434 31.5104 116.059 33.5604 115.459 35.1604ZM129.481 33.3604C133.106 33.0354 136.006 31.5354 136.381 28.6854H130.306C128.806 28.6854 128.206 27.6854 128.206 26.6604C128.206 25.6604 128.781 24.6354 130.306 24.6354H136.281C136.356 23.1604 137.381 22.3354 138.956 22.3354C140.531 22.3354 141.531 23.1854 141.631 24.6354H147.606C149.131 24.6354 149.706 25.6604 149.706 26.6604C149.706 27.6854 149.106 28.6854 147.606 28.6854H141.456C141.431 29.2104 141.331 29.6854 141.206 30.1604C145.481 30.0354 149.606 31.9854 150.131 37.4354H145.206C144.656 34.7604 142.156 33.4854 139.081 33.8104C136.881 36.0354 133.506 37.2604 130.406 37.4354C129.031 37.5354 127.906 36.7854 127.756 35.6104C127.606 34.5104 128.256 33.4854 129.481 33.3604ZM141.506 41.4104H148.556C150.056 41.4104 150.656 42.4354 150.656 43.4604C150.656 44.5354 150.031 45.5104 148.556 45.5104H129.356C127.881 45.5104 127.256 44.5354 127.256 43.4604C127.256 42.4354 127.856 41.4104 129.356 41.4104H136.406V38.4604C136.406 36.8354 137.631 36.3354 138.956 36.3354C140.256 36.3354 141.506 36.8604 141.506 38.4604V41.4104ZM173.638 22.5354C174.963 22.5354 175.813 23.3854 175.813 24.6854V46.0104H171.438V35.7604H170.188V46.0104H165.813V24.6854C165.813 23.3854 166.688 22.5354 168.013 22.5354C169.338 22.5354 170.188 23.3854 170.188 24.6854V31.6104H171.438V24.6854C171.438 23.3854 172.313 22.5354 173.638 22.5354ZM158.938 40.8354H162.963C164.413 40.8354 164.838 41.9854 164.838 42.9354C164.838 43.9104 164.388 45.0104 162.963 45.0104H157.113C153.863 45.0104 153.263 44.2354 153.263 41.1104V27.2854C153.263 24.1604 153.863 23.4103 157.113 23.4103H162.388C163.838 23.4103 164.313 24.5603 164.313 25.5104C164.313 26.4854 163.813 27.6354 162.388 27.6354H158.938C158.488 27.6354 158.288 27.7854 158.288 28.3604V40.1104C158.288 40.6854 158.488 40.8354 158.938 40.8354ZM191.41 28.6354V32.2104H198.235C199.685 32.2104 200.26 33.4104 200.26 34.4104C200.26 35.4104 199.71 36.5354 198.235 36.5354H191.41V40.3604C191.41 40.9604 191.56 41.0854 192.135 41.0854H198.71C200.185 41.0854 200.735 42.2104 200.735 43.2354C200.735 44.2604 200.16 45.4604 198.71 45.4604H190.185C187.185 45.4604 186.285 44.3854 186.285 41.5104V27.4854C186.285 24.6104 187.185 23.5354 190.185 23.5354H198.46C199.91 23.5354 200.485 24.7354 200.485 25.7604C200.485 26.7854 199.935 27.9104 198.46 27.9104H192.135C191.56 27.9104 191.41 28.0354 191.41 28.6354ZM218.544 23.2604C219.919 23.5854 220.719 24.9354 220.169 26.5854L213.919 45.4604H208.869L202.494 26.5354C201.944 24.9354 202.894 23.5854 204.269 23.2604C205.669 22.9354 207.194 23.4103 207.644 25.0354L211.494 38.7354L215.294 25.0104C215.744 23.4103 217.144 22.9354 218.544 23.2604ZM227.702 28.6354V32.2104H234.527C235.977 32.2104 236.552 33.4104 236.552 34.4104C236.552 35.4104 236.002 36.5354 234.527 36.5354H227.702V40.3604C227.702 40.9604 227.852 41.0854 228.427 41.0854H235.002C236.477 41.0854 237.027 42.2104 237.027 43.2354C237.027 44.2604 236.452 45.4604 235.002 45.4604H226.477C223.477 45.4604 222.577 44.3854 222.577 41.5104V27.4854C222.577 24.6104 223.477 23.5354 226.477 23.5354H234.752C236.202 23.5354 236.777 24.7354 236.777 25.7604C236.777 26.7854 236.227 27.9104 234.752 27.9104H228.427C227.852 27.9104 227.702 28.0354 227.702 28.6354ZM253.736 23.1354C254.936 23.1354 256.011 23.9853 256.011 25.5104V43.3604C256.011 44.8854 254.686 45.6604 253.561 45.7604C252.361 45.8604 250.811 45.4104 250.286 44.3104L244.186 31.7104V45.4604H239.636V25.6854C239.636 24.1354 240.986 23.3104 242.136 23.1854C243.336 23.0603 244.811 23.5354 245.361 24.6354L251.461 37.1354V25.5104C251.461 23.9853 252.536 23.1354 253.736 23.1354ZM269.035 45.4604H263.835V27.9104H260.01C258.56 27.9104 257.985 26.7104 257.985 25.6854C257.985 24.6604 258.535 23.5354 260.01 23.5354H272.86C274.335 23.5354 274.885 24.6604 274.885 25.6854C274.885 26.7104 274.31 27.9104 272.86 27.9104H269.035V45.4604Z" fill="white"/>
<rect x="190" y="61.1104" width="107" height="26" rx="13" fill="white"/>
<path d="M208.974 68.0908V80.1104H206.467V70.4648H206.401L203.645 72.1914V69.9834L206.617 68.0908H208.974ZM216.911 80.2764C213.906 80.2764 212.08 78.0352 212.08 74.1006C212.08 70.166 213.906 67.9248 216.911 67.9248C219.916 67.9248 221.742 70.1826 221.742 74.1006C221.742 78.0518 219.916 80.2764 216.911 80.2764ZM216.911 78.2178C218.305 78.2178 219.202 76.873 219.185 74.1006C219.185 71.3613 218.305 69.9668 216.911 69.9668C215.516 69.9668 214.636 71.3613 214.636 74.1006C214.62 76.873 215.516 78.2178 216.911 78.2178ZM228.616 80.2764C225.611 80.2764 223.785 78.0352 223.785 74.1006C223.785 70.166 225.611 67.9248 228.616 67.9248C231.621 67.9248 233.447 70.1826 233.447 74.1006C233.447 78.0518 231.621 80.2764 228.616 80.2764ZM228.616 78.2178C230.01 78.2178 230.907 76.873 230.89 74.1006C230.89 71.3613 230.01 69.9668 228.616 69.9668C227.221 69.9668 226.341 71.3613 226.341 74.1006C226.325 76.873 227.221 78.2178 228.616 78.2178ZM253.387 78.1846V79.9609H239.558V78.1846H245.369V75.4619H240.704V73.8018H242.729V69.4854H240.637V67.792H252.225V69.4854H250.1V73.8018H252.159V75.4619H247.477V78.1846H253.387ZM244.854 73.8018H248.008V69.4854H244.854V73.8018ZM267.383 66.5469V77.4043H265.258V66.5469H267.383ZM267.782 79.6787V81.3721H257.256V76.3086H259.398V79.6787H267.782ZM259.099 67.5098C261.423 67.5098 263.233 69.1035 263.233 71.3115C263.233 73.5693 261.423 75.1465 259.099 75.1465C256.775 75.1465 254.965 73.5693 254.965 71.3115C254.965 69.1035 256.775 67.5098 259.099 67.5098ZM259.099 69.3525C257.92 69.3359 257.024 70.083 257.04 71.3115C257.024 72.5732 257.92 73.3037 259.099 73.3037C260.245 73.3037 261.141 72.5732 261.141 71.3115C261.141 70.083 260.245 69.3359 259.099 69.3525ZM282.226 74.333V76.0098H271.535V67.6426H282.11V69.3525H273.693V70.9463H281.761V72.6064H273.693V74.333H282.226ZM283.737 78.1514V79.8779H269.908V78.1514H283.737Z" fill="url(#paint0_linear_4451_52453)"/>
<path d="M80.46 66.2004V75.8904H78.84V66.2004H80.46ZM69.6 73.1604C71.73 72.5154 72.84 70.9254 72.84 69.2604V69.0804H70.02V67.7904H72.84V66.2304H74.49V67.7904H77.28V69.0804H74.46V69.2604C74.46 70.8354 75.6 72.3204 77.73 72.9204L76.92 74.2104C75.39 73.7604 74.295 72.8154 73.68 71.6304C73.08 72.9204 71.97 73.9404 70.41 74.4204L69.6 73.1604ZM71.7 79.1604V75.0204H73.35V77.8404H80.82V79.1604H71.7ZM93.4862 66.9804V68.1504C93.4712 69.3954 93.4712 70.7604 93.1112 72.6204H94.9562V73.9404H89.6762V79.4304H88.0562V73.9404H82.8962V72.6204H91.4612C91.8362 70.8204 91.8512 69.4854 91.8662 68.3004H84.3062V66.9804H93.4862ZM100.302 66.9804C102.327 66.9954 103.872 68.3004 103.872 70.1904C103.872 71.8104 102.732 72.9954 101.112 73.2954V75.2604C102.222 75.2004 103.317 75.1254 104.352 74.9904L104.472 76.1904C101.697 76.6854 98.6675 76.7004 96.4025 76.6704L96.1625 75.3504C97.1675 75.3504 98.3075 75.3354 99.4925 75.3054V73.2954C97.8275 73.0104 96.6875 71.8104 96.7025 70.1904C96.6875 68.3004 98.2025 66.9954 100.302 66.9804ZM98.2925 70.1904C98.2775 71.2854 99.1325 72.0054 100.302 71.9904C101.427 72.0054 102.282 71.2854 102.282 70.1904C102.282 69.0654 101.427 68.3754 100.302 68.3604C99.1325 68.3754 98.2775 69.0654 98.2925 70.1904ZM105.102 79.4004V66.1704H106.752V71.4504H108.672V72.8304H106.752V79.4004H105.102ZM126.175 71.2704V72.6204H124.195V79.3704H122.575V66.1704H124.195V71.2704H126.175ZM114.295 76.1004V67.4604H115.915V74.7504C117.685 74.7354 119.56 74.5704 121.555 74.1804L121.735 75.5304C119.5 75.9954 117.385 76.1154 115.405 76.1004H114.295ZM143.438 76.4604V77.8104H131.348V76.4604H136.568V73.5804H132.668V67.1904H142.058V73.5804H138.158V76.4604H143.438ZM134.258 72.2904H140.438V68.5104H134.258V72.2904ZM155.414 70.9704V72.2604H146.354V66.8904H155.264V68.2104H148.034V70.9704H155.414ZM144.764 75.0204V73.7304H156.884V75.0204H151.604V79.3704H149.984V75.0204H144.764Z" fill="white"/>
<mask id="mask0_4451_52453" style="mask-type:alpha" maskUnits="userSpaceOnUse" x="133" y="100" width="180" height="55">
<rect x="133.803" y="100.11" width="178.557" height="54.46" rx="12" fill="#00A176"/>
</mask>
<g mask="url(#mask0_4451_52453)">
<path d="M148.588 126.538C152.947 116.535 160.76 114.71 169.015 117.055C174.909 110.607 185.755 109.622 193.818 113.043C205.855 118.149 209.503 131.28 205.855 141.129C202.208 150.977 191.723 159.731 175.217 159.731C152.663 159.731 143.429 138.377 148.588 126.538Z" fill="#FFF757" stroke="#282828" stroke-width="0.5" stroke-linecap="round" stroke-linejoin="round"/>
<path d="M164.984 147.962C169.114 147.962 172.462 144.614 172.462 140.484C172.462 136.355 169.114 133.007 164.984 133.007C160.854 133.007 157.506 136.355 157.506 140.484C157.506 144.614 160.854 147.962 164.984 147.962Z" fill="white" stroke="#282828" stroke-width="0.5" stroke-linecap="round" stroke-linejoin="round"/>
<path d="M164.893 143.065C167.452 143.065 169.527 140.99 169.527 138.431C169.527 135.871 167.452 133.796 164.893 133.796C162.333 133.796 160.258 135.871 160.258 138.431C160.258 140.99 162.333 143.065 164.893 143.065Z" fill="#282828"/>
<path d="M165.335 138.059C166.036 137.023 165.865 135.684 164.953 135.067C164.042 134.451 162.736 134.792 162.035 135.828C161.335 136.863 161.506 138.203 162.417 138.819C163.329 139.435 164.635 139.094 165.335 138.059Z" fill="white"/>
<path d="M165.527 141.304C165.248 141.958 164.49 142.272 163.831 142.01C163.173 141.748 162.863 141 163.142 140.349C163.421 139.698 164.179 139.381 164.838 139.643C165.496 139.905 165.806 140.652 165.527 141.304Z" fill="white"/>
<path d="M162.6 140.18C162.838 140.073 162.945 139.796 162.839 139.562C162.733 139.328 162.454 139.225 162.217 139.333C161.979 139.44 161.872 139.717 161.978 139.951C162.084 140.185 162.363 140.288 162.6 140.18Z" fill="white"/>
<path d="M168.279 138.769C168.45 137.671 168.029 136.693 167.339 136.585C166.649 136.478 165.951 137.281 165.78 138.379C165.608 139.477 166.029 140.454 166.719 140.562C167.409 140.67 168.107 139.867 168.279 138.769Z" fill="white"/>
<path d="M178.417 150.45C182.992 150.45 186.701 146.741 186.701 142.166C186.701 137.591 182.992 133.882 178.417 133.882C173.841 133.882 170.133 137.591 170.133 142.166C170.133 146.741 173.841 150.45 178.417 150.45Z" fill="white" stroke="#282828" stroke-width="0.5" stroke-linecap="round" stroke-linejoin="round"/>
<path d="M176.718 144.863C179.551 144.863 181.849 142.565 181.849 139.732C181.849 136.898 179.551 134.601 176.718 134.601C173.884 134.601 171.587 136.898 171.587 139.732C171.587 142.565 173.884 144.863 176.718 144.863Z" fill="#282828"/>
<path d="M177.208 139.32C177.984 138.172 177.795 136.688 176.786 136.006C175.777 135.324 174.33 135.702 173.554 136.849C172.778 137.997 172.967 139.481 173.976 140.163C174.985 140.845 176.432 140.468 177.208 139.32Z" fill="white"/>
<path d="M177.422 142.916C177.115 143.64 176.274 143.991 175.544 143.698C174.813 143.405 174.472 142.582 174.782 141.858C175.092 141.135 175.93 140.783 176.66 141.076C177.391 141.369 177.732 142.192 177.422 142.916Z" fill="white"/>
<path d="M174.447 141.393C174.334 141.659 174.027 141.786 173.761 141.679C173.496 141.572 173.372 141.273 173.482 141.007C173.593 140.742 173.903 140.615 174.168 140.721C174.433 140.828 174.557 141.128 174.447 141.393Z" fill="white"/>
<path d="M180.469 140.108C180.659 138.891 180.194 137.808 179.43 137.689C178.667 137.57 177.894 138.459 177.704 139.676C177.514 140.893 177.979 141.975 178.743 142.095C179.506 142.214 180.279 141.324 180.469 140.108Z" fill="white"/>
<path d="M161.193 147.068C161.026 148.981 162.84 151.93 167.793 152.361C172.745 152.791 176.686 151.238 177.407 148.745C178.127 146.251 176.806 145.205 174.261 144.982C171.72 144.762 170.585 145.626 169.14 145.499C167.694 145.373 166.673 144.456 164.873 144.298C163.074 144.141 161.344 145.355 161.193 147.068Z" fill="#FFAD94" stroke="#282828" stroke-width="0.5" stroke-linecap="round" stroke-linejoin="round"/>
<path d="M168.414 151.379C171.306 151.629 173.784 149.919 173.899 148.631C174.014 147.344 173.689 146.588 172.069 146.444C170.448 146.301 170.249 146.552 168.847 146.43C167.446 146.308 167.336 146.032 165.804 145.899C164.273 145.766 163.848 147.09 163.776 147.883C163.705 148.676 164.08 150.999 168.417 151.376L168.414 151.379Z" fill="#282828" stroke="#282828" stroke-width="0.5" stroke-linecap="round" stroke-linejoin="round"/>
<circle cx="25.1095" cy="25.1095" r="24.8595" transform="matrix(-1 0 0 1 251.094 109.437)" fill="#00A176" stroke="#282828" stroke-width="0.5"/>
<path d="M219.268 107.173C221.289 108.233 224.74 108.939 226.213 109.16L240.732 117.772C238.838 118.213 233.535 118.699 227.475 117.109C219.9 115.122 216.743 105.848 219.268 107.173Z" fill="#003F31" stroke="#282828" stroke-width="0.5" stroke-linecap="round"/>
<path d="M225.388 108.581C225.022 109.591 225.088 110.36 225.437 110.987C225.795 111.627 226.469 112.16 227.403 112.643C228.334 113.125 229.492 113.543 230.781 113.97C231.161 114.096 231.554 114.223 231.954 114.353C232.902 114.66 233.895 114.982 234.887 115.342C235.908 115.712 236.865 116.098 237.748 116.455C238.087 116.592 238.415 116.725 238.733 116.851C239.884 117.308 240.888 117.673 241.758 117.844C242.627 118.016 243.329 117.987 243.896 117.694C244.46 117.403 244.94 116.827 245.313 115.799C246.05 113.763 245.632 111.507 244.323 109.495C243.015 107.483 240.824 105.731 238.054 104.727C235.284 103.724 232.479 103.666 230.185 104.373C227.892 105.08 226.126 106.545 225.388 108.581Z" fill="#00CBCE" stroke="#282828" stroke-width="0.5"/>
<path d="M238.308 104.799C238.272 104.886 238.283 105.027 238.415 105.206C238.544 105.381 238.767 105.556 239.057 105.675C239.348 105.795 239.63 105.826 239.844 105.792C240.064 105.757 240.171 105.664 240.206 105.578C240.242 105.491 240.231 105.35 240.099 105.171C239.97 104.996 239.747 104.821 239.456 104.702C239.166 104.582 238.884 104.551 238.669 104.585C238.45 104.62 238.343 104.713 238.308 104.799Z" fill="#003F31" stroke="#282828" stroke-width="0.5"/>
<path d="M232.978 145.576C237.108 145.576 240.466 141.94 240.466 137.464C240.466 137.368 240.463 137.275 240.455 137.179L233.133 136.896C232.903 138.83 231.352 140.318 229.526 140.318C228.02 140.318 226.713 139.312 226.164 137.891C226.086 138.466 225.953 139.034 225.763 139.594C226.65 143.116 229.608 145.573 232.981 145.573L232.978 145.576Z" fill="white"/>
<path d="M233.293 137.089C232.985 139.03 231.389 140.503 229.526 140.503C228.142 140.503 226.921 139.701 226.249 138.506C226.175 138.874 226.078 139.241 225.956 139.605C226.835 143.015 229.711 145.39 232.977 145.39C237.003 145.39 240.28 141.835 240.28 137.464C240.28 137.427 240.28 137.393 240.28 137.36L233.296 137.093M226.049 136.439H226.075C226.097 138.484 227.633 140.136 229.526 140.136C231.418 140.136 232.821 138.625 232.966 136.707L240.629 137C240.637 137.156 240.651 137.308 240.651 137.464C240.651 142.047 237.215 145.761 232.977 145.761C229.422 145.761 226.438 143.141 225.566 139.59C225.878 138.688 226.056 137.716 226.056 136.696C226.056 136.61 226.045 136.525 226.045 136.439H226.049Z" fill="#282828"/>
<path d="M218.384 144.808C221.486 144.808 224.303 142.69 225.39 139.531C225.709 138.607 225.869 137.654 225.869 136.696C225.869 136.67 225.869 136.644 225.869 136.622L218.818 136.351C218.818 136.351 218.818 136.385 218.818 136.403C218.818 138.567 217.185 140.322 215.178 140.322C213.17 140.322 211.537 138.563 211.537 136.403C211.537 136.299 211.541 136.192 211.552 136.073L210.917 136.047C210.903 136.262 210.895 136.481 210.895 136.696C210.895 141.168 214.254 144.808 218.384 144.808Z" fill="white"/>
<path d="M211.098 136.24C211.091 136.393 211.087 136.545 211.087 136.697C211.087 141.068 214.364 144.624 218.39 144.624C221.414 144.624 224.161 142.553 225.222 139.473C225.522 138.604 225.678 137.706 225.689 136.801L225.363 136.79L219.01 136.545C218.939 138.745 217.251 140.508 215.187 140.508C213.124 140.508 211.361 138.667 211.361 136.4C211.361 136.352 211.361 136.3 211.361 136.248L211.098 136.237M210.753 135.854L211.766 135.892C211.744 136.059 211.729 136.226 211.729 136.4C211.729 138.463 213.276 140.137 215.184 140.137C217.091 140.137 218.639 138.463 218.639 136.4C218.639 136.318 218.631 136.237 218.627 136.155L225.374 136.415L226.049 136.441C226.049 136.526 226.061 136.608 226.061 136.697C226.061 137.717 225.882 138.69 225.571 139.591C224.483 142.746 221.682 144.995 218.386 144.995C214.148 144.995 210.712 141.28 210.712 136.697C210.712 136.411 210.727 136.133 210.753 135.854Z" fill="#282828"/>
<path d="M218.637 136.4C218.637 138.463 217.089 140.137 215.182 140.137C213.275 140.137 211.727 138.463 211.727 136.4C211.727 136.226 211.742 136.059 211.764 135.892L218.626 136.155C218.63 136.237 218.637 136.318 218.637 136.4Z" fill="#282828"/>
<path d="M229.526 140.138C227.629 140.138 226.093 138.486 226.075 136.445L232.966 136.709C232.821 138.627 231.337 140.138 229.526 140.138Z" fill="#282828"/>
<ellipse cx="224.54" cy="146.172" rx="1.71878" ry="2.06253" fill="#282828"/>
<path d="M290.553 115.303C283.856 108.204 272.794 107.535 265.29 113.775L264.986 114.027C263.509 115.256 261.83 116.22 260.025 116.878L258.7 117.361C250.221 120.452 246.385 130.287 250.53 138.303C251.45 140.082 252.016 142.022 252.197 144.017L252.218 144.252C253.028 153.213 260.996 159.791 269.948 158.888L272.213 158.66C274.238 158.456 276.282 158.579 278.268 159.026L280.489 159.526C289.267 161.502 297.97 155.933 299.855 147.135L299.904 146.904C300.323 144.946 301.119 143.087 302.247 141.432C307.329 133.975 304.707 123.749 296.662 119.659L295.405 119.02C293.693 118.149 292.143 116.989 290.824 115.591L290.553 115.303Z" fill="#FFDE3B" stroke="#282828" stroke-width="0.5"/>
<path d="M265.097 151.667C267.793 151.349 269.757 149.208 269.483 146.884C269.209 144.56 266.801 142.934 264.105 143.252C261.408 143.57 259.445 145.712 259.719 148.036C259.993 150.359 262.401 151.985 265.097 151.667Z" fill="#FF4F18" stroke="#282828" stroke-width="0.5" stroke-linecap="round" stroke-linejoin="round"/>
<path d="M292.028 147.705C292.375 145.391 290.479 143.189 287.794 142.786C285.109 142.384 282.651 143.934 282.305 146.248C281.958 148.562 283.853 150.764 286.538 151.166C289.223 151.568 291.681 150.019 292.028 147.705Z" fill="#FF4F18" stroke="#282828" stroke-width="0.5" stroke-linecap="round" stroke-linejoin="round"/>
<path d="M264.404 135.215C263.924 136.322 263.636 137.589 263.604 138.942C263.508 143.339 266.163 146.961 269.538 147.036C272.912 147.111 275.726 143.606 275.822 139.212C275.828 139.025 275.824 138.84 275.818 138.655C275.811 138.428 275.798 138.205 275.776 137.986C275.654 136.706 275.295 135.522 274.757 134.51" fill="white"/>
<path d="M264.404 135.215C263.924 136.322 263.636 137.589 263.604 138.942C263.508 143.339 266.163 146.961 269.538 147.036C272.912 147.111 275.726 143.606 275.822 139.212C275.828 139.025 275.824 138.84 275.818 138.655C275.811 138.428 275.798 138.205 275.776 137.986C275.654 136.706 275.295 135.522 274.757 134.51" stroke="#282828" stroke-width="0.5" stroke-linecap="round" stroke-linejoin="round"/>
<path d="M267.411 135.437C266.76 135.424 266.128 135.348 265.517 135.22C265.154 136.037 264.929 137.041 264.904 138.131C264.843 140.925 266.124 143.22 267.764 143.258C269.405 143.296 270.784 141.056 270.848 138.262C270.848 138.25 270.849 138.238 270.85 138.227C269.608 138.096 268.706 137.739 268.715 137.344C268.724 136.948 269.557 136.661 270.712 136.567C270.613 136.033 270.464 135.537 270.27 135.1C269.367 135.339 268.407 135.459 267.411 135.437Z" fill="#282828"/>
<path d="M264.405 135.215C265.488 132.729 267.554 131.065 269.889 131.118C271.922 131.162 273.692 132.495 274.758 134.51" stroke="#282828" stroke-width="0.5" stroke-linecap="round" stroke-linejoin="round"/>
<path d="M266.892 136.092C267.501 136.22 268.136 136.293 268.786 136.309C269.782 136.331 270.742 136.211 271.646 135.972C272.799 135.666 273.853 135.164 274.761 134.512C273.695 132.5 271.922 131.166 269.892 131.12C267.557 131.069 265.491 132.731 264.408 135.217C265.173 135.61 266.009 135.907 266.898 136.092L266.892 136.092Z" fill="#BEFF74" stroke="#282828" stroke-width="0.5" stroke-linecap="round" stroke-linejoin="round"/>
<path d="M266.604 133.936C266.604 133.936 266.592 135.149 267.412 136.129L266.604 133.936Z" fill="#BEFF74"/>
<path d="M266.604 133.936C266.604 133.936 266.592 135.149 267.412 136.129" stroke="#282828" stroke-width="0.5" stroke-linecap="round" stroke-linejoin="round"/>
<path d="M268.285 134.215C268.285 134.215 268.273 135.428 269.094 136.408L268.285 134.215Z" fill="#BEFF74"/>
<path d="M268.285 134.215C268.285 134.215 268.273 135.428 269.094 136.408" stroke="#282828" stroke-width="0.5" stroke-linecap="round" stroke-linejoin="round"/>
<path d="M275.897 134.743C275.374 135.829 275.037 137.085 274.955 138.438C274.689 142.827 277.204 146.549 280.573 146.753C283.943 146.957 286.888 143.566 287.153 139.176C287.165 138.989 287.17 138.804 287.169 138.62C287.171 138.394 287.167 138.171 287.154 137.95C287.079 136.667 286.768 135.469 286.27 134.438" fill="white"/>
<path d="M275.897 134.743C275.374 135.829 275.037 137.085 274.955 138.438C274.689 142.827 277.204 146.549 280.573 146.753C283.943 146.957 286.888 143.566 287.153 139.176C287.165 138.989 287.17 138.804 287.169 138.62C287.171 138.394 287.167 138.171 287.154 137.95C287.079 136.667 286.768 135.469 286.27 134.438" stroke="#282828" stroke-width="0.5" stroke-linecap="round" stroke-linejoin="round"/>
<path d="M278.857 135.132C278.208 135.093 277.578 134.993 276.974 134.842C276.582 135.646 276.316 136.638 276.251 137.726C276.082 140.517 277.272 142.859 278.911 142.958C280.551 143.057 282.014 140.876 282.183 138.085C282.184 138.073 282.185 138.061 282.185 138.05C280.95 137.869 280.061 137.481 280.085 137.084C280.109 136.686 280.954 136.435 282.113 136.385C282.034 135.846 281.903 135.346 281.728 134.901C280.818 135.104 279.854 135.189 278.857 135.129L278.857 135.132Z" fill="#282828"/>
<path d="M275.896 134.739C277.074 132.296 279.202 130.715 281.534 130.856C283.562 130.979 285.282 132.379 286.269 134.431" stroke="#282828" stroke-width="0.5" stroke-linecap="round" stroke-linejoin="round"/>
<path d="M278.349 135.71C278.953 135.861 279.584 135.961 280.232 136C281.226 136.06 282.19 135.975 283.103 135.772C284.266 135.511 285.341 135.051 286.273 134.433C285.285 132.381 283.566 130.981 281.538 130.858C279.206 130.717 277.077 132.298 275.9 134.744C276.649 135.164 277.474 135.496 278.352 135.713L278.349 135.71Z" fill="#BEFF74" stroke="#282828" stroke-width="0.5" stroke-linecap="round" stroke-linejoin="round"/>
<path d="M278.142 133.546C278.142 133.546 278.083 134.757 278.867 135.769L278.142 133.546Z" fill="#BEFF74"/>
<path d="M278.142 133.546C278.142 133.546 278.083 134.757 278.867 135.769" stroke="#282828" stroke-width="0.5" stroke-linecap="round" stroke-linejoin="round"/>
<path d="M279.815 133.888C279.815 133.888 279.757 135.098 280.54 136.111L279.815 133.888Z" fill="#BEFF74"/>
<path d="M279.815 133.888C279.815 133.888 279.757 135.098 280.54 136.111" stroke="#282828" stroke-width="0.5" stroke-linecap="round" stroke-linejoin="round"/>
<path d="M271.413 148.196C271.413 148.196 274.351 151.811 277.77 146.777" stroke="#282828" stroke-width="0.5" stroke-linecap="round" stroke-linejoin="round"/>
</g>
<rect x="0.5" y="0.610352" width="343" height="154" rx="11.5" stroke="#00A176"/>
<path d="M298.328 22.9845C298.194 14.5018 304.455 10.2174 312.299 13.4245C320.142 16.6316 326.632 26.0841 326.766 34.5668C326.9 43.0494 320.639 47.3338 312.795 44.1268C304.952 40.9197 298.462 31.4671 298.328 22.9845ZM315.577 34.8541L315.444 26.7934L307.979 23.7502L308.111 31.8109L315.577 34.8541Z" fill="#FFDB7A" stroke="#282828" stroke-width="0.7" stroke-miterlimit="10"/>
<path d="M296.888 23.8731C296.754 15.3905 303.016 11.106 310.859 14.3131C318.702 17.5202 325.193 26.9728 325.326 35.4554C325.46 43.9381 319.199 48.2225 311.356 45.0154C303.512 41.8083 297.022 32.3558 296.888 23.8731ZM314.137 35.7428L314.004 27.6821L306.539 24.6388L306.672 32.6995L314.137 35.7428Z" fill="#FFDB7A" stroke="#282828" stroke-width="0.7" stroke-miterlimit="10"/>
<path d="M317.943 24.9863C322.578 31.7604 323.047 39.5029 318.989 42.2796C314.931 45.0564 307.884 41.8159 303.248 35.0419C298.613 28.2678 298.145 20.5254 302.202 17.7486C306.26 14.9718 313.308 18.2123 317.943 24.9863Z" stroke="#282828" stroke-width="0.7" stroke-miterlimit="10"/>
<path d="M34.3785 123.559C25.0022 130.616 26.6668 138.495 38.0927 141.138C49.5186 143.78 66.3802 140.238 75.7565 133.18C85.1328 126.122 83.4683 118.244 72.0424 115.601C60.6165 112.958 43.7549 116.501 34.3785 123.559ZM64.7535 125.311L55.8376 132.014L44.9724 129.491L53.8883 122.788L64.7535 125.311Z" fill="#FFDB7A" stroke="#282828" stroke-width="0.7" stroke-miterlimit="10"/>
<path d="M33.5765 119.762C24.2002 126.82 25.8648 134.698 37.2907 137.341C48.7166 139.984 65.5782 136.441 74.9545 129.383C84.3308 122.325 82.6663 114.447 71.2404 111.804C59.8145 109.161 42.9529 112.704 33.5765 119.762ZM63.9515 121.514L55.0356 128.217L44.1704 125.694L53.0863 118.991L63.9515 121.514Z" fill="#FFDB7A" stroke="#282828" stroke-width="0.7" stroke-miterlimit="10"/>
<path d="M56.0832 133.173C68.1508 130.624 77.059 124.418 75.9802 119.312C74.9014 114.206 64.2441 112.134 52.1765 114.683C40.1089 117.233 31.2007 123.439 32.2795 128.545C33.3583 133.651 44.0156 135.723 56.0832 133.173Z" stroke="#282828" stroke-width="0.7" stroke-miterlimit="10"/>
<path d="M25.9642 91.6246C15.4585 93.5863 13.6271 100.687 21.8778 107.468C30.1284 114.249 45.3173 118.185 55.823 116.223C66.3287 114.262 68.1601 107.161 59.9094 100.38C51.6587 93.5987 36.4699 89.6629 25.9642 91.6246ZM50.0327 105.351L40.0463 107.209L32.2046 100.752L42.191 98.8938L50.0327 105.351Z" fill="#FFDB7A" stroke="#282828" stroke-width="0.7" stroke-miterlimit="10"/>
<path d="M26.8472 88.2027C16.3415 90.1644 14.5101 97.2648 22.7608 104.046C31.0115 110.827 46.2003 114.763 56.706 112.801C67.2118 110.84 69.0432 103.739 60.7925 96.9581C52.5418 90.1769 37.353 86.241 26.8472 88.2027ZM50.9157 101.929L40.9293 103.787L33.0877 97.3303L43.0741 95.4719L50.9157 101.929Z" fill="#FFDB7A" stroke="#282828" stroke-width="0.7" stroke-miterlimit="10"/>
<path d="M39.7771 108.255C50.6532 111.06 60.4323 109.604 61.6192 105.002C62.8062 100.4 54.9515 94.3954 44.0753 91.5901C33.1992 88.7849 23.4201 90.2412 22.2332 94.8431C21.0463 99.4449 28.9009 105.449 39.7771 108.255Z" stroke="#282828" stroke-width="0.7" stroke-miterlimit="10"/>
<path d="M30.6371 52.9643C24.0414 49.7778 20.1452 52.9526 21.9434 60.0483C23.7416 67.144 30.5256 75.4886 37.1213 78.675C43.717 81.8615 47.6132 78.6867 45.815 71.591C44.0168 64.4953 37.2329 56.1507 30.6371 52.9643ZM38.3437 70.3209L32.0766 67.2885L30.3723 60.5381L36.6394 63.5705L38.3437 70.3209Z" fill="#FFDB7A" stroke="#282828" stroke-width="0.7" stroke-miterlimit="10"/>
<path d="M32.5148 51.435C25.9191 48.2485 22.0229 51.4233 23.8211 58.519C25.6193 65.6147 32.4032 73.9593 38.999 77.1457C45.5947 80.3322 49.4909 77.1574 47.6927 70.0617C45.8945 62.966 39.1105 54.6214 32.5148 51.435ZM40.2214 68.7916L33.9543 65.7592L32.25 59.0088L38.5171 62.0412L40.2214 68.7916Z" fill="#FFDB7A" stroke="#282828" stroke-width="0.7" stroke-miterlimit="10"/>
<path d="M31.5032 67.7564C36.3663 73.7245 42.3556 76.8945 44.8807 74.8369C47.4059 72.7793 45.5106 66.2732 40.6476 60.3052C35.7846 54.3371 29.7952 51.167 27.2701 53.2246C24.745 55.2822 26.6402 61.7883 31.5032 67.7564Z" stroke="#282828" stroke-width="0.7" stroke-miterlimit="10"/>
<defs>
<linearGradient id="paint0_linear_4451_52453" x1="243.5" y1="63.1104" x2="243.5" y2="85.1104" gradientUnits="userSpaceOnUse">
<stop stop-color="#00A176"/>
<stop offset="0.264423" stop-color="#008F69"/>
<stop offset="0.567308" stop-color="#008562"/>
<stop offset="1" stop-color="#005C44"/>
</linearGradient>
</defs>
</svg>
