<svg width="344" height="156" viewBox="0 0 344 156" fill="none" xmlns="http://www.w3.org/2000/svg">
<rect y="0.110352" width="344" height="155" rx="12" fill="#00A176"/>
<path d="M40.6942 45.3524V27.1134C40.6942 25.5264 41.7982 24.8134 43.0862 24.8134C44.3742 24.8134 45.4782 25.5264 45.4782 27.1134V45.3524H40.6942ZM53.1678 45.3524H48.4988V32.1734C48.4988 30.6554 49.6028 29.8734 50.8218 29.8734C51.7188 29.8734 52.5698 30.3104 52.9608 31.1384C53.8578 30.3104 55.0998 29.8734 56.3188 29.8734C59.2398 29.8734 61.5629 31.3224 61.5629 36.1754V45.3524H56.8249V35.8994C56.8249 34.3354 55.7898 33.8064 55.0079 33.8064C54.2258 33.8064 53.1678 34.3354 53.1678 35.8994V45.3524ZM75.2316 29.9884C76.4276 30.3104 77.1866 31.5754 76.7036 32.9554L72.3566 45.3524H67.5726L63.1106 32.9324C62.6276 31.5754 63.4786 30.3334 64.6746 29.9884C65.8936 29.6434 67.3196 30.1034 67.7336 31.5754L70.0336 39.6254L72.2646 31.5524C72.6556 30.1494 74.0126 29.6664 75.2316 29.9884ZM78.797 26.9294C78.797 25.4114 79.901 24.8134 81.189 24.8134C82.477 24.8134 83.581 25.4114 83.581 26.9294C83.581 28.4474 82.477 29.0454 81.189 29.0454C79.901 29.0454 78.797 28.4474 78.797 26.9294ZM78.82 45.3524V32.3344C78.82 30.7474 79.901 30.0344 81.189 30.0344C82.477 30.0344 83.558 30.7474 83.558 32.3344V45.3524H78.82ZM88.2127 41.0054V34.5194H87.4537C86.0047 34.5194 85.4297 33.5994 85.4297 32.6334C85.4297 31.6904 85.9817 30.7014 87.4537 30.7014H88.2127V27.9184C88.2127 26.3544 89.3397 25.6414 90.4897 25.6414C91.6397 25.6414 92.7667 26.3544 92.7667 27.9184V30.7014H94.1237C95.5957 30.7014 96.1477 31.6904 96.1477 32.6334C96.1477 33.5994 95.5727 34.5194 94.1237 34.5194H92.7667V40.9134C92.7667 41.6034 93.1117 41.7644 93.5027 41.7874C93.8477 41.8104 94.0547 41.6954 94.5147 41.6954C95.2737 41.6954 95.9177 42.2014 96.0787 42.9604C96.2857 43.9034 95.8947 44.7314 95.2507 45.1454C94.7217 45.4904 93.8247 45.7204 93.0427 45.7204C89.9837 45.7204 88.2127 44.4784 88.2127 41.0054ZM104.74 45.7204C101.267 45.7204 97.6556 44.1564 97.6556 39.1884V36.2444C97.6556 31.3454 101.267 29.8734 104.211 29.8734C107.408 29.8734 110.559 31.1154 110.559 37.6704C110.559 38.0614 110.513 38.7054 110.444 39.0964H102.21V39.1194C102.21 41.3044 103.728 41.8334 104.832 41.8334C105.959 41.8334 106.442 41.7414 107.063 41.5344C107.408 41.4194 107.753 41.2354 108.144 41.1894C108.926 41.0974 109.662 41.3734 109.961 42.0634C110.444 43.1904 109.892 44.1564 108.788 44.8004C108.052 45.2374 106.419 45.7204 104.74 45.7204ZM104.234 33.5994C103.222 33.5994 102.233 34.1054 102.21 36.0834H106.097C106.166 34.1054 105.246 33.5994 104.234 33.5994ZM124.884 45.3524H120.146V28.8154C120.146 26.1704 120.974 25.1814 123.734 25.1814H131.393C132.727 25.1814 133.256 26.2854 133.256 27.2284C133.256 28.1714 132.75 29.2064 131.393 29.2064H125.551C125.022 29.2064 124.884 29.3214 124.884 29.8734V33.5534H130.795C132.129 33.5534 132.658 34.6574 132.658 35.6004C132.658 36.5434 132.152 37.5784 130.795 37.5784H124.884V45.3524ZM139.425 45.3524H134.756V32.1734C134.756 30.6554 135.86 29.8734 137.079 29.8734C137.976 29.8734 138.827 30.3104 139.218 31.1614C140.069 30.3564 141.15 29.8734 142.277 29.8734C142.622 29.8734 143.013 29.9194 143.358 30.0574C144.232 30.4254 144.738 31.3454 144.577 32.4264C144.416 33.5074 143.588 34.1974 142.576 34.1974C142.254 34.1974 141.84 34.1744 141.518 34.1974C140.253 34.2894 139.494 35.0024 139.425 36.1524V45.3524ZM146.334 26.9294C146.334 25.4114 147.438 24.8134 148.726 24.8134C150.014 24.8134 151.118 25.4114 151.118 26.9294C151.118 28.4474 150.014 29.0454 148.726 29.0454C147.438 29.0454 146.334 28.4474 146.334 26.9294ZM146.357 45.3524V32.3344C146.357 30.7474 147.438 30.0344 148.726 30.0344C150.014 30.0344 151.095 30.7474 151.095 32.3344V45.3524H146.357ZM160.856 45.7204C157.383 45.7204 153.772 44.1564 153.772 39.1884V36.2444C153.772 31.3454 157.383 29.8734 160.327 29.8734C163.524 29.8734 166.675 31.1154 166.675 37.6704C166.675 38.0614 166.629 38.7054 166.56 39.0964H158.326V39.1194C158.326 41.3044 159.844 41.8334 160.948 41.8334C162.075 41.8334 162.558 41.7414 163.179 41.5344C163.524 41.4194 163.869 41.2354 164.26 41.1894C165.042 41.0974 165.778 41.3734 166.077 42.0634C166.56 43.1904 166.008 44.1564 164.904 44.8004C164.168 45.2374 162.535 45.7204 160.856 45.7204ZM160.35 33.5994C159.338 33.5994 158.349 34.1054 158.326 36.0834H162.213C162.282 34.1054 161.362 33.5994 160.35 33.5994ZM174.002 45.3524H169.333V32.1734C169.333 30.6554 170.437 29.8734 171.656 29.8734C172.553 29.8734 173.404 30.3104 173.795 31.1384C174.692 30.3104 175.934 29.8734 177.153 29.8734C180.074 29.8734 182.397 31.3224 182.397 36.1754V45.3524H177.659V35.8994C177.659 34.3354 176.624 33.8064 175.842 33.8064C175.06 33.8064 174.002 34.3354 174.002 35.8994V45.3524ZM198.332 27.1134V45.3524H194.675L194.445 43.8574C193.548 45.0304 192.237 45.7434 190.558 45.7434C187.522 45.7434 184.946 44.2484 184.946 39.3954V36.2214C184.946 31.3684 187.522 29.8734 190.558 29.8734C191.823 29.8734 192.858 30.2874 193.663 30.9544V27.1134C193.663 25.5954 194.79 24.8134 196.009 24.8134C197.228 24.8134 198.332 25.5954 198.332 27.1134ZM189.684 35.8994V39.7174C189.684 41.2814 190.857 41.8104 191.662 41.8104C192.467 41.8104 193.663 41.2814 193.663 39.7174V35.7844C193.663 34.3124 192.444 33.8064 191.662 33.8064C190.857 33.8064 189.684 34.3354 189.684 35.8994ZM205.663 34.3814C205.663 34.8874 206.1 35.1634 207.043 35.4854L208.86 36.1064C211.528 37.0264 212.655 38.5214 212.655 40.7294C212.655 44.3864 209.803 45.7204 206.445 45.7204C204.881 45.7204 202.926 45.4444 201.707 44.2944C200.948 43.5814 200.557 42.4774 201.201 41.5114C201.523 41.0284 202.075 40.7984 202.673 40.7984C203.363 40.7984 203.823 41.0744 204.168 41.3504C204.743 41.7874 205.686 42.0634 206.583 42.0634C207.48 42.0634 208.009 41.7184 208.009 41.1434C208.009 40.5684 207.572 40.2464 205.87 39.6484L204.283 39.0964C201.822 38.2454 200.902 36.5204 200.902 34.5884C200.902 31.7594 203.271 29.8734 206.813 29.8734C208.653 29.8734 209.964 30.3334 210.838 30.8624C211.758 31.4144 212.402 32.3804 212.08 33.4384C211.804 34.3124 211.114 34.6574 210.355 34.6574C209.987 34.6574 209.527 34.4964 209.343 34.3584C208.63 33.7834 207.871 33.5304 206.882 33.5304C206.031 33.5304 205.663 33.9214 205.663 34.3814ZM226.515 29.8734V33.1624H232.794C234.128 33.1624 234.657 34.2664 234.657 35.1864C234.657 36.1064 234.151 37.1414 232.794 37.1414H226.515V40.6604C226.515 41.2124 226.653 41.3274 227.182 41.3274H233.231C234.588 41.3274 235.094 42.3624 235.094 43.3054C235.094 44.2484 234.565 45.3524 233.231 45.3524H225.388C222.628 45.3524 221.8 44.3634 221.8 41.7184V28.8154C221.8 26.1704 222.628 25.1814 225.388 25.1814H233.001C234.335 25.1814 234.864 26.2854 234.864 27.2284C234.864 28.1714 234.358 29.2064 233.001 29.2064H227.182C226.653 29.2064 226.515 29.3214 226.515 29.8734ZM251.517 24.9284C252.782 25.2274 253.518 26.4694 253.012 27.9874L247.262 45.3524H242.616L236.751 27.9414C236.245 26.4694 237.119 25.2274 238.384 24.9284C239.672 24.6294 241.075 25.0663 241.489 26.5614L245.031 39.1654L248.527 26.5384C248.941 25.0663 250.229 24.6294 251.517 24.9284ZM259.981 29.8734V33.1624H266.26C267.594 33.1624 268.123 34.2664 268.123 35.1864C268.123 36.1064 267.617 37.1414 266.26 37.1414H259.981V40.6604C259.981 41.2124 260.119 41.3274 260.648 41.3274H266.697C268.054 41.3274 268.56 42.3624 268.56 43.3054C268.56 44.2484 268.031 45.3524 266.697 45.3524H258.854C256.094 45.3524 255.266 44.3634 255.266 41.7184V28.8154C255.266 26.1704 256.094 25.1814 258.854 25.1814H266.467C267.801 25.1814 268.33 26.2854 268.33 27.2284C268.33 28.1714 267.824 29.2064 266.467 29.2064H260.648C260.119 29.2064 259.981 29.3214 259.981 29.8734ZM283.971 24.8134C285.075 24.8134 286.064 25.5954 286.064 26.9984V43.4204C286.064 44.8234 284.845 45.5364 283.81 45.6284C282.706 45.7204 281.28 45.3064 280.797 44.2944L275.185 32.7024V45.3524H270.999V27.1594C270.999 25.7334 272.241 24.9744 273.299 24.8594C274.403 24.7444 275.76 25.1814 276.266 26.1934L281.878 37.6934V26.9984C281.878 25.5954 282.867 24.8134 283.971 24.8134ZM298.084 45.3524H293.3V29.2064H289.781C288.447 29.2064 287.918 28.1024 287.918 27.1594C287.918 26.2164 288.424 25.1814 289.781 25.1814H301.603C302.96 25.1814 303.466 26.2164 303.466 27.1594C303.466 28.1024 302.937 29.2064 301.603 29.2064H298.084V45.3524Z" fill="white"/>
<rect x="63" y="59" width="89" height="28" rx="14" fill="white"/>
<path d="M77.6153 79.17C75.0993 79.17 73.2633 77.691 73.2293 75.634H75.6433C75.6943 76.552 76.5613 77.198 77.6153 77.198C78.8563 77.198 79.7403 76.314 79.7233 75.056C79.7403 73.798 78.8393 72.897 77.5813 72.914C76.6633 72.897 76.0343 73.237 75.6773 73.9H73.4333L74.0793 66.964H81.4573V69.038H76.1193L75.8133 72.064H75.8813C76.3403 71.469 77.2413 71.044 78.2953 71.044C80.5053 71.044 82.1543 72.693 82.1373 74.988C82.1543 77.436 80.3013 79.17 77.6153 79.17ZM89.0105 79.17C86.0015 79.17 84.1825 76.926 84.1825 72.982C84.1825 69.055 86.0185 66.811 89.0105 66.828C92.0025 66.811 93.8385 69.072 93.8385 72.982C93.8385 76.943 92.0195 79.17 89.0105 79.17ZM86.7325 72.982C86.7155 75.77 87.6165 77.096 89.0105 77.096C90.4045 77.096 91.3055 75.77 91.2885 72.982C91.2885 70.245 90.4045 68.868 89.0105 68.868C87.6335 68.868 86.7325 70.245 86.7325 72.982ZM100.526 79V66.964H105.218C107.972 66.981 109.536 68.664 109.536 71.044C109.536 73.424 107.938 75.09 105.184 75.09H103.008V79H100.526ZM103.008 73.084H104.776C106.255 73.067 106.969 72.234 106.952 71.044C106.969 69.837 106.255 69.021 104.776 69.038H103.008V73.084ZM115.479 79.17C112.742 79.17 111.042 77.3 111.025 74.512C111.042 71.741 112.742 69.871 115.479 69.854C118.199 69.871 119.882 71.741 119.899 74.512C119.882 77.3 118.199 79.17 115.479 79.17ZM113.541 74.512C113.524 76.093 114.187 77.266 115.479 77.266C116.737 77.266 117.4 76.093 117.383 74.512C117.4 72.931 116.737 71.741 115.479 71.758C114.187 71.741 113.524 72.931 113.541 74.512ZM121.909 79V69.99H124.357V79H121.909ZM121.773 67.542C121.79 66.862 122.385 66.301 123.133 66.318C123.864 66.301 124.459 66.862 124.459 67.542C124.459 68.239 123.864 68.8 123.133 68.8C122.385 68.8 121.79 68.239 121.773 67.542ZM129.222 73.764V79H126.774V69.99H129.12V71.554H129.222C129.63 70.517 130.599 69.871 131.942 69.854C133.812 69.871 135.053 71.146 135.036 73.254V79H132.588V73.696C132.588 72.574 131.993 71.911 130.956 71.894C129.936 71.911 129.239 72.591 129.222 73.764ZM142.177 69.99V71.826H140.477V76.246C140.477 76.943 140.834 77.13 141.327 77.13C141.582 77.147 142.007 77.113 142.313 77.096V79.034C142.041 79.068 141.599 79.119 141.021 79.136C139.219 79.119 138.012 78.32 138.029 76.552V71.826H136.771V69.99H138.029V67.814H140.477V69.99H142.177Z" fill="url(#paint0_linear_4454_55460)"/>
<path d="M185.592 62.58V63.924H184.052V70H182.288V63.924H181.196V62.58H182.288V61.88C182.302 60.424 183.198 59.64 184.612 59.64C185.032 59.64 185.41 59.682 185.732 59.752V61.124C185.438 61.082 185.228 61.082 185.116 61.068C184.388 61.082 184.038 61.362 184.052 62.02V62.58H185.592ZM190.315 70.14C188.131 70.154 186.745 68.614 186.759 66.332C186.745 64.008 188.131 62.482 190.315 62.468C192.471 62.482 193.857 64.008 193.871 66.332C193.857 68.614 192.471 70.154 190.315 70.14ZM188.523 66.304C188.509 67.676 189.111 68.754 190.315 68.74C191.505 68.754 192.093 67.676 192.107 66.304C192.093 64.946 191.505 63.854 190.315 63.868C189.111 63.854 188.509 64.946 188.523 66.304ZM195.697 70V62.58H197.377V63.812H197.461C197.727 62.958 198.441 62.468 199.281 62.468C199.491 62.468 199.771 62.482 199.925 62.524V64.12C199.771 64.064 199.407 64.022 199.113 64.008C198.147 64.022 197.433 64.68 197.433 65.632V70H195.697ZM205.346 70V60.088H207.082V63.784H207.166C207.432 63.266 207.964 62.482 209.266 62.468C210.988 62.482 212.346 63.826 212.346 66.304C212.346 68.74 211.03 70.126 209.294 70.14C208.006 70.126 207.432 69.37 207.166 68.824H207.054V70H205.346ZM207.054 66.276C207.04 67.732 207.684 68.698 208.79 68.712C209.952 68.698 210.568 67.69 210.582 66.276C210.568 64.904 209.966 63.91 208.79 63.896C207.67 63.91 207.04 64.848 207.054 66.276ZM217.441 70.14C215.257 70.154 213.871 68.614 213.885 66.332C213.871 64.008 215.257 62.482 217.441 62.468C219.597 62.482 220.983 64.008 220.997 66.332C220.983 68.614 219.597 70.154 217.441 70.14ZM215.649 66.304C215.635 67.676 216.237 68.754 217.441 68.74C218.631 68.754 219.219 67.676 219.233 66.304C219.219 64.946 218.631 63.854 217.441 63.868C216.237 63.854 215.635 64.946 215.649 66.304ZM226.52 62.58V63.924H225.064V67.76C225.064 68.488 225.414 68.628 225.848 68.628C226.058 68.642 226.394 68.614 226.632 68.6V70.028C226.408 70.07 226.072 70.098 225.624 70.112C224.322 70.098 223.314 69.454 223.328 68.068V63.924H222.264V62.58H223.328V60.788H225.064V62.58H226.52ZM230.238 65.66V70H228.502V60.088H230.21V63.84H230.294C230.644 63 231.358 62.482 232.506 62.468C234.046 62.482 235.054 63.476 235.054 65.268V70H233.318V65.548C233.318 64.54 232.772 63.952 231.862 63.952C230.91 63.952 230.238 64.568 230.238 65.66ZM182.876 86.772C182.54 86.786 182.204 86.772 181.98 86.744V85.344C182.19 85.372 182.498 85.372 182.708 85.372C183.142 85.372 183.506 85.344 183.8 84.56L183.94 84.168L181.252 76.58H183.1L184.808 82.18H184.892L186.628 76.58H188.476L185.48 84.896C185.06 86.086 184.276 86.786 182.876 86.772ZM193.049 84.14C190.865 84.154 189.479 82.614 189.493 80.332C189.479 78.008 190.865 76.482 193.049 76.468C195.205 76.482 196.591 78.008 196.605 80.332C196.591 82.614 195.205 84.154 193.049 84.14ZM191.257 80.304C191.243 81.676 191.845 82.754 193.049 82.74C194.239 82.754 194.827 81.676 194.841 80.304C194.827 78.946 194.239 77.854 193.049 77.868C191.845 77.854 191.243 78.946 191.257 80.304ZM203.164 80.864V76.58H204.9V84H203.22V82.684H203.136C202.8 83.51 202.03 84.098 200.896 84.084C199.44 84.098 198.432 83.09 198.432 81.312V76.58H200.168V81.032C200.168 81.984 200.742 82.572 201.568 82.572C202.352 82.572 203.164 82.012 203.164 80.864ZM213.849 84.14C211.819 84.14 210.573 82.95 210.573 81.368C210.573 80.206 211.329 79.492 212.435 78.722C211.861 78.022 211.413 77.308 211.413 76.412C211.413 75.026 212.449 73.976 214.017 73.976C215.571 73.976 216.523 75.012 216.537 76.216C216.523 77.168 216.033 77.882 215.221 78.484L214.577 78.96L216.383 81.074C216.649 80.584 216.817 80.01 216.817 79.352H218.301C218.315 80.71 217.937 81.676 217.447 82.32L218.889 84H217.013L216.369 83.258C215.669 83.874 214.717 84.14 213.849 84.14ZM212.281 81.284C212.281 82.082 212.911 82.712 213.905 82.712C214.423 82.712 214.969 82.53 215.431 82.18L213.359 79.828L213.205 79.94C212.547 80.43 212.281 80.948 212.281 81.284ZM212.981 76.44C212.967 76.902 213.275 77.364 213.695 77.896L214.269 77.504C214.773 77.154 215.053 76.804 215.053 76.3C215.053 75.866 214.661 75.404 214.045 75.404C213.401 75.404 212.967 75.908 212.981 76.44ZM225.118 86.772C224.782 86.786 224.446 86.772 224.222 86.744V85.344C224.432 85.372 224.74 85.372 224.95 85.372C225.384 85.372 225.748 85.344 226.042 84.56L226.182 84.168L223.494 76.58H225.342L227.05 82.18H227.134L228.87 76.58H230.718L227.722 84.896C227.302 86.086 226.518 86.786 225.118 86.772ZM235.291 84.14C233.107 84.154 231.721 82.614 231.735 80.332C231.721 78.008 233.107 76.482 235.291 76.468C237.447 76.482 238.833 78.008 238.847 80.332C238.833 82.614 237.447 84.154 235.291 84.14ZM233.499 80.304C233.485 81.676 234.087 82.754 235.291 82.74C236.481 82.754 237.069 81.676 237.083 80.304C237.069 78.946 236.481 77.854 235.291 77.868C234.087 77.854 233.485 78.946 233.499 80.304ZM245.406 80.864V76.58H247.142V84H245.462V82.684H245.378C245.042 83.51 244.272 84.098 243.138 84.084C241.682 84.098 240.674 83.09 240.674 81.312V76.58H242.41V81.032C242.41 81.984 242.984 82.572 243.81 82.572C244.594 82.572 245.406 82.012 245.406 80.864ZM249.304 84V76.58H250.984V77.812H251.068C251.334 76.958 252.048 76.468 252.888 76.468C253.098 76.468 253.378 76.482 253.532 76.524V78.12C253.378 78.064 253.014 78.022 252.72 78.008C251.754 78.022 251.04 78.68 251.04 79.632V84H249.304ZM262.621 76.58V77.924H261.081V84H259.317V77.924H258.225V76.58H259.317V75.88C259.331 74.424 260.227 73.64 261.641 73.64C262.061 73.64 262.439 73.682 262.761 73.752V75.124C262.467 75.082 262.257 75.082 262.145 75.068C261.417 75.082 261.067 75.362 261.081 76.02V76.58H262.621ZM264.369 84V76.58H266.049V77.812H266.133C266.399 76.958 267.113 76.468 267.953 76.468C268.163 76.468 268.443 76.482 268.597 76.524V78.12C268.443 78.064 268.079 78.022 267.785 78.008C266.819 78.022 266.105 78.68 266.105 79.632V84H264.369ZM270.115 84V76.58H271.851V84H270.115ZM269.975 74.564C269.975 74.046 270.437 73.626 270.983 73.612C271.543 73.626 271.991 74.046 271.991 74.564C271.991 75.096 271.543 75.516 270.983 75.516C270.437 75.516 269.975 75.096 269.975 74.564ZM277.291 84.14C275.065 84.154 273.693 82.656 273.707 80.332C273.693 78.036 275.093 76.482 277.207 76.468C279.027 76.482 280.595 77.616 280.595 80.22V80.78H275.415C275.457 82.054 276.185 82.796 277.319 82.796C278.089 82.796 278.593 82.46 278.831 82.012H280.539C280.217 83.3 279.027 84.154 277.291 84.14ZM275.415 79.576H278.915C278.915 78.582 278.243 77.84 277.235 77.84C276.185 77.84 275.485 78.624 275.415 79.576ZM284.19 79.66V84H282.454V76.58H284.106V77.84H284.218C284.554 77 285.31 76.482 286.43 76.468C287.956 76.482 288.964 77.49 288.95 79.268V84H287.214V79.548C287.228 78.54 286.682 77.952 285.758 77.952C284.848 77.952 284.19 78.568 284.19 79.66ZM293.885 84.14C292.121 84.126 290.805 82.74 290.805 80.304C290.805 77.826 292.163 76.482 293.885 76.468C295.187 76.482 295.733 77.266 296.013 77.784H296.069V74.088H297.805V84H296.097V82.824H296.013C295.719 83.37 295.145 84.126 293.885 84.14ZM292.597 80.276C292.583 81.69 293.199 82.698 294.361 82.712C295.467 82.698 296.111 81.732 296.097 80.276C296.111 78.848 295.481 77.91 294.361 77.896C293.185 77.91 292.583 78.904 292.597 80.276ZM302.172 74.088L302.004 81.088H300.464L300.296 74.088H302.172ZM300.156 83.048C300.156 82.474 300.646 81.998 301.22 81.984C301.794 81.998 302.284 82.474 302.284 83.048C302.284 83.636 301.794 84.112 301.22 84.112C300.646 84.112 300.156 83.636 300.156 83.048Z" fill="white"/>
<mask id="mask0_4454_55460" style="mask-type:alpha" maskUnits="userSpaceOnUse" x="133" y="100" width="180" height="55">
<rect x="133.803" y="100.11" width="178.557" height="54.46" rx="12" fill="#00A176"/>
</mask>
<g mask="url(#mask0_4454_55460)">
<path d="M148.588 126.538C152.947 116.535 160.76 114.71 169.015 117.055C174.909 110.607 185.755 109.622 193.818 113.043C205.855 118.149 209.503 131.28 205.855 141.129C202.208 150.977 191.723 159.731 175.217 159.731C152.663 159.731 143.429 138.377 148.588 126.538Z" fill="#FFF757" stroke="#282828" stroke-width="0.5" stroke-linecap="round" stroke-linejoin="round"/>
<path d="M164.984 147.962C169.114 147.962 172.462 144.614 172.462 140.484C172.462 136.355 169.114 133.007 164.984 133.007C160.854 133.007 157.506 136.355 157.506 140.484C157.506 144.614 160.854 147.962 164.984 147.962Z" fill="white" stroke="#282828" stroke-width="0.5" stroke-linecap="round" stroke-linejoin="round"/>
<path d="M164.893 143.065C167.452 143.065 169.527 140.99 169.527 138.431C169.527 135.871 167.452 133.796 164.893 133.796C162.333 133.796 160.258 135.871 160.258 138.431C160.258 140.99 162.333 143.065 164.893 143.065Z" fill="#282828"/>
<path d="M165.335 138.059C166.036 137.023 165.865 135.684 164.953 135.067C164.042 134.451 162.736 134.792 162.035 135.828C161.335 136.863 161.506 138.203 162.417 138.819C163.329 139.435 164.635 139.094 165.335 138.059Z" fill="white"/>
<path d="M165.527 141.304C165.248 141.958 164.49 142.272 163.831 142.01C163.173 141.748 162.863 141 163.142 140.349C163.421 139.698 164.179 139.381 164.838 139.643C165.496 139.905 165.806 140.652 165.527 141.304Z" fill="white"/>
<path d="M162.6 140.18C162.838 140.073 162.945 139.796 162.839 139.562C162.733 139.328 162.454 139.225 162.217 139.333C161.979 139.44 161.872 139.717 161.978 139.951C162.084 140.185 162.363 140.288 162.6 140.18Z" fill="white"/>
<path d="M168.279 138.769C168.45 137.671 168.029 136.693 167.339 136.585C166.649 136.478 165.951 137.281 165.78 138.379C165.608 139.477 166.029 140.454 166.719 140.562C167.409 140.67 168.107 139.867 168.279 138.769Z" fill="white"/>
<path d="M178.417 150.45C182.992 150.45 186.701 146.741 186.701 142.166C186.701 137.591 182.992 133.882 178.417 133.882C173.841 133.882 170.133 137.591 170.133 142.166C170.133 146.741 173.841 150.45 178.417 150.45Z" fill="white" stroke="#282828" stroke-width="0.5" stroke-linecap="round" stroke-linejoin="round"/>
<path d="M176.718 144.863C179.551 144.863 181.849 142.565 181.849 139.732C181.849 136.898 179.551 134.601 176.718 134.601C173.884 134.601 171.587 136.898 171.587 139.732C171.587 142.565 173.884 144.863 176.718 144.863Z" fill="#282828"/>
<path d="M177.208 139.32C177.984 138.172 177.795 136.688 176.786 136.006C175.777 135.324 174.33 135.702 173.554 136.849C172.778 137.997 172.967 139.481 173.976 140.163C174.985 140.845 176.432 140.468 177.208 139.32Z" fill="white"/>
<path d="M177.422 142.916C177.115 143.64 176.274 143.991 175.544 143.698C174.813 143.405 174.472 142.582 174.782 141.858C175.092 141.135 175.93 140.783 176.66 141.076C177.391 141.369 177.732 142.192 177.422 142.916Z" fill="white"/>
<path d="M174.447 141.393C174.334 141.659 174.027 141.786 173.761 141.679C173.496 141.572 173.372 141.273 173.482 141.007C173.593 140.742 173.903 140.615 174.168 140.721C174.433 140.828 174.557 141.128 174.447 141.393Z" fill="white"/>
<path d="M180.469 140.108C180.659 138.891 180.194 137.808 179.43 137.689C178.667 137.57 177.894 138.459 177.704 139.676C177.514 140.893 177.979 141.975 178.743 142.095C179.506 142.214 180.279 141.324 180.469 140.108Z" fill="white"/>
<path d="M161.193 147.068C161.026 148.981 162.84 151.93 167.793 152.361C172.745 152.791 176.686 151.238 177.407 148.745C178.127 146.251 176.806 145.205 174.261 144.982C171.72 144.762 170.585 145.626 169.14 145.499C167.694 145.373 166.673 144.456 164.873 144.298C163.074 144.141 161.344 145.355 161.193 147.068Z" fill="#FFAD94" stroke="#282828" stroke-width="0.5" stroke-linecap="round" stroke-linejoin="round"/>
<path d="M168.414 151.379C171.306 151.629 173.784 149.919 173.899 148.631C174.014 147.344 173.689 146.588 172.069 146.444C170.448 146.301 170.249 146.552 168.847 146.43C167.446 146.308 167.336 146.032 165.804 145.899C164.273 145.766 163.848 147.09 163.776 147.883C163.705 148.676 164.08 150.999 168.417 151.376L168.414 151.379Z" fill="#282828" stroke="#282828" stroke-width="0.5" stroke-linecap="round" stroke-linejoin="round"/>
<circle cx="25.1095" cy="25.1095" r="24.8595" transform="matrix(-1 0 0 1 251.094 109.437)" fill="#00A176" stroke="#282828" stroke-width="0.5"/>
<path d="M219.268 107.173C221.288 108.233 224.739 108.939 226.212 109.16L240.732 117.772C238.838 118.213 233.535 118.699 227.475 117.109C219.899 115.122 216.743 105.848 219.268 107.173Z" fill="#003F31" stroke="#282828" stroke-width="0.5" stroke-linecap="round"/>
<path d="M225.388 108.581C225.022 109.591 225.088 110.36 225.437 110.987C225.794 111.627 226.469 112.16 227.403 112.643C228.334 113.125 229.492 113.543 230.78 113.97C231.161 114.096 231.553 114.223 231.954 114.353C232.901 114.66 233.894 114.982 234.887 115.342C235.908 115.712 236.864 116.098 237.748 116.455C238.087 116.592 238.415 116.725 238.732 116.851C239.884 117.308 240.887 117.673 241.757 117.844C242.627 118.016 243.328 117.987 243.896 117.694C244.46 117.403 244.94 116.827 245.312 115.799C246.05 113.763 245.631 111.507 244.323 109.495C243.015 107.483 240.823 105.731 238.054 104.727C235.284 103.724 232.479 103.666 230.185 104.373C227.892 105.08 226.126 106.545 225.388 108.581Z" fill="#00CBCE" stroke="#282828" stroke-width="0.5"/>
<path d="M238.307 104.799C238.272 104.886 238.283 105.027 238.415 105.206C238.544 105.381 238.766 105.556 239.057 105.675C239.348 105.795 239.629 105.826 239.844 105.792C240.064 105.757 240.17 105.664 240.206 105.578C240.242 105.491 240.23 105.35 240.098 105.171C239.969 104.996 239.747 104.821 239.456 104.702C239.165 104.582 238.884 104.551 238.669 104.585C238.449 104.62 238.343 104.713 238.307 104.799Z" fill="#003F31" stroke="#282828" stroke-width="0.5"/>
<path d="M232.978 145.576C237.108 145.576 240.467 141.94 240.467 137.464C240.467 137.368 240.463 137.275 240.455 137.179L233.134 136.896C232.904 138.83 231.352 140.318 229.527 140.318C228.02 140.318 226.714 139.312 226.164 137.891C226.087 138.466 225.953 139.034 225.764 139.594C226.651 143.116 229.608 145.573 232.982 145.573L232.978 145.576Z" fill="white"/>
<path d="M233.293 137.089C232.985 139.03 231.389 140.503 229.526 140.503C228.142 140.503 226.921 139.701 226.249 138.506C226.175 138.874 226.079 139.241 225.956 139.605C226.836 143.015 229.712 145.39 232.977 145.39C237.004 145.39 240.281 141.835 240.281 137.464C240.281 137.427 240.281 137.393 240.281 137.36L233.296 137.093M226.049 136.439H226.075C226.097 138.484 227.634 140.136 229.526 140.136C231.419 140.136 232.821 138.625 232.966 136.707L240.629 137C240.637 137.156 240.652 137.308 240.652 137.464C240.652 142.047 237.215 145.761 232.977 145.761C229.422 145.761 226.439 143.141 225.567 139.59C225.878 138.688 226.056 137.716 226.056 136.696C226.056 136.61 226.045 136.525 226.045 136.439H226.049Z" fill="#282828"/>
<path d="M218.384 144.808C221.486 144.808 224.303 142.69 225.39 139.531C225.71 138.607 225.869 137.654 225.869 136.696C225.869 136.67 225.869 136.644 225.869 136.622L218.818 136.351C218.818 136.351 218.818 136.385 218.818 136.403C218.818 138.567 217.185 140.322 215.178 140.322C213.17 140.322 211.537 138.563 211.537 136.403C211.537 136.299 211.541 136.192 211.552 136.073L210.918 136.047C210.903 136.262 210.895 136.481 210.895 136.696C210.895 141.168 214.254 144.808 218.384 144.808Z" fill="white"/>
<path d="M211.098 136.24C211.091 136.393 211.087 136.545 211.087 136.697C211.087 141.068 214.364 144.624 218.39 144.624C221.415 144.624 224.161 142.553 225.222 139.473C225.523 138.604 225.679 137.706 225.69 136.801L225.363 136.79L219.01 136.545C218.939 138.745 217.251 140.508 215.188 140.508C213.124 140.508 211.362 138.667 211.362 136.4C211.362 136.352 211.362 136.3 211.362 136.248L211.098 136.237M210.753 135.854L211.766 135.892C211.744 136.059 211.729 136.226 211.729 136.4C211.729 138.463 213.277 140.137 215.184 140.137C217.091 140.137 218.639 138.463 218.639 136.4C218.639 136.318 218.631 136.237 218.628 136.155L225.374 136.415L226.05 136.441C226.05 136.526 226.061 136.608 226.061 136.697C226.061 137.717 225.883 138.69 225.571 139.591C224.484 142.746 221.682 144.995 218.387 144.995C214.149 144.995 210.712 141.28 210.712 136.697C210.712 136.411 210.727 136.133 210.753 135.854Z" fill="#282828"/>
<path d="M218.637 136.4C218.637 138.463 217.09 140.137 215.182 140.137C213.275 140.137 211.727 138.463 211.727 136.4C211.727 136.226 211.742 136.059 211.765 135.892L218.626 136.155C218.63 136.237 218.637 136.318 218.637 136.4Z" fill="#282828"/>
<path d="M229.526 140.138C227.63 140.138 226.093 138.486 226.075 136.445L232.966 136.709C232.821 138.627 231.337 140.138 229.526 140.138Z" fill="#282828"/>
<ellipse cx="224.54" cy="146.172" rx="1.71878" ry="2.06253" fill="#282828"/>
<path d="M290.553 115.303C283.856 108.204 272.794 107.535 265.29 113.775L264.986 114.027C263.509 115.256 261.83 116.22 260.025 116.878L258.7 117.361C250.221 120.452 246.384 130.287 250.53 138.303C251.45 140.082 252.016 142.022 252.196 144.017L252.218 144.252C253.028 153.213 260.995 159.791 269.948 158.888L272.213 158.66C274.238 158.456 276.282 158.579 278.267 159.026L280.488 159.526C289.267 161.502 297.97 155.933 299.854 147.135L299.904 146.904C300.323 144.946 301.119 143.087 302.247 141.432C307.329 133.975 304.706 123.749 296.662 119.659L295.405 119.02C293.692 118.149 292.143 116.989 290.824 115.591L290.553 115.303Z" fill="#FFDE3B" stroke="#282828" stroke-width="0.5"/>
<path d="M265.097 151.667C267.793 151.349 269.757 149.208 269.483 146.884C269.209 144.56 266.801 142.934 264.105 143.252C261.408 143.57 259.445 145.712 259.719 148.036C259.993 150.359 262.401 151.985 265.097 151.667Z" fill="#FF4F18" stroke="#282828" stroke-width="0.5" stroke-linecap="round" stroke-linejoin="round"/>
<path d="M292.028 147.705C292.374 145.391 290.479 143.189 287.794 142.786C285.109 142.384 282.651 143.934 282.304 146.248C281.958 148.562 283.853 150.764 286.538 151.166C289.223 151.568 291.681 150.019 292.028 147.705Z" fill="#FF4F18" stroke="#282828" stroke-width="0.5" stroke-linecap="round" stroke-linejoin="round"/>
<path d="M264.404 135.215C263.924 136.322 263.636 137.589 263.604 138.942C263.508 143.339 266.163 146.961 269.538 147.036C272.912 147.111 275.726 143.606 275.822 139.212C275.827 139.025 275.824 138.84 275.817 138.655C275.811 138.428 275.798 138.205 275.776 137.986C275.654 136.706 275.294 135.522 274.757 134.51" fill="white"/>
<path d="M264.404 135.215C263.924 136.322 263.636 137.589 263.604 138.942C263.508 143.339 266.163 146.961 269.538 147.036C272.912 147.111 275.726 143.606 275.822 139.212C275.827 139.025 275.824 138.84 275.817 138.655C275.811 138.428 275.798 138.205 275.776 137.986C275.654 136.706 275.294 135.522 274.757 134.51" stroke="#282828" stroke-width="0.5" stroke-linecap="round" stroke-linejoin="round"/>
<path d="M267.41 135.437C266.76 135.424 266.128 135.348 265.517 135.22C265.154 136.037 264.929 137.041 264.904 138.131C264.843 140.925 266.124 143.22 267.764 143.258C269.405 143.296 270.784 141.056 270.847 138.262C270.848 138.25 270.849 138.238 270.849 138.227C269.608 138.096 268.705 137.739 268.715 137.344C268.724 136.948 269.557 136.661 270.712 136.567C270.613 136.033 270.464 135.537 270.27 135.1C269.367 135.339 268.406 135.459 267.41 135.437Z" fill="#282828"/>
<path d="M264.405 135.215C265.488 132.729 267.554 131.065 269.888 131.118C271.921 131.162 273.692 132.495 274.758 134.51" stroke="#282828" stroke-width="0.5" stroke-linecap="round" stroke-linejoin="round"/>
<path d="M266.892 136.092C267.5 136.22 268.135 136.293 268.786 136.309C269.781 136.331 270.742 136.211 271.645 135.972C272.799 135.666 273.853 135.164 274.761 134.512C273.695 132.5 271.921 131.166 269.892 131.12C267.557 131.069 265.491 132.731 264.408 135.217C265.173 135.61 266.009 135.907 266.898 136.092L266.892 136.092Z" fill="#BEFF74" stroke="#282828" stroke-width="0.5" stroke-linecap="round" stroke-linejoin="round"/>
<path d="M266.603 133.936C266.603 133.936 266.591 135.149 267.412 136.129L266.603 133.936Z" fill="#BEFF74"/>
<path d="M266.603 133.936C266.603 133.936 266.591 135.149 267.412 136.129" stroke="#282828" stroke-width="0.5" stroke-linecap="round" stroke-linejoin="round"/>
<path d="M268.284 134.215C268.284 134.215 268.273 135.428 269.093 136.408L268.284 134.215Z" fill="#BEFF74"/>
<path d="M268.284 134.215C268.284 134.215 268.273 135.428 269.093 136.408" stroke="#282828" stroke-width="0.5" stroke-linecap="round" stroke-linejoin="round"/>
<path d="M275.897 134.743C275.374 135.829 275.036 137.085 274.955 138.438C274.689 142.827 277.203 146.549 280.573 146.753C283.943 146.957 286.888 143.566 287.153 139.176C287.164 138.989 287.17 138.804 287.169 138.62C287.171 138.394 287.167 138.171 287.154 137.95C287.079 136.667 286.767 135.469 286.27 134.438" fill="white"/>
<path d="M275.897 134.743C275.374 135.829 275.036 137.085 274.955 138.438C274.689 142.827 277.203 146.549 280.573 146.753C283.943 146.957 286.888 143.566 287.153 139.176C287.164 138.989 287.17 138.804 287.169 138.62C287.171 138.394 287.167 138.171 287.154 137.95C287.079 136.667 286.767 135.469 286.27 134.438" stroke="#282828" stroke-width="0.5" stroke-linecap="round" stroke-linejoin="round"/>
<path d="M278.857 135.132C278.208 135.093 277.577 134.993 276.973 134.842C276.582 135.646 276.316 136.638 276.25 137.726C276.081 140.517 277.271 142.859 278.911 142.958C280.55 143.057 282.014 140.876 282.183 138.085C282.184 138.073 282.184 138.061 282.185 138.05C280.949 137.869 280.061 137.481 280.085 137.084C280.109 136.686 280.954 136.435 282.113 136.385C282.034 135.846 281.903 135.346 281.727 134.901C280.818 135.104 279.853 135.189 278.857 135.129L278.857 135.132Z" fill="#282828"/>
<path d="M275.896 134.739C277.073 132.296 279.202 130.715 281.534 130.856C283.562 130.979 285.281 132.379 286.269 134.431" stroke="#282828" stroke-width="0.5" stroke-linecap="round" stroke-linejoin="round"/>
<path d="M278.349 135.71C278.953 135.861 279.583 135.961 280.232 136C281.226 136.06 282.19 135.975 283.103 135.772C284.266 135.511 285.341 135.051 286.273 134.433C285.285 132.381 283.566 130.981 281.538 130.858C279.206 130.717 277.077 132.298 275.9 134.744C276.649 135.164 277.473 135.496 278.352 135.713L278.349 135.71Z" fill="#BEFF74" stroke="#282828" stroke-width="0.5" stroke-linecap="round" stroke-linejoin="round"/>
<path d="M278.142 133.546C278.142 133.546 278.083 134.757 278.867 135.769L278.142 133.546Z" fill="#BEFF74"/>
<path d="M278.142 133.546C278.142 133.546 278.083 134.757 278.867 135.769" stroke="#282828" stroke-width="0.5" stroke-linecap="round" stroke-linejoin="round"/>
<path d="M279.815 133.888C279.815 133.888 279.757 135.098 280.54 136.111L279.815 133.888Z" fill="#BEFF74"/>
<path d="M279.815 133.888C279.815 133.888 279.757 135.098 280.54 136.111" stroke="#282828" stroke-width="0.5" stroke-linecap="round" stroke-linejoin="round"/>
<path d="M271.413 148.196C271.413 148.196 274.35 151.811 277.77 146.777" stroke="#282828" stroke-width="0.5" stroke-linecap="round" stroke-linejoin="round"/>
</g>
<rect x="0.5" y="0.610352" width="343" height="154" rx="11.5" stroke="#00A176"/>
<path d="M31.7406 130.296C23.853 137.346 25.9447 144.296 36.4078 145.805C46.871 147.313 61.7483 142.854 69.6359 135.805C77.5235 128.755 75.4319 121.805 64.9687 120.296C54.5055 118.788 39.6282 123.247 31.7406 130.296ZM59.1569 129.57L51.656 136.266L41.7055 134.822L49.2065 128.127L59.1569 129.57Z" fill="#FFDB7A" stroke="#282828" stroke-width="0.7" stroke-miterlimit="10"/>
<path d="M30.7328 126.946C22.8452 133.996 24.9369 140.946 35.4 142.455C45.8632 143.964 60.7405 139.505 68.6281 132.455C76.5157 125.406 74.424 118.455 63.9609 116.947C53.4977 115.438 38.6204 119.897 30.7328 126.946ZM58.1491 126.221L50.6482 132.916L40.6977 131.473L48.1986 124.777L58.1491 126.221Z" fill="#FFDB7A" stroke="#282828" stroke-width="0.7" stroke-miterlimit="10"/>
<path d="M51.9642 137.289C62.6106 134.085 70.1422 127.836 68.7866 123.331C67.431 118.826 57.7014 117.772 47.0551 120.976C36.4087 124.18 28.877 130.429 30.2327 134.934C31.5883 139.438 41.3178 140.493 51.9642 137.289Z" stroke="#282828" stroke-width="0.7" stroke-miterlimit="10"/>
<path d="M21.0075 106.194C11.7196 108.751 10.6122 115.268 18.5367 120.734C26.4611 126.2 40.4021 128.585 49.6901 126.028C58.9781 123.47 60.0855 116.954 52.161 111.488C44.2365 106.021 30.2955 103.636 21.0075 106.194ZM43.6658 116.7L34.8365 119.126L27.304 113.92L36.1333 111.494L43.6658 116.7Z" fill="#FFDB7A" stroke="#282828" stroke-width="0.7" stroke-miterlimit="10"/>
<path d="M21.5417 103.053C12.2537 105.61 11.1464 112.127 19.0708 117.593C26.9953 123.06 40.9363 125.445 50.2243 122.887C59.5123 120.33 60.6196 113.813 52.6952 108.347C44.7707 102.881 30.8297 100.495 21.5417 103.053ZM44.2 113.559L35.3707 115.985L27.8382 110.779L36.6675 108.354L44.2 113.559Z" fill="#FFDB7A" stroke="#282828" stroke-width="0.7" stroke-miterlimit="10"/>
<path d="M34.6739 120.085C44.6556 121.781 53.3291 119.733 54.0468 115.509C54.7645 111.286 47.2545 106.487 37.2729 104.791C27.2912 103.095 18.6177 105.143 17.9 109.367C17.1823 113.59 24.6923 118.389 34.6739 120.085Z" stroke="#282828" stroke-width="0.7" stroke-miterlimit="10"/>
<path d="M24.4654 73.1447C18.2997 70.782 15.0404 73.9287 17.1929 80.1661C19.3454 86.4034 26.0708 93.3851 32.2365 95.7478C38.4022 98.1105 41.6615 94.9638 39.509 88.7265C37.3565 82.4891 30.6312 75.5074 24.4654 73.1447ZM32.702 88.1513L26.8431 85.9021L24.801 79.9678L30.66 82.217L32.702 88.1513Z" fill="#FFDB7A" stroke="#282828" stroke-width="0.7" stroke-miterlimit="10"/>
<path d="M26.0362 71.6281C19.8705 69.2654 16.6112 72.4121 18.7637 78.6495C20.9162 84.8868 27.6416 91.8685 33.8073 94.2312C39.973 96.5939 43.2323 93.4472 41.0798 87.2099C38.9273 80.9725 32.202 73.9908 26.0362 71.6281ZM34.2728 86.6347L28.4139 84.3855L26.3718 78.4512L32.2308 80.7004L34.2728 86.6347Z" fill="#FFDB7A" stroke="#282828" stroke-width="0.7" stroke-miterlimit="10"/>
<path d="M26.3636 86.3654C31.1836 91.3578 36.8034 93.7517 38.9157 91.7123C41.0281 89.6729 38.8331 83.9725 34.0131 78.98C29.193 73.9876 23.5732 71.5937 21.4609 73.6331C19.3485 75.6725 21.5435 81.3729 26.3636 86.3654Z" stroke="#282828" stroke-width="0.7" stroke-miterlimit="10"/>
<defs>
<linearGradient id="paint0_linear_4454_55460" x1="107.5" y1="63" x2="107.5" y2="83" gradientUnits="userSpaceOnUse">
<stop stop-color="#00A176"/>
<stop offset="0.264423" stop-color="#008F69"/>
<stop offset="0.567308" stop-color="#008562"/>
<stop offset="1" stop-color="#005C44"/>
</linearGradient>
</defs>
</svg>
