<svg width="344" height="156" viewBox="0 0 344 156" fill="none" xmlns="http://www.w3.org/2000/svg">
<rect y="0.110352" width="344" height="155" rx="12" fill="#00A176"/>
<path d="M27.1105 45.3524H22.3725V28.8154C22.3725 26.1704 23.2005 25.1814 25.9605 25.1814H33.6195C34.9535 25.1814 35.4825 26.2854 35.4825 27.2284C35.4825 28.1714 34.9765 29.2064 33.6195 29.2064H27.7775C27.2485 29.2064 27.1105 29.3214 27.1105 29.8734V33.5534H33.0215C34.3555 33.5534 34.8845 34.6574 34.8845 35.6004C34.8845 36.5434 34.3785 37.5784 33.0215 37.5784H27.1105V45.3524ZM41.6518 45.3524H36.9828V32.1734C36.9828 30.6554 38.0868 29.8734 39.3058 29.8734C40.2028 29.8734 41.0538 30.3104 41.4448 31.1614C42.2958 30.3564 43.3768 29.8734 44.5038 29.8734C44.8488 29.8734 45.2398 29.9194 45.5848 30.0574C46.4588 30.4254 46.9648 31.3454 46.8038 32.4264C46.6428 33.5074 45.8148 34.1974 44.8028 34.1974C44.4808 34.1974 44.0668 34.1744 43.7448 34.1974C42.4798 34.2894 41.7208 35.0024 41.6518 36.1524V45.3524ZM48.5603 26.9294C48.5603 25.4114 49.6643 24.8134 50.9523 24.8134C52.2403 24.8134 53.3443 25.4114 53.3443 26.9294C53.3443 28.4474 52.2403 29.0454 50.9523 29.0454C49.6643 29.0454 48.5603 28.4474 48.5603 26.9294ZM48.5833 45.3524V32.3344C48.5833 30.7474 49.6643 30.0344 50.9523 30.0344C52.2403 30.0344 53.3213 30.7474 53.3213 32.3344V45.3524H48.5833ZM63.0821 45.7204C59.6091 45.7204 55.9981 44.1564 55.9981 39.1884V36.2444C55.9981 31.3454 59.6091 29.8734 62.5531 29.8734C65.7501 29.8734 68.9011 31.1154 68.9011 37.6704C68.9011 38.0614 68.8551 38.7054 68.7861 39.0964H60.5521V39.1194C60.5521 41.3044 62.0701 41.8334 63.1741 41.8334C64.3011 41.8334 64.7841 41.7414 65.4051 41.5344C65.7501 41.4194 66.0951 41.2354 66.4861 41.1894C67.2681 41.0974 68.0041 41.3734 68.3031 42.0634C68.7861 43.1904 68.2341 44.1564 67.1301 44.8004C66.3941 45.2374 64.7611 45.7204 63.0821 45.7204ZM62.5761 33.5994C61.5641 33.5994 60.5751 34.1054 60.5521 36.0834H64.4391C64.5081 34.1054 63.5881 33.5994 62.5761 33.5994ZM76.2288 45.3524H71.5598V32.1734C71.5598 30.6554 72.6638 29.8734 73.8828 29.8734C74.7798 29.8734 75.6308 30.3104 76.0218 31.1384C76.9188 30.3104 78.1608 29.8734 79.3798 29.8734C82.3008 29.8734 84.6238 31.3224 84.6238 36.1754V45.3524H79.8858V35.8994C79.8858 34.3354 78.8508 33.8064 78.0688 33.8064C77.2868 33.8064 76.2288 34.3354 76.2288 35.8994V45.3524ZM100.559 27.1134V45.3524H96.9018L96.6718 43.8574C95.7748 45.0304 94.4638 45.7434 92.7848 45.7434C89.7488 45.7434 87.1728 44.2484 87.1728 39.3954V36.2214C87.1728 31.3684 89.7488 29.8734 92.7848 29.8734C94.0498 29.8734 95.0848 30.2874 95.8898 30.9544V27.1134C95.8898 25.5954 97.0168 24.8134 98.2358 24.8134C99.4548 24.8134 100.559 25.5954 100.559 27.1134ZM91.9108 35.8994V39.7174C91.9108 41.2814 93.0838 41.8104 93.8888 41.8104C94.6938 41.8104 95.8898 41.2814 95.8898 39.7174V35.7844C95.8898 34.3124 94.6708 33.8064 93.8888 33.8064C93.0838 33.8064 91.9108 34.3354 91.9108 35.8994ZM110.471 26.9294C110.471 25.4114 111.575 24.8134 112.863 24.8134C114.151 24.8134 115.255 25.4114 115.255 26.9294C115.255 28.4474 114.151 29.0454 112.863 29.0454C111.575 29.0454 110.471 28.4474 110.471 26.9294ZM110.494 45.3524V32.3344C110.494 30.7474 111.575 30.0344 112.863 30.0344C114.151 30.0344 115.232 30.7474 115.232 32.3344V45.3524H110.494ZM122.923 45.3524H118.254V32.1734C118.254 30.6554 119.358 29.8734 120.577 29.8734C121.474 29.8734 122.325 30.3104 122.716 31.1384C123.613 30.3104 124.855 29.8734 126.074 29.8734C128.995 29.8734 131.318 31.3224 131.318 36.1754V45.3524H126.58V35.8994C126.58 34.3354 125.545 33.8064 124.763 33.8064C123.981 33.8064 122.923 34.3354 122.923 35.8994V45.3524ZM144.987 29.9884C146.183 30.3104 146.942 31.5754 146.459 32.9554L142.112 45.3524H137.328L132.866 32.9324C132.383 31.5754 133.234 30.3334 134.43 29.9884C135.649 29.6434 137.075 30.1034 137.489 31.5754L139.789 39.6254L142.02 31.5524C142.411 30.1494 143.768 29.6664 144.987 29.9884ZM148.552 26.9294C148.552 25.4114 149.656 24.8134 150.944 24.8134C152.232 24.8134 153.336 25.4114 153.336 26.9294C153.336 28.4474 152.232 29.0454 150.944 29.0454C149.656 29.0454 148.552 28.4474 148.552 26.9294ZM148.575 45.3524V32.3344C148.575 30.7474 149.656 30.0344 150.944 30.0344C152.232 30.0344 153.313 30.7474 153.313 32.3344V45.3524H148.575ZM157.968 41.0054V34.5194H157.209C155.76 34.5194 155.185 33.5994 155.185 32.6334C155.185 31.6904 155.737 30.7014 157.209 30.7014H157.968V27.9184C157.968 26.3544 159.095 25.6414 160.245 25.6414C161.395 25.6414 162.522 26.3544 162.522 27.9184V30.7014H163.879C165.351 30.7014 165.903 31.6904 165.903 32.6334C165.903 33.5994 165.328 34.5194 163.879 34.5194H162.522V40.9134C162.522 41.6034 162.867 41.7644 163.258 41.7874C163.603 41.8104 163.81 41.6954 164.27 41.6954C165.029 41.6954 165.673 42.2014 165.834 42.9604C166.041 43.9034 165.65 44.7314 165.006 45.1454C164.477 45.4904 163.58 45.7204 162.798 45.7204C159.739 45.7204 157.968 44.4784 157.968 41.0054ZM179.946 45.3524H176.312L176.128 44.3864C175.254 45.2144 174.012 45.7434 172.632 45.7434H172.126C170.217 45.7434 167.411 44.7084 167.411 40.8904C167.411 37.1874 170.056 36.0834 173.046 36.0834H175.415C175.369 34.0824 174.403 33.7144 173.299 33.7144C172.77 33.7144 172.31 33.8064 171.758 33.9674C171.39 34.0824 171.091 34.2434 170.677 34.4274C169.849 34.8414 168.63 34.5194 168.216 33.5994C167.779 32.6794 168.147 31.7364 168.952 31.1384C170.171 30.2414 172.103 29.8964 173.667 29.8964C177.002 29.8964 179.946 31.0694 179.946 36.6814V45.3524ZM175.415 40.5224V39.4644H173.322C172.448 39.4644 171.965 39.9014 171.965 40.8674C171.965 41.8334 172.448 42.2014 173.253 42.2014H173.575C174.426 42.2014 175.415 41.6954 175.415 40.5224ZM184.021 41.0054V34.5194H183.262C181.813 34.5194 181.238 33.5994 181.238 32.6334C181.238 31.6904 181.79 30.7014 183.262 30.7014H184.021V27.9184C184.021 26.3544 185.148 25.6414 186.298 25.6414C187.448 25.6414 188.575 26.3544 188.575 27.9184V30.7014H189.932C191.404 30.7014 191.956 31.6904 191.956 32.6334C191.956 33.5994 191.381 34.5194 189.932 34.5194H188.575V40.9134C188.575 41.6034 188.92 41.7644 189.311 41.7874C189.656 41.8104 189.863 41.6954 190.323 41.6954C191.082 41.6954 191.726 42.2014 191.887 42.9604C192.094 43.9034 191.703 44.7314 191.059 45.1454C190.53 45.4904 189.633 45.7204 188.851 45.7204C185.792 45.7204 184.021 44.4784 184.021 41.0054ZM193.786 26.9294C193.786 25.4114 194.89 24.8134 196.178 24.8134C197.466 24.8134 198.57 25.4114 198.57 26.9294C198.57 28.4474 197.466 29.0454 196.178 29.0454C194.89 29.0454 193.786 28.4474 193.786 26.9294ZM193.809 45.3524V32.3344C193.809 30.7474 194.89 30.0344 196.178 30.0344C197.466 30.0344 198.547 30.7474 198.547 32.3344V45.3524H193.809ZM201.224 39.3494V36.2444C201.224 31.2994 204.766 29.8734 207.894 29.8734C210.953 29.8734 214.564 31.2994 214.564 36.2444V39.3494C214.564 44.2944 210.953 45.7204 207.894 45.7204C204.835 45.7204 201.224 44.2944 201.224 39.3494ZM209.941 39.5564V36.0374C209.941 34.4044 208.883 33.7604 207.894 33.7604C206.905 33.7604 205.847 34.4044 205.847 36.0374V39.5564C205.847 41.1894 206.905 41.8334 207.894 41.8334C208.883 41.8334 209.941 41.1894 209.941 39.5564ZM221.904 45.3524H217.235V32.1734C217.235 30.6554 218.339 29.8734 219.558 29.8734C220.455 29.8734 221.306 30.3104 221.697 31.1384C222.594 30.3104 223.836 29.8734 225.055 29.8734C227.976 29.8734 230.299 31.3224 230.299 36.1754V45.3524H225.561V35.8994C225.561 34.3354 224.526 33.8064 223.744 33.8064C222.962 33.8064 221.904 34.3354 221.904 35.8994V45.3524ZM244.837 29.8734V33.1624H251.116C252.45 33.1624 252.979 34.2664 252.979 35.1864C252.979 36.1064 252.473 37.1414 251.116 37.1414H244.837V40.6604C244.837 41.2124 244.975 41.3274 245.504 41.3274H251.553C252.91 41.3274 253.416 42.3624 253.416 43.3054C253.416 44.2484 252.887 45.3524 251.553 45.3524H243.71C240.95 45.3524 240.122 44.3634 240.122 41.7184V28.8154C240.122 26.1704 240.95 25.1814 243.71 25.1814H251.323C252.657 25.1814 253.186 26.2854 253.186 27.2284C253.186 28.1714 252.68 29.2064 251.323 29.2064H245.504C244.975 29.2064 244.837 29.3214 244.837 29.8734ZM269.839 24.9284C271.104 25.2274 271.84 26.4694 271.334 27.9874L265.584 45.3524H260.938L255.073 27.9414C254.567 26.4694 255.441 25.2274 256.706 24.9284C257.994 24.6294 259.397 25.0663 259.811 26.5614L263.353 39.1654L266.849 26.5384C267.263 25.0663 268.551 24.6294 269.839 24.9284ZM278.302 29.8734V33.1624H284.581C285.915 33.1624 286.444 34.2664 286.444 35.1864C286.444 36.1064 285.938 37.1414 284.581 37.1414H278.302V40.6604C278.302 41.2124 278.44 41.3274 278.969 41.3274H285.018C286.375 41.3274 286.881 42.3624 286.881 43.3054C286.881 44.2484 286.352 45.3524 285.018 45.3524H277.175C274.415 45.3524 273.587 44.3634 273.587 41.7184V28.8154C273.587 26.1704 274.415 25.1814 277.175 25.1814H284.788C286.122 25.1814 286.651 26.2854 286.651 27.2284C286.651 28.1714 286.145 29.2064 284.788 29.2064H278.969C278.44 29.2064 278.302 29.3214 278.302 29.8734ZM302.293 24.8134C303.397 24.8134 304.386 25.5954 304.386 26.9984V43.4204C304.386 44.8234 303.167 45.5364 302.132 45.6284C301.028 45.7204 299.602 45.3064 299.119 44.2944L293.507 32.7024V45.3524H289.321V27.1594C289.321 25.7334 290.563 24.9744 291.621 24.8594C292.725 24.7444 294.082 25.1814 294.588 26.1934L300.2 37.6934V26.9984C300.2 25.5954 301.189 24.8134 302.293 24.8134ZM316.406 45.3524H311.622V29.2064H308.103C306.769 29.2064 306.24 28.1024 306.24 27.1594C306.24 26.2164 306.746 25.1814 308.103 25.1814H319.925C321.282 25.1814 321.788 26.2164 321.788 27.1594C321.788 28.1024 321.259 29.2064 319.925 29.2064H316.406V45.3524Z" fill="white"/>
<rect x="50" y="57" width="87" height="48" rx="20" fill="white"/>
<path d="M83.6954 63.9805V76H81.1886V66.3545H81.1221L78.3663 68.0811V65.873L81.338 63.9805H83.6954ZM91.6319 76.166C88.627 76.166 86.8008 73.9248 86.8008 69.9902C86.8008 66.0557 88.627 63.8145 91.6319 63.8145C94.6367 63.8145 96.4629 66.0723 96.4629 69.9902C96.4629 73.9414 94.6367 76.166 91.6319 76.166ZM91.6319 74.1074C93.0264 74.1074 93.9229 72.7627 93.9063 69.9902C93.9063 67.251 93.0264 65.8564 91.6319 65.8564C90.2373 65.8564 89.3574 67.251 89.3574 69.9902C89.3408 72.7627 90.2373 74.1074 91.6319 74.1074ZM103.337 76.166C100.332 76.166 98.5058 73.9248 98.5058 69.9902C98.5058 66.0557 100.332 63.8145 103.337 63.8145C106.342 63.8145 108.168 66.0723 108.168 69.9902C108.168 73.9414 106.342 76.166 103.337 76.166ZM103.337 74.1074C104.731 74.1074 105.628 72.7627 105.611 69.9902C105.611 67.251 104.731 65.8564 103.337 65.8564C101.942 65.8564 101.062 67.251 101.062 69.9902C101.046 72.7627 101.942 74.1074 103.337 74.1074ZM72.9039 98V85.9805H77.6188C80.358 85.9805 81.9186 87.6572 81.9186 90.0312C81.9186 92.4385 80.3248 94.082 77.5524 94.082H75.3941V98H72.9039ZM75.3941 92.0732H77.1539C78.6315 92.0732 79.3453 91.2432 79.3453 90.0312C79.3453 88.8359 78.6315 88.0225 77.1539 88.0225H75.3941V92.0732ZM87.8296 98.1826C85.107 98.1826 83.4136 96.3066 83.4136 93.5176C83.4136 90.7285 85.107 88.8691 87.8296 88.8691C90.5523 88.8691 92.2623 90.7285 92.2623 93.5176C92.2623 96.3066 90.5523 98.1826 87.8296 98.1826ZM87.8462 96.2734C89.108 96.2734 89.7554 95.0947 89.7554 93.5176C89.7554 91.9238 89.108 90.7451 87.8462 90.7451C86.5679 90.7451 85.9039 91.9238 85.9039 93.5176C85.9039 95.0947 86.5679 96.2734 87.8462 96.2734ZM94.2886 98V88.9854H96.7456V98H94.2886ZM95.5171 87.8066C94.77 87.8066 94.1724 87.2422 94.1724 86.5615C94.1724 85.8643 94.77 85.2998 95.5171 85.2998C96.2476 85.2998 96.8452 85.8643 96.8452 86.5615C96.8452 87.2422 96.2476 87.8066 95.5171 87.8066ZM101.594 92.7871V98H99.1372V88.9854H101.478V90.5625H101.578C101.993 89.5166 102.956 88.8691 104.284 88.8691C106.16 88.8691 107.405 90.1475 107.388 92.2559V98H104.948V92.6875C104.948 91.5752 104.333 90.9111 103.321 90.9111C102.291 90.9111 101.594 91.5918 101.594 92.7871ZM114.528 88.9854V90.8281H112.834V95.2275C112.834 95.9414 113.183 96.124 113.681 96.1406C113.93 96.1406 114.362 96.124 114.661 96.0908V98.0332C114.395 98.083 113.963 98.1162 113.349 98.1162C111.573 98.1162 110.361 97.3193 110.377 95.5762V90.8281H109.132V88.9854H110.377V86.8271H112.834V88.9854H114.528Z" fill="url(#paint0_linear_4454_55460)"/>
<path d="M148.92 67.05V68.49H147.27V75H145.38V68.49H144.21V67.05H145.38V66.3C145.395 64.74 146.355 63.9 147.87 63.9C148.32 63.9 148.725 63.945 149.07 64.02V65.49C148.755 65.445 148.53 65.445 148.41 65.43C147.63 65.445 147.255 65.745 147.27 66.45V67.05H148.92ZM153.945 75.15C151.605 75.165 150.12 73.515 150.135 71.07C150.12 68.58 151.605 66.945 153.945 66.93C156.255 66.945 157.74 68.58 157.755 71.07C157.74 73.515 156.255 75.165 153.945 75.15ZM152.025 71.04C152.01 72.51 152.655 73.665 153.945 73.65C155.22 73.665 155.85 72.51 155.865 71.04C155.85 69.585 155.22 68.415 153.945 68.43C152.655 68.415 152.01 69.585 152.025 71.04ZM159.678 75V67.05H161.478V68.37H161.568C161.853 67.455 162.618 66.93 163.518 66.93C163.743 66.93 164.043 66.945 164.208 66.99V68.7C164.043 68.64 163.653 68.595 163.338 68.58C162.303 68.595 161.538 69.3 161.538 70.32V75H159.678ZM169.947 75V64.38H171.807V68.34H171.897C172.182 67.785 172.752 66.945 174.147 66.93C175.992 66.945 177.447 68.385 177.447 71.04C177.447 73.65 176.037 75.135 174.177 75.15C172.797 75.135 172.182 74.325 171.897 73.74H171.777V75H169.947ZM171.777 71.01C171.762 72.57 172.452 73.605 173.637 73.62C174.882 73.605 175.542 72.525 175.557 71.01C175.542 69.54 174.897 68.475 173.637 68.46C172.437 68.475 171.762 69.48 171.777 71.01ZM182.872 75.15C180.532 75.165 179.047 73.515 179.062 71.07C179.047 68.58 180.532 66.945 182.872 66.93C185.182 66.945 186.667 68.58 186.682 71.07C186.667 73.515 185.182 75.165 182.872 75.15ZM180.952 71.04C180.937 72.51 181.582 73.665 182.872 73.65C184.147 73.665 184.777 72.51 184.792 71.04C184.777 69.585 184.147 68.415 182.872 68.43C181.582 68.415 180.937 69.585 180.952 71.04ZM192.565 67.05V68.49H191.005V72.6C191.005 73.38 191.38 73.53 191.845 73.53C192.07 73.545 192.43 73.515 192.685 73.5V75.03C192.445 75.075 192.085 75.105 191.605 75.12C190.21 75.105 189.13 74.415 189.145 72.93V68.49H188.005V67.05H189.145V65.13H191.005V67.05H192.565ZM196.514 70.35V75H194.654V64.38H196.484V68.4H196.574C196.949 67.5 197.714 66.945 198.944 66.93C200.594 66.945 201.674 68.01 201.674 69.93V75H199.814V70.23C199.814 69.15 199.229 68.52 198.254 68.52C197.234 68.52 196.514 69.18 196.514 70.35ZM208.011 75V67.05H209.781V68.4H209.901C210.216 67.485 211.026 66.945 212.091 66.93C213.156 66.945 213.921 67.5 214.221 68.4H214.311C214.671 67.515 215.541 66.945 216.711 66.93C218.166 66.945 219.186 67.89 219.201 69.66V75H217.311V69.96C217.326 68.955 216.726 68.505 215.961 68.52C215.046 68.505 214.506 69.135 214.521 70.02V75H212.691V69.87C212.691 69.045 212.136 68.505 211.341 68.52C210.531 68.505 209.871 69.18 209.871 70.17V75H208.011ZM224.967 75.15C222.582 75.165 221.112 73.56 221.127 71.07C221.112 68.61 222.612 66.945 224.877 66.93C226.827 66.945 228.507 68.16 228.507 70.95V71.55H222.957C223.002 72.915 223.782 73.71 224.997 73.71C225.822 73.71 226.362 73.35 226.617 72.87H228.447C228.102 74.25 226.827 75.165 224.967 75.15ZM222.957 70.26H226.707C226.707 69.195 225.987 68.4 224.907 68.4C223.782 68.4 223.032 69.24 222.957 70.26ZM237.701 75.15C235.526 75.15 234.191 73.875 234.191 72.18C234.191 70.935 235.001 70.17 236.186 69.345C235.571 68.595 235.091 67.83 235.091 66.87C235.091 65.385 236.201 64.26 237.881 64.26C239.546 64.26 240.566 65.37 240.581 66.66C240.566 67.68 240.041 68.445 239.171 69.09L238.481 69.6L240.416 71.865C240.701 71.34 240.881 70.725 240.881 70.02H242.471C242.486 71.475 242.081 72.51 241.556 73.2L243.101 75H241.091L240.401 74.205C239.651 74.865 238.631 75.15 237.701 75.15ZM236.021 72.09C236.021 72.945 236.696 73.62 237.761 73.62C238.316 73.62 238.901 73.425 239.396 73.05L237.176 70.53L237.011 70.65C236.306 71.175 236.021 71.73 236.021 72.09ZM236.771 66.9C236.756 67.395 237.086 67.89 237.536 68.46L238.151 68.04C238.691 67.665 238.991 67.29 238.991 66.75C238.991 66.285 238.571 65.79 237.911 65.79C237.221 65.79 236.756 66.33 236.771 66.9ZM248.597 75V67.05H250.367V68.4H250.487C250.802 67.485 251.612 66.945 252.677 66.93C253.742 66.945 254.507 67.5 254.807 68.4H254.897C255.257 67.515 256.127 66.945 257.297 66.93C258.752 66.945 259.772 67.89 259.787 69.66V75H257.897V69.96C257.912 68.955 257.312 68.505 256.547 68.52C255.632 68.505 255.092 69.135 255.107 70.02V75H253.277V69.87C253.277 69.045 252.722 68.505 251.927 68.52C251.117 68.505 250.457 69.18 250.457 70.17V75H248.597ZM262.874 77.97C262.514 77.985 262.154 77.97 261.914 77.94V76.44C262.139 76.47 262.469 76.47 262.694 76.47C263.159 76.47 263.549 76.44 263.864 75.6L264.014 75.18L261.134 67.05H263.114L264.944 73.05H265.034L266.894 67.05H268.874L265.664 75.96C265.214 77.235 264.374 77.985 262.874 77.97ZM278.6 67.05V68.49H276.95V75H275.06V68.49H273.89V67.05H275.06V66.3C275.075 64.74 276.035 63.9 277.55 63.9C278 63.9 278.405 63.945 278.75 64.02V65.49C278.435 65.445 278.21 65.445 278.09 65.43C277.31 65.445 276.935 65.745 276.95 66.45V67.05H278.6ZM280.438 75V67.05H282.238V68.37H282.328C282.613 67.455 283.378 66.93 284.278 66.93C284.503 66.93 284.803 66.945 284.968 66.99V68.7C284.803 68.64 284.413 68.595 284.098 68.58C283.063 68.595 282.298 69.3 282.298 70.32V75H280.438ZM286.56 75V67.05H288.42V75H286.56ZM286.41 64.89C286.41 64.335 286.905 63.885 287.49 63.87C288.09 63.885 288.57 64.335 288.57 64.89C288.57 65.46 288.09 65.91 287.49 65.91C286.905 65.91 286.41 65.46 286.41 64.89ZM294.215 75.15C291.83 75.165 290.36 73.56 290.375 71.07C290.36 68.61 291.86 66.945 294.125 66.93C296.075 66.945 297.755 68.16 297.755 70.95V71.55H292.205C292.25 72.915 293.03 73.71 294.245 73.71C295.07 73.71 295.61 73.35 295.865 72.87H297.695C297.35 74.25 296.075 75.165 294.215 75.15ZM292.205 70.26H295.955C295.955 69.195 295.235 68.4 294.155 68.4C293.03 68.4 292.28 69.24 292.205 70.26ZM301.572 70.35V75H299.712V67.05H301.482V68.4H301.602C301.962 67.5 302.772 66.945 303.972 66.93C305.607 66.945 306.687 68.025 306.672 69.93V75H304.812V70.23C304.827 69.15 304.242 68.52 303.252 68.52C302.277 68.52 301.572 69.18 301.572 70.35ZM311.925 75.15C310.035 75.135 308.625 73.65 308.625 71.04C308.625 68.385 310.08 66.945 311.925 66.93C313.32 66.945 313.905 67.785 314.205 68.34H314.265V64.38H316.125V75H314.295V73.74H314.205C313.89 74.325 313.275 75.135 311.925 75.15ZM310.545 71.01C310.53 72.525 311.19 73.605 312.435 73.62C313.62 73.605 314.31 72.57 314.295 71.01C314.31 69.48 313.635 68.475 312.435 68.46C311.175 68.475 310.53 69.54 310.545 71.01ZM320.77 64.38L320.59 71.88H318.94L318.76 64.38H320.77ZM318.61 73.98C318.61 73.365 319.135 72.855 319.75 72.84C320.365 72.855 320.89 73.365 320.89 73.98C320.89 74.61 320.365 75.12 319.75 75.12C319.135 75.12 318.61 74.61 318.61 73.98Z" fill="white"/>
<mask id="mask0_4454_55460" style="mask-type:alpha" maskUnits="userSpaceOnUse" x="133" y="100" width="180" height="55">
<rect x="133.803" y="100.11" width="178.557" height="54.46" rx="12" fill="#00A176"/>
</mask>
<g mask="url(#mask0_4454_55460)">
<path d="M148.588 126.538C152.947 116.535 160.76 114.71 169.015 117.055C174.909 110.607 185.755 109.622 193.818 113.043C205.855 118.149 209.503 131.28 205.855 141.129C202.208 150.977 191.723 159.731 175.217 159.731C152.663 159.731 143.429 138.377 148.588 126.538Z" fill="#FFF757" stroke="#282828" stroke-width="0.5" stroke-linecap="round" stroke-linejoin="round"/>
<path d="M164.984 147.962C169.114 147.962 172.462 144.614 172.462 140.484C172.462 136.355 169.114 133.007 164.984 133.007C160.854 133.007 157.506 136.355 157.506 140.484C157.506 144.614 160.854 147.962 164.984 147.962Z" fill="white" stroke="#282828" stroke-width="0.5" stroke-linecap="round" stroke-linejoin="round"/>
<path d="M164.893 143.065C167.452 143.065 169.527 140.99 169.527 138.431C169.527 135.871 167.452 133.796 164.893 133.796C162.333 133.796 160.258 135.871 160.258 138.431C160.258 140.99 162.333 143.065 164.893 143.065Z" fill="#282828"/>
<path d="M165.335 138.059C166.036 137.023 165.865 135.684 164.953 135.067C164.042 134.451 162.736 134.792 162.035 135.828C161.335 136.863 161.506 138.203 162.417 138.819C163.329 139.435 164.635 139.094 165.335 138.059Z" fill="white"/>
<path d="M165.527 141.304C165.248 141.958 164.49 142.272 163.831 142.01C163.173 141.748 162.863 141 163.142 140.349C163.421 139.698 164.179 139.381 164.838 139.643C165.496 139.905 165.806 140.652 165.527 141.304Z" fill="white"/>
<path d="M162.6 140.18C162.838 140.073 162.945 139.796 162.839 139.562C162.733 139.328 162.454 139.225 162.217 139.333C161.979 139.44 161.872 139.717 161.978 139.951C162.084 140.185 162.363 140.288 162.6 140.18Z" fill="white"/>
<path d="M168.279 138.769C168.45 137.671 168.029 136.693 167.339 136.585C166.649 136.478 165.951 137.281 165.78 138.379C165.608 139.477 166.029 140.454 166.719 140.562C167.409 140.67 168.107 139.867 168.279 138.769Z" fill="white"/>
<path d="M178.417 150.45C182.992 150.45 186.701 146.741 186.701 142.166C186.701 137.591 182.992 133.882 178.417 133.882C173.841 133.882 170.133 137.591 170.133 142.166C170.133 146.741 173.841 150.45 178.417 150.45Z" fill="white" stroke="#282828" stroke-width="0.5" stroke-linecap="round" stroke-linejoin="round"/>
<path d="M176.718 144.863C179.551 144.863 181.849 142.565 181.849 139.732C181.849 136.898 179.551 134.601 176.718 134.601C173.884 134.601 171.587 136.898 171.587 139.732C171.587 142.565 173.884 144.863 176.718 144.863Z" fill="#282828"/>
<path d="M177.208 139.32C177.984 138.172 177.795 136.688 176.786 136.006C175.777 135.324 174.33 135.702 173.554 136.849C172.778 137.997 172.967 139.481 173.976 140.163C174.985 140.845 176.432 140.468 177.208 139.32Z" fill="white"/>
<path d="M177.422 142.916C177.115 143.64 176.274 143.991 175.544 143.698C174.813 143.405 174.472 142.582 174.782 141.858C175.092 141.135 175.93 140.783 176.66 141.076C177.391 141.369 177.732 142.192 177.422 142.916Z" fill="white"/>
<path d="M174.447 141.393C174.334 141.659 174.027 141.786 173.761 141.679C173.496 141.572 173.372 141.273 173.482 141.007C173.593 140.742 173.903 140.615 174.168 140.721C174.433 140.828 174.557 141.128 174.447 141.393Z" fill="white"/>
<path d="M180.469 140.108C180.659 138.891 180.194 137.808 179.43 137.689C178.667 137.57 177.894 138.459 177.704 139.676C177.514 140.893 177.979 141.975 178.743 142.095C179.506 142.214 180.279 141.324 180.469 140.108Z" fill="white"/>
<path d="M161.193 147.068C161.026 148.981 162.84 151.93 167.793 152.361C172.745 152.791 176.686 151.238 177.407 148.745C178.127 146.251 176.806 145.205 174.261 144.982C171.72 144.762 170.585 145.626 169.14 145.499C167.694 145.373 166.673 144.456 164.873 144.298C163.074 144.141 161.344 145.355 161.193 147.068Z" fill="#FFAD94" stroke="#282828" stroke-width="0.5" stroke-linecap="round" stroke-linejoin="round"/>
<path d="M168.414 151.379C171.306 151.629 173.784 149.919 173.899 148.631C174.014 147.344 173.689 146.588 172.069 146.444C170.448 146.301 170.249 146.552 168.847 146.43C167.446 146.308 167.336 146.032 165.804 145.899C164.273 145.766 163.848 147.09 163.776 147.883C163.705 148.676 164.08 150.999 168.417 151.376L168.414 151.379Z" fill="#282828" stroke="#282828" stroke-width="0.5" stroke-linecap="round" stroke-linejoin="round"/>
<circle cx="25.1095" cy="25.1095" r="24.8595" transform="matrix(-1 0 0 1 251.094 109.437)" fill="#00A176" stroke="#282828" stroke-width="0.5"/>
<path d="M219.268 107.173C221.288 108.233 224.739 108.939 226.212 109.16L240.732 117.772C238.838 118.213 233.535 118.699 227.475 117.109C219.899 115.122 216.743 105.848 219.268 107.173Z" fill="#003F31" stroke="#282828" stroke-width="0.5" stroke-linecap="round"/>
<path d="M225.388 108.581C225.022 109.591 225.088 110.36 225.437 110.987C225.794 111.627 226.469 112.16 227.403 112.643C228.334 113.125 229.492 113.543 230.78 113.97C231.161 114.096 231.553 114.223 231.954 114.353C232.901 114.66 233.894 114.982 234.887 115.342C235.908 115.712 236.864 116.098 237.748 116.455C238.087 116.592 238.415 116.725 238.732 116.851C239.884 117.308 240.887 117.673 241.757 117.844C242.627 118.016 243.328 117.987 243.896 117.694C244.46 117.403 244.94 116.827 245.312 115.799C246.05 113.763 245.631 111.507 244.323 109.495C243.015 107.483 240.823 105.731 238.054 104.727C235.284 103.724 232.479 103.666 230.185 104.373C227.892 105.08 226.126 106.545 225.388 108.581Z" fill="#00CBCE" stroke="#282828" stroke-width="0.5"/>
<path d="M238.307 104.799C238.272 104.886 238.283 105.027 238.415 105.206C238.544 105.381 238.766 105.556 239.057 105.675C239.348 105.795 239.629 105.826 239.844 105.792C240.064 105.757 240.17 105.664 240.206 105.578C240.242 105.491 240.23 105.35 240.098 105.171C239.969 104.996 239.747 104.821 239.456 104.702C239.165 104.582 238.884 104.551 238.669 104.585C238.449 104.62 238.343 104.713 238.307 104.799Z" fill="#003F31" stroke="#282828" stroke-width="0.5"/>
<path d="M232.978 145.576C237.108 145.576 240.467 141.94 240.467 137.464C240.467 137.368 240.463 137.275 240.455 137.179L233.134 136.896C232.904 138.83 231.352 140.318 229.527 140.318C228.02 140.318 226.714 139.312 226.164 137.891C226.087 138.466 225.953 139.034 225.764 139.594C226.651 143.116 229.608 145.573 232.982 145.573L232.978 145.576Z" fill="white"/>
<path d="M233.293 137.089C232.985 139.03 231.389 140.503 229.526 140.503C228.142 140.503 226.921 139.701 226.249 138.506C226.175 138.874 226.079 139.241 225.956 139.605C226.836 143.015 229.712 145.39 232.977 145.39C237.004 145.39 240.281 141.835 240.281 137.464C240.281 137.427 240.281 137.393 240.281 137.36L233.296 137.093M226.049 136.439H226.075C226.097 138.484 227.634 140.136 229.526 140.136C231.419 140.136 232.821 138.625 232.966 136.707L240.629 137C240.637 137.156 240.652 137.308 240.652 137.464C240.652 142.047 237.215 145.761 232.977 145.761C229.422 145.761 226.439 143.141 225.567 139.59C225.878 138.688 226.056 137.716 226.056 136.696C226.056 136.61 226.045 136.525 226.045 136.439H226.049Z" fill="#282828"/>
<path d="M218.384 144.808C221.486 144.808 224.303 142.69 225.39 139.531C225.71 138.607 225.869 137.654 225.869 136.696C225.869 136.67 225.869 136.644 225.869 136.622L218.818 136.351C218.818 136.351 218.818 136.385 218.818 136.403C218.818 138.567 217.185 140.322 215.178 140.322C213.17 140.322 211.537 138.563 211.537 136.403C211.537 136.299 211.541 136.192 211.552 136.073L210.918 136.047C210.903 136.262 210.895 136.481 210.895 136.696C210.895 141.168 214.254 144.808 218.384 144.808Z" fill="white"/>
<path d="M211.098 136.24C211.091 136.393 211.087 136.545 211.087 136.697C211.087 141.068 214.364 144.624 218.39 144.624C221.415 144.624 224.161 142.553 225.222 139.473C225.523 138.604 225.679 137.706 225.69 136.801L225.363 136.79L219.01 136.545C218.939 138.745 217.251 140.508 215.188 140.508C213.124 140.508 211.362 138.667 211.362 136.4C211.362 136.352 211.362 136.3 211.362 136.248L211.098 136.237M210.753 135.854L211.766 135.892C211.744 136.059 211.729 136.226 211.729 136.4C211.729 138.463 213.277 140.137 215.184 140.137C217.091 140.137 218.639 138.463 218.639 136.4C218.639 136.318 218.631 136.237 218.628 136.155L225.374 136.415L226.05 136.441C226.05 136.526 226.061 136.608 226.061 136.697C226.061 137.717 225.883 138.69 225.571 139.591C224.484 142.746 221.682 144.995 218.387 144.995C214.149 144.995 210.712 141.28 210.712 136.697C210.712 136.411 210.727 136.133 210.753 135.854Z" fill="#282828"/>
<path d="M218.637 136.4C218.637 138.463 217.09 140.137 215.182 140.137C213.275 140.137 211.727 138.463 211.727 136.4C211.727 136.226 211.742 136.059 211.765 135.892L218.626 136.155C218.63 136.237 218.637 136.318 218.637 136.4Z" fill="#282828"/>
<path d="M229.526 140.138C227.63 140.138 226.093 138.486 226.075 136.445L232.966 136.709C232.821 138.627 231.337 140.138 229.526 140.138Z" fill="#282828"/>
<ellipse cx="224.54" cy="146.172" rx="1.71878" ry="2.06253" fill="#282828"/>
<path d="M290.553 115.303C283.856 108.204 272.794 107.535 265.29 113.775L264.986 114.027C263.509 115.256 261.83 116.22 260.025 116.878L258.7 117.361C250.221 120.452 246.384 130.287 250.53 138.303C251.45 140.082 252.016 142.022 252.196 144.017L252.218 144.252C253.028 153.213 260.995 159.791 269.948 158.888L272.213 158.66C274.238 158.456 276.282 158.579 278.267 159.026L280.488 159.526C289.267 161.502 297.97 155.933 299.854 147.135L299.904 146.904C300.323 144.946 301.119 143.087 302.247 141.432C307.329 133.975 304.706 123.749 296.662 119.659L295.405 119.02C293.692 118.149 292.143 116.989 290.824 115.591L290.553 115.303Z" fill="#FFDE3B" stroke="#282828" stroke-width="0.5"/>
<path d="M265.097 151.667C267.793 151.349 269.757 149.208 269.483 146.884C269.209 144.56 266.801 142.934 264.105 143.252C261.408 143.57 259.445 145.712 259.719 148.036C259.993 150.359 262.401 151.985 265.097 151.667Z" fill="#FF4F18" stroke="#282828" stroke-width="0.5" stroke-linecap="round" stroke-linejoin="round"/>
<path d="M292.028 147.705C292.374 145.391 290.479 143.189 287.794 142.786C285.109 142.384 282.651 143.934 282.304 146.248C281.958 148.562 283.853 150.764 286.538 151.166C289.223 151.568 291.681 150.019 292.028 147.705Z" fill="#FF4F18" stroke="#282828" stroke-width="0.5" stroke-linecap="round" stroke-linejoin="round"/>
<path d="M264.404 135.215C263.924 136.322 263.636 137.589 263.604 138.942C263.508 143.339 266.163 146.961 269.538 147.036C272.912 147.111 275.726 143.606 275.822 139.212C275.827 139.025 275.824 138.84 275.817 138.655C275.811 138.428 275.798 138.205 275.776 137.986C275.654 136.706 275.294 135.522 274.757 134.51" fill="white"/>
<path d="M264.404 135.215C263.924 136.322 263.636 137.589 263.604 138.942C263.508 143.339 266.163 146.961 269.538 147.036C272.912 147.111 275.726 143.606 275.822 139.212C275.827 139.025 275.824 138.84 275.817 138.655C275.811 138.428 275.798 138.205 275.776 137.986C275.654 136.706 275.294 135.522 274.757 134.51" stroke="#282828" stroke-width="0.5" stroke-linecap="round" stroke-linejoin="round"/>
<path d="M267.41 135.437C266.76 135.424 266.128 135.348 265.517 135.22C265.154 136.037 264.929 137.041 264.904 138.131C264.843 140.925 266.124 143.22 267.764 143.258C269.405 143.296 270.784 141.056 270.847 138.262C270.848 138.25 270.849 138.238 270.849 138.227C269.608 138.096 268.705 137.739 268.715 137.344C268.724 136.948 269.557 136.661 270.712 136.567C270.613 136.033 270.464 135.537 270.27 135.1C269.367 135.339 268.406 135.459 267.41 135.437Z" fill="#282828"/>
<path d="M264.405 135.215C265.488 132.729 267.554 131.065 269.888 131.118C271.921 131.162 273.692 132.495 274.758 134.51" stroke="#282828" stroke-width="0.5" stroke-linecap="round" stroke-linejoin="round"/>
<path d="M266.892 136.092C267.5 136.22 268.135 136.293 268.786 136.309C269.781 136.331 270.742 136.211 271.645 135.972C272.799 135.666 273.853 135.164 274.761 134.512C273.695 132.5 271.921 131.166 269.892 131.12C267.557 131.069 265.491 132.731 264.408 135.217C265.173 135.61 266.009 135.907 266.898 136.092L266.892 136.092Z" fill="#BEFF74" stroke="#282828" stroke-width="0.5" stroke-linecap="round" stroke-linejoin="round"/>
<path d="M266.603 133.936C266.603 133.936 266.591 135.149 267.412 136.129L266.603 133.936Z" fill="#BEFF74"/>
<path d="M266.603 133.936C266.603 133.936 266.591 135.149 267.412 136.129" stroke="#282828" stroke-width="0.5" stroke-linecap="round" stroke-linejoin="round"/>
<path d="M268.284 134.215C268.284 134.215 268.273 135.428 269.093 136.408L268.284 134.215Z" fill="#BEFF74"/>
<path d="M268.284 134.215C268.284 134.215 268.273 135.428 269.093 136.408" stroke="#282828" stroke-width="0.5" stroke-linecap="round" stroke-linejoin="round"/>
<path d="M275.897 134.743C275.374 135.829 275.036 137.085 274.955 138.438C274.689 142.827 277.203 146.549 280.573 146.753C283.943 146.957 286.888 143.566 287.153 139.176C287.164 138.989 287.17 138.804 287.169 138.62C287.171 138.394 287.167 138.171 287.154 137.95C287.079 136.667 286.767 135.469 286.27 134.438" fill="white"/>
<path d="M275.897 134.743C275.374 135.829 275.036 137.085 274.955 138.438C274.689 142.827 277.203 146.549 280.573 146.753C283.943 146.957 286.888 143.566 287.153 139.176C287.164 138.989 287.17 138.804 287.169 138.62C287.171 138.394 287.167 138.171 287.154 137.95C287.079 136.667 286.767 135.469 286.27 134.438" stroke="#282828" stroke-width="0.5" stroke-linecap="round" stroke-linejoin="round"/>
<path d="M278.857 135.132C278.208 135.093 277.577 134.993 276.973 134.842C276.582 135.646 276.316 136.638 276.25 137.726C276.081 140.517 277.271 142.859 278.911 142.958C280.55 143.057 282.014 140.876 282.183 138.085C282.184 138.073 282.184 138.061 282.185 138.05C280.949 137.869 280.061 137.481 280.085 137.084C280.109 136.686 280.954 136.435 282.113 136.385C282.034 135.846 281.903 135.346 281.727 134.901C280.818 135.104 279.853 135.189 278.857 135.129L278.857 135.132Z" fill="#282828"/>
<path d="M275.896 134.739C277.073 132.296 279.202 130.715 281.534 130.856C283.562 130.979 285.281 132.379 286.269 134.431" stroke="#282828" stroke-width="0.5" stroke-linecap="round" stroke-linejoin="round"/>
<path d="M278.349 135.71C278.953 135.861 279.583 135.961 280.232 136C281.226 136.06 282.19 135.975 283.103 135.772C284.266 135.511 285.341 135.051 286.273 134.433C285.285 132.381 283.566 130.981 281.538 130.858C279.206 130.717 277.077 132.298 275.9 134.744C276.649 135.164 277.473 135.496 278.352 135.713L278.349 135.71Z" fill="#BEFF74" stroke="#282828" stroke-width="0.5" stroke-linecap="round" stroke-linejoin="round"/>
<path d="M278.142 133.546C278.142 133.546 278.083 134.757 278.867 135.769L278.142 133.546Z" fill="#BEFF74"/>
<path d="M278.142 133.546C278.142 133.546 278.083 134.757 278.867 135.769" stroke="#282828" stroke-width="0.5" stroke-linecap="round" stroke-linejoin="round"/>
<path d="M279.815 133.888C279.815 133.888 279.757 135.098 280.54 136.111L279.815 133.888Z" fill="#BEFF74"/>
<path d="M279.815 133.888C279.815 133.888 279.757 135.098 280.54 136.111" stroke="#282828" stroke-width="0.5" stroke-linecap="round" stroke-linejoin="round"/>
<path d="M271.413 148.196C271.413 148.196 274.35 151.811 277.77 146.777" stroke="#282828" stroke-width="0.5" stroke-linecap="round" stroke-linejoin="round"/>
</g>
<rect x="0.5" y="0.610352" width="343" height="154" rx="11.5" stroke="#00A176"/>
<path d="M31.7406 130.296C23.853 137.346 25.9447 144.296 36.4078 145.805C46.871 147.313 61.7483 142.854 69.6359 135.805C77.5235 128.755 75.4319 121.805 64.9687 120.296C54.5055 118.788 39.6282 123.247 31.7406 130.296ZM59.1569 129.57L51.656 136.266L41.7055 134.822L49.2065 128.127L59.1569 129.57Z" fill="#FFDB7A" stroke="#282828" stroke-width="0.7" stroke-miterlimit="10"/>
<path d="M30.7328 126.946C22.8452 133.996 24.9369 140.946 35.4 142.455C45.8632 143.964 60.7405 139.505 68.6281 132.455C76.5157 125.406 74.424 118.455 63.9609 116.947C53.4977 115.438 38.6204 119.897 30.7328 126.946ZM58.1491 126.221L50.6482 132.916L40.6977 131.473L48.1986 124.777L58.1491 126.221Z" fill="#FFDB7A" stroke="#282828" stroke-width="0.7" stroke-miterlimit="10"/>
<path d="M51.9642 137.289C62.6106 134.085 70.1422 127.836 68.7866 123.331C67.431 118.826 57.7014 117.772 47.0551 120.976C36.4087 124.18 28.877 130.429 30.2327 134.934C31.5883 139.438 41.3178 140.493 51.9642 137.289Z" stroke="#282828" stroke-width="0.7" stroke-miterlimit="10"/>
<path d="M21.0075 106.194C11.7196 108.751 10.6122 115.268 18.5367 120.734C26.4611 126.2 40.4021 128.585 49.6901 126.028C58.9781 123.47 60.0855 116.954 52.161 111.488C44.2365 106.021 30.2955 103.636 21.0075 106.194ZM43.6658 116.7L34.8365 119.126L27.304 113.92L36.1333 111.494L43.6658 116.7Z" fill="#FFDB7A" stroke="#282828" stroke-width="0.7" stroke-miterlimit="10"/>
<path d="M21.5417 103.053C12.2537 105.61 11.1464 112.127 19.0708 117.593C26.9953 123.06 40.9363 125.445 50.2243 122.887C59.5123 120.33 60.6196 113.813 52.6952 108.347C44.7707 102.881 30.8297 100.495 21.5417 103.053ZM44.2 113.559L35.3707 115.985L27.8382 110.779L36.6675 108.354L44.2 113.559Z" fill="#FFDB7A" stroke="#282828" stroke-width="0.7" stroke-miterlimit="10"/>
<path d="M34.6739 120.085C44.6556 121.781 53.3291 119.733 54.0468 115.509C54.7645 111.286 47.2545 106.487 37.2729 104.791C27.2912 103.095 18.6177 105.143 17.9 109.367C17.1823 113.59 24.6923 118.389 34.6739 120.085Z" stroke="#282828" stroke-width="0.7" stroke-miterlimit="10"/>
<path d="M24.4654 73.1447C18.2997 70.782 15.0404 73.9287 17.1929 80.1661C19.3454 86.4034 26.0708 93.3851 32.2365 95.7478C38.4022 98.1105 41.6615 94.9638 39.509 88.7265C37.3565 82.4891 30.6312 75.5074 24.4654 73.1447ZM32.702 88.1513L26.8431 85.9021L24.801 79.9678L30.66 82.217L32.702 88.1513Z" fill="#FFDB7A" stroke="#282828" stroke-width="0.7" stroke-miterlimit="10"/>
<path d="M26.0362 71.6281C19.8705 69.2654 16.6112 72.4121 18.7637 78.6495C20.9162 84.8868 27.6416 91.8685 33.8073 94.2312C39.973 96.5939 43.2323 93.4472 41.0798 87.2099C38.9273 80.9725 32.202 73.9908 26.0362 71.6281ZM34.2728 86.6347L28.4139 84.3855L26.3718 78.4512L32.2308 80.7004L34.2728 86.6347Z" fill="#FFDB7A" stroke="#282828" stroke-width="0.7" stroke-miterlimit="10"/>
<path d="M26.3636 86.3654C31.1836 91.3578 36.8034 93.7517 38.9157 91.7123C41.0281 89.6729 38.8331 83.9725 34.0131 78.98C29.193 73.9876 23.5732 71.5937 21.4609 73.6331C19.3485 75.6725 21.5435 81.3729 26.3636 86.3654Z" stroke="#282828" stroke-width="0.7" stroke-miterlimit="10"/>
<defs>
<linearGradient id="paint0_linear_4454_55460" x1="93.5" y1="59" x2="93.5" y2="103" gradientUnits="userSpaceOnUse">
<stop stop-color="#00A176"/>
<stop offset="0.264423" stop-color="#008F69"/>
<stop offset="0.567308" stop-color="#008562"/>
<stop offset="1" stop-color="#005C44"/>
</linearGradient>
</defs>
</svg>
