<svg width="344" height="70" viewBox="0 0 344 70" fill="none" xmlns="http://www.w3.org/2000/svg">
<rect width="344" height="70" rx="12" fill="url(#paint0_linear_5134_55711)"/>
<path d="M258.918 30V17.964H267.248V20.276H261.74V22.826H266.806V25.138H261.74V27.688H267.248V30H258.918ZM271.323 17.964L274.043 26.838H274.145L276.865 17.964H280.061L275.981 30H272.207L268.127 17.964H271.323ZM280.982 30V17.964H289.312V20.276H283.804V22.826H288.87V25.138H283.804V27.688H289.312V30H280.982ZM300.969 17.964V30H298.555L293.659 22.928H293.591V30H290.769V17.964H293.217L298.045 25.036H298.113V17.964H300.969ZM302.024 20.276V17.964H312.122V20.276H308.484V30H305.662V20.276H302.024ZM258.918 53V40.964H263.882C266.568 40.981 267.962 42.205 267.962 44.024C267.962 45.401 267.027 46.353 265.718 46.642V46.744C267.163 46.812 268.438 47.9 268.438 49.634C268.438 51.589 266.925 53 264.256 53H258.918ZM261.74 50.722H263.61C264.885 50.705 265.48 50.195 265.48 49.328C265.48 48.393 264.783 47.781 263.644 47.764H261.74V50.722ZM261.74 45.928H263.406C264.375 45.945 265.072 45.435 265.072 44.568C265.072 43.752 264.443 43.242 263.44 43.242H261.74V45.928ZM280.773 46.982C280.756 50.96 278.257 53.17 275.027 53.17C271.797 53.17 269.332 50.943 269.315 46.982C269.332 43.021 271.797 40.811 275.027 40.828C278.257 40.811 280.756 43.021 280.773 46.982ZM272.205 46.982C272.222 49.379 273.293 50.671 275.027 50.688C276.795 50.671 277.866 49.379 277.883 46.982C277.866 44.602 276.795 43.293 275.027 43.31C273.293 43.293 272.222 44.602 272.205 46.982ZM293.382 46.982C293.365 50.96 290.866 53.17 287.636 53.17C284.406 53.17 281.941 50.943 281.924 46.982C281.941 43.021 284.406 40.811 287.636 40.828C290.866 40.811 293.365 43.021 293.382 46.982ZM284.814 46.982C284.831 49.379 285.902 50.671 287.636 50.688C289.404 50.671 290.475 49.379 290.492 46.982C290.475 44.602 289.404 43.293 287.636 43.31C285.902 43.293 284.831 44.602 284.814 46.982ZM293.748 43.276V40.964H303.846V43.276H300.208V53H297.386V43.276H293.748ZM304.939 53V40.964H307.761V45.826H312.589V40.964H315.411V53H312.589V48.138H307.761V53H304.939Z" fill="white"/>
<path d="M140.738 33.7849H136.738L136.535 32.7215C135.573 33.633 134.206 34.2153 132.687 34.2153H132.13C130.028 34.2153 126.939 33.076 126.939 28.873C126.939 24.7967 129.851 23.5814 133.143 23.5814H135.75C135.7 21.3786 134.636 20.9735 133.421 20.9735C132.839 20.9735 132.332 21.0748 131.725 21.252C131.32 21.3786 130.99 21.5559 130.535 21.7584C129.623 22.2142 128.281 21.8597 127.826 20.8469C127.345 19.8342 127.75 18.7961 128.636 18.1378C129.978 17.1504 132.105 16.7706 133.826 16.7706C137.497 16.7706 140.738 18.0618 140.738 24.2397V33.7849ZM135.75 28.4679V27.3033H133.446C132.484 27.3033 131.953 27.7843 131.953 28.8477C131.953 29.9111 132.484 30.3162 133.37 30.3162H133.725C134.662 30.3162 135.75 29.7592 135.75 28.4679Z" fill="white"/>
<path d="M125.238 16.9731C126.554 17.4542 127.238 18.8721 126.605 20.3659L121.288 32.5443C119.744 36.1142 117.06 37.5827 113.54 37.0764C112.072 36.8738 111.338 35.6838 111.49 34.5698C111.667 33.4304 112.502 32.4936 113.996 32.7721C115.034 32.9747 116.098 32.6455 116.503 31.886V31.8607L111.338 20.3659C110.679 18.8974 111.439 17.4542 112.756 16.9731C114.072 16.4921 115.642 16.8212 116.224 18.4163L119.136 26.2905L121.82 18.4163C122.377 16.8212 123.921 16.4921 125.238 16.9731Z" fill="white"/>
<path d="M109.499 16.9731C110.816 17.4542 111.5 18.8721 110.867 20.3659L105.55 32.5443C104.005 36.1142 101.321 37.5827 97.8021 37.0764C96.3336 36.8738 95.5994 35.6838 95.7513 34.5698C95.9285 33.4304 96.764 32.4936 98.2579 32.7721C99.2959 32.9747 100.359 32.6455 100.764 31.886V31.8607L95.5994 20.3659C94.9411 18.8974 95.7007 17.4542 97.0172 16.9731C98.3338 16.4921 99.9036 16.8212 100.486 18.4163L103.398 26.2905L106.081 18.4163C106.638 16.8212 108.183 16.4921 109.499 16.9731Z" fill="white"/>
<path d="M94.213 13.707V33.7849H90.1873L89.9341 32.1392C88.9466 33.4304 87.5035 34.2153 85.6552 34.2153C82.3131 34.2153 79.4774 32.5696 79.4774 27.2273V23.7333C79.4774 18.391 82.3131 16.7453 85.6552 16.7453C87.0477 16.7453 88.1871 17.201 89.0732 17.9353V13.707C89.0732 12.036 90.3139 11.1751 91.6558 11.1751C92.9977 11.1751 94.213 12.036 94.213 13.707ZM84.693 23.3788V27.5818C84.693 29.3035 85.9843 29.8858 86.8705 29.8858C87.7566 29.8858 89.0732 29.3035 89.0732 27.5818V23.2522C89.0732 21.6318 87.7313 21.0748 86.8705 21.0748C85.9843 21.0748 84.693 21.6571 84.693 23.3788Z" fill="white"/>
<path d="M77.5846 13.707V33.7849H73.5589L73.3057 32.1392C72.3182 33.4304 70.875 34.2153 69.0268 34.2153C65.6847 34.2153 62.849 32.5696 62.849 27.2273V23.7333C62.849 18.391 65.6847 16.7453 69.0268 16.7453C70.4193 16.7453 71.5587 17.201 72.4448 17.9353V13.707C72.4448 12.036 73.6854 11.1751 75.0274 11.1751C76.3693 11.1751 77.5846 12.036 77.5846 13.707ZM68.0646 23.3788V27.5818C68.0646 29.3035 69.3559 29.8858 70.2421 29.8858C71.1282 29.8858 72.4448 29.3035 72.4448 27.5818V23.2522C72.4448 21.6318 71.1029 21.0748 70.2421 21.0748C69.3559 21.0748 68.0646 21.6571 68.0646 23.3788Z" fill="white"/>
<path d="M52.3454 34.19C49.1299 34.19 46.5727 32.5949 46.5727 27.2526V19.2772C46.5727 17.5302 47.7626 16.7453 49.1805 16.7453C50.5984 16.7453 51.7884 17.5302 51.7884 19.2772V27.5565C51.7884 29.2781 52.9277 29.8605 53.7885 29.8605C54.6241 29.8605 55.8141 29.3035 55.8141 27.6831V19.2518C55.8141 17.5302 56.9787 16.7453 58.3713 16.7453C59.7891 16.7453 60.9538 17.5302 60.9538 19.2518V33.7849H56.9281L56.6496 32.1139C55.7128 33.4051 54.1683 34.19 52.3454 34.19Z" fill="white"/>
<path d="M44.4275 17.8593V18.1631C44.4275 20.1127 43.6426 21.5306 42.0222 22.442C44.1996 23.3029 45.187 24.9739 45.187 27.3033V27.5311C45.187 32.1898 41.8449 33.7849 37.3382 33.7849H32.9327C29.8944 33.7849 28.9829 32.6962 28.9829 29.7845V15.5806C28.9829 12.6689 29.8944 11.5802 32.9327 11.5802H36.6292C41.2626 11.5802 44.4275 13.707 44.4275 17.8593ZM36.8824 15.8844H34.8569C34.2746 15.8844 34.1227 16.011 34.1227 16.6187V20.6191H36.8824C38.5535 20.6191 39.2877 19.657 39.2877 18.4163V18.0872C39.2877 16.7959 38.5535 15.8844 36.8824 15.8844ZM37.642 24.7461H34.1227V28.7464C34.1227 29.3541 34.2746 29.4807 34.8569 29.4807H37.642C39.313 29.4807 40.0473 28.5692 40.0473 27.3033V26.9235C40.0473 25.6575 39.313 24.7461 37.642 24.7461Z" fill="white"/>
<path d="M204.81 44.4207C205.786 44.7771 206.292 45.8273 205.823 46.9339L201.885 55.9549C200.741 58.5993 198.753 59.6871 196.146 59.312C195.058 59.162 194.514 58.2805 194.627 57.4553C194.758 56.6113 195.377 55.9174 196.483 56.1237C197.252 56.2737 198.04 56.0299 198.34 55.4673V55.4485L194.514 46.9339C194.026 45.8461 194.589 44.7771 195.564 44.4207C196.54 44.0644 197.702 44.3082 198.134 45.4897L200.29 51.3225L202.278 45.4897C202.691 44.3082 203.835 44.0644 204.81 44.4207Z" fill="white"/>
<path d="M193.487 42.0014V56.8739H190.505L190.318 55.6548C189.586 56.6113 188.517 57.1927 187.148 57.1927C184.672 57.1927 182.572 55.9737 182.572 52.0164V49.4282C182.572 45.471 184.672 44.2519 187.148 44.2519C188.179 44.2519 189.023 44.5895 189.68 45.1334V42.0014C189.68 40.7635 190.599 40.1259 191.593 40.1259C192.587 40.1259 193.487 40.7635 193.487 42.0014ZM186.435 49.1657V52.279C186.435 53.5543 187.392 53.9856 188.048 53.9856C188.705 53.9856 189.68 53.5543 189.68 52.279V49.0719C189.68 47.8716 188.686 47.459 188.048 47.459C187.392 47.459 186.435 47.8904 186.435 49.1657Z" fill="white"/>
<path d="M181.17 42.0014V56.8739H178.188L178 55.6548C177.269 56.6113 176.2 57.1927 174.831 57.1927C172.355 57.1927 170.254 55.9737 170.254 52.0164V49.4282C170.254 45.471 172.355 44.2519 174.831 44.2519C175.862 44.2519 176.706 44.5895 177.363 45.1334V42.0014C177.363 40.7635 178.281 40.1259 179.275 40.1259C180.269 40.1259 181.17 40.7635 181.17 42.0014ZM174.118 49.1657V52.279C174.118 53.5543 175.074 53.9856 175.731 53.9856C176.387 53.9856 177.363 53.5543 177.363 52.279V49.0719C177.363 47.8716 176.369 47.459 175.731 47.459C175.074 47.459 174.118 47.8904 174.118 49.1657Z" fill="white"/>
<path d="M162.474 57.174C160.092 57.174 158.198 55.9924 158.198 52.0352V46.1274C158.198 44.8333 159.079 44.2519 160.13 44.2519C161.18 44.2519 162.061 44.8333 162.061 46.1274V52.2602C162.061 53.5355 162.905 53.9669 163.543 53.9669C164.162 53.9669 165.043 53.5543 165.043 52.354V46.1087C165.043 44.8333 165.906 44.2519 166.938 44.2519C167.988 44.2519 168.851 44.8333 168.851 46.1087V56.8739H165.869L165.662 55.6361C164.968 56.5926 163.824 57.174 162.474 57.174Z" fill="white"/>
<path d="M156.609 45.0772V45.3022C156.609 46.7463 156.028 47.7966 154.827 48.4718C156.44 49.1094 157.172 50.3472 157.172 52.0727V52.2415C157.172 55.6923 154.696 56.8739 151.358 56.8739H148.094C145.844 56.8739 145.169 56.0674 145.169 53.9106V43.3892C145.169 41.2324 145.844 40.426 148.094 40.426H150.832C154.265 40.426 156.609 42.0014 156.609 45.0772ZM151.02 43.6143H149.52C149.088 43.6143 148.976 43.7081 148.976 44.1582V47.1214H151.02C152.258 47.1214 152.802 46.4087 152.802 45.4898V45.2459C152.802 44.2895 152.258 43.6143 151.02 43.6143ZM151.583 50.1784H148.976V53.1417C148.976 53.5918 149.088 53.6856 149.52 53.6856H151.583C152.82 53.6856 153.364 53.0104 153.364 52.0727V51.7914C153.364 50.8536 152.82 50.1784 151.583 50.1784Z" fill="white"/>
<path d="M134.728 56.8739V42.0014C134.728 40.7073 135.61 40.1259 136.66 40.1259C137.71 40.1259 138.592 40.7073 138.592 42.0014V56.8739H134.728Z" fill="white"/>
<path d="M133.138 56.8739H130.175L130.025 56.0862C129.312 56.7613 128.3 57.1927 127.174 57.1927H126.762C125.205 57.1927 122.917 56.3487 122.917 53.2355C122.917 50.2159 125.074 49.3157 127.512 49.3157H129.444C129.406 47.684 128.618 47.384 127.718 47.384C127.287 47.384 126.912 47.459 126.462 47.5903C126.162 47.684 125.918 47.8153 125.58 47.9654C124.905 48.303 123.911 48.0404 123.573 47.2902C123.217 46.54 123.517 45.7711 124.174 45.2834C125.168 44.552 126.743 44.2707 128.018 44.2707C130.738 44.2707 133.138 45.2272 133.138 49.8033V56.8739ZM129.444 52.9354V52.0727H127.737C127.024 52.0727 126.63 52.429 126.63 53.2167C126.63 54.0044 127.024 54.3045 127.681 54.3045H127.943C128.637 54.3045 129.444 53.8919 129.444 52.9354Z" fill="white"/>
<path d="M113.863 56.8739H110.881V42.0014C110.881 40.7635 111.781 40.1259 112.775 40.1259C113.769 40.1259 114.688 40.7635 114.688 42.0014V45.1334C115.345 44.5895 116.189 44.2519 117.22 44.2519C119.696 44.2519 121.796 45.471 121.796 49.4282V52.0164C121.796 55.9737 119.696 57.1927 117.22 57.1927C115.851 57.1927 114.782 56.6113 114.051 55.6548L113.863 56.8739ZM117.933 52.279V49.1657C117.933 47.8904 116.976 47.459 116.32 47.459C115.682 47.459 114.688 47.8716 114.688 49.0719V52.279C114.688 53.5543 115.663 53.9856 116.32 53.9856C116.976 53.9856 117.933 53.5543 117.933 52.279Z" fill="white"/>
<path d="M98.5937 51.9789V49.447C98.5937 45.4147 101.482 44.2519 104.033 44.2519C106.527 44.2519 109.471 45.4147 109.471 49.447V51.9789C109.471 56.0112 106.527 57.174 104.033 57.174C101.538 57.174 98.5937 56.0112 98.5937 51.9789ZM105.702 52.1477V49.2782C105.702 47.9466 104.839 47.4215 104.033 47.4215C103.226 47.4215 102.363 47.9466 102.363 49.2782V52.1477C102.363 53.4793 103.226 54.0044 104.033 54.0044C104.839 54.0044 105.702 53.4793 105.702 52.1477Z" fill="white"/>
<path d="M93.316 56.8739V42.0014C93.316 40.7073 94.1975 40.1259 95.2477 40.1259C96.298 40.1259 97.1795 40.7073 97.1795 42.0014V56.8739H93.316Z" fill="white"/>
<path d="M91.9055 50.0472V51.8476C91.9055 55.6548 89.2235 57.174 86.0165 57.174C82.7719 57.174 79.5086 55.5798 79.5086 51.4725V45.8273C79.5086 41.6825 82.7719 40.1259 86.0727 40.1259C87.7982 40.1259 89.3173 40.5197 90.0487 41.0449C90.8177 41.5888 91.1928 42.489 90.7427 43.2767C90.3676 43.9331 89.6736 44.1957 89.036 44.0831C88.6046 44.0081 88.2858 43.8018 88.0045 43.6893C87.5543 43.5205 86.8979 43.4455 86.0727 43.4455C84.7599 43.4455 83.3345 44.2707 83.3345 45.9961V51.3037C83.3345 53.0292 84.6661 53.8544 86.0165 53.8544C87.2918 53.8544 88.4733 53.2355 88.4733 51.9039V50.8911C88.4733 50.516 88.3983 50.4598 88.042 50.4598H87.4231C86.3353 50.4598 85.9227 49.6345 85.9227 48.8844C85.9227 48.1342 86.354 47.2527 87.4231 47.2527H89.1297C91.3428 47.2527 91.9055 47.9466 91.9055 50.0472Z" fill="white"/>
<path d="M68.8305 40.9947C69.8741 42.0383 69.8741 43.7303 68.8305 44.7739L65.8263 47.7781L68.7013 50.6531C69.7448 51.6967 69.7449 53.3887 68.7013 54.4323C67.6577 55.4758 65.9657 55.4757 64.9221 54.4323L62.0471 51.5573L59.1722 54.4323C58.1286 55.4757 56.4366 55.4758 55.393 54.4323C54.3494 53.3887 54.3495 51.6967 55.393 50.6531L58.268 47.7781L55.2638 44.7739C54.2202 43.7303 54.2202 42.0383 55.2638 40.9947C56.3074 39.9511 57.9993 39.9512 59.0429 40.9947L62.0471 43.9989L65.0514 40.9947C66.095 39.9512 67.7869 39.9511 68.8305 40.9947Z" fill="#FFDE5C"/>
<path d="M53.5584 48.8185L54.5988 47.7781L53.4292 46.6085C51.4046 44.5838 51.3731 41.321 53.3342 39.2577L53.4292 39.1602C55.486 37.1033 58.8207 37.1035 60.8775 39.1602L59.0429 40.9947C57.9993 39.9512 56.3074 39.9511 55.2638 40.9947C54.2202 42.0383 54.2202 43.7303 55.2638 44.7739L58.268 47.7781L55.393 50.6531L55.2983 50.7529C54.3812 51.7681 54.3811 53.3173 55.2983 54.3324L55.393 54.4323C56.404 55.4432 58.0234 55.4746 59.0724 54.527L59.1722 54.4323L62.0471 51.5573L64.9221 54.4323L65.0219 54.527C66.0371 55.444 67.5863 55.4441 68.6015 54.527L68.7013 54.4323C69.7123 53.4213 69.7437 51.8019 68.796 50.7529L68.7013 50.6531L70.5359 48.8185C72.5601 50.843 72.5922 54.1059 70.6308 56.1693L70.5359 56.2668C68.5112 58.2914 65.2483 58.3229 63.1851 56.3618L63.0875 56.2668L62.0471 55.2264L61.0068 56.2668C58.9822 58.2912 55.7193 58.323 53.656 56.3618L53.5584 56.2668C51.5337 54.2421 51.5024 50.9793 53.4635 48.916L53.5584 48.8185ZM68.8305 44.7739C69.8415 43.7629 69.873 42.1436 68.9252 41.0945L68.8305 40.9947C67.7869 39.9511 66.095 39.9512 65.0514 40.9947L62.0471 43.9989L59.0429 40.9947L60.8775 39.1602L62.0471 40.3298L63.2168 39.1602C65.2736 37.1035 68.6083 37.1033 70.6651 39.1602L70.7601 39.2577C72.6901 41.2882 72.6901 44.4804 70.7601 46.511L70.6651 46.6085L69.4955 47.7781L70.5359 48.8185L68.7013 50.6531L65.8263 47.7781L68.8305 44.7739Z" fill="white"/>
<path d="M68.8305 40.9947C69.8741 42.0383 69.8741 43.7303 68.8305 44.7739L65.8263 47.7781L68.7013 50.6531C69.7448 51.6967 69.7449 53.3887 68.7013 54.4323C67.6577 55.4758 65.9657 55.4757 64.9221 54.4323L62.0471 51.5573L59.1722 54.4323C58.1286 55.4757 56.4366 55.4758 55.393 54.4323C54.3494 53.3887 54.3495 51.6967 55.393 50.6531L58.268 47.7781L55.2638 44.7739C54.2202 43.7303 54.2202 42.0383 55.2638 40.9947C56.3074 39.9511 57.9993 39.9512 59.0429 40.9947L62.0471 43.9989L65.0514 40.9947C66.095 39.9512 67.7869 39.9511 68.8305 40.9947Z" fill="#FFDE5C"/>
<path d="M54.8688 50.1289L57.2196 47.7781L54.7396 45.2981C53.4482 44.0066 53.4078 41.9378 54.6185 40.5978L54.7396 40.4706C56.0727 39.1375 58.234 39.1375 59.5671 40.4706L59.0429 40.9947C57.9993 39.9512 56.3074 39.9511 55.2638 40.9947C54.2202 42.0383 54.2202 43.7303 55.2638 44.7739L58.268 47.7781L55.393 50.6531L55.2983 50.7529C54.3812 51.7681 54.3811 53.3173 55.2983 54.3324L55.393 54.4323C56.404 55.4431 58.0234 55.4746 59.0724 54.527L59.1722 54.4323L62.0471 51.5573L64.9221 54.4323L65.0219 54.527C66.0371 55.444 67.5863 55.4441 68.6015 54.527L68.7013 54.4323C69.7123 53.4213 69.7437 51.8019 68.796 50.7529L68.7013 50.6531L69.2255 50.1289C70.5167 51.4204 70.5573 53.4892 69.3465 54.8292L69.2255 54.9564C67.934 56.2478 65.8651 56.2881 64.5251 55.0775L64.3979 54.9564L62.0471 52.6056L59.6964 54.9564C58.4049 56.2477 56.336 56.2882 54.996 55.0775L54.8688 54.9564C53.5774 53.6649 53.5371 51.5961 54.7478 50.2561L54.8688 50.1289ZM68.8305 44.7739C69.8415 43.7629 69.873 42.1436 68.9252 41.0945L68.8305 40.9947C67.7869 39.9511 66.095 39.9512 65.0514 40.9947L62.0471 43.9989L59.0429 40.9947L59.5671 40.4706L62.0471 42.9506L64.5272 40.4706C65.8603 39.1375 68.0216 39.1375 69.3547 40.4706L69.4758 40.5978C70.6475 41.8946 70.6475 43.8741 69.4758 45.1709L69.3547 45.2981L66.8747 47.7781L69.2255 50.1289L68.7013 50.6531L65.8263 47.7781L68.8305 44.7739Z" fill="#FF9B65"/>
<path d="M62.772 50.2762H61.5665V46.8734C61.5665 46.4814 61.8515 46.2795 62.1663 46.2795C62.3979 46.2795 62.6176 46.3924 62.7186 46.6062C62.9502 46.3924 63.2709 46.2795 63.5856 46.2795C64.3398 46.2795 64.9396 46.6537 64.9396 47.9067V50.2762H63.7163V47.8354C63.7163 47.4316 63.449 47.295 63.2471 47.295C63.0452 47.295 62.772 47.4316 62.772 47.8354V50.2762Z" fill="#F4722C"/>
<path d="M59.8003 45.5194C59.8003 45.1275 60.0853 44.9731 60.4179 44.9731C60.7504 44.9731 61.0355 45.1275 61.0355 45.5194C61.0355 45.9114 60.7504 46.0658 60.4179 46.0658C60.0853 46.0658 59.8003 45.9114 59.8003 45.5194ZM59.8062 50.2762V46.915C59.8062 46.5052 60.0853 46.3211 60.4179 46.3211C60.7504 46.3211 61.0296 46.5052 61.0296 46.915V50.2762H59.8062Z" fill="#F4722C"/>
<defs>
<linearGradient id="paint0_linear_5134_55711" x1="172" y1="0" x2="172" y2="70" gradientUnits="userSpaceOnUse">
<stop stop-color="#06B586"/>
<stop offset="1" stop-color="#09A996"/>
</linearGradient>
</defs>
</svg>
