<svg width="343" height="321" viewBox="0 0 343 321" fill="none" xmlns="http://www.w3.org/2000/svg">
<rect x="0.5" y="0.5" width="342" height="320" rx="11.5" stroke="#DFDFDF" stroke-dasharray="4 4"/>
<path d="M128.818 158.272V148.08H129.966V149.256H130.106C130.358 148.864 130.82 147.982 132.262 147.968C134.124 147.982 135.412 149.452 135.426 151.804C135.412 154.17 134.124 155.654 132.262 155.668C130.848 155.654 130.358 154.772 130.106 154.352H130.022V158.272H128.818ZM129.994 151.776C129.994 153.456 130.736 154.604 132.094 154.604C133.508 154.604 134.236 153.358 134.25 151.776C134.236 150.236 133.536 149.032 132.094 149.032C130.722 149.032 129.994 150.138 129.994 151.776ZM138.143 145.588V155.5H136.939V145.588H138.143ZM143.123 155.668C140.981 155.654 139.651 154.128 139.651 151.832C139.651 149.564 140.995 147.982 143.011 147.968C144.579 147.982 146.217 148.934 146.231 151.692V152.196H140.827C140.897 153.75 141.807 154.604 143.123 154.604C144.019 154.604 144.579 154.226 144.831 153.764H146.091C145.755 154.884 144.649 155.654 143.123 155.668ZM140.827 151.188H145.027C145.013 149.942 144.229 149.018 143.011 149.032C141.723 149.018 140.911 150.04 140.827 151.188ZM147.403 153.4C147.403 151.692 148.901 151.3 150.203 151.216C150.679 151.174 151.855 151.104 152.191 151.104V150.488C152.205 149.55 151.645 149.004 150.511 149.004C149.587 149.004 149.013 149.438 148.859 150.012H147.627C147.767 148.808 148.929 147.982 150.567 147.968C151.547 147.982 153.367 148.262 153.367 150.6V155.5H152.191V154.492H152.135C151.897 154.982 151.225 155.668 149.951 155.668C148.523 155.668 147.403 154.842 147.403 153.4ZM148.579 153.456C148.579 154.24 149.237 154.632 150.119 154.632C151.463 154.632 152.205 153.736 152.191 152.812V152.056L150.343 152.196C149.265 152.266 148.579 152.644 148.579 153.456ZM159.389 150.012C159.235 149.396 158.759 148.99 157.877 148.976C156.967 148.99 156.323 149.48 156.309 150.096C156.323 150.586 156.715 150.922 157.597 151.132L158.689 151.412C160.019 151.734 160.677 152.392 160.677 153.428C160.677 154.702 159.627 155.654 157.765 155.668C156.099 155.654 155.105 154.912 154.909 153.568H156.141C156.281 154.282 156.799 154.632 157.737 154.632C158.801 154.632 159.459 154.184 159.473 153.484C159.459 152.966 159.081 152.616 158.241 152.42L157.121 152.168C155.833 151.86 155.147 151.16 155.133 150.152C155.147 148.892 156.253 147.982 157.877 147.968C159.431 147.982 160.397 148.794 160.537 150.012H159.389ZM165.327 155.668C163.185 155.654 161.855 154.128 161.855 151.832C161.855 149.564 163.199 147.982 165.215 147.968C166.783 147.982 168.421 148.934 168.435 151.692V152.196H163.031C163.101 153.75 164.011 154.604 165.327 154.604C166.223 154.604 166.783 154.226 167.035 153.764H168.295C167.959 154.884 166.853 155.654 165.327 155.668ZM163.031 151.188H167.231C167.217 149.942 166.433 149.018 165.215 149.032C163.927 149.018 163.115 150.04 163.031 151.188ZM178.147 152.448V148.08H179.323V155.5H178.147V154.24H178.063C177.727 154.996 176.985 155.598 175.851 155.584C174.465 155.598 173.457 154.674 173.443 152.784V148.08H174.647V152.7C174.633 153.778 175.305 154.464 176.243 154.464C177.097 154.464 178.147 153.834 178.147 152.448ZM181.167 158.272V148.08H182.315V149.256H182.455C182.707 148.864 183.169 147.982 184.611 147.968C186.473 147.982 187.761 149.452 187.775 151.804C187.761 154.17 186.473 155.654 184.611 155.668C183.197 155.654 182.707 154.772 182.455 154.352H182.371V158.272H181.167ZM182.343 151.776C182.343 153.456 183.085 154.604 184.443 154.604C185.857 154.604 186.585 153.358 186.599 151.776C186.585 150.236 185.885 149.032 184.443 149.032C183.071 149.032 182.343 150.138 182.343 151.776ZM190.492 145.588V155.5H189.288V145.588H190.492ZM195.389 155.668C193.373 155.654 192.001 154.128 192.001 151.832C192.001 149.508 193.373 147.982 195.389 147.968C197.405 147.982 198.763 149.508 198.749 151.832C198.763 154.128 197.405 155.654 195.389 155.668ZM193.177 151.832C193.177 153.302 193.877 154.604 195.389 154.604C196.887 154.604 197.587 153.302 197.573 151.832C197.587 150.348 196.887 149.018 195.389 149.032C193.877 149.018 193.177 150.348 193.177 151.832ZM199.931 153.4C199.931 151.692 201.429 151.3 202.731 151.216C203.207 151.174 204.383 151.104 204.719 151.104V150.488C204.733 149.55 204.173 149.004 203.039 149.004C202.115 149.004 201.541 149.438 201.387 150.012H200.155C200.295 148.808 201.457 147.982 203.095 147.968C204.075 147.982 205.895 148.262 205.895 150.6V155.5H204.719V154.492H204.663C204.425 154.982 203.753 155.668 202.479 155.668C201.051 155.668 199.931 154.842 199.931 153.4ZM201.107 153.456C201.107 154.24 201.765 154.632 202.647 154.632C203.991 154.632 204.733 153.736 204.719 152.812V152.056L202.871 152.196C201.793 152.266 201.107 152.644 201.107 153.456ZM210.601 155.668C208.739 155.654 207.437 154.17 207.437 151.804C207.437 149.452 208.739 147.982 210.601 147.968C212.057 147.982 212.505 148.864 212.757 149.256H212.841V145.588H214.017V155.5H212.869V154.352H212.757C212.491 154.772 212.015 155.654 210.601 155.668ZM208.641 151.776C208.627 153.358 209.355 154.604 210.769 154.604C212.113 154.604 212.869 153.456 212.869 151.776C212.869 150.138 212.141 149.032 210.769 149.032C209.327 149.032 208.627 150.236 208.641 151.776ZM144.638 168.08V169.06H143.07V173.372C143.056 174.324 143.532 174.478 144.022 174.464C144.246 174.478 144.553 174.45 144.722 174.436V175.528C144.553 175.57 144.26 175.598 143.91 175.584C142.916 175.598 141.88 174.982 141.866 173.68V169.06H140.746V168.08H141.866V166.288H143.07V168.08H144.638ZM147.474 171.048V175.5H146.27V165.588H147.474V169.256H147.558C147.908 168.472 148.58 167.982 149.742 167.968C151.268 167.982 152.276 168.878 152.29 170.768V175.5H151.086V170.88C151.1 169.704 150.456 169.032 149.406 169.032C148.286 169.032 147.46 169.76 147.474 171.048ZM157.267 175.668C155.125 175.654 153.795 174.128 153.795 171.832C153.795 169.564 155.139 167.982 157.155 167.968C158.723 167.982 160.361 168.934 160.375 171.692V172.196H154.971C155.041 173.75 155.951 174.604 157.267 174.604C158.163 174.604 158.723 174.226 158.975 173.764H160.235C159.899 174.884 158.793 175.654 157.267 175.668ZM154.971 171.188H159.171C159.157 169.942 158.373 169.018 157.155 169.032C155.867 169.018 155.055 170.04 154.971 171.188ZM165.383 175.5V168.08H166.587V175.5H165.383ZM165.159 166.064C165.159 165.63 165.537 165.28 165.999 165.28C166.447 165.28 166.825 165.63 166.811 166.064C166.825 166.498 166.447 166.848 165.999 166.848C165.537 166.848 165.159 166.498 165.159 166.064ZM168.432 175.5V168.08H169.58V169.256H169.692C169.986 168.444 170.714 167.982 171.68 167.968C172.646 167.982 173.304 168.444 173.668 169.256H173.752C174.116 168.472 174.9 167.982 175.964 167.968C177.294 167.982 178.246 168.794 178.232 170.544V175.5H177.056V170.544C177.056 169.452 176.37 169.032 175.572 169.032C174.522 169.032 173.934 169.732 173.948 170.684V175.5H172.744V170.432C172.744 169.592 172.142 169.032 171.288 169.032C170.406 169.032 169.622 169.788 169.636 170.88V175.5H168.432ZM179.772 173.4C179.772 171.692 181.27 171.3 182.572 171.216C183.048 171.174 184.224 171.104 184.56 171.104V170.488C184.574 169.55 184.014 169.004 182.88 169.004C181.956 169.004 181.382 169.438 181.228 170.012H179.996C180.136 168.808 181.298 167.982 182.936 167.968C183.916 167.982 185.736 168.262 185.736 170.6V175.5H184.56V174.492H184.504C184.266 174.982 183.594 175.668 182.32 175.668C180.892 175.668 179.772 174.842 179.772 173.4ZM180.948 173.456C180.948 174.24 181.606 174.632 182.488 174.632C183.832 174.632 184.574 173.736 184.56 172.812V172.056L182.712 172.196C181.634 172.266 180.948 172.644 180.948 173.456ZM190.637 178.44C188.845 178.44 187.627 177.656 187.501 176.284H188.733C188.887 177.04 189.587 177.418 190.637 177.404C191.911 177.418 192.695 176.858 192.681 175.64V174.128H192.597C192.345 174.548 191.869 175.388 190.441 175.388C188.635 175.388 187.277 174.016 187.277 171.692C187.277 169.396 188.579 167.982 190.441 167.968C191.897 167.982 192.359 168.864 192.625 169.256H192.709V168.08H193.857V175.696C193.857 177.614 192.457 178.44 190.637 178.44ZM188.481 171.72C188.467 173.26 189.195 174.338 190.609 174.352C191.953 174.338 192.709 173.358 192.709 171.72C192.709 170.138 191.981 169.032 190.609 169.032C189.167 169.032 188.467 170.236 188.481 171.72ZM198.871 175.668C196.729 175.654 195.399 174.128 195.399 171.832C195.399 169.564 196.743 167.982 198.759 167.968C200.327 167.982 201.965 168.934 201.979 171.692V172.196H196.575C196.645 173.75 197.555 174.604 198.871 174.604C199.767 174.604 200.327 174.226 200.579 173.764H201.839C201.503 174.884 200.397 175.654 198.871 175.668ZM196.575 171.188H200.775C200.761 169.942 199.977 169.018 198.759 169.032C197.471 169.018 196.659 170.04 196.575 171.188Z" fill="#CBCBCB"/>
</svg>
