<svg width="343" height="70" viewBox="0 0 343 70" fill="none" xmlns="http://www.w3.org/2000/svg">
<rect x="0.5" y="0.5" width="342" height="69" rx="11.5" fill="#00A176" stroke="#00A176"/>
<path d="M26.122 30V17.964H28.264V28.198H33.568V30H26.122ZM39.3819 30.17C36.6789 30.187 35.0129 28.368 35.0299 25.546C35.0129 22.758 36.7129 20.871 39.2799 20.854C41.4899 20.871 43.3939 22.248 43.3939 25.41V26.09H37.1039C37.1549 27.637 38.0389 28.538 39.4159 28.538C40.3509 28.538 40.9629 28.13 41.2519 27.586H43.3259C42.9349 29.15 41.4899 30.187 39.3819 30.17ZM37.1039 24.628H41.3539C41.3539 23.421 40.5379 22.52 39.3139 22.52C38.0389 22.52 37.1889 23.472 37.1039 24.628ZM49.724 20.99V22.622H47.956V27.28C47.956 28.164 48.381 28.334 48.908 28.334C49.163 28.351 49.571 28.317 49.86 28.3V30.034C49.588 30.085 49.18 30.119 48.636 30.136C47.055 30.119 45.831 29.337 45.848 27.654V22.622H44.556V20.99H45.848V18.814H47.956V20.99H49.724ZM61.4987 26.192V20.99H63.6067V30H61.5667V28.402H61.4647C61.0567 29.405 60.1217 30.119 58.7447 30.102C56.9767 30.119 55.7527 28.895 55.7527 26.736V20.99H57.8607V26.396C57.8607 27.552 58.5577 28.266 59.5607 28.266C60.5127 28.266 61.4987 27.586 61.4987 26.192ZM70.9173 23.54C70.7813 22.877 70.2203 22.435 69.3193 22.452C68.4183 22.435 67.7553 22.894 67.7553 23.506C67.7553 23.982 68.1293 24.322 69.0473 24.526L70.5773 24.866C72.2773 25.223 73.1103 26.022 73.0933 27.314C73.1103 28.997 71.6143 30.187 69.2853 30.17C66.9733 30.187 65.6133 29.15 65.4093 27.416H67.5513C67.6873 28.198 68.2823 28.572 69.2513 28.572C70.2883 28.572 70.9513 28.164 70.9513 27.484C70.9513 26.974 70.5433 26.634 69.6593 26.43L68.1973 26.124C66.5143 25.784 65.6473 24.917 65.6473 23.642C65.6473 21.959 67.0923 20.871 69.2853 20.854C71.4443 20.871 72.7703 21.925 72.9233 23.54H70.9173ZM79.1231 30V17.964H81.2311V24.628H81.3671L84.6311 20.99H87.1131L83.6111 24.849L87.3171 30H84.8011L82.0301 26.141L81.2311 26.991V30H79.1231ZM90.6482 24.73V30H88.5402V20.99H90.5462V22.52H90.6822C91.0902 21.5 92.0082 20.871 93.3682 20.854C95.2212 20.871 96.4452 22.095 96.4282 24.254V30H94.3202V24.594C94.3372 23.37 93.6742 22.656 92.5522 22.656C91.4472 22.656 90.6482 23.404 90.6482 24.73ZM102.582 30.17C99.9299 30.187 98.2469 28.317 98.2639 25.546C98.2469 22.724 99.9299 20.871 102.582 20.854C105.2 20.871 106.883 22.724 106.9 25.546C106.883 28.317 105.2 30.187 102.582 30.17ZM100.406 25.512C100.389 27.178 101.12 28.487 102.582 28.47C104.027 28.487 104.741 27.178 104.758 25.512C104.741 23.863 104.027 22.537 102.582 22.554C101.12 22.537 100.389 23.863 100.406 25.512ZM110.323 30L107.773 20.99H109.915L111.513 27.348H111.581L113.213 20.99H115.355L116.987 27.314H117.055L118.619 20.99H120.795L118.245 30H116.035L114.335 23.88H114.233L112.533 30H110.323ZM127.798 33.366C127.39 33.383 126.982 33.366 126.71 33.332V31.632C126.965 31.666 127.339 31.666 127.594 31.666C128.121 31.666 128.563 31.632 128.92 30.68L129.09 30.204L125.826 20.99H128.07L130.144 27.79H130.246L132.354 20.99H134.598L130.96 31.088C130.45 32.533 129.498 33.383 127.798 33.366ZM139.736 30.17C137.084 30.187 135.401 28.317 135.418 25.546C135.401 22.724 137.084 20.871 139.736 20.854C142.354 20.871 144.037 22.724 144.054 25.546C144.037 28.317 142.354 30.187 139.736 30.17ZM137.56 25.512C137.543 27.178 138.274 28.487 139.736 28.47C141.181 28.487 141.895 27.178 141.912 25.512C141.895 23.863 141.181 22.537 139.736 22.554C138.274 22.537 137.543 23.863 137.56 25.512ZM151.602 26.192V20.99H153.71V30H151.67V28.402H151.568C151.16 29.405 150.225 30.119 148.848 30.102C147.08 30.119 145.856 28.895 145.856 26.736V20.99H147.964V26.396C147.964 27.552 148.661 28.266 149.664 28.266C150.616 28.266 151.602 27.586 151.602 26.192ZM155.921 30V20.99H157.961V22.486H158.063C158.386 21.449 159.253 20.854 160.273 20.854C160.528 20.854 160.868 20.871 161.055 20.922V22.86C160.868 22.792 160.426 22.741 160.069 22.724C158.896 22.741 158.029 23.54 158.029 24.696V30H155.921ZM171.191 20.99V22.622H169.423V27.28C169.423 28.164 169.848 28.334 170.375 28.334C170.63 28.351 171.038 28.317 171.327 28.3V30.034C171.055 30.085 170.647 30.119 170.103 30.136C168.522 30.119 167.298 29.337 167.315 27.654V22.622H166.023V20.99H167.315V18.814H169.423V20.99H171.191ZM175.29 24.73V30H173.182V17.964H175.256V22.52H175.358C175.783 21.5 176.65 20.871 178.044 20.854C179.914 20.871 181.138 22.078 181.138 24.254V30H179.03V24.594C179.03 23.37 178.367 22.656 177.262 22.656C176.106 22.656 175.29 23.404 175.29 24.73ZM187.29 30.17C184.638 30.187 182.955 28.317 182.972 25.546C182.955 22.724 184.638 20.871 187.29 20.854C189.908 20.871 191.591 22.724 191.608 25.546C191.591 28.317 189.908 30.187 187.29 30.17ZM185.114 25.512C185.097 27.178 185.828 28.487 187.29 28.47C188.735 28.487 189.449 27.178 189.466 25.512C189.449 23.863 188.735 22.537 187.29 22.554C185.828 22.537 185.097 23.863 185.114 25.512ZM199.156 26.192V20.99H201.264V30H199.224V28.402H199.122C198.714 29.405 197.779 30.119 196.402 30.102C194.634 30.119 193.41 28.895 193.41 26.736V20.99H195.518V26.396C195.518 27.552 196.215 28.266 197.218 28.266C198.17 28.266 199.156 27.586 199.156 26.192ZM207.385 33.57C205.005 33.57 203.492 32.499 203.339 30.816H205.447C205.617 31.598 206.348 31.972 207.419 31.972C208.711 31.972 209.527 31.428 209.527 30.102V28.368H209.425C209.102 29.031 208.371 29.864 206.841 29.864C204.733 29.864 203.101 28.351 203.101 25.41C203.101 22.452 204.75 20.871 206.841 20.854C208.422 20.871 209.102 21.823 209.425 22.452H209.527V20.99H211.635V30.136C211.618 32.448 209.833 33.57 207.385 33.57ZM205.277 25.444C205.26 27.11 206.008 28.215 207.419 28.198C208.762 28.215 209.544 27.178 209.527 25.444C209.544 23.744 208.779 22.605 207.419 22.588C205.991 22.605 205.26 23.812 205.277 25.444ZM215.913 24.73V30H213.805V17.964H215.879V22.52H215.981C216.406 21.5 217.273 20.871 218.667 20.854C220.537 20.871 221.761 22.078 221.761 24.254V30H219.653V24.594C219.653 23.37 218.99 22.656 217.885 22.656C216.729 22.656 215.913 23.404 215.913 24.73ZM228.457 20.99V22.622H226.689V27.28C226.689 28.164 227.114 28.334 227.641 28.334C227.896 28.351 228.304 28.317 228.593 28.3V30.034C228.321 30.085 227.913 30.119 227.369 30.136C225.788 30.119 224.564 29.337 224.581 27.654V22.622H223.289V20.99H224.581V18.814H226.689V20.99H228.457ZM232.849 17.964L232.645 26.464H230.775L230.571 17.964H232.849ZM230.401 28.844C230.401 28.147 230.996 27.569 231.693 27.552C232.39 27.569 232.985 28.147 232.985 28.844C232.985 29.558 232.39 30.136 231.693 30.136C230.996 30.136 230.401 29.558 230.401 28.844Z" fill="white"/>
<path d="M29.32 45.44C29.224 44.972 28.828 44.66 28.192 44.672C27.556 44.66 27.088 44.984 27.088 45.416C27.088 45.752 27.352 45.992 28 46.136L29.08 46.376C30.28 46.628 30.868 47.192 30.856 48.104C30.868 49.292 29.812 50.132 28.168 50.12C26.536 50.132 25.576 49.4 25.432 48.176H26.944C27.04 48.728 27.46 48.992 28.144 48.992C28.876 48.992 29.344 48.704 29.344 48.224C29.344 47.864 29.056 47.624 28.432 47.48L27.4 47.264C26.212 47.024 25.6 46.412 25.6 45.512C25.6 44.324 26.62 43.556 28.168 43.544C29.692 43.556 30.628 44.3 30.736 45.44H29.32ZM34.941 50.12C33.033 50.132 31.857 48.848 31.869 46.856C31.857 44.888 33.057 43.556 34.869 43.544C36.429 43.556 37.773 44.528 37.773 46.76V47.24H33.333C33.369 48.332 33.993 48.968 34.965 48.968C35.625 48.968 36.057 48.68 36.261 48.296H37.725C37.449 49.4 36.429 50.132 34.941 50.12ZM33.333 46.208H36.333C36.333 45.356 35.757 44.72 34.893 44.72C33.993 44.72 33.393 45.392 33.333 46.208ZM40.5613 46.28V50H39.0733V43.64H40.4893V44.72H40.5853C40.8733 44 41.5213 43.556 42.4813 43.544C43.7893 43.556 44.6533 44.42 44.6413 45.944V50H43.1533V46.184C43.1653 45.32 42.6973 44.816 41.9053 44.816C41.1253 44.816 40.5613 45.344 40.5613 46.28ZM48.5771 50.12C47.0651 50.108 45.9371 48.92 45.9371 46.832C45.9371 44.708 47.1011 43.556 48.5771 43.544C49.6931 43.556 50.1611 44.228 50.4011 44.672H50.4491V41.504H51.9371V50H50.4731V48.992H50.4011C50.1491 49.46 49.6571 50.108 48.5771 50.12ZM47.4731 46.808C47.4611 48.02 47.9891 48.884 48.9851 48.896C49.9331 48.884 50.4851 48.056 50.4731 46.808C50.4851 45.584 49.9451 44.78 48.9851 44.768C47.9771 44.78 47.4611 45.632 47.4731 46.808ZM59.7107 43.64V44.792H58.4627V48.08C58.4627 48.704 58.7627 48.824 59.1347 48.824C59.3147 48.836 59.6027 48.812 59.8067 48.8V50.024C59.6147 50.06 59.3267 50.084 58.9427 50.096C57.8267 50.084 56.9627 49.532 56.9747 48.344V44.792H56.0627V43.64H56.9747V42.104H58.4627V43.64H59.7107ZM62.6038 46.28V50H61.1158V41.504H62.5798V44.72H62.6518C62.9518 44 63.5638 43.556 64.5478 43.544C65.8678 43.556 66.7318 44.408 66.7318 45.944V50H65.2438V46.184C65.2438 45.32 64.7758 44.816 63.9958 44.816C63.1798 44.816 62.6038 45.344 62.6038 46.28ZM71.0985 50.12C69.1905 50.132 68.0145 48.848 68.0265 46.856C68.0145 44.888 69.2145 43.556 71.0265 43.544C72.5865 43.556 73.9305 44.528 73.9305 46.76V47.24H69.4905C69.5265 48.332 70.1505 48.968 71.1225 48.968C71.7825 48.968 72.2145 48.68 72.4185 48.296H73.8825C73.6065 49.4 72.5865 50.132 71.0985 50.12ZM69.4905 46.208H72.4905C72.4905 45.356 71.9145 44.72 71.0505 44.72C70.1505 44.72 69.5505 45.392 69.4905 46.208ZM75.2308 50V43.64H76.6468V44.72H76.7428C76.9948 43.988 77.6428 43.556 78.4948 43.544C79.3468 43.556 79.9588 44 80.1988 44.72H80.2708C80.5588 44.012 81.2548 43.556 82.1908 43.544C83.3548 43.556 84.1708 44.312 84.1828 45.728V50H82.6708V45.968C82.6828 45.164 82.2028 44.804 81.5908 44.816C80.8588 44.804 80.4268 45.308 80.4388 46.016V50H78.9748V45.896C78.9748 45.236 78.5308 44.804 77.8948 44.816C77.2468 44.804 76.7188 45.344 76.7188 46.136V50H75.2308ZM91.0773 50.12C89.5653 50.108 88.4373 48.92 88.4373 46.832C88.4373 44.708 89.6013 43.556 91.0773 43.544C92.1933 43.556 92.6613 44.228 92.9013 44.672H92.9493V41.504H94.4373V50H92.9733V48.992H92.9013C92.6493 49.46 92.1573 50.108 91.0773 50.12ZM89.9733 46.808C89.9613 48.02 90.4893 48.884 91.4853 48.896C92.4333 48.884 92.9853 48.056 92.9733 46.808C92.9853 45.584 92.4453 44.78 91.4853 44.768C90.4773 44.78 89.9613 45.632 89.9733 46.808ZM96.0634 50V43.64H97.5514V50H96.0634ZM95.9434 41.912C95.9434 41.468 96.3394 41.108 96.8074 41.096C97.2874 41.108 97.6714 41.468 97.6714 41.912C97.6714 42.368 97.2874 42.728 96.8074 42.728C96.3394 42.728 95.9434 42.368 95.9434 41.912ZM99.1131 50V43.64H100.553V44.696H100.625C100.853 43.964 101.465 43.544 102.185 43.544C102.365 43.544 102.605 43.556 102.737 43.592V44.96C102.605 44.912 102.293 44.876 102.041 44.864C101.213 44.876 100.601 45.44 100.601 46.256V50H99.1131ZM106.354 50.12C104.446 50.132 103.27 48.848 103.282 46.856C103.27 44.888 104.47 43.556 106.282 43.544C107.842 43.556 109.186 44.528 109.186 46.76V47.24H104.746C104.782 48.332 105.406 48.968 106.378 48.968C107.038 48.968 107.47 48.68 107.674 48.296H109.138C108.862 49.4 107.842 50.132 106.354 50.12ZM104.746 46.208H107.746C107.746 45.356 107.17 44.72 106.306 44.72C105.406 44.72 104.806 45.392 104.746 46.208ZM113.27 50.12C111.362 50.132 110.21 48.764 110.222 46.856C110.21 44.9 111.398 43.556 113.246 43.544C114.806 43.556 115.886 44.456 115.982 45.824H114.566C114.446 45.224 114.002 44.756 113.27 44.744C112.346 44.756 111.722 45.536 111.734 46.808C111.722 48.128 112.334 48.908 113.27 48.896C113.93 48.908 114.422 48.524 114.566 47.84H115.982C115.874 49.172 114.854 50.132 113.27 50.12ZM120.395 43.64V44.792H119.147V48.08C119.147 48.704 119.447 48.824 119.819 48.824C119.999 48.836 120.287 48.812 120.491 48.8V50.024C120.299 50.06 120.011 50.084 119.627 50.096C118.511 50.084 117.647 49.532 117.659 48.344V44.792H116.747V43.64H117.659V42.104H119.147V43.64H120.395ZM123.288 41.504V50H121.8V41.504H123.288ZM125.738 52.376C125.45 52.388 125.162 52.376 124.97 52.352V51.152C125.15 51.176 125.414 51.176 125.594 51.176C125.966 51.176 126.278 51.152 126.53 50.48L126.65 50.144L124.346 43.64H125.93L127.394 48.44H127.466L128.954 43.64H130.538L127.97 50.768C127.61 51.788 126.938 52.388 125.738 52.376ZM137.738 43.64V44.792H136.49V48.08C136.49 48.704 136.79 48.824 137.162 48.824C137.342 48.836 137.63 48.812 137.834 48.8V50.024C137.642 50.06 137.354 50.084 136.97 50.096C135.854 50.084 134.99 49.532 135.002 48.344V44.792H134.09V43.64H135.002V42.104H136.49V43.64H137.738ZM141.728 50.12C139.856 50.132 138.668 48.812 138.68 46.856C138.668 44.864 139.856 43.556 141.728 43.544C143.576 43.556 144.764 44.864 144.776 46.856C144.764 48.812 143.576 50.132 141.728 50.12ZM140.192 46.832C140.18 48.008 140.696 48.932 141.728 48.92C142.748 48.932 143.252 48.008 143.264 46.832C143.252 45.668 142.748 44.732 141.728 44.744C140.696 44.732 140.18 45.668 140.192 46.832ZM152.196 43.64V44.792H150.948V48.08C150.948 48.704 151.248 48.824 151.62 48.824C151.8 48.836 152.088 48.812 152.292 48.8V50.024C152.1 50.06 151.812 50.084 151.428 50.096C150.312 50.084 149.448 49.532 149.46 48.344V44.792H148.548V43.64H149.46V42.104H150.948V43.64H152.196ZM155.089 46.28V50H153.601V41.504H155.065V44.72H155.137C155.437 44 156.049 43.556 157.033 43.544C158.353 43.556 159.217 44.408 159.217 45.944V50H157.729V46.184C157.729 45.32 157.261 44.816 156.481 44.816C155.665 44.816 155.089 45.344 155.089 46.28ZM163.584 50.12C161.676 50.132 160.5 48.848 160.512 46.856C160.5 44.888 161.7 43.556 163.512 43.544C165.072 43.556 166.416 44.528 166.416 46.76V47.24H161.976C162.012 48.332 162.636 48.968 163.608 48.968C164.268 48.968 164.7 48.68 164.904 48.296H166.368C166.092 49.4 165.072 50.132 163.584 50.12ZM161.976 46.208H164.976C164.976 45.356 164.4 44.72 163.536 44.72C162.636 44.72 162.036 45.392 161.976 46.208ZM170.407 48.224C170.395 46.772 171.583 46.364 172.759 46.28C173.215 46.244 174.127 46.208 174.391 46.196V45.68C174.391 45.056 173.983 44.696 173.239 44.696C172.579 44.696 172.171 44.996 172.063 45.44H170.599C170.719 44.372 171.691 43.556 173.287 43.544C174.487 43.556 175.879 44.048 175.879 45.752V50H174.439V49.136H174.391C174.127 49.652 173.527 50.132 172.519 50.12C171.319 50.132 170.395 49.46 170.407 48.224ZM171.847 48.2C171.835 48.74 172.291 49.028 172.903 49.04C173.827 49.028 174.403 48.428 174.391 47.72V47.192C174.103 47.204 173.299 47.252 172.999 47.288C172.291 47.336 171.835 47.636 171.847 48.2ZM179.789 50.12C178.277 50.108 177.149 48.92 177.149 46.832C177.149 44.708 178.313 43.556 179.789 43.544C180.905 43.556 181.373 44.228 181.613 44.672H181.661V41.504H183.149V50H181.685V48.992H181.613C181.361 49.46 180.869 50.108 179.789 50.12ZM178.685 46.808C178.673 48.02 179.201 48.884 180.197 48.896C181.145 48.884 181.697 48.056 181.685 46.808C181.697 45.584 181.157 44.78 180.197 44.768C179.189 44.78 178.673 45.632 178.685 46.808ZM184.775 50V43.64H186.191V44.72H186.287C186.539 43.988 187.187 43.556 188.039 43.544C188.891 43.556 189.503 44 189.743 44.72H189.815C190.103 44.012 190.799 43.556 191.735 43.544C192.899 43.556 193.715 44.312 193.727 45.728V50H192.215V45.968C192.227 45.164 191.747 44.804 191.135 44.816C190.403 44.804 189.971 45.308 189.983 46.016V50H188.519V45.896C188.519 45.236 188.075 44.804 187.439 44.816C186.791 44.804 186.263 45.344 186.263 46.136V50H184.775ZM195.266 50V43.64H196.754V50H195.266ZM195.146 41.912C195.146 41.468 195.542 41.108 196.01 41.096C196.49 41.108 196.874 41.468 196.874 41.912C196.874 42.368 196.49 42.728 196.01 42.728C195.542 42.728 195.146 42.368 195.146 41.912ZM199.804 46.28V50H198.316V43.64H199.732V44.72H199.828C200.116 44 200.764 43.556 201.724 43.544C203.032 43.556 203.896 44.42 203.884 45.944V50H202.396V46.184C202.408 45.32 201.94 44.816 201.148 44.816C200.368 44.816 199.804 45.344 199.804 46.28ZM209.044 45.44C208.948 44.972 208.552 44.66 207.916 44.672C207.28 44.66 206.812 44.984 206.812 45.416C206.812 45.752 207.076 45.992 207.724 46.136L208.804 46.376C210.004 46.628 210.592 47.192 210.58 48.104C210.592 49.292 209.536 50.132 207.892 50.12C206.26 50.132 205.3 49.4 205.156 48.176H206.668C206.764 48.728 207.184 48.992 207.868 48.992C208.6 48.992 209.068 48.704 209.068 48.224C209.068 47.864 208.78 47.624 208.156 47.48L207.124 47.264C205.936 47.024 205.324 46.412 205.324 45.512C205.324 44.324 206.344 43.556 207.892 43.544C209.416 43.556 210.352 44.3 210.46 45.44H209.044ZM220.812 47.216L215.148 49.856V48.392L219.132 46.664V46.592L215.148 44.888V43.424L220.812 46.04V47.216Z" fill="#E3FFF8"/>
<path d="M300.802 35.0322C295.722 35.0323 291.604 38.1217 291.604 41.9316C291.604 45.7415 295.722 48.83 300.802 48.8301C302.176 48.8301 303.479 48.6023 304.649 48.1973C306.307 49.079 307.607 49.4554 309.713 49.6699C308.603 48.4904 308.013 47.6545 307.599 46.5781C309.09 45.352 310 43.7219 310 41.9316C310 38.1216 305.882 35.0322 300.802 35.0322Z" fill="#E8F8F4"/>
<path d="M300.802 35.0322L300.802 34.5322H300.802V35.0322ZM291.604 41.9316L291.104 41.9317V41.9316H291.604ZM300.802 48.8301V49.3301H300.802L300.802 48.8301ZM304.649 48.1973L304.486 47.7247L304.692 47.6535L304.884 47.7558L304.649 48.1973ZM309.713 49.6699L310.077 49.3272L310.996 50.3031L309.662 50.1673L309.713 49.6699ZM307.599 46.5781L307.132 46.7577L307.002 46.421L307.281 46.1919L307.599 46.5781ZM310 41.9316H310.5V41.9317L310 41.9316ZM300.802 35.0322L300.802 35.5322C298.36 35.5322 296.168 36.2755 294.598 37.4532C293.028 38.6308 292.104 40.2193 292.104 41.9316H291.604H291.104C291.104 39.834 292.238 37.9729 293.998 36.6532C295.757 35.3337 298.164 34.5322 300.802 34.5322L300.802 35.0322ZM291.604 41.9316L292.104 41.9316C292.104 43.6439 293.028 45.2322 294.598 46.4095C296.168 47.587 298.36 48.3301 300.802 48.3301L300.802 48.8301L300.802 49.3301C298.164 49.3301 295.757 48.5288 293.998 47.2095C292.239 45.8901 291.104 44.0292 291.104 41.9317L291.604 41.9316ZM300.802 48.8301V48.3301C302.121 48.3301 303.368 48.1113 304.486 47.7247L304.649 48.1973L304.813 48.6698C303.589 49.0932 302.231 49.3301 300.802 49.3301V48.8301ZM304.649 48.1973L304.884 47.7558C306.478 48.6034 307.713 48.9637 309.764 49.1725L309.713 49.6699L309.662 50.1673C307.5 49.9472 306.137 49.5547 304.415 48.6387L304.649 48.1973ZM309.713 49.6699L309.349 50.0126C308.216 48.8088 307.578 47.9182 307.132 46.7577L307.599 46.5781L308.065 46.3986C308.447 47.3908 308.99 48.1721 310.077 49.3272L309.713 49.6699ZM307.599 46.5781L307.281 46.1919C308.683 45.0392 309.5 43.5414 309.5 41.9316L310 41.9316L310.5 41.9317C310.5 43.9025 309.497 45.6649 307.916 46.9643L307.599 46.5781ZM310 41.9316H309.5C309.5 40.2193 308.576 38.6307 307.006 37.4532C305.436 36.2755 303.244 35.5322 300.802 35.5322V35.0322V34.5322C303.44 34.5322 305.847 35.3337 307.606 36.6532C309.365 37.9728 310.5 39.834 310.5 41.9316H310Z" fill="#474747"/>
<path d="M287.557 18.8447C296.701 18.8447 304.113 24.4047 304.113 31.2627C304.113 38.1206 296.701 43.6797 287.557 43.6797C285.083 43.6797 282.737 43.2721 280.63 42.543C277.646 44.1296 275.308 44.8073 271.518 45.1934C273.516 43.0705 274.576 41.5651 275.321 39.6279C272.637 37.4209 271 34.4853 271 31.2627C271 24.4047 278.413 18.8447 287.557 18.8447Z" fill="#F4F4F4"/>
<path d="M287.557 18.8447V18.3447V18.8447ZM304.113 31.2627L304.613 31.2627V31.2627H304.113ZM287.557 43.6797V44.1797V43.6797ZM280.63 42.543L280.793 42.0704L280.587 41.9992L280.395 42.1015L280.63 42.543ZM271.518 45.1934L271.153 44.8507L270.235 45.8266L271.568 45.6908L271.518 45.1934ZM275.321 39.6279L275.788 39.8075L275.917 39.4708L275.639 39.2417L275.321 39.6279ZM271 31.2627H270.5V31.2627L271 31.2627ZM287.557 18.8447V19.3447C292.031 19.3447 296.062 20.7056 298.964 22.882C301.865 25.0582 303.613 28.0264 303.613 31.2627H304.113H304.613C304.613 27.641 302.655 24.4002 299.564 22.082C296.473 19.7638 292.226 18.3447 287.557 18.3447V18.8447ZM304.113 31.2627L303.613 31.2627C303.613 34.499 301.865 37.4669 298.964 39.6429C296.062 41.819 292.031 43.1797 287.557 43.1797V43.6797V44.1797C292.226 44.1797 296.473 42.7608 299.564 40.4429C302.655 38.1249 304.613 34.8843 304.613 31.2627L304.113 31.2627ZM287.557 43.6797V43.1797C285.138 43.1797 282.847 42.781 280.793 42.0704L280.63 42.543L280.466 43.0155C282.627 43.7631 285.029 44.1797 287.557 44.1797V43.6797ZM280.63 42.543L280.395 42.1015C277.476 43.6539 275.202 44.3156 271.467 44.6959L271.518 45.1934L271.568 45.6908C275.415 45.2991 277.817 44.6052 280.865 42.9844L280.63 42.543ZM271.518 45.1934L271.882 45.5361C273.903 43.3886 275.01 41.8286 275.788 39.8075L275.321 39.6279L274.855 39.4484C274.142 41.3016 273.128 42.7524 271.153 44.8507L271.518 45.1934ZM275.321 39.6279L275.639 39.2417C273.044 37.1082 271.5 34.3049 271.5 31.2627L271 31.2627L270.5 31.2627C270.5 34.6657 272.23 37.7336 275.004 40.0141L275.321 39.6279ZM271 31.2627H271.5C271.5 28.0264 273.248 25.0582 276.149 22.882C279.051 20.7056 283.082 19.3447 287.557 19.3447V18.8447V18.3447C282.887 18.3447 278.64 19.7638 275.549 22.082C272.458 24.4003 270.5 27.641 270.5 31.2627H271Z" fill="#474747"/>
<path fill-rule="evenodd" clip-rule="evenodd" d="M276.887 26.159C276.887 25.143 277.568 24.3193 278.409 24.3193H297.44C298.281 24.3193 298.962 25.143 298.962 26.159C298.962 27.175 298.281 27.9986 297.44 27.9986H278.409C277.568 27.9986 276.887 27.175 276.887 26.159Z" fill="#FFE853" stroke="#474747" stroke-linecap="round"/>
<path fill-rule="evenodd" clip-rule="evenodd" d="M276.887 31.6787C276.887 30.8659 277.568 30.207 278.409 30.207H297.44C298.281 30.207 298.962 30.8659 298.962 31.6787C298.962 32.4915 298.281 33.1504 297.44 33.1504H278.409C277.568 33.1504 276.887 32.4915 276.887 31.6787Z" fill="#FFE853" stroke="#474747" stroke-linecap="round"/>
<path fill-rule="evenodd" clip-rule="evenodd" d="M276.887 36.8301C276.887 36.0173 277.588 35.3584 278.453 35.3584H291.509C292.374 35.3584 293.075 36.0173 293.075 36.8301C293.075 37.6429 292.374 38.3018 291.509 38.3018H278.453C277.588 38.3018 276.887 37.6429 276.887 36.8301Z" fill="#FFE853" stroke="#474747" stroke-linecap="round"/>
</svg>
