<svg width="343" height="77" viewBox="0 0 343 77" fill="none" xmlns="http://www.w3.org/2000/svg">
<rect x="0.5" y="0.5" width="342" height="76" rx="11.5" fill="#00A176" stroke="#00A176"/>
<path d="M38.09 21.468V36.496H36.254V28.37H33.194V32.858H26.054V22.624H27.924V26.364H31.392V22.624H33.194V26.84H36.254V21.468H38.09ZM27.924 31.362H31.392V27.826H27.924V31.362ZM52.8504 21.468V36.496H50.9804V21.468H52.8504ZM41.2904 32.892V22.828H48.5324V24.358H43.1604V31.294C45.9314 31.294 47.6484 31.209 49.6544 30.852L49.8244 32.382C47.6824 32.79 45.7444 32.875 42.5484 32.892H41.2904ZM68.9028 27.486V28.948H55.2348V27.486H68.9028ZM56.8328 36.326V32.416H65.3668V31.362H56.8328V29.968H67.2028V33.742H58.6688V34.864H67.6108V36.326H56.8328ZM56.9688 26.5V21.842H67.1688V23.338H58.8048V25.038H67.2708V26.5H56.9688ZM74.9591 22.522C77.3391 22.505 79.0731 24.001 79.0731 26.126C79.0731 28.268 77.3391 29.764 74.9591 29.764C72.5961 29.764 70.8281 28.268 70.8451 26.126C70.8281 24.001 72.5961 22.505 74.9591 22.522ZM70.1651 31.838C72.8681 31.838 76.6081 31.804 79.8551 31.362L79.9911 32.688C76.6251 33.334 73.0381 33.351 70.3691 33.368L70.1651 31.838ZM72.6471 26.126C72.6471 27.384 73.6331 28.166 74.9591 28.166C76.2851 28.166 77.2711 27.384 77.2711 26.126C77.2711 24.885 76.2851 24.103 74.9591 24.12C73.6331 24.103 72.6471 24.885 72.6471 26.126ZM80.7391 36.496V21.468H82.5751V36.496H80.7391ZM93.8723 24.256C93.8553 25.888 94.8073 27.503 96.7623 28.268L95.7763 29.662C94.4503 29.152 93.5323 28.217 92.9883 27.044C92.4273 28.387 91.4583 29.526 90.0303 30.138L89.0443 28.71C91.1013 27.792 92.0703 25.922 92.0703 24.256V22.386H93.8723V24.256ZM91.7983 33.708C91.7813 31.957 93.7703 30.937 96.9323 30.92C100.077 30.937 102.066 31.957 102.066 33.708C102.066 35.425 100.077 36.462 96.9323 36.462C93.7703 36.462 91.7813 35.425 91.7983 33.708ZM93.6343 33.708C93.6343 34.575 94.8583 35.051 96.9323 35.034C98.9893 35.051 100.213 34.575 100.23 33.708C100.213 32.807 98.9893 32.331 96.9323 32.314C94.8583 32.331 93.6343 32.807 93.6343 33.708ZM97.0343 30.206V21.774H98.7343V25.276H100.264V21.502H101.998V30.682H100.264V26.772H98.7343V30.206H97.0343ZM115.875 21.468V25.072H117.983V26.636H115.875V30.206H114.005V21.468H115.875ZM103.873 28.71C107.392 27.826 109.381 26.024 109.687 23.848H104.621V22.352H111.693C111.676 26.279 109.126 28.999 104.655 30.138L103.873 28.71ZM105.879 32.314V30.852H115.875V36.462H114.005V32.314H105.879ZM125.739 21.706C129.139 21.706 131.111 22.607 131.111 24.256C131.111 25.956 129.139 26.857 125.739 26.874C122.305 26.857 120.316 25.956 120.299 24.256C120.316 22.607 122.305 21.706 125.739 21.706ZM118.905 29.152V27.656H132.573V29.152H118.905ZM120.503 36.36V32.518H129.037V31.532H120.503V30.138H130.873V33.81H122.339V34.932H131.281V36.36H120.503ZM122.237 24.256C122.237 25.106 123.427 25.48 125.739 25.48C128.034 25.48 129.224 25.106 129.207 24.256C129.224 23.508 128.034 23.066 125.739 23.066C123.427 23.066 122.237 23.508 122.237 24.256ZM149.82 21.468V24.494H151.928V26.024H149.82V29.016H147.95V21.468H149.82ZM138.158 25.344C138.124 23.338 139.841 21.961 142.136 21.944C144.414 21.961 146.097 23.338 146.114 25.344C146.097 27.299 144.414 28.693 142.136 28.71C139.841 28.693 138.124 27.299 138.158 25.344ZM139.96 25.344C139.926 26.466 140.861 27.231 142.136 27.214C143.394 27.231 144.312 26.466 144.312 25.344C144.312 24.205 143.394 23.457 142.136 23.474C140.861 23.457 139.926 24.205 139.96 25.344ZM139.994 31.09V29.662H149.82V33.606H141.83V34.83H150.296V36.292H140.028V32.246H147.984V31.09H139.994ZM165.397 21.468V36.496H163.561V30.342H160.807V28.812H163.561V26.262H160.875V24.732H163.561V21.468H165.397ZM153.327 24.256V22.76H160.025V28.37H155.231V31.566C157.203 31.549 158.92 31.464 160.943 31.158L161.079 32.688C158.784 33.045 156.88 33.096 154.551 33.096H153.395V26.942H158.223V24.256H153.327ZM173.493 24.018C173.493 25.208 174.751 26.347 177.029 26.704L176.281 28.132C174.53 27.809 173.255 27.027 172.575 25.99C171.895 27.112 170.586 27.962 168.733 28.302L167.985 26.908C170.348 26.5 171.606 25.31 171.623 24.018V23.95H168.563V22.488H176.553V23.95H173.493V24.018ZM167.645 29.288C170.399 29.305 174.173 29.271 177.437 28.812L177.539 30.172C176.179 30.427 174.768 30.58 173.391 30.665V36.02H171.521V30.767C170.212 30.818 168.971 30.818 167.883 30.818L167.645 29.288ZM175.295 33.096V31.702H178.491V21.502H180.361V36.462H178.491V33.096H175.295ZM185.669 22.964L185.465 31.464H183.595L183.391 22.964H185.669ZM183.221 33.844C183.221 33.147 183.816 32.569 184.513 32.552C185.21 32.569 185.805 33.147 185.805 33.844C185.805 34.558 185.21 35.136 184.513 35.136C183.816 35.136 183.221 34.558 183.221 33.844Z" fill="white"/>
<path d="M34.144 48.496V59.008H33.04V53.248H30.712V56.416H25.792V49.312H26.92V51.976H29.632V49.312H30.712V52.336H33.04V48.496H34.144ZM26.92 55.504H29.632V52.864H26.92V55.504ZM44.5871 48.496V59.008H43.4591V48.496H44.5871ZM36.5471 56.44V49.48H41.5871V50.392H37.6751V55.48C39.6551 55.492 40.9271 55.432 42.4271 55.168L42.5231 56.08C40.9631 56.38 39.5951 56.44 37.4111 56.44H36.5471ZM49.1742 49.288C50.7582 49.288 51.8742 50.716 51.8862 52.96C51.8742 55.228 50.7582 56.656 49.1742 56.656C47.6142 56.656 46.4862 55.228 46.5102 52.96C46.4862 50.716 47.6142 49.288 49.1742 49.288ZM47.5662 52.96C47.5542 54.628 48.2262 55.66 49.1742 55.648C50.1582 55.66 50.8062 54.628 50.8062 52.96C50.8062 51.316 50.1582 50.284 49.1742 50.272C48.2262 50.284 47.5542 51.316 47.5662 52.96ZM53.4462 58.984V48.496H54.5502V51.064H56.1822V52H54.5502V54.184H56.1822V55.096H54.5502V58.984H53.4462ZM69.507 53.752V54.664H65.355V56.704H64.227V54.664H59.907V53.752H69.507ZM60.963 50.872C60.951 49.564 62.439 48.748 64.683 48.736C66.951 48.748 68.427 49.564 68.427 50.872C68.427 52.18 66.951 52.996 64.683 52.984C62.439 52.996 60.951 52.18 60.963 50.872ZM61.107 58.768V55.696H62.211V57.856H68.451V58.768H61.107ZM62.139 50.872C62.139 51.628 63.159 52.096 64.683 52.096C66.231 52.096 67.239 51.628 67.251 50.872C67.239 50.092 66.231 49.636 64.683 49.648C63.159 49.636 62.139 50.092 62.139 50.872ZM73.3021 49.096C74.1661 49.096 74.9101 49.42 75.4021 49.96H78.0541V48.496H79.1581V54.688H78.0541V53.272H75.4021C74.9101 53.812 74.1661 54.136 73.3021 54.136C71.7301 54.136 70.5541 53.092 70.5661 51.616C70.5541 50.14 71.7301 49.096 73.3021 49.096ZM71.6221 51.616C71.6101 52.54 72.3181 53.188 73.3021 53.176C74.2621 53.188 74.9701 52.54 74.9821 51.616C74.9701 50.68 74.2621 50.056 73.3021 50.056C72.3181 50.056 71.6101 50.68 71.6221 51.616ZM72.0781 56.944C72.0781 55.672 73.4461 54.928 75.6301 54.928C77.8261 54.928 79.1821 55.672 79.1821 56.944C79.1821 58.228 77.8261 58.984 75.6301 58.984C73.4461 58.984 72.0781 58.228 72.0781 56.944ZM73.1821 56.944C73.1701 57.676 74.0941 58.096 75.6301 58.096C77.1781 58.096 78.1021 57.676 78.1021 56.944C78.1021 56.212 77.1781 55.792 75.6301 55.792C74.0941 55.792 73.1701 56.212 73.1821 56.944ZM75.9301 52.36H78.0541V50.872H75.9301C76.0021 51.1 76.0381 51.352 76.0381 51.616C76.0381 51.88 76.0021 52.132 75.9301 52.36ZM84.7772 50.68C84.7772 52.048 85.7852 53.332 87.4172 53.824L86.8412 54.712C85.6292 54.316 84.7172 53.488 84.2372 52.432C83.7692 53.572 82.8332 54.484 81.5852 54.928L81.0092 54.04C82.6412 53.488 83.6492 52.12 83.6492 50.68V50.224H81.2972V49.336H87.0812V50.224H84.7772V50.68ZM82.7372 58.768V55.456H83.8412V57.88H89.9132V58.768H82.7372ZM88.4972 56.176V48.496H89.6012V56.176H88.4972ZM100.404 48.496V58.984H99.3482V48.496H100.404ZM91.5002 53.032C91.5002 50.752 92.3882 49.336 93.7562 49.336C95.0282 49.336 95.9042 50.548 96.0362 52.528H97.2122V48.688H98.2922V58.48H97.2122V53.416H96.0482C95.9402 55.468 95.0522 56.74 93.7562 56.728C92.3882 56.74 91.5002 55.312 91.5002 53.032ZM92.5322 53.032C92.5322 54.7 93.0002 55.684 93.7562 55.672C94.5362 55.684 95.0162 54.7 95.0282 53.032C95.0162 51.352 94.5362 50.38 93.7562 50.368C93.0002 50.38 92.5322 51.352 92.5322 53.032ZM110.895 48.496V58.984H109.839V48.496H110.895ZM101.847 55.96C104.067 54.64 105.135 52.864 105.327 50.704H102.327V49.792H106.431C106.431 50.824 106.287 51.808 105.963 52.72H107.631V48.76H108.687V58.48H107.631V53.608H105.579C104.943 54.82 103.947 55.888 102.471 56.752L101.847 55.96ZM123.596 48.496V52.552H125.276V53.512H123.596V58.984H122.492V48.496H123.596ZM115.82 56.512V49.36H116.924V52.072H119.684V49.36H120.788V56.512H115.82ZM116.924 55.576H119.684V52.936H116.924V55.576ZM135.527 56.8V57.736H125.903V56.8H130.127V54.952H127.079V51.616H133.247V50.152H127.055V49.24H134.351V52.528H128.183V54.04H134.591V54.952H131.231V56.8H135.527ZM148.204 48.496V56.2H147.1V52.24H145.084V51.352H147.1V48.496H148.204ZM139.444 53.992C141.076 53.452 142.072 52.072 142.084 50.632V50.224H139.804V49.312H145.468V50.224H143.212V50.632C143.2 51.94 144.148 53.248 145.732 53.776L145.156 54.664C143.98 54.256 143.116 53.416 142.66 52.372C142.204 53.536 141.28 54.46 140.02 54.904L139.444 53.992ZM141.388 58.768V55.504H142.492V57.88H148.468V58.768H141.388ZM158.119 48.496V52.744H159.799V53.68H158.119V58.984H157.015V48.496H158.119ZM149.887 51.04V50.152H152.479V48.64H153.583V50.152H156.103V51.04H149.887ZM150.415 54.256C150.415 52.828 151.519 51.82 153.031 51.832C154.531 51.82 155.635 52.828 155.647 54.256C155.635 55.708 154.531 56.704 153.031 56.704C151.519 56.704 150.415 55.708 150.415 54.256ZM151.495 54.256C151.483 55.168 152.131 55.78 153.031 55.768C153.919 55.78 154.579 55.168 154.591 54.256C154.579 53.368 153.919 52.744 153.031 52.744C152.131 52.744 151.483 53.368 151.495 54.256ZM169.162 48.496V58.984H168.034V48.496H169.162ZM160.522 56.176C163.33 54.856 164.686 52.96 164.902 50.512H161.05V49.624H166.042C166.03 52.696 164.722 55.36 161.122 57.088L160.522 56.176ZM180.159 55.12L174.639 57.784V56.512L178.671 54.712V54.616L174.639 52.792V51.52L180.159 54.184V55.12Z" fill="#E3FFF8"/>
<path fill-rule="evenodd" clip-rule="evenodd" d="M303.301 55.5189C297.284 55.5189 292.406 51.8603 292.406 47.3473C292.406 42.8343 297.284 39.1758 303.301 39.1758C309.318 39.1758 314.196 42.8343 314.196 47.3473C314.196 49.4686 313.119 51.4011 311.351 52.8537C311.842 54.128 312.541 55.1178 313.856 56.5144C311.362 56.2604 309.823 55.8154 307.859 54.7714C306.473 55.2512 304.928 55.5189 303.301 55.5189Z" fill="#E8F8F4"/>
<path d="M311.351 52.8537L310.885 53.0333L310.755 52.6965L311.034 52.4674L311.351 52.8537ZM313.856 56.5144L314.22 56.1717L315.139 57.1476L313.805 57.0119L313.856 56.5144ZM307.859 54.7714L307.696 54.2989L307.902 54.2277L308.094 54.33L307.859 54.7714ZM292.906 47.3473C292.906 49.4112 294.02 51.3177 295.897 52.7255C297.774 54.1333 300.39 55.0189 303.301 55.0189V56.0189C300.195 56.0189 297.363 55.0752 295.297 53.5255C293.23 51.9757 291.906 49.7965 291.906 47.3473H292.906ZM303.301 39.6758C300.39 39.6758 297.774 40.5613 295.897 41.9692C294.02 43.3769 292.906 45.2835 292.906 47.3473H291.906C291.906 44.8981 293.23 42.719 295.297 41.1692C297.363 39.6195 300.195 38.6758 303.301 38.6758V39.6758ZM313.696 47.3473C313.696 45.2835 312.582 43.3769 310.705 41.9692C308.828 40.5613 306.212 39.6758 303.301 39.6758V38.6758C306.407 38.6758 309.239 39.6195 311.305 41.1692C313.371 42.719 314.696 44.8981 314.696 47.3473H313.696ZM311.034 52.4674C312.712 51.0884 313.696 49.2882 313.696 47.3473H314.696C314.696 49.649 313.525 51.7139 311.669 53.2399L311.034 52.4674ZM313.492 56.8571C312.155 55.4363 311.408 54.3919 310.885 53.0333L311.818 52.674C312.276 53.8641 312.928 54.7993 314.22 56.1717L313.492 56.8571ZM308.094 54.33C309.993 55.3396 311.468 55.7687 313.907 56.017L313.805 57.0119C311.255 56.7522 309.652 56.2911 307.625 55.2129L308.094 54.33ZM303.301 55.0189C304.874 55.0189 306.363 54.7601 307.696 54.2989L308.023 55.244C306.582 55.7423 304.983 56.0189 303.301 56.0189V55.0189Z" fill="#474747"/>
<path fill-rule="evenodd" clip-rule="evenodd" d="M287.612 49.4175C298.443 49.4175 307.223 42.8322 307.223 34.7088C307.223 26.5853 298.443 20 287.612 20C276.78 20 268 26.5853 268 34.7088C268 38.5273 269.94 42.0061 273.122 44.6207C272.239 46.9145 270.979 48.6961 268.613 51.2101C273.103 50.7528 275.873 49.9517 279.407 48.0725C281.903 48.9359 284.683 49.4175 287.612 49.4175Z" fill="#F4F4F4"/>
<path d="M273.122 44.6207L273.588 44.8003L273.718 44.4635L273.439 44.2344L273.122 44.6207ZM268.613 51.2101L268.249 50.8674L267.33 51.8433L268.664 51.7075L268.613 51.2101ZM279.407 48.0725L279.571 47.6L279.365 47.5287L279.173 47.631L279.407 48.0725ZM306.723 34.7088C306.723 38.5778 304.634 42.1187 301.179 44.7094C297.725 47.3003 292.93 48.9175 287.612 48.9175V49.9175C293.125 49.9175 298.136 48.2421 301.779 45.5094C305.423 42.7766 307.723 38.9632 307.723 34.7088H306.723ZM287.612 20.5C292.93 20.5 297.725 22.1173 301.179 24.7081C304.634 27.2988 306.723 30.8397 306.723 34.7088H307.723C307.723 30.4544 305.423 26.6409 301.779 23.9081C298.136 21.1754 293.125 19.5 287.612 19.5V20.5ZM268.5 34.7088C268.5 30.8397 270.59 27.2988 274.044 24.7081C277.499 22.1173 282.294 20.5 287.612 20.5V19.5C282.098 19.5 277.088 21.1754 273.444 23.9081C269.8 26.6409 267.5 30.4544 267.5 34.7088H268.5ZM273.439 44.2344C270.347 41.6933 268.5 38.3469 268.5 34.7088H267.5C267.5 38.7078 269.533 42.3188 272.804 45.0069L273.439 44.2344ZM268.977 51.5528C271.366 49.0146 272.673 47.1784 273.588 44.8003L272.655 44.441C271.804 46.6506 270.593 48.3776 268.249 50.8674L268.977 51.5528ZM279.173 47.631C275.703 49.476 272.997 50.2611 268.562 50.7126L268.664 51.7075C273.209 51.2446 276.043 50.4274 279.642 48.514L279.173 47.631ZM287.612 48.9175C284.737 48.9175 282.013 48.4448 279.571 47.6L279.244 48.545C281.794 49.427 284.628 49.9175 287.612 49.9175V48.9175Z" fill="#474747"/>
<path fill-rule="evenodd" clip-rule="evenodd" d="M274.973 28.6644C274.973 27.461 275.78 26.4854 276.776 26.4854H299.318C300.314 26.4854 301.122 27.461 301.122 28.6644C301.122 29.8679 300.314 30.8435 299.318 30.8435H276.776C275.78 30.8435 274.973 29.8679 274.973 28.6644Z" fill="#FFE853" stroke="#474747" stroke-linecap="round"/>
<path fill-rule="evenodd" clip-rule="evenodd" d="M274.973 35.2022C274.973 34.2395 275.78 33.459 276.776 33.459H299.318C300.314 33.459 301.122 34.2395 301.122 35.2022C301.122 36.165 300.314 36.9455 299.318 36.9455H276.776C275.78 36.9455 274.973 36.165 274.973 35.2022Z" fill="#FFE853" stroke="#474747" stroke-linecap="round"/>
<path fill-rule="evenodd" clip-rule="evenodd" d="M274.973 41.3038C274.973 40.341 275.803 39.5605 276.828 39.5605H292.293C293.318 39.5605 294.149 40.341 294.149 41.3038C294.149 42.2666 293.318 43.0471 292.293 43.0471H276.828C275.803 43.0471 274.973 42.2666 274.973 41.3038Z" fill="#FFE853" stroke="#474747" stroke-linecap="round"/>
</svg>
