<svg width="343" height="77" viewBox="0 0 343 77" fill="none" xmlns="http://www.w3.org/2000/svg">
<rect x="0.5" y="0.5" width="342" height="76" rx="11.5" fill="#00A176" stroke="#00A176"/>
<path d="M20.1123 34V21.9805H22.2705V32.1738H27.583V34H20.1123ZM33.3809 34.1826C30.6583 34.1826 28.9981 32.373 28.9981 29.5508C28.9981 26.7617 30.6915 24.8691 33.2647 24.8691C35.4727 24.8691 37.3819 26.2471 37.3819 29.418V30.082H31.0899C31.1148 31.6177 32.0196 32.5225 33.3975 32.5225C34.3272 32.5225 34.9581 32.124 35.2237 31.5928H37.2989C36.9171 33.1533 35.4727 34.1826 33.3809 34.1826ZM31.1065 28.6377H35.3565C35.3399 27.4092 34.5264 26.5127 33.2979 26.5127C32.0196 26.5127 31.1729 27.4839 31.1065 28.6377ZM43.6945 24.9854V26.6123H41.9181V31.2939C41.9181 32.1572 42.3498 32.3398 42.881 32.3398C43.13 32.3398 43.5451 32.3232 43.8107 32.3066V34.0332C43.5617 34.083 43.1466 34.1162 42.6154 34.1162C41.0216 34.1162 39.7931 33.3359 39.8097 31.6426V26.6123H38.5148V24.9854H39.8097V22.8271H41.9181V24.9854H43.6945ZM55.4564 30.2148V24.9854H57.5648V34H55.5228V32.4062H55.4232C55.0081 33.4023 54.0618 34.1162 52.7171 34.1162C50.9407 34.1162 49.7122 32.8877 49.6956 30.7295V24.9854H51.8206V30.3975C51.8206 31.543 52.5013 32.2734 53.5306 32.2734C54.4603 32.2734 55.4564 31.5928 55.4564 30.2148ZM64.8734 27.5586C64.7406 26.8779 64.1762 26.4463 63.2797 26.4463C62.3666 26.4463 61.7025 26.8945 61.7191 27.5088C61.7025 27.9736 62.0844 28.3223 62.9975 28.5381L64.5248 28.8535C66.2348 29.2354 67.0482 30.0156 67.0648 31.3105C67.0482 33.0039 65.5707 34.1826 63.2133 34.1826C60.9223 34.1826 59.5609 33.1533 59.3451 31.4268H61.5033C61.6361 32.1904 62.2338 32.5723 63.2133 32.5723C64.226 32.5723 64.9066 32.1572 64.9066 31.4932C64.9066 30.9785 64.4916 30.6465 63.5951 30.4473L62.1508 30.1318C60.474 29.7998 59.6107 28.9199 59.6107 27.625C59.6107 25.9648 61.0385 24.8691 63.2465 24.8691C65.4047 24.8691 66.7328 25.915 66.8822 27.5586H64.8734ZM73.0494 34V21.9805H75.1744V28.6045H75.3238L78.5611 24.9854H81.0347L77.5484 28.8701L81.2505 34H78.7271L75.9546 30.1318L75.1744 30.9619V34H73.0494ZM84.5914 28.7207V34H82.4664V24.9854H84.4918V26.5127H84.608C85.0231 25.5 85.9362 24.8691 87.2809 24.8691C89.1569 24.8691 90.3854 26.0977 90.3688 28.2559V34H88.2604V28.5879C88.2604 27.376 87.6129 26.6621 86.5006 26.6621C85.3717 26.6621 84.5914 27.4092 84.5914 28.7207ZM96.4987 34.1826C93.8757 34.1826 92.1823 32.3232 92.1823 29.5342C92.1823 26.7285 93.8757 24.8691 96.4987 24.8691C99.1384 24.8691 100.815 26.7285 100.815 29.5342C100.815 32.3232 99.1384 34.1826 96.4987 34.1826ZM96.5154 32.4893C97.9597 32.4893 98.6736 31.1777 98.6736 29.5176C98.6736 27.874 97.9597 26.5459 96.5154 26.5459C95.0378 26.5459 94.3239 27.874 94.3239 29.5176C94.3239 31.1777 95.0378 32.4893 96.5154 32.4893ZM104.256 34L101.699 24.9854H103.857L105.451 31.3271H105.534L107.144 24.9854H109.286L110.913 31.2939H110.996L112.573 24.9854H114.731L112.175 34H109.967L108.273 27.8906H108.157L106.464 34H104.256ZM121.728 37.3867C121.313 37.3867 120.898 37.3701 120.633 37.3369V35.6436C120.898 35.6602 121.247 35.6768 121.529 35.6768C122.044 35.6768 122.476 35.627 122.841 34.6641L123.023 34.1826L119.736 24.9854H121.978L124.069 31.792H124.169L126.261 24.9854H128.502L124.883 35.0957C124.368 36.54 123.422 37.3867 121.728 37.3867ZM133.619 34.1826C130.996 34.1826 129.303 32.3232 129.303 29.5342C129.303 26.7285 130.996 24.8691 133.619 24.8691C136.259 24.8691 137.936 26.7285 137.936 29.5342C137.936 32.3232 136.259 34.1826 133.619 34.1826ZM133.636 32.4893C135.08 32.4893 135.794 31.1777 135.794 29.5176C135.794 27.874 135.08 26.5459 133.636 26.5459C132.158 26.5459 131.444 27.874 131.444 29.5176C131.444 31.1777 132.158 32.4893 133.636 32.4893ZM145.51 30.2148V24.9854H147.618V34H145.576V32.4062H145.477C145.062 33.4023 144.115 34.1162 142.771 34.1162C140.994 34.1162 139.766 32.8877 139.749 30.7295V24.9854H141.874V30.3975C141.874 31.543 142.555 32.2734 143.584 32.2734C144.514 32.2734 145.51 31.5928 145.51 30.2148ZM149.814 34V24.9854H151.872V26.4795H151.972C152.287 25.4502 153.167 24.8525 154.196 24.8525C154.429 24.8525 154.761 24.8691 154.96 24.9023V26.8613C154.778 26.7949 154.329 26.7285 153.981 26.7285C152.802 26.7285 151.939 27.542 151.939 28.6875V34H149.814ZM165.095 24.9854V26.6123H163.319V31.2939C163.319 32.1572 163.75 32.3398 164.282 32.3398C164.531 32.3398 164.946 32.3232 165.211 32.3066V34.0332C164.962 34.083 164.547 34.1162 164.016 34.1162C162.422 34.1162 161.194 33.3359 161.21 31.6426V26.6123H159.915V24.9854H161.21V22.8271H163.319V24.9854H165.095ZM169.216 28.7207V34H167.091V21.9805H169.166V26.5127H169.283C169.698 25.5 170.561 24.8691 171.956 24.8691C173.831 24.8691 175.06 26.0811 175.06 28.2559V34H172.952V28.5879C172.952 27.3594 172.288 26.6621 171.175 26.6621C170.03 26.6621 169.216 27.4092 169.216 28.7207ZM181.173 34.1826C178.55 34.1826 176.857 32.3232 176.857 29.5342C176.857 26.7285 178.55 24.8691 181.173 24.8691C183.813 24.8691 185.49 26.7285 185.49 29.5342C185.49 32.3232 183.813 34.1826 181.173 34.1826ZM181.19 32.4893C182.634 32.4893 183.348 31.1777 183.348 29.5176C183.348 27.874 182.634 26.5459 181.19 26.5459C179.712 26.5459 178.999 27.874 178.999 29.5176C178.999 31.1777 179.712 32.4893 181.19 32.4893ZM193.064 30.2148V24.9854H195.172V34H193.13V32.4062H193.031C192.616 33.4023 191.67 34.1162 190.325 34.1162C188.548 34.1162 187.32 32.8877 187.303 30.7295V24.9854H189.428V30.3975C189.428 31.543 190.109 32.2734 191.138 32.2734C192.068 32.2734 193.064 31.5928 193.064 30.2148ZM201.302 37.5693C198.912 37.5693 197.401 36.5068 197.252 34.8135H199.36C199.509 35.5938 200.257 35.9756 201.336 35.9756C202.597 35.9756 203.427 35.4277 203.427 34.0996V32.373H203.328C202.996 33.0371 202.282 33.8672 200.721 33.8672C198.646 33.8672 197.003 32.3564 197.003 29.418C197.003 26.4463 198.646 24.8691 200.738 24.8691C202.332 24.8691 202.996 25.8154 203.328 26.4629H203.427V24.9854H205.519V34.1494C205.519 36.457 203.743 37.5693 201.302 37.5693ZM201.302 32.207C202.664 32.207 203.444 31.1777 203.444 29.4512C203.444 27.7412 202.68 26.5957 201.302 26.5957C199.891 26.5957 199.161 27.8076 199.161 29.4512C199.161 31.1113 199.908 32.207 201.302 32.207ZM209.84 28.7207V34H207.715V21.9805H209.79V26.5127H209.906C210.321 25.5 211.184 24.8691 212.579 24.8691C214.455 24.8691 215.683 26.0811 215.683 28.2559V34H213.575V28.5879C213.575 27.3594 212.911 26.6621 211.799 26.6621C210.653 26.6621 209.84 27.4092 209.84 28.7207ZM222.361 24.9854V26.6123H220.585V31.2939C220.585 32.1572 221.016 32.3398 221.548 32.3398C221.797 32.3398 222.212 32.3232 222.477 32.3066V34.0332C222.228 34.083 221.813 34.1162 221.282 34.1162C219.688 34.1162 218.46 33.3359 218.476 31.6426V26.6123H217.181V24.9854H218.476V22.8271H220.585V24.9854H222.361ZM226.731 21.9805L226.549 30.4639H224.673L224.474 21.9805H226.731ZM225.619 34.1328C224.905 34.1328 224.324 33.5518 224.324 32.8379C224.324 32.1406 224.905 31.5596 225.619 31.5596C226.3 31.5596 226.897 32.1406 226.897 32.8379C226.897 33.5518 226.3 34.1328 225.619 34.1328Z" fill="white"/>
<path d="M23.68 52.06C23.576 51.553 23.147 51.215 22.458 51.228C21.769 51.215 21.262 51.566 21.262 52.034C21.262 52.398 21.548 52.658 22.25 52.814L23.42 53.074C24.72 53.347 25.357 53.958 25.344 54.946C25.357 56.233 24.213 57.143 22.432 57.13C20.664 57.143 19.624 56.35 19.468 55.024H21.106C21.21 55.622 21.665 55.908 22.406 55.908C23.199 55.908 23.706 55.596 23.706 55.076C23.706 54.686 23.394 54.426 22.718 54.27L21.6 54.036C20.313 53.776 19.65 53.113 19.65 52.138C19.65 50.851 20.755 50.019 22.432 50.006C24.083 50.019 25.097 50.825 25.214 52.06H23.68ZM29.7694 57.13C27.7024 57.143 26.4284 55.752 26.4414 53.594C26.4284 51.462 27.7284 50.019 29.6914 50.006C31.3814 50.019 32.8374 51.072 32.8374 53.49V54.01H28.0274C28.0664 55.193 28.7424 55.882 29.7954 55.882C30.5104 55.882 30.9784 55.57 31.1994 55.154H32.7854C32.4864 56.35 31.3814 57.143 29.7694 57.13ZM28.0274 52.892H31.2774C31.2774 51.969 30.6534 51.28 29.7174 51.28C28.7424 51.28 28.0924 52.008 28.0274 52.892ZM35.8581 52.97V57H34.2461V50.11H35.7801V51.28H35.8841C36.1961 50.5 36.8981 50.019 37.9381 50.006C39.3551 50.019 40.2911 50.955 40.2781 52.606V57H38.6661V52.866C38.6791 51.93 38.1721 51.384 37.3141 51.384C36.4691 51.384 35.8581 51.956 35.8581 52.97ZM44.5419 57.13C42.9039 57.117 41.6819 55.83 41.6819 53.568C41.6819 51.267 42.9429 50.019 44.5419 50.006C45.7509 50.019 46.2579 50.747 46.5179 51.228H46.5699V47.796H48.1819V57H46.5959V55.908H46.5179C46.2449 56.415 45.7119 57.117 44.5419 57.13ZM43.3459 53.542C43.3329 54.855 43.9049 55.791 44.9839 55.804C46.0109 55.791 46.6089 54.894 46.5959 53.542C46.6089 52.216 46.0239 51.345 44.9839 51.332C43.8919 51.345 43.3329 52.268 43.3459 53.542ZM56.6032 50.11V51.358H55.2512V54.92C55.2512 55.596 55.5762 55.726 55.9792 55.726C56.1742 55.739 56.4862 55.713 56.7072 55.7V57.026C56.4992 57.065 56.1872 57.091 55.7712 57.104C54.5622 57.091 53.6262 56.493 53.6392 55.206V51.358H52.6512V50.11H53.6392V48.446H55.2512V50.11H56.6032ZM59.7374 52.97V57H58.1254V47.796H59.7114V51.28H59.7894C60.1144 50.5 60.7774 50.019 61.8434 50.006C63.2734 50.019 64.2094 50.942 64.2094 52.606V57H62.5974V52.866C62.5974 51.93 62.0904 51.384 61.2454 51.384C60.3614 51.384 59.7374 51.956 59.7374 52.97ZM68.94 57.13C66.873 57.143 65.599 55.752 65.612 53.594C65.599 51.462 66.899 50.019 68.862 50.006C70.552 50.019 72.008 51.072 72.008 53.49V54.01H67.198C67.237 55.193 67.913 55.882 68.966 55.882C69.681 55.882 70.149 55.57 70.37 55.154H71.956C71.657 56.35 70.552 57.143 68.94 57.13ZM67.198 52.892H70.448C70.448 51.969 69.824 51.28 68.888 51.28C67.913 51.28 67.263 52.008 67.198 52.892ZM73.4167 57V50.11H74.9507V51.28H75.0547C75.3277 50.487 76.0297 50.019 76.9527 50.006C77.8757 50.019 78.5387 50.5 78.7987 51.28H78.8767C79.1887 50.513 79.9427 50.019 80.9567 50.006C82.2177 50.019 83.1017 50.838 83.1147 52.372V57H81.4767V52.632C81.4897 51.761 80.9697 51.371 80.3067 51.384C79.5137 51.371 79.0457 51.917 79.0587 52.684V57H77.4727V52.554C77.4727 51.839 76.9917 51.371 76.3027 51.384C75.6007 51.371 75.0287 51.956 75.0287 52.814V57H73.4167ZM90.5837 57.13C88.9457 57.117 87.7237 55.83 87.7237 53.568C87.7237 51.267 88.9847 50.019 90.5837 50.006C91.7927 50.019 92.2997 50.747 92.5597 51.228H92.6117V47.796H94.2237V57H92.6377V55.908H92.5597C92.2867 56.415 91.7537 57.117 90.5837 57.13ZM89.3877 53.542C89.3747 54.855 89.9467 55.791 91.0257 55.804C92.0527 55.791 92.6507 54.894 92.6377 53.542C92.6507 52.216 92.0657 51.345 91.0257 51.332C89.9337 51.345 89.3747 52.268 89.3877 53.542ZM95.9854 57V50.11H97.5974V57H95.9854ZM95.8554 48.238C95.8554 47.757 96.2844 47.367 96.7914 47.354C97.3114 47.367 97.7274 47.757 97.7274 48.238C97.7274 48.732 97.3114 49.122 96.7914 49.122C96.2844 49.122 95.8554 48.732 95.8554 48.238ZM99.2892 57V50.11H100.849V51.254H100.927C101.174 50.461 101.837 50.006 102.617 50.006C102.812 50.006 103.072 50.019 103.215 50.058V51.54C103.072 51.488 102.734 51.449 102.461 51.436C101.564 51.449 100.901 52.06 100.901 52.944V57H99.2892ZM107.133 57.13C105.066 57.143 103.792 55.752 103.805 53.594C103.792 51.462 105.092 50.019 107.055 50.006C108.745 50.019 110.201 51.072 110.201 53.49V54.01H105.391C105.43 55.193 106.106 55.882 107.159 55.882C107.874 55.882 108.342 55.57 108.563 55.154H110.149C109.85 56.35 108.745 57.143 107.133 57.13ZM105.391 52.892H108.641C108.641 51.969 108.017 51.28 107.081 51.28C106.106 51.28 105.456 52.008 105.391 52.892ZM114.626 57.13C112.559 57.143 111.311 55.661 111.324 53.594C111.311 51.475 112.598 50.019 114.6 50.006C116.29 50.019 117.46 50.994 117.564 52.476H116.03C115.9 51.826 115.419 51.319 114.626 51.306C113.625 51.319 112.949 52.164 112.962 53.542C112.949 54.972 113.612 55.817 114.626 55.804C115.341 55.817 115.874 55.401 116.03 54.66H117.564C117.447 56.103 116.342 57.143 114.626 57.13ZM122.345 50.11V51.358H120.993V54.92C120.993 55.596 121.318 55.726 121.721 55.726C121.916 55.739 122.228 55.713 122.449 55.7V57.026C122.241 57.065 121.929 57.091 121.513 57.104C120.304 57.091 119.368 56.493 119.381 55.206V51.358H118.393V50.11H119.381V48.446H120.993V50.11H122.345ZM125.479 47.796V57H123.867V47.796H125.479ZM128.133 59.574C127.821 59.587 127.509 59.574 127.301 59.548V58.248C127.496 58.274 127.782 58.274 127.977 58.274C128.38 58.274 128.718 58.248 128.991 57.52L129.121 57.156L126.625 50.11H128.341L129.927 55.31H130.005L131.617 50.11H133.333L130.551 57.832C130.161 58.937 129.433 59.587 128.133 59.574ZM141.133 50.11V51.358H139.781V54.92C139.781 55.596 140.106 55.726 140.509 55.726C140.704 55.739 141.016 55.713 141.237 55.7V57.026C141.029 57.065 140.717 57.091 140.301 57.104C139.092 57.091 138.156 56.493 138.169 55.206V51.358H137.181V50.11H138.169V48.446H139.781V50.11H141.133ZM145.456 57.13C143.428 57.143 142.141 55.713 142.154 53.594C142.141 51.436 143.428 50.019 145.456 50.006C147.458 50.019 148.745 51.436 148.758 53.594C148.745 55.713 147.458 57.143 145.456 57.13ZM143.792 53.568C143.779 54.842 144.338 55.843 145.456 55.83C146.561 55.843 147.107 54.842 147.12 53.568C147.107 52.307 146.561 51.293 145.456 51.306C144.338 51.293 143.779 52.307 143.792 53.568ZM156.796 50.11V51.358H155.444V54.92C155.444 55.596 155.769 55.726 156.172 55.726C156.367 55.739 156.679 55.713 156.9 55.7V57.026C156.692 57.065 156.38 57.091 155.964 57.104C154.755 57.091 153.819 56.493 153.832 55.206V51.358H152.844V50.11H153.832V48.446H155.444V50.11H156.796ZM159.93 52.97V57H158.318V47.796H159.904V51.28H159.982C160.307 50.5 160.97 50.019 162.036 50.006C163.466 50.019 164.402 50.942 164.402 52.606V57H162.79V52.866C162.79 51.93 162.283 51.384 161.438 51.384C160.554 51.384 159.93 51.956 159.93 52.97ZM169.132 57.13C167.065 57.143 165.791 55.752 165.804 53.594C165.791 51.462 167.091 50.019 169.054 50.006C170.744 50.019 172.2 51.072 172.2 53.49V54.01H167.39C167.429 55.193 168.105 55.882 169.158 55.882C169.873 55.882 170.341 55.57 170.562 55.154H172.148C171.849 56.35 170.744 57.143 169.132 57.13ZM167.39 52.892H170.64C170.64 51.969 170.016 51.28 169.08 51.28C168.105 51.28 167.455 52.008 167.39 52.892ZM176.525 55.076C176.512 53.503 177.799 53.061 179.073 52.97C179.567 52.931 180.555 52.892 180.841 52.879V52.32C180.841 51.644 180.399 51.254 179.593 51.254C178.878 51.254 178.436 51.579 178.319 52.06H176.733C176.863 50.903 177.916 50.019 179.645 50.006C180.945 50.019 182.453 50.552 182.453 52.398V57H180.893V56.064H180.841C180.555 56.623 179.905 57.143 178.813 57.13C177.513 57.143 176.512 56.415 176.525 55.076ZM178.085 55.05C178.072 55.635 178.566 55.947 179.229 55.96C180.23 55.947 180.854 55.297 180.841 54.53V53.958C180.529 53.971 179.658 54.023 179.333 54.062C178.566 54.114 178.072 54.439 178.085 55.05ZM186.688 57.13C185.05 57.117 183.828 55.83 183.828 53.568C183.828 51.267 185.089 50.019 186.688 50.006C187.897 50.019 188.404 50.747 188.664 51.228H188.716V47.796H190.328V57H188.742V55.908H188.664C188.391 56.415 187.858 57.117 186.688 57.13ZM185.492 53.542C185.479 54.855 186.051 55.791 187.13 55.804C188.157 55.791 188.755 54.894 188.742 53.542C188.755 52.216 188.17 51.345 187.13 51.332C186.038 51.345 185.479 52.268 185.492 53.542ZM192.09 57V50.11H193.624V51.28H193.728C194.001 50.487 194.703 50.019 195.626 50.006C196.549 50.019 197.212 50.5 197.472 51.28H197.55C197.862 50.513 198.616 50.019 199.63 50.006C200.891 50.019 201.775 50.838 201.788 52.372V57H200.15V52.632C200.163 51.761 199.643 51.371 198.98 51.384C198.187 51.371 197.719 51.917 197.732 52.684V57H196.146V52.554C196.146 51.839 195.665 51.371 194.976 51.384C194.274 51.371 193.702 51.956 193.702 52.814V57H192.09ZM203.455 57V50.11H205.067V57H203.455ZM203.325 48.238C203.325 47.757 203.754 47.367 204.261 47.354C204.781 47.367 205.197 47.757 205.197 48.238C205.197 48.732 204.781 49.122 204.261 49.122C203.754 49.122 203.325 48.732 203.325 48.238ZM208.371 52.97V57H206.759V50.11H208.293V51.28H208.397C208.709 50.5 209.411 50.019 210.451 50.006C211.868 50.019 212.804 50.955 212.791 52.606V57H211.179V52.866C211.192 51.93 210.685 51.384 209.827 51.384C208.982 51.384 208.371 51.956 208.371 52.97ZM218.381 52.06C218.277 51.553 217.848 51.215 217.159 51.228C216.47 51.215 215.963 51.566 215.963 52.034C215.963 52.398 216.249 52.658 216.951 52.814L218.121 53.074C219.421 53.347 220.058 53.958 220.045 54.946C220.058 56.233 218.914 57.143 217.133 57.13C215.365 57.143 214.325 56.35 214.169 55.024H215.807C215.911 55.622 216.366 55.908 217.107 55.908C217.9 55.908 218.407 55.596 218.407 55.076C218.407 54.686 218.095 54.426 217.419 54.27L216.301 54.036C215.014 53.776 214.351 53.113 214.351 52.138C214.351 50.851 215.456 50.019 217.133 50.006C218.784 50.019 219.798 50.825 219.915 52.06H218.381ZM231.13 53.984L224.994 56.844V55.258L229.31 53.386V53.308L224.994 51.462V49.876L231.13 52.71V53.984Z" fill="#E3FFF8"/>
<path fill-rule="evenodd" clip-rule="evenodd" d="M304.301 55.5189C298.284 55.5189 293.406 51.8603 293.406 47.3473C293.406 42.8343 298.284 39.1758 304.301 39.1758C310.318 39.1758 315.196 42.8343 315.196 47.3473C315.196 49.4686 314.119 51.4011 312.351 52.8537C312.842 54.128 313.541 55.1178 314.856 56.5144C312.362 56.2604 310.823 55.8154 308.859 54.7714C307.473 55.2512 305.928 55.5189 304.301 55.5189Z" fill="#E8F8F4"/>
<path d="M312.351 52.8537L311.885 53.0333L311.755 52.6965L312.034 52.4674L312.351 52.8537ZM314.856 56.5144L315.22 56.1717L316.139 57.1476L314.805 57.0119L314.856 56.5144ZM308.859 54.7714L308.696 54.2989L308.902 54.2277L309.094 54.33L308.859 54.7714ZM293.906 47.3473C293.906 49.4112 295.02 51.3177 296.897 52.7255C298.774 54.1333 301.39 55.0189 304.301 55.0189V56.0189C301.194 56.0189 298.363 55.0752 296.297 53.5255C294.23 51.9757 292.906 49.7965 292.906 47.3473H293.906ZM304.301 39.6758C301.39 39.6758 298.774 40.5613 296.897 41.9692C295.02 43.3769 293.906 45.2835 293.906 47.3473H292.906C292.906 44.8981 294.23 42.719 296.297 41.1692C298.363 39.6195 301.194 38.6758 304.301 38.6758V39.6758ZM314.696 47.3473C314.696 45.2835 313.582 43.3769 311.705 41.9692C309.828 40.5613 307.212 39.6758 304.301 39.6758V38.6758C307.407 38.6758 310.239 39.6195 312.305 41.1692C314.371 42.719 315.696 44.8981 315.696 47.3473H314.696ZM312.034 52.4674C313.712 51.0884 314.696 49.2882 314.696 47.3473H315.696C315.696 49.649 314.525 51.7139 312.669 53.2399L312.034 52.4674ZM314.492 56.8571C313.155 55.4363 312.408 54.3919 311.885 53.0333L312.818 52.674C313.276 53.8641 313.928 54.7993 315.22 56.1717L314.492 56.8571ZM309.094 54.33C310.993 55.3396 312.468 55.7687 314.907 56.017L314.805 57.0119C312.255 56.7522 310.652 56.2911 308.625 55.2129L309.094 54.33ZM304.301 55.0189C305.874 55.0189 307.363 54.7601 308.696 54.2989L309.023 55.244C307.582 55.7423 305.983 56.0189 304.301 56.0189V55.0189Z" fill="#474747"/>
<path fill-rule="evenodd" clip-rule="evenodd" d="M288.612 49.4175C299.443 49.4175 308.223 42.8322 308.223 34.7088C308.223 26.5853 299.443 20 288.612 20C277.78 20 269 26.5853 269 34.7088C269 38.5273 270.94 42.0061 274.122 44.6207C273.239 46.9145 271.979 48.6961 269.613 51.2101C274.103 50.7528 276.873 49.9517 280.407 48.0725C282.903 48.9359 285.683 49.4175 288.612 49.4175Z" fill="#F4F4F4"/>
<path d="M274.122 44.6207L274.588 44.8003L274.718 44.4635L274.439 44.2344L274.122 44.6207ZM269.613 51.2101L269.249 50.8674L268.33 51.8433L269.664 51.7075L269.613 51.2101ZM280.407 48.0725L280.571 47.6L280.365 47.5287L280.173 47.631L280.407 48.0725ZM307.723 34.7088C307.723 38.5778 305.634 42.1187 302.179 44.7094C298.725 47.3003 293.93 48.9175 288.612 48.9175V49.9175C294.125 49.9175 299.136 48.2421 302.779 45.5094C306.423 42.7766 308.723 38.9632 308.723 34.7088H307.723ZM288.612 20.5C293.93 20.5 298.725 22.1173 302.179 24.7081C305.634 27.2988 307.723 30.8397 307.723 34.7088H308.723C308.723 30.4544 306.423 26.6409 302.779 23.9081C299.136 21.1754 294.125 19.5 288.612 19.5V20.5ZM269.5 34.7088C269.5 30.8397 271.59 27.2988 275.044 24.7081C278.499 22.1173 283.294 20.5 288.612 20.5V19.5C283.098 19.5 278.088 21.1754 274.444 23.9081C270.8 26.6409 268.5 30.4544 268.5 34.7088H269.5ZM274.439 44.2344C271.347 41.6933 269.5 38.3469 269.5 34.7088H268.5C268.5 38.7078 270.533 42.3188 273.804 45.0069L274.439 44.2344ZM269.977 51.5528C272.366 49.0146 273.673 47.1784 274.588 44.8003L273.655 44.441C272.804 46.6506 271.593 48.3776 269.249 50.8674L269.977 51.5528ZM280.173 47.631C276.703 49.476 273.997 50.2611 269.562 50.7126L269.664 51.7075C274.209 51.2446 277.043 50.4274 280.642 48.514L280.173 47.631ZM288.612 48.9175C285.737 48.9175 283.013 48.4448 280.571 47.6L280.244 48.545C282.794 49.427 285.628 49.9175 288.612 49.9175V48.9175Z" fill="#474747"/>
<path fill-rule="evenodd" clip-rule="evenodd" d="M275.973 28.6644C275.973 27.461 276.78 26.4854 277.776 26.4854H300.318C301.314 26.4854 302.122 27.461 302.122 28.6644C302.122 29.8679 301.314 30.8435 300.318 30.8435H277.776C276.78 30.8435 275.973 29.8679 275.973 28.6644Z" fill="#FFE853" stroke="#474747" stroke-linecap="round"/>
<path fill-rule="evenodd" clip-rule="evenodd" d="M275.973 35.2022C275.973 34.2395 276.78 33.459 277.776 33.459H300.318C301.314 33.459 302.122 34.2395 302.122 35.2022C302.122 36.165 301.314 36.9455 300.318 36.9455H277.776C276.78 36.9455 275.973 36.165 275.973 35.2022Z" fill="#FFE853" stroke="#474747" stroke-linecap="round"/>
<path fill-rule="evenodd" clip-rule="evenodd" d="M275.973 41.3038C275.973 40.341 276.803 39.5605 277.828 39.5605H293.293C294.318 39.5605 295.149 40.341 295.149 41.3038C295.149 42.2666 294.318 43.0471 293.293 43.0471H277.828C276.803 43.0471 275.973 42.2666 275.973 41.3038Z" fill="#FFE853" stroke="#474747" stroke-linecap="round"/>
</svg>
