<svg width="343" height="70" viewBox="0 0 343 70" fill="none" xmlns="http://www.w3.org/2000/svg">
<rect x="0.5" y="0.5" width="342" height="69" rx="11.5" fill="#00A176" stroke="#00A176"/>
<path d="M38.968 17.6V33.656H36.772V25.088H33.784V29.84H26.08V18.86H28.312V22.748H31.588V18.86H33.784V23.252H36.772V17.6H38.968ZM28.312 28.076H31.588V24.476H28.312V28.076ZM54.5966 17.6V33.656H52.3286V17.6H54.5966ZM42.1766 29.84V19.04H49.9526V20.84H44.4446V27.932C47.2886 27.932 49.0706 27.86 51.0686 27.5L51.2846 29.336C49.0706 29.768 47.0186 29.84 43.5806 29.84H42.1766ZM71.5573 23.864V25.628H56.9413V23.864H71.5573ZM58.6333 33.476V29.156H67.5613V28.256H58.6333V26.564H69.7573V30.74H60.8293V31.748H70.1893V33.476H58.6333ZM58.7773 22.964V17.96H69.7213V19.724H61.0093V21.2H69.8293V22.964H58.7773ZM77.8619 18.68C80.3999 18.68 82.2899 20.318 82.2899 22.604C82.2899 24.908 80.3999 26.546 77.8619 26.528C75.3419 26.546 73.4159 24.908 73.4339 22.604C73.4159 20.318 75.3419 18.68 77.8619 18.68ZM72.7499 28.58C75.6119 28.562 79.5719 28.526 82.9739 28.04L83.1539 29.66C79.6079 30.362 75.8099 30.38 73.0019 30.38L72.7499 28.58ZM75.6659 22.604C75.6479 23.882 76.6019 24.602 77.8619 24.62C79.1399 24.602 80.1119 23.882 80.1299 22.604C80.1119 21.362 79.1399 20.624 77.8619 20.624C76.6019 20.624 75.6479 21.362 75.6659 22.604ZM83.9099 33.656V17.6H86.1419V33.656H83.9099ZM97.855 20.48C97.855 22.19 98.755 23.9 100.879 24.728L99.691 26.42C98.323 25.898 97.387 24.944 96.811 23.774C96.235 25.16 95.227 26.312 93.751 26.924L92.527 25.196C94.777 24.224 95.677 22.262 95.695 20.48V18.608H97.855V20.48ZM95.479 30.632C95.479 28.76 97.639 27.626 101.023 27.644C104.407 27.626 106.567 28.76 106.567 30.632C106.567 32.486 104.407 33.62 101.023 33.62C97.639 33.62 95.479 32.486 95.479 30.632ZM97.747 30.632C97.729 31.496 98.935 31.928 101.023 31.928C103.111 31.928 104.317 31.496 104.335 30.632C104.317 29.768 103.111 29.318 101.023 29.3C98.935 29.318 97.729 29.768 97.747 30.632ZM100.951 26.924V17.924H103.039V21.524H104.371V17.636H106.495V27.428H104.371V23.36H103.039V26.924H100.951ZM121.188 17.6V21.344H123.348V23.216H121.188V26.924H118.92V17.6H121.188ZM108.264 25.16C111.9 24.26 113.916 22.442 114.258 20.3H109.092V18.5H116.688C116.67 22.784 113.988 25.682 109.2 26.888L108.264 25.16ZM110.424 29.336V27.572H121.188V33.62H118.92V29.336H110.424ZM131.524 17.852C135.196 17.852 137.32 18.806 137.32 20.588C137.32 22.352 135.196 23.324 131.524 23.324C127.816 23.324 125.674 22.352 125.692 20.588C125.674 18.806 127.816 17.852 131.524 17.852ZM124.216 25.844V24.08H138.832V25.844H124.216ZM125.908 33.512V29.3H134.836V28.436H125.908V26.78H137.032V30.848H128.104V31.82H137.464V33.512H125.908ZM128.032 20.588C128.032 21.362 129.166 21.668 131.524 21.668C133.882 21.668 135.016 21.362 135.016 20.588C135.016 19.868 133.882 19.49 131.524 19.472C129.166 19.49 128.032 19.868 128.032 20.588ZM156.989 17.6V20.696H159.149V22.568H156.989V25.628H154.721V17.6H156.989ZM144.389 21.74C144.389 19.58 146.243 18.104 148.709 18.104C151.157 18.104 152.993 19.58 152.993 21.74C152.993 23.828 151.157 25.34 148.709 25.34C146.243 25.34 144.389 23.828 144.389 21.74ZM146.369 27.968V26.24H156.989V30.596H148.601V31.676H157.457V33.44H146.405V28.976H154.757V27.968H146.369ZM146.585 21.74C146.567 22.856 147.467 23.558 148.709 23.576C149.933 23.558 150.815 22.856 150.833 21.74C150.815 20.606 149.933 19.922 148.709 19.904C147.467 19.922 146.567 20.606 146.585 21.74ZM173.518 17.6V33.656H171.286V27.212H168.55V25.376H171.286V22.82H168.586V21.02H171.286V17.6H173.518ZM160.558 20.732V18.968H167.722V25.088H162.826V28.22C164.806 28.22 166.552 28.112 168.55 27.824L168.73 29.66C166.354 30.02 164.32 30.074 161.854 30.092H160.594V23.36H165.526V20.732H160.558ZM185.223 18.644V20.408H182.091C182.145 21.578 183.315 22.676 185.727 23.036L184.863 24.764C183.009 24.458 181.695 23.666 180.957 22.622C180.219 23.756 178.869 24.602 176.871 24.944L175.971 23.216C178.545 22.838 179.751 21.668 179.787 20.408H176.655V18.644H185.223ZM175.683 25.88C178.617 25.88 182.631 25.844 186.087 25.376L186.195 27.032C184.791 27.284 183.351 27.446 181.947 27.536V33.152H179.679V27.662C178.347 27.698 177.087 27.716 175.971 27.716L175.683 25.88ZM183.891 30.164V28.472H187.131V17.636H189.435V33.62H187.131V30.164H183.891ZM195.127 19.256L194.911 28.184H192.643L192.427 19.256H195.127ZM192.319 30.668C192.283 29.876 192.967 29.21 193.795 29.228C194.569 29.21 195.253 29.876 195.271 30.668C195.253 31.496 194.569 32.162 193.795 32.144C192.967 32.162 192.283 31.496 192.319 30.668Z" fill="white"/>
<path d="M34.24 42.448V53.056H32.944V47.32H30.784V50.488H25.744V43.264H27.064V45.904H29.512V43.264H30.784V46.24H32.944V42.448H34.24ZM27.064 49.432H29.512V46.936H27.064V49.432ZM44.6591 42.448V53.056H43.3391V42.448H44.6591ZM36.4991 50.512V43.408H41.6111V44.488H37.8191V49.384C39.7751 49.384 40.9871 49.324 42.4031 49.072L42.5231 50.152C41.0111 50.44 39.6431 50.5 37.3871 50.512H36.4991ZM49.1742 43.216C50.7702 43.228 51.9222 44.68 51.9342 46.96C51.9222 49.264 50.7702 50.716 49.1742 50.704C47.5782 50.716 46.4142 49.264 46.4382 46.96C46.4142 44.68 47.5782 43.228 49.1742 43.216ZM47.6862 46.96C47.6742 48.592 48.2862 49.54 49.1742 49.528C50.0862 49.54 50.6742 48.592 50.6862 46.96C50.6742 45.352 50.0862 44.392 49.1742 44.392C48.2862 44.392 47.6742 45.352 47.6862 46.96ZM53.3262 53.032V42.448H54.6222V44.968H56.2062V46.072H54.6222V48.112H56.2062V49.192H54.6222V53.032H53.3262ZM69.4847 47.68V48.736H65.3807V50.68H64.0607V48.736H59.7887V47.68H69.4847ZM60.8207 44.848C60.8207 43.516 62.3447 42.688 64.6367 42.688C66.9047 42.688 68.4167 43.516 68.4287 44.848C68.4167 46.18 66.9047 47.008 64.6367 47.008C62.3447 47.008 60.8207 46.18 60.8207 44.848ZM60.9887 52.84V49.696H62.2847V51.76H68.4047V52.84H60.9887ZM62.2367 44.848C62.2247 45.556 63.1727 45.964 64.6367 45.976C66.0887 45.964 67.0247 45.556 67.0367 44.848C67.0247 44.128 66.0887 43.72 64.6367 43.72C63.1727 43.72 62.2247 44.128 62.2367 44.848ZM73.2317 43.048C74.0837 43.036 74.8277 43.36 75.3317 43.888H77.8637V42.448H79.1597V48.688H77.8637V47.32H75.3437C74.8397 47.848 74.0957 48.172 73.2317 48.16C71.6357 48.172 70.4357 47.104 70.4477 45.616C70.4357 44.116 71.6357 43.036 73.2317 43.048ZM71.6717 45.616C71.6837 46.48 72.3317 47.068 73.2317 47.056C74.1197 47.068 74.7677 46.48 74.7677 45.616C74.7677 44.716 74.1197 44.152 73.2317 44.176C72.3317 44.152 71.6837 44.716 71.6717 45.616ZM71.9837 50.968C71.9717 49.66 73.3637 48.904 75.5837 48.904C77.8037 48.904 79.1957 49.66 79.2077 50.968C79.1957 52.264 77.8037 53.032 75.5837 53.032C73.3637 53.032 71.9717 52.264 71.9837 50.968ZM73.2557 50.968C73.2557 51.64 74.1077 52.012 75.5837 52C77.0837 52.012 77.9237 51.64 77.9357 50.968C77.9237 50.272 77.0837 49.9 75.5837 49.912C74.1077 49.9 73.2557 50.272 73.2557 50.968ZM75.9197 46.288H77.8637V44.944H75.9197C75.9797 45.16 76.0157 45.376 76.0157 45.616C76.0157 45.856 75.9797 46.072 75.9197 46.288ZM84.8028 44.608C84.8028 45.928 85.7028 47.212 87.3948 47.728L86.7228 48.76C85.5228 48.364 84.6468 47.572 84.1668 46.564C83.6988 47.656 82.7988 48.532 81.5388 48.952L80.8668 47.92C82.5708 47.368 83.4828 46 83.4828 44.608V44.296H81.2028V43.264H87.0348V44.296H84.8028V44.608ZM82.5948 52.84V49.432H83.9148V51.784H89.8908V52.84H82.5948ZM88.3068 50.152V42.472H89.6028V50.152H88.3068ZM100.406 42.448V53.032H99.1579V42.448H100.406ZM91.3819 47.032C91.3819 44.704 92.2819 43.252 93.6619 43.264C94.9579 43.252 95.8219 44.452 95.9659 46.432H96.9979V42.64H98.2459V52.528H96.9979V47.488H95.9779C95.8699 49.564 94.9819 50.824 93.6619 50.824C92.2819 50.824 91.3819 49.372 91.3819 47.032ZM92.5819 47.032C92.5819 48.688 92.9899 49.576 93.6619 49.576C94.3699 49.576 94.7899 48.688 94.7899 47.032C94.7899 45.376 94.3699 44.476 93.6619 44.488C92.9899 44.476 92.5819 45.376 92.5819 47.032ZM110.897 42.448V53.032H109.673V42.448H110.897ZM101.681 49.888C103.877 48.58 104.885 46.924 105.077 44.8H102.233V43.744H106.385C106.385 44.764 106.253 45.736 105.965 46.624H107.441V42.712H108.665V52.552H107.441V47.656H105.545C104.921 48.868 103.925 49.936 102.425 50.8L101.681 49.888ZM123.527 42.448V46.48H125.159V47.584H123.527V53.032H122.231V42.448H123.527ZM115.607 50.56V43.312H116.903V45.952H119.399V43.312H120.695V50.56H115.607ZM116.903 49.48H119.399V46.984H116.903V49.48ZM135.411 50.728V51.808H125.739V50.728H129.915V49H126.891V45.544H132.987V44.224H126.867V43.168H134.259V46.576H128.187V47.944H134.499V49H131.187V50.728H135.411ZM148.065 42.472V50.2H146.769V46.312H144.897V45.256H146.769V42.472H148.065ZM139.185 47.896C140.865 47.356 141.765 45.964 141.777 44.56V44.272H139.569V43.216H145.281V44.272H143.097V44.56C143.097 45.844 143.949 47.164 145.593 47.704L144.921 48.736C143.745 48.34 142.905 47.524 142.449 46.528C141.981 47.632 141.105 48.52 139.857 48.952L139.185 47.896ZM141.129 52.84V49.528H142.425V51.784H148.329V52.84H141.129ZM157.98 42.448V46.672H159.612V47.752H157.98V53.032H156.708V42.448H157.98ZM149.628 45.136V44.08H152.148V42.592H153.444V44.08H155.892V45.136H149.628ZM150.132 48.304C150.12 46.84 151.248 45.808 152.796 45.808C154.32 45.808 155.448 46.84 155.46 48.304C155.448 49.768 154.32 50.788 152.796 50.8C151.248 50.788 150.12 49.768 150.132 48.304ZM151.38 48.304C151.368 49.168 151.968 49.72 152.796 49.72C153.612 49.72 154.2 49.168 154.212 48.304C154.2 47.44 153.612 46.876 152.796 46.888C151.968 46.876 151.368 47.44 151.38 48.304ZM169.023 42.448V53.032H167.703V42.448H169.023ZM160.263 50.128C163.023 48.808 164.307 47.02 164.547 44.608H160.791V43.576H165.879C165.867 46.732 164.643 49.408 160.935 51.16L160.263 50.128ZM179.998 49.216L174.334 51.856V50.392L178.318 48.664V48.592L174.334 46.888V45.424L179.998 48.04V49.216Z" fill="#E3FFF8"/>
<path d="M300.802 36.0322C295.722 36.0323 291.604 39.1217 291.604 42.9316C291.604 46.7415 295.722 49.83 300.802 49.8301C302.176 49.8301 303.479 49.6023 304.649 49.1973C306.307 50.079 307.607 50.4554 309.713 50.6699C308.603 49.4904 308.013 48.6545 307.599 47.5781C309.09 46.352 310 44.7219 310 42.9316C310 39.1216 305.882 36.0322 300.802 36.0322Z" fill="#E8F8F4"/>
<path d="M300.802 36.0322L300.802 35.5322H300.802V36.0322ZM291.604 42.9316L291.104 42.9317V42.9316H291.604ZM300.802 49.8301V50.3301H300.802L300.802 49.8301ZM304.649 49.1973L304.486 48.7247L304.692 48.6535L304.884 48.7558L304.649 49.1973ZM309.713 50.6699L310.077 50.3272L310.996 51.3031L309.662 51.1673L309.713 50.6699ZM307.599 47.5781L307.132 47.7577L307.002 47.421L307.281 47.1919L307.599 47.5781ZM310 42.9316H310.5V42.9317L310 42.9316ZM300.802 36.0322L300.802 36.5322C298.36 36.5322 296.168 37.2755 294.598 38.4532C293.028 39.6308 292.104 41.2193 292.104 42.9316H291.604H291.104C291.104 40.834 292.238 38.9729 293.998 37.6532C295.757 36.3337 298.164 35.5322 300.802 35.5322L300.802 36.0322ZM291.604 42.9316L292.104 42.9316C292.104 44.6439 293.028 46.2322 294.598 47.4095C296.168 48.587 298.36 49.3301 300.802 49.3301L300.802 49.8301L300.802 50.3301C298.164 50.3301 295.757 49.5288 293.998 48.2095C292.239 46.8901 291.104 45.0292 291.104 42.9317L291.604 42.9316ZM300.802 49.8301V49.3301C302.121 49.3301 303.368 49.1113 304.486 48.7247L304.649 49.1973L304.813 49.6698C303.589 50.0932 302.231 50.3301 300.802 50.3301V49.8301ZM304.649 49.1973L304.884 48.7558C306.478 49.6034 307.713 49.9637 309.764 50.1725L309.713 50.6699L309.662 51.1673C307.5 50.9472 306.137 50.5547 304.415 49.6387L304.649 49.1973ZM309.713 50.6699L309.349 51.0126C308.216 49.8088 307.578 48.9182 307.132 47.7577L307.599 47.5781L308.065 47.3986C308.447 48.3908 308.99 49.1721 310.077 50.3272L309.713 50.6699ZM307.599 47.5781L307.281 47.1919C308.683 46.0392 309.5 44.5414 309.5 42.9316L310 42.9316L310.5 42.9317C310.5 44.9025 309.497 46.6649 307.916 47.9643L307.599 47.5781ZM310 42.9316H309.5C309.5 41.2193 308.576 39.6307 307.006 38.4532C305.436 37.2755 303.244 36.5322 300.802 36.5322V36.0322V35.5322C303.44 35.5322 305.847 36.3337 307.606 37.6532C309.365 38.9728 310.5 40.834 310.5 42.9316H310Z" fill="#474747"/>
<path d="M287.557 19.8447C296.701 19.8447 304.113 25.4047 304.113 32.2627C304.113 39.1206 296.701 44.6797 287.557 44.6797C285.083 44.6797 282.737 44.2721 280.63 43.543C277.646 45.1296 275.308 45.8073 271.518 46.1934C273.516 44.0705 274.576 42.5651 275.321 40.6279C272.637 38.4209 271 35.4853 271 32.2627C271 25.4047 278.413 19.8447 287.557 19.8447Z" fill="#F4F4F4"/>
<path d="M287.557 19.8447V19.3447V19.8447ZM304.113 32.2627L304.613 32.2627V32.2627H304.113ZM287.557 44.6797V45.1797V44.6797ZM280.63 43.543L280.793 43.0704L280.587 42.9992L280.395 43.1015L280.63 43.543ZM271.518 46.1934L271.153 45.8507L270.235 46.8266L271.568 46.6908L271.518 46.1934ZM275.321 40.6279L275.788 40.8075L275.917 40.4708L275.639 40.2417L275.321 40.6279ZM271 32.2627H270.5V32.2627L271 32.2627ZM287.557 19.8447V20.3447C292.031 20.3447 296.062 21.7056 298.964 23.882C301.865 26.0582 303.613 29.0264 303.613 32.2627H304.113H304.613C304.613 28.641 302.655 25.4002 299.564 23.082C296.473 20.7638 292.226 19.3447 287.557 19.3447V19.8447ZM304.113 32.2627L303.613 32.2627C303.613 35.499 301.865 38.4669 298.964 40.6429C296.062 42.819 292.031 44.1797 287.557 44.1797V44.6797V45.1797C292.226 45.1797 296.473 43.7608 299.564 41.4429C302.655 39.1249 304.613 35.8843 304.613 32.2627L304.113 32.2627ZM287.557 44.6797V44.1797C285.138 44.1797 282.847 43.781 280.793 43.0704L280.63 43.543L280.466 44.0155C282.627 44.7631 285.029 45.1797 287.557 45.1797V44.6797ZM280.63 43.543L280.395 43.1015C277.476 44.6539 275.202 45.3156 271.467 45.6959L271.518 46.1934L271.568 46.6908C275.415 46.2991 277.817 45.6052 280.865 43.9844L280.63 43.543ZM271.518 46.1934L271.882 46.5361C273.903 44.3886 275.01 42.8286 275.788 40.8075L275.321 40.6279L274.855 40.4484C274.142 42.3016 273.128 43.7524 271.153 45.8507L271.518 46.1934ZM275.321 40.6279L275.639 40.2417C273.044 38.1082 271.5 35.3049 271.5 32.2627L271 32.2627L270.5 32.2627C270.5 35.6657 272.23 38.7336 275.004 41.0141L275.321 40.6279ZM271 32.2627H271.5C271.5 29.0264 273.248 26.0582 276.149 23.882C279.051 21.7056 283.082 20.3447 287.557 20.3447V19.8447V19.3447C282.887 19.3447 278.64 20.7638 275.549 23.082C272.458 25.4003 270.5 28.641 270.5 32.2627H271Z" fill="#474747"/>
<path fill-rule="evenodd" clip-rule="evenodd" d="M276.887 27.159C276.887 26.143 277.568 25.3193 278.409 25.3193H297.44C298.281 25.3193 298.962 26.143 298.962 27.159C298.962 28.175 298.281 28.9986 297.44 28.9986H278.409C277.568 28.9986 276.887 28.175 276.887 27.159Z" fill="#FFE853" stroke="#474747" stroke-linecap="round"/>
<path fill-rule="evenodd" clip-rule="evenodd" d="M276.887 32.6787C276.887 31.8659 277.568 31.207 278.409 31.207H297.44C298.281 31.207 298.962 31.8659 298.962 32.6787C298.962 33.4915 298.281 34.1504 297.44 34.1504H278.409C277.568 34.1504 276.887 33.4915 276.887 32.6787Z" fill="#FFE853" stroke="#474747" stroke-linecap="round"/>
<path fill-rule="evenodd" clip-rule="evenodd" d="M276.887 37.8301C276.887 37.0173 277.588 36.3584 278.453 36.3584H291.509C292.374 36.3584 293.075 37.0173 293.075 37.8301C293.075 38.6429 292.374 39.3018 291.509 39.3018H278.453C277.588 39.3018 276.887 38.6429 276.887 37.8301Z" fill="#FFE853" stroke="#474747" stroke-linecap="round"/>
</svg>
