<svg width="264" height="121" viewBox="0 0 264 121" fill="none" xmlns="http://www.w3.org/2000/svg">
<circle cx="129.041" cy="49.0878" r="36.2724" fill="#00A176" stroke="#282828" stroke-width="0.5"/>
<path d="M138.81 9.27449C135.872 10.8161 130.852 11.8438 128.71 12.165L107.591 24.6908C110.345 25.333 118.058 26.0395 126.873 23.7271C137.892 20.8366 142.483 7.34747 138.81 9.27449Z" fill="#003F31" stroke="#282828" stroke-width="0.5" stroke-linecap="round"/>
<path d="M130.016 11.2805C130.557 12.7743 130.464 13.9275 129.937 14.8743C129.401 15.8345 128.396 16.6221 127.031 17.3291C125.667 18.0347 123.976 18.6445 122.101 19.266C121.546 19.4502 120.975 19.6354 120.392 19.8242C119.014 20.2707 117.573 20.7377 116.131 21.2601C114.648 21.7974 113.26 22.3585 111.975 22.878C111.482 23.0774 111.004 23.2707 110.541 23.4541C108.866 24.1185 107.398 24.6532 106.121 24.9051C104.845 25.157 103.795 25.119 102.936 24.6762C102.082 24.2354 101.369 23.3682 100.822 21.8571C99.734 18.8553 100.354 15.5365 102.272 12.5878C104.19 9.63898 107.398 7.07473 111.448 5.60766C115.497 4.14058 119.603 4.05493 122.965 5.09118C126.326 6.12738 128.928 8.27866 130.016 11.2805Z" fill="#00CBCE" stroke="#282828" stroke-width="0.5"/>
<path d="M111.222 5.77685C111.295 5.95375 111.257 6.20058 111.052 6.47858C110.85 6.75238 110.509 7.01938 110.07 7.19927C109.631 7.37916 109.2 7.42875 108.864 7.37537C108.523 7.32117 108.323 7.17176 108.25 6.99486C108.178 6.81796 108.215 6.57113 108.42 6.29313C108.622 6.01934 108.964 5.75233 109.403 5.57244C109.842 5.39255 110.273 5.34296 110.609 5.39634C110.95 5.45055 111.15 5.59995 111.222 5.77685Z" fill="#003F31" stroke="#282828" stroke-width="0.5"/>
<path d="M118.872 65.135C112.864 65.135 107.979 59.8452 107.979 53.3356C107.979 53.1953 107.984 53.0603 107.995 52.92L118.645 52.5098C118.979 55.322 121.236 57.4864 123.891 57.4864C126.083 57.4864 127.983 56.0237 128.782 53.9563C128.895 54.793 129.089 55.6188 129.365 56.4339C128.075 61.5563 123.773 65.1296 118.866 65.1296L118.872 65.135Z" fill="white"/>
<path d="M118.413 52.7913C118.861 55.6143 121.182 57.7571 123.892 57.7571C125.905 57.7571 127.681 56.5912 128.658 54.8532C128.766 55.3876 128.906 55.9219 129.084 56.4509C127.805 61.4114 123.622 64.8659 118.872 64.8659C113.015 64.8659 108.249 59.6949 108.249 53.3364C108.249 53.2825 108.249 53.2339 108.249 53.1853L118.408 52.7967M128.949 51.8467H128.912C128.879 54.8208 126.645 57.2228 123.892 57.2228C121.139 57.2228 119.099 55.0259 118.888 52.2353L107.742 52.6617C107.731 52.8884 107.709 53.1097 107.709 53.3364C107.709 60.0026 112.708 65.4057 118.872 65.4057C124.043 65.4057 128.383 61.5949 129.651 56.4293C129.198 55.1177 128.939 53.7035 128.939 52.2191C128.939 52.095 128.955 51.9708 128.955 51.8467H128.949Z" fill="#282828"/>
<path d="M140.097 64.0164C135.585 64.0164 131.488 60.9343 129.906 56.3409C129.442 54.9969 129.21 53.6097 129.21 52.2171C129.21 52.1793 129.21 52.1415 129.21 52.1091L139.466 51.7151C139.466 51.7151 139.466 51.7637 139.466 51.7906C139.466 54.9375 141.841 57.4906 144.761 57.4906C147.681 57.4906 150.056 54.9321 150.056 51.7906C150.056 51.6395 150.05 51.483 150.034 51.3102L150.957 51.2725C150.979 51.5855 150.99 51.904 150.99 52.2171C150.99 58.7213 146.105 64.0164 140.097 64.0164Z" fill="white"/>
<path d="M150.696 51.5535C150.706 51.7749 150.712 51.9962 150.712 52.2175C150.712 58.5759 145.946 63.7469 140.089 63.7469C135.69 63.7469 131.696 60.735 130.152 56.2549C129.715 54.9919 129.488 53.6856 129.472 52.3686L129.947 52.3524L139.188 51.9962C139.29 55.197 141.746 57.7609 144.747 57.7609C147.748 57.7609 150.312 55.0836 150.312 51.7856C150.312 51.7155 150.312 51.6399 150.312 51.5643L150.696 51.5481M151.198 50.9922L149.724 51.0462C149.756 51.2891 149.778 51.532 149.778 51.7856C149.778 54.7868 147.527 57.2211 144.753 57.2211C141.978 57.2211 139.727 54.7868 139.727 51.7856C139.727 51.6669 139.738 51.5481 139.744 51.4294L129.931 51.8072L128.948 51.845C128.948 51.9692 128.932 52.0879 128.932 52.2175C128.932 53.7018 129.191 55.116 129.645 56.4277C131.226 61.0157 135.301 64.2867 140.095 64.2867C146.259 64.2867 151.257 58.8836 151.257 52.2175C151.257 51.8018 151.235 51.397 151.198 50.9922Z" fill="#282828"/>
<path d="M139.729 51.7864C139.729 54.7875 141.98 57.2218 144.755 57.2218C147.529 57.2218 149.78 54.7875 149.78 51.7864C149.78 51.5327 149.758 51.2898 149.726 51.0469L139.746 51.4301C139.74 51.5489 139.729 51.6676 139.729 51.7864Z" fill="#282828"/>
<path d="M123.892 57.2232C126.651 57.2232 128.885 54.8213 128.912 51.8525L118.889 52.2358C119.099 55.0264 121.258 57.2232 123.892 57.2232Z" fill="#282828"/>
<path d="M126.292 66.7178C127.994 68.8963 131.295 68.862 133.607 67.7585" stroke="#282828" stroke-width="0.5" stroke-linecap="round" stroke-linejoin="round"/>
<path d="M224.095 39.4859C216.879 32.7079 205.637 32.7079 198.421 39.4859L192.276 45.2574C190.663 46.773 188.8 47.9989 186.77 48.8812L181.544 51.1525C171.177 55.6581 167.124 68.2442 172.914 77.9526L174.681 80.9161C175.957 83.0565 176.806 85.4245 177.18 87.8885L177.958 93.0136C179.522 103.327 189.203 110.38 199.5 108.709L208.173 107.301C210.216 106.969 212.299 106.969 214.342 107.301L223.016 108.709C233.312 110.38 242.993 103.327 244.558 93.0136L245.336 87.8885C245.709 85.4245 246.558 83.0565 247.835 80.9161L249.602 77.9526C255.392 68.2442 251.339 55.6581 240.972 51.1526L235.746 48.8812C233.716 47.9989 231.853 46.773 230.239 45.2574L224.095 39.4859Z" fill="#FFDE3B" stroke="#282828" stroke-width="0.5"/>
<path d="M196.282 98.0989C200.072 97.4176 202.669 94.2171 202.082 90.9505C201.495 87.6838 197.946 85.588 194.156 86.2693C190.365 86.9506 187.768 90.1511 188.356 93.4177C188.943 96.6844 192.492 98.7802 196.282 98.0989Z" fill="#FF4F18" stroke="#282828" stroke-width="0.5" stroke-linecap="round" stroke-linejoin="round"/>
<path d="M234.073 90.1775C234.366 86.8714 231.494 83.9159 227.657 83.5762C223.821 83.2366 220.474 85.6413 220.181 88.9474C219.889 92.2535 222.761 95.2089 226.597 95.5486C230.433 95.8883 233.781 93.4835 234.073 90.1775Z" fill="#FF4F18" stroke="#282828" stroke-width="0.5" stroke-linecap="round" stroke-linejoin="round"/>
<path d="M193.891 74.865C193.306 76.4723 193.006 78.2914 193.077 80.2101C193.318 86.444 197.388 91.3447 202.172 91.162C206.957 90.9792 210.641 85.7753 210.4 79.5456C210.392 79.2798 210.371 79.0182 210.346 78.7565C210.317 78.4367 210.279 78.1211 210.23 77.8138C209.947 76.0113 209.337 74.3666 208.489 72.9795" fill="white"/>
<path d="M193.891 74.865C193.306 76.4723 193.006 78.2914 193.077 80.2101C193.318 86.444 197.388 91.3447 202.172 91.162C206.957 90.9792 210.641 85.7753 210.4 79.5456C210.392 79.2798 210.371 79.0182 210.346 78.7565C210.317 78.4367 210.279 78.1211 210.23 77.8138C209.947 76.0113 209.337 74.3666 208.489 72.9795" stroke="#282828" stroke-width="0.5" stroke-linecap="round" stroke-linejoin="round"/>
<path d="M198.214 75.7217C197.292 75.759 196.391 75.7051 195.514 75.5763C195.07 76.7641 194.837 78.2053 194.896 79.7502C195.049 83.7123 197.059 86.8521 199.385 86.7649C201.711 86.6777 203.472 83.3884 203.322 79.4263C203.322 79.4097 203.322 79.3931 203.322 79.3764C201.553 79.2975 200.245 78.8698 200.224 78.3091C200.203 77.7484 201.358 77.2708 202.986 77.0382C202.799 76.2907 202.546 75.6012 202.234 74.999C200.976 75.4143 199.626 75.6677 198.214 75.7217Z" fill="#282828"/>
<path d="M202.193 78.6236C202.214 79.1885 203.522 79.6121 205.291 79.691C205.258 78.8645 205.138 78.0796 204.955 77.3486C203.327 77.5812 202.172 78.0837 202.193 78.6195V78.6236Z" fill="white"/>
<path d="M193.892 74.8652C195.212 71.252 197.995 68.7186 201.305 68.594C204.187 68.4819 206.808 70.2179 208.49 72.9797" stroke="#282828" stroke-width="0.5" stroke-linecap="round" stroke-linejoin="round"/>
<path d="M197.488 75.8917C198.361 76.0204 199.266 76.0703 200.188 76.037C201.6 75.9831 202.95 75.7297 204.208 75.3144C205.816 74.7828 207.265 73.9812 208.494 72.9803C206.812 70.2226 204.187 68.4866 201.309 68.5946C197.999 68.7234 195.217 71.2526 193.896 74.8659C195.013 75.3559 196.222 75.7048 197.497 75.8917H197.488Z" fill="#BEFF74" stroke="#282828" stroke-width="0.5" stroke-linecap="round" stroke-linejoin="round"/>
<path d="M196.895 72.8633C196.895 72.8633 196.982 74.5827 198.228 75.8992L196.895 72.8633Z" fill="#BEFF74"/>
<path d="M196.895 72.8633C196.895 72.8633 196.982 74.5827 198.228 75.8992" stroke="#282828" stroke-width="0.5" stroke-linecap="round" stroke-linejoin="round"/>
<path d="M199.299 73.1123C199.299 73.1123 199.386 74.8317 200.632 76.1483L199.299 73.1123Z" fill="#BEFF74"/>
<path d="M199.299 73.1123C199.299 73.1123 199.386 74.8317 200.632 76.1483" stroke="#282828" stroke-width="0.5" stroke-linecap="round" stroke-linejoin="round"/>
<path d="M210.123 73.2094C209.475 74.7917 209.105 76.5983 209.105 78.5212C209.105 84.7593 212.985 89.8137 217.773 89.8137C222.562 89.8137 226.441 84.7593 226.441 78.5212C226.441 78.2554 226.432 77.9938 226.416 77.7322C226.399 77.4124 226.374 77.0967 226.337 76.7852C226.121 74.9745 225.577 73.3049 224.784 71.8887" fill="white"/>
<path d="M210.123 73.2094C209.475 74.7917 209.105 76.5983 209.105 78.5212C209.105 84.7593 212.985 89.8137 217.773 89.8137C222.562 89.8137 226.441 84.7593 226.441 78.5212C226.441 78.2554 226.432 77.9938 226.416 77.7322C226.399 77.4124 226.374 77.0967 226.337 76.7852C226.121 74.9745 225.577 73.3049 224.784 71.8887" stroke="#282828" stroke-width="0.5" stroke-linecap="round" stroke-linejoin="round"/>
<path d="M214.396 74.3124C213.474 74.3124 212.572 74.2252 211.704 74.0632C211.218 75.2344 210.928 76.6631 210.928 78.208C210.928 82.1743 212.813 85.3888 215.143 85.3888C217.473 85.3888 219.359 82.1743 219.359 78.208C219.359 78.1914 219.359 78.1748 219.359 78.1582C217.594 78.0087 216.302 77.5352 216.302 76.9704C216.302 76.4056 217.477 75.9778 219.114 75.8075C218.956 75.0517 218.727 74.3539 218.441 73.7393C217.17 74.1047 215.812 74.3082 214.396 74.3082V74.3124Z" fill="#282828"/>
<path d="M218.276 77.284C218.276 77.8488 219.568 78.3223 221.333 78.4718C221.333 77.6453 221.241 76.8562 221.088 76.1211C219.451 76.2914 218.276 76.7482 218.276 77.284Z" fill="white"/>
<path d="M210.122 73.21C211.58 69.6508 214.458 67.2295 217.772 67.2295C220.654 67.2295 223.209 69.0652 224.783 71.8852" stroke="#282828" stroke-width="0.5" stroke-linecap="round" stroke-linejoin="round"/>
<path d="M213.677 74.3768C214.545 74.5388 215.447 74.626 216.369 74.626C217.781 74.626 219.139 74.4225 220.414 74.057C222.038 73.5877 223.52 72.8443 224.787 71.8891C223.213 69.0691 220.659 67.2334 217.777 67.2334C214.462 67.2334 211.584 69.6547 210.126 73.2181C211.223 73.7497 212.419 74.1484 213.682 74.381L213.677 74.3768Z" fill="#BEFF74" stroke="#282828" stroke-width="0.5" stroke-linecap="round" stroke-linejoin="round"/>
<path d="M213.199 71.3252C213.199 71.3252 213.22 73.0446 214.416 74.411L213.199 71.3252Z" fill="#BEFF74"/>
<path d="M213.199 71.3252C213.199 71.3252 213.22 73.0446 214.416 74.411" stroke="#282828" stroke-width="0.5" stroke-linecap="round" stroke-linejoin="round"/>
<path d="M215.597 71.6689C215.597 71.6689 215.617 73.3883 216.814 74.7547L215.597 71.6689Z" fill="#BEFF74"/>
<path d="M215.597 71.6689C215.597 71.6689 215.617 73.3883 216.814 74.7547" stroke="#282828" stroke-width="0.5" stroke-linecap="round" stroke-linejoin="round"/>
<path d="M204.927 92.646C204.927 92.646 209.396 97.5135 213.806 90.0918" stroke="#282828" stroke-width="0.5" stroke-linecap="round" stroke-linejoin="round"/>
<path d="M85.7022 60.4284C79.3621 45.8791 67.9972 43.2239 55.9912 46.6342C47.4172 37.256 31.6422 35.8228 19.9135 40.7986C2.40564 48.2262 -2.89986 67.3257 2.40564 81.6506C7.71114 95.9754 22.9613 108.708 46.97 108.708C79.7743 108.708 93.2062 77.6484 85.7022 60.4284Z" fill="#FFF757" stroke="#282828" stroke-width="0.5" stroke-linecap="round" stroke-linejoin="round"/>
<path d="M61.855 91.5927C55.8481 91.5927 50.9786 86.7232 50.9786 80.7163C50.9786 74.7094 55.8481 69.8398 61.855 69.8398C67.8619 69.8398 72.7314 74.7094 72.7314 80.7163C72.7314 86.7232 67.8619 91.5927 61.855 91.5927Z" fill="white" stroke="#282828" stroke-width="0.5" stroke-linecap="round" stroke-linejoin="round"/>
<path d="M63.828 89.1986C60.1048 89.1986 57.0866 86.1804 57.0866 82.4572C57.0866 78.734 60.1048 75.7158 63.828 75.7158C67.5511 75.7158 70.5693 78.734 70.5693 82.4572C70.5693 86.1804 67.5511 89.1986 63.828 89.1986Z" fill="#282828"/>
<path d="M63.1842 81.9193C62.1657 80.4126 62.4145 78.4648 63.74 77.5687C65.0655 76.6726 66.9658 77.1676 67.9843 78.6743C69.0029 80.1809 68.7541 82.1288 67.4286 83.0249C66.103 83.921 64.2028 83.426 63.1842 81.9193Z" fill="white"/>
<path d="M62.9057 86.6374C63.3117 87.5898 64.4144 88.0459 65.3717 87.6649C66.3291 87.284 66.7802 86.1964 66.3742 85.2491C65.9682 84.3018 64.8655 83.8407 63.9082 84.2216C62.9508 84.6025 62.4998 85.6901 62.9057 86.6374Z" fill="white"/>
<path d="M67.1623 85.0037C66.8168 84.8474 66.6615 84.4447 66.8156 84.1042C66.9696 83.7637 67.3745 83.6144 67.7201 83.7707C68.0656 83.927 68.2208 84.3297 68.0668 84.6702C67.9128 85.0107 67.5078 85.16 67.1623 85.0037Z" fill="white"/>
<path d="M58.903 82.9496C58.6537 81.3523 59.2653 79.9305 60.2691 79.7738C61.2729 79.6172 62.2886 80.785 62.5379 82.3823C62.7872 83.9796 62.1755 85.4014 61.1718 85.558C60.168 85.7147 59.1522 84.5468 58.903 82.9496Z" fill="white"/>
<path d="M42.3169 95.2118C35.6623 95.2118 30.2677 89.8172 30.2677 83.1626C30.2677 76.5079 35.6623 71.1133 42.3169 71.1133C48.9716 71.1133 54.3662 76.5079 54.3662 83.1626C54.3662 89.8172 48.9716 95.2118 42.3169 95.2118Z" fill="white" stroke="#282828" stroke-width="0.5" stroke-linecap="round" stroke-linejoin="round"/>
<path d="M46.6287 91.8198C42.5069 91.8198 39.1655 88.4785 39.1655 84.3567C39.1655 80.2349 42.5069 76.8936 46.6287 76.8936C50.7504 76.8936 54.0918 80.2349 54.0918 84.3567C54.0918 88.4785 50.7504 91.8198 46.6287 91.8198Z" fill="#282828"/>
<path d="M45.9148 83.7558C44.7862 82.0863 45.0611 79.9285 46.5288 78.9363C47.9965 77.9441 50.1012 78.4931 51.2299 80.1626C52.3585 81.8321 52.0836 83.9899 50.6159 84.9821C49.1482 85.9743 47.0435 85.4253 45.9148 83.7558Z" fill="white"/>
<path d="M45.6049 88.9869C46.0509 90.0395 47.2739 90.5507 48.3365 90.1247C49.3991 89.6986 49.8953 88.5007 49.4442 87.4482C48.9931 86.3956 47.7751 85.8844 46.7125 86.3104C45.65 86.7365 45.1538 87.9344 45.6049 88.9869Z" fill="white"/>
<path d="M49.9307 86.7715C50.0961 87.1575 50.5421 87.3429 50.9281 87.1876C51.314 87.0322 51.4945 86.5961 51.3341 86.2102C51.1737 85.8242 50.7226 85.6388 50.3366 85.7942C49.9507 85.9496 49.7703 86.3856 49.9307 86.7715Z" fill="white"/>
<path d="M41.1726 84.9039C40.8964 83.1343 41.5728 81.5593 42.6832 81.386C43.7936 81.2128 44.9177 82.5068 45.1938 84.2764C45.47 86.0459 44.7937 87.621 43.6832 87.7942C42.5728 87.9675 41.4488 86.6735 41.1726 84.9039Z" fill="white"/>
<path d="M67.3696 90.2921C67.6128 93.0745 64.9735 97.3631 57.7701 97.9898C50.5666 98.6165 44.8337 96.3573 43.7857 92.7301C42.7377 89.1029 44.6598 87.5823 48.3611 87.2573C52.058 86.9379 53.7079 88.194 55.8109 88.0098C57.9138 87.8255 59.3985 86.492 62.0159 86.263C64.6334 86.0339 67.1501 87.7997 67.3696 90.2921Z" fill="#FFAD94" stroke="#282828" stroke-width="0.5" stroke-linecap="round" stroke-linejoin="round"/>
<path d="M56.8668 96.5651C52.6603 96.9287 49.0556 94.4418 48.888 92.5691C48.7204 90.6963 49.1929 89.5968 51.5503 89.3879C53.9077 89.1791 54.1974 89.544 56.2357 89.3672C58.2739 89.1905 58.4339 88.7883 60.6619 88.5945C62.8899 88.4008 63.5077 90.327 63.6117 91.4806C63.7158 92.6341 63.1706 96.0128 56.8612 96.5607L56.8668 96.5651Z" fill="#282828" stroke="#282828" stroke-width="0.5" stroke-linecap="round" stroke-linejoin="round"/>
</svg>
