<svg xmlns="http://www.w3.org/2000/svg" width="24" height="24" viewBox="0 0 24 24" fill="none">
  <path d="M24 18.0002C24 19.4728 22.806 20.6668 21.3333 20.6668H2.66667C1.194 20.6668 0 19.4728 0 18.0002V6.00016C0 4.5275 1.194 3.3335 2.66667 3.3335H21.3333C22.806 3.3335 24 4.5275 24 6.00016V18.0002Z" fill="#EEEEEE"/>
  <path d="M14.2938 8.72334C12.4845 7.45667 9.99052 7.89667 8.72318 9.70601C8.08985 10.61 8.30918 11.8573 9.21451 12.492C10.1192 13.1247 11.3665 12.904 11.9998 12C12.6332 11.096 13.8812 10.8753 14.7852 11.5093C15.6905 12.1427 15.9105 13.39 15.2765 14.2947C16.5438 12.4853 16.1038 9.99134 14.2938 8.72334Z" fill="#C60C30"/>
  <path d="M14.7854 11.5096C13.8814 10.8756 12.6334 11.0962 12 12.0002C11.3667 12.9042 10.1194 13.1249 9.2147 12.4916C8.30937 11.8576 8.09003 10.6102 8.72337 9.70557C7.45603 11.5162 7.89603 14.0096 9.70537 15.2762C11.5154 16.5436 14.0087 16.1042 15.276 14.2936C15.91 13.3902 15.69 12.1429 14.7854 11.5096Z" fill="#003478"/>
  <path d="M16.2225 17.048L17.5078 15.516L18.0185 15.9446L16.7331 17.4766L16.2225 17.048ZM17.9358 15.006L19.2211 13.4746L19.7318 13.9033L18.4465 15.4346L17.9358 15.006ZM17.2438 17.9066L18.5291 16.3753L19.0398 16.804L17.7545 18.3353L17.2438 17.9066ZM18.9585 15.8626L20.2451 14.3313L20.7558 14.7606L19.4691 16.2913L18.9585 15.8626ZM18.2645 18.764L19.5511 17.2326L20.0611 17.6613L18.7751 19.1926L18.2645 18.764ZM19.9785 16.7206L21.2631 15.1873L21.7745 15.616L20.4898 17.1493L19.9785 16.7206ZM19.9811 7.27931L20.4918 6.85064L21.7785 8.38331L21.2671 8.81197L19.9811 7.27931ZM18.2665 5.23531L18.7771 4.80664L20.0625 6.33931L19.5511 6.76731L18.2665 5.23531ZM17.2445 6.09397L17.7551 5.66531L20.7551 9.23997L20.2445 9.66864L17.2445 6.09397ZM16.2231 6.94997L16.7345 6.52131L18.0191 8.05331L17.5085 8.48131L16.2231 6.94997ZM17.9365 8.99331L18.4471 8.56464L19.7338 10.096L19.2238 10.5246L17.9365 8.99331ZM4.26648 13.9026L4.77714 13.474L7.77648 17.0493L7.26514 17.478L4.26648 13.9026ZM3.24648 14.76L3.75648 14.332L5.04248 15.864L4.53114 16.2926L3.24648 14.76ZM4.95781 16.804L5.46848 16.3753L6.75515 17.9066L6.24448 18.3353L4.95781 16.804ZM2.22381 15.6166L2.73448 15.188L5.73448 18.7626L5.22314 19.1913L2.22381 15.6166ZM2.22314 8.38197L5.22181 4.80731L5.73314 5.23531L2.73314 8.81064L2.22314 8.38197ZM3.24448 9.23997L6.24448 5.66464L6.75515 6.09331L3.75514 9.66797L3.24448 9.23997ZM4.26648 10.0966L7.26648 6.52131L7.77714 6.94997L4.77714 10.5253L4.26648 10.0966Z" fill="#292F33"/>
</svg>