<svg xmlns="http://www.w3.org/2000/svg" width="93" height="28" viewBox="0 0 93 28" fill="none">
  <g clip-path="url(#clip0_548_6334)">
    <path d="M5.27129 3.52441C7.59094 3.52441 9.04808 3.81905 10.232 4.92798C11.2017 5.84405 11.6624 7.00655 11.6624 8.48513C11.6624 9.18691 11.5552 9.91549 11.1213 10.6173C10.7195 11.3191 10.1784 11.6673 9.77129 11.8601C10.0927 11.9405 11.2017 12.2405 12.0909 13.1566C13.0606 14.1798 13.2749 15.4226 13.2749 16.5262C13.2749 17.8226 12.9534 18.8458 12.0909 19.7619C10.6606 21.2726 8.42129 21.5137 7.04987 21.5137H2.54987V3.52441H5.27129ZM5.29808 11.2601H6.13379C6.80879 11.2601 7.72487 11.1798 8.37308 10.5583C8.99451 9.9637 9.07487 9.12799 9.07487 8.50656C9.07487 7.96549 8.99451 7.32263 8.42665 6.78156C7.80522 6.18691 7.02308 6.10655 6.24094 6.10655H5.29808V11.2548V11.2601ZM5.29808 18.9208H6.96951C7.75165 18.9208 8.99451 18.7869 9.69094 18.2191C10.232 17.7851 10.5802 17.0298 10.5802 16.2208C10.5802 15.4923 10.3124 14.7905 9.85165 14.3351C9.09629 13.6066 7.99272 13.5262 7.01772 13.5262H5.29272V18.9208H5.29808Z" fill="#00A176"/>
    <path d="M17.9517 10.1562V16.6545C17.9517 17.3295 17.9785 18.1116 18.4392 18.7062C18.7874 19.167 19.4088 19.4884 20.1642 19.4884C20.9195 19.4884 21.541 19.167 21.8892 18.7062C22.3499 18.1116 22.3767 17.3295 22.3767 16.6545V10.1562H25.0177V16.7348C25.0177 18.192 24.857 19.4027 23.8017 20.458C22.7785 21.4812 21.3749 21.8616 20.1052 21.8616C18.9481 21.8616 17.5445 21.5134 16.516 20.458C15.466 19.408 15.3052 18.192 15.3052 16.7348V10.1562H17.9463H17.9517Z" fill="#00A176"/>
    <path d="M35.9463 1.85254H38.5874V21.5133H35.9463V20.3293C34.7892 21.6793 33.3588 21.8668 32.5499 21.8668C29.0463 21.8668 27.0481 18.9525 27.0481 15.824C27.0481 12.1275 29.582 9.86682 32.5767 9.86682C33.4124 9.86682 34.8695 10.0811 35.9463 11.4847V1.8579V1.85254ZM29.7427 15.8722C29.7427 17.8383 30.9856 19.4883 32.8981 19.4883C34.5695 19.4883 36.107 18.2775 36.107 15.899C36.107 13.5204 34.5695 12.2293 32.8981 12.2293C30.9856 12.2293 29.7427 13.8472 29.7427 15.8722Z" fill="#00A176"/>
    <path d="M49.516 1.85254H52.157V21.5133H49.516V20.3293C48.3588 21.6793 46.9285 21.8668 46.1195 21.8668C42.616 21.8668 40.6177 18.9525 40.6177 15.824C40.6177 12.1275 43.1517 9.86682 46.1463 9.86682C46.982 9.86682 48.4392 10.0811 49.516 11.4847V1.8579V1.85254ZM43.3124 15.8722C43.3124 17.8383 44.5552 19.4883 46.4677 19.4883C48.1392 19.4883 49.6767 18.2775 49.6767 15.899C49.6767 13.5204 48.1392 12.2293 46.4677 12.2293C44.5552 12.2293 43.3124 13.8472 43.3124 15.8722Z" fill="#00A176"/>
    <path d="M58.848 19.7295L53.9944 10.1562H57.1765L60.4122 16.7884L63.7015 10.1562H66.6694L57.6372 27.6848H54.6694L58.848 19.7295Z" fill="#00A176"/>
    <path d="M72.6534 19.7295L67.7998 10.1562H70.9819L74.2177 16.7884L77.5069 10.1562H80.4748L71.4427 27.6848H68.4748L72.6534 19.7295Z" fill="#00A176"/>
    <path d="M90.0482 10.1569H92.6893V21.5087H90.0482V20.3248C88.8911 21.6748 87.4607 21.8623 86.6518 21.8623C83.1482 21.8623 81.15 18.948 81.15 15.8194C81.15 12.123 83.6839 9.8623 86.6786 9.8623C87.5143 9.8623 88.9715 10.0766 90.0482 11.4802V10.1569ZM83.85 15.873C83.85 17.8391 85.0929 19.4891 87.0054 19.4891C88.6768 19.4891 90.2143 18.2784 90.2143 15.8998C90.2143 13.5212 88.6768 12.2302 87.0054 12.2302C85.0929 12.2302 83.85 13.848 83.85 15.873Z" fill="#00A176"/>
  </g>
  <defs>
    <clipPath id="clip0_548_6334">
      <rect width="92.6786" height="27.3214" fill="white" transform="translate(0 0.338867)"/>
    </clipPath>
  </defs>
</svg>