<svg width="28" height="32" viewBox="0 0 28 32" fill="none" xmlns="http://www.w3.org/2000/svg">
<rect width="28" height="32" fill="#FCFCFC"/>
<g id="new_feed">
<path d="M-250 -427C-250 -428.105 -249.105 -429 -248 -429H7557C7558.1 -429 7559 -428.105 7559 -427V5473C7559 5474.1 7558.1 5475 7557 5475H-248C-249.105 5475 -250 5474.1 -250 5473V-427Z" fill="#999999"/>
<path d="M-248 -428H7557V-430H-248V-428ZM7558 -427V5473H7560V-427H7558ZM7557 5474H-248V5476H7557V5474ZM-249 5473V-427H-251V5473H-249ZM-248 5474C-248.552 5474 -249 5473.55 -249 5473H-251C-251 5474.66 -249.657 5476 -248 5476V5474ZM7558 5473C7558 5473.55 7557.55 5474 7557 5474V5476C7558.66 5476 7560 5474.66 7560 5473H7558ZM7557 -428C7557.55 -428 7558 -427.552 7558 -427H7560C7560 -428.657 7558.66 -430 7557 -430V-428ZM-248 -430C-249.657 -430 -251 -428.657 -251 -427H-249C-249 -427.552 -248.552 -428 -248 -428V-430Z" fill="black" fill-opacity="0.1"/>
</g>
<g id="feed" clip-path="url(#clip0_0_1)">
<rect width="375" height="812" transform="translate(-16 -56.0254)" fill="#F6F6F6"/>
<g id="Navigation/Top/Feed">
<g id="Group 1171277234">
<path id="Subtract" fill-rule="evenodd" clip-rule="evenodd" d="M0.129856 5.54922C-0.410952 3.53089 0.786809 1.45631 2.80513 0.9155C4.82346 0.374692 6.89804 1.57246 7.43885 3.59078L9.14612 9.96242C10.2605 9.16253 11.5355 8.5466 12.9389 8.17057C19.1773 6.49898 25.5897 10.2012 27.2613 16.4396C28.9329 22.6781 25.2307 29.0904 18.9922 30.762C12.7538 32.4336 6.34142 28.7314 4.66983 22.493C4.61997 22.3069 4.57488 22.1206 4.53451 21.9343C4.49794 21.8331 4.46535 21.7295 4.43699 21.6237L0.129856 5.54922ZM18.0429 27.2186C22.3242 26.0715 24.8649 21.6708 23.7177 17.3895C22.5705 13.1082 18.1699 10.5675 13.8886 11.7147C9.60733 12.8619 7.06662 17.2625 8.21379 21.5438C9.36096 25.8251 13.7616 28.3658 18.0429 27.2186Z" fill="#00A176"/>
<path id="Ellipse 62" d="M19.7252 20.2071C20.2168 22.042 19.1279 23.928 17.2931 24.4196C15.4583 24.9112 13.5723 23.8224 13.0806 21.9875C12.589 20.1527 14.301 20.5923 16.1358 20.1006C17.9707 19.609 19.2335 18.3723 19.7252 20.2071Z" fill="#00A176"/>
<circle id="Ellipse 63" cx="12.3312" cy="18.3044" r="1.37579" transform="rotate(-15 12.3312 18.3044)" fill="#00A176"/>
<circle id="Ellipse 64" cx="18.5324" cy="16.6425" r="1.37579" transform="rotate(-15 18.5324 16.6425)" fill="#00A176"/>
</g>
</g>
</g>
<defs>
<clipPath id="clip0_0_1">
<rect width="375" height="812" fill="white" transform="translate(-16 -56.0254)"/>
</clipPath>
</defs>
</svg>
