<svg width="344" height="70" viewBox="0 0 344 70" fill="none" xmlns="http://www.w3.org/2000/svg">
<rect width="344" height="70" rx="12" fill="#004B37"/>
<path d="M28.568 14.496V18.552H30.248V19.488H28.568V25.008H27.464V14.496H28.568ZM20.84 22.416V15.504H25.736V16.416H21.944V21.48C23.708 21.468 25.028 21.396 26.528 21.12L26.672 22.08C25.028 22.356 23.624 22.416 21.68 22.416H20.84ZM40.2591 15.984V16.896H38.7711V18.24H40.2591V19.152H38.7711V20.688H37.6671V14.496H38.7711V15.984H40.2591ZM30.6831 17.592C30.6711 16.128 31.8591 15.108 33.4671 15.12C35.0751 15.108 36.2631 16.128 36.2751 17.592C36.2631 19.068 35.0751 20.088 33.4671 20.088C31.8591 20.088 30.6711 19.068 30.6831 17.592ZM31.7631 17.592C31.7631 18.54 32.4831 19.152 33.4671 19.152C34.4511 19.152 35.1831 18.54 35.1951 17.592C35.1831 16.68 34.4511 16.044 33.4671 16.056C32.4831 16.044 31.7631 16.68 31.7631 17.592ZM31.8591 22.992C31.8591 21.72 33.2151 20.988 35.3871 20.976C37.5231 20.988 38.8671 21.72 38.8671 22.992C38.8671 24.24 37.5231 24.984 35.3871 24.984C33.2151 24.984 31.8591 24.24 31.8591 22.992ZM32.9631 22.992C32.9631 23.7 33.8631 24.084 35.3871 24.096C36.8871 24.084 37.7751 23.7 37.7871 22.992C37.7751 22.272 36.8871 21.876 35.3871 21.864C33.8631 21.876 32.9631 22.272 32.9631 22.992ZM48.9022 14.496V17.88H50.4142V18.816H48.9022V22.368H47.7982V14.496H48.9022ZM40.6702 16.632V15.72H43.2382V14.496H44.3422V15.72H46.9102V16.632H40.6702ZM41.2462 19.128C41.2342 17.916 42.2662 17.124 43.7902 17.136C45.3022 17.124 46.3342 17.916 46.3342 19.128C46.3342 20.304 45.3022 21.084 43.7902 21.072C42.2662 21.084 41.2342 20.304 41.2462 19.128ZM42.2542 24.768V21.744H43.3582V23.88H49.3582V24.768H42.2542ZM42.3022 19.128C42.3022 19.8 42.9022 20.22 43.7902 20.208C44.6782 20.22 45.2782 19.8 45.2782 19.128C45.2782 18.42 44.6782 17.988 43.7902 18C42.9022 17.988 42.3022 18.42 42.3022 19.128ZM58.987 15.504V22.392H54.043V15.504H58.987ZM55.147 21.504H57.907V16.392H55.147V21.504ZM61.051 25.008V14.496H62.179V25.008H61.051ZM67.3181 16.392C67.3061 17.904 68.2541 19.356 69.8141 19.944L69.1901 20.808C68.0501 20.352 67.2101 19.44 66.7661 18.3C66.3101 19.524 65.4221 20.496 64.1981 20.976L63.5981 20.112C65.2181 19.5 66.1901 18 66.2141 16.392V15.096H67.3181V16.392ZM65.4941 24.768V21.528H66.6221V23.88H72.5981V24.768H65.4941ZM69.2141 19.008V18.12H71.2541V16.896H69.2141V15.984H71.2541V14.496H72.3581V22.32H71.2541V19.008H69.2141ZM80.0908 16.656C80.1028 17.88 81.0508 19.008 82.6588 19.464L82.1308 20.328C80.9308 19.98 80.0308 19.236 79.5628 18.276C79.1068 19.332 78.1828 20.148 76.9228 20.52L76.3948 19.656C78.0028 19.188 78.9988 17.988 78.9868 16.656V16.56H76.7068V15.672H78.9868V14.448H80.1148V15.672H82.3708V16.56H80.0908V16.656ZM77.9548 24.864V21.168H84.6748V24.864H77.9548ZM79.0588 23.952H83.5708V22.032H79.0588V23.952ZM83.5708 20.688V14.496H84.6748V17.088H86.1868V18.024H84.6748V20.688H83.5708ZM89.4059 15.288C90.3659 15.288 91.1459 15.828 91.6019 16.776H94.2059V14.496H95.3099V25.008H94.2059V20.976H91.6859C91.2419 22.044 90.4259 22.656 89.4059 22.656C87.8339 22.656 86.7299 21.228 86.7419 18.96C86.7299 16.716 87.8339 15.288 89.4059 15.288ZM87.7979 18.96C87.7979 20.628 88.4459 21.66 89.4059 21.648C90.3539 21.66 91.0019 20.628 91.0139 18.96C91.0019 17.316 90.3539 16.284 89.4059 16.272C88.4459 16.284 87.7979 17.316 87.7979 18.96ZM91.9139 17.688C91.9979 18.072 92.0459 18.504 92.0459 18.96C92.0459 19.368 92.0099 19.74 91.9499 20.088H94.2059V17.688H91.9139ZM104.865 14.496V18.744H106.545V19.68H104.865V24.984H103.761V14.496H104.865ZM96.633 17.04V16.152H99.225V14.64H100.329V16.152H102.849V17.04H96.633ZM97.161 20.256C97.161 18.828 98.265 17.82 99.777 17.832C101.277 17.82 102.381 18.828 102.393 20.256C102.381 21.708 101.277 22.704 99.777 22.704C98.265 22.704 97.161 21.708 97.161 20.256ZM98.241 20.256C98.229 21.168 98.877 21.78 99.777 21.768C100.665 21.78 101.325 21.168 101.337 20.256C101.325 19.368 100.665 18.744 99.777 18.744C98.877 18.744 98.229 19.368 98.241 20.256ZM112.164 15.384V16.272H114.468V14.496H115.572V22.152H114.468V19.44H112.164V20.352H107.292V15.384H112.164ZM108.396 19.488H111.084V16.296H108.396V19.488ZM108.708 24.768V21.456H109.836V23.88H115.812V24.768H108.708ZM112.164 18.528H114.468V17.208H112.164V18.528Z" fill="white"/>
<path d="M37.829 37.077H23.171C21.911 37.077 21.407 36.195 21.407 35.334C21.407 34.494 21.89 33.57 23.171 33.57H37.829C39.11 33.57 39.593 34.494 39.593 35.334C39.593 36.195 39.089 37.077 37.829 37.077ZM32.642 48.732H38.564C39.824 48.732 40.328 49.593 40.328 50.454C40.328 51.357 39.803 52.176 38.564 52.176H22.436C21.197 52.176 20.672 51.357 20.672 50.454C20.672 49.593 21.176 48.732 22.436 48.732H28.358V45.204V45.141H22.919C21.659 45.141 21.155 44.322 21.155 43.461C21.155 42.621 21.638 41.802 22.919 41.802H24.347V39.975C24.347 38.484 25.229 37.854 26.51 37.854C27.77 37.854 28.631 38.505 28.631 39.975V41.802H32.369V39.975C32.369 38.484 33.251 37.854 34.532 37.854C35.792 37.854 36.653 38.505 36.653 39.975V41.802H38.081C39.362 41.802 39.845 42.621 39.845 43.461C39.845 44.322 39.341 45.141 38.081 45.141H32.642V45.204V48.732ZM60.32 47.766H56.12V34.956C56.12 33.591 57.107 32.877 58.22 32.877C59.333 32.877 60.32 33.591 60.32 34.956V47.766ZM41.798 39.765V37.98C41.798 34.851 44.318 33.213 47.762 33.213C51.206 33.213 53.747 34.83 53.747 37.98V39.765C53.747 42.915 51.206 44.532 47.783 44.532C44.339 44.532 41.798 42.915 41.798 39.765ZM45.893 38.001V39.744C45.893 40.773 46.733 41.403 47.762 41.403C48.791 41.403 49.673 40.773 49.673 39.744V38.001C49.673 36.951 48.791 36.321 47.762 36.342C46.733 36.363 45.893 36.972 45.893 38.001ZM59.144 52.596H45.872C43.52 52.596 42.89 51.777 42.89 49.53V47.325C42.89 45.96 43.877 45.309 45.053 45.309C46.229 45.309 47.153 45.981 47.153 47.325V48.879C47.153 49.278 47.258 49.362 47.657 49.362H59.144C60.404 49.362 60.887 50.118 60.887 50.958C60.887 51.819 60.383 52.596 59.144 52.596ZM66.116 33.507H78.842C80.018 33.507 80.459 34.368 80.459 35.145C80.459 35.943 79.997 36.762 78.842 36.762H67.67C67.25 36.762 67.04 36.93 67.04 37.308V38.127H78.716C79.892 38.127 80.333 38.946 80.333 39.702C80.333 40.479 79.871 41.277 78.716 41.277H67.04V42.075C67.04 42.495 67.25 42.642 67.67 42.642H79.178C80.354 42.642 80.795 43.482 80.795 44.259C80.795 45.057 80.333 45.876 79.178 45.876H66.116C63.68 45.876 62.777 44.868 62.777 42.6V36.783C62.777 34.515 63.68 33.507 66.116 33.507ZM63.638 48.627H79.682C80.984 48.627 81.488 49.551 81.488 50.412C81.488 51.294 80.963 52.176 79.682 52.176H63.638C62.357 52.176 61.832 51.294 61.832 50.412C61.832 49.551 62.336 48.627 63.638 48.627ZM100.85 40.227H101.606C102.887 40.227 103.265 41.214 103.265 42.054C103.265 42.915 102.866 43.881 101.606 43.881H100.85V52.596H96.65V34.956C96.65 33.591 97.637 32.877 98.75 32.877C99.863 32.877 100.85 33.591 100.85 34.956V40.227ZM84.827 33.633H91.043C93.353 33.633 94.235 34.704 94.235 36.615V41.55C94.235 48.711 89.888 51.504 84.806 51.714C83.672 51.777 82.643 51.147 82.706 49.908C82.748 49.026 83.273 48.354 84.323 48.228C87.641 47.85 90.098 46.443 90.098 41.529V37.77C90.098 37.476 89.909 37.245 89.573 37.245H84.827C83.567 37.245 82.958 36.342 82.958 35.46C82.958 34.599 83.546 33.633 84.827 33.633ZM126.896 40.227H127.652C128.933 40.227 129.311 41.214 129.311 42.054C129.311 42.915 128.912 43.881 127.652 43.881H126.896V52.596H122.696V34.956C122.696 33.591 123.683 32.877 124.796 32.877C125.909 32.877 126.896 33.591 126.896 34.956V40.227ZM117.173 48.459H120.197C121.457 48.459 121.961 49.341 121.961 50.202C121.961 51.084 121.436 51.903 120.197 51.903H110.222C108.983 51.903 108.458 51.084 108.458 50.202C108.458 49.341 108.962 48.459 110.222 48.459H113.099V45.246C110.663 44.7 108.983 43.062 108.983 40.206V38.484C108.983 34.893 111.629 33.234 115.073 33.234C118.496 33.234 121.121 34.893 121.121 38.484V40.206C121.121 43.02 119.504 44.637 117.173 45.225V48.459ZM113.078 38.316V40.374C113.078 41.697 114.065 42.201 115.073 42.201C116.06 42.201 117.047 41.697 117.047 40.374V38.316C117.047 37.014 116.06 36.489 115.073 36.489C114.065 36.489 113.078 37.014 113.078 38.316ZM146.426 45.918H133.973C131.243 45.918 129.794 44.469 129.794 42.201V41.802C129.794 39.534 131.243 38.148 133.973 38.148H143.129V37.455C143.129 37.182 143.045 36.867 142.562 36.867H131.642C130.634 36.867 130.025 36.048 130.025 35.187C130.025 34.347 130.634 33.507 131.642 33.507H143.78C146.678 33.507 147.497 34.83 147.497 36.825V41.34H135.044C134.561 41.34 134.33 41.571 134.33 41.991C134.33 42.432 134.561 42.621 135.044 42.621H146.426C147.602 42.621 148.043 43.503 148.043 44.28C148.043 45.078 147.581 45.918 146.426 45.918ZM130.844 48.627H146.888C148.19 48.627 148.694 49.551 148.694 50.412C148.694 51.294 148.169 52.176 146.888 52.176H130.844C129.563 52.176 129.038 51.294 129.038 50.412C129.038 49.551 129.542 48.627 130.844 48.627ZM167.006 45.918H154.553C151.823 45.918 150.374 44.469 150.374 42.201V41.802C150.374 39.534 151.823 38.148 154.553 38.148H163.709V37.455C163.709 37.182 163.625 36.867 163.142 36.867H152.222C151.214 36.867 150.605 36.048 150.605 35.187C150.605 34.347 151.214 33.507 152.222 33.507H164.36C167.258 33.507 168.077 34.83 168.077 36.825V41.34H155.624C155.141 41.34 154.91 41.571 154.91 41.991C154.91 42.432 155.141 42.621 155.624 42.621H167.006C168.182 42.621 168.623 43.503 168.623 44.28C168.623 45.078 168.161 45.918 167.006 45.918ZM151.424 48.627H167.468C168.77 48.627 169.274 49.551 169.274 50.412C169.274 51.294 168.749 52.176 167.468 52.176H151.424C150.143 52.176 149.618 51.294 149.618 50.412C149.618 49.551 150.122 48.627 151.424 48.627Z" fill="url(#paint0_linear_5003_66355)"/>
<defs>
<linearGradient id="paint0_linear_5003_66355" x1="95" y1="30" x2="95" y2="59" gradientUnits="userSpaceOnUse">
<stop offset="0.206731" stop-color="white"/>
<stop offset="1" stop-color="#77FFDF"/>
</linearGradient>
</defs>
</svg>
