<svg width="375" height="200" viewBox="0 0 375 200" fill="none" xmlns="http://www.w3.org/2000/svg">
<rect width="375" height="200" fill="#004B37"/>
<path d="M75.3417 107.89H64.7367C60.5367 107.89 59.2767 106.385 59.2767 102.36V80.205C59.2767 77.86 61.0267 76.635 62.9167 76.635C64.8067 76.635 66.5567 77.86 66.5567 80.205V100.75C66.5567 101.59 66.7667 101.765 67.5717 101.765H75.3417C77.4067 101.765 78.1767 103.34 78.1767 104.775C78.1767 106.21 77.3717 107.89 75.3417 107.89ZM79.038 98.755V94.03C79.038 86.505 84.428 84.335 89.188 84.335C93.843 84.335 99.338 86.505 99.338 94.03V98.755C99.338 106.28 93.843 108.45 89.188 108.45C84.533 108.45 79.038 106.28 79.038 98.755ZM92.303 99.07V93.715C92.303 91.23 90.693 90.25 89.188 90.25C87.683 90.25 86.073 91.23 86.073 93.715V99.07C86.073 101.555 87.683 102.535 89.188 102.535C90.693 102.535 92.303 101.555 92.303 99.07ZM103.77 101.275V91.405H102.615C100.41 91.405 99.5349 90.005 99.5349 88.535C99.5349 87.1 100.375 85.595 102.615 85.595H103.77V81.36C103.77 78.98 105.485 77.895 107.235 77.895C108.985 77.895 110.7 78.98 110.7 81.36V85.595H112.765C115.005 85.595 115.845 87.1 115.845 88.535C115.845 90.005 114.97 91.405 112.765 91.405H110.7V101.135C110.7 102.185 111.225 102.43 111.82 102.465C112.345 102.5 112.66 102.325 113.36 102.325C114.515 102.325 115.495 103.095 115.74 104.25C116.055 105.685 115.46 106.945 114.48 107.575C113.675 108.1 112.31 108.45 111.12 108.45C106.465 108.45 103.77 106.56 103.77 101.275ZM123.81 91.195C123.81 91.965 124.475 92.385 125.91 92.875L128.675 93.82C132.735 95.22 134.45 97.495 134.45 100.855C134.45 106.42 130.11 108.45 125 108.45C122.62 108.45 119.645 108.03 117.79 106.28C116.635 105.195 116.04 103.515 117.02 102.045C117.51 101.31 118.35 100.96 119.26 100.96C120.31 100.96 121.01 101.38 121.535 101.8C122.41 102.465 123.845 102.885 125.21 102.885C126.575 102.885 127.38 102.36 127.38 101.485C127.38 100.61 126.715 100.12 124.125 99.21L121.71 98.37C117.965 97.075 116.565 94.45 116.565 91.51C116.565 87.205 120.17 84.335 125.56 84.335C128.36 84.335 130.355 85.035 131.685 85.84C133.085 86.68 134.065 88.15 133.575 89.76C133.155 91.09 132.105 91.615 130.95 91.615C130.39 91.615 129.69 91.37 129.41 91.16C128.325 90.285 127.17 89.9 125.665 89.9C124.37 89.9 123.81 90.495 123.81 91.195ZM144.973 98.755V94.03C144.973 86.505 150.363 84.335 155.123 84.335C159.778 84.335 165.273 86.505 165.273 94.03V98.755C165.273 106.28 159.778 108.45 155.123 108.45C150.468 108.45 144.973 106.28 144.973 98.755ZM158.238 99.07V93.715C158.238 91.23 156.628 90.25 155.123 90.25C153.618 90.25 152.008 91.23 152.008 93.715V99.07C152.008 101.555 153.618 102.535 155.123 102.535C156.628 102.535 158.238 101.555 158.238 99.07ZM176.88 107.89H169.74V91.405H168.55C166.345 91.405 165.47 90.04 165.47 88.535C165.47 87.065 166.31 85.595 168.55 85.595H169.74V84.23C169.74 78.595 172.47 76.635 177.51 76.635C178.875 76.635 180.415 76.915 181.535 77.615C182.725 78.35 183.04 79.54 182.725 80.87C182.41 81.92 181.5 82.865 180.345 82.865C179.785 82.865 179.505 82.795 178.91 82.69C178.49 82.62 178.245 82.585 177.93 82.585C177.23 82.585 176.88 82.935 176.88 84.02V85.595H178.875C181.115 85.595 181.955 87.065 181.955 88.535C181.955 90.04 181.08 91.405 178.875 91.405H176.88V107.89ZM204.71 99H200.545V107.89H193.335V82.725C193.335 78.7 194.595 77.195 198.795 77.195H204.71C210.94 77.195 215.385 80.205 215.385 87.52V88.675C215.385 95.99 210.94 99 204.71 99ZM200.545 84.3V92.91H204.36C206.88 92.91 208.21 91.16 208.21 88.5V87.695C208.21 85.035 206.88 83.285 204.36 83.285H201.56C200.755 83.285 200.545 83.46 200.545 84.3ZM216.446 98.755V94.03C216.446 86.505 221.836 84.335 226.596 84.335C231.251 84.335 236.746 86.505 236.746 94.03V98.755C236.746 106.28 231.251 108.45 226.596 108.45C221.941 108.45 216.446 106.28 216.446 98.755ZM229.711 99.07V93.715C229.711 91.23 228.101 90.25 226.596 90.25C225.091 90.25 223.481 91.23 223.481 93.715V99.07C223.481 101.555 225.091 102.535 226.596 102.535C228.101 102.535 229.711 101.555 229.711 99.07ZM239.341 79.855C239.341 77.545 241.021 76.635 242.981 76.635C244.941 76.635 246.621 77.545 246.621 79.855C246.621 82.165 244.941 83.075 242.981 83.075C241.021 83.075 239.341 82.165 239.341 79.855ZM239.376 107.89V88.08C239.376 85.665 241.021 84.58 242.981 84.58C244.941 84.58 246.586 85.665 246.586 88.08V107.89H239.376ZM256.855 107.89H249.75V87.835C249.75 85.525 251.43 84.335 253.285 84.335C254.65 84.335 255.945 85 256.54 86.26C257.905 85 259.795 84.335 261.65 84.335C266.095 84.335 269.63 86.54 269.63 93.925V107.89H262.42V93.505C262.42 91.125 260.845 90.32 259.655 90.32C258.465 90.32 256.855 91.125 256.855 93.505V107.89ZM274.402 101.275V91.405H273.247C271.042 91.405 270.167 90.005 270.167 88.535C270.167 87.1 271.007 85.595 273.247 85.595H274.402V81.36C274.402 78.98 276.117 77.895 277.867 77.895C279.617 77.895 281.332 78.98 281.332 81.36V85.595H283.397C285.637 85.595 286.477 87.1 286.477 88.535C286.477 90.005 285.602 91.405 283.397 91.405H281.332V101.135C281.332 102.185 281.857 102.43 282.452 102.465C282.977 102.5 283.292 102.325 283.992 102.325C285.147 102.325 286.127 103.095 286.372 104.25C286.687 105.685 286.092 106.945 285.112 107.575C284.307 108.1 282.942 108.45 281.752 108.45C277.097 108.45 274.402 106.56 274.402 101.275ZM294.442 91.195C294.442 91.965 295.107 92.385 296.542 92.875L299.307 93.82C303.367 95.22 305.082 97.495 305.082 100.855C305.082 106.42 300.742 108.45 295.632 108.45C293.252 108.45 290.277 108.03 288.422 106.28C287.267 105.195 286.672 103.515 287.652 102.045C288.142 101.31 288.982 100.96 289.892 100.96C290.942 100.96 291.642 101.38 292.167 101.8C293.042 102.465 294.477 102.885 295.842 102.885C297.207 102.885 298.012 102.36 298.012 101.485C298.012 100.61 297.347 100.12 294.757 99.21L292.342 98.37C288.597 97.075 287.197 94.45 287.197 91.51C287.197 87.205 290.802 84.335 296.192 84.335C298.992 84.335 300.987 85.035 302.317 85.84C303.717 86.68 304.697 88.15 304.207 89.76C303.787 91.09 302.737 91.615 301.582 91.615C301.022 91.615 300.322 91.37 300.042 91.16C298.957 90.285 297.802 89.9 296.297 89.9C295.002 89.9 294.442 90.495 294.442 91.195ZM314.441 99.42H307.301V80.1C307.301 77.825 309.016 76.635 310.871 76.635C312.691 76.635 314.441 77.86 314.441 80.1V99.42ZM307.126 104.6C307.126 102.43 308.526 101.065 310.871 101.065C313.216 101.065 314.616 102.465 314.616 104.6C314.616 106.735 313.216 108.135 310.871 108.135C308.526 108.135 307.126 106.77 307.126 104.6Z" fill="url(#paint0_linear_4843_60389)"/>
<path d="M99.8338 50.8984C99.535 49.3545 98.2567 48.4912 96.7293 48.4912C94.6541 48.4912 93.1102 50.085 93.1102 52.9902C93.1102 55.9121 94.6707 57.4893 96.7293 57.4893C98.2401 57.4893 99.5184 56.6426 99.8338 55.1152L101.677 55.1318C101.295 57.5059 99.3524 59.166 96.7127 59.166C93.575 59.166 91.3006 56.8252 91.3006 52.9902C91.3006 49.1387 93.5916 46.8145 96.7127 46.8145C99.2528 46.8145 101.262 48.3086 101.677 50.8984H99.8338ZM106.981 59.1826C104.424 59.1826 102.764 57.3232 102.764 54.5342C102.764 51.7285 104.424 49.8691 106.981 49.8691C109.521 49.8691 111.181 51.7285 111.181 54.5342C111.181 57.3232 109.521 59.1826 106.981 59.1826ZM106.981 57.7051C108.608 57.7051 109.388 56.2607 109.388 54.5342C109.388 52.8076 108.608 51.3301 106.981 51.3301C105.321 51.3301 104.541 52.8076 104.541 54.5342C104.541 56.2607 105.321 57.7051 106.981 57.7051ZM112.584 59V49.9854H114.294V51.4629H114.394C114.776 50.4502 115.656 49.8691 116.851 49.8691C118.046 49.8691 118.893 50.4668 119.275 51.4629H119.375C119.806 50.4834 120.769 49.8691 122.081 49.8691C123.708 49.8691 124.87 50.8984 124.87 52.957V59H123.093V53.123C123.093 51.9111 122.33 51.3965 121.4 51.3965C120.254 51.3965 119.607 52.1768 119.607 53.2559V59H117.847V53.0234C117.847 52.0439 117.167 51.3965 116.204 51.3965C115.208 51.3965 114.361 52.2266 114.361 53.4385V59H112.584ZM126.671 62.3867V49.9854H128.398V51.4463H128.547C128.863 50.8818 129.477 49.8691 131.137 49.8691C133.312 49.8691 134.922 51.5791 134.922 54.5176C134.922 57.4229 133.345 59.1826 131.154 59.1826C129.51 59.1826 128.863 58.1865 128.547 57.5889H128.448V62.3867H126.671ZM128.414 54.4844C128.414 56.377 129.244 57.6719 130.755 57.6719C132.316 57.6719 133.129 56.2939 133.129 54.4844C133.129 52.708 132.332 51.3799 130.755 51.3799C129.228 51.3799 128.414 52.6084 128.414 54.4844ZM138.118 46.9805V59H136.342V46.9805H138.118ZM143.821 59.1826C141.165 59.1826 139.538 57.3564 139.538 54.5508C139.538 51.7783 141.198 49.8691 143.705 49.8691C145.764 49.8691 147.706 51.1475 147.706 54.4014V55.0322H141.298C141.348 56.7422 142.352 57.7217 143.838 57.7217C144.851 57.7217 145.498 57.29 145.797 56.7422H147.59C147.191 58.2031 145.797 59.1826 143.821 59.1826ZM141.314 53.7041H145.963C145.963 52.3262 145.083 51.3301 143.722 51.3301C142.302 51.3301 141.381 52.4258 141.314 53.7041ZM153.343 49.9854V51.3965H151.5V56.3438C151.5 57.3564 152.015 57.5391 152.579 57.5557C152.828 57.5557 153.226 57.5225 153.475 57.5059V59.0498C153.226 59.083 152.845 59.1162 152.363 59.1162C150.969 59.1162 149.724 58.3525 149.74 56.709V51.3965H148.412V49.9854H149.74V47.8271H151.5V49.9854H153.343ZM158.514 59.1826C155.858 59.1826 154.231 57.3564 154.231 54.5508C154.231 51.7783 155.891 49.8691 158.398 49.8691C160.457 49.8691 162.399 51.1475 162.399 54.4014V55.0322H155.991C156.041 56.7422 157.045 57.7217 158.531 57.7217C159.544 57.7217 160.191 57.29 160.49 56.7422H162.283C161.884 58.2031 160.49 59.1826 158.514 59.1826ZM156.008 53.7041H160.656C160.656 52.3262 159.776 51.3301 158.415 51.3301C156.995 51.3301 156.074 52.4258 156.008 53.7041ZM167.779 46.9805H170.003L173.805 56.2939H173.954L177.756 46.9805H179.981V59H178.238V50.3174H178.121L174.602 58.9834H173.158L169.621 50.3008H169.522V59H167.779V46.9805ZM181.948 59V49.9854H183.725V59H181.948ZM182.845 48.5908C182.231 48.5908 181.716 48.126 181.716 47.5449C181.716 46.9639 182.231 46.499 182.845 46.499C183.443 46.499 183.957 46.9639 183.957 47.5449C183.957 48.126 183.443 48.5908 182.845 48.5908ZM190.607 52.4424C190.441 51.7285 189.876 51.2637 188.897 51.2637C187.884 51.2637 187.153 51.7949 187.17 52.4756C187.153 53.0068 187.585 53.3887 188.581 53.6211L190.009 53.9531C191.669 54.3184 192.466 55.1152 192.483 56.3936C192.466 58.0205 191.105 59.1826 188.797 59.1826C186.639 59.1826 185.344 58.2197 185.128 56.543H186.938C187.087 57.3564 187.718 57.7549 188.78 57.7549C189.926 57.7549 190.656 57.29 190.673 56.5264C190.656 55.9453 190.225 55.5635 189.278 55.3477L187.867 55.0488C186.24 54.6836 185.394 53.8203 185.394 52.5752C185.394 50.9648 186.788 49.8691 188.88 49.8691C190.889 49.8691 192.134 50.8984 192.316 52.4424H190.607ZM198.933 52.4424C198.767 51.7285 198.202 51.2637 197.223 51.2637C196.21 51.2637 195.479 51.7949 195.496 52.4756C195.479 53.0068 195.911 53.3887 196.907 53.6211L198.335 53.9531C199.995 54.3184 200.792 55.1152 200.809 56.3936C200.792 58.0205 199.431 59.1826 197.123 59.1826C194.965 59.1826 193.67 58.2197 193.454 56.543H195.264C195.413 57.3564 196.044 57.7549 197.106 57.7549C198.252 57.7549 198.982 57.29 198.999 56.5264C198.982 55.9453 198.551 55.5635 197.604 55.3477L196.193 55.0488C194.566 54.6836 193.72 53.8203 193.72 52.5752C193.72 50.9648 195.114 49.8691 197.206 49.8691C199.215 49.8691 200.46 50.8984 200.643 52.4424H198.933ZM202.195 59V49.9854H203.971V59H202.195ZM203.092 48.5908C202.477 48.5908 201.963 48.126 201.963 47.5449C201.963 46.9639 202.477 46.499 203.092 46.499C203.689 46.499 204.204 46.9639 204.204 47.5449C204.204 48.126 203.689 48.5908 203.092 48.5908ZM209.608 59.1826C207.051 59.1826 205.391 57.3232 205.391 54.5342C205.391 51.7285 207.051 49.8691 209.608 49.8691C212.148 49.8691 213.808 51.7285 213.808 54.5342C213.808 57.3232 212.148 59.1826 209.608 59.1826ZM209.608 57.7051C211.235 57.7051 212.015 56.2607 212.015 54.5342C212.015 52.8076 211.235 51.3301 209.608 51.3301C207.948 51.3301 207.168 52.8076 207.168 54.5342C207.168 56.2607 207.948 57.7051 209.608 57.7051ZM216.988 53.6543V59H215.211V49.9854H216.921V51.4629H217.021C217.453 50.5 218.332 49.8691 219.677 49.8691C221.537 49.8691 222.748 51.0312 222.748 53.2725V59H220.989V53.4883C220.989 52.1768 220.275 51.3965 219.08 51.3965C217.868 51.3965 216.988 52.21 216.988 53.6543ZM229.63 52.4424C229.464 51.7285 228.9 51.2637 227.92 51.2637C226.908 51.2637 226.177 51.7949 226.194 52.4756C226.177 53.0068 226.609 53.3887 227.605 53.6211L229.033 53.9531C230.693 54.3184 231.49 55.1152 231.506 56.3936C231.49 58.0205 230.128 59.1826 227.821 59.1826C225.662 59.1826 224.367 58.2197 224.152 56.543H225.961C226.111 57.3564 226.741 57.7549 227.804 57.7549C228.949 57.7549 229.68 57.29 229.697 56.5264C229.68 55.9453 229.248 55.5635 228.302 55.3477L226.891 55.0488C225.264 54.6836 224.417 53.8203 224.417 52.5752C224.417 50.9648 225.812 49.8691 227.904 49.8691C229.912 49.8691 231.158 50.8984 231.34 52.4424H229.63ZM240.206 59.166C237.799 59.166 236.305 57.7383 236.305 55.8125C236.305 54.3682 237.251 53.48 238.629 52.542C237.865 51.6289 237.301 50.7822 237.301 49.7031C237.301 48.043 238.513 46.8477 240.339 46.8477C242.198 46.8477 243.327 48.0596 243.327 49.4707C243.327 50.6162 242.729 51.4463 241.733 52.1768L240.903 52.7744L243.311 55.6465C243.618 55.0571 243.809 54.3433 243.809 53.5381H245.402C245.402 55.1982 244.921 56.2773 244.406 56.9414L246.116 59H244.124L243.311 58.0371C242.497 58.8091 241.302 59.166 240.206 59.166ZM238.081 55.7627C238.081 56.792 238.928 57.6719 240.223 57.6719C240.953 57.6719 241.7 57.3896 242.314 56.875L239.625 53.7207L239.326 53.9531C238.38 54.6504 238.081 55.3809 238.081 55.7627ZM238.961 49.7197C238.961 50.3257 239.393 50.9399 239.94 51.6123L240.671 51.0977C241.318 50.666 241.717 50.2344 241.717 49.5205C241.717 48.9561 241.186 48.3252 240.372 48.3252C239.542 48.3252 238.961 49.0225 238.961 49.7197ZM250.898 59V46.9805H258.435V48.5576H252.724V52.1934H258.037V53.7539H252.724V57.4229H258.502V59H250.898ZM259.772 56.46C259.772 54.4014 261.515 53.8701 263.142 53.7539C263.74 53.7124 265.093 53.6377 265.516 53.6211L265.499 52.9072C265.499 51.8945 264.885 51.2969 263.673 51.2969C262.627 51.2969 261.997 51.7783 261.814 52.4424H260.054C260.22 50.9482 261.615 49.8691 263.74 49.8691C265.167 49.8691 267.276 50.4004 267.276 53.0068V59H265.549V57.7715H265.483C265.134 58.4521 264.304 59.1992 262.81 59.1992C261.1 59.1992 259.772 58.2197 259.772 56.46ZM261.499 56.4766C261.499 57.3398 262.212 57.7881 263.208 57.7881C264.653 57.7881 265.516 56.8252 265.516 55.7461V54.916L263.391 55.0654C262.229 55.1484 261.499 55.5801 261.499 56.4766ZM269.077 59V49.9854H270.787V51.4131H270.887C271.219 50.4502 272.116 49.8525 273.178 49.8525C273.394 49.8525 273.743 49.8691 273.925 49.8857V51.5791C273.776 51.5459 273.361 51.4795 272.995 51.4795C271.767 51.4795 270.854 52.3262 270.854 53.5049V59H269.077ZM276.69 53.6543V59H274.913V49.9854H276.623V51.4629H276.723C277.154 50.5 278.034 49.8691 279.379 49.8691C281.238 49.8691 282.45 51.0312 282.45 53.2725V59H280.691V53.4883C280.691 52.1768 279.977 51.3965 278.781 51.3965C277.569 51.3965 276.69 52.21 276.69 53.6543Z" fill="white"/>
<path d="M96.3641 153.805C96.1356 152.624 95.1581 151.964 93.9901 151.964C92.4032 151.964 91.2225 153.183 91.2225 155.404C91.2225 157.639 92.4159 158.845 93.9901 158.845C95.1454 158.845 96.1229 158.197 96.3641 157.029L97.7733 157.042C97.4813 158.857 95.9959 160.127 93.9774 160.127C91.578 160.127 89.8387 158.337 89.8387 155.404C89.8387 152.459 91.5907 150.682 93.9774 150.682C95.9198 150.682 97.4559 151.824 97.7733 153.805H96.3641ZM101.83 160.14C99.8746 160.14 98.6051 158.718 98.6051 156.585C98.6051 154.439 99.8746 153.018 101.83 153.018C103.772 153.018 105.042 154.439 105.042 156.585C105.042 158.718 103.772 160.14 101.83 160.14ZM101.83 159.01C103.074 159.01 103.671 157.905 103.671 156.585C103.671 155.265 103.074 154.135 101.83 154.135C100.56 154.135 99.9635 155.265 99.9635 156.585C99.9635 157.905 100.56 159.01 101.83 159.01ZM106.115 160V153.106H107.422V154.236H107.498C107.79 153.462 108.463 153.018 109.377 153.018C110.291 153.018 110.939 153.475 111.231 154.236H111.307C111.637 153.487 112.373 153.018 113.376 153.018C114.62 153.018 115.509 153.805 115.509 155.379V160H114.151V155.506C114.151 154.579 113.567 154.186 112.856 154.186C111.98 154.186 111.485 154.782 111.485 155.607V160H110.139V155.43C110.139 154.681 109.619 154.186 108.882 154.186C108.12 154.186 107.473 154.82 107.473 155.747V160H106.115ZM116.887 162.59V153.106H118.207V154.224H118.321C118.563 153.792 119.032 153.018 120.302 153.018C121.965 153.018 123.196 154.325 123.196 156.572C123.196 158.794 121.99 160.14 120.315 160.14C119.058 160.14 118.563 159.378 118.321 158.921H118.245V162.59H116.887ZM118.22 156.547C118.22 157.994 118.855 158.984 120.01 158.984C121.203 158.984 121.825 157.931 121.825 156.547C121.825 155.188 121.216 154.173 120.01 154.173C118.842 154.173 118.22 155.112 118.22 156.547ZM125.641 150.809V160H124.282V150.809H125.641ZM130.002 160.14C127.97 160.14 126.726 158.743 126.726 156.598C126.726 154.478 127.996 153.018 129.913 153.018C131.487 153.018 132.972 153.995 132.972 156.483V156.966H128.072C128.11 158.273 128.878 159.022 130.014 159.022C130.789 159.022 131.284 158.692 131.512 158.273H132.883C132.579 159.391 131.512 160.14 130.002 160.14ZM128.085 155.95H131.639C131.639 154.896 130.966 154.135 129.925 154.135C128.84 154.135 128.135 154.973 128.085 155.95ZM137.283 153.106V154.186H135.873V157.969C135.873 158.743 136.267 158.883 136.699 158.896C136.889 158.896 137.194 158.87 137.384 158.857V160.038C137.194 160.063 136.902 160.089 136.534 160.089C135.467 160.089 134.515 159.505 134.528 158.248V154.186H133.512V153.106H134.528V151.456H135.873V153.106H137.283ZM141.237 160.14C139.206 160.14 137.962 158.743 137.962 156.598C137.962 154.478 139.232 153.018 141.149 153.018C142.723 153.018 144.208 153.995 144.208 156.483V156.966H139.308C139.346 158.273 140.114 159.022 141.25 159.022C142.025 159.022 142.52 158.692 142.748 158.273H144.119C143.815 159.391 142.748 160.14 141.237 160.14ZM139.32 155.95H142.875C142.875 154.896 142.202 154.135 141.161 154.135C140.076 154.135 139.371 154.973 139.32 155.95ZM148.322 150.809H150.023L152.93 157.931H153.045L155.952 150.809H157.653V160H156.32V153.36H156.231L153.54 159.987H152.435L149.731 153.348H149.655V160H148.322V150.809ZM159.158 160V153.106H160.516V160H159.158ZM159.843 152.04C159.373 152.04 158.98 151.685 158.98 151.24C158.98 150.796 159.373 150.44 159.843 150.44C160.3 150.44 160.694 150.796 160.694 151.24C160.694 151.685 160.3 152.04 159.843 152.04ZM165.779 154.985C165.652 154.439 165.22 154.084 164.471 154.084C163.696 154.084 163.138 154.49 163.151 155.011C163.138 155.417 163.468 155.709 164.23 155.887L165.321 156.141C166.591 156.42 167.2 157.029 167.213 158.007C167.2 159.251 166.159 160.14 164.395 160.14C162.744 160.14 161.754 159.403 161.589 158.121H162.973C163.087 158.743 163.57 159.048 164.382 159.048C165.258 159.048 165.817 158.692 165.829 158.108C165.817 157.664 165.487 157.372 164.763 157.207L163.684 156.979C162.44 156.699 161.792 156.039 161.792 155.087C161.792 153.855 162.859 153.018 164.458 153.018C165.994 153.018 166.946 153.805 167.086 154.985H165.779ZM172.145 154.985C172.019 154.439 171.587 154.084 170.838 154.084C170.063 154.084 169.505 154.49 169.518 155.011C169.505 155.417 169.835 155.709 170.597 155.887L171.688 156.141C172.958 156.42 173.567 157.029 173.58 158.007C173.567 159.251 172.526 160.14 170.762 160.14C169.111 160.14 168.121 159.403 167.956 158.121H169.34C169.454 158.743 169.936 159.048 170.749 159.048C171.625 159.048 172.184 158.692 172.196 158.108C172.184 157.664 171.853 157.372 171.13 157.207L170.051 156.979C168.807 156.699 168.159 156.039 168.159 155.087C168.159 153.855 169.226 153.018 170.825 153.018C172.361 153.018 173.313 153.805 173.453 154.985H172.145ZM174.64 160V153.106H175.999V160H174.64ZM175.326 152.04C174.856 152.04 174.463 151.685 174.463 151.24C174.463 150.796 174.856 150.44 175.326 150.44C175.783 150.44 176.176 150.796 176.176 151.24C176.176 151.685 175.783 152.04 175.326 152.04ZM180.309 160.14C178.354 160.14 177.084 158.718 177.084 156.585C177.084 154.439 178.354 153.018 180.309 153.018C182.251 153.018 183.521 154.439 183.521 156.585C183.521 158.718 182.251 160.14 180.309 160.14ZM180.309 159.01C181.553 159.01 182.15 157.905 182.15 156.585C182.15 155.265 181.553 154.135 180.309 154.135C179.04 154.135 178.443 155.265 178.443 156.585C178.443 157.905 179.04 159.01 180.309 159.01ZM185.952 155.912V160H184.594V153.106H185.902V154.236H185.978C186.308 153.5 186.981 153.018 188.009 153.018C189.431 153.018 190.358 153.906 190.358 155.62V160H189.012V155.785C189.012 154.782 188.466 154.186 187.552 154.186C186.625 154.186 185.952 154.808 185.952 155.912ZM195.62 154.985C195.493 154.439 195.062 154.084 194.312 154.084C193.538 154.084 192.979 154.49 192.992 155.011C192.979 155.417 193.31 155.709 194.071 155.887L195.163 156.141C196.433 156.42 197.042 157.029 197.055 158.007C197.042 159.251 196.001 160.14 194.236 160.14C192.586 160.14 191.596 159.403 191.431 158.121H192.814C192.929 158.743 193.411 159.048 194.224 159.048C195.1 159.048 195.658 158.692 195.671 158.108C195.658 157.664 195.328 157.372 194.604 157.207L193.525 156.979C192.281 156.699 191.634 156.039 191.634 155.087C191.634 153.855 192.7 153.018 194.3 153.018C195.836 153.018 196.788 153.805 196.928 154.985H195.62ZM200.711 158.058C200.711 156.483 202.044 156.077 203.289 155.988C203.746 155.957 204.78 155.899 205.104 155.887L205.091 155.341C205.091 154.566 204.622 154.109 203.695 154.109C202.895 154.109 202.413 154.478 202.273 154.985H200.927C201.054 153.843 202.121 153.018 203.746 153.018C204.837 153.018 206.45 153.424 206.45 155.417V160H205.129V159.061H205.079C204.812 159.581 204.177 160.152 203.035 160.152C201.727 160.152 200.711 159.403 200.711 158.058ZM202.032 158.07C202.032 158.73 202.578 159.073 203.339 159.073C204.444 159.073 205.104 158.337 205.104 157.512V156.877L203.479 156.991C202.59 157.055 202.032 157.385 202.032 158.07ZM209.186 155.912V160H207.827V153.106H209.135V154.236H209.211C209.541 153.5 210.214 153.018 211.242 153.018C212.664 153.018 213.591 153.906 213.591 155.62V160H212.245V155.785C212.245 154.782 211.699 154.186 210.785 154.186C209.859 154.186 209.186 154.808 209.186 155.912ZM217.559 160.14C215.896 160.14 214.677 158.794 214.677 156.572C214.677 154.325 215.908 153.018 217.571 153.018C218.854 153.018 219.323 153.792 219.564 154.224H219.628V150.809H220.986V160H219.666V158.921H219.564C219.311 159.378 218.815 160.14 217.559 160.14ZM217.863 158.984C219.019 158.984 219.666 157.994 219.666 156.547C219.666 155.112 219.031 154.173 217.863 154.173C216.657 154.173 216.061 155.188 216.061 156.547C216.061 157.931 216.683 158.984 217.863 158.984ZM228.299 162.729C226.56 162.729 225.418 161.955 225.291 160.673H226.674C226.801 161.32 227.411 161.638 228.312 161.638C229.391 161.638 230.077 161.181 230.077 160.102V158.743H229.988C229.747 159.188 229.252 159.898 227.982 159.898C226.357 159.898 225.1 158.68 225.1 156.483C225.1 154.287 226.332 153.018 227.995 153.018C229.277 153.018 229.747 153.792 230.001 154.224H230.089V153.106H231.41V160.152C231.41 161.917 230.077 162.729 228.299 162.729ZM228.287 158.781C229.442 158.781 230.089 157.931 230.089 156.509C230.089 155.112 229.455 154.173 228.287 154.173C227.081 154.173 226.484 155.188 226.484 156.509C226.484 157.854 227.106 158.781 228.287 158.781ZM235.771 160.14C233.74 160.14 232.495 158.743 232.495 156.598C232.495 154.478 233.765 153.018 235.682 153.018C237.256 153.018 238.742 153.995 238.742 156.483V156.966H233.841C233.879 158.273 234.647 159.022 235.784 159.022C236.558 159.022 237.053 158.692 237.282 158.273H238.653C238.348 159.391 237.282 160.14 235.771 160.14ZM233.854 155.95H237.409C237.409 154.896 236.736 154.135 235.695 154.135C234.609 154.135 233.905 154.973 233.854 155.95ZM243.052 153.106V154.186H241.643V157.969C241.643 158.743 242.036 158.883 242.468 158.896C242.658 158.896 242.963 158.87 243.153 158.857V160.038C242.963 160.063 242.671 160.089 242.303 160.089C241.236 160.089 240.284 159.505 240.297 158.248V154.186H239.281V153.106H240.297V151.456H241.643V153.106H243.052ZM247.026 162.59V153.106H248.346V154.224H248.461C248.702 153.792 249.171 153.018 250.441 153.018C252.104 153.018 253.336 154.325 253.336 156.572C253.336 158.794 252.13 160.14 250.454 160.14C249.197 160.14 248.702 159.378 248.461 158.921H248.384V162.59H247.026ZM248.359 156.547C248.359 157.994 248.994 158.984 250.149 158.984C251.342 158.984 251.964 157.931 251.964 156.547C251.964 155.188 251.355 154.173 250.149 154.173C248.981 154.173 248.359 155.112 248.359 156.547ZM257.341 160.14C255.386 160.14 254.117 158.718 254.117 156.585C254.117 154.439 255.386 153.018 257.341 153.018C259.284 153.018 260.553 154.439 260.553 156.585C260.553 158.718 259.284 160.14 257.341 160.14ZM257.341 159.01C258.585 159.01 259.182 157.905 259.182 156.585C259.182 155.265 258.585 154.135 257.341 154.135C256.072 154.135 255.475 155.265 255.475 156.585C255.475 157.905 256.072 159.01 257.341 159.01ZM261.626 160V153.106H262.984V160H261.626ZM262.312 152.04C261.842 152.04 261.448 151.685 261.448 151.24C261.448 150.796 261.842 150.44 262.312 150.44C262.769 150.44 263.162 150.796 263.162 151.24C263.162 151.685 262.769 152.04 262.312 152.04ZM265.733 155.912V160H264.375V153.106H265.683V154.236H265.759C266.089 153.5 266.762 153.018 267.79 153.018C269.212 153.018 270.139 153.906 270.139 155.62V160H268.793V155.785C268.793 154.782 268.247 154.186 267.333 154.186C266.406 154.186 265.733 154.808 265.733 155.912ZM274.754 153.106V154.186H273.344V157.969C273.344 158.743 273.738 158.883 274.17 158.896C274.36 158.896 274.665 158.87 274.855 158.857V160.038C274.665 160.063 274.373 160.089 274.005 160.089C272.938 160.089 271.986 159.505 271.999 158.248V154.186H270.983V153.106H271.999V151.456H273.344V153.106H274.754ZM279.572 154.985C279.445 154.439 279.013 154.084 278.264 154.084C277.49 154.084 276.931 154.49 276.944 155.011C276.931 155.417 277.261 155.709 278.023 155.887L279.115 156.141C280.384 156.42 280.994 157.029 281.006 158.007C280.994 159.251 279.953 160.14 278.188 160.14C276.538 160.14 275.547 159.403 275.382 158.121H276.766C276.88 158.743 277.363 159.048 278.175 159.048C279.051 159.048 279.61 158.692 279.622 158.108C279.61 157.664 279.28 157.372 278.556 157.207L277.477 156.979C276.233 156.699 275.585 156.039 275.585 155.087C275.585 153.855 276.652 153.018 278.251 153.018C279.788 153.018 280.74 153.805 280.879 154.985H279.572ZM283.755 150.809L283.641 157.347H282.384L282.27 150.809H283.755ZM283.019 160.089C282.524 160.089 282.105 159.683 282.117 159.188C282.105 158.692 282.524 158.286 283.019 158.286C283.501 158.286 283.92 158.692 283.92 159.188C283.92 159.683 283.501 160.089 283.019 160.089Z" fill="#79C7A6"/>
<path d="M74.4761 34.2619C71.0837 30.5815 65.1913 29.7506 60.6871 31.2031L60.3443 31.3185C53.4454 33.7398 50.7057 40.7643 51.9847 46.5264L52.1226 47.0888C53.7408 53.0414 59.3556 58.483 68.5238 59.3036C74.9219 59.8763 79.7924 57.2355 82.7437 53.517C85.6397 49.8682 86.7545 45.0753 85.4938 41.2925L85.2991 40.7408C84.2834 38.0407 82.6845 36.1855 80.6293 35.1411C78.731 34.1766 76.6004 33.9843 74.4761 34.2619Z" fill="#FFF757" stroke="white" stroke-width="3" stroke-linecap="round" stroke-linejoin="round"/>
<path d="M84.0711 41.7667C82.2675 36.3548 78.2839 35.0401 73.8764 35.8763C71.1073 32.2441 65.5057 31.2256 61.1474 32.6311C54.6415 34.7293 52.1301 41.397 53.5705 46.6954C55.0109 51.9937 60.0626 57.0408 68.6578 57.8101C80.4019 58.8612 86.2058 48.172 84.0711 41.7667Z" fill="#FFF757" stroke="#282828" stroke-width="0.4" stroke-linecap="round" stroke-linejoin="round"/>
<path d="M74.5353 52.1594C72.3848 51.9669 70.7975 50.0675 70.99 47.917C71.1824 45.7665 73.0818 44.1792 75.2323 44.3717C77.3828 44.5642 78.9701 46.4635 78.7776 48.614C78.5851 50.7645 76.6858 52.3518 74.5353 52.1594Z" fill="white" stroke="#282828" stroke-width="0.4" stroke-linecap="round" stroke-linejoin="round"/>
<path d="M73.6019 50.7901C72.269 50.6708 71.2852 49.4936 71.4045 48.1606C71.5238 46.8277 72.701 45.8439 74.0339 45.9632C75.3669 46.0825 76.3507 47.2597 76.2314 48.5926C76.1121 49.9256 74.9348 50.9094 73.6019 50.7901Z" fill="#282828"/>
<path d="M73.605 48.1631C73.2886 47.5911 73.4401 46.9017 73.9433 46.6234C74.4466 46.345 75.111 46.5831 75.4274 47.1552C75.7438 47.7272 75.5923 48.4166 75.089 48.6949C74.5858 48.9732 73.9213 48.7351 73.605 48.1631Z" fill="white"/>
<path d="M73.354 49.8437C73.4688 50.1977 73.849 50.3963 74.2039 50.2906C74.5588 50.1849 74.7552 49.8099 74.6402 49.4578C74.5252 49.1057 74.1452 48.9052 73.7903 49.0109C73.4353 49.1166 73.239 49.4916 73.354 49.8437Z" fill="white"/>
<path d="M74.9301 49.3954C74.8114 49.3284 74.7687 49.1793 74.8347 49.0623C74.9008 48.9453 75.0506 48.9049 75.1692 48.9719C75.2879 49.0389 75.3306 49.1881 75.2646 49.305C75.1985 49.422 75.0487 49.4625 74.9301 49.3954Z" fill="white"/>
<path d="M72.039 48.3952C72.0009 47.8153 72.2654 47.3259 72.6298 47.302C72.9942 47.2781 73.3204 47.7287 73.3585 48.3085C73.3965 48.8884 73.132 49.3778 72.7676 49.4017C72.4032 49.4256 72.077 48.975 72.039 48.3952Z" fill="white"/>
<path d="M67.2015 52.7159C64.8191 52.5027 63.0607 50.3985 63.2739 48.0162C63.4871 45.6338 65.5913 43.8753 67.9737 44.0885C70.356 44.3018 72.1145 46.4059 71.9013 48.7883C71.6881 51.1707 69.5839 52.9292 67.2015 52.7159Z" fill="white" stroke="#282828" stroke-width="0.4" stroke-linecap="round" stroke-linejoin="round"/>
<path d="M67.3605 51.1778C65.8849 51.0457 64.7957 49.7424 64.9278 48.2668C65.0599 46.7912 66.3632 45.702 67.8388 45.8341C69.3144 45.9662 70.4036 47.2695 70.2715 48.7451C70.1394 50.2207 68.8361 51.3099 67.3605 51.1778Z" fill="#282828"/>
<path d="M67.3637 48.2677C67.0131 47.6338 67.1806 46.8701 67.7379 46.562C68.2951 46.2538 69.031 46.5178 69.3816 47.1516C69.7322 47.7855 69.5646 48.5492 69.0074 48.8573C68.4502 49.1655 67.7142 48.9015 67.3637 48.2677Z" fill="white"/>
<path d="M67.0849 50.1312C67.2109 50.5223 67.6323 50.7445 68.0264 50.626C68.4204 50.5076 68.6365 50.0946 68.5087 49.7033C68.3809 49.3121 67.9613 49.09 67.5672 49.2085C67.1731 49.327 66.9571 49.7399 67.0849 50.1312Z" fill="white"/>
<path d="M68.7047 49.477C68.7515 49.6205 68.9053 49.7012 69.0484 49.6579C69.1916 49.6147 69.2701 49.4643 69.2251 49.321C69.18 49.1777 69.0245 49.0969 68.8813 49.1401C68.7382 49.1834 68.6596 49.3337 68.7047 49.477Z" fill="white"/>
<path d="M65.6288 48.527C65.5867 47.8846 65.8793 47.3424 66.2824 47.3159C66.6854 47.2895 67.0464 47.7888 67.0886 48.4311C67.1307 49.0735 66.8381 49.6157 66.4351 49.6421C66.032 49.6686 65.671 49.1693 65.6288 48.527Z" fill="white"/>
<path d="M76.551 51.8704C76.549 52.8743 75.4666 54.3251 72.8677 54.3186C70.2688 54.3122 68.2887 53.3197 68.0298 51.9875C67.7708 50.6554 68.5076 50.1726 69.8431 50.1749C71.1769 50.179 71.7273 50.6815 72.4861 50.6829C73.2448 50.6843 73.8191 50.2545 74.7635 50.2564C75.7079 50.2583 76.5523 50.9711 76.551 51.8704Z" fill="#FFAD94" stroke="#282828" stroke-width="0.4" stroke-linecap="round" stroke-linejoin="round"/>
<path d="M72.5899 53.7793C71.0723 53.7747 69.8614 52.7689 69.8615 52.0931C69.8615 51.4173 70.0659 51.0388 70.9165 51.0395C71.7672 51.0403 71.8592 51.1802 72.5946 51.1822C73.3299 51.1843 73.4001 51.0454 74.2039 51.0475C75.0078 51.0495 75.1672 51.7589 75.1675 52.1752C75.1678 52.5915 74.8644 53.7836 72.588 53.7776L72.5899 53.7793Z" fill="#282828" stroke="#282828" stroke-width="0.4" stroke-linecap="round" stroke-linejoin="round"/>
<path d="M343.936 119.796C341.392 115.698 336.148 114.128 331.748 116.223L329.177 117.447L328.92 117.563C328.317 117.819 327.677 117.983 327.024 118.049L325.364 118.215L324.833 118.283C319.584 119.103 316.014 124.091 316.929 129.325L317.036 129.849L317.207 130.591C317.398 131.415 317.427 132.268 317.293 133.102L317.054 134.594C316.24 139.664 319.586 144.434 324.562 145.442L325.048 145.528L327.978 145.967C328.585 146.058 329.176 146.234 329.734 146.49L329.97 146.605L332.61 147.948C337.187 150.277 342.753 148.554 345.238 144.126L345.468 143.689L346.139 142.336C346.467 141.673 346.906 141.072 347.435 140.558L347.667 140.342L348.239 139.838C352.545 136.036 352.533 129.317 348.214 125.53L346.96 124.43L346.752 124.24C346.278 123.786 345.874 123.264 345.555 122.69L344.173 120.201L343.936 119.796Z" fill="#FFDE3B" stroke="white" stroke-width="3"/>
<path d="M342.688 121.026C340.744 117.525 336.487 116.073 332.83 117.601L332.478 117.758L329.908 118.982C329.16 119.338 328.364 119.578 327.546 119.696L327.194 119.74L325.534 119.906C320.985 120.364 317.827 124.591 318.604 129.034L318.692 129.465L318.864 130.208C319.074 131.116 319.128 132.052 319.026 132.976L318.972 133.371L318.732 134.863C318.063 139.029 320.813 142.948 324.902 143.776L325.302 143.846L328.23 144.285C328.995 144.4 329.74 144.623 330.443 144.945L330.741 145.089L333.381 146.433C337.141 148.346 341.714 146.93 343.755 143.292L343.945 142.934L344.616 141.58C345.03 140.745 345.583 139.987 346.249 139.338L346.542 139.068L347.114 138.563C350.541 135.537 350.639 130.262 347.416 127.107L347.093 126.808L345.839 125.708C345.217 125.162 344.68 124.526 344.248 123.821L344.069 123.515L342.688 121.026Z" fill="#FFDE3B" stroke="#282828" stroke-width="0.4"/>
<path d="M337.43 142.967C336.075 142.249 335.478 140.719 336.098 139.551C336.717 138.383 338.318 138.019 339.674 138.737C341.029 139.456 341.626 140.986 341.006 142.154C340.387 143.322 338.786 143.686 337.43 142.967Z" fill="#FF4F18" stroke="#282828" stroke-width="0.4" stroke-linecap="round" stroke-linejoin="round"/>
<path d="M324.054 135.373C324.344 134.083 325.793 133.31 327.29 133.647C328.787 133.984 329.764 135.303 329.474 136.593C329.184 137.883 327.735 138.655 326.238 138.318C324.741 137.981 323.764 136.663 324.054 135.373Z" fill="#FF4F18" stroke="#282828" stroke-width="0.4" stroke-linecap="round" stroke-linejoin="round"/>
<path d="M341.159 134.444C341.186 135.125 341.078 135.851 340.818 136.571C339.97 138.907 337.83 140.272 336.037 139.621C334.244 138.971 333.479 136.549 334.327 134.215C334.362 134.115 334.402 134.018 334.443 133.922C334.493 133.804 334.545 133.689 334.602 133.578C334.928 132.929 335.359 132.379 335.849 131.956" fill="white"/>
<path d="M341.159 134.444C341.186 135.125 341.078 135.851 340.818 136.571C339.97 138.907 337.83 140.272 336.037 139.621C334.244 138.971 333.479 136.549 334.327 134.215C334.362 134.115 334.402 134.018 334.443 133.922C334.493 133.804 334.545 133.689 334.602 133.578C334.928 132.929 335.359 132.379 335.849 131.956" stroke="#282828" stroke-width="0.4" stroke-linecap="round" stroke-linejoin="round"/>
<path d="M338.628 134.124C338.973 134.25 339.321 134.339 339.67 134.396C339.694 134.901 339.607 135.476 339.397 136.055C338.858 137.54 337.714 138.487 336.842 138.171C335.97 137.856 335.702 136.394 336.24 134.909C336.242 134.902 336.244 134.896 336.246 134.89C336.927 135.075 337.475 135.071 337.551 134.861C337.627 134.651 337.247 134.329 336.657 134.043C336.819 133.783 336.999 133.552 337.19 133.361C337.617 133.671 338.098 133.932 338.628 134.124Z" fill="#282828"/>
<path d="M337.552 134.862C337.476 135.073 336.928 135.075 336.247 134.89C336.36 134.581 336.501 134.298 336.659 134.042C337.249 134.328 337.626 134.659 337.553 134.86L337.552 134.862Z" fill="white"/>
<path d="M341.159 134.444C341.096 132.913 340.348 131.613 339.107 131.164C338.028 130.772 336.822 131.112 335.849 131.955" stroke="#282828" stroke-width="0.4" stroke-linecap="round" stroke-linejoin="round"/>
<path d="M339.669 134.396C339.323 134.339 338.973 134.248 338.627 134.123C338.098 133.931 337.617 133.671 337.19 133.361C336.645 132.964 336.192 132.484 335.847 131.955C336.82 131.113 338.027 130.773 339.106 131.163C340.346 131.614 341.095 132.912 341.157 134.443C340.673 134.493 340.173 134.479 339.666 134.395L339.669 134.396Z" fill="#BEFF74" stroke="#282828" stroke-width="0.4" stroke-linecap="round" stroke-linejoin="round"/>
<path d="M340.262 133.319C340.262 133.319 340.02 133.961 339.388 134.309L340.262 133.319Z" fill="#BEFF74"/>
<path d="M340.262 133.319C340.262 133.319 340.02 133.961 339.388 134.309" stroke="#282828" stroke-width="0.4" stroke-linecap="round" stroke-linejoin="round"/>
<path d="M339.32 133.123C339.32 133.123 339.078 133.764 338.445 134.113L339.32 133.123Z" fill="#BEFF74"/>
<path d="M339.32 133.123C339.32 133.123 339.078 133.764 338.445 134.113" stroke="#282828" stroke-width="0.4" stroke-linecap="round" stroke-linejoin="round"/>
<path d="M335.201 131.843C335.255 132.522 335.176 133.253 334.942 133.982C334.185 136.349 332.099 137.796 330.282 137.214C328.465 136.632 327.608 134.244 328.365 131.877C328.397 131.776 328.432 131.678 328.47 131.581C328.516 131.461 328.563 131.345 328.615 131.231C328.917 130.57 329.326 130.003 329.799 129.562" fill="white"/>
<path d="M335.201 131.843C335.255 132.522 335.176 133.253 334.942 133.982C334.185 136.349 332.099 137.796 330.282 137.214C328.465 136.632 327.608 134.244 328.365 131.877C328.397 131.776 328.432 131.678 328.47 131.581C328.516 131.461 328.563 131.345 328.615 131.231C328.917 130.57 329.326 130.003 329.799 129.562" stroke="#282828" stroke-width="0.4" stroke-linecap="round" stroke-linejoin="round"/>
<path d="M332.66 131.622C333.01 131.734 333.362 131.81 333.711 131.854C333.753 132.358 333.69 132.935 333.502 133.521C333.021 135.026 331.915 136.017 331.031 135.734C330.147 135.451 329.822 134.002 330.304 132.497C330.306 132.491 330.308 132.485 330.31 132.478C330.997 132.636 331.545 132.613 331.614 132.399C331.682 132.185 331.288 131.88 330.688 131.616C330.84 131.349 331.011 131.112 331.195 130.913C331.632 131.206 332.123 131.448 332.66 131.62L332.66 131.622Z" fill="#282828"/>
<path d="M331.613 132.399C331.544 132.613 330.997 132.636 330.309 132.478C330.409 132.165 330.54 131.876 330.688 131.616C331.288 131.879 331.678 132.195 331.613 132.399Z" fill="white"/>
<path d="M335.201 131.843C335.081 130.316 334.283 129.048 333.025 128.645C331.932 128.295 330.74 128.681 329.8 129.56" stroke="#282828" stroke-width="0.4" stroke-linecap="round" stroke-linejoin="round"/>
<path d="M333.711 131.855C333.362 131.811 333.01 131.735 332.66 131.623C332.124 131.451 331.634 131.209 331.194 130.916C330.635 130.54 330.163 130.078 329.798 129.562C330.738 128.683 331.93 128.297 333.024 128.647C334.281 129.05 335.079 130.318 335.199 131.847C334.719 131.915 334.216 131.921 333.709 131.856L333.711 131.855Z" fill="#BEFF74" stroke="#282828" stroke-width="0.4" stroke-linecap="round" stroke-linejoin="round"/>
<path d="M334.263 130.754C334.263 130.754 334.046 131.404 333.427 131.777L334.263 130.754Z" fill="#BEFF74"/>
<path d="M334.263 130.754C334.263 130.754 334.046 131.404 333.427 131.777" stroke="#282828" stroke-width="0.4" stroke-linecap="round" stroke-linejoin="round"/>
<path d="M333.312 130.594C333.312 130.594 333.095 131.244 332.475 131.617L333.312 130.594Z" fill="#BEFF74"/>
<path d="M333.312 130.594C333.312 130.594 333.095 131.244 332.475 131.617" stroke="#282828" stroke-width="0.4" stroke-linecap="round" stroke-linejoin="round"/>
<path d="M334.812 139.849C334.812 139.849 332.526 141.153 331.754 137.801" stroke="#282828" stroke-width="0.4" stroke-linecap="round" stroke-linejoin="round"/>
<circle cx="43.7699" cy="154.397" r="16.4824" transform="rotate(-21.4195 43.7699 154.397)" fill="#00A176" stroke="white" stroke-width="3"/>
<path d="M29.4786 139.223C31.0422 137.848 32.9201 137.042 34.7378 136.906C36.5564 136.77 38.4112 137.309 39.6811 138.753C40.3458 139.508 40.7091 140.412 40.5736 141.412C40.4503 142.319 39.9433 143.06 39.4492 143.624C38.9432 144.202 38.301 144.759 37.6763 145.279C37.0198 145.825 36.3798 146.333 35.7287 146.906C35.0801 147.477 34.529 148.016 33.9587 148.549C33.4213 149.051 32.8439 149.569 32.2563 149.945C31.6664 150.322 30.8887 150.671 29.9793 150.578C29.0456 150.482 28.3017 149.956 27.7097 149.283C26.44 147.839 26.1417 145.93 26.509 144.144C26.8762 142.359 27.915 140.599 29.4786 139.223Z" fill="#00CBCE" stroke="white" stroke-width="3"/>
<circle cx="43.7696" cy="154.397" r="14.7824" transform="rotate(-21.4195 43.7696 154.397)" fill="#00A176" stroke="#282828" stroke-width="0.4"/>
<path d="M41.5361 137.73C40.6449 138.759 38.882 139.903 38.1119 140.347L31.9233 148.294C33.0715 148.127 36.1229 147.241 39.1427 145.037C42.9176 142.283 42.65 136.443 41.5361 137.73Z" fill="#003F31" stroke="#282828" stroke-width="0.4" stroke-linecap="round"/>
<path d="M30.6016 140.501C31.9138 139.346 33.4493 138.709 34.8652 138.602C36.2809 138.496 37.5642 138.921 38.4046 139.876C38.8207 140.349 38.9447 140.777 38.8896 141.183C38.8328 141.602 38.5813 142.036 38.1704 142.505C37.7611 142.972 37.2119 143.454 36.5894 143.972C35.9711 144.487 35.2795 145.037 34.606 145.63C33.9321 146.223 33.3335 146.807 32.7977 147.308C32.2575 147.812 31.7828 148.231 31.3414 148.513C30.9004 148.795 30.5162 148.925 30.1535 148.888C29.7939 148.851 29.4124 148.644 28.9865 148.16C28.1463 147.205 27.8884 145.878 28.1741 144.488C28.4601 143.097 29.2893 141.655 30.6016 140.501Z" fill="#00CBCE" stroke="#282828" stroke-width="0.4"/>
<path d="M29.8186 140.791C29.9484 140.667 30.0896 140.594 30.2056 140.568C30.3255 140.542 30.3835 140.571 30.4053 140.593C30.4271 140.616 30.454 140.676 30.4222 140.795C30.3914 140.909 30.3119 141.047 30.1823 141.171C30.0525 141.295 29.9107 141.369 29.7946 141.395C29.6744 141.421 29.6159 141.391 29.5942 141.369C29.5725 141.346 29.5463 141.287 29.578 141.168C29.6088 141.053 29.6887 140.915 29.8186 140.791Z" fill="#003F31" stroke="#282828" stroke-width="0.4"/>
<path d="M44.9763 160.607C42.6821 161.507 40.0241 160.218 39.0489 157.732C39.0279 157.679 39.0097 157.626 38.9928 157.571L42.9984 155.819C43.5475 156.843 44.7334 157.332 45.7475 156.934C46.5844 156.605 47.0909 155.762 47.0862 154.853C47.2549 155.155 47.4528 155.442 47.68 155.712C47.9548 157.861 46.8472 159.87 44.9735 160.605L44.9763 160.607Z" fill="white"/>
<path d="M42.9521 155.961C43.5462 156.972 44.7536 157.443 45.7883 157.037C46.5572 156.735 47.0607 156.024 47.1734 155.214C47.2947 155.402 47.4284 155.585 47.5756 155.76C47.8302 157.846 46.7502 159.792 44.9363 160.504C42.6997 161.381 40.1049 160.12 39.1523 157.692C39.1443 157.672 39.137 157.653 39.1297 157.634L42.9509 155.964M46.8343 154.022L46.8199 154.028C47.2531 155.168 46.7596 156.42 45.7083 156.833C44.657 157.245 43.5487 156.712 43.0503 155.678L38.8575 157.511C38.8873 157.599 38.9122 157.686 38.9462 157.773C39.9449 160.319 42.6631 161.633 45.0171 160.71C46.9919 159.935 48.0783 157.83 47.7888 155.667C47.4192 155.234 47.1084 154.733 46.886 154.166C46.8674 154.119 46.855 154.069 46.8364 154.021L46.8343 154.022Z" fill="#282828"/>
<path d="M52.9149 156.999C51.1916 157.675 49.1654 157.112 47.8732 155.595C47.4946 155.151 47.1982 154.656 46.9895 154.124C46.9839 154.11 46.9782 154.096 46.9734 154.083L50.8309 152.396C50.8309 152.396 50.8381 152.415 50.8422 152.425C51.3136 153.627 52.6031 154.246 53.7183 153.809C54.8334 153.371 55.3571 152.038 54.8865 150.839C54.8639 150.781 54.8383 150.722 54.8063 150.658L55.1531 150.506C55.2083 150.622 55.2601 150.742 55.307 150.862C56.2814 153.345 55.2092 156.099 52.9149 156.999Z" fill="white"/>
<path d="M55.0952 150.652C55.1325 150.735 55.1677 150.819 55.2008 150.903C56.1534 153.332 55.1079 156.02 52.8714 156.898C51.1914 157.557 49.2148 157.005 47.9541 155.525C47.5979 155.108 47.3157 154.644 47.1122 154.143L47.2911 154.066L50.7668 152.545C51.2854 153.752 52.6074 154.363 53.7535 153.914C54.8996 153.464 55.4777 152.058 54.9836 150.798C54.9731 150.771 54.9618 150.743 54.9505 150.714L55.0944 150.65M55.2028 150.363L54.6481 150.604C54.6969 150.692 54.7415 150.781 54.7795 150.878C55.2291 152.024 54.7343 153.291 53.6747 153.707C52.6152 154.123 51.391 153.53 50.9414 152.384C50.9236 152.339 50.9099 152.292 50.8942 152.246L47.2033 153.86L46.8338 154.022C46.8524 154.069 46.864 154.117 46.8834 154.166C47.1058 154.733 47.4166 155.234 47.7862 155.667C49.0775 157.182 51.1239 157.821 52.9543 157.103C55.3084 156.18 56.4077 153.367 55.409 150.822C55.3468 150.663 55.2779 150.512 55.2028 150.363Z" fill="#282828"/>
<path d="M50.9422 152.383C51.3918 153.53 52.6161 154.122 53.6756 153.706C54.7351 153.291 55.23 152.024 54.7804 150.878C54.7424 150.781 54.6978 150.691 54.649 150.603L50.895 152.245C50.9107 152.291 50.9244 152.338 50.9422 152.383Z" fill="#282828"/>
<path d="M45.7087 156.832C46.7621 156.419 47.2556 155.167 46.8212 154.029L43.0507 155.677C43.5492 156.711 44.7028 157.227 45.7087 156.832Z" fill="#282828"/>
<path d="M48.0474 160.099C49.0235 160.676 50.2793 160.168 50.9966 159.401" stroke="#282828" stroke-width="0.4" stroke-linecap="round" stroke-linejoin="round"/>
<defs>
<linearGradient id="paint0_linear_4843_60389" x1="187" y1="71" x2="187" y2="120" gradientUnits="userSpaceOnUse">
<stop offset="0.206731" stop-color="white"/>
<stop offset="1" stop-color="#77FFDF"/>
</linearGradient>
</defs>
</svg>
