<svg width="344" height="77" viewBox="0 0 344 77" fill="none" xmlns="http://www.w3.org/2000/svg">
<rect width="344" height="77" rx="12" fill="#004B37"/>
<path d="M29.282 15.704V20.098H31.102V21.112H29.282V27.092H28.086V15.704H29.282ZM20.91 24.284V16.796H26.214V17.784H22.106V23.27C24.017 23.257 25.447 23.179 27.072 22.88L27.228 23.92C25.447 24.219 23.926 24.284 21.82 24.284H20.91ZM41.9474 17.316V18.304H40.3354V19.76H41.9474V20.748H40.3354V22.412H39.1394V15.704H40.3354V17.316H41.9474ZM31.5734 19.058C31.5604 17.472 32.8474 16.367 34.5894 16.38C36.3314 16.367 37.6184 17.472 37.6314 19.058C37.6184 20.657 36.3314 21.762 34.5894 21.762C32.8474 21.762 31.5604 20.657 31.5734 19.058ZM32.7434 19.058C32.7434 20.085 33.5234 20.748 34.5894 20.748C35.6554 20.748 36.4484 20.085 36.4614 19.058C36.4484 18.07 35.6554 17.381 34.5894 17.394C33.5234 17.381 32.7434 18.07 32.7434 19.058ZM32.8474 24.908C32.8474 23.53 34.3164 22.737 36.6694 22.724C38.9834 22.737 40.4394 23.53 40.4394 24.908C40.4394 26.26 38.9834 27.066 36.6694 27.066C34.3164 27.066 32.8474 26.26 32.8474 24.908ZM34.0434 24.908C34.0434 25.675 35.0184 26.091 36.6694 26.104C38.2944 26.091 39.2564 25.675 39.2694 24.908C39.2564 24.128 38.2944 23.699 36.6694 23.686C35.0184 23.699 34.0434 24.128 34.0434 24.908ZM51.3107 15.704V19.37H52.9487V20.384H51.3107V24.232H50.1147V15.704H51.3107ZM42.3927 18.018V17.03H45.1747V15.704H46.3707V17.03H49.1527V18.018H42.3927ZM43.0167 20.722C43.0037 19.409 44.1217 18.551 45.7727 18.564C47.4107 18.551 48.5287 19.409 48.5287 20.722C48.5287 21.996 47.4107 22.841 45.7727 22.828C44.1217 22.841 43.0037 21.996 43.0167 20.722ZM44.1087 26.832V23.556H45.3047V25.87H51.8047V26.832H44.1087ZM44.1607 20.722C44.1607 21.45 44.8107 21.905 45.7727 21.892C46.7347 21.905 47.3847 21.45 47.3847 20.722C47.3847 19.955 46.7347 19.487 45.7727 19.5C44.8107 19.487 44.1607 19.955 44.1607 20.722ZM62.2359 16.796V24.258H56.8799V16.796H62.2359ZM58.0759 23.296H61.0659V17.758H58.0759V23.296ZM64.4719 27.092V15.704H65.6939V27.092H64.4719ZM71.2612 17.758C71.2482 19.396 72.2752 20.969 73.9652 21.606L73.2892 22.542C72.0542 22.048 71.1442 21.06 70.6632 19.825C70.1692 21.151 69.2072 22.204 67.8812 22.724L67.2312 21.788C68.9862 21.125 70.0392 19.5 70.0652 17.758V16.354H71.2612V17.758ZM69.2852 26.832V23.322H70.5072V25.87H76.9812V26.832H69.2852ZM73.3152 20.592V19.63H75.5252V18.304H73.3152V17.316H75.5252V15.704H76.7212V24.18H75.5252V20.592H73.3152ZM85.0984 18.044C85.1114 19.37 86.1384 20.592 87.8804 21.086L87.3084 22.022C86.0084 21.645 85.0334 20.839 84.5264 19.799C84.0324 20.943 83.0314 21.827 81.6664 22.23L81.0944 21.294C82.8364 20.787 83.9154 19.487 83.9024 18.044V17.94H81.4324V16.978H83.9024V15.652H85.1244V16.978H87.5684V17.94H85.0984V18.044ZM82.7844 26.936V22.932H90.0644V26.936H82.7844ZM83.9804 25.948H88.8684V23.868H83.9804V25.948ZM88.8684 22.412V15.704H90.0644V18.512H91.7024V19.526H90.0644V22.412H88.8684ZM95.1898 16.562C96.2298 16.562 97.0748 17.147 97.5688 18.174H100.39V15.704H101.586V27.092H100.39V22.724H97.6598C97.1788 23.881 96.2948 24.544 95.1898 24.544C93.4868 24.544 92.2908 22.997 92.3038 20.54C92.2908 18.109 93.4868 16.562 95.1898 16.562ZM93.4478 20.54C93.4478 22.347 94.1498 23.465 95.1898 23.452C96.2168 23.465 96.9188 22.347 96.9318 20.54C96.9188 18.759 96.2168 17.641 95.1898 17.628C94.1498 17.641 93.4478 18.759 93.4478 20.54ZM97.9068 19.162C97.9978 19.578 98.0498 20.046 98.0498 20.54C98.0498 20.982 98.0108 21.385 97.9458 21.762H100.39V19.162H97.9068ZM111.937 15.704V20.306H113.757V21.32H111.937V27.066H110.741V15.704H111.937ZM103.019 18.46V17.498H105.827V15.86H107.023V17.498H109.753V18.46H103.019ZM103.591 21.944C103.591 20.397 104.787 19.305 106.425 19.318C108.05 19.305 109.246 20.397 109.259 21.944C109.246 23.517 108.05 24.596 106.425 24.596C104.787 24.596 103.591 23.517 103.591 21.944ZM104.761 21.944C104.748 22.932 105.45 23.595 106.425 23.582C107.387 23.595 108.102 22.932 108.115 21.944C108.102 20.982 107.387 20.306 106.425 20.306C105.45 20.306 104.748 20.982 104.761 21.944ZM119.844 16.666V17.628H122.34V15.704H123.536V23.998H122.34V21.06H119.844V22.048H114.566V16.666H119.844ZM115.762 21.112H118.674V17.654H115.762V21.112ZM116.1 26.832V23.244H117.322V25.87H123.796V26.832H116.1ZM119.844 20.072H122.34V18.642H119.844V20.072Z" fill="white"/>
<path d="M39.527 40.751H23.473C22.093 40.751 21.541 39.785 21.541 38.842C21.541 37.922 22.07 36.91 23.473 36.91H39.527C40.93 36.91 41.459 37.922 41.459 38.842C41.459 39.785 40.907 40.751 39.527 40.751ZM33.846 53.516H40.332C41.712 53.516 42.264 54.459 42.264 55.402C42.264 56.391 41.689 57.288 40.332 57.288H22.668C21.311 57.288 20.736 56.391 20.736 55.402C20.736 54.459 21.288 53.516 22.668 53.516H29.154V49.652V49.583H23.197C21.817 49.583 21.265 48.686 21.265 47.743C21.265 46.823 21.794 45.926 23.197 45.926H24.761V43.925C24.761 42.292 25.727 41.602 27.13 41.602C28.51 41.602 29.453 42.315 29.453 43.925V45.926H33.547V43.925C33.547 42.292 34.513 41.602 35.916 41.602C37.296 41.602 38.239 42.315 38.239 43.925V45.926H39.803C41.206 45.926 41.735 46.823 41.735 47.743C41.735 48.686 41.183 49.583 39.803 49.583H33.846V49.652V53.516ZM64.16 52.458H59.56V38.428C59.56 36.933 60.641 36.151 61.86 36.151C63.079 36.151 64.16 36.933 64.16 38.428V52.458ZM43.874 43.695V41.74C43.874 38.313 46.634 36.519 50.406 36.519C54.178 36.519 56.961 38.29 56.961 41.74V43.695C56.961 47.145 54.178 48.916 50.429 48.916C46.657 48.916 43.874 47.145 43.874 43.695ZM48.359 41.763V43.672C48.359 44.799 49.279 45.489 50.406 45.489C51.533 45.489 52.499 44.799 52.499 43.672V41.763C52.499 40.613 51.533 39.923 50.406 39.946C49.279 39.969 48.359 40.636 48.359 41.763ZM62.872 57.748H48.336C45.76 57.748 45.07 56.851 45.07 54.39V51.975C45.07 50.48 46.151 49.767 47.439 49.767C48.727 49.767 49.739 50.503 49.739 51.975V53.677C49.739 54.114 49.854 54.206 50.291 54.206H62.872C64.252 54.206 64.781 55.034 64.781 55.954C64.781 56.897 64.229 57.748 62.872 57.748ZM70.508 36.841H84.446C85.734 36.841 86.217 37.784 86.217 38.635C86.217 39.509 85.711 40.406 84.446 40.406H72.21C71.75 40.406 71.52 40.59 71.52 41.004V41.901H84.308C85.596 41.901 86.079 42.798 86.079 43.626C86.079 44.477 85.573 45.351 84.308 45.351H71.52V46.225C71.52 46.685 71.75 46.846 72.21 46.846H84.814C86.102 46.846 86.585 47.766 86.585 48.617C86.585 49.491 86.079 50.388 84.814 50.388H70.508C67.84 50.388 66.851 49.284 66.851 46.8V40.429C66.851 37.945 67.84 36.841 70.508 36.841ZM67.794 53.401H85.366C86.792 53.401 87.344 54.413 87.344 55.356C87.344 56.322 86.769 57.288 85.366 57.288H67.794C66.391 57.288 65.816 56.322 65.816 55.356C65.816 54.413 66.368 53.401 67.794 53.401ZM108.55 44.201H109.378C110.781 44.201 111.195 45.282 111.195 46.202C111.195 47.145 110.758 48.203 109.378 48.203H108.55V57.748H103.95V38.428C103.95 36.933 105.031 36.151 106.25 36.151C107.469 36.151 108.55 36.933 108.55 38.428V44.201ZM91.001 36.979H97.809C100.339 36.979 101.305 38.152 101.305 40.245V45.65C101.305 53.493 96.544 56.552 90.978 56.782C89.736 56.851 88.609 56.161 88.678 54.804C88.724 53.838 89.299 53.102 90.449 52.964C94.083 52.55 96.774 51.009 96.774 45.627V41.51C96.774 41.188 96.567 40.935 96.199 40.935H91.001C89.621 40.935 88.954 39.946 88.954 38.98C88.954 38.037 89.598 36.979 91.001 36.979ZM137.076 44.201H137.904C139.307 44.201 139.721 45.282 139.721 46.202C139.721 47.145 139.284 48.203 137.904 48.203H137.076V57.748H132.476V38.428C132.476 36.933 133.557 36.151 134.776 36.151C135.995 36.151 137.076 36.933 137.076 38.428V44.201ZM126.427 53.217H129.739C131.119 53.217 131.671 54.183 131.671 55.126C131.671 56.092 131.096 56.989 129.739 56.989H118.814C117.457 56.989 116.882 56.092 116.882 55.126C116.882 54.183 117.434 53.217 118.814 53.217H121.965V49.698C119.297 49.1 117.457 47.306 117.457 44.178V42.292C117.457 38.359 120.355 36.542 124.127 36.542C127.876 36.542 130.751 38.359 130.751 42.292V44.178C130.751 47.26 128.98 49.031 126.427 49.675V53.217ZM121.942 42.108V44.362C121.942 45.811 123.023 46.363 124.127 46.363C125.208 46.363 126.289 45.811 126.289 44.362V42.108C126.289 40.682 125.208 40.107 124.127 40.107C123.023 40.107 121.942 40.682 121.942 42.108ZM158.466 50.434H144.827C141.837 50.434 140.25 48.847 140.25 46.363V45.926C140.25 43.442 141.837 41.924 144.827 41.924H154.855V41.165C154.855 40.866 154.763 40.521 154.234 40.521H142.274C141.17 40.521 140.503 39.624 140.503 38.681C140.503 37.761 141.17 36.841 142.274 36.841H155.568C158.742 36.841 159.639 38.29 159.639 40.475V45.42H146C145.471 45.42 145.218 45.673 145.218 46.133C145.218 46.616 145.471 46.823 146 46.823H158.466C159.754 46.823 160.237 47.789 160.237 48.64C160.237 49.514 159.731 50.434 158.466 50.434ZM141.4 53.401H158.972C160.398 53.401 160.95 54.413 160.95 55.356C160.95 56.322 160.375 57.288 158.972 57.288H141.4C139.997 57.288 139.422 56.322 139.422 55.356C139.422 54.413 139.974 53.401 141.4 53.401ZM181.006 50.434H167.367C164.377 50.434 162.79 48.847 162.79 46.363V45.926C162.79 43.442 164.377 41.924 167.367 41.924H177.395V41.165C177.395 40.866 177.303 40.521 176.774 40.521H164.814C163.71 40.521 163.043 39.624 163.043 38.681C163.043 37.761 163.71 36.841 164.814 36.841H178.108C181.282 36.841 182.179 38.29 182.179 40.475V45.42H168.54C168.011 45.42 167.758 45.673 167.758 46.133C167.758 46.616 168.011 46.823 168.54 46.823H181.006C182.294 46.823 182.777 47.789 182.777 48.64C182.777 49.514 182.271 50.434 181.006 50.434ZM163.94 53.401H181.512C182.938 53.401 183.49 54.413 183.49 55.356C183.49 56.322 182.915 57.288 181.512 57.288H163.94C162.537 57.288 161.962 56.322 161.962 55.356C161.962 54.413 162.514 53.401 163.94 53.401Z" fill="url(#paint0_linear_4767_62452)"/>
<defs>
<linearGradient id="paint0_linear_4767_62452" x1="102.5" y1="33" x2="102.5" y2="65" gradientUnits="userSpaceOnUse">
<stop offset="0.206731" stop-color="white"/>
<stop offset="1" stop-color="#77FFDF"/>
</linearGradient>
</defs>
</svg>
