<svg width="344" height="77" viewBox="0 0 344 77" fill="none" xmlns="http://www.w3.org/2000/svg">
<rect width="344" height="77" rx="12" fill="#004B37"/>
<path d="M27.1602 19.8047C27.084 19.4196 26.9338 19.0895 26.7095 18.8145C26.4852 18.5352 26.2059 18.3236 25.8716 18.1797C25.5415 18.0358 25.1797 17.9639 24.7861 17.9639C24.2529 17.9639 23.7769 18.0993 23.3579 18.3701C22.939 18.6367 22.611 19.0282 22.374 19.5444C22.137 20.0607 22.0186 20.6807 22.0186 21.4043C22.0186 22.1279 22.137 22.75 22.374 23.2705C22.6152 23.7868 22.9432 24.1782 23.3579 24.4448C23.7769 24.7114 24.2529 24.8447 24.7861 24.8447C25.1755 24.8447 25.5352 24.7749 25.8652 24.6353C26.1953 24.4914 26.4725 24.284 26.6968 24.0132C26.9253 23.7381 27.0798 23.4102 27.1602 23.0293L28.5693 23.042C28.472 23.6429 28.2498 24.1782 27.9028 24.6479C27.5601 25.1134 27.1178 25.4774 26.5762 25.7397C26.0387 25.9979 25.4378 26.127 24.7734 26.127C23.9736 26.127 23.2606 25.9365 22.6343 25.5557C22.008 25.1748 21.5171 24.6289 21.1616 23.918C20.8104 23.2028 20.6348 22.3649 20.6348 21.4043C20.6348 20.4437 20.8125 19.6079 21.168 18.897C21.5234 18.1818 22.0143 17.6338 22.6406 17.2529C23.2669 16.8721 23.9779 16.6816 24.7734 16.6816C25.4209 16.6816 26.0133 16.8065 26.5508 17.0562C27.0882 17.3016 27.5326 17.6592 27.8838 18.1289C28.235 18.5986 28.4635 19.1572 28.5693 19.8047H27.1602ZM32.6257 26.1396C31.9825 26.1396 31.4176 25.9915 30.9309 25.6953C30.4443 25.3991 30.0676 24.9844 29.801 24.4512C29.5344 23.9137 29.4011 23.2917 29.4011 22.585C29.4011 21.874 29.5344 21.2498 29.801 20.7124C30.0676 20.175 30.4443 19.7581 30.9309 19.4619C31.4176 19.1657 31.9825 19.0176 32.6257 19.0176C33.2647 19.0176 33.8276 19.1657 34.3142 19.4619C34.8009 19.7581 35.1754 20.1771 35.4378 20.7188C35.7044 21.2562 35.8377 21.8783 35.8377 22.585C35.8377 23.2917 35.7044 23.9137 35.4378 24.4512C35.1754 24.9844 34.8009 25.3991 34.3142 25.6953C33.8276 25.9915 33.2647 26.1396 32.6257 26.1396ZM32.6257 25.0098C33.0278 25.0098 33.3663 24.9019 33.6414 24.686C33.9164 24.4702 34.1217 24.1803 34.2571 23.8164C34.3967 23.4482 34.4666 23.0378 34.4666 22.585C34.4666 22.1322 34.3967 21.7217 34.2571 21.3535C34.1217 20.9811 33.9143 20.6849 33.635 20.4648C33.36 20.2448 33.0235 20.1348 32.6257 20.1348C32.2195 20.1348 31.8746 20.2448 31.5911 20.4648C31.3118 20.6849 31.1023 20.9811 30.9627 21.3535C30.8272 21.7217 30.7595 22.1322 30.7595 22.585C30.7595 23.0378 30.8272 23.4482 30.9627 23.8164C31.1023 24.1803 31.3118 24.4702 31.5911 24.686C31.8746 24.9019 32.2195 25.0098 32.6257 25.0098ZM36.9107 19.1064H38.2183V20.2363H38.2945C38.4426 19.847 38.6774 19.5465 38.999 19.335C39.3249 19.1234 39.7163 19.0176 40.1734 19.0176C40.6262 19.0176 41.0112 19.1255 41.3286 19.3413C41.646 19.5529 41.8788 19.8512 42.0269 20.2363H42.103C42.2723 19.8555 42.5347 19.5571 42.8902 19.3413C43.2499 19.1255 43.6773 19.0176 44.1724 19.0176C44.5956 19.0176 44.9658 19.1064 45.2832 19.2842C45.6048 19.4619 45.8545 19.7285 46.0322 20.084C46.2142 20.4352 46.3052 20.8669 46.3052 21.3789V26H44.9468V21.5059C44.9468 21.0658 44.8262 20.7357 44.585 20.5156C44.3438 20.2956 44.0327 20.1855 43.6519 20.1855C43.3683 20.1855 43.1229 20.2469 42.9155 20.3696C42.7082 20.4881 42.5495 20.6553 42.4395 20.8711C42.3337 21.0869 42.2808 21.3324 42.2808 21.6074V26H40.9351V21.4297C40.9351 21.1842 40.8822 20.9684 40.7764 20.7822C40.6706 20.5918 40.5225 20.4458 40.3321 20.3442C40.1416 20.2384 39.9237 20.1855 39.6782 20.1855C39.4243 20.1855 39.1895 20.2533 38.9737 20.3887C38.7578 20.5199 38.5864 20.7039 38.4595 20.9409C38.3325 21.1779 38.2691 21.4466 38.2691 21.7471V26H36.9107V19.1064ZM47.6829 19.1064H49.0032V20.2236H49.1175C49.2317 20.0163 49.3608 19.828 49.5047 19.6587C49.6485 19.4894 49.8517 19.3413 50.114 19.2144C50.3806 19.0832 50.7086 19.0176 51.0979 19.0176C51.6565 19.0176 52.1538 19.1593 52.5896 19.4429C53.0297 19.7264 53.3725 20.1369 53.6179 20.6743C53.8676 21.2075 53.9925 21.8402 53.9925 22.5723C53.9925 23.3001 53.8697 23.9328 53.6243 24.4702C53.3789 25.0076 53.0382 25.4202 52.6023 25.708C52.1665 25.9958 51.6692 26.1396 51.1106 26.1396C50.5605 26.1396 50.1352 26.0212 49.8347 25.7842C49.5343 25.543 49.2952 25.2552 49.1175 24.9209H49.0413V28.5898H47.6829V19.1064ZM49.0159 22.5469C49.0159 23.0335 49.0857 23.4609 49.2254 23.8291C49.365 24.193 49.5681 24.4766 49.8347 24.6797C50.1056 24.8828 50.4293 24.9844 50.8059 24.9844C51.191 24.9844 51.519 24.8807 51.7898 24.6733C52.0649 24.4618 52.2722 24.1719 52.4119 23.8037C52.5515 23.4355 52.6214 23.0166 52.6214 22.5469C52.6214 22.0856 52.5515 21.6772 52.4119 21.3218C52.2765 20.9621 52.0712 20.6807 51.7962 20.4775C51.5253 20.2744 51.1953 20.1729 50.8059 20.1729C50.2304 20.1729 49.7882 20.3866 49.4793 20.814C49.1704 21.2371 49.0159 21.8148 49.0159 22.5469ZM56.4366 26H55.0782V16.8086H56.4366V26ZM60.7977 26.1396C60.129 26.1396 59.5472 25.9937 59.0521 25.7017C58.5612 25.4097 58.1824 24.9971 57.9158 24.4639C57.6535 23.9307 57.5223 23.3086 57.5223 22.5977C57.5223 21.8952 57.6535 21.2731 57.9158 20.7314C58.1824 20.1898 58.5569 19.7687 59.0394 19.4683C59.5218 19.1678 60.0783 19.0176 60.7088 19.0176C61.2632 19.0176 61.771 19.1382 62.2322 19.3794C62.6935 19.6206 63.0638 20.0015 63.3431 20.522C63.6266 21.0382 63.7684 21.6921 63.7684 22.4834V22.9658H58.868C58.8807 23.3932 58.9674 23.7635 59.1282 24.0767C59.2933 24.3856 59.5197 24.6204 59.8074 24.7812C60.0952 24.9421 60.4295 25.0225 60.8104 25.0225C61.1785 25.0225 61.4896 24.9548 61.7435 24.8193C61.9974 24.6797 62.1857 24.4977 62.3084 24.2734H63.6795C63.5779 24.6458 63.396 24.9738 63.1336 25.2573C62.8712 25.5366 62.539 25.7546 62.137 25.9111C61.7392 26.0635 61.2928 26.1396 60.7977 26.1396ZM62.4354 21.9502C62.4354 21.599 62.3634 21.2858 62.2195 21.0107C62.0799 20.7357 61.881 20.522 61.6229 20.3696C61.3647 20.2131 61.0643 20.1348 60.7215 20.1348C60.3702 20.1348 60.0571 20.2173 59.782 20.3823C59.5112 20.5431 59.2975 20.7632 59.1409 21.0425C58.9843 21.3175 58.8955 21.6201 58.8743 21.9502H62.4354ZM68.0787 20.1855H66.6695V23.9688C66.6695 24.32 66.7414 24.5612 66.8853 24.6924C67.0334 24.8193 67.2365 24.887 67.4947 24.8955C67.6132 24.8955 67.7994 24.887 68.0533 24.8701C68.0787 24.8617 68.121 24.8574 68.1802 24.8574V26.0381C67.9263 26.0719 67.6428 26.0889 67.3296 26.0889C66.9615 26.0889 66.6251 26.0212 66.3204 25.8857C66.0157 25.7503 65.7724 25.5451 65.5904 25.27C65.4084 24.9907 65.3196 24.6501 65.3238 24.248V20.1855H64.3082V19.1064H65.3238V17.4561H66.6695V19.1064H68.0787V20.1855ZM72.0335 26.1396C71.3649 26.1396 70.783 25.9937 70.2879 25.7017C69.797 25.4097 69.4183 24.9971 69.1517 24.4639C68.8893 23.9307 68.7581 23.3086 68.7581 22.5977C68.7581 21.8952 68.8893 21.2731 69.1517 20.7314C69.4183 20.1898 69.7928 19.7687 70.2752 19.4683C70.7576 19.1678 71.3141 19.0176 71.9446 19.0176C72.499 19.0176 73.0068 19.1382 73.4681 19.3794C73.9293 19.6206 74.2996 20.0015 74.5789 20.522C74.8625 21.0382 75.0042 21.6921 75.0042 22.4834V22.9658H70.1038C70.1165 23.3932 70.2033 23.7635 70.3641 24.0767C70.5291 24.3856 70.7555 24.6204 71.0433 24.7812C71.331 24.9421 71.6654 25.0225 72.0462 25.0225C72.4144 25.0225 72.7254 24.9548 72.9793 24.8193C73.2332 24.6797 73.4215 24.4977 73.5443 24.2734H74.9154C74.8138 24.6458 74.6318 24.9738 74.3695 25.2573C74.1071 25.5366 73.7749 25.7546 73.3729 25.9111C72.9751 26.0635 72.5286 26.1396 72.0335 26.1396ZM73.6712 21.9502C73.6712 21.599 73.5993 21.2858 73.4554 21.0107C73.3157 20.7357 73.1168 20.522 72.8587 20.3696C72.6006 20.2131 72.3001 20.1348 71.9573 20.1348C71.6061 20.1348 71.293 20.2173 71.0179 20.3823C70.7471 20.5431 70.5334 20.7632 70.3768 21.0425C70.2202 21.3175 70.1313 21.6201 70.1102 21.9502H73.6712ZM80.8192 16.8086L83.7264 23.9307H83.8407L86.7479 16.8086H88.4491V26H87.1161V19.3604H87.0272L84.3358 25.9873H83.2313L80.5272 19.3477H80.451V26H79.118V16.8086H80.8192ZM89.9537 19.1064H91.3121V26H89.9537V19.1064ZM90.6393 18.04C90.4869 18.04 90.343 18.0041 90.2076 17.9321C90.0764 17.8602 89.9706 17.7629 89.8902 17.6401C89.8141 17.5174 89.776 17.3841 89.776 17.2402C89.776 17.0964 89.8141 16.9631 89.8902 16.8403C89.9706 16.7176 90.0764 16.6203 90.2076 16.5483C90.343 16.4764 90.4869 16.4404 90.6393 16.4404C90.7916 16.4404 90.9313 16.4764 91.0582 16.5483C91.1894 16.6203 91.2931 16.7176 91.3692 16.8403C91.4496 16.9631 91.4898 17.0964 91.4898 17.2402C91.4898 17.3841 91.4496 17.5174 91.3692 17.6401C91.2931 17.7629 91.1894 17.8602 91.0582 17.9321C90.9313 18.0041 90.7916 18.04 90.6393 18.04ZM96.5746 20.9854C96.5111 20.7018 96.3672 20.4818 96.1429 20.3252C95.9229 20.1644 95.6309 20.084 95.267 20.084C95.013 20.084 94.7845 20.1263 94.5814 20.2109C94.3783 20.2913 94.2196 20.4014 94.1053 20.541C93.9953 20.6807 93.9424 20.8372 93.9466 21.0107C93.9382 21.2181 94.0207 21.3937 94.1942 21.5376C94.3719 21.6815 94.6491 21.7979 95.0257 21.8867L96.1175 22.1406C96.7523 22.2803 97.2241 22.5046 97.5331 22.8135C97.842 23.1182 98.0007 23.516 98.0091 24.0068C98.0049 24.4215 97.8885 24.7918 97.66 25.1177C97.4357 25.4393 97.112 25.6911 96.6888 25.873C96.2657 26.0508 95.7663 26.1396 95.1908 26.1396C94.3698 26.1396 93.7181 25.964 93.2357 25.6128C92.7533 25.2616 92.4698 24.7643 92.3851 24.1211H93.7689C93.8832 24.7389 94.3529 25.0479 95.1781 25.0479C95.6182 25.0479 95.9673 24.9653 96.2254 24.8003C96.4878 24.631 96.6211 24.4004 96.6254 24.1084C96.6169 23.8841 96.5259 23.6979 96.3524 23.5498C96.1831 23.4017 95.9186 23.2874 95.5589 23.207L94.4798 22.9785C93.8578 22.8389 93.3859 22.6082 93.0643 22.2866C92.7469 21.965 92.5882 21.5651 92.5882 21.0869C92.5882 20.6807 92.6983 20.321 92.9183 20.0078C93.1426 19.6947 93.4558 19.4513 93.8578 19.2778C94.2598 19.1043 94.7253 19.0176 95.2543 19.0176C95.7578 19.0176 96.1979 19.1001 96.5746 19.2651C96.9554 19.4259 97.2559 19.6545 97.4759 19.9507C97.7002 20.2469 97.8356 20.5918 97.8822 20.9854H96.5746ZM102.942 20.9854C102.878 20.7018 102.734 20.4818 102.51 20.3252C102.29 20.1644 101.998 20.084 101.634 20.084C101.38 20.084 101.151 20.1263 100.948 20.2109C100.745 20.2913 100.587 20.4014 100.472 20.541C100.362 20.6807 100.309 20.8372 100.314 21.0107C100.305 21.2181 100.388 21.3937 100.561 21.5376C100.739 21.6815 101.016 21.7979 101.393 21.8867L102.484 22.1406C103.119 22.2803 103.591 22.5046 103.9 22.8135C104.209 23.1182 104.368 23.516 104.376 24.0068C104.372 24.4215 104.255 24.7918 104.027 25.1177C103.803 25.4393 103.479 25.6911 103.056 25.873C102.633 26.0508 102.133 26.1396 101.558 26.1396C100.737 26.1396 100.085 25.964 99.6027 25.6128C99.1202 25.2616 98.8367 24.7643 98.7521 24.1211H100.136C100.25 24.7389 100.72 25.0479 101.545 25.0479C101.985 25.0479 102.334 24.9653 102.592 24.8003C102.855 24.631 102.988 24.4004 102.992 24.1084C102.984 23.8841 102.893 23.6979 102.719 23.5498C102.55 23.4017 102.286 23.2874 101.926 23.207L100.847 22.9785C100.225 22.8389 99.7529 22.6082 99.4313 22.2866C99.1139 21.965 98.9552 21.5651 98.9552 21.0869C98.9552 20.6807 99.0652 20.321 99.2853 20.0078C99.5096 19.6947 99.8227 19.4513 100.225 19.2778C100.627 19.1043 101.092 19.0176 101.621 19.0176C102.125 19.0176 102.565 19.1001 102.942 19.2651C103.322 19.4259 103.623 19.6545 103.843 19.9507C104.067 20.2469 104.203 20.5918 104.249 20.9854H102.942ZM105.436 19.1064H106.795V26H105.436V19.1064ZM106.122 18.04C105.97 18.04 105.826 18.0041 105.69 17.9321C105.559 17.8602 105.453 17.7629 105.373 17.6401C105.297 17.5174 105.259 17.3841 105.259 17.2402C105.259 17.0964 105.297 16.9631 105.373 16.8403C105.453 16.7176 105.559 16.6203 105.69 16.5483C105.826 16.4764 105.97 16.4404 106.122 16.4404C106.274 16.4404 106.414 16.4764 106.541 16.5483C106.672 16.6203 106.776 16.7176 106.852 16.8403C106.932 16.9631 106.973 17.0964 106.973 17.2402C106.973 17.3841 106.932 17.5174 106.852 17.6401C106.776 17.7629 106.672 17.8602 106.541 17.9321C106.414 18.0041 106.274 18.04 106.122 18.04ZM111.105 26.1396C110.462 26.1396 109.897 25.9915 109.41 25.6953C108.924 25.3991 108.547 24.9844 108.28 24.4512C108.014 23.9137 107.881 23.2917 107.881 22.585C107.881 21.874 108.014 21.2498 108.28 20.7124C108.547 20.175 108.924 19.7581 109.41 19.4619C109.897 19.1657 110.462 19.0176 111.105 19.0176C111.744 19.0176 112.307 19.1657 112.794 19.4619C113.28 19.7581 113.655 20.1771 113.917 20.7188C114.184 21.2562 114.317 21.8783 114.317 22.585C114.317 23.2917 114.184 23.9137 113.917 24.4512C113.655 24.9844 113.28 25.3991 112.794 25.6953C112.307 25.9915 111.744 26.1396 111.105 26.1396ZM111.105 25.0098C111.507 25.0098 111.846 24.9019 112.121 24.686C112.396 24.4702 112.601 24.1803 112.736 23.8164C112.876 23.4482 112.946 23.0378 112.946 22.585C112.946 22.1322 112.876 21.7217 112.736 21.3535C112.601 20.9811 112.394 20.6849 112.114 20.4648C111.839 20.2448 111.503 20.1348 111.105 20.1348C110.699 20.1348 110.354 20.2448 110.07 20.4648C109.791 20.6849 109.582 20.9811 109.442 21.3535C109.307 21.7217 109.239 22.1322 109.239 22.585C109.239 23.0378 109.307 23.4482 109.442 23.8164C109.582 24.1803 109.791 24.4702 110.07 24.686C110.354 24.9019 110.699 25.0098 111.105 25.0098ZM116.748 26H115.39V19.1064H116.698V20.2363H116.774C116.943 19.8555 117.199 19.5571 117.542 19.3413C117.885 19.1255 118.306 19.0176 118.805 19.0176C119.283 19.0176 119.698 19.117 120.049 19.3159C120.4 19.5106 120.671 19.8026 120.862 20.1919C121.056 20.5812 121.154 21.0573 121.154 21.6201V26H119.808V21.7852C119.808 21.2858 119.679 20.8944 119.421 20.6108C119.163 20.3273 118.805 20.1855 118.348 20.1855C118.039 20.1855 117.762 20.2533 117.517 20.3887C117.275 20.5241 117.087 20.723 116.952 20.9854C116.816 21.2435 116.748 21.5524 116.748 21.9121V26ZM126.416 20.9854C126.353 20.7018 126.209 20.4818 125.985 20.3252C125.764 20.1644 125.472 20.084 125.109 20.084C124.855 20.084 124.626 20.1263 124.423 20.2109C124.22 20.2913 124.061 20.4014 123.947 20.541C123.837 20.6807 123.784 20.8372 123.788 21.0107C123.78 21.2181 123.862 21.3937 124.036 21.5376C124.214 21.6815 124.491 21.7979 124.867 21.8867L125.959 22.1406C126.594 22.2803 127.066 22.5046 127.375 22.8135C127.684 23.1182 127.842 23.516 127.851 24.0068C127.847 24.4215 127.73 24.7918 127.502 25.1177C127.277 25.4393 126.954 25.6911 126.53 25.873C126.107 26.0508 125.608 26.1396 125.032 26.1396C124.211 26.1396 123.56 25.964 123.077 25.6128C122.595 25.2616 122.311 24.7643 122.227 24.1211H123.611C123.725 24.7389 124.194 25.0479 125.02 25.0479C125.46 25.0479 125.809 24.9653 126.067 24.8003C126.329 24.631 126.463 24.4004 126.467 24.1084C126.458 23.8841 126.368 23.6979 126.194 23.5498C126.025 23.4017 125.76 23.2874 125.401 23.207L124.321 22.9785C123.699 22.8389 123.228 22.6082 122.906 22.2866C122.589 21.965 122.43 21.5651 122.43 21.0869C122.43 20.6807 122.54 20.321 122.76 20.0078C122.984 19.6947 123.297 19.4513 123.699 19.2778C124.101 19.1043 124.567 19.0176 125.096 19.0176C125.599 19.0176 126.04 19.1001 126.416 19.2651C126.797 19.4259 127.097 19.6545 127.318 19.9507C127.542 20.2469 127.677 20.5918 127.724 20.9854H126.416ZM134.504 26.127C133.903 26.127 133.376 26.0169 132.923 25.7969C132.474 25.5768 132.127 25.2721 131.882 24.8828C131.641 24.4935 131.52 24.0534 131.52 23.5625C131.52 23.2113 131.592 22.8939 131.736 22.6104C131.88 22.3226 132.077 22.0602 132.326 21.8232C132.58 21.582 132.902 21.3302 133.291 21.0679C132.957 20.6616 132.705 20.2935 132.536 19.9634C132.367 19.6291 132.282 19.2715 132.282 18.8906C132.282 18.4717 132.377 18.0972 132.568 17.7671C132.762 17.4328 133.035 17.1725 133.386 16.9863C133.742 16.8001 134.148 16.707 134.605 16.707C135.066 16.707 135.468 16.798 135.811 16.98C136.158 17.1619 136.425 17.4053 136.611 17.71C136.797 18.0146 136.89 18.349 136.89 18.7129C136.89 19.1318 136.787 19.5085 136.579 19.8428C136.376 20.1771 136.074 20.4902 135.672 20.7822L135.037 21.2456L136.878 23.4419C137.132 22.9468 137.258 22.4072 137.258 21.8232H138.477C138.477 22.4115 138.405 22.9214 138.261 23.353C138.122 23.7804 137.938 24.1401 137.709 24.4321L139.023 26H137.5L136.878 25.27C136.577 25.5493 136.215 25.763 135.792 25.9111C135.373 26.055 134.944 26.127 134.504 26.127ZM132.879 23.5244C132.879 23.7868 132.946 24.0301 133.082 24.2544C133.221 24.4787 133.414 24.6564 133.659 24.7876C133.909 24.9188 134.195 24.9844 134.516 24.9844C134.796 24.9844 135.073 24.9336 135.348 24.832C135.623 24.7262 135.879 24.576 136.116 24.3813L134.059 21.9692L133.831 22.1406C133.501 22.3818 133.259 22.6294 133.107 22.8833C132.955 23.133 132.879 23.3467 132.879 23.5244ZM133.551 18.9033C133.551 19.1149 133.615 19.335 133.742 19.5635C133.869 19.7878 134.055 20.0501 134.3 20.3506L134.859 19.957C135.13 19.7793 135.331 19.5994 135.462 19.4175C135.593 19.2313 135.659 19.0091 135.659 18.751C135.659 18.6029 135.614 18.459 135.526 18.3193C135.441 18.1797 135.32 18.0654 135.164 17.9766C135.007 17.8835 134.829 17.8369 134.631 17.8369C134.427 17.8369 134.243 17.8877 134.078 17.9893C133.913 18.0908 133.784 18.2241 133.691 18.3892C133.598 18.5542 133.551 18.7256 133.551 18.9033ZM142.68 16.8086H148.444V18.0146H144.076V20.7949H148.139V21.9883H144.076V24.7939H148.494V26H142.68V16.8086ZM149.466 24.0576C149.466 23.3424 149.707 22.8325 150.189 22.5278C150.672 22.2231 151.29 22.0433 152.043 21.9883C152.331 21.9671 152.644 21.9481 152.982 21.9312C153.325 21.91 153.615 21.8952 153.852 21.8867L153.846 21.3408C153.846 20.9473 153.727 20.6447 153.49 20.4331C153.253 20.2173 152.906 20.1094 152.449 20.1094C152.064 20.1094 151.749 20.1898 151.503 20.3506C151.258 20.5072 151.099 20.7188 151.027 20.9854H149.682C149.724 20.6045 149.866 20.266 150.107 19.9697C150.348 19.6693 150.674 19.4365 151.084 19.2715C151.499 19.1022 151.971 19.0176 152.5 19.0176C152.936 19.0176 153.355 19.0853 153.757 19.2207C154.163 19.3561 154.506 19.6016 154.785 19.957C155.064 20.3125 155.204 20.7992 155.204 21.417V26H153.884V25.0605H153.833C153.676 25.3652 153.427 25.6234 153.084 25.835C152.745 26.0465 152.314 26.1523 151.789 26.1523C151.349 26.1523 150.953 26.0698 150.602 25.9048C150.251 25.7397 149.974 25.5007 149.77 25.1875C149.567 24.8701 149.466 24.4935 149.466 24.0576ZM150.786 24.0703C150.786 24.3919 150.905 24.6395 151.142 24.813C151.383 24.9865 151.7 25.0732 152.094 25.0732C152.449 25.0732 152.76 25.0034 153.027 24.8638C153.293 24.7199 153.499 24.5295 153.643 24.2925C153.786 24.0513 153.858 23.791 153.858 23.5117L153.852 22.8833L152.233 22.9912C151.772 23.0251 151.415 23.1309 151.161 23.3086C150.911 23.4821 150.786 23.736 150.786 24.0703ZM156.582 19.1064H157.889V20.1982H157.966C158.092 19.8301 158.315 19.5402 158.632 19.3286C158.949 19.1128 159.311 19.0049 159.717 19.0049C159.912 19.0049 160.103 19.0133 160.289 19.0303V20.3252C160.213 20.3083 160.105 20.2913 159.965 20.2744C159.83 20.2575 159.701 20.249 159.578 20.249C159.269 20.249 158.99 20.3167 158.74 20.4521C158.49 20.5833 158.294 20.7674 158.15 21.0044C158.01 21.2371 157.94 21.5016 157.94 21.7979V26H156.582V19.1064ZM162.403 26H161.044V19.1064H162.352V20.2363H162.428C162.597 19.8555 162.854 19.5571 163.196 19.3413C163.539 19.1255 163.96 19.0176 164.459 19.0176C164.938 19.0176 165.352 19.117 165.704 19.3159C166.055 19.5106 166.326 19.8026 166.516 20.1919C166.711 20.5812 166.808 21.0573 166.808 21.6201V26H165.462V21.7852C165.462 21.2858 165.333 20.8944 165.075 20.6108C164.817 20.3273 164.459 20.1855 164.002 20.1855C163.694 20.1855 163.416 20.2533 163.171 20.3887C162.93 20.5241 162.741 20.723 162.606 20.9854C162.471 21.2435 162.403 21.5524 162.403 21.9121V26Z" fill="white"/>
<path d="M31.822 57.242H24.853C22.093 57.242 21.265 56.253 21.265 53.608V39.049C21.265 37.508 22.415 36.703 23.657 36.703C24.899 36.703 26.049 37.508 26.049 39.049V52.55C26.049 53.102 26.187 53.217 26.716 53.217H31.822C33.179 53.217 33.685 54.252 33.685 55.195C33.685 56.138 33.156 57.242 31.822 57.242ZM34.251 51.239V48.134C34.251 43.189 37.793 41.763 40.921 41.763C43.98 41.763 47.591 43.189 47.591 48.134V51.239C47.591 56.184 43.98 57.61 40.921 57.61C37.862 57.61 34.251 56.184 34.251 51.239ZM42.968 51.446V47.927C42.968 46.294 41.91 45.65 40.921 45.65C39.932 45.65 38.874 46.294 38.874 47.927V51.446C38.874 53.079 39.932 53.723 40.921 53.723C41.91 53.723 42.968 53.079 42.968 51.446ZM50.5034 52.895V46.409H49.7444C48.2954 46.409 47.7204 45.489 47.7204 44.523C47.7204 43.58 48.2724 42.591 49.7444 42.591H50.5034V39.808C50.5034 38.244 51.6304 37.531 52.7804 37.531C53.9304 37.531 55.0574 38.244 55.0574 39.808V42.591H56.4144C57.8864 42.591 58.4384 43.58 58.4384 44.523C58.4384 45.489 57.8634 46.409 56.4144 46.409H55.0574V52.803C55.0574 53.493 55.4024 53.654 55.7934 53.677C56.1384 53.7 56.3454 53.585 56.8054 53.585C57.5644 53.585 58.2084 54.091 58.3694 54.85C58.5764 55.793 58.1854 56.621 57.5414 57.035C57.0124 57.38 56.1154 57.61 55.3334 57.61C52.2744 57.61 50.5034 56.368 50.5034 52.895ZM63.6729 46.271C63.6729 46.777 64.1099 47.053 65.0529 47.375L66.8699 47.996C69.5379 48.916 70.6649 50.411 70.6649 52.619C70.6649 56.276 67.8129 57.61 64.4549 57.61C62.8909 57.61 60.9359 57.334 59.7169 56.184C58.9579 55.471 58.5669 54.367 59.2109 53.401C59.5329 52.918 60.0849 52.688 60.6829 52.688C61.3729 52.688 61.8329 52.964 62.1779 53.24C62.7529 53.677 63.6959 53.953 64.5929 53.953C65.4899 53.953 66.0189 53.608 66.0189 53.033C66.0189 52.458 65.5819 52.136 63.8799 51.538L62.2929 50.986C59.8319 50.135 58.9119 48.41 58.9119 46.478C58.9119 43.649 61.2809 41.763 64.8229 41.763C66.6629 41.763 67.9739 42.223 68.8479 42.752C69.7679 43.304 70.4119 44.27 70.0899 45.328C69.8139 46.202 69.1239 46.547 68.3649 46.547C67.9969 46.547 67.5369 46.386 67.3529 46.248C66.6399 45.673 65.8809 45.42 64.8919 45.42C64.0409 45.42 63.6729 45.811 63.6729 46.271ZM77.58 51.239V48.134C77.58 43.189 81.122 41.763 84.25 41.763C87.309 41.763 90.92 43.189 90.92 48.134V51.239C90.92 56.184 87.309 57.61 84.25 57.61C81.191 57.61 77.58 56.184 77.58 51.239ZM86.297 51.446V47.927C86.297 46.294 85.239 45.65 84.25 45.65C83.261 45.65 82.203 46.294 82.203 47.927V51.446C82.203 53.079 83.261 53.723 84.25 53.723C85.239 53.723 86.297 53.079 86.297 51.446ZM98.5473 57.242H93.8553V46.409H93.0733C91.6243 46.409 91.0493 45.512 91.0493 44.523C91.0493 43.557 91.6013 42.591 93.0733 42.591H93.8553V41.694C93.8553 37.991 95.6493 36.703 98.9613 36.703C99.8583 36.703 100.87 36.887 101.606 37.347C102.388 37.83 102.595 38.612 102.388 39.486C102.181 40.176 101.583 40.797 100.824 40.797C100.456 40.797 100.272 40.751 99.8813 40.682C99.6053 40.636 99.4443 40.613 99.2373 40.613C98.7773 40.613 98.5473 40.843 98.5473 41.556V42.591H99.8583C101.33 42.591 101.882 43.557 101.882 44.523C101.882 45.512 101.307 46.409 99.8583 46.409H98.5473V57.242ZM116.835 51.4H114.098V57.242H109.36V40.705C109.36 38.06 110.188 37.071 112.948 37.071H116.835C120.929 37.071 123.85 39.049 123.85 43.856V44.615C123.85 49.422 120.929 51.4 116.835 51.4ZM114.098 41.74V47.398H116.605C118.261 47.398 119.135 46.248 119.135 44.5V43.971C119.135 42.223 118.261 41.073 116.605 41.073H114.765C114.236 41.073 114.098 41.188 114.098 41.74ZM124.548 51.239V48.134C124.548 43.189 128.09 41.763 131.218 41.763C134.277 41.763 137.888 43.189 137.888 48.134V51.239C137.888 56.184 134.277 57.61 131.218 57.61C128.159 57.61 124.548 56.184 124.548 51.239ZM133.265 51.446V47.927C133.265 46.294 132.207 45.65 131.218 45.65C130.229 45.65 129.171 46.294 129.171 47.927V51.446C129.171 53.079 130.229 53.723 131.218 53.723C132.207 53.723 133.265 53.079 133.265 51.446ZM139.593 38.819C139.593 37.301 140.697 36.703 141.985 36.703C143.273 36.703 144.377 37.301 144.377 38.819C144.377 40.337 143.273 40.935 141.985 40.935C140.697 40.935 139.593 40.337 139.593 38.819ZM139.616 57.242V44.224C139.616 42.637 140.697 41.924 141.985 41.924C143.273 41.924 144.354 42.637 144.354 44.224V57.242H139.616ZM151.103 57.242H146.434V44.063C146.434 42.545 147.538 41.763 148.757 41.763C149.654 41.763 150.505 42.2 150.896 43.028C151.793 42.2 153.035 41.763 154.254 41.763C157.175 41.763 159.498 43.212 159.498 48.065V57.242H154.76V47.789C154.76 46.225 153.725 45.696 152.943 45.696C152.161 45.696 151.103 46.225 151.103 47.789V57.242ZM162.633 52.895V46.409H161.874C160.425 46.409 159.85 45.489 159.85 44.523C159.85 43.58 160.402 42.591 161.874 42.591H162.633V39.808C162.633 38.244 163.76 37.531 164.91 37.531C166.06 37.531 167.187 38.244 167.187 39.808V42.591H168.544C170.016 42.591 170.568 43.58 170.568 44.523C170.568 45.489 169.993 46.409 168.544 46.409H167.187V52.803C167.187 53.493 167.532 53.654 167.923 53.677C168.268 53.7 168.475 53.585 168.935 53.585C169.694 53.585 170.338 54.091 170.499 54.85C170.706 55.793 170.315 56.621 169.671 57.035C169.142 57.38 168.245 57.61 167.463 57.61C164.404 57.61 162.633 56.368 162.633 52.895ZM175.802 46.271C175.802 46.777 176.239 47.053 177.182 47.375L178.999 47.996C181.667 48.916 182.794 50.411 182.794 52.619C182.794 56.276 179.942 57.61 176.584 57.61C175.02 57.61 173.065 57.334 171.846 56.184C171.087 55.471 170.696 54.367 171.34 53.401C171.662 52.918 172.214 52.688 172.812 52.688C173.502 52.688 173.962 52.964 174.307 53.24C174.882 53.677 175.825 53.953 176.722 53.953C177.619 53.953 178.148 53.608 178.148 53.033C178.148 52.458 177.711 52.136 176.009 51.538L174.422 50.986C171.961 50.135 171.041 48.41 171.041 46.478C171.041 43.649 173.41 41.763 176.952 41.763C178.792 41.763 180.103 42.223 180.977 42.752C181.897 43.304 182.541 44.27 182.219 45.328C181.943 46.202 181.253 46.547 180.494 46.547C180.126 46.547 179.666 46.386 179.482 46.248C178.769 45.673 178.01 45.42 177.021 45.42C176.17 45.42 175.802 45.811 175.802 46.271ZM188.944 51.676H184.252V38.98C184.252 37.485 185.379 36.703 186.598 36.703C187.794 36.703 188.944 37.508 188.944 38.98V51.676ZM184.137 55.08C184.137 53.654 185.057 52.757 186.598 52.757C188.139 52.757 189.059 53.677 189.059 55.08C189.059 56.483 188.139 57.403 186.598 57.403C185.057 57.403 184.137 56.506 184.137 55.08Z" fill="url(#paint0_linear_4854_60453)"/>
<defs>
<linearGradient id="paint0_linear_4854_60453" x1="105.5" y1="33" x2="105.5" y2="65" gradientUnits="userSpaceOnUse">
<stop offset="0.206731" stop-color="white"/>
<stop offset="1" stop-color="#77FFDF"/>
</linearGradient>
</defs>
</svg>
