<svg width="344" height="70" viewBox="0 0 344 70" fill="none" xmlns="http://www.w3.org/2000/svg">
<rect width="344" height="70" rx="12" fill="#004B37"/>
<path d="M26.6 18.288C26.408 17.184 25.496 16.572 24.416 16.584C22.952 16.572 21.872 17.7 21.872 19.752C21.872 21.828 22.964 22.932 24.416 22.944C25.484 22.932 26.384 22.344 26.6 21.264H27.92C27.644 22.944 26.276 24.12 24.416 24.12C22.196 24.12 20.588 22.464 20.576 19.752C20.588 17.04 22.208 15.396 24.416 15.408C26.204 15.396 27.62 16.452 27.92 18.288H26.6ZM31.6652 24.12C29.8652 24.132 28.6892 22.812 28.6892 20.856C28.6892 18.864 29.8652 17.556 31.6652 17.544C33.4532 17.556 34.6292 18.864 34.6412 20.856C34.6292 22.812 33.4532 24.132 31.6652 24.12ZM29.9372 20.856C29.9492 22.056 30.5012 23.088 31.6652 23.088C32.8172 23.088 33.3692 22.056 33.3692 20.856C33.3692 19.632 32.8172 18.588 31.6652 18.6C30.5012 18.588 29.9492 19.632 29.9372 20.856ZM35.6278 24V17.64H36.8278V18.672H36.8998C37.1638 17.964 37.7998 17.556 38.6278 17.544C39.4798 17.556 40.0678 17.976 40.3558 18.672H40.4038C40.7158 17.988 41.3998 17.556 42.3238 17.544C43.4758 17.556 44.2918 18.276 44.2918 19.728V24H43.0438V19.848C43.0438 18.996 42.5038 18.636 41.8438 18.624C41.0398 18.636 40.5718 19.176 40.5718 19.944V24H39.3478V19.776C39.3358 19.092 38.8558 18.636 38.1718 18.624C37.4758 18.636 36.8758 19.224 36.8758 20.088V24H35.6278ZM45.5597 26.376V17.64H46.7837V18.672H46.8797C47.0957 18.264 47.5277 17.556 48.7037 17.544C50.2397 17.556 51.3797 18.768 51.3677 20.832C51.3797 22.884 50.2637 24.12 48.7277 24.12C47.5637 24.12 47.1077 23.424 46.8797 23.016H46.8077V26.376H45.5597ZM46.7837 20.808C46.7837 22.152 47.3717 23.064 48.4397 23.064C49.5437 23.064 50.1077 22.092 50.1197 20.808C50.1077 19.56 49.5557 18.612 48.4397 18.624C47.3597 18.612 46.7837 19.488 46.7837 20.808ZM53.6224 15.504V24H52.3744V15.504H53.6224ZM57.6595 24.12C55.7875 24.132 54.6355 22.836 54.6355 20.856C54.6355 18.9 55.7995 17.556 57.5635 17.544C59.0275 17.556 60.4075 18.456 60.3955 20.76V21.192H55.8835C55.9075 22.416 56.6155 23.1 57.6835 23.088C58.3795 23.1 58.8475 22.788 59.0515 22.392H60.3235C60.0355 23.436 59.0635 24.132 57.6595 24.12ZM55.8835 20.256H59.1715C59.1715 19.296 58.5475 18.576 57.5875 18.576C56.5915 18.576 55.9435 19.356 55.8835 20.256ZM64.3743 17.64V18.624H63.0783V22.128C63.0663 22.848 63.4263 22.968 63.8223 22.968C64.0143 22.98 64.2903 22.956 64.4463 22.944V24.024C64.2903 24.06 64.0263 24.084 63.6783 24.096C62.6943 24.084 61.8183 23.544 61.8303 22.392V18.624H60.8943V17.64H61.8303V16.104H63.0783V17.64H64.3743ZM68.0193 24.12C66.1473 24.132 64.9953 22.836 64.9953 20.856C64.9953 18.9 66.1593 17.556 67.9233 17.544C69.3873 17.556 70.7673 18.456 70.7553 20.76V21.192H66.2433C66.2673 22.416 66.9753 23.1 68.0433 23.088C68.7393 23.1 69.2073 22.788 69.4113 22.392H70.6833C70.3953 23.436 69.4233 24.132 68.0193 24.12ZM66.2433 20.256H69.5313C69.5313 19.296 68.9073 18.576 67.9473 18.576C66.9513 18.576 66.3033 19.356 66.2433 20.256ZM74.5438 15.504H76.1038L78.8158 22.08H78.9118L81.5998 15.504H83.1598V24H81.9358V17.88H81.8638L79.3678 23.976H78.3358L75.8398 17.856H75.7678V24H74.5438V15.504ZM84.5555 24V17.64H85.8035V24H84.5555ZM84.3875 15.912C84.3755 15.504 84.7355 15.168 85.1795 15.168C85.5995 15.168 85.9475 15.504 85.9475 15.912C85.9475 16.32 85.5995 16.656 85.1795 16.656C84.7355 16.656 84.3755 16.32 84.3875 15.912ZM90.6806 19.368C90.5606 18.864 90.1526 18.54 89.4566 18.528C88.7486 18.54 88.2446 18.912 88.2326 19.392C88.2446 19.764 88.5446 20.04 89.2406 20.208L90.2486 20.424C91.4246 20.7 91.9886 21.264 92.0006 22.152C91.9886 23.304 91.0166 24.132 89.3846 24.12C87.8606 24.132 86.9606 23.448 86.7926 22.272H88.0886C88.1966 22.836 88.6286 23.124 89.3846 23.136C90.1886 23.124 90.7166 22.788 90.7046 22.248C90.7166 21.84 90.4046 21.576 89.7206 21.432L88.7366 21.216C87.5966 20.952 86.9966 20.34 86.9846 19.464C86.9966 18.336 87.9806 17.556 89.4566 17.544C90.8726 17.556 91.7606 18.276 91.8806 19.368H90.6806ZM96.5578 19.368C96.4378 18.864 96.0298 18.54 95.3338 18.528C94.6258 18.54 94.1218 18.912 94.1098 19.392C94.1218 19.764 94.4218 20.04 95.1178 20.208L96.1258 20.424C97.3018 20.7 97.8658 21.264 97.8778 22.152C97.8658 23.304 96.8938 24.132 95.2618 24.12C93.7378 24.132 92.8378 23.448 92.6698 22.272H93.9658C94.0738 22.836 94.5058 23.124 95.2618 23.136C96.0658 23.124 96.5938 22.788 96.5818 22.248C96.5938 21.84 96.2818 21.576 95.5978 21.432L94.6138 21.216C93.4738 20.952 92.8738 20.34 92.8618 19.464C92.8738 18.336 93.8578 17.556 95.3338 17.544C96.7498 17.556 97.6378 18.276 97.7578 19.368H96.5578ZM101.547 24.12C99.7469 24.132 98.5709 22.812 98.5709 20.856C98.5709 18.864 99.7469 17.556 101.547 17.544C103.335 17.556 104.511 18.864 104.523 20.856C104.511 22.812 103.335 24.132 101.547 24.12ZM99.8189 20.856C99.8309 22.056 100.383 23.088 101.547 23.088C102.699 23.088 103.251 22.056 103.251 20.856C103.251 19.632 102.699 18.588 101.547 18.6C100.383 18.588 99.8309 19.632 99.8189 20.856ZM106.758 20.232V24H105.51V17.64H106.71V18.672H106.782C107.082 18 107.706 17.556 108.654 17.544C109.962 17.556 110.826 18.384 110.838 19.944V24H109.566V20.112C109.578 19.188 109.074 18.636 108.246 18.624C107.37 18.636 106.758 19.212 106.758 20.232ZM115.689 19.368C115.569 18.864 115.161 18.54 114.465 18.528C113.757 18.54 113.253 18.912 113.241 19.392C113.253 19.764 113.553 20.04 114.249 20.208L115.257 20.424C116.433 20.7 116.997 21.264 117.009 22.152C116.997 23.304 116.025 24.132 114.393 24.12C112.869 24.132 111.969 23.448 111.801 22.272H113.097C113.205 22.836 113.637 23.124 114.393 23.136C115.197 23.124 115.725 22.788 115.713 22.248C115.725 21.84 115.413 21.576 114.729 21.432L113.745 21.216C112.605 20.952 112.005 20.34 111.993 19.464C112.005 18.336 112.989 17.556 114.465 17.544C115.881 17.556 116.769 18.276 116.889 19.368H115.689ZM123.152 24.12C121.448 24.12 120.392 23.112 120.392 21.744C120.392 20.724 121.064 20.112 122.036 19.452C121.496 18.792 121.1 18.192 121.088 17.424C121.1 16.26 121.94 15.42 123.248 15.432C124.544 15.42 125.348 16.284 125.36 17.28C125.348 18.084 124.928 18.672 124.232 19.176L123.644 19.62L125.336 21.636C125.552 21.204 125.696 20.7 125.696 20.136H126.824C126.812 21.312 126.476 22.068 126.104 22.548L127.328 24H125.912L125.336 23.328C124.772 23.856 123.92 24.12 123.152 24.12ZM121.64 21.72C121.64 22.44 122.24 23.064 123.152 23.064C123.668 23.064 124.196 22.86 124.628 22.5L122.744 20.292L122.528 20.448C121.856 20.928 121.64 21.444 121.64 21.72ZM122.264 17.448C122.264 17.88 122.576 18.312 122.96 18.792L123.488 18.408C123.932 18.12 124.208 17.808 124.208 17.304C124.208 16.908 123.836 16.464 123.272 16.464C122.684 16.464 122.264 16.956 122.264 17.448ZM130.691 24V15.504H136.019V16.632H131.987V19.2H135.731V20.304H131.987V22.896H136.067V24H130.691ZM136.933 22.2C136.945 20.76 138.181 20.376 139.309 20.304C139.741 20.268 140.713 20.22 140.989 20.208V19.704C140.989 18.984 140.557 18.564 139.693 18.552C138.961 18.564 138.517 18.9 138.397 19.368H137.149C137.257 18.324 138.241 17.556 139.741 17.544C140.761 17.556 142.237 17.928 142.237 19.776V24H141.013V23.136H140.965C140.737 23.604 140.149 24.144 139.093 24.144C137.881 24.144 136.945 23.448 136.933 22.2ZM138.157 22.224C138.169 22.824 138.673 23.136 139.357 23.136C140.389 23.136 141.001 22.464 140.989 21.696V21.12L139.501 21.216C138.685 21.276 138.169 21.588 138.157 22.224ZM143.509 24V17.64H144.709V18.648H144.781C145.009 17.964 145.657 17.544 146.389 17.544C146.545 17.544 146.797 17.556 146.917 17.568V18.768C146.821 18.732 146.533 18.684 146.269 18.696C145.405 18.684 144.757 19.296 144.757 20.112V24H143.509ZM148.865 20.232V24H147.617V17.64H148.817V18.672H148.889C149.189 18 149.813 17.556 150.761 17.544C152.069 17.556 152.933 18.384 152.945 19.944V24H151.673V20.112C151.685 19.188 151.181 18.636 150.353 18.624C149.477 18.636 148.865 19.212 148.865 20.232Z" fill="white"/>
<path d="M30.794 52.134H24.431C21.911 52.134 21.155 51.231 21.155 48.816V35.523C21.155 34.116 22.205 33.381 23.339 33.381C24.473 33.381 25.523 34.116 25.523 35.523V47.85C25.523 48.354 25.649 48.459 26.132 48.459H30.794C32.033 48.459 32.495 49.404 32.495 50.265C32.495 51.126 32.012 52.134 30.794 52.134ZM33.0118 46.653V43.818C33.0118 39.303 36.2458 38.001 39.1018 38.001C41.8948 38.001 45.1918 39.303 45.1918 43.818V46.653C45.1918 51.168 41.8948 52.47 39.1018 52.47C36.3088 52.47 33.0118 51.168 33.0118 46.653ZM40.9708 46.842V43.629C40.9708 42.138 40.0048 41.55 39.1018 41.55C38.1988 41.55 37.2328 42.138 37.2328 43.629V46.842C37.2328 48.333 38.1988 48.921 39.1018 48.921C40.0048 48.921 40.9708 48.333 40.9708 46.842ZM47.8509 48.165V42.243H47.1579C45.8349 42.243 45.3099 41.403 45.3099 40.521C45.3099 39.66 45.8139 38.757 47.1579 38.757H47.8509V36.216C47.8509 34.788 48.8799 34.137 49.9299 34.137C50.9799 34.137 52.0089 34.788 52.0089 36.216V38.757H53.2479C54.5919 38.757 55.0959 39.66 55.0959 40.521C55.0959 41.403 54.5709 42.243 53.2479 42.243H52.0089V48.081C52.0089 48.711 52.3239 48.858 52.6809 48.879C52.9959 48.9 53.1849 48.795 53.6049 48.795C54.2979 48.795 54.8859 49.257 55.0329 49.95C55.2219 50.811 54.8649 51.567 54.2769 51.945C53.7939 52.26 52.9749 52.47 52.2609 52.47C49.4679 52.47 47.8509 51.336 47.8509 48.165ZM59.8752 42.117C59.8752 42.579 60.2742 42.831 61.1352 43.125L62.7942 43.692C65.2302 44.532 66.2592 45.897 66.2592 47.913C66.2592 51.252 63.6552 52.47 60.5892 52.47C59.1612 52.47 57.3762 52.218 56.2632 51.168C55.5702 50.517 55.2132 49.509 55.8012 48.627C56.0952 48.186 56.5992 47.976 57.1452 47.976C57.7752 47.976 58.1952 48.228 58.5102 48.48C59.0352 48.879 59.8962 49.131 60.7152 49.131C61.5342 49.131 62.0172 48.816 62.0172 48.291C62.0172 47.766 61.6182 47.472 60.0642 46.926L58.6152 46.422C56.3682 45.645 55.5282 44.07 55.5282 42.306C55.5282 39.723 57.6912 38.001 60.9252 38.001C62.6052 38.001 63.8022 38.421 64.6002 38.904C65.4402 39.408 66.0282 40.29 65.7342 41.256C65.4822 42.054 64.8522 42.369 64.1592 42.369C63.8232 42.369 63.4032 42.222 63.2352 42.096C62.5842 41.571 61.8912 41.34 60.9882 41.34C60.2112 41.34 59.8752 41.697 59.8752 42.117ZM72.573 46.653V43.818C72.573 39.303 75.807 38.001 78.663 38.001C81.456 38.001 84.753 39.303 84.753 43.818V46.653C84.753 51.168 81.456 52.47 78.663 52.47C75.87 52.47 72.573 51.168 72.573 46.653ZM80.532 46.842V43.629C80.532 42.138 79.566 41.55 78.663 41.55C77.76 41.55 76.794 42.138 76.794 43.629V46.842C76.794 48.333 77.76 48.921 78.663 48.921C79.566 48.921 80.532 48.333 80.532 46.842ZM91.7171 52.134H87.4331V42.243H86.7191C85.3961 42.243 84.8711 41.424 84.8711 40.521C84.8711 39.639 85.3751 38.757 86.7191 38.757H87.4331V37.938C87.4331 34.557 89.0711 33.381 92.0951 33.381C92.9141 33.381 93.8381 33.549 94.5101 33.969C95.2241 34.41 95.4131 35.124 95.2241 35.922C95.0351 36.552 94.4891 37.119 93.7961 37.119C93.4601 37.119 93.2921 37.077 92.9351 37.014C92.6831 36.972 92.5361 36.951 92.3471 36.951C91.9271 36.951 91.7171 37.161 91.7171 37.812V38.757H92.9141C94.2581 38.757 94.7621 39.639 94.7621 40.521C94.7621 41.424 94.2371 42.243 92.9141 42.243H91.7171V52.134ZM108.415 46.8H105.916V52.134H101.59V37.035C101.59 34.62 102.346 33.717 104.866 33.717H108.415C112.153 33.717 114.82 35.523 114.82 39.912V40.605C114.82 44.994 112.153 46.8 108.415 46.8ZM105.916 37.98V43.146H108.205C109.717 43.146 110.515 42.096 110.515 40.5V40.017C110.515 38.421 109.717 37.371 108.205 37.371H106.525C106.042 37.371 105.916 37.476 105.916 37.98ZM115.456 46.653V43.818C115.456 39.303 118.69 38.001 121.546 38.001C124.339 38.001 127.636 39.303 127.636 43.818V46.653C127.636 51.168 124.339 52.47 121.546 52.47C118.753 52.47 115.456 51.168 115.456 46.653ZM123.415 46.842V43.629C123.415 42.138 122.449 41.55 121.546 41.55C120.643 41.55 119.677 42.138 119.677 43.629V46.842C119.677 48.333 120.643 48.921 121.546 48.921C122.449 48.921 123.415 48.333 123.415 46.842ZM129.194 35.313C129.194 33.927 130.202 33.381 131.378 33.381C132.554 33.381 133.562 33.927 133.562 35.313C133.562 36.699 132.554 37.245 131.378 37.245C130.202 37.245 129.194 36.699 129.194 35.313ZM129.215 52.134V40.248C129.215 38.799 130.202 38.148 131.378 38.148C132.554 38.148 133.541 38.799 133.541 40.248V52.134H129.215ZM139.702 52.134H135.439V40.101C135.439 38.715 136.447 38.001 137.56 38.001C138.379 38.001 139.156 38.4 139.513 39.156C140.332 38.4 141.466 38.001 142.579 38.001C145.246 38.001 147.367 39.324 147.367 43.755V52.134H143.041V43.503C143.041 42.075 142.096 41.592 141.382 41.592C140.668 41.592 139.702 42.075 139.702 43.503V52.134ZM150.23 48.165V42.243H149.537C148.214 42.243 147.689 41.403 147.689 40.521C147.689 39.66 148.193 38.757 149.537 38.757H150.23V36.216C150.23 34.788 151.259 34.137 152.309 34.137C153.359 34.137 154.388 34.788 154.388 36.216V38.757H155.627C156.971 38.757 157.475 39.66 157.475 40.521C157.475 41.403 156.95 42.243 155.627 42.243H154.388V48.081C154.388 48.711 154.703 48.858 155.06 48.879C155.375 48.9 155.564 48.795 155.984 48.795C156.677 48.795 157.265 49.257 157.412 49.95C157.601 50.811 157.244 51.567 156.656 51.945C156.173 52.26 155.354 52.47 154.64 52.47C151.847 52.47 150.23 51.336 150.23 48.165ZM162.254 42.117C162.254 42.579 162.653 42.831 163.514 43.125L165.173 43.692C167.609 44.532 168.638 45.897 168.638 47.913C168.638 51.252 166.034 52.47 162.968 52.47C161.54 52.47 159.755 52.218 158.642 51.168C157.949 50.517 157.592 49.509 158.18 48.627C158.474 48.186 158.978 47.976 159.524 47.976C160.154 47.976 160.574 48.228 160.889 48.48C161.414 48.879 162.275 49.131 163.094 49.131C163.913 49.131 164.396 48.816 164.396 48.291C164.396 47.766 163.997 47.472 162.443 46.926L160.994 46.422C158.747 45.645 157.907 44.07 157.907 42.306C157.907 39.723 160.07 38.001 163.304 38.001C164.984 38.001 166.181 38.421 166.979 38.904C167.819 39.408 168.407 40.29 168.113 41.256C167.861 42.054 167.231 42.369 166.538 42.369C166.202 42.369 165.782 42.222 165.614 42.096C164.963 41.571 164.27 41.34 163.367 41.34C162.59 41.34 162.254 41.697 162.254 42.117ZM174.253 47.052H169.969V35.46C169.969 34.095 170.998 33.381 172.111 33.381C173.203 33.381 174.253 34.116 174.253 35.46V47.052ZM169.864 50.16C169.864 48.858 170.704 48.039 172.111 48.039C173.518 48.039 174.358 48.879 174.358 50.16C174.358 51.441 173.518 52.281 172.111 52.281C170.704 52.281 169.864 51.462 169.864 50.16Z" fill="url(#paint0_linear_5003_66351)"/>
<defs>
<linearGradient id="paint0_linear_5003_66351" x1="98" y1="30" x2="98" y2="59" gradientUnits="userSpaceOnUse">
<stop offset="0.206731" stop-color="white"/>
<stop offset="1" stop-color="#77FFDF"/>
</linearGradient>
</defs>
</svg>
