<svg width="375" height="200" viewBox="0 0 375 200" fill="none" xmlns="http://www.w3.org/2000/svg">
<rect width="375" height="200" fill="#004B37"/>
<path d="M86.8339 82.795H62.4039C60.3039 82.795 59.4639 81.325 59.4639 79.89C59.4639 78.49 60.2689 76.95 62.4039 76.95H86.8339C88.9689 76.95 89.7739 78.49 89.7739 79.89C89.7739 81.325 88.9339 82.795 86.8339 82.795ZM78.1889 102.22H88.0589C90.1589 102.22 90.9989 103.655 90.9989 105.09C90.9989 106.595 90.1239 107.96 88.0589 107.96H61.1789C59.1139 107.96 58.2389 106.595 58.2389 105.09C58.2389 103.655 59.0789 102.22 61.1789 102.22H71.0489V96.34V96.235H61.9839C59.8839 96.235 59.0439 94.87 59.0439 93.435C59.0439 92.035 59.8489 90.67 61.9839 90.67H64.3639V87.625C64.3639 85.14 65.8339 84.09 67.9689 84.09C70.0689 84.09 71.5039 85.175 71.5039 87.625V90.67H77.7339V87.625C77.7339 85.14 79.2039 84.09 81.3389 84.09C83.4389 84.09 84.8739 85.175 84.8739 87.625V90.67H87.2539C89.3889 90.67 90.1939 92.035 90.1939 93.435C90.1939 94.87 89.3539 96.235 87.2539 96.235H78.1889V96.34V102.22ZM124.319 100.61H117.319V79.26C117.319 76.985 118.964 75.795 120.819 75.795C122.674 75.795 124.319 76.985 124.319 79.26V100.61ZM93.4489 87.275V84.3C93.4489 79.085 97.6489 76.355 103.389 76.355C109.129 76.355 113.364 79.05 113.364 84.3V87.275C113.364 92.525 109.129 95.22 103.424 95.22C97.6839 95.22 93.4489 92.525 93.4489 87.275ZM100.274 84.335V87.24C100.274 88.955 101.674 90.005 103.389 90.005C105.104 90.005 106.574 88.955 106.574 87.24V84.335C106.574 82.585 105.104 81.535 103.389 81.57C101.674 81.605 100.274 82.62 100.274 84.335ZM122.359 108.66H100.239C96.3188 108.66 95.2689 107.295 95.2689 103.55V99.875C95.2689 97.6 96.9139 96.515 98.8739 96.515C100.834 96.515 102.374 97.635 102.374 99.875V102.465C102.374 103.13 102.549 103.27 103.214 103.27H122.359C124.459 103.27 125.264 104.53 125.264 105.93C125.264 107.365 124.424 108.66 122.359 108.66ZM133.979 76.845H155.189C157.149 76.845 157.884 78.28 157.884 79.575C157.884 80.905 157.114 82.27 155.189 82.27H136.569C135.869 82.27 135.519 82.55 135.519 83.18V84.545H154.979C156.939 84.545 157.674 85.91 157.674 87.17C157.674 88.465 156.904 89.795 154.979 89.795H135.519V91.125C135.519 91.825 135.869 92.07 136.569 92.07H155.749C157.709 92.07 158.444 93.47 158.444 94.765C158.444 96.095 157.674 97.46 155.749 97.46H133.979C129.919 97.46 128.414 95.78 128.414 92V82.305C128.414 78.525 129.919 76.845 133.979 76.845ZM129.849 102.045H156.589C158.759 102.045 159.599 103.585 159.599 105.02C159.599 106.49 158.724 107.96 156.589 107.96H129.849C127.714 107.96 126.839 106.49 126.839 105.02C126.839 103.585 127.679 102.045 129.849 102.045ZM191.869 88.045H193.129C195.264 88.045 195.894 89.69 195.894 91.09C195.894 92.525 195.229 94.135 193.129 94.135H191.869V108.66H184.869V79.26C184.869 76.985 186.514 75.795 188.369 75.795C190.224 75.795 191.869 76.985 191.869 79.26V88.045ZM165.164 77.055H175.524C179.374 77.055 180.844 78.84 180.844 82.025V90.25C180.844 102.185 173.599 106.84 165.129 107.19C163.239 107.295 161.524 106.245 161.629 104.18C161.699 102.71 162.574 101.59 164.324 101.38C169.854 100.75 173.949 98.405 173.949 90.215V83.95C173.949 83.46 173.634 83.075 173.074 83.075H165.164C163.064 83.075 162.049 81.57 162.049 80.1C162.049 78.665 163.029 77.055 165.164 77.055ZM235.278 88.045H236.538C238.673 88.045 239.303 89.69 239.303 91.09C239.303 92.525 238.638 94.135 236.538 94.135H235.278V108.66H228.278V79.26C228.278 76.985 229.923 75.795 231.778 75.795C233.633 75.795 235.278 76.985 235.278 79.26V88.045ZM219.073 101.765H224.113C226.213 101.765 227.053 103.235 227.053 104.67C227.053 106.14 226.178 107.505 224.113 107.505H207.488C205.423 107.505 204.548 106.14 204.548 104.67C204.548 103.235 205.388 101.765 207.488 101.765H212.283V96.41C208.223 95.5 205.423 92.77 205.423 88.01V85.14C205.423 79.155 209.833 76.39 215.573 76.39C221.278 76.39 225.653 79.155 225.653 85.14V88.01C225.653 92.7 222.958 95.395 219.073 96.375V101.765ZM212.248 84.86V88.29C212.248 90.495 213.893 91.335 215.573 91.335C217.218 91.335 218.863 90.495 218.863 88.29V84.86C218.863 82.69 217.218 81.815 215.573 81.815C213.893 81.815 212.248 82.69 212.248 84.86ZM267.828 97.53H247.073C242.523 97.53 240.108 95.115 240.108 91.335V90.67C240.108 86.89 242.523 84.58 247.073 84.58H262.333V83.425C262.333 82.97 262.193 82.445 261.388 82.445H243.188C241.508 82.445 240.493 81.08 240.493 79.645C240.493 78.245 241.508 76.845 243.188 76.845H263.418C268.248 76.845 269.613 79.05 269.613 82.375V89.9H248.858C248.053 89.9 247.668 90.285 247.668 90.985C247.668 91.72 248.053 92.035 248.858 92.035H267.828C269.788 92.035 270.523 93.505 270.523 94.8C270.523 96.13 269.753 97.53 267.828 97.53ZM241.858 102.045H268.598C270.768 102.045 271.608 103.585 271.608 105.02C271.608 106.49 270.733 107.96 268.598 107.96H241.858C239.723 107.96 238.848 106.49 238.848 105.02C238.848 103.585 239.688 102.045 241.858 102.045ZM302.128 97.53H281.373C276.823 97.53 274.408 95.115 274.408 91.335V90.67C274.408 86.89 276.823 84.58 281.373 84.58H296.633V83.425C296.633 82.97 296.493 82.445 295.688 82.445H277.488C275.808 82.445 274.793 81.08 274.793 79.645C274.793 78.245 275.808 76.845 277.488 76.845H297.718C302.548 76.845 303.913 79.05 303.913 82.375V89.9H283.158C282.353 89.9 281.968 90.285 281.968 90.985C281.968 91.72 282.353 92.035 283.158 92.035H302.128C304.088 92.035 304.823 93.505 304.823 94.8C304.823 96.13 304.053 97.53 302.128 97.53ZM276.158 102.045H302.898C305.068 102.045 305.908 103.585 305.908 105.02C305.908 106.49 305.033 107.96 302.898 107.96H276.158C274.023 107.96 273.148 106.49 273.148 105.02C273.148 103.585 273.988 102.045 276.158 102.045ZM315.673 99.42H308.533V80.1C308.533 77.825 310.248 76.635 312.103 76.635C313.923 76.635 315.673 77.86 315.673 80.1V99.42ZM308.358 104.6C308.358 102.43 309.758 101.065 312.103 101.065C314.448 101.065 315.848 102.465 315.848 104.6C315.848 106.735 314.448 108.135 312.103 108.135C309.758 108.135 308.358 106.77 308.358 104.6Z" fill="url(#paint0_linear_4758_58534)"/>
<path d="M123.393 45.5361V51.2969H125.784V52.5918H123.393V60.4443H121.816V45.5361H123.393ZM119.392 46.9639V48.2422H114.014V55.4307C116.512 55.4224 118.388 55.3145 120.505 54.9326L120.704 56.2607C118.38 56.6758 116.404 56.7588 113.632 56.7422H112.436V46.9639H119.392ZM139.954 47.6445V48.9395H137.845V50.832H139.954V52.1436H137.845V54.3184H136.268V45.5361H137.845V47.6445H139.954ZM130.342 46.3994C132.616 46.3994 134.293 47.8438 134.309 49.9355C134.293 52.0107 132.616 53.4551 130.342 53.4717C128.067 53.4551 126.374 52.0107 126.39 49.9355C126.374 47.8438 128.067 46.3994 130.342 46.3994ZM130.342 47.7275C128.947 47.7275 127.918 48.624 127.934 49.9355C127.918 51.2637 128.947 52.127 130.342 52.1436C131.736 52.127 132.765 51.2637 132.765 49.9355C132.765 48.624 131.736 47.7275 130.342 47.7275ZM133.048 54.7168C136.086 54.7168 137.978 55.7627 137.978 57.5557C137.978 59.332 136.086 60.3945 133.048 60.3779C129.976 60.3945 128.051 59.332 128.051 57.5557C128.051 55.7627 129.976 54.7168 133.048 54.7168ZM133.048 55.9951C130.889 55.9951 129.611 56.5596 129.628 57.5557C129.611 58.5684 130.889 59.1162 133.048 59.1162C135.189 59.1162 136.434 58.5684 136.434 57.5557C136.434 56.5596 135.189 55.9951 133.048 55.9951ZM152.198 45.5527V50.334H154.356V51.6455H152.198V56.6758H150.621V45.5527H152.198ZM149.392 47.2793V48.5576H140.527V47.2793H144.179V45.5361H145.756V47.2793H149.392ZM144.96 49.2715C147.101 49.2715 148.562 50.3838 148.562 52.0771C148.562 53.7705 147.101 54.8662 144.96 54.8662C142.801 54.8662 141.34 53.7705 141.34 52.0771C141.34 50.3838 142.801 49.2715 144.96 49.2715ZM144.96 50.4834C143.698 50.4834 142.851 51.0977 142.868 52.0771C142.851 53.04 143.698 53.6377 144.96 53.6377C146.221 53.6377 147.068 53.04 147.085 52.0771C147.068 51.0977 146.221 50.4834 144.96 50.4834ZM152.829 58.8174V60.0957H142.768V55.7959H144.345V58.8174H152.829ZM166.476 46.9639V56.7422H159.503V46.9639H166.476ZM161.064 48.209V55.4639H164.948V48.209H161.064ZM170.991 45.5361V60.4443H169.414V45.5361H170.991ZM178.272 48.2256C178.272 50.3672 179.616 52.4092 181.824 53.2725L180.961 54.501C179.334 53.8452 178.139 52.542 177.508 50.915C176.869 52.6582 175.599 54.0361 173.872 54.7334L173.025 53.4717C175.316 52.625 176.694 50.5 176.711 48.2256V46.3828H178.272V48.2256ZM185.427 45.5527V56.626H183.85V51.9443H180.961V50.666H183.85V48.9395H180.961V47.6611H183.85V45.5527H185.427ZM185.759 58.8174V60.0957H175.715V55.5137H177.309V58.8174H185.759ZM200.178 45.5361V60.4111H198.667V45.5361H200.178ZM197.156 45.8184V59.6807H195.645V52.5088H193.969C193.836 55.4141 192.591 57.2236 190.748 57.207C188.806 57.2236 187.544 55.1816 187.544 51.9609C187.544 48.7402 188.806 46.7148 190.748 46.7314C192.558 46.7148 193.786 48.4331 193.969 51.2305H195.645V45.8184H197.156ZM190.748 48.209C189.669 48.209 189.005 49.5869 189.005 51.9609C189.005 54.335 189.669 55.7129 190.748 55.7129C191.844 55.7129 192.524 54.335 192.524 51.9609C192.524 49.5869 191.844 48.209 190.748 48.209ZM210.754 48.6074C210.754 50.334 212.098 51.9277 214.373 52.5752L213.642 53.8037C211.924 53.2974 210.654 52.2515 209.99 50.8984C209.342 52.3926 208.039 53.5464 206.271 54.0859L205.507 52.8574C207.782 52.1934 209.193 50.4834 209.193 48.6074V48.458H205.956V47.1963H209.193V45.4697H210.77V47.1963H213.991V48.458H210.754V48.6074ZM217.228 45.5361V49.2217H219.386V50.5332H217.228V54.3184H215.651V45.5361H217.228ZM217.228 54.9824V60.2285H207.732V54.9824H217.228ZM209.276 56.2275V58.9502H215.668V56.2275H209.276ZM223.927 46.6484C225.28 46.6484 226.401 47.4287 227.065 48.7734H230.734V45.5361H232.294V60.4443H230.734V54.7334H227.164C226.525 56.2275 225.355 57.0908 223.927 57.0908C221.703 57.0908 220.142 55.0654 220.159 51.8613C220.142 48.6738 221.703 46.6484 223.927 46.6484ZM223.927 48.0596C222.582 48.0596 221.653 49.5205 221.653 51.8613C221.653 54.2188 222.582 55.6797 223.927 55.6797C225.272 55.6797 226.202 54.2188 226.202 51.8613C226.202 49.5205 225.272 48.0596 223.927 48.0596ZM227.513 50.0684C227.621 50.6162 227.696 51.2139 227.696 51.8613C227.696 52.4258 227.646 52.9487 227.546 53.4385H230.734V50.0684H227.513ZM245.833 45.5361V51.5625H248.224V52.874H245.833V60.4111H244.273V45.5361H245.833ZM242.978 47.8604V49.1553H234.162V47.8604H237.831V45.7354H239.408V47.8604H242.978ZM238.628 50.251C240.753 50.251 242.314 51.6787 242.33 53.7041C242.314 55.7461 240.753 57.1572 238.628 57.1738C236.487 57.1572 234.926 55.7461 234.926 53.7041C234.926 51.6787 236.487 50.251 238.628 50.251ZM238.628 51.5459C237.366 51.5459 236.42 52.4258 236.437 53.7041C236.42 54.999 237.366 55.8623 238.628 55.8457C239.89 55.8623 240.82 54.999 240.82 53.7041C240.82 52.4258 239.89 51.5459 238.628 51.5459ZM256.185 46.7979V48.0596H259.422V45.5527H260.999V56.3936H259.422V52.542H256.185V53.8369H249.278V46.7979H256.185ZM250.839 48.0762V52.5918H254.641V48.0762H250.839ZM261.331 58.8174V60.0957H251.287V55.3975H252.881V58.8174H261.331ZM256.185 51.2471H259.422V49.3545H256.185V51.2471Z" fill="white"/>
<path d="M77.6746 150.796V158.273H72.3425V150.796H77.6746ZM73.5359 151.748V157.296H76.5066V151.748H73.5359ZM81.1277 149.704V161.104H79.9216V149.704H81.1277ZM86.6948 151.761C86.6948 153.398 87.7232 154.96 89.4116 155.62L88.7515 156.56C87.5073 156.058 86.5933 155.062 86.1109 153.817C85.6221 155.15 84.6509 156.204 83.3306 156.737L82.6831 155.772C84.4351 155.125 85.4888 153.5 85.5015 151.761V150.352H86.6948V151.761ZM92.1665 149.717V158.185H90.9605V154.604H88.7515V153.627H90.9605V152.307H88.7515V151.329H90.9605V149.717H92.1665ZM92.4204 159.86V160.838H84.7398V157.334H85.9585V159.86H92.4204ZM98.8382 149.895C101.403 149.895 102.901 150.58 102.901 151.85C102.901 153.119 101.403 153.817 98.8382 153.817C96.2737 153.817 94.7757 153.119 94.7757 151.85C94.7757 150.58 96.2737 149.895 98.8382 149.895ZM98.8382 150.783C97.0227 150.783 96.0198 151.177 96.0325 151.85C96.0198 152.548 97.0227 152.916 98.8382 152.916C100.654 152.916 101.657 152.548 101.657 151.85C101.657 151.177 100.654 150.783 98.8382 150.783ZM104.031 154.516V155.48H93.6585V154.516H104.031ZM102.723 156.356V159.022H96.096V160.038H103.04V160.965H94.9153V158.146H101.53V157.258H94.9026V156.356H102.723ZM111.001 150.212C112.664 150.212 113.832 151.126 113.845 152.484C113.832 153.64 112.956 154.49 111.636 154.693V155.696C112.645 155.646 113.654 155.557 114.594 155.417L114.682 156.306C112.296 156.737 109.617 156.775 107.662 156.775L107.535 155.798C108.386 155.804 109.382 155.798 110.429 155.76V154.706C109.071 154.516 108.157 153.659 108.17 152.484C108.157 151.126 109.338 150.212 111.001 150.212ZM111.001 151.139C109.998 151.139 109.287 151.659 109.3 152.484C109.287 153.284 109.998 153.817 111.001 153.817C112.016 153.817 112.702 153.284 112.702 152.484C112.702 151.659 112.016 151.139 111.001 151.139ZM116.498 149.717V153.475H118.123V154.49H116.498V158.413H115.292V149.717H116.498ZM116.904 159.848V160.838H109.147V157.651H110.353V159.848H116.904ZM128.933 158.705V159.721H118.523V158.705H121.367V156.699H119.793V153.081H126.47V151.494H119.767V150.504H127.664V154.059H120.986V155.709H127.93V156.699H126.204V158.705H128.933ZM122.535 158.705H125.023V156.699H122.535V158.705ZM138.36 149.704V154.312H140.188V155.315H138.36V161.079H137.166V149.704H138.36ZM136.176 151.481V152.472H129.435V151.481H132.241V149.856H133.447V151.481H136.176ZM132.85 153.31C134.475 153.31 135.668 154.401 135.681 155.95C135.668 157.512 134.475 158.591 132.85 158.604C131.212 158.591 130.019 157.512 130.019 155.95C130.019 154.401 131.212 153.31 132.85 153.31ZM132.85 154.3C131.885 154.3 131.161 154.973 131.174 155.95C131.161 156.94 131.885 157.601 132.85 157.588C133.815 157.601 134.526 156.94 134.526 155.95C134.526 154.973 133.815 154.3 132.85 154.3ZM146.275 150.669V151.634H148.751V149.717H149.957V158.007H148.751V155.062H146.275V156.052H140.994V150.669H146.275ZM142.188 151.646V155.1H145.095V151.646H142.188ZM150.211 159.86V160.838H142.53V157.245H143.749V159.86H150.211ZM146.275 154.071H148.751V152.624H146.275V154.071ZM164.773 158.692V159.721H154.363V158.692H158.933V156.268H155.277V155.315H156.978V151.735H155.252V150.758H163.821V151.735H162.082V155.315H163.783V156.268H160.127V158.692H164.773ZM158.171 155.315H160.901V151.735H158.171V155.315ZM174.771 149.717V157.981H173.565V149.717H174.771ZM175.114 159.86V160.838H167.331V157.144H168.55V159.86H175.114ZM168.601 150.479C170.315 150.479 171.622 151.646 171.622 153.297C171.622 154.973 170.315 156.128 168.601 156.128C166.887 156.128 165.567 154.973 165.567 153.297C165.567 151.646 166.887 150.479 168.601 150.479ZM168.601 151.532C167.535 151.532 166.747 152.256 166.747 153.297C166.747 154.363 167.535 155.074 168.601 155.074C169.642 155.074 170.442 154.363 170.442 153.297C170.442 152.256 169.642 151.532 168.601 151.532ZM185.543 155.76V156.725H177.621V150.644H185.429V151.621H178.84V153.157H185.188V154.109H178.84V155.76H185.543ZM186.724 158.654V159.645H176.314V158.654H186.724ZM196.493 153.03V153.995H188.66V150.11H189.853V153.03H196.493ZM197.686 155.43V156.395H187.276V155.43H197.686ZM196.569 159.822V160.812H188.571V157.474H189.777V159.822H196.569ZM205.139 153.056C205.139 154.858 206.32 156.864 208.046 157.677L207.361 158.616C206.085 158 205.076 156.718 204.568 155.227C204.041 156.858 202.975 158.261 201.673 158.908L200.962 157.956C202.689 157.131 203.946 154.985 203.946 153.056V151.85H201.381V150.847H207.615V151.85H205.139V153.056ZM210.039 149.704V154.211H211.868V155.227H210.039V161.079H208.833V149.704H210.039ZM222.538 155.239V156.204H212.153V155.239H216.762V154.033H213.448V150.225H221.256V151.177H214.642V153.068H221.332V154.033H217.93V155.239H222.538ZM217.333 156.94C219.783 156.94 221.256 157.689 221.256 159.01C221.256 160.33 219.783 161.066 217.333 161.079C214.87 161.066 213.385 160.33 213.385 159.01C213.385 157.689 214.87 156.94 217.333 156.94ZM217.333 157.88C215.594 157.88 214.604 158.286 214.604 159.01C214.604 159.733 215.594 160.14 217.333 160.127C219.047 160.14 220.05 159.733 220.05 159.01C220.05 158.286 219.047 157.88 217.333 157.88ZM228.309 150.39C230.695 150.39 232.511 151.646 232.511 153.563C232.511 155.48 230.695 156.75 228.309 156.737C225.922 156.75 224.119 155.48 224.119 153.563C224.119 151.646 225.922 150.39 228.309 150.39ZM228.309 151.367C226.569 151.354 225.262 152.243 225.274 153.563C225.262 154.896 226.569 155.747 228.309 155.747C230.048 155.747 231.343 154.896 231.343 153.563C231.343 152.243 230.048 151.354 228.309 151.367ZM233.539 158.604V159.606H223.129V158.604H233.539ZM244.514 158.705V159.721H234.104V158.705H238.687V156.712H235.374V153.094H242.051V151.494H235.348V150.504H243.245V154.059H236.567V155.722H243.511V156.712H239.881V158.705H244.514ZM252.183 153.056C252.183 154.96 253.427 156.928 255.179 157.677L254.519 158.616C253.179 158.026 252.113 156.775 251.586 155.252C251.059 156.877 249.987 158.261 248.666 158.908L247.968 157.956C249.682 157.156 250.951 155.011 250.964 153.056V151.85H248.362V150.847H254.773V151.85H252.183V153.056ZM257.413 149.704V161.079H256.207V149.704H257.413ZM261.482 156.191V157.613H266.853V156.191H268.033V160.939H260.289V156.191H261.482ZM261.482 159.949H266.853V158.553H261.482V159.949ZM268.059 150.199V151.062C268.059 151.932 268.059 152.91 267.767 154.287H269.379V155.265H258.969V154.287H266.586C266.853 152.979 266.865 152.021 266.865 151.189H260.276V150.199H268.059ZM279.402 149.717V156.268H278.183V149.717H279.402ZM269.969 155.062C270.909 155.062 272.007 155.055 273.143 155.023V153.906H270.985V150.25H276.419V151.24H272.191V152.954H276.52V153.906H274.337V154.973C275.352 154.922 276.368 154.846 277.32 154.719L277.384 155.569C274.921 155.988 272.191 156.026 270.147 156.039L269.969 155.062ZM273.016 156.763V157.854H278.209V156.763H279.402V160.939H271.81V156.763H273.016ZM273.016 159.962H278.209V158.781H273.016V159.962ZM290.365 149.704V161.079H289.159V149.704H290.365ZM282.811 150.809V157.144C284.468 157.131 286.213 156.998 288.041 156.623L288.207 157.639C286.188 158.045 284.36 158.185 282.57 158.185H281.618V150.809H282.811ZM300.756 149.704V154.109H302.584V155.1H300.756V161.104H299.55V149.704H300.756ZM297.697 150.796V151.773H293.583V157.271C295.494 157.264 296.928 157.182 298.547 156.89L298.699 157.905C296.922 158.223 295.411 158.286 293.291 158.273H292.377V150.796H297.697Z" fill="#79C7A6"/>
<circle cx="36.3021" cy="150.219" r="16.4824" transform="rotate(-21.4195 36.3021 150.219)" fill="#00A176" stroke="white" stroke-width="3"/>
<path d="M33.0519 132.445C33.3796 132.123 34.0794 131.629 34.9892 131.987C35.4195 132.157 35.6849 132.458 35.8327 132.68C35.9835 132.906 36.0741 133.14 36.1318 133.333C36.3477 134.053 36.3344 135.006 36.1852 135.929C35.8882 137.766 34.9254 140.23 32.7713 141.91L32.5595 142.071C29.5369 144.277 26.4626 145.272 24.9524 145.553L24.6719 145.6L20.9795 146.138L23.2718 143.195L29.4608 135.247L29.6408 135.016L29.8957 134.869L30.2136 134.679C31.0296 134.177 32.3103 133.291 32.935 132.57L33.0519 132.445Z" fill="#003F31" stroke="white" stroke-width="3" stroke-linecap="round"/>
<path d="M22.0108 135.045C23.5744 133.67 25.4523 132.864 27.27 132.728C29.0887 132.592 30.9434 133.131 32.2133 134.574C32.8781 135.33 33.2414 136.234 33.1058 137.233C32.9826 138.141 32.4755 138.882 31.9815 139.446C31.4754 140.024 30.8333 140.581 30.2086 141.101C29.5521 141.647 28.9121 142.155 28.261 142.728C27.6123 143.298 27.0612 143.838 26.4909 144.371C25.9535 144.873 25.3762 145.391 24.7885 145.766C24.1987 146.143 23.4209 146.493 22.5116 146.4C21.5778 146.304 20.8339 145.777 20.2419 145.104C18.9722 143.661 18.674 141.752 19.0412 139.966C19.4084 138.18 20.4472 136.421 22.0108 135.045Z" fill="#00CBCE" stroke="white" stroke-width="3"/>
<path d="M21.8164 136.053C21.803 136.066 21.7392 136.129 21.6987 136.279C21.6686 136.392 21.5977 136.818 21.9199 137.223C21.8465 137.02 21.9581 136.711 22.2125 136.468M21.8164 136.053L22.2125 136.468M21.8164 136.053L21.8796 136.008C21.9168 135.987 21.9711 135.963 22.0475 135.946C22.1614 135.921 22.5883 135.871 22.9788 136.211C22.8092 136.141 22.5582 136.2 22.3301 136.369L22.2125 136.468M21.8164 136.053L22.2125 136.468M21.2995 135.272C21.5973 135.02 21.9642 134.819 22.3734 134.73C22.8107 134.633 23.5783 134.625 24.1667 135.24C24.755 135.856 24.7124 136.623 24.5967 137.056C24.4729 137.518 24.2065 137.919 23.8893 138.222C23.5719 138.526 23.1592 138.774 22.6913 138.877C22.2813 138.967 21.581 138.979 21.0102 138.473L20.8973 138.365L20.795 138.248C20.3152 137.655 20.3595 136.956 20.468 136.551C20.5918 136.088 20.8587 135.687 21.1761 135.383L21.2995 135.272ZM23.1434 136.383C23.2168 136.586 23.1071 136.895 22.8529 137.138L22.7353 137.237C22.5065 137.407 22.2542 137.466 22.0845 137.395C22.4752 137.736 22.9033 137.684 23.0172 137.659C23.1699 137.625 23.2355 137.565 23.2489 137.552C23.2629 137.539 23.3258 137.476 23.366 137.326C23.3961 137.212 23.4656 136.788 23.1434 136.383Z" fill="#003F31" stroke="white" stroke-width="3"/>
<circle cx="36.3018" cy="150.219" r="14.7824" transform="rotate(-21.4195 36.3018 150.219)" fill="#00A176" stroke="#282828" stroke-width="0.4"/>
<path d="M34.0683 133.551C33.1772 134.58 31.4142 135.725 30.6441 136.168L24.4556 144.116C25.6037 143.948 28.6551 143.063 31.675 140.859C35.4498 138.104 35.1823 132.265 34.0683 133.551Z" fill="#003F31" stroke="#282828" stroke-width="0.4" stroke-linecap="round"/>
<path d="M23.1339 136.322C24.4462 135.168 25.9817 134.53 27.3976 134.424C28.8132 134.318 30.0965 134.743 30.9369 135.698C31.3531 136.171 31.4771 136.598 31.422 137.005C31.3652 137.424 31.1137 137.858 30.7028 138.327C30.2935 138.794 29.7443 139.276 29.1218 139.794C28.5035 140.309 27.8119 140.859 27.1383 141.452C26.4644 142.044 25.8658 142.629 25.33 143.129C24.7899 143.634 24.3151 144.053 23.8737 144.335C23.4328 144.617 23.0486 144.747 22.6858 144.71C22.3262 144.673 21.9447 144.466 21.5188 143.982C20.6787 143.027 20.4207 141.7 20.7065 140.31C20.9924 138.919 21.8217 137.477 23.1339 136.322Z" fill="#00CBCE" stroke="#282828" stroke-width="0.4"/>
<path d="M22.3508 136.613C22.4806 136.489 22.6218 136.415 22.7378 136.39C22.8577 136.364 22.9157 136.392 22.9376 136.415C22.9593 136.438 22.9862 136.498 22.9544 136.617C22.9236 136.731 22.8441 136.869 22.7145 136.993C22.5847 137.117 22.4429 137.191 22.3268 137.216C22.2066 137.243 22.1481 137.213 22.1264 137.19C22.1047 137.168 22.0785 137.108 22.1102 136.99C22.141 136.875 22.221 136.737 22.3508 136.613Z" fill="#003F31" stroke="#282828" stroke-width="0.4"/>
<path d="M37.5087 156.428C35.2144 157.328 32.5565 156.04 31.5812 153.554C31.5602 153.501 31.5421 153.448 31.5252 153.393L35.5307 151.641C36.0798 152.665 37.2657 153.153 38.2799 152.755C39.1168 152.427 39.6232 151.584 39.6186 150.675C39.7872 150.977 39.9851 151.264 40.2124 151.534C40.4871 153.683 39.3796 155.692 37.5058 156.427L37.5087 156.428Z" fill="white"/>
<path d="M35.4845 151.783C36.0785 152.794 37.2859 153.265 38.3207 152.859C39.0896 152.557 39.5931 151.846 39.7058 151.036C39.8271 151.224 39.9607 151.407 40.108 151.582C40.3626 153.668 39.2826 155.614 37.4686 156.326C35.2321 157.203 32.6373 155.942 31.6847 153.514C31.6766 153.493 31.6693 153.475 31.662 153.456L35.4832 151.786M39.3667 149.844L39.3523 149.85C39.7855 150.99 39.2919 152.242 38.2406 152.655C37.1894 153.067 36.0811 152.534 35.5826 151.5L31.3898 153.332C31.4197 153.42 31.4446 153.508 31.4786 153.595C32.4772 156.141 35.1955 157.455 37.5495 156.532C39.5242 155.757 40.6106 153.652 40.3212 151.489C39.9515 151.056 39.6407 150.555 39.4184 149.988C39.3998 149.94 39.3874 149.891 39.3688 149.843L39.3667 149.844Z" fill="#282828"/>
<path d="M45.447 152.821C43.7237 153.497 41.6975 152.934 40.4053 151.417C40.0267 150.973 39.7303 150.478 39.5216 149.946C39.516 149.932 39.5103 149.917 39.5055 149.905L43.363 148.218C43.363 148.218 43.3702 148.237 43.3743 148.247C43.8457 149.449 45.1352 150.068 46.2504 149.63C47.3655 149.193 47.8892 147.86 47.4186 146.66C47.396 146.603 47.3704 146.544 47.3384 146.48L47.6852 146.327C47.7404 146.444 47.7922 146.564 47.8391 146.683C48.8135 149.167 47.7413 151.921 45.447 152.821Z" fill="white"/>
<path d="M47.6273 146.474C47.6646 146.557 47.6998 146.641 47.7329 146.725C48.6855 149.153 47.64 151.842 45.4035 152.719C43.7235 153.379 41.7469 152.827 40.4862 151.347C40.13 150.93 39.8478 150.465 39.6443 149.965L39.8232 149.887L43.2989 148.367C43.8175 149.574 45.1396 150.185 46.2857 149.736C47.4317 149.286 48.0098 147.88 47.5157 146.62C47.5052 146.593 47.4939 146.564 47.4826 146.536L47.6265 146.472M47.7349 146.184L47.1803 146.426C47.229 146.514 47.2736 146.603 47.3116 146.7C47.7612 147.846 47.2664 149.113 46.2068 149.529C45.1473 149.944 43.9231 149.352 43.4735 148.206C43.4557 148.16 43.442 148.113 43.4263 148.067L39.7354 149.682L39.3659 149.843C39.3845 149.891 39.3961 149.938 39.4155 149.988C39.6379 150.555 39.9487 151.056 40.3183 151.489C41.6096 153.004 43.656 153.643 45.4864 152.925C47.8405 152.001 48.9398 149.189 47.9411 146.643C47.8789 146.485 47.81 146.333 47.7349 146.184Z" fill="#282828"/>
<path d="M43.4743 148.205C43.9239 149.351 45.1482 149.944 46.2077 149.528C47.2672 149.113 47.7621 147.846 47.3125 146.7C47.2745 146.603 47.2299 146.513 47.1811 146.425L43.4271 148.067C43.4429 148.113 43.4565 148.16 43.4743 148.205Z" fill="#282828"/>
<path d="M38.2411 152.654C39.2944 152.241 39.788 150.989 39.3535 149.851L35.583 151.499C36.0815 152.533 37.2351 153.049 38.2411 152.654Z" fill="#282828"/>
<path d="M40.5796 155.921C41.5558 156.498 42.8115 155.99 43.5289 155.223" stroke="#282828" stroke-width="0.4" stroke-linecap="round" stroke-linejoin="round"/>
<path d="M74.4761 34.2619C71.0837 30.5815 65.1913 29.7506 60.6871 31.2031L60.3443 31.3185C53.4454 33.7398 50.7057 40.7643 51.9847 46.5264L52.1226 47.0888C53.7408 53.0414 59.3556 58.483 68.5238 59.3036C74.9219 59.8763 79.7924 57.2355 82.7437 53.517C85.6397 49.8682 86.7545 45.0753 85.4938 41.2925L85.2991 40.7408C84.2834 38.0407 82.6845 36.1855 80.6293 35.1411C78.731 34.1766 76.6004 33.9843 74.4761 34.2619Z" fill="#FFF757" stroke="white" stroke-width="3" stroke-linecap="round" stroke-linejoin="round"/>
<path d="M84.0711 41.7667C82.2675 36.3548 78.2839 35.0401 73.8764 35.8763C71.1073 32.2441 65.5057 31.2256 61.1474 32.6311C54.6415 34.7293 52.1301 41.397 53.5705 46.6954C55.0109 51.9937 60.0626 57.0408 68.6578 57.8101C80.4019 58.8612 86.2058 48.172 84.0711 41.7667Z" fill="#FFF757" stroke="#282828" stroke-width="0.4" stroke-linecap="round" stroke-linejoin="round"/>
<path d="M74.5352 52.1594C72.3847 51.9669 70.7974 50.0675 70.9898 47.917C71.1823 45.7665 73.0817 44.1792 75.2322 44.3717C77.3827 44.5642 78.9699 46.4635 78.7775 48.614C78.585 50.7645 76.6857 52.3518 74.5352 52.1594Z" fill="white" stroke="#282828" stroke-width="0.4" stroke-linecap="round" stroke-linejoin="round"/>
<path d="M73.6018 50.7901C72.2689 50.6708 71.2851 49.4936 71.4044 48.1606C71.5237 46.8277 72.7009 45.8439 74.0338 45.9632C75.3667 46.0825 76.3506 47.2597 76.2313 48.5926C76.112 49.9256 74.9347 50.9094 73.6018 50.7901Z" fill="#282828"/>
<path d="M73.6047 48.1631C73.2883 47.5911 73.4398 46.9017 73.9431 46.6234C74.4463 46.345 75.1108 46.5831 75.4272 47.1552C75.7435 47.7272 75.592 48.4166 75.0888 48.6949C74.5855 48.9732 73.9211 48.7351 73.6047 48.1631Z" fill="white"/>
<path d="M73.3539 49.8437C73.4687 50.1977 73.8488 50.3963 74.2038 50.2906C74.5587 50.1849 74.7551 49.8099 74.6401 49.4578C74.5251 49.1057 74.1451 48.9052 73.7902 49.0109C73.4352 49.1166 73.2389 49.4916 73.3539 49.8437Z" fill="white"/>
<path d="M74.9299 49.3954C74.8112 49.3284 74.7686 49.1793 74.8346 49.0623C74.9007 48.9453 75.0504 48.9049 75.1691 48.9719C75.2878 49.0389 75.3305 49.1881 75.2644 49.305C75.1984 49.422 75.0486 49.4625 74.9299 49.3954Z" fill="white"/>
<path d="M72.0388 48.3952C72.0008 47.8153 72.2653 47.3259 72.6297 47.302C72.994 47.2781 73.3203 47.7287 73.3583 48.3085C73.3964 48.8884 73.1319 49.3778 72.7675 49.4017C72.4031 49.4256 72.0769 48.975 72.0388 48.3952Z" fill="white"/>
<path d="M67.2013 52.7159C64.8189 52.5027 63.0604 50.3985 63.2736 48.0162C63.4869 45.6338 65.591 43.8753 67.9734 44.0885C70.3558 44.3018 72.1143 46.4059 71.901 48.7883C71.6878 51.1707 69.5836 52.9292 67.2013 52.7159Z" fill="white" stroke="#282828" stroke-width="0.4" stroke-linecap="round" stroke-linejoin="round"/>
<path d="M67.3604 51.1778C65.8848 51.0457 64.7956 49.7424 64.9277 48.2668C65.0598 46.7912 66.363 45.702 67.8387 45.8341C69.3143 45.9662 70.4034 47.2695 70.2714 48.7451C70.1393 50.2207 68.836 51.3099 67.3604 51.1778Z" fill="#282828"/>
<path d="M67.3637 48.2677C67.0131 47.6338 67.1806 46.8701 67.7379 46.562C68.2951 46.2538 69.031 46.5178 69.3816 47.1516C69.7322 47.7855 69.5646 48.5492 69.0074 48.8573C68.4502 49.1655 67.7142 48.9015 67.3637 48.2677Z" fill="white"/>
<path d="M67.0846 50.1312C67.2106 50.5223 67.6321 50.7445 68.0261 50.626C68.4202 50.5076 68.6362 50.0946 68.5084 49.7033C68.3807 49.3121 67.961 49.09 67.567 49.2085C67.1729 49.327 66.9569 49.7399 67.0846 50.1312Z" fill="white"/>
<path d="M68.7045 49.477C68.7514 49.6205 68.9051 49.7012 69.0483 49.6579C69.1914 49.6147 69.27 49.4643 69.225 49.321C69.1799 49.1777 69.0243 49.0969 68.8812 49.1401C68.7381 49.1834 68.6595 49.3337 68.7045 49.477Z" fill="white"/>
<path d="M65.6287 48.527C65.5866 47.8846 65.8791 47.3424 66.2822 47.3159C66.6853 47.2895 67.0463 47.7888 67.0884 48.4311C67.1306 49.0735 66.838 49.6157 66.4349 49.6421C66.0318 49.6686 65.6709 49.1693 65.6287 48.527Z" fill="white"/>
<path d="M76.5508 51.8704C76.5487 52.8743 75.4664 54.3251 72.8675 54.3186C70.2685 54.3122 68.2885 53.3197 68.0295 51.9875C67.7706 50.6554 68.5074 50.1726 69.8429 50.1749C71.1766 50.179 71.7271 50.6815 72.4858 50.6829C73.2446 50.6843 73.8189 50.2545 74.7633 50.2564C75.7077 50.2583 76.5521 50.9711 76.5508 51.8704Z" fill="#FFAD94" stroke="#282828" stroke-width="0.4" stroke-linecap="round" stroke-linejoin="round"/>
<path d="M72.5896 53.7793C71.0721 53.7747 69.8612 52.7689 69.8612 52.0931C69.8612 51.4173 70.0656 51.0388 70.9163 51.0395C71.7669 51.0403 71.859 51.1802 72.5943 51.1822C73.3297 51.1843 73.3998 51.0454 74.2037 51.0475C75.0075 51.0495 75.167 51.7589 75.1673 52.1752C75.1676 52.5915 74.8641 53.7836 72.5878 53.7776L72.5896 53.7793Z" fill="#282828" stroke="#282828" stroke-width="0.4" stroke-linecap="round" stroke-linejoin="round"/>
<path d="M346.936 118.796C344.392 114.698 339.148 113.128 334.748 115.223L332.177 116.447L331.92 116.563C331.317 116.819 330.677 116.983 330.024 117.049L328.364 117.215L327.834 117.283C322.584 118.103 319.014 123.091 319.929 128.325L320.036 128.849L320.207 129.591C320.398 130.415 320.428 131.268 320.294 132.102L320.054 133.594C319.24 138.664 322.586 143.434 327.562 144.442L328.048 144.528L330.978 144.967C331.585 145.058 332.177 145.234 332.734 145.49L332.97 145.605L335.61 146.948C340.187 149.277 345.753 147.554 348.238 143.126L348.468 142.689L349.139 141.336C349.467 140.673 349.906 140.072 350.435 139.558L350.667 139.342L351.239 138.838C355.545 135.036 355.533 128.317 351.214 124.53L349.96 123.43L349.752 123.24C349.278 122.786 348.874 122.264 348.556 121.69L347.173 119.201L346.936 118.796Z" fill="#FFDE3B" stroke="white" stroke-width="3"/>
<path d="M345.688 120.026C343.744 116.525 339.487 115.073 335.83 116.601L335.478 116.758L332.908 117.982C332.16 118.338 331.364 118.578 330.546 118.696L330.194 118.74L328.534 118.906C323.985 119.364 320.828 123.591 321.604 128.034L321.692 128.465L321.864 129.208C322.074 130.116 322.129 131.052 322.026 131.976L321.972 132.371L321.732 133.863C321.063 138.029 323.813 141.948 327.902 142.776L328.302 142.846L331.23 143.285C331.996 143.4 332.74 143.623 333.443 143.945L333.741 144.089L336.381 145.433C340.141 147.346 344.714 145.93 346.755 142.292L346.945 141.934L347.616 140.58C348.03 139.745 348.583 138.987 349.249 138.338L349.542 138.068L350.114 137.563C353.541 134.537 353.639 129.262 350.416 126.107L350.093 125.808L348.839 124.708C348.217 124.162 347.68 123.526 347.248 122.821L347.069 122.515L345.688 120.026Z" fill="#FFDE3B" stroke="#282828" stroke-width="0.4"/>
<path d="M340.43 141.967C339.075 141.249 338.478 139.719 339.098 138.551C339.717 137.383 341.318 137.019 342.674 137.737C344.029 138.456 344.625 139.986 344.006 141.154C343.386 142.322 341.786 142.686 340.43 141.967Z" fill="#FF4F18" stroke="#282828" stroke-width="0.4" stroke-linecap="round" stroke-linejoin="round"/>
<path d="M327.054 134.373C327.344 133.083 328.793 132.31 330.29 132.647C331.787 132.984 332.764 134.303 332.474 135.593C332.183 136.883 330.735 137.655 329.238 137.318C327.741 136.981 326.763 135.663 327.054 134.373Z" fill="#FF4F18" stroke="#282828" stroke-width="0.4" stroke-linecap="round" stroke-linejoin="round"/>
<path d="M344.158 133.444C344.185 134.125 344.078 134.851 343.818 135.571C342.97 137.907 340.83 139.272 339.037 138.621C337.244 137.971 336.479 135.549 337.327 133.215C337.362 133.115 337.402 133.018 337.443 132.922C337.493 132.804 337.545 132.689 337.601 132.578C337.928 131.929 338.359 131.379 338.849 130.956" fill="white"/>
<path d="M344.158 133.444C344.185 134.125 344.078 134.851 343.818 135.571C342.97 137.907 340.83 139.272 339.037 138.621C337.244 137.971 336.479 135.549 337.327 133.215C337.362 133.115 337.402 133.018 337.443 132.922C337.493 132.804 337.545 132.689 337.601 132.578C337.928 131.929 338.359 131.379 338.849 130.956" stroke="#282828" stroke-width="0.4" stroke-linecap="round" stroke-linejoin="round"/>
<path d="M341.627 133.124C341.973 133.25 342.321 133.339 342.669 133.396C342.694 133.901 342.607 134.476 342.397 135.055C341.858 136.54 340.714 137.487 339.842 137.171C338.97 136.856 338.701 135.394 339.239 133.909C339.241 133.902 339.243 133.896 339.245 133.89C339.926 134.075 340.475 134.071 340.551 133.861C340.627 133.651 340.246 133.329 339.657 133.043C339.819 132.783 339.999 132.552 340.19 132.361C340.617 132.671 341.098 132.932 341.627 133.124Z" fill="#282828"/>
<path d="M340.552 133.862C340.476 134.073 339.928 134.075 339.247 133.89C339.36 133.581 339.501 133.298 339.659 133.042C340.249 133.328 340.626 133.659 340.553 133.86L340.552 133.862Z" fill="white"/>
<path d="M344.158 133.444C344.096 131.913 343.348 130.613 342.107 130.164C341.027 129.772 339.822 130.112 338.849 130.955" stroke="#282828" stroke-width="0.4" stroke-linecap="round" stroke-linejoin="round"/>
<path d="M342.669 133.396C342.323 133.339 341.973 133.248 341.627 133.123C341.098 132.931 340.617 132.671 340.19 132.361C339.644 131.964 339.192 131.484 338.847 130.955C339.82 130.113 341.027 129.773 342.106 130.163C343.346 130.614 344.094 131.912 344.157 133.443C343.673 133.493 343.172 133.479 342.666 133.395L342.669 133.396Z" fill="#BEFF74" stroke="#282828" stroke-width="0.4" stroke-linecap="round" stroke-linejoin="round"/>
<path d="M343.262 132.319C343.262 132.319 343.02 132.961 342.387 133.309L343.262 132.319Z" fill="#BEFF74"/>
<path d="M343.262 132.319C343.262 132.319 343.02 132.961 342.387 133.309" stroke="#282828" stroke-width="0.4" stroke-linecap="round" stroke-linejoin="round"/>
<path d="M342.32 132.123C342.32 132.123 342.078 132.764 341.445 133.113L342.32 132.123Z" fill="#BEFF74"/>
<path d="M342.32 132.123C342.32 132.123 342.078 132.764 341.445 133.113" stroke="#282828" stroke-width="0.4" stroke-linecap="round" stroke-linejoin="round"/>
<path d="M338.201 130.843C338.255 131.522 338.176 132.253 337.942 132.982C337.185 135.349 335.099 136.796 333.282 136.214C331.465 135.632 330.608 133.244 331.365 130.877C331.397 130.776 331.432 130.678 331.47 130.581C331.516 130.461 331.563 130.345 331.615 130.231C331.917 129.57 332.326 129.003 332.799 128.562" fill="white"/>
<path d="M338.201 130.843C338.255 131.522 338.176 132.253 337.942 132.982C337.185 135.349 335.099 136.796 333.282 136.214C331.465 135.632 330.608 133.244 331.365 130.877C331.397 130.776 331.432 130.678 331.47 130.581C331.516 130.461 331.563 130.345 331.615 130.231C331.917 129.57 332.326 129.003 332.799 128.562" stroke="#282828" stroke-width="0.4" stroke-linecap="round" stroke-linejoin="round"/>
<path d="M335.66 130.622C336.009 130.734 336.362 130.81 336.711 130.854C336.753 131.358 336.69 131.935 336.502 132.521C336.02 134.026 334.915 135.017 334.031 134.734C333.147 134.451 332.822 133.002 333.303 131.497C333.305 131.491 333.308 131.485 333.31 131.478C333.997 131.636 334.545 131.613 334.614 131.399C334.682 131.185 334.288 130.88 333.688 130.616C333.84 130.349 334.011 130.112 334.194 129.913C334.632 130.206 335.123 130.448 335.66 130.62L335.66 130.622Z" fill="#282828"/>
<path d="M334.613 131.399C334.544 131.613 333.997 131.636 333.309 131.478C333.409 131.165 333.54 130.876 333.687 130.616C334.288 130.879 334.678 131.195 334.613 131.399Z" fill="white"/>
<path d="M338.201 130.843C338.081 129.316 337.283 128.048 336.025 127.645C334.932 127.295 333.74 127.681 332.8 128.56" stroke="#282828" stroke-width="0.4" stroke-linecap="round" stroke-linejoin="round"/>
<path d="M336.711 130.855C336.362 130.811 336.01 130.735 335.66 130.623C335.124 130.451 334.634 130.209 334.194 129.916C333.635 129.54 333.163 129.078 332.798 128.562C333.738 127.683 334.93 127.297 336.024 127.647C337.281 128.05 338.079 129.318 338.199 130.847C337.719 130.915 337.216 130.921 336.709 130.856L336.711 130.855Z" fill="#BEFF74" stroke="#282828" stroke-width="0.4" stroke-linecap="round" stroke-linejoin="round"/>
<path d="M337.263 129.754C337.263 129.754 337.046 130.404 336.427 130.777L337.263 129.754Z" fill="#BEFF74"/>
<path d="M337.263 129.754C337.263 129.754 337.046 130.404 336.427 130.777" stroke="#282828" stroke-width="0.4" stroke-linecap="round" stroke-linejoin="round"/>
<path d="M336.312 129.594C336.312 129.594 336.095 130.244 335.475 130.617L336.312 129.594Z" fill="#BEFF74"/>
<path d="M336.312 129.594C336.312 129.594 336.095 130.244 335.475 130.617" stroke="#282828" stroke-width="0.4" stroke-linecap="round" stroke-linejoin="round"/>
<path d="M337.812 138.849C337.812 138.849 335.526 140.153 334.754 136.801" stroke="#282828" stroke-width="0.4" stroke-linecap="round" stroke-linejoin="round"/>
<defs>
<linearGradient id="paint0_linear_4758_58534" x1="187.5" y1="71" x2="187.5" y2="120" gradientUnits="userSpaceOnUse">
<stop offset="0.206731" stop-color="white"/>
<stop offset="1" stop-color="#77FFDF"/>
</linearGradient>
</defs>
</svg>
