<svg width="375" height="200" viewBox="0 0 375 200" fill="none" xmlns="http://www.w3.org/2000/svg">
<rect width="375" height="200" fill="#004B37"/>
<path d="M86.8339 82.795H62.4039C60.3039 82.795 59.4639 81.325 59.4639 79.89C59.4639 78.49 60.2689 76.95 62.4039 76.95H86.8339C88.9689 76.95 89.7739 78.49 89.7739 79.89C89.7739 81.325 88.9339 82.795 86.8339 82.795ZM78.1889 102.22H88.0589C90.1589 102.22 90.9989 103.655 90.9989 105.09C90.9989 106.595 90.1239 107.96 88.0589 107.96H61.1789C59.1139 107.96 58.2389 106.595 58.2389 105.09C58.2389 103.655 59.0789 102.22 61.1789 102.22H71.0489V96.34V96.235H61.9839C59.8839 96.235 59.0439 94.87 59.0439 93.435C59.0439 92.035 59.8489 90.67 61.9839 90.67H64.3639V87.625C64.3639 85.14 65.8339 84.09 67.9689 84.09C70.0689 84.09 71.5039 85.175 71.5039 87.625V90.67H77.7339V87.625C77.7339 85.14 79.2039 84.09 81.3389 84.09C83.4389 84.09 84.8739 85.175 84.8739 87.625V90.67H87.2539C89.3889 90.67 90.1939 92.035 90.1939 93.435C90.1939 94.87 89.3539 96.235 87.2539 96.235H78.1889V96.34V102.22ZM124.319 100.61H117.319V79.26C117.319 76.985 118.964 75.795 120.819 75.795C122.674 75.795 124.319 76.985 124.319 79.26V100.61ZM93.4489 87.275V84.3C93.4489 79.085 97.6489 76.355 103.389 76.355C109.129 76.355 113.364 79.05 113.364 84.3V87.275C113.364 92.525 109.129 95.22 103.424 95.22C97.6839 95.22 93.4489 92.525 93.4489 87.275ZM100.274 84.335V87.24C100.274 88.955 101.674 90.005 103.389 90.005C105.104 90.005 106.574 88.955 106.574 87.24V84.335C106.574 82.585 105.104 81.535 103.389 81.57C101.674 81.605 100.274 82.62 100.274 84.335ZM122.359 108.66H100.239C96.3188 108.66 95.2689 107.295 95.2689 103.55V99.875C95.2689 97.6 96.9139 96.515 98.8739 96.515C100.834 96.515 102.374 97.635 102.374 99.875V102.465C102.374 103.13 102.549 103.27 103.214 103.27H122.359C124.459 103.27 125.264 104.53 125.264 105.93C125.264 107.365 124.424 108.66 122.359 108.66ZM133.979 76.845H155.189C157.149 76.845 157.884 78.28 157.884 79.575C157.884 80.905 157.114 82.27 155.189 82.27H136.569C135.869 82.27 135.519 82.55 135.519 83.18V84.545H154.979C156.939 84.545 157.674 85.91 157.674 87.17C157.674 88.465 156.904 89.795 154.979 89.795H135.519V91.125C135.519 91.825 135.869 92.07 136.569 92.07H155.749C157.709 92.07 158.444 93.47 158.444 94.765C158.444 96.095 157.674 97.46 155.749 97.46H133.979C129.919 97.46 128.414 95.78 128.414 92V82.305C128.414 78.525 129.919 76.845 133.979 76.845ZM129.849 102.045H156.589C158.759 102.045 159.599 103.585 159.599 105.02C159.599 106.49 158.724 107.96 156.589 107.96H129.849C127.714 107.96 126.839 106.49 126.839 105.02C126.839 103.585 127.679 102.045 129.849 102.045ZM191.869 88.045H193.129C195.264 88.045 195.894 89.69 195.894 91.09C195.894 92.525 195.229 94.135 193.129 94.135H191.869V108.66H184.869V79.26C184.869 76.985 186.514 75.795 188.369 75.795C190.224 75.795 191.869 76.985 191.869 79.26V88.045ZM165.164 77.055H175.524C179.374 77.055 180.844 78.84 180.844 82.025V90.25C180.844 102.185 173.599 106.84 165.129 107.19C163.239 107.295 161.524 106.245 161.629 104.18C161.699 102.71 162.574 101.59 164.324 101.38C169.854 100.75 173.949 98.405 173.949 90.215V83.95C173.949 83.46 173.634 83.075 173.074 83.075H165.164C163.064 83.075 162.049 81.57 162.049 80.1C162.049 78.665 163.029 77.055 165.164 77.055ZM235.278 88.045H236.538C238.673 88.045 239.303 89.69 239.303 91.09C239.303 92.525 238.638 94.135 236.538 94.135H235.278V108.66H228.278V79.26C228.278 76.985 229.923 75.795 231.778 75.795C233.633 75.795 235.278 76.985 235.278 79.26V88.045ZM219.073 101.765H224.113C226.213 101.765 227.053 103.235 227.053 104.67C227.053 106.14 226.178 107.505 224.113 107.505H207.488C205.423 107.505 204.548 106.14 204.548 104.67C204.548 103.235 205.388 101.765 207.488 101.765H212.283V96.41C208.223 95.5 205.423 92.77 205.423 88.01V85.14C205.423 79.155 209.833 76.39 215.573 76.39C221.278 76.39 225.653 79.155 225.653 85.14V88.01C225.653 92.7 222.958 95.395 219.073 96.375V101.765ZM212.248 84.86V88.29C212.248 90.495 213.893 91.335 215.573 91.335C217.218 91.335 218.863 90.495 218.863 88.29V84.86C218.863 82.69 217.218 81.815 215.573 81.815C213.893 81.815 212.248 82.69 212.248 84.86ZM267.828 97.53H247.073C242.523 97.53 240.108 95.115 240.108 91.335V90.67C240.108 86.89 242.523 84.58 247.073 84.58H262.333V83.425C262.333 82.97 262.193 82.445 261.388 82.445H243.188C241.508 82.445 240.493 81.08 240.493 79.645C240.493 78.245 241.508 76.845 243.188 76.845H263.418C268.248 76.845 269.613 79.05 269.613 82.375V89.9H248.858C248.053 89.9 247.668 90.285 247.668 90.985C247.668 91.72 248.053 92.035 248.858 92.035H267.828C269.788 92.035 270.523 93.505 270.523 94.8C270.523 96.13 269.753 97.53 267.828 97.53ZM241.858 102.045H268.598C270.768 102.045 271.608 103.585 271.608 105.02C271.608 106.49 270.733 107.96 268.598 107.96H241.858C239.723 107.96 238.848 106.49 238.848 105.02C238.848 103.585 239.688 102.045 241.858 102.045ZM302.128 97.53H281.373C276.823 97.53 274.408 95.115 274.408 91.335V90.67C274.408 86.89 276.823 84.58 281.373 84.58H296.633V83.425C296.633 82.97 296.493 82.445 295.688 82.445H277.488C275.808 82.445 274.793 81.08 274.793 79.645C274.793 78.245 275.808 76.845 277.488 76.845H297.718C302.548 76.845 303.913 79.05 303.913 82.375V89.9H283.158C282.353 89.9 281.968 90.285 281.968 90.985C281.968 91.72 282.353 92.035 283.158 92.035H302.128C304.088 92.035 304.823 93.505 304.823 94.8C304.823 96.13 304.053 97.53 302.128 97.53ZM276.158 102.045H302.898C305.068 102.045 305.908 103.585 305.908 105.02C305.908 106.49 305.033 107.96 302.898 107.96H276.158C274.023 107.96 273.148 106.49 273.148 105.02C273.148 103.585 273.988 102.045 276.158 102.045ZM315.673 99.42H308.533V80.1C308.533 77.825 310.248 76.635 312.103 76.635C313.923 76.635 315.673 77.86 315.673 80.1V99.42ZM308.358 104.6C308.358 102.43 309.758 101.065 312.103 101.065C314.448 101.065 315.848 102.465 315.848 104.6C315.848 106.735 314.448 108.135 312.103 108.135C309.758 108.135 308.358 106.77 308.358 104.6Z" fill="url(#paint0_linear_4833_63067)"/>
<path d="M123.396 45.536V51.282H125.776V52.608H123.396V60.428H121.832V45.536H123.396ZM112.448 56.756V46.964H119.384V48.256H114.012V55.43C116.511 55.413 118.381 55.311 120.506 54.92L120.71 56.28C118.381 56.671 116.392 56.756 113.638 56.756H112.448ZM139.958 47.644V48.936H137.85V50.84H139.958V52.132H137.85V54.308H136.286V45.536H137.85V47.644H139.958ZM126.392 49.922C126.375 47.848 128.058 46.403 130.336 46.42C132.614 46.403 134.297 47.848 134.314 49.922C134.297 52.013 132.614 53.458 130.336 53.458C128.058 53.458 126.375 52.013 126.392 49.922ZM127.922 49.922C127.922 51.265 128.942 52.132 130.336 52.132C131.73 52.132 132.767 51.265 132.784 49.922C132.767 48.63 131.73 47.729 130.336 47.746C128.942 47.729 127.922 48.63 127.922 49.922ZM128.058 57.572C128.058 55.77 129.979 54.733 133.056 54.716C136.082 54.733 137.986 55.77 137.986 57.572C137.986 59.34 136.082 60.394 133.056 60.394C129.979 60.394 128.058 59.34 128.058 57.572ZM129.622 57.572C129.622 58.575 130.897 59.119 133.056 59.136C135.181 59.119 136.439 58.575 136.456 57.572C136.439 56.552 135.181 55.991 133.056 55.974C130.897 55.991 129.622 56.552 129.622 57.572ZM152.202 45.536V50.33H154.344V51.656H152.202V56.688H150.638V45.536H152.202ZM140.54 48.562V47.27H144.178V45.536H145.742V47.27H149.38V48.562H140.54ZM141.356 52.098C141.339 50.381 142.801 49.259 144.96 49.276C147.102 49.259 148.564 50.381 148.564 52.098C148.564 53.764 147.102 54.869 144.96 54.852C142.801 54.869 141.339 53.764 141.356 52.098ZM142.784 60.088V55.804H144.348V58.83H152.848V60.088H142.784ZM142.852 52.098C142.852 53.05 143.702 53.645 144.96 53.628C146.218 53.645 147.068 53.05 147.068 52.098C147.068 51.095 146.218 50.483 144.96 50.5C143.702 50.483 142.852 51.095 142.852 52.098ZM166.489 46.964V56.722H159.485V46.964H166.489ZM161.049 55.464H164.959V48.222H161.049V55.464ZM169.413 60.428V45.536H171.011V60.428H169.413ZM178.292 48.222C178.275 50.364 179.618 52.421 181.828 53.254L180.944 54.478C179.329 53.832 178.139 52.54 177.51 50.925C176.864 52.659 175.606 54.036 173.872 54.716L173.022 53.492C175.317 52.625 176.694 50.5 176.728 48.222V46.386H178.292V48.222ZM175.708 60.088V55.498H177.306V58.83H185.772V60.088H175.708ZM180.978 51.928V50.67H183.868V48.936H180.978V47.644H183.868V45.536H185.432V56.62H183.868V51.928H180.978ZM200.158 45.536V60.394H198.662V45.536H200.158ZM187.544 51.962C187.544 48.732 188.802 46.726 190.74 46.726C192.542 46.726 193.783 48.443 193.97 51.248H195.636V45.808H197.166V59.68H195.636V52.506H193.987C193.834 55.413 192.576 57.215 190.74 57.198C188.802 57.215 187.544 55.192 187.544 51.962ZM189.006 51.962C189.006 54.325 189.669 55.719 190.74 55.702C191.845 55.719 192.525 54.325 192.542 51.962C192.525 49.582 191.845 48.205 190.74 48.188C189.669 48.205 189.006 49.582 189.006 51.962ZM210.739 48.596C210.756 50.33 212.099 51.928 214.377 52.574L213.629 53.798C211.929 53.305 210.654 52.251 209.991 50.891C209.345 52.387 208.036 53.543 206.251 54.07L205.503 52.846C207.781 52.183 209.192 50.483 209.175 48.596V48.46H205.945V47.202H209.175V45.468H210.773V47.202H213.969V48.46H210.739V48.596ZM207.713 60.224V54.988H217.233V60.224H207.713ZM209.277 58.932H215.669V56.212H209.277V58.932ZM215.669 54.308V45.536H217.233V49.208H219.375V50.534H217.233V54.308H215.669ZM223.935 46.658C225.295 46.658 226.4 47.423 227.046 48.766H230.735V45.536H232.299V60.428H230.735V54.716H227.165C226.536 56.229 225.38 57.096 223.935 57.096C221.708 57.096 220.144 55.073 220.161 51.86C220.144 48.681 221.708 46.658 223.935 46.658ZM221.657 51.86C221.657 54.223 222.575 55.685 223.935 55.668C225.278 55.685 226.196 54.223 226.213 51.86C226.196 49.531 225.278 48.069 223.935 48.052C222.575 48.069 221.657 49.531 221.657 51.86ZM227.488 50.058C227.607 50.602 227.675 51.214 227.675 51.86C227.675 52.438 227.624 52.965 227.539 53.458H230.735V50.058H227.488ZM245.836 45.536V51.554H248.216V52.88H245.836V60.394H244.272V45.536H245.836ZM234.174 49.14V47.882H237.846V45.74H239.41V47.882H242.98V49.14H234.174ZM234.922 53.696C234.922 51.673 236.486 50.245 238.628 50.262C240.753 50.245 242.317 51.673 242.334 53.696C242.317 55.753 240.753 57.164 238.628 57.164C236.486 57.164 234.922 55.753 234.922 53.696ZM236.452 53.696C236.435 54.988 237.353 55.855 238.628 55.838C239.886 55.855 240.821 54.988 240.838 53.696C240.821 52.438 239.886 51.554 238.628 51.554C237.353 51.554 236.435 52.438 236.452 53.696ZM256.176 46.794V48.052H259.44V45.536H261.004V56.382H259.44V52.54H256.176V53.832H249.274V46.794H256.176ZM250.838 52.608H254.646V48.086H250.838V52.608ZM251.28 60.088V55.396H252.878V58.83H261.344V60.088H251.28ZM256.176 51.248H259.44V49.378H256.176V51.248Z" fill="white"/>
<path d="M110.414 150.796V158.258H105.058V150.796H110.414ZM106.254 157.296H109.244V151.758H106.254V157.296ZM112.65 161.092V149.704H113.872V161.092H112.65ZM119.439 151.758C119.426 153.396 120.453 154.969 122.143 155.606L121.467 156.542C120.232 156.048 119.322 155.06 118.841 153.825C118.347 155.151 117.385 156.204 116.059 156.724L115.409 155.788C117.164 155.125 118.217 153.5 118.243 151.758V150.354H119.439V151.758ZM117.463 160.832V157.322H118.685V159.87H125.159V160.832H117.463ZM121.493 154.592V153.63H123.703V152.304H121.493V151.316H123.703V149.704H124.899V158.18H123.703V154.592H121.493ZM132.757 150.224C134.421 150.211 135.591 151.121 135.591 152.486C135.591 153.643 134.707 154.488 133.381 154.696V155.71C134.382 155.658 135.409 155.567 136.345 155.424L136.449 156.308C134.057 156.737 131.366 156.776 129.429 156.776L129.299 155.814C130.144 155.814 131.145 155.801 132.185 155.762V154.709C130.833 154.514 129.91 153.656 129.923 152.486C129.91 151.121 131.093 150.211 132.757 150.224ZM130.885 160.832V157.66H132.107V159.844H138.659V160.832H130.885ZM131.041 152.486C131.041 153.292 131.756 153.812 132.757 153.812C133.771 153.812 134.46 153.292 134.473 152.486C134.46 151.654 133.771 151.134 132.757 151.134C131.756 151.134 131.041 151.654 131.041 152.486ZM137.047 158.414V149.704H138.243V153.474H139.881V154.488H138.243V158.414H137.047ZM150.7 158.7V159.714H140.274V158.7H143.108V156.698H141.548V153.084H148.23V151.498H141.522V150.51H149.426V154.072H142.744V155.71H149.686V156.698H147.944V158.7H150.7ZM144.278 158.7H146.774V156.698H144.278V158.7ZM160.115 149.704V154.306H161.935V155.32H160.115V161.066H158.919V149.704H160.115ZM151.197 152.46V151.498H154.005V149.86H155.201V151.498H157.931V152.46H151.197ZM151.769 155.944C151.769 154.397 152.965 153.305 154.603 153.318C156.228 153.305 157.424 154.397 157.437 155.944C157.424 157.517 156.228 158.596 154.603 158.596C152.965 158.596 151.769 157.517 151.769 155.944ZM152.939 155.944C152.926 156.932 153.628 157.595 154.603 157.582C155.565 157.595 156.28 156.932 156.293 155.944C156.28 154.982 155.565 154.306 154.603 154.306C153.628 154.306 152.926 154.982 152.939 155.944ZM171.429 150.796V151.914C171.429 153.318 171.429 154.891 170.987 157.218L169.791 157.088C170.22 154.891 170.22 153.279 170.233 151.914V151.784H163.317V150.796H171.429ZM162.225 159.532V158.544H166.177V154.54H167.373V158.544H172.599V159.532H162.225ZM186.54 158.7V159.714H176.114V158.7H180.69V156.282H177.024V155.32H178.74V151.732H176.998V150.744H185.578V151.732H183.836V155.32H185.552V156.282H181.886V158.7H186.54ZM179.936 155.32H182.666V151.732H179.936V155.32ZM196.527 149.704V157.972H195.331V149.704H196.527ZM187.323 153.292C187.323 151.654 188.636 150.484 190.365 150.484C192.068 150.484 193.381 151.654 193.381 153.292C193.381 154.969 192.068 156.126 190.365 156.126C188.636 156.126 187.323 154.969 187.323 153.292ZM188.493 153.292C188.493 154.371 189.299 155.073 190.365 155.086C191.392 155.073 192.198 154.371 192.185 153.292C192.198 152.252 191.392 151.537 190.365 151.524C189.299 151.537 188.493 152.252 188.493 153.292ZM189.091 160.832V157.14H190.287V159.87H196.865V160.832H189.091ZM207.295 155.762V156.724H199.365V150.64H207.191V151.628H200.587V153.162H206.931V154.124H200.587V155.762H207.295ZM198.065 159.636V158.648H208.491V159.636H198.065ZM220.898 149.704V152.382H222.536V153.396H220.898V156.36H219.702V149.704H220.898ZM212.396 155.684V150.354H213.592V151.992H216.556V150.354H217.752V155.684H212.396ZM213.592 154.722H216.556V152.954H213.592V154.722ZM213.644 160.91V156.932H220.976V157.894H214.866V159.948H221.184V160.91H213.644ZM225.971 150.562C227.687 150.562 228.896 152.109 228.909 154.54C228.896 156.997 227.687 158.544 225.971 158.544C224.281 158.544 223.059 156.997 223.085 154.54C223.059 152.109 224.281 150.562 225.971 150.562ZM224.229 154.54C224.216 156.347 224.944 157.465 225.971 157.452C227.037 157.465 227.739 156.347 227.739 154.54C227.739 152.759 227.037 151.641 225.971 151.628C224.944 151.641 224.216 152.759 224.229 154.54ZM230.599 161.066V149.704H231.795V154.15H233.615V155.19H231.795V161.066H230.599ZM242.77 149.704V154.228H244.538V155.242H242.77V161.066H241.574V149.704H242.77ZM233.904 158.024C236.764 156.607 238.311 154.566 238.571 151.914H234.476V150.9H239.806C239.793 154.189 238.337 157.127 234.58 158.96L233.904 158.024ZM248.338 152.798C248.351 154.631 249.105 156.568 250.626 157.504L249.95 158.44C248.897 157.79 248.169 156.659 247.779 155.333C247.363 156.776 246.583 157.998 245.478 158.674L244.724 157.79C246.336 156.815 247.181 154.8 247.194 152.876V150.744H248.338V152.798ZM249.404 154.696V153.708H251.172V149.912H252.316V160.52H251.172V154.696H249.404ZM253.512 161.066V149.704H254.656V161.066H253.512ZM266.281 158.648V159.662H255.855V158.648H258.351V155.684C257.415 155.177 256.843 154.358 256.843 153.344C256.843 151.55 258.598 150.367 261.029 150.354C263.486 150.367 265.241 151.55 265.241 153.344C265.241 154.332 264.695 155.138 263.785 155.658V158.648H266.281ZM258.013 153.344C258.013 154.553 259.248 155.346 261.029 155.346C262.81 155.346 264.071 154.553 264.071 153.344C264.071 152.109 262.81 151.329 261.029 151.342C259.248 151.329 258.013 152.109 258.013 153.344ZM259.547 158.648H262.563V156.113C262.095 156.23 261.575 156.282 261.029 156.282C260.496 156.282 260.002 156.23 259.547 156.126V158.648ZM268.937 150.796L268.807 157.348H267.559L267.455 150.796H268.937ZM267.299 159.194C267.299 158.687 267.715 158.284 268.209 158.284C268.69 158.284 269.106 158.687 269.093 159.194C269.106 159.688 268.69 160.091 268.209 160.078C267.715 160.091 267.299 159.688 267.299 159.194Z" fill="#79C7A6"/>
<path d="M74.4761 34.2619C71.0837 30.5815 65.1913 29.7506 60.6871 31.2031L60.3443 31.3185C53.4454 33.7398 50.7057 40.7643 51.9847 46.5264L52.1226 47.0888C53.7408 53.0414 59.3556 58.483 68.5238 59.3036C74.9219 59.8763 79.7924 57.2355 82.7437 53.517C85.6397 49.8682 86.7545 45.0753 85.4938 41.2925L85.2991 40.7408C84.2834 38.0407 82.6845 36.1855 80.6293 35.1411C78.731 34.1766 76.6004 33.9843 74.4761 34.2619Z" fill="#FFF757" stroke="white" stroke-width="3" stroke-linecap="round" stroke-linejoin="round"/>
<path d="M84.0711 41.7667C82.2675 36.3548 78.2839 35.0401 73.8764 35.8763C71.1073 32.2441 65.5057 31.2256 61.1474 32.6311C54.6415 34.7293 52.1301 41.397 53.5705 46.6954C55.0109 51.9937 60.0626 57.0408 68.6578 57.8101C80.4019 58.8612 86.2058 48.172 84.0711 41.7667Z" fill="#FFF757" stroke="#282828" stroke-width="0.4" stroke-linecap="round" stroke-linejoin="round"/>
<path d="M74.5353 52.1594C72.3848 51.9669 70.7975 50.0675 70.99 47.917C71.1824 45.7665 73.0818 44.1792 75.2323 44.3717C77.3828 44.5642 78.9701 46.4635 78.7776 48.614C78.5851 50.7645 76.6858 52.3518 74.5353 52.1594Z" fill="white" stroke="#282828" stroke-width="0.4" stroke-linecap="round" stroke-linejoin="round"/>
<path d="M73.6019 50.7901C72.269 50.6708 71.2852 49.4936 71.4045 48.1606C71.5238 46.8277 72.701 45.8439 74.0339 45.9632C75.3669 46.0825 76.3507 47.2597 76.2314 48.5926C76.1121 49.9256 74.9348 50.9094 73.6019 50.7901Z" fill="#282828"/>
<path d="M73.605 48.1631C73.2886 47.5911 73.4401 46.9017 73.9433 46.6234C74.4466 46.345 75.111 46.5831 75.4274 47.1552C75.7438 47.7272 75.5923 48.4166 75.089 48.6949C74.5858 48.9732 73.9213 48.7351 73.605 48.1631Z" fill="white"/>
<path d="M73.354 49.8437C73.4688 50.1977 73.849 50.3963 74.2039 50.2906C74.5588 50.1849 74.7552 49.8099 74.6402 49.4578C74.5252 49.1057 74.1452 48.9052 73.7903 49.0109C73.4353 49.1166 73.239 49.4916 73.354 49.8437Z" fill="white"/>
<path d="M74.9301 49.3954C74.8114 49.3284 74.7687 49.1793 74.8347 49.0623C74.9008 48.9453 75.0506 48.9049 75.1692 48.9719C75.2879 49.0389 75.3306 49.1881 75.2646 49.305C75.1985 49.422 75.0487 49.4625 74.9301 49.3954Z" fill="white"/>
<path d="M72.039 48.3952C72.0009 47.8153 72.2654 47.3259 72.6298 47.302C72.9942 47.2781 73.3204 47.7287 73.3585 48.3085C73.3965 48.8884 73.132 49.3778 72.7676 49.4017C72.4032 49.4256 72.077 48.975 72.039 48.3952Z" fill="white"/>
<path d="M67.2015 52.7159C64.8191 52.5027 63.0607 50.3985 63.2739 48.0162C63.4871 45.6338 65.5913 43.8753 67.9737 44.0885C70.356 44.3018 72.1145 46.4059 71.9013 48.7883C71.6881 51.1707 69.5839 52.9292 67.2015 52.7159Z" fill="white" stroke="#282828" stroke-width="0.4" stroke-linecap="round" stroke-linejoin="round"/>
<path d="M67.3605 51.1778C65.8849 51.0457 64.7957 49.7424 64.9278 48.2668C65.0599 46.7912 66.3632 45.702 67.8388 45.8341C69.3144 45.9662 70.4036 47.2695 70.2715 48.7451C70.1394 50.2207 68.8361 51.3099 67.3605 51.1778Z" fill="#282828"/>
<path d="M67.3637 48.2677C67.0131 47.6338 67.1806 46.8701 67.7379 46.562C68.2951 46.2538 69.031 46.5178 69.3816 47.1516C69.7322 47.7855 69.5646 48.5492 69.0074 48.8573C68.4502 49.1655 67.7142 48.9015 67.3637 48.2677Z" fill="white"/>
<path d="M67.0849 50.1312C67.2109 50.5223 67.6323 50.7445 68.0264 50.626C68.4204 50.5076 68.6365 50.0946 68.5087 49.7033C68.3809 49.3121 67.9613 49.09 67.5672 49.2085C67.1731 49.327 66.9571 49.7399 67.0849 50.1312Z" fill="white"/>
<path d="M68.7047 49.477C68.7515 49.6205 68.9053 49.7012 69.0484 49.6579C69.1916 49.6147 69.2701 49.4643 69.2251 49.321C69.18 49.1777 69.0245 49.0969 68.8813 49.1401C68.7382 49.1834 68.6596 49.3337 68.7047 49.477Z" fill="white"/>
<path d="M65.6288 48.527C65.5867 47.8846 65.8793 47.3424 66.2824 47.3159C66.6854 47.2895 67.0464 47.7888 67.0886 48.4311C67.1307 49.0735 66.8381 49.6157 66.4351 49.6421C66.032 49.6686 65.671 49.1693 65.6288 48.527Z" fill="white"/>
<path d="M76.551 51.8704C76.549 52.8743 75.4666 54.3251 72.8677 54.3186C70.2688 54.3122 68.2887 53.3197 68.0298 51.9875C67.7708 50.6554 68.5076 50.1726 69.8431 50.1749C71.1769 50.179 71.7273 50.6815 72.4861 50.6829C73.2448 50.6843 73.8191 50.2545 74.7635 50.2564C75.7079 50.2583 76.5523 50.9711 76.551 51.8704Z" fill="#FFAD94" stroke="#282828" stroke-width="0.4" stroke-linecap="round" stroke-linejoin="round"/>
<path d="M72.5899 53.7793C71.0723 53.7747 69.8614 52.7689 69.8615 52.0931C69.8615 51.4173 70.0659 51.0388 70.9165 51.0395C71.7672 51.0403 71.8592 51.1802 72.5946 51.1822C73.3299 51.1843 73.4001 51.0454 74.2039 51.0475C75.0078 51.0495 75.1672 51.7589 75.1675 52.1752C75.1678 52.5915 74.8644 53.7836 72.588 53.7776L72.5899 53.7793Z" fill="#282828" stroke="#282828" stroke-width="0.4" stroke-linecap="round" stroke-linejoin="round"/>
<path d="M343.936 119.796C341.392 115.698 336.148 114.128 331.748 116.223L329.177 117.447L328.92 117.563C328.317 117.819 327.677 117.983 327.024 118.049L325.364 118.215L324.834 118.283C319.584 119.103 316.014 124.091 316.929 129.325L317.036 129.849L317.207 130.591C317.398 131.415 317.428 132.268 317.294 133.102L317.054 134.594C316.24 139.664 319.586 144.434 324.562 145.442L325.048 145.528L327.978 145.967C328.585 146.058 329.177 146.234 329.734 146.49L329.97 146.605L332.61 147.948C337.187 150.277 342.753 148.554 345.238 144.126L345.468 143.689L346.139 142.336C346.467 141.673 346.906 141.072 347.435 140.558L347.667 140.342L348.239 139.838C352.545 136.036 352.533 129.317 348.214 125.53L346.96 124.43L346.752 124.24C346.278 123.786 345.874 123.264 345.556 122.69L344.173 120.201L343.936 119.796Z" fill="#FFDE3B" stroke="white" stroke-width="3"/>
<path d="M342.688 121.026C340.744 117.525 336.487 116.073 332.83 117.601L332.478 117.758L329.908 118.982C329.16 119.338 328.364 119.578 327.546 119.696L327.194 119.74L325.534 119.906C320.985 120.364 317.828 124.591 318.604 129.034L318.692 129.465L318.864 130.208C319.074 131.116 319.129 132.052 319.026 132.976L318.972 133.371L318.732 134.863C318.063 139.029 320.813 142.948 324.902 143.776L325.302 143.846L328.23 144.285C328.996 144.4 329.74 144.623 330.443 144.945L330.741 145.089L333.381 146.433C337.141 148.346 341.714 146.93 343.755 143.292L343.945 142.934L344.616 141.58C345.03 140.745 345.583 139.987 346.249 139.338L346.542 139.068L347.114 138.563C350.541 135.537 350.639 130.262 347.416 127.107L347.093 126.808L345.839 125.708C345.217 125.162 344.68 124.526 344.248 123.821L344.069 123.515L342.688 121.026Z" fill="#FFDE3B" stroke="#282828" stroke-width="0.4"/>
<path d="M337.43 142.967C336.075 142.249 335.478 140.719 336.098 139.551C336.717 138.383 338.318 138.019 339.674 138.737C341.029 139.456 341.625 140.986 341.006 142.154C340.386 143.322 338.786 143.686 337.43 142.967Z" fill="#FF4F18" stroke="#282828" stroke-width="0.4" stroke-linecap="round" stroke-linejoin="round"/>
<path d="M324.054 135.373C324.344 134.083 325.793 133.31 327.29 133.647C328.787 133.984 329.764 135.303 329.474 136.593C329.183 137.883 327.735 138.655 326.238 138.318C324.741 137.981 323.763 136.663 324.054 135.373Z" fill="#FF4F18" stroke="#282828" stroke-width="0.4" stroke-linecap="round" stroke-linejoin="round"/>
<path d="M341.158 134.444C341.185 135.125 341.078 135.851 340.818 136.571C339.97 138.907 337.83 140.272 336.037 139.621C334.244 138.971 333.479 136.549 334.327 134.215C334.362 134.115 334.402 134.018 334.443 133.922C334.493 133.804 334.545 133.689 334.601 133.578C334.928 132.929 335.359 132.379 335.849 131.956" fill="white"/>
<path d="M341.158 134.444C341.185 135.125 341.078 135.851 340.818 136.571C339.97 138.907 337.83 140.272 336.037 139.621C334.244 138.971 333.479 136.549 334.327 134.215C334.362 134.115 334.402 134.018 334.443 133.922C334.493 133.804 334.545 133.689 334.601 133.578C334.928 132.929 335.359 132.379 335.849 131.956" stroke="#282828" stroke-width="0.4" stroke-linecap="round" stroke-linejoin="round"/>
<path d="M338.627 134.124C338.973 134.25 339.321 134.339 339.669 134.396C339.694 134.901 339.607 135.476 339.397 136.055C338.858 137.54 337.714 138.487 336.842 138.171C335.97 137.856 335.701 136.394 336.239 134.909C336.241 134.902 336.243 134.896 336.245 134.89C336.926 135.075 337.475 135.071 337.551 134.861C337.627 134.651 337.246 134.329 336.657 134.043C336.819 133.783 336.999 133.552 337.19 133.361C337.617 133.671 338.098 133.932 338.627 134.124Z" fill="#282828"/>
<path d="M337.552 134.862C337.476 135.073 336.928 135.075 336.247 134.89C336.36 134.581 336.501 134.298 336.659 134.042C337.249 134.328 337.626 134.659 337.553 134.86L337.552 134.862Z" fill="white"/>
<path d="M341.158 134.444C341.096 132.913 340.348 131.613 339.107 131.164C338.027 130.772 336.822 131.112 335.849 131.955" stroke="#282828" stroke-width="0.4" stroke-linecap="round" stroke-linejoin="round"/>
<path d="M339.669 134.396C339.323 134.339 338.973 134.248 338.627 134.123C338.098 133.931 337.617 133.671 337.19 133.361C336.644 132.964 336.192 132.484 335.847 131.955C336.82 131.113 338.027 130.773 339.106 131.163C340.346 131.614 341.094 132.912 341.157 134.443C340.673 134.493 340.172 134.479 339.666 134.395L339.669 134.396Z" fill="#BEFF74" stroke="#282828" stroke-width="0.4" stroke-linecap="round" stroke-linejoin="round"/>
<path d="M340.262 133.319C340.262 133.319 340.02 133.961 339.387 134.309L340.262 133.319Z" fill="#BEFF74"/>
<path d="M340.262 133.319C340.262 133.319 340.02 133.961 339.387 134.309" stroke="#282828" stroke-width="0.4" stroke-linecap="round" stroke-linejoin="round"/>
<path d="M339.32 133.123C339.32 133.123 339.078 133.764 338.445 134.113L339.32 133.123Z" fill="#BEFF74"/>
<path d="M339.32 133.123C339.32 133.123 339.078 133.764 338.445 134.113" stroke="#282828" stroke-width="0.4" stroke-linecap="round" stroke-linejoin="round"/>
<path d="M335.201 131.843C335.255 132.522 335.176 133.253 334.942 133.982C334.185 136.349 332.099 137.796 330.282 137.214C328.465 136.632 327.608 134.244 328.365 131.877C328.397 131.776 328.432 131.678 328.47 131.581C328.516 131.461 328.563 131.345 328.615 131.231C328.917 130.57 329.326 130.003 329.799 129.562" fill="white"/>
<path d="M335.201 131.843C335.255 132.522 335.176 133.253 334.942 133.982C334.185 136.349 332.099 137.796 330.282 137.214C328.465 136.632 327.608 134.244 328.365 131.877C328.397 131.776 328.432 131.678 328.47 131.581C328.516 131.461 328.563 131.345 328.615 131.231C328.917 130.57 329.326 130.003 329.799 129.562" stroke="#282828" stroke-width="0.4" stroke-linecap="round" stroke-linejoin="round"/>
<path d="M332.66 131.622C333.009 131.734 333.362 131.81 333.711 131.854C333.753 132.358 333.69 132.935 333.502 133.521C333.02 135.026 331.915 136.017 331.031 135.734C330.147 135.451 329.822 134.002 330.303 132.497C330.305 132.491 330.308 132.485 330.31 132.478C330.997 132.636 331.545 132.613 331.614 132.399C331.682 132.185 331.288 131.88 330.688 131.616C330.84 131.349 331.011 131.112 331.194 130.913C331.632 131.206 332.123 131.448 332.66 131.62L332.66 131.622Z" fill="#282828"/>
<path d="M331.613 132.399C331.544 132.613 330.997 132.636 330.309 132.478C330.409 132.165 330.54 131.876 330.687 131.616C331.288 131.879 331.678 132.195 331.613 132.399Z" fill="white"/>
<path d="M335.201 131.843C335.081 130.316 334.283 129.048 333.025 128.645C331.932 128.295 330.74 128.681 329.8 129.56" stroke="#282828" stroke-width="0.4" stroke-linecap="round" stroke-linejoin="round"/>
<path d="M333.711 131.855C333.362 131.811 333.01 131.735 332.66 131.623C332.124 131.451 331.634 131.209 331.194 130.916C330.635 130.54 330.163 130.078 329.798 129.562C330.738 128.683 331.93 128.297 333.024 128.647C334.281 129.05 335.079 130.318 335.199 131.847C334.719 131.915 334.216 131.921 333.709 131.856L333.711 131.855Z" fill="#BEFF74" stroke="#282828" stroke-width="0.4" stroke-linecap="round" stroke-linejoin="round"/>
<path d="M334.263 130.754C334.263 130.754 334.046 131.404 333.427 131.777L334.263 130.754Z" fill="#BEFF74"/>
<path d="M334.263 130.754C334.263 130.754 334.046 131.404 333.427 131.777" stroke="#282828" stroke-width="0.4" stroke-linecap="round" stroke-linejoin="round"/>
<path d="M333.312 130.594C333.312 130.594 333.095 131.244 332.475 131.617L333.312 130.594Z" fill="#BEFF74"/>
<path d="M333.312 130.594C333.312 130.594 333.095 131.244 332.475 131.617" stroke="#282828" stroke-width="0.4" stroke-linecap="round" stroke-linejoin="round"/>
<path d="M334.812 139.849C334.812 139.849 332.526 141.153 331.754 137.801" stroke="#282828" stroke-width="0.4" stroke-linecap="round" stroke-linejoin="round"/>
<circle cx="43.7699" cy="154.397" r="16.4824" transform="rotate(-21.4195 43.7699 154.397)" fill="#00A176" stroke="white" stroke-width="3"/>
<path d="M29.4786 139.223C31.0422 137.848 32.9201 137.042 34.7378 136.906C36.5564 136.77 38.4112 137.309 39.6811 138.753C40.3458 139.508 40.7091 140.412 40.5736 141.412C40.4503 142.319 39.9433 143.06 39.4492 143.624C38.9432 144.202 38.301 144.759 37.6763 145.279C37.0198 145.825 36.3798 146.333 35.7287 146.906C35.0801 147.477 34.529 148.016 33.9587 148.549C33.4213 149.051 32.8439 149.569 32.2563 149.945C31.6664 150.322 30.8887 150.671 29.9793 150.578C29.0456 150.482 28.3017 149.956 27.7097 149.283C26.44 147.839 26.1417 145.93 26.509 144.144C26.8762 142.359 27.915 140.599 29.4786 139.223Z" fill="#00CBCE" stroke="white" stroke-width="3"/>
<circle cx="43.7696" cy="154.397" r="14.7824" transform="rotate(-21.4195 43.7696 154.397)" fill="#00A176" stroke="#282828" stroke-width="0.4"/>
<path d="M41.5361 137.73C40.6449 138.759 38.882 139.903 38.1119 140.347L31.9233 148.294C33.0715 148.127 36.1229 147.241 39.1427 145.037C42.9176 142.283 42.65 136.443 41.5361 137.73Z" fill="#003F31" stroke="#282828" stroke-width="0.4" stroke-linecap="round"/>
<path d="M30.6016 140.501C31.9138 139.346 33.4493 138.709 34.8652 138.602C36.2809 138.496 37.5642 138.921 38.4046 139.876C38.8207 140.349 38.9447 140.777 38.8896 141.183C38.8328 141.602 38.5813 142.036 38.1704 142.505C37.7611 142.972 37.2119 143.454 36.5894 143.972C35.9711 144.487 35.2795 145.037 34.606 145.63C33.9321 146.223 33.3335 146.807 32.7977 147.308C32.2575 147.812 31.7828 148.231 31.3414 148.513C30.9004 148.795 30.5162 148.925 30.1535 148.888C29.7939 148.851 29.4124 148.644 28.9865 148.16C28.1463 147.205 27.8884 145.878 28.1741 144.488C28.4601 143.097 29.2893 141.655 30.6016 140.501Z" fill="#00CBCE" stroke="#282828" stroke-width="0.4"/>
<path d="M29.8186 140.791C29.9484 140.667 30.0896 140.594 30.2056 140.568C30.3255 140.542 30.3835 140.571 30.4053 140.593C30.4271 140.616 30.454 140.676 30.4222 140.795C30.3914 140.909 30.3119 141.047 30.1823 141.171C30.0525 141.295 29.9107 141.369 29.7946 141.395C29.6744 141.421 29.6159 141.391 29.5942 141.369C29.5725 141.346 29.5463 141.287 29.578 141.168C29.6088 141.053 29.6887 140.915 29.8186 140.791Z" fill="#003F31" stroke="#282828" stroke-width="0.4"/>
<path d="M44.9763 160.607C42.6821 161.507 40.0241 160.218 39.0489 157.732C39.0279 157.679 39.0097 157.626 38.9928 157.571L42.9984 155.819C43.5475 156.843 44.7334 157.332 45.7475 156.934C46.5844 156.605 47.0909 155.762 47.0862 154.853C47.2549 155.155 47.4528 155.442 47.68 155.712C47.9548 157.861 46.8472 159.87 44.9735 160.605L44.9763 160.607Z" fill="white"/>
<path d="M42.9521 155.961C43.5462 156.972 44.7536 157.443 45.7883 157.037C46.5572 156.735 47.0607 156.024 47.1734 155.214C47.2947 155.402 47.4284 155.585 47.5756 155.76C47.8302 157.846 46.7502 159.792 44.9363 160.504C42.6997 161.381 40.1049 160.12 39.1523 157.692C39.1443 157.672 39.137 157.653 39.1297 157.634L42.9509 155.964M46.8343 154.022L46.8199 154.028C47.2531 155.168 46.7596 156.42 45.7083 156.833C44.657 157.245 43.5487 156.712 43.0503 155.678L38.8575 157.511C38.8873 157.599 38.9122 157.686 38.9462 157.773C39.9449 160.319 42.6631 161.633 45.0171 160.71C46.9919 159.935 48.0783 157.83 47.7888 155.667C47.4192 155.234 47.1084 154.733 46.886 154.166C46.8674 154.119 46.855 154.069 46.8364 154.021L46.8343 154.022Z" fill="#282828"/>
<path d="M52.9149 156.999C51.1916 157.675 49.1654 157.112 47.8732 155.595C47.4946 155.151 47.1982 154.656 46.9895 154.124C46.9839 154.11 46.9782 154.096 46.9734 154.083L50.8309 152.396C50.8309 152.396 50.8381 152.415 50.8422 152.425C51.3136 153.627 52.6031 154.246 53.7183 153.809C54.8334 153.371 55.3571 152.038 54.8865 150.839C54.8639 150.781 54.8383 150.722 54.8063 150.658L55.1531 150.506C55.2083 150.622 55.2601 150.742 55.307 150.862C56.2814 153.345 55.2092 156.099 52.9149 156.999Z" fill="white"/>
<path d="M55.0952 150.652C55.1325 150.735 55.1677 150.819 55.2008 150.903C56.1534 153.332 55.1079 156.02 52.8714 156.898C51.1914 157.557 49.2148 157.005 47.9541 155.525C47.5979 155.108 47.3157 154.644 47.1122 154.143L47.2911 154.066L50.7668 152.545C51.2854 153.752 52.6074 154.363 53.7535 153.914C54.8996 153.464 55.4777 152.058 54.9836 150.798C54.9731 150.771 54.9618 150.743 54.9505 150.714L55.0944 150.65M55.2028 150.363L54.6481 150.604C54.6969 150.692 54.7415 150.781 54.7795 150.878C55.2291 152.024 54.7343 153.291 53.6747 153.707C52.6152 154.123 51.391 153.53 50.9414 152.384C50.9236 152.339 50.9099 152.292 50.8942 152.246L47.2033 153.86L46.8338 154.022C46.8524 154.069 46.864 154.117 46.8834 154.166C47.1058 154.733 47.4166 155.234 47.7862 155.667C49.0775 157.182 51.1239 157.821 52.9543 157.103C55.3084 156.18 56.4077 153.367 55.409 150.822C55.3468 150.663 55.2779 150.512 55.2028 150.363Z" fill="#282828"/>
<path d="M50.9422 152.383C51.3918 153.53 52.6161 154.122 53.6756 153.706C54.7351 153.291 55.23 152.024 54.7804 150.878C54.7424 150.781 54.6978 150.691 54.649 150.603L50.895 152.245C50.9107 152.291 50.9244 152.338 50.9422 152.383Z" fill="#282828"/>
<path d="M45.7087 156.832C46.7621 156.419 47.2556 155.167 46.8212 154.029L43.0507 155.677C43.5492 156.711 44.7028 157.227 45.7087 156.832Z" fill="#282828"/>
<path d="M48.0474 160.099C49.0235 160.676 50.2793 160.168 50.9966 159.401" stroke="#282828" stroke-width="0.4" stroke-linecap="round" stroke-linejoin="round"/>
<defs>
<linearGradient id="paint0_linear_4833_63067" x1="187.5" y1="71" x2="187.5" y2="120" gradientUnits="userSpaceOnUse">
<stop offset="0.206731" stop-color="white"/>
<stop offset="1" stop-color="#77FFDF"/>
</linearGradient>
</defs>
</svg>
