<svg width="18" height="18" viewBox="0 0 18 18" fill="none" xmlns="http://www.w3.org/2000/svg">
<path d="M1.67433 5.95421C1.543 5.36243 1.56317 4.74706 1.73295 4.16516C1.90273 3.58326 2.21663 3.05366 2.64555 2.62547C3.07447 2.19728 3.60451 1.88437 4.18654 1.71574C4.76857 1.54711 5.38374 1.52822 5.975 1.66084C6.30044 1.15166 6.74877 0.73264 7.27866 0.442389C7.80855 0.152138 8.40295 0 9.00707 0C9.61119 0 10.2056 0.152138 10.7355 0.442389C11.2654 0.73264 11.7137 1.15166 12.0391 1.66084C12.6313 1.52765 13.2475 1.54645 13.8305 1.71548C14.4134 1.88452 14.9442 2.19831 15.3734 2.62766C15.8026 3.05701 16.1162 3.58797 16.2852 4.17116C16.4542 4.75434 16.473 5.37081 16.3398 5.96321C16.8488 6.28878 17.2676 6.73728 17.5578 7.26738C17.8479 7.79748 18 8.39211 18 8.99647C18 9.60083 17.8479 10.1955 17.5578 10.7256C17.2676 11.2557 16.8488 11.7042 16.3398 12.0297C16.4724 12.6212 16.4535 13.2366 16.2849 13.8189C16.1164 14.4012 15.8036 14.9314 15.3756 15.3605C14.9475 15.7896 14.4182 16.1036 13.8365 16.2735C13.2548 16.4433 12.6397 16.4635 12.0481 16.3321C11.7231 16.8432 11.2744 17.2641 10.7437 17.5556C10.2129 17.8471 9.61711 18 9.01157 18C8.40603 18 7.81028 17.8471 7.27949 17.5556C6.7487 17.2641 6.30002 16.8432 5.975 16.3321C5.38374 16.4647 4.76857 16.4458 4.18654 16.2772C3.60451 16.1086 3.07447 15.7957 2.64555 15.3675C2.21663 14.9393 1.90273 14.4097 1.73295 13.8278C1.56317 13.2459 1.543 12.6305 1.67433 12.0387C1.16145 11.714 0.738987 11.2648 0.446248 10.7329C0.153509 10.201 0 9.60367 0 8.99647C0 8.38927 0.153509 7.79194 0.446248 7.26003C0.738987 6.72812 1.16145 6.27892 1.67433 5.95421Z" fill="#00A176"/>
<path d="M11.9374 5.70245C12.2677 5.33095 12.836 5.29752 13.2075 5.62775C13.579 5.95797 13.6124 6.52626 13.2822 6.89777L8.48246 12.2978C8.31173 12.4898 8.06706 12.6 7.8101 12.6001C7.58519 12.6001 7.36931 12.516 7.20453 12.3663L7.13685 12.2978L4.73744 9.59777L4.67943 9.52658C4.41217 9.15674 4.46378 8.6374 4.81215 8.32775C5.18365 7.99752 5.75194 8.03095 6.08217 8.40245L7.80922 10.3448L11.9374 5.70245Z" fill="white"/>
</svg>
