<svg width="28" height="27" viewBox="0 0 28 27" fill="none" xmlns="http://www.w3.org/2000/svg">
<path d="M3.41847 9.10052C3.22878 8.24573 3.25791 7.35687 3.50315 6.51634C3.74839 5.67581 4.2018 4.91084 4.82135 4.29235C5.4409 3.67385 6.20652 3.22186 7.04722 2.97829C7.88793 2.73471 8.77651 2.70743 9.63056 2.89899C10.1006 2.16351 10.7482 1.55826 11.5136 1.13901C12.279 0.719754 13.1376 0.5 14.0102 0.5C14.8828 0.5 15.7414 0.719754 16.5068 1.13901C17.2722 1.55826 17.9198 2.16351 18.3899 2.89899C19.2452 2.7066 20.1353 2.73375 20.9774 2.97792C21.8194 3.22209 22.5861 3.67534 23.206 4.29551C23.8259 4.91568 24.279 5.68262 24.5231 6.525C24.7671 7.36738 24.7943 8.25783 24.602 9.11353C25.3371 9.58379 25.9422 10.2316 26.3612 10.9973C26.7803 11.763 27 12.6219 27 13.4949C27 14.3679 26.7803 15.2268 26.3612 15.9925C25.9422 16.7582 25.3371 17.406 24.602 17.8763C24.7934 18.7307 24.7662 19.6196 24.5227 20.4606C24.2792 21.3017 23.8274 22.0676 23.2091 22.6874C22.5909 23.3072 21.8262 23.7608 20.986 24.0061C20.1458 24.2514 19.2573 24.2806 18.4029 24.0908C17.9334 24.8291 17.2853 25.437 16.5186 25.8581C15.7519 26.2792 14.8914 26.5 14.0167 26.5C13.142 26.5 12.2815 26.2792 11.5148 25.8581C10.7481 25.437 10.1 24.8291 9.63056 24.0908C8.77651 24.2824 7.88793 24.2551 7.04722 24.0115C6.20652 23.7679 5.4409 23.316 4.82135 22.6975C4.2018 22.079 3.74839 21.314 3.50315 20.4735C3.25791 19.6329 3.22878 18.7441 3.41847 17.8893C2.67764 17.4203 2.06743 16.7714 1.64458 16.0031C1.22174 15.2348 1 14.372 1 13.4949C1 12.6178 1.22174 11.755 1.64458 10.9867C2.06743 10.2184 2.67764 9.56955 3.41847 9.10052Z" fill="#00A176" stroke="#282828" stroke-width="0.7" stroke-linecap="round" stroke-linejoin="round"/>
<path d="M18.2431 8.73709C18.7201 8.20048 19.541 8.15219 20.0776 8.62918C20.6142 9.10618 20.6625 9.92704 20.1855 10.4637L13.2526 18.2637C13.006 18.5411 12.6526 18.7003 12.2814 18.7004C11.9566 18.7004 11.6447 18.5789 11.4067 18.3627L11.309 18.2637L7.84314 14.3637L7.75935 14.2608C7.37331 13.7266 7.44786 12.9765 7.95105 12.5292C8.48767 12.0522 9.30853 12.1005 9.78553 12.6371L12.2802 15.4428L18.2431 8.73709Z" fill="white" stroke="#282828" stroke-width="0.7" stroke-linecap="round" stroke-linejoin="round"/>
</svg>
