<svg width="50" height="50" viewBox="0 0 50 50" fill="none" xmlns="http://www.w3.org/2000/svg">
<circle cx="25" cy="25" r="24.65" fill="white" stroke="#282828" stroke-width="0.7"/>
<g clip-path="url(#clip0_4867_63255)">
<path d="M32.5787 23.4093C34.2399 23.4093 35.0893 22.3318 35.0893 20.4993V12.7139H33.2901V20.4808C33.2901 21.3502 33.151 21.8034 32.5787 21.8034C32.0064 21.8034 31.8067 21.3305 31.8067 20.4808V12.7139H30.0076V20.5178C30.0076 22.3318 30.938 23.4093 32.5787 23.4093Z" fill="black"/>
<path d="M13.2172 21.8788C12.6643 21.8788 12.2093 21.5389 12.2093 20.3099H10.4489C10.4295 22.369 11.418 23.428 13.2378 23.428C15.0575 23.428 15.9081 22.1435 15.9081 20.5746C15.9081 18.7988 14.8797 17.9479 13.6528 17.0785C12.8821 16.4923 12.3485 16.0391 12.3485 15.1512C12.3485 14.3766 12.7429 14.0737 13.1591 14.0737C13.5754 14.0737 14.0497 14.3199 14.0497 15.3778H15.7508C15.7508 13.5257 14.8809 12.543 13.1797 12.543C11.4785 12.543 10.53 13.639 10.53 15.1697C10.53 16.8322 11.677 17.7964 12.6849 18.5526C13.6746 19.3087 14.0896 19.6671 14.0896 20.5746C14.0896 21.3492 13.8125 21.8788 13.2196 21.8788H13.2172Z" fill="#00D778"/>
<path d="M39.306 24.7134H37.5056V29.0789H39.306V24.7134Z" fill="#0082FF"/>
<path d="M36.2594 24.7134H34.4602V29.0789H36.2594V24.7134Z" fill="#0082FF"/>
<path d="M39.7367 21.5386H37.641V12.7139H35.7814V23.3156H39.7367V21.5386Z" fill="black"/>
<path d="M9.58141 31.649L8.0581 24.7134H6.21899V35.314H7.90081V29.5888L9.18576 35.1822H9.91777L11.2427 29.5691V35.314H12.9233V24.7134H11.1241L9.58141 31.649Z" fill="black"/>
<path d="M16.7407 31.894C15.7316 31.894 14.881 32.7068 14.881 33.6699C14.881 34.6329 15.7316 35.4272 16.7407 35.4272C17.7497 35.4272 18.5798 34.6526 18.5798 33.6699C18.5798 32.6872 17.7098 31.894 16.7407 31.894Z" fill="#FFB400"/>
<path d="M16.4236 31.2895H17.0177L20.2204 24.7134H13.2197L16.4236 31.2895Z" fill="#FFB400"/>
<path d="M38.6321 32.0457C38.6321 33.1799 37.8408 33.766 36.8922 33.766C35.9436 33.766 35.093 33.1799 35.093 32.0457V30.7046H33.2926V32.0087C33.2926 34.1256 34.9151 35.3916 36.8922 35.3916C38.8692 35.3916 40.4324 34.1256 40.4324 32.0087V30.7046H38.6333V32.0457H38.6321Z" fill="#0082FF"/>
<path d="M42.9237 33.5382V24.7134H41.0447V35.314H45V33.5382H42.9237Z" fill="black"/>
<path d="M30.1685 24.6001C28.546 24.6001 27.6373 25.5077 27.6373 27.5101V32.537C27.6373 34.3509 28.5472 35.4285 30.2072 35.4285C31.8673 35.4285 32.7191 34.3324 32.7191 32.5185V27.5112C32.7191 25.5077 31.8092 24.6013 30.1685 24.6013V24.6001ZM30.9199 32.4803C30.9199 33.3301 30.8013 33.8214 30.2072 33.8214C29.6543 33.8214 29.4365 33.3486 29.4365 32.4988V27.4916C29.4365 26.6603 29.6337 26.2071 30.1879 26.2071C30.782 26.2071 30.9199 26.6603 30.9199 27.4916V32.4803Z" fill="black"/>
<path d="M24.8291 29.1356C24.0378 28.5691 23.5235 28.0962 23.5235 27.2083C23.5235 26.4337 23.9192 26.1308 24.3342 26.1308C24.7492 26.1308 25.2235 26.3771 25.2235 27.4349H26.9247C26.9247 25.5828 26.0547 24.6001 24.3536 24.6001C22.6524 24.6001 21.7038 25.6961 21.7038 27.2268C21.7038 28.8894 22.8508 29.8536 23.8599 30.6097C24.8484 31.3658 25.2634 31.7242 25.2634 32.6318C25.2634 33.4064 24.9864 33.9359 24.3935 33.9359C23.8393 33.9359 23.3844 33.596 23.3844 32.367H21.6239C21.6046 34.4272 22.5931 35.4851 24.4128 35.4851C26.2326 35.4851 27.0832 34.2006 27.0832 32.6318C27.0832 30.8559 26.0342 30.0247 24.8291 29.1356Z" fill="black"/>
<path d="M16.4805 23.3156H20.4152V21.6138H18.3196V18.7038H20.218V17.1546H18.3196V14.396H20.4152V12.7139H16.4805V23.3156Z" fill="black"/>
<path d="M25.261 23.1272C26.6452 21.7283 28.6634 19.0645 29.2562 17.0424C29.9483 14.9071 29.0384 13.0179 27.4365 12.6965C25.8152 12.3751 25.0239 13.433 25.0239 13.433C25.0239 13.433 24.1938 12.4503 22.5919 12.7335C21.0093 13.1116 20.2785 14.9256 20.95 17.0794C21.5235 19.0067 23.5804 21.7086 24.8266 23.1075C24.9851 23.296 25.0844 23.296 25.2622 23.126L25.261 23.1272ZM23.1848 14.2839C23.9156 14.1139 24.6282 14.8319 24.9452 15.3418C24.9658 15.4551 25.163 15.4551 25.2223 15.3418C25.48 14.8319 26.0729 14.1509 26.8835 14.3209C27.8527 14.6238 27.8321 16.0031 27.2985 17.2505C26.9029 18.0818 26.0729 19.6507 25.0638 20.86C24.0946 19.6507 23.1255 17.9315 22.7697 17.0806C22.2749 15.8898 22.1962 14.5857 23.1848 14.2839Z" fill="#FF0A73"/>
</g>
<defs>
<clipPath id="clip0_4867_63255">
<rect width="38.7809" height="22.9412" fill="white" transform="translate(6.21899 12.5439)"/>
</clipPath>
</defs>
</svg>
