<svg width="65" height="65" viewBox="0 0 65 65" fill="none" xmlns="http://www.w3.org/2000/svg">
<path d="M54.1668 35.2079C54.1668 48.7496 44.6877 55.5204 33.421 59.4475C32.831 59.6474 32.1902 59.6379 31.6064 59.4204C20.3127 55.5204 10.8335 48.7496 10.8335 35.2079V16.2496C10.8335 15.5313 11.1188 14.8424 11.6267 14.3345C12.1347 13.8266 12.8235 13.5413 13.5418 13.5413C18.9585 13.5413 25.7293 10.2913 30.4418 6.17459C31.0156 5.68438 31.7455 5.41504 32.5002 5.41504C33.2548 5.41504 33.9847 5.68438 34.5585 6.17459C39.2981 10.3183 46.0418 13.5413 51.4585 13.5413C52.1768 13.5413 52.8657 13.8266 53.3736 14.3345C53.8815 14.8424 54.1668 15.5313 54.1668 16.2496V35.2079Z" stroke="#00A176" stroke-width="3" stroke-linecap="round" stroke-linejoin="round"/>
<path d="M21.6665 32.5H21.6936" stroke="#00A176" stroke-width="3" stroke-linecap="round" stroke-linejoin="round"/>
<path d="M32.5 32.5H32.5271" stroke="#00A176" stroke-width="3" stroke-linecap="round" stroke-linejoin="round"/>
<path d="M43.3335 32.5H43.3606" stroke="#00A176" stroke-width="3" stroke-linecap="round" stroke-linejoin="round"/>
</svg>
