<svg width="65" height="65" viewBox="0 0 65 65" fill="none" xmlns="http://www.w3.org/2000/svg">
<path d="M43.3335 27.083H48.7502" stroke="#00A176" stroke-width="3" stroke-linecap="round" stroke-linejoin="round"/>
<path d="M43.3335 37.917H48.7502" stroke="#00A176" stroke-width="3" stroke-linecap="round" stroke-linejoin="round"/>
<path d="M16.7104 40.625C17.2687 39.038 18.3059 37.6634 19.6788 36.691C21.0517 35.7185 22.6926 35.1963 24.375 35.1963C26.0574 35.1963 27.6983 35.7185 29.0712 36.691C30.4441 37.6634 31.4813 39.038 32.0396 40.625" stroke="#00A176" stroke-width="3" stroke-linecap="round" stroke-linejoin="round"/>
<path d="M24.3752 35.2083C27.3667 35.2083 29.7918 32.7832 29.7918 29.7917C29.7918 26.8001 27.3667 24.375 24.3752 24.375C21.3836 24.375 18.9585 26.8001 18.9585 29.7917C18.9585 32.7832 21.3836 35.2083 24.3752 35.2083Z" stroke="#00A176" stroke-width="3" stroke-linecap="round" stroke-linejoin="round"/>
<path d="M54.1665 13.542H10.8332C7.84163 13.542 5.4165 15.9671 5.4165 18.9587V46.042C5.4165 49.0335 7.84163 51.4587 10.8332 51.4587H54.1665C57.1581 51.4587 59.5832 49.0335 59.5832 46.042V18.9587C59.5832 15.9671 57.1581 13.542 54.1665 13.542Z" stroke="#00A176" stroke-width="3" stroke-linecap="round" stroke-linejoin="round"/>
</svg>
